<?xml version="1.0" encoding="UTF-8"?><svg id="a" xmlns="http://www.w3.org/2000/svg" viewBox="0 0 196 210.37"><defs><style>.b{fill:#f7f8f6;} .bg{fill:#000;}</style></defs><path class="bg" d="M193.94,72.97c-6.8-30.5-29-48.6-41.6-56.8-2-1.3-48.8-30.7-95.2-6.9-8.8,4.5-16.7,10.5-23.3,17.7C14.44,43.37,1.84,66.87.24,91.67c-1.3,17.1,2.6,34.3,11.2,49.1,5.2,13.7,14.4,25.5,26.5,33.8,2.8,2,13.9,8.5,18.2,9.4.3.1.5-.1.6-.4h0c.1-.3-.1-.5-.4-.6h0c-4.2-.8-15.1-7.3-17.8-9.2-10.1-7-18.2-16.4-23.5-27.5,5.7,8.2,12.6,15.4,20.5,21.5l.3.3c6.4,4.7,13.4,8.5,20.8,11.3h.2c.8.4,1.6.6,2.4.6,2.1,0,4.7-1.9,7-3.6.4-.3.8-.6,1.1-.8,3.6-2.6,6.2-4.8,6.2-4.8l10-8.5c.8-.7,2-.6,2.7.2h0c.6.8.5,2-.3,2.7l-5.2,4.6c-.6.5-.8,1.3-.5,2s.9,1.2,1.7,1.2h21.7c.7,0,1.2.6,1.2,1.2s-.6,1.2-1.2,1.2h-12.4c-1.2,0-2.1.9-2.1,2.1s.9,2.1,2.1,2.1h15.6c.7,0,1.2.5,1.3,1.1.1.7-.4,1.3-1.1,1.4h-20.5c-.2,0-.4,0-.6.1-.3,0-.5.2-.7.4-.4.4-.7.9-.7,1.5,0,1.1.9,1.9,1.9,1.9h17.9c.7,0,1.2.6,1.2,1.3v.1c-.1.7-.7,1.1-1.3,1.1h-20.3c-1.1,0-1.9.9-1.9,1.9v.3c0,1.1.9,1.9,1.9,1.9h15.3c.7,0,1.3.6,1.3,1.2v.1c0,.1-.1.2-.1.3-.3.3-.7.4-1.1.4h-12.3c-.7,0-1.4.5-1.5,1.2-.3.4-.5.9-.5,1.4,0,1.2,1,2.2,2.2,2.2h21.7c.4,0,.8.3.8.8,0,.2-.1.4-.3.6l-5.2,4.5c-1.2,1-1.4,2.8-.4,4.1.5.6,1.2,1,2,1h.2c.7,0,1.4-.3,1.9-.7l10.1-8.8h0l18.8-12c17.1-7,26.9-14.8,28-15.9,15-15.4,24.8-35.1,27.9-56.4,3.9-14,4.3-29.1,1.2-43.6h0ZM34.44,27.77c4.5-3.8,9.3-7.1,14.4-10-1.2.8-2.4,1.7-3.5,2.6-13.5,8-22.3,23-27.6,34.8-1.9,4.4-3.7,8.8-5.2,13.4-.8,1.8-1.5,3.6-2.1,5.3,4.6-18.5,12.8-34.1,24-46.1ZM38.44,26.57c-8,8.4-14.7,19-19.9,29v-.1c4.3-9.3,10.7-20.7,19.9-28.9h0ZM1.24,91.67c1.4-21.9,11.5-42.8,27.2-58.5-10.1,13-17.2,29.4-20.8,48.2-.6,1.7-1,3.4-1.3,5.2-.2,2.1-.4,4.2-.4,6.3-1.2,11.2-1.3,26.5,3.4,41.8C2.94,121.37.14,106.57,1.24,91.67ZM36.34,167.27l-.3-.2c-9.5-7.3-17.5-16.4-23.7-26.7-5-12.8-6.2-26.1-6-37.1,1.5,15.3,6.6,30.1,15,43,7.1,11.7,16.7,21.6,28.1,29-4.5-2.2-8.9-4.9-13.1-8ZM84.94,160.87c-.8-.1-1.5.2-2.1.7l-10,8.5s-2.6,2.2-6.1,4.8c-.4.3-.8.6-1.2.8-2.1,1.6-4.5,3.4-6.4,3.4-.3,0-.6-.1-.9-.2-1.1-.5-2-1-2.8-1.4,1.6.6,3.1,1.1,3.3,1.1,2.3,0,24-17.6,24-17.6,1-.9,2.6-.8,3.6.2.07.07.13.13.2.2-.5-.3-1-.5-1.6-.5ZM137.84,15.67c-6.8-3.1-31.1-13.8-61.1-8.3,20.9-4,42.6-1,61.6,8.5l-.5-.2ZM103.54,171.87h-21.7c-.3,0-.6-.2-.7-.5h.2l22.6.1c1,0,1.7.8,1.8,1.8v.8c0-1.2-1-2.2-2.2-2.2h0ZM106.84,178.57h-15.6c-.6,0-1.1-.5-1.1-1.1h0v-.2c.2.8.8.9,1.5.9h15.6c.8,0,1.5.5,1.7,1.2.1.4.2.8.1,1.2-.1-1.1-1.1-1.9-2.2-2h0ZM104.44,184.97h-17.9c-.4,0-.7-.3-.9-.6.2.1.4.2.7.2h18.1c.7,0,1.2.4,1.5,1-.4-.4-1-.6-1.5-.6h0ZM99.24,191.57h-15.3c-.3,0-.6-.2-.8-.4h16.1c.7,0,1.3.4,1.6,1.1-.4-.4-1-.7-1.6-.7h0ZM108.94,198.57h-21.7c-.5,0-1-.4-1.2-.9.3.3.7.5,1.2.5l22.3-.2c.7,0,1.3.6,1.3,1.3,0,.2-.1.4-.2.6v-.2c-.2-.6-.9-1.1-1.7-1.1h0ZM164.24,172.47c-1.1,1.1-10.9,8.8-27.9,15.8-.1,0-.2.1-.2.2l-18.5,11.9c-.07,0-.13.03-.2.1l-10.2,8.8c-.4.3-.9.5-1.4.5-.3,0-.5-.1-.8-.3.2-.1.4-.2.7-.4,6.6-5.6,13.6-10.9,13.6-10.9,0,0,15.8-10.9,16.1-11.1,12.2-5.6,23-13.8,31.6-24.2,8.4-9,15.2-19.4,20.2-30.7,1-2.2,1.9-4.5,2.7-6.8-4,17.8-13,34.1-25.7,47.1h0ZM191.84,116.57c-1.4,5.2-3.2,10.3-5.3,15.2-3.3,7.4-7.4,14.5-12.2,21,8.4-14,13-30.5,14.3-48.5.9-8.3,1-16.6.3-24.9-.2-2.7-.5-5.4-1-7.9,2,5.7,3.5,11.6,4.4,17.7,1.1,9.1.9,18.3-.5,27.4h0ZM193.34,88.87c-1.2-8-3.4-15.9-6.5-23.3-2.3-10.2-7.2-19.6-14.3-27.3-5.9-6.3-12.9-11.6-20.6-15.5-8.2-5.7-17.1-10.2-26.6-13.2-11-3.6-39.9-10.3-70.3,3.9-5,2.3-9.8,5.1-14.3,8.3,5.1-4.5,10.8-8.4,16.9-11.5,45.9-23.5,92.2,5.6,94.2,6.9,12.5,8,34.5,26,41.2,56.1,2.4,11.2,2.7,22.7.8,34,.4-6.2.3-12.3-.5-18.4h0Z"/><path class="b" d="M72,62.16c-.85-.7-1.63-1.91-2.33-3.61-.44-1.11-.79-2.68-1.06-4.71-.21-1.64-.31-3.2-.31-4.66-.03-.38-.04-1.04-.04-1.98v-3.26c0-1.26.04-2.77.13-4.53.12-1.5.35-3.02.7-4.58.38-1.52.94-2.82,1.67-3.87.73-1.11,1.72-1.91,2.95-2.38.73-.21,1.42-.31,2.07-.31,1.23,0,1.85.41,1.85,1.23,0,.32-.11.58-.33.77-.22.19-.51.29-.86.29-.12,0-.32-.04-.62-.13l-.62-.09c-.56,0-1.06.17-1.5.51-.44.34-.81.83-1.1,1.47-.68,1.41-1.13,2.95-1.36,4.62-.32,2.05-.5,3.84-.53,5.37-.06,1.32-.09,2.71-.09,4.18v1.19c-.03.41-.04.92-.04,1.54,0,1.5.07,2.96.22,4.4.12,1.7.44,3.17.97,4.4.47,1.38,1.23,2.35,2.29,2.9.5.29,1.11.44,1.85.44,1.29,0,2.38-.62,3.26-1.85-.03-1.03-.1-2.03-.22-3.01-.12-.98-.29-1.65-.53-2-.03,0-.1,0-.2.02-.1.02-.26.04-.46.07l-1.06.09c-1,0-1.5-.42-1.5-1.28,0-.26.15-.5.44-.7.29-.2.69-.35,1.19-.44.82-.21,1.55-.31,2.2-.31.59,0,1.04.22,1.36.66.32.44.48,1,.48,1.67,0,.97.15,2.29.44,3.96.29,1.64.44,2.95.44,3.92,0,.32-.1.6-.31.84-.21.23-.46.35-.75.35-.73,0-1.23-.31-1.5-.92v-.04l-.97.48c-.88.5-1.63.75-2.24.75-1.61,0-2.95-.48-4-1.45Z"/><path class="b" d="M88.9,62.91c-.65-.53-1.2-1.25-1.67-2.16-.85-1.58-1.48-3.75-1.89-6.51-.29-1.91-.51-4.11-.66-6.6l-.04-2.33v-2.38c-.03-.76-.04-1.69-.04-2.77,0-1.76.07-3.31.22-4.66.12-1.41.41-2.8.88-4.18.47-1.2,1.14-2.05,2.02-2.55.53-.23,1.06-.35,1.58-.35,1.55,0,2.79.62,3.7,1.85,1,1.38,1.66,2.92,1.98,4.62.47,2.05.73,4.02.79,5.9.12,2.08.18,4.05.18,5.9v2.51c0,.5-.07,1.44-.22,2.82-.12,1.09-.18,2.01-.18,2.77v.18c-.18.82-.26,1.79-.26,2.9,0,.82-.18,1.67-.53,2.55-.35.88-.85,1.63-1.5,2.24-.65.7-1.38,1.06-2.2,1.06s-1.51-.26-2.16-.79ZM92.64,59.65c.35-.97.61-2.15.77-3.54.16-1.39.3-2.97.42-4.73.06-.76.09-1.75.09-2.95l-.04-4.05c-.06-1.58-.24-3.56-.53-5.94-.23-2.02-.67-3.81-1.32-5.37-.29-.73-.66-1.3-1.1-1.72-.44-.41-.91-.62-1.41-.62-.73,0-1.28.57-1.63,1.72-.44,1.2-.73,2.52-.88,3.96-.18,1.56-.28,3.04-.31,4.44l-.04,1.45c-.03.41-.04.97-.04,1.67v.18c0,1.97.21,4.39.62,7.26.47,3.9,1.16,6.67,2.07,8.32.59,1.03,1.2,1.54,1.85,1.54.59,0,1.08-.54,1.5-1.63Z"/><path class="b" d="M104.52,62.91c-.65-.53-1.2-1.25-1.67-2.16-.85-1.58-1.48-3.75-1.89-6.51-.29-1.91-.51-4.11-.66-6.6l-.04-2.33v-2.38c-.03-.76-.04-1.69-.04-2.77,0-1.76.07-3.31.22-4.66.12-1.41.41-2.8.88-4.18.47-1.2,1.14-2.05,2.02-2.55.53-.23,1.06-.35,1.58-.35,1.55,0,2.79.62,3.7,1.85,1,1.38,1.66,2.92,1.98,4.62.47,2.05.73,4.02.79,5.9.12,2.08.18,4.05.18,5.9v2.51c0,.5-.07,1.44-.22,2.82-.12,1.09-.18,2.01-.18,2.77v.18c-.18.82-.26,1.79-.26,2.9,0,.82-.18,1.67-.53,2.55-.35.88-.85,1.63-1.5,2.24-.65.7-1.38,1.06-2.2,1.06s-1.51-.26-2.16-.79ZM108.26,59.65c.35-.97.61-2.15.77-3.54.16-1.39.3-2.97.42-4.73.06-.76.09-1.75.09-2.95l-.04-4.05c-.06-1.58-.23-3.56-.53-5.94-.23-2.02-.68-3.81-1.32-5.37-.29-.73-.66-1.3-1.1-1.72-.44-.41-.91-.62-1.41-.62-.73,0-1.28.57-1.63,1.72-.44,1.2-.73,2.52-.88,3.96-.18,1.56-.28,3.04-.31,4.44l-.04,1.45c-.03.41-.04.97-.04,1.67v.18c0,1.97.21,4.39.62,7.26.47,3.9,1.16,6.67,2.07,8.32.59,1.03,1.2,1.54,1.85,1.54.59,0,1.08-.54,1.5-1.63Z"/><path class="b" d="M117.26,62.16c-.43-.26-.64-.63-.64-1.1.65-.64.97-2.36.97-5.15,0-1.67-.13-4.11-.4-7.3-.29-3.05-.44-5.46-.44-7.22l.09-2.42c.03-.7.04-1.51.04-2.42,0-.82-.15-1.86-.44-3.12-.35-1.32-.53-2.24-.53-2.77,0-1.03,1.13-1.54,3.39-1.54h.66c1.58,0,2.96.48,4.14,1.45.94.82,1.73,2.01,2.38,3.56.44,1.06.82,2.52,1.14,4.4.18,1.64.26,2.93.26,3.87v3.48c-.06.12-.09.23-.09.35,0,.23.01.41.04.53.03.12.04.26.04.44,0,.94-.14,2.06-.42,3.37-.28,1.31-.68,2.63-1.21,3.98-1.32,3.23-2.8,5.52-4.44,6.86-.97.76-1.98,1.14-3.04,1.14-.59,0-1.09-.13-1.52-.4ZM122.56,57.08c.82-1.28,1.45-2.69,1.89-4.25.79-2.87,1.19-5.78,1.19-8.71,0-1.58-.15-3.31-.44-5.19-.32-1.82-1.01-3.46-2.07-4.93-.5-.7-1.13-1.25-1.89-1.65s-1.63-.59-2.6-.59v.04c0,2.64.18,6.63.53,11.97.35,5.31.53,9.33.53,12.06v4.18c1.08-.67,2.04-1.65,2.86-2.93Z"/><path class="b" d="M56.97,109.97c-.18-.29-.26-.72-.26-1.28l-.04-6.51c-.03-.56-.04-1.48-.04-2.77-.06-2.73-.09-5.81-.09-9.24v-2.24c-.26,1.41-.72,3.39-1.36,5.94-.65,2.64-1.1,4.81-1.36,6.51v.26l-.13.84c-.06.65-.21,1.31-.44,1.98-.29.7-.75,1.06-1.36,1.06-1.06,0-1.58-1.38-1.58-4.14,0-1.52-.15-3.16-.46-4.91-.31-1.75-.8-3.89-1.47-6.45l-1.32-4.93-.09,5.28c0,1.58.07,4.61.22,9.06l.09,2.99.09,6.03c0,.62-.22,1.17-.66,1.67-.73,0-1.24-.23-1.52-.68-.28-.46-.42-1.12-.42-2l.09-3.61c.09-1.58.13-2.77.13-3.56l-.09-8.49-.09-8.54c0-1.26.03-3.15.09-5.68l1.19-.7c.23.03.47.2.7.51.23.31.5.8.79,1.47.73,1.82,1.69,5.46,2.86,10.91.18.76.29,1.39.35,1.89.35,1.7.6,2.99.75,3.87l.66,3.39.31-1.45.84-3.61c.47-2.11.86-3.96,1.17-5.54s.61-3.3.9-5.15c.32-2.2.53-4.03.62-5.5v-.26c.06-.38.23-.68.53-.9.29-.22.65-.33,1.06-.33.26,0,.5.12.7.35.2.24.31.48.31.75,0,3.52.13,8.79.4,15.8.15,3.43.25,6.79.31,10.08.06,1.5.09,3.39.09,5.68,0,.68-.18,1.28-.53,1.8-.35.53-.75.79-1.19.79-.29,0-.53-.15-.7-.44Z"/><path class="b" d="M68.55,109.71c-.65-.53-1.2-1.25-1.67-2.16-.85-1.58-1.48-3.75-1.89-6.51-.29-1.91-.51-4.11-.66-6.6l-.04-2.33v-2.38c-.03-.76-.04-1.69-.04-2.77,0-1.76.07-3.31.22-4.66.12-1.41.41-2.8.88-4.18.47-1.2,1.14-2.05,2.02-2.55.53-.23,1.06-.35,1.58-.35,1.55,0,2.79.62,3.7,1.85,1,1.38,1.66,2.92,1.98,4.62.47,2.05.73,4.02.79,5.9.12,2.08.18,4.05.18,5.9v2.51c0,.5-.07,1.44-.22,2.82-.12,1.09-.18,2.01-.18,2.77v.18c-.18.82-.26,1.79-.26,2.9,0,.82-.18,1.67-.53,2.55-.35.88-.85,1.63-1.5,2.24-.65.7-1.38,1.06-2.2,1.06s-1.51-.26-2.16-.79ZM72.29,106.45c.35-.97.61-2.15.77-3.54.16-1.39.3-2.97.42-4.73.06-.76.09-1.75.09-2.95l-.04-4.05c-.06-1.58-.24-3.56-.53-5.94-.23-2.02-.67-3.81-1.32-5.37-.29-.73-.66-1.3-1.1-1.72-.44-.41-.91-.62-1.41-.62-.73,0-1.28.57-1.63,1.72-.44,1.2-.73,2.52-.88,3.96-.18,1.56-.28,3.04-.31,4.44l-.04,1.45c-.03.41-.04.97-.04,1.67v.18c0,1.97.21,4.39.62,7.26.47,3.9,1.16,6.67,2.07,8.32.59,1.03,1.2,1.54,1.85,1.54.59,0,1.08-.54,1.5-1.63Z"/><path class="b" d="M87.07,108.52v-.13c-.09-1.55-.35-3.28-.79-5.19s-1.09-4.21-1.94-6.91c-.65-2.02-1.19-3.84-1.63-5.46v17.34c0,.47-.08.81-.24,1.03-.16.22-.48.33-.95.33-.35,0-.63-.11-.84-.33-.21-.22-.31-.51-.31-.86v-.35l.09-12.94c.06-3.81.09-8.11.09-12.89v-5.41c0-.35.07-.59.22-.73.15-.13.45-.2.92-.2.73,0,1.41.14,2.02.42.62.28,1.14.67,1.58,1.17.91,1.03,1.5,2.26,1.76,3.7.12.59.18,1.26.18,2.02,0,.44-.04.92-.11,1.45-.07.53-.12.87-.15,1.01-.06.29-.19.73-.4,1.32-.21.59-.34.97-.4,1.14l-.53,1.23-.44,1.14c.03,1.06.21,2.39.55,4,.34,1.61.71,3.11,1.12,4.49.29.97.82,2.58,1.58,4.84l1.28,3.87v.09c0,.5-.04.92-.13,1.28-.09.47-.4.7-.92.7-.56,0-1.1-.4-1.63-1.19ZM84.12,87.14l.66-3.78c.03-.15.04-.35.04-.62,0-.85-.16-1.83-.48-2.95-.18-.53-.4-.98-.68-1.34-.28-.37-.57-.56-.86-.59l-.09,4.4c-.09,1.97-.13,3.49-.13,4.58,0,1.03.01,1.7.04,2.02.41-.41.91-.98,1.5-1.72Z"/><path class="b" d="M100.54,100.86c-2.05-7.07-3.83-13.57-5.32-19.49v14.43c0,1.23.12,3.33.35,6.29.2,3.23.31,5.31.31,6.25,0,.26-.16.49-.48.68-.32.19-.69.29-1.1.29-.62,0-.92-.23-.92-.7l.09-1.28c.06-.94.09-1.55.09-1.85,0-1.55-.09-4.02-.26-7.39-.18-3.43-.26-5.51-.26-6.25v-5.63c0-.91.04-2.26.13-4.05.12-1.55.18-2.9.18-4.05v-.26c0-1.47.32-2.2.97-2.2.38,0,.87.65,1.45,1.94.97,2.11,2.2,5.9,3.7,11.35.85,3.17,1.85,7.25,2.99,12.23-.03-.12.21.9.7,3.04l.04.22c0-2.85.03-5.4.09-7.66l.09-7.66v-13.02c.12-.73.59-1.1,1.41-1.1s1.19.57,1.19,1.72v.26c-.18.35-.26.78-.26,1.28,0,1.79-.04,4.49-.13,8.1-.09,3.64-.13,6.37-.13,8.18v13.42c0,.47-.12.92-.37,1.34s-.55.64-.9.64c-.59,0-1.79-3.02-3.61-9.06Z"/><path class="b" d="M110.39,107.9c0-.7.44-1.06,1.32-1.06h.53c.12.03.25.04.4.04.23,0,.4-.07.51-.22.1-.15.15-.41.15-.79,0-2.49-.15-5.9-.44-10.21-.26-4.49-.4-7.88-.4-10.16,0-.82.01-1.57.04-2.24l.04-2.24c0-.97-.04-1.77-.13-2.42-.32.12-.66.18-1.01.18-.68,0-1.01-.35-1.01-1.06,0-.35.21-.66.64-.92.42-.26.97-.45,1.65-.57,1.23-.21,2.27-.31,3.12-.31.35,0,.65.12.9.35.25.24.37.51.37.84s-.1.6-.29.84c-.19.24-.43.35-.73.35-.18,0-.32-.01-.44-.04h-.35c-.29,0-.51.07-.64.2-.13.13-.2.37-.2.73,0,3.11.19,7.39.57,12.85.35,5.72.53,10.02.53,12.89v1.67c.21-.03.5-.04.88-.04,1.23,0,1.85.51,1.85,1.54v.26l-1.1.75s-.12,0-.26.02c-.15.01-.44.02-.88.02-1,.06-1.61.09-1.85.09-2.52,0-3.78-.44-3.78-1.32Z"/><path class="b" d="M129.97,100.86c-2.05-7.07-3.83-13.57-5.32-19.49v14.43c0,1.23.12,3.33.35,6.29.21,3.23.31,5.31.31,6.25,0,.26-.16.49-.48.68-.32.19-.69.29-1.1.29-.62,0-.92-.23-.92-.7l.09-1.28c.06-.94.09-1.55.09-1.85,0-1.55-.09-4.02-.26-7.39-.18-3.43-.26-5.51-.26-6.25v-5.63c0-.91.04-2.26.13-4.05.12-1.55.18-2.9.18-4.05v-.26c0-1.47.32-2.2.97-2.2.38,0,.87.65,1.45,1.94.97,2.11,2.2,5.9,3.7,11.35.85,3.17,1.85,7.25,2.99,12.23-.03-.12.21.9.7,3.04l.04.22c0-2.85.03-5.4.09-7.66l.09-7.66v-13.02c.12-.73.59-1.1,1.41-1.1s1.19.57,1.19,1.72v.26c-.18.35-.26.78-.26,1.28,0,1.79-.04,4.49-.13,8.1-.09,3.64-.13,6.37-.13,8.18v13.42c0,.47-.12.92-.37,1.34-.25.42-.55.64-.9.64-.59,0-1.79-3.02-3.61-9.06Z"/><path class="b" d="M143.87,108.96c-.85-.7-1.63-1.91-2.33-3.61-.44-1.11-.79-2.68-1.06-4.71-.21-1.64-.31-3.2-.31-4.66-.03-.38-.04-1.04-.04-1.98v-3.26c0-1.26.04-2.77.13-4.53.12-1.5.35-3.02.7-4.58.38-1.52.94-2.82,1.67-3.87.73-1.11,1.72-1.91,2.95-2.38.73-.21,1.42-.31,2.07-.31,1.23,0,1.85.41,1.85,1.23,0,.32-.11.58-.33.77-.22.19-.51.29-.86.29-.12,0-.32-.04-.62-.13l-.62-.09c-.56,0-1.06.17-1.5.51-.44.34-.81.83-1.1,1.47-.67,1.41-1.13,2.95-1.36,4.62-.32,2.05-.5,3.84-.53,5.37-.06,1.32-.09,2.71-.09,4.18v1.19c-.03.41-.04.92-.04,1.54,0,1.5.07,2.96.22,4.4.12,1.7.44,3.17.97,4.4.47,1.38,1.23,2.35,2.29,2.9.5.29,1.11.44,1.85.44,1.29,0,2.38-.62,3.26-1.85-.03-1.03-.1-2.03-.22-3.01-.12-.98-.29-1.65-.53-2-.03,0-.09,0-.2.02-.1.02-.26.04-.46.07l-1.06.09c-1,0-1.5-.42-1.5-1.28,0-.26.15-.5.44-.7.29-.2.69-.35,1.19-.44.82-.21,1.55-.31,2.2-.31.59,0,1.04.22,1.36.66.32.44.48,1,.48,1.67,0,.97.15,2.29.44,3.96.29,1.64.44,2.95.44,3.92,0,.32-.1.6-.31.84-.21.23-.46.35-.75.35-.73,0-1.23-.31-1.5-.92v-.04l-.97.48c-.88.5-1.63.75-2.24.75-1.61,0-2.95-.48-4-1.45Z"/><path class="b" d="M67.14,154.46c-.43-.26-.64-.63-.64-1.1.65-.64.97-2.36.97-5.15,0-1.67-.13-4.11-.4-7.3-.29-3.05-.44-5.46-.44-7.22l.09-2.42c.03-.7.04-1.51.04-2.42,0-.82-.15-1.86-.44-3.12-.35-1.32-.53-2.24-.53-2.77,0-1.03,1.13-1.54,3.39-1.54h.66c1.58,0,2.96.48,4.14,1.45.94.82,1.73,2.01,2.38,3.56.44,1.06.82,2.52,1.14,4.4.18,1.64.26,2.93.26,3.87v3.48c-.06.12-.09.24-.09.35,0,.23.01.41.04.53.03.12.04.26.04.44,0,.94-.14,2.06-.42,3.37-.28,1.3-.68,2.63-1.21,3.98-1.32,3.23-2.8,5.52-4.44,6.86-.97.76-1.98,1.14-3.04,1.14-.59,0-1.09-.13-1.52-.4ZM72.44,149.38c.82-1.28,1.45-2.69,1.89-4.25.79-2.87,1.19-5.78,1.19-8.71,0-1.58-.15-3.31-.44-5.19-.32-1.82-1.01-3.46-2.07-4.93-.5-.7-1.13-1.25-1.89-1.65-.76-.4-1.63-.59-2.6-.59v.04c0,2.64.18,6.63.53,11.97.35,5.31.53,9.33.53,12.06v4.18c1.08-.67,2.04-1.65,2.86-2.93Z"/><path class="b" d="M90.77,154.5c-.22-.18-.33-.47-.33-.88v-5.76c-.38-.26-1.1-.5-2.16-.7s-2.05-.34-2.99-.4c-.32.62-.56,1.36-.7,2.24l-.18.88c-.03.21-.12.66-.26,1.36-.15.7-.31,1.31-.48,1.83-.18.51-.35.92-.53,1.21-1.12,0-1.76-.29-1.94-.88.32-.47.69-1.85,1.1-4.14l1.45-8.05c.65-3.81,1.24-7.07,1.78-9.77.54-2.7,1.12-4.96,1.74-6.78.67-2.02,1.32-3.04,1.94-3.04s1.08.12,1.41.35c0,1.17.28,4,.84,8.49.59,4.4.88,7.41.88,9.02s.16,3.78.48,6.69c.29,2.96.44,5.32.44,7.08,0,1-.48,1.5-1.45,1.5-.47,0-.81-.09-1.03-.26ZM90.39,145.18c-.09-1.29-.23-2.89-.44-4.8-.67-6.63-1.01-10.69-1.01-12.19v-.35c-.29.29-.7,1.62-1.21,3.98-.51,2.36-.99,4.89-1.43,7.59-.44,2.7-.68,4.49-.7,5.37,1.23.35,2.54.53,3.92.53.23,0,.53-.04.88-.13Z"/><path class="b" d="M100.75,154.44c-.25-.42-.37-.95-.37-1.56,0-.97.06-2.16.18-3.56l.09-1.14.09-2.33c0-1.03-.1-3.31-.31-6.86-.21-3.55-.31-5.84-.31-6.86,0-.09,0-.26.02-.51.01-.25.02-.64.02-1.17.03-.59.04-1.3.04-2.16,0-2.14-.15-3.5-.44-4.09-.18,0-.56.04-1.14.13l-1.23.09c-.38,0-.72-.11-1.01-.33-.29-.22-.44-.51-.44-.86s.35-.66,1.06-.92c1.03-.35,2.77-.6,5.24-.75,1-.06,1.6-.09,1.8-.09.35,0,.67.12.97.35.29.24.44.53.44.88s-.12.64-.37.86c-.25.22-.57.33-.95.33l-.79-.04c-.23-.03-.5-.04-.79-.04h-.44c.2,2,.31,3.8.31,5.41l-.04,2.82c-.03.85-.04,1.8-.04,2.86,0,1.41.06,3.09.18,5.06.15,2.44.22,4.12.22,5.06,0,1.12.06,2.43.18,3.96.12,1.55.18,2.88.18,3.96,0,1.44-.43,2.16-1.28,2.16-.44,0-.79-.21-1.03-.64Z"/><path class="b" d="M111.07,154.81c-.5-.15-.75-.56-.75-1.23v-25.56c0-.5-.09-1.25-.26-2.24-.21-.91-.31-1.66-.31-2.24v-.13c.5-.82.87-1.35,1.1-1.58.41,0,.95-.06,1.63-.18.62-.12,1.16-.18,1.63-.18s.92.14,1.36.42c.44.28.66.61.66.99,0,.88-.67,1.32-2.02,1.32h-.62c-.18-.03-.38-.04-.62-.04-.26,0-.43.02-.48.04,0,1,.06,2.2.18,3.61l.09,1.23.09,2.42c0,.56-.04,1.41-.13,2.55l-.09,2.46.62-.13c.59-.18,1.07-.26,1.45-.26.32,0,.62.13.88.37.26.25.4.54.4.86,0,.35-.11.67-.33.95-.22.28-.49.42-.81.42l-.53-.04h-.57c-.44,0-.75.1-.92.31v13.6l2.46-.13c1.67,0,2.51.38,2.51,1.14v.18c-.18.35-.5.64-.97.86-.47.22-.92.36-1.36.42l-1.45.04h-1.36c-.56,0-1.04-.07-1.45-.22Z"/><path class="b" d="M122.03,155.16c-.47-.26-.7-.57-.7-.92s.09-.64.26-.86.42-.33.75-.33c.29,0,.72.12,1.28.35.62.23,1,.35,1.14.35.56,0,1.06-.24,1.52-.73.45-.48.81-1.12,1.08-1.91.53-1.47.79-2.79.79-3.96,0-1.26-.2-2.59-.59-3.98-.4-1.39-.93-2.75-1.61-4.07l-.7-1.41c-.73-1.47-1.3-2.62-1.69-3.48-.4-.85-.74-1.77-1.03-2.77-.44-1.41-.66-2.77-.66-4.09,0-1.06.18-2.05.55-2.99.37-.94.92-1.73,1.65-2.38.73-.7,1.64-1.06,2.73-1.06.53,0,1.04.15,1.54.46.5.31.85.7,1.06,1.17l-.75.92c-.76,0-1.33-.15-1.72-.44-.53.06-.99.32-1.39.77-.4.46-.7.98-.9,1.56-.18.56-.26,1.12-.26,1.67,0,1.12.15,2.25.46,3.41.31,1.16.71,2.25,1.21,3.28l3.08,6.16c.5,1.06.89,2.24,1.19,3.56s.44,2.64.44,3.96c0,1.94-.47,3.75-1.41,5.46-.5.88-1.14,1.58-1.94,2.09s-1.67.77-2.64.77c-1.06,0-1.96-.19-2.73-.57Z"/></svg>