<?xml version="1.0" encoding="UTF-8"?><svg id="Layer_1" xmlns="http://www.w3.org/2000/svg" viewBox="0 0 196 210.37"><defs><style>.cls-1{letter-spacing:-.08em;}.cls-2{letter-spacing:.05em;}.cls-3{font-size:26px;}.cls-4{font-size:31px;}.cls-5{letter-spacing:.04em;}.cls-6{fill:#fff;font-family:MarkerFelt-Wide, 'Marker Felt';stroke:#000;stroke-miterlimit:10;}.cls-7{letter-spacing:.04em;}.cls-8{letter-spacing:.03em;}.cls-9{letter-spacing:.03em;}.cls-10{stroke-width:0px;}.cls-11{letter-spacing:-.03em;}.cls-12{letter-spacing:.04em;}</style></defs><path class="cls-10" d="m193.94,72.97c-6.8-30.5-29-48.6-41.6-56.8-2-1.3-48.8-30.7-95.2-6.9-8.8,4.5-16.7,10.5-23.3,17.7C14.44,43.37,1.84,66.87.24,91.67c-1.3,17.1,2.6,34.3,11.2,49.1,5.2,13.7,14.4,25.5,26.5,33.8,2.8,2,13.9,8.5,18.2,9.4.3.1.5-.1.6-.4h0c.1-.3-.1-.5-.4-.6h0c-4.2-.8-15.1-7.3-17.8-9.2-10.1-7-18.2-16.4-23.5-27.5,5.7,8.2,12.6,15.4,20.5,21.5l.3.3c6.4,4.7,13.4,8.5,20.8,11.3h.2c.8.4,1.6.6,2.4.6,2.1,0,4.7-1.9,7-3.6.4-.3.8-.6,1.1-.8,3.6-2.6,6.2-4.8,6.2-4.8l10-8.5c.8-.7,2-.6,2.7.2h0c.6.8.5,2-.3,2.7l-5.2,4.6c-.6.5-.8,1.3-.5,2s.9,1.2,1.7,1.2h21.7c.7,0,1.2.6,1.2,1.2s-.6,1.2-1.2,1.2h-12.4c-1.2,0-2.1.9-2.1,2.1s.9,2.1,2.1,2.1h15.6c.7,0,1.2.5,1.3,1.1.1.7-.4,1.3-1.1,1.4h-20.5c-.2,0-.4,0-.6.1-.3,0-.5.2-.7.4-.4.4-.7.9-.7,1.5,0,1.1.9,1.9,1.9,1.9h17.9c.7,0,1.2.6,1.2,1.3v.1c-.1.7-.7,1.1-1.3,1.1h-20.3c-1.1,0-1.9.9-1.9,1.9v.3c0,1.1.9,1.9,1.9,1.9h15.3c.7,0,1.3.6,1.3,1.2v.1c0,.1-.1.2-.1.3-.3.3-.7.4-1.1.4h-12.3c-.7,0-1.4.5-1.5,1.2-.3.4-.5.9-.5,1.4,0,1.2,1,2.2,2.2,2.2h21.7c.4,0,.8.3.8.8,0,.2-.1.4-.3.6l-5.2,4.5c-1.2,1-1.4,2.8-.4,4.1.5.6,1.2,1,2,1h.2c.7,0,1.4-.3,1.9-.7l10.1-8.8h0l18.8-12c17.1-7,26.9-14.8,28-15.9,15-15.4,24.8-35.1,27.9-56.4,3.9-14,4.3-29.1,1.2-43.6ZM34.44,27.77c4.5-3.8,9.3-7.1,14.4-10-1.2.8-2.4,1.7-3.5,2.6-13.5,8-22.3,23-27.6,34.8-1.9,4.4-3.7,8.8-5.2,13.4-.8,1.8-1.5,3.6-2.1,5.3,4.6-18.5,12.8-34.1,24-46.1Zm4-1.2c-8,8.4-14.7,19-19.9,29v-.1c4.3-9.3,10.7-20.7,19.9-28.9h0ZM1.24,91.67c1.4-21.9,11.5-42.8,27.2-58.5-10.1,13-17.2,29.4-20.8,48.2-.6,1.7-1,3.4-1.3,5.2-.2,2.1-.4,4.2-.4,6.3-1.2,11.2-1.3,26.5,3.4,41.8C2.94,121.37.14,106.57,1.24,91.67Zm35.1,75.6l-.3-.2c-9.5-7.3-17.5-16.4-23.7-26.7-5-12.8-6.2-26.1-6-37.1,1.5,15.3,6.6,30.1,15,43,7.1,11.7,16.7,21.6,28.1,29-4.5-2.2-8.9-4.9-13.1-8Zm48.6-6.4c-.8-.1-1.5.2-2.1.7l-10,8.5s-2.6,2.2-6.1,4.8c-.4.3-.8.6-1.2.8-2.1,1.6-4.5,3.4-6.4,3.4-.3,0-.6-.1-.9-.2-1.1-.5-2-1-2.8-1.4,1.6.6,3.1,1.1,3.3,1.1,2.3,0,24-17.6,24-17.6,1-.9,2.6-.8,3.6.2q.1.1.2.2c-.5-.3-1-.5-1.6-.5ZM137.84,15.67c-6.8-3.1-31.1-13.8-61.1-8.3,20.9-4,42.6-1,61.6,8.5l-.5-.2Zm-34.3,156.2h-21.7c-.3,0-.6-.2-.7-.5h.2l22.6.1c1,0,1.7.8,1.8,1.8v.8c0-1.2-1-2.2-2.2-2.2h0Zm3.3,6.7h-15.6c-.6,0-1.1-.5-1.1-1.1h0v-.2c.2.8.8.9,1.5.9h15.6c.8,0,1.5.5,1.7,1.2.1.4.2.8.1,1.2-.1-1.1-1.1-1.9-2.2-2h0Zm-2.4,6.4h-17.9c-.4,0-.7-.3-.9-.6.2.1.4.2.7.2h18.1c.7,0,1.2.4,1.5,1-.4-.4-1-.6-1.5-.6h0Zm-5.2,6.6h-15.3c-.3,0-.6-.2-.8-.4h16.1c.7,0,1.3.4,1.6,1.1-.4-.4-1-.7-1.6-.7h0Zm9.7,7h-21.7c-.5,0-1-.4-1.2-.9.3.3.7.5,1.2.5l22.3-.2c.7,0,1.3.6,1.3,1.3,0,.2-.1.4-.2.6v-.2c-.2-.6-.9-1.1-1.7-1.1h0Zm55.3-26.1c-1.1,1.1-10.9,8.8-27.9,15.8-.1,0-.2.1-.2.2l-18.5,11.9q-.1,0-.2.1l-10.2,8.8c-.4.3-.9.5-1.4.5-.3,0-.5-.1-.8-.3.2-.1.4-.2.7-.4,6.6-5.6,13.6-10.9,13.6-10.9,0,0,15.8-10.9,16.1-11.1,12.2-5.6,23-13.8,31.6-24.2,8.4-9,15.2-19.4,20.2-30.7,1-2.2,1.9-4.5,2.7-6.8-4,17.8-13,34.1-25.7,47.1h0Zm27.6-55.9c-1.4,5.2-3.2,10.3-5.3,15.2-3.3,7.4-7.4,14.5-12.2,21,8.4-14,13-30.5,14.3-48.5.9-8.3,1-16.6.3-24.9-.2-2.7-.5-5.4-1-7.9,2,5.7,3.5,11.6,4.4,17.7,1.1,9.1.9,18.3-.5,27.4h0Zm1.5-27.7c-1.2-8-3.4-15.9-6.5-23.3-2.3-10.2-7.2-19.6-14.3-27.3-5.9-6.3-12.9-11.6-20.6-15.5-8.2-5.7-17.1-10.2-26.6-13.2-11-3.6-39.9-10.3-70.3,3.9-5,2.3-9.8,5.1-14.3,8.3,5.1-4.5,10.8-8.4,16.9-11.5,45.9-23.5,92.2,5.6,94.2,6.9,12.5,8,34.5,26,41.2,56.1,2.4,11.2,2.7,22.7.8,34,.4-6.2.3-12.3-.5-18.4h0Z"/><text class="cls-6" transform="translate(66.96 51.57)"><tspan class="cls-3"><tspan class="cls-5" x="0" y="0">G</tspan><tspan x="16.17" y="0">OOD</tspan></tspan><tspan class="cls-3"><tspan x="-25.52" y="31.2">MO</tspan><tspan class="cls-12" x="15.3" y="31.2">R</tspan><tspan class="cls-7" x="31.91" y="31.2">N</tspan><tspan class="cls-2" x="48.97" y="31.2">I</tspan><tspan class="cls-9" x="56.51" y="31.2">N</tspan><tspan x="73.41" y="31.2">G</tspan></tspan><tspan class="cls-3"><tspan class="cls-11" x="-3.38" y="62.4">D</tspan><tspan class="cls-1" x="9.8" y="62.4">A</tspan><tspan class="cls-8" x="24.93" y="62.4">T</tspan><tspan x="40.61" y="62.4">ES</tspan></tspan><tspan class="cls-4"><tspan x="-8.81" y="99.6">2024</tspan></tspan></text></svg>