<?xml version="1.0" encoding="UTF-8"?><svg id="a" xmlns="http://www.w3.org/2000/svg" viewBox="0 0 196 210.37"><defs><style>.b{fill:#000;} .bg{fill:#fff;}</style></defs><path class="bg" d="M193.94,72.97c-6.8-30.5-29-48.6-41.6-56.8-2-1.3-48.8-30.7-95.2-6.9-8.8,4.5-16.7,10.5-23.3,17.7C14.44,43.37,1.84,66.87.24,91.67c-1.3,17.1,2.6,34.3,11.2,49.1,5.2,13.7,14.4,25.5,26.5,33.8,2.8,2,13.9,8.5,18.2,9.4.3.1.5-.1.6-.4h0c.1-.3-.1-.5-.4-.6h0c-4.2-.8-15.1-7.3-17.8-9.2-10.1-7-18.2-16.4-23.5-27.5,5.7,8.2,12.6,15.4,20.5,21.5l.3.3c6.4,4.7,13.4,8.5,20.8,11.3h.2c.8.4,1.6.6,2.4.6,2.1,0,4.7-1.9,7-3.6.4-.3.8-.6,1.1-.8,3.6-2.6,6.2-4.8,6.2-4.8l10-8.5c.8-.7,2-.6,2.7.2h0c.6.8.5,2-.3,2.7l-5.2,4.6c-.6.5-.8,1.3-.5,2s.9,1.2,1.7,1.2h21.7c.7,0,1.2.6,1.2,1.2s-.6,1.2-1.2,1.2h-12.4c-1.2,0-2.1.9-2.1,2.1s.9,2.1,2.1,2.1h15.6c.7,0,1.2.5,1.3,1.1.1.7-.4,1.3-1.1,1.4h-20.5c-.2,0-.4,0-.6.1-.3,0-.5.2-.7.4-.4.4-.7.9-.7,1.5,0,1.1.9,1.9,1.9,1.9h17.9c.7,0,1.2.6,1.2,1.3v.1c-.1.7-.7,1.1-1.3,1.1h-20.3c-1.1,0-1.9.9-1.9,1.9v.3c0,1.1.9,1.9,1.9,1.9h15.3c.7,0,1.3.6,1.3,1.2v.1c0,.1-.1.2-.1.3-.3.3-.7.4-1.1.4h-12.3c-.7,0-1.4.5-1.5,1.2-.3.4-.5.9-.5,1.4,0,1.2,1,2.2,2.2,2.2h21.7c.4,0,.8.3.8.8,0,.2-.1.4-.3.6l-5.2,4.5c-1.2,1-1.4,2.8-.4,4.1.5.6,1.2,1,2,1h.2c.7,0,1.4-.3,1.9-.7l10.1-8.8h0l18.8-12c17.1-7,26.9-14.8,28-15.9,15-15.4,24.8-35.1,27.9-56.4,3.9-14,4.3-29.1,1.2-43.6h0ZM34.44,27.77c4.5-3.8,9.3-7.1,14.4-10-1.2.8-2.4,1.7-3.5,2.6-13.5,8-22.3,23-27.6,34.8-1.9,4.4-3.7,8.8-5.2,13.4-.8,1.8-1.5,3.6-2.1,5.3,4.6-18.5,12.8-34.1,24-46.1ZM38.44,26.57c-8,8.4-14.7,19-19.9,29v-.1c4.3-9.3,10.7-20.7,19.9-28.9h0ZM1.24,91.67c1.4-21.9,11.5-42.8,27.2-58.5-10.1,13-17.2,29.4-20.8,48.2-.6,1.7-1,3.4-1.3,5.2-.2,2.1-.4,4.2-.4,6.3-1.2,11.2-1.3,26.5,3.4,41.8C2.94,121.37.14,106.57,1.24,91.67ZM36.34,167.27l-.3-.2c-9.5-7.3-17.5-16.4-23.7-26.7-5-12.8-6.2-26.1-6-37.1,1.5,15.3,6.6,30.1,15,43,7.1,11.7,16.7,21.6,28.1,29-4.5-2.2-8.9-4.9-13.1-8ZM84.94,160.87c-.8-.1-1.5.2-2.1.7l-10,8.5s-2.6,2.2-6.1,4.8c-.4.3-.8.6-1.2.8-2.1,1.6-4.5,3.4-6.4,3.4-.3,0-.6-.1-.9-.2-1.1-.5-2-1-2.8-1.4,1.6.6,3.1,1.1,3.3,1.1,2.3,0,24-17.6,24-17.6,1-.9,2.6-.8,3.6.2.07.07.13.13.2.2-.5-.3-1-.5-1.6-.5ZM137.84,15.67c-6.8-3.1-31.1-13.8-61.1-8.3,20.9-4,42.6-1,61.6,8.5l-.5-.2ZM103.54,171.87h-21.7c-.3,0-.6-.2-.7-.5h.2l22.6.1c1,0,1.7.8,1.8,1.8v.8c0-1.2-1-2.2-2.2-2.2h0ZM106.84,178.57h-15.6c-.6,0-1.1-.5-1.1-1.1h0v-.2c.2.8.8.9,1.5.9h15.6c.8,0,1.5.5,1.7,1.2.1.4.2.8.1,1.2-.1-1.1-1.1-1.9-2.2-2h0ZM104.44,184.97h-17.9c-.4,0-.7-.3-.9-.6.2.1.4.2.7.2h18.1c.7,0,1.2.4,1.5,1-.4-.4-1-.6-1.5-.6h0ZM99.24,191.57h-15.3c-.3,0-.6-.2-.8-.4h16.1c.7,0,1.3.4,1.6,1.1-.4-.4-1-.7-1.6-.7h0ZM108.94,198.57h-21.7c-.5,0-1-.4-1.2-.9.3.3.7.5,1.2.5l22.3-.2c.7,0,1.3.6,1.3,1.3,0,.2-.1.4-.2.6v-.2c-.2-.6-.9-1.1-1.7-1.1h0ZM164.24,172.47c-1.1,1.1-10.9,8.8-27.9,15.8-.1,0-.2.1-.2.2l-18.5,11.9c-.07,0-.13.03-.2.1l-10.2,8.8c-.4.3-.9.5-1.4.5-.3,0-.5-.1-.8-.3.2-.1.4-.2.7-.4,6.6-5.6,13.6-10.9,13.6-10.9,0,0,15.8-10.9,16.1-11.1,12.2-5.6,23-13.8,31.6-24.2,8.4-9,15.2-19.4,20.2-30.7,1-2.2,1.9-4.5,2.7-6.8-4,17.8-13,34.1-25.7,47.1h0ZM191.84,116.57c-1.4,5.2-3.2,10.3-5.3,15.2-3.3,7.4-7.4,14.5-12.2,21,8.4-14,13-30.5,14.3-48.5.9-8.3,1-16.6.3-24.9-.2-2.7-.5-5.4-1-7.9,2,5.7,3.5,11.6,4.4,17.7,1.1,9.1.9,18.3-.5,27.4h0ZM193.34,88.87c-1.2-8-3.4-15.9-6.5-23.3-2.3-10.2-7.2-19.6-14.3-27.3-5.9-6.3-12.9-11.6-20.6-15.5-8.2-5.7-17.1-10.2-26.6-13.2-11-3.6-39.9-10.3-70.3,3.9-5,2.3-9.8,5.1-14.3,8.3,5.1-4.5,10.8-8.4,16.9-11.5,45.9-23.5,92.2,5.6,94.2,6.9,12.5,8,34.5,26,41.2,56.1,2.4,11.2,2.7,22.7.8,34,.4-6.2.3-12.3-.5-18.4h0Z"/><path class="b" d="M30.19,78.22c-.7-.58-1.33-1.56-1.91-2.95-.36-.91-.65-2.2-.86-3.85-.17-1.34-.25-2.62-.25-3.82-.02-.31-.04-.85-.04-1.62v-2.66c0-1.03.04-2.27.11-3.71.1-1.22.29-2.47.58-3.74.31-1.25.77-2.3,1.37-3.17.6-.91,1.4-1.56,2.41-1.94.6-.17,1.16-.25,1.69-.25,1.01,0,1.51.34,1.51,1.01,0,.26-.09.47-.27.63-.18.16-.41.23-.7.23-.1,0-.26-.04-.5-.11l-.5-.07c-.46,0-.86.14-1.22.41-.36.28-.66.68-.9,1.21-.55,1.15-.92,2.41-1.12,3.78-.26,1.68-.41,3.14-.43,4.39-.05,1.08-.07,2.22-.07,3.42v.97c-.02.34-.04.76-.04,1.26,0,1.22.06,2.42.18,3.6.1,1.39.36,2.59.79,3.6.38,1.13,1.01,1.92,1.87,2.38.41.24.91.36,1.51.36,1.06,0,1.94-.5,2.66-1.51-.02-.84-.08-1.66-.18-2.47-.1-.8-.24-1.35-.43-1.64-.02,0-.08,0-.16.02-.08.01-.21.03-.38.05l-.86.07c-.82,0-1.22-.35-1.22-1.04,0-.22.12-.41.36-.58.24-.17.56-.29.97-.36.67-.17,1.27-.25,1.8-.25.48,0,.85.18,1.12.54.26.36.4.82.4,1.37,0,.79.12,1.87.36,3.24.24,1.34.36,2.41.36,3.2,0,.26-.08.49-.25.68s-.37.29-.61.29c-.6,0-1.01-.25-1.22-.76v-.04l-.79.4c-.72.41-1.33.61-1.84.61-1.32,0-2.41-.4-3.28-1.19Z"/><path class="b" d="M44.02,78.83c-.53-.43-.98-1.02-1.37-1.76-.7-1.3-1.21-3.07-1.55-5.33-.24-1.56-.42-3.36-.54-5.4l-.04-1.91v-1.94c-.02-.62-.04-1.38-.04-2.27,0-1.44.06-2.71.18-3.82.1-1.15.34-2.29.72-3.42.38-.98.94-1.68,1.66-2.09.43-.19.86-.29,1.3-.29,1.27,0,2.28.5,3.02,1.51.82,1.13,1.36,2.39,1.62,3.78.38,1.68.6,3.29.65,4.82.1,1.7.14,3.31.14,4.82v2.05c0,.41-.06,1.18-.18,2.3-.1.89-.14,1.64-.14,2.27v.14c-.14.67-.22,1.46-.22,2.38,0,.67-.14,1.37-.43,2.09-.29.72-.7,1.33-1.22,1.84-.53.58-1.13.86-1.8.86s-1.24-.22-1.76-.65ZM47.08,76.16c.29-.79.5-1.76.63-2.9.13-1.14.25-2.43.34-3.87.05-.62.07-1.43.07-2.41l-.04-3.31c-.05-1.3-.19-2.92-.43-4.86-.19-1.66-.55-3.12-1.08-4.39-.24-.6-.54-1.07-.9-1.4-.36-.34-.74-.5-1.15-.5-.6,0-1.04.47-1.33,1.4-.36.98-.6,2.06-.72,3.24-.14,1.27-.23,2.48-.25,3.64l-.04,1.19c-.02.34-.04.79-.04,1.37v.14c0,1.61.17,3.59.5,5.94.38,3.19.95,5.46,1.69,6.8.48.84.98,1.26,1.51,1.26.48,0,.89-.44,1.22-1.33Z"/><path class="b" d="M56.8,78.83c-.53-.43-.98-1.02-1.37-1.76-.7-1.3-1.21-3.07-1.55-5.33-.24-1.56-.42-3.36-.54-5.4l-.04-1.91v-1.94c-.02-.62-.04-1.38-.04-2.27,0-1.44.06-2.71.18-3.82.1-1.15.34-2.29.72-3.42.38-.98.94-1.68,1.66-2.09.43-.19.86-.29,1.3-.29,1.27,0,2.28.5,3.02,1.51.82,1.13,1.36,2.39,1.62,3.78.38,1.68.6,3.29.65,4.82.1,1.7.14,3.31.14,4.82v2.05c0,.41-.06,1.18-.18,2.3-.1.89-.14,1.64-.14,2.27v.14c-.14.67-.22,1.46-.22,2.38,0,.67-.14,1.37-.43,2.09-.29.72-.7,1.33-1.22,1.84-.53.58-1.13.86-1.8.86s-1.24-.22-1.76-.65ZM59.86,76.16c.29-.79.5-1.76.63-2.9.13-1.14.25-2.43.34-3.87.05-.62.07-1.43.07-2.41l-.04-3.31c-.05-1.3-.19-2.92-.43-4.86-.19-1.66-.55-3.12-1.08-4.39-.24-.6-.54-1.07-.9-1.4-.36-.34-.74-.5-1.15-.5-.6,0-1.04.47-1.33,1.4-.36.98-.6,2.06-.72,3.24-.14,1.27-.23,2.48-.25,3.64l-.04,1.19c-.02.34-.04.79-.04,1.37v.14c0,1.61.17,3.59.5,5.94.38,3.19.95,5.46,1.69,6.8.48.84.98,1.26,1.51,1.26.48,0,.89-.44,1.22-1.33Z"/><path class="b" d="M67.22,78.22c-.35-.22-.52-.52-.52-.9.53-.53.79-1.93.79-4.21,0-1.37-.11-3.36-.32-5.98-.24-2.5-.36-4.46-.36-5.9l.07-1.98c.02-.58.04-1.24.04-1.98,0-.67-.12-1.52-.36-2.56-.29-1.08-.43-1.84-.43-2.27,0-.84.92-1.26,2.77-1.26h.54c1.3,0,2.42.4,3.38,1.19.77.67,1.42,1.64,1.94,2.92.36.86.67,2.06.94,3.6.14,1.34.22,2.4.22,3.17v2.84c-.05.1-.07.19-.07.29,0,.19.01.34.04.43.02.1.04.22.04.36,0,.77-.11,1.69-.34,2.75-.23,1.07-.56,2.15-.99,3.26-1.08,2.64-2.29,4.51-3.64,5.62-.79.62-1.62.94-2.48.94-.48,0-.89-.11-1.24-.32ZM71.56,74.06c.67-1.04,1.19-2.2,1.55-3.47.65-2.35.97-4.73.97-7.13,0-1.3-.12-2.71-.36-4.25-.26-1.49-.83-2.83-1.69-4.03-.41-.58-.92-1.03-1.55-1.35-.62-.32-1.33-.49-2.12-.49v.04c0,2.16.14,5.42.43,9.79.29,4.34.43,7.63.43,9.86v3.42c.89-.55,1.67-1.35,2.34-2.39Z"/><path class="b" d="M96.65,79.04c-.14-.24-.22-.59-.22-1.04l-.04-5.33c-.02-.46-.04-1.21-.04-2.27-.05-2.23-.07-4.75-.07-7.56v-1.84c-.22,1.15-.59,2.77-1.12,4.86-.53,2.16-.9,3.94-1.12,5.33v.22l-.11.68c-.05.53-.17,1.07-.36,1.62-.24.58-.61.86-1.12.86-.86,0-1.3-1.13-1.3-3.38,0-1.25-.13-2.59-.38-4.01-.25-1.43-.65-3.19-1.21-5.27l-1.08-4.03-.07,4.32c0,1.3.06,3.77.18,7.42l.07,2.45.07,4.93c0,.5-.18.96-.54,1.37-.6,0-1.01-.19-1.24-.56-.23-.37-.34-.92-.34-1.64l.07-2.95c.07-1.3.11-2.27.11-2.92l-.07-6.95-.07-6.98c0-1.03.02-2.58.07-4.64l.97-.58c.19.02.38.16.58.41.19.25.41.65.65,1.21.6,1.49,1.38,4.46,2.34,8.93.14.62.24,1.14.29,1.55.29,1.39.49,2.45.61,3.17l.54,2.77.25-1.19.68-2.95c.38-1.73.7-3.24.95-4.54s.5-2.7.74-4.21c.26-1.8.43-3.3.5-4.5v-.22c.05-.31.19-.56.43-.74.24-.18.53-.27.86-.27.22,0,.41.1.58.29.17.19.25.4.25.61,0,2.88.11,7.19.32,12.92.12,2.81.2,5.56.25,8.24.05,1.22.07,2.77.07,4.64,0,.55-.14,1.04-.43,1.48-.29.43-.61.65-.97.65-.24,0-.43-.12-.58-.36Z"/><path class="b" d="M106.12,78.83c-.53-.43-.98-1.02-1.37-1.76-.7-1.3-1.21-3.07-1.55-5.33-.24-1.56-.42-3.36-.54-5.4l-.04-1.91v-1.94c-.02-.62-.04-1.38-.04-2.27,0-1.44.06-2.71.18-3.82.1-1.15.34-2.29.72-3.42.38-.98.94-1.68,1.66-2.09.43-.19.86-.29,1.3-.29,1.27,0,2.28.5,3.02,1.51.82,1.13,1.36,2.39,1.62,3.78.38,1.68.6,3.29.65,4.82.1,1.7.14,3.31.14,4.82v2.05c0,.41-.06,1.18-.18,2.3-.1.89-.14,1.64-.14,2.27v.14c-.14.67-.22,1.46-.22,2.38,0,.67-.14,1.37-.43,2.09-.29.72-.7,1.33-1.22,1.84-.53.58-1.13.86-1.8.86s-1.24-.22-1.76-.65ZM109.18,76.16c.29-.79.5-1.76.63-2.9.13-1.14.25-2.43.34-3.87.05-.62.07-1.43.07-2.41l-.04-3.31c-.05-1.3-.19-2.92-.43-4.86-.19-1.66-.55-3.12-1.08-4.39-.24-.6-.54-1.07-.9-1.4-.36-.34-.74-.5-1.15-.5-.6,0-1.04.47-1.33,1.4-.36.98-.6,2.06-.72,3.24-.14,1.27-.23,2.48-.25,3.64l-.04,1.19c-.02.34-.04.79-.04,1.37v.14c0,1.61.17,3.59.5,5.94.38,3.19.95,5.46,1.69,6.8.48.84.98,1.26,1.51,1.26.48,0,.89-.44,1.22-1.33Z"/><path class="b" d="M121.27,77.86v-.11c-.07-1.27-.29-2.69-.65-4.25-.36-1.56-.89-3.44-1.58-5.65-.53-1.66-.97-3.14-1.33-4.46v14.18c0,.38-.07.67-.2.85-.13.18-.39.27-.77.27-.29,0-.52-.09-.68-.27-.17-.18-.25-.41-.25-.7v-.29l.07-10.58c.05-3.12.07-6.64.07-10.55v-4.43c0-.29.06-.49.18-.59.12-.11.37-.16.76-.16.6,0,1.15.11,1.66.34.5.23.94.55,1.3.95.74.84,1.22,1.85,1.44,3.02.1.48.14,1.03.14,1.66,0,.36-.03.76-.09,1.19-.06.43-.1.71-.13.83-.05.24-.16.6-.32,1.08-.17.48-.28.79-.32.94l-.43,1.01-.36.94c.02.86.17,1.96.45,3.28.28,1.32.58,2.54.92,3.67.24.79.67,2.11,1.3,3.96l1.04,3.17v.07c0,.41-.04.76-.11,1.04-.07.38-.32.58-.76.58-.46,0-.9-.32-1.33-.97ZM118.86,60.36l.54-3.1c.02-.12.04-.29.04-.5,0-.7-.13-1.5-.4-2.41-.14-.43-.33-.8-.56-1.1-.23-.3-.46-.46-.7-.49l-.07,3.6c-.07,1.61-.11,2.86-.11,3.74,0,.84.01,1.39.04,1.66.34-.34.74-.8,1.22-1.4Z"/><path class="b" d="M132.29,71.59c-1.68-5.78-3.13-11.1-4.36-15.95v11.81c0,1.01.1,2.72.29,5.15.17,2.64.25,4.34.25,5.11,0,.22-.13.4-.4.56-.26.16-.56.23-.9.23-.5,0-.76-.19-.76-.58l.07-1.04c.05-.77.07-1.27.07-1.51,0-1.27-.07-3.29-.22-6.05-.14-2.81-.22-4.51-.22-5.11v-4.61c0-.74.04-1.85.11-3.31.1-1.27.14-2.38.14-3.31v-.22c0-1.2.26-1.8.79-1.8.31,0,.71.53,1.19,1.58.79,1.73,1.8,4.82,3.02,9.29.7,2.59,1.51,5.93,2.45,10.01-.02-.1.17.73.58,2.48l.04.18c0-2.33.02-4.42.07-6.26l.07-6.26v-10.66c.1-.6.48-.9,1.15-.9s.97.47.97,1.4v.22c-.14.29-.22.64-.22,1.04,0,1.46-.04,3.67-.11,6.62-.07,2.98-.11,5.21-.11,6.7v10.98c0,.38-.1.75-.31,1.1-.2.35-.45.52-.74.52-.48,0-1.46-2.47-2.95-7.42Z"/><path class="b" d="M140.35,77.35c0-.58.36-.86,1.08-.86h.43c.1.02.2.04.32.04.19,0,.33-.06.41-.18.08-.12.13-.34.13-.65,0-2.04-.12-4.82-.36-8.35-.22-3.67-.32-6.44-.32-8.32,0-.67.01-1.28.04-1.84l.04-1.84c0-.79-.04-1.45-.11-1.98-.26.1-.54.14-.83.14-.55,0-.83-.29-.83-.86,0-.29.17-.54.52-.76.35-.22.8-.37,1.35-.47,1.01-.17,1.86-.25,2.56-.25.29,0,.53.1.74.29.2.19.31.42.31.68s-.08.49-.23.68c-.16.19-.35.29-.59.29-.14,0-.26-.01-.36-.04h-.29c-.24,0-.41.05-.52.16-.11.11-.16.31-.16.59,0,2.54.16,6.05.47,10.51.29,4.68.43,8.2.43,10.55v1.37c.17-.02.41-.04.72-.04,1.01,0,1.51.42,1.51,1.26v.22l-.9.61s-.1,0-.22.02c-.12.01-.36.02-.72.02-.82.05-1.32.07-1.51.07-2.06,0-3.1-.36-3.1-1.08Z"/><path class="b" d="M156.37,71.59c-1.68-5.78-3.13-11.1-4.36-15.95v11.81c0,1.01.1,2.72.29,5.15.17,2.64.25,4.34.25,5.11,0,.22-.13.4-.4.56-.26.16-.56.23-.9.23-.5,0-.76-.19-.76-.58l.07-1.04c.05-.77.07-1.27.07-1.51,0-1.27-.07-3.29-.22-6.05-.14-2.81-.22-4.51-.22-5.11v-4.61c0-.74.04-1.85.11-3.31.1-1.27.14-2.38.14-3.31v-.22c0-1.2.26-1.8.79-1.8.31,0,.71.53,1.19,1.58.79,1.73,1.8,4.82,3.02,9.29.7,2.59,1.51,5.93,2.45,10.01-.02-.1.17.73.58,2.48l.04.18c0-2.33.02-4.42.07-6.26l.07-6.26v-10.66c.1-.6.48-.9,1.15-.9s.97.47.97,1.4v.22c-.14.29-.22.64-.22,1.04,0,1.46-.04,3.67-.11,6.62-.07,2.98-.11,5.21-.11,6.7v10.98c0,.38-.1.75-.31,1.1-.2.35-.45.52-.74.52-.48,0-1.46-2.47-2.95-7.42Z"/><path class="b" d="M167.75,78.22c-.7-.58-1.33-1.56-1.91-2.95-.36-.91-.65-2.2-.86-3.85-.17-1.34-.25-2.62-.25-3.82-.02-.31-.04-.85-.04-1.62v-2.66c0-1.03.04-2.27.11-3.71.1-1.22.29-2.47.58-3.74.31-1.25.77-2.3,1.37-3.17.6-.91,1.4-1.56,2.41-1.94.6-.17,1.16-.25,1.69-.25,1.01,0,1.51.34,1.51,1.01,0,.26-.09.47-.27.63-.18.16-.41.23-.7.23-.1,0-.26-.04-.5-.11l-.5-.07c-.46,0-.86.14-1.22.41-.36.28-.66.68-.9,1.21-.55,1.15-.92,2.41-1.12,3.78-.26,1.68-.41,3.14-.43,4.39-.05,1.08-.07,2.22-.07,3.42v.97c-.02.34-.04.76-.04,1.26,0,1.22.06,2.42.18,3.6.1,1.39.36,2.59.79,3.6.38,1.13,1.01,1.92,1.87,2.38.41.24.91.36,1.51.36,1.06,0,1.94-.5,2.66-1.51-.02-.84-.08-1.66-.18-2.47-.1-.8-.24-1.35-.43-1.64-.02,0-.08,0-.16.02-.08.01-.21.03-.38.05l-.86.07c-.82,0-1.22-.35-1.22-1.04,0-.22.12-.41.36-.58.24-.17.56-.29.97-.36.67-.17,1.27-.25,1.8-.25.48,0,.85.18,1.12.54.26.36.4.82.4,1.37,0,.79.12,1.87.36,3.24.24,1.34.36,2.41.36,3.2,0,.26-.08.49-.25.68s-.37.29-.61.29c-.6,0-1.01-.25-1.22-.76v-.04l-.79.4c-.72.41-1.33.61-1.84.61-1.32,0-2.41-.4-3.28-1.19Z"/><path class="b" d="M71.18,115.75c-.35-.22-.52-.52-.52-.9.53-.53.79-1.93.79-4.21,0-1.37-.11-3.36-.32-5.98-.24-2.5-.36-4.46-.36-5.9l.07-1.98c.02-.58.04-1.24.04-1.98,0-.67-.12-1.52-.36-2.56-.29-1.08-.43-1.84-.43-2.27,0-.84.92-1.26,2.77-1.26h.54c1.3,0,2.42.4,3.38,1.19.77.67,1.42,1.64,1.94,2.92.36.86.67,2.06.94,3.6.14,1.34.22,2.4.22,3.17v2.84c-.05.1-.07.19-.07.29,0,.19.01.34.04.43.02.1.04.22.04.36,0,.77-.11,1.69-.34,2.75-.23,1.07-.56,2.15-.99,3.26-1.08,2.64-2.29,4.51-3.64,5.62-.79.62-1.62.94-2.48.94-.48,0-.89-.11-1.24-.32ZM75.52,111.59c.67-1.04,1.19-2.2,1.55-3.47.65-2.35.97-4.73.97-7.13,0-1.3-.12-2.71-.36-4.25-.26-1.49-.83-2.83-1.69-4.03-.41-.58-.92-1.03-1.55-1.35-.62-.32-1.33-.49-2.12-.49v.04c0,2.16.14,5.42.43,9.79.29,4.34.43,7.63.43,9.86v3.42c.89-.55,1.67-1.35,2.34-2.39Z"/><path class="b" d="M90.51,115.78c-.18-.14-.27-.38-.27-.72v-4.72c-.31-.22-.9-.41-1.76-.58-.86-.17-1.68-.28-2.45-.32-.26.5-.46,1.12-.58,1.84l-.14.72c-.02.17-.1.54-.22,1.12-.12.58-.25,1.07-.4,1.49-.14.42-.29.75-.43.99-.91,0-1.44-.24-1.58-.72.26-.38.56-1.51.9-3.38l1.19-6.59c.53-3.12,1.01-5.78,1.46-7.99.44-2.21.92-4.06,1.42-5.54.55-1.66,1.08-2.48,1.58-2.48s.89.1,1.15.29c0,.96.23,3.28.68,6.95.48,3.6.72,6.06.72,7.38s.13,3.1.4,5.47c.24,2.42.36,4.36.36,5.79,0,.82-.4,1.22-1.19,1.22-.38,0-.67-.07-.85-.22ZM90.21,108.15c-.07-1.06-.19-2.36-.36-3.92-.55-5.42-.83-8.75-.83-9.97v-.29c-.24.24-.57,1.33-.99,3.26-.42,1.93-.81,4-1.17,6.21-.36,2.21-.55,3.67-.58,4.39,1.01.29,2.08.43,3.2.43.19,0,.43-.04.72-.11Z"/><path class="b" d="M98.68,115.73c-.2-.35-.31-.77-.31-1.28,0-.79.05-1.76.14-2.92l.07-.94.07-1.91c0-.84-.08-2.71-.25-5.62-.17-2.9-.25-4.78-.25-5.62,0-.07,0-.21.02-.41.01-.2.02-.52.02-.95.02-.48.04-1.07.04-1.76,0-1.75-.12-2.87-.36-3.35-.14,0-.46.04-.94.11l-1.01.07c-.31,0-.59-.09-.83-.27-.24-.18-.36-.41-.36-.7s.29-.54.86-.76c.84-.29,2.27-.49,4.28-.61.82-.05,1.31-.07,1.48-.07.29,0,.55.1.79.29.24.19.36.43.36.72s-.1.52-.31.7c-.2.18-.46.27-.77.27l-.65-.04c-.19-.02-.41-.04-.65-.04h-.36c.17,1.63.25,3.11.25,4.43l-.04,2.3c-.02.7-.04,1.48-.04,2.34,0,1.15.05,2.53.14,4.14.12,1.99.18,3.37.18,4.14,0,.91.05,1.99.14,3.24.1,1.27.14,2.35.14,3.24,0,1.18-.35,1.76-1.04,1.76-.36,0-.64-.17-.85-.52Z"/><path class="b" d="M107.13,116.03c-.41-.12-.61-.46-.61-1.01v-20.92c0-.41-.07-1.02-.22-1.84-.17-.74-.25-1.36-.25-1.84v-.11c.41-.67.71-1.1.9-1.3.34,0,.78-.05,1.33-.14.5-.1.95-.14,1.33-.14s.76.11,1.12.34c.36.23.54.5.54.81,0,.72-.55,1.08-1.66,1.08h-.5c-.14-.02-.31-.04-.5-.04-.22,0-.35.01-.4.04,0,.82.05,1.8.14,2.95l.07,1.01.07,1.98c0,.46-.04,1.15-.11,2.09l-.07,2.02.5-.11c.48-.14.88-.22,1.19-.22.26,0,.5.1.72.31.22.2.32.44.32.7,0,.29-.09.55-.27.77-.18.23-.4.34-.67.34l-.43-.04h-.47c-.36,0-.61.08-.76.25v11.12l2.02-.11c1.37,0,2.05.31,2.05.94v.14c-.14.29-.41.52-.79.7s-.76.29-1.12.34l-1.19.04h-1.12c-.46,0-.85-.06-1.19-.18Z"/><path class="b" d="M116.09,116.32c-.38-.22-.58-.47-.58-.76s.07-.52.22-.7c.14-.18.35-.27.61-.27.24,0,.59.1,1.04.29.5.19.82.29.94.29.46,0,.87-.2,1.24-.59s.67-.92.88-1.57c.43-1.2.65-2.28.65-3.24,0-1.03-.16-2.12-.49-3.26-.32-1.14-.76-2.25-1.31-3.33l-.58-1.15c-.6-1.2-1.06-2.15-1.39-2.84-.32-.7-.61-1.45-.85-2.27-.36-1.15-.54-2.27-.54-3.35,0-.86.15-1.68.45-2.45.3-.77.75-1.42,1.35-1.94.6-.58,1.34-.86,2.23-.86.43,0,.85.13,1.26.38s.7.57.86.95l-.61.76c-.62,0-1.09-.12-1.4-.36-.43.05-.81.26-1.13.63-.32.37-.57.8-.74,1.28-.14.46-.22.91-.22,1.37,0,.91.13,1.84.38,2.79.25.95.58,1.84.99,2.68l2.52,5.04c.41.86.73,1.84.97,2.92s.36,2.16.36,3.24c0,1.58-.38,3.07-1.15,4.46-.41.72-.94,1.29-1.58,1.71-.65.42-1.37.63-2.16.63-.86,0-1.61-.16-2.23-.47Z"/><path class="b" d="M74.87,153.71c-.25-.2-.38-.46-.38-.77v-.14c.48-.58.96-1.54,1.44-2.88.22-.65.4-1.12.54-1.4,1.42-3.14,2.45-5.98,3.1-8.5.65-2.52.97-5.18.97-7.99,0-3-.58-4.54-1.73-4.61-.38.19-.65.76-.79,1.69-.05.38-.17.7-.36.95-.19.25-.43.38-.72.38-.58,0-.86-.37-.86-1.12,0-1.13.34-2.08,1.01-2.84.36-.38.79-.58,1.3-.58v-.04c.82,0,1.5.18,2.05.54.41.24.79.7,1.15,1.37.19.38.37,1.02.54,1.91.05.43.08.83.09,1.21s.03.64.05.81v.97c0,1.63-.2,3.4-.59,5.31-.4,1.91-.87,3.61-1.42,5.09-.62,1.7-1.25,3.32-1.87,4.86-.74,1.87-1.28,3.31-1.62,4.32,1.37-.24,2.78-.36,4.25-.36.5.36.76.7.76,1.01,0,.29-.16.55-.47.79-.46,0-1.1.04-1.94.11l-.79.04c-1.01.12-1.93.18-2.77.18-.36,0-.67-.1-.92-.31Z"/><path class="b" d="M86.66,133.43v-1.15c0-1.8.2-3.2.61-4.21.19-.58.5-1.01.92-1.31s.93-.45,1.53-.45c3.43,0,5.15,6.11,5.15,18.32,0,6.02-1.28,9.04-3.85,9.04-2.9,0-4.36-6.74-4.36-20.23ZM92.28,150.92c.41-1.06.7-2.82.86-5.29.05-.53.07-1.14.07-1.84,0-1.61-.07-3.74-.22-6.41-.17-2.52-.54-4.8-1.12-6.84-.26-1.03-.62-1.85-1.06-2.45-.44-.6-.94-.94-1.49-1.01-.36.29-.61.59-.74.9s-.2.73-.2,1.26c0,1.32.02,2.5.07,3.53l.07,3.6c0,.31.06.89.18,1.73.12.89.18,1.48.18,1.76,0,.58.04,1.9.11,3.96.1,1.97.32,3.78.68,5.44.17.84.4,1.51.68,2,.29.49.61.74.97.74.38,0,.7-.36.94-1.08Z"/><path class="b" d="M98.77,153.71c-.25-.2-.38-.46-.38-.77v-.14c.48-.58.96-1.54,1.44-2.88.22-.65.4-1.12.54-1.4,1.42-3.14,2.45-5.98,3.1-8.5.65-2.52.97-5.18.97-7.99,0-3-.58-4.54-1.73-4.61-.38.19-.65.76-.79,1.69-.05.38-.17.7-.36.95-.19.25-.43.38-.72.38-.58,0-.86-.37-.86-1.12,0-1.13.33-2.08,1.01-2.84.36-.38.79-.58,1.3-.58v-.04c.82,0,1.5.18,2.05.54.41.24.79.7,1.15,1.37.19.38.37,1.02.54,1.91.05.43.08.83.09,1.21.01.37.03.64.05.81v.97c0,1.63-.2,3.4-.59,5.31-.4,1.91-.87,3.61-1.42,5.09-.62,1.7-1.25,3.32-1.87,4.86-.74,1.87-1.28,3.31-1.62,4.32,1.37-.24,2.78-.36,4.25-.36.5.36.76.7.76,1.01,0,.29-.16.55-.47.79-.46,0-1.1.04-1.94.11l-.79.04c-1.01.12-1.93.18-2.77.18-.36,0-.67-.1-.92-.31Z"/><path class="b" d="M113.3,153.41c0-.26.11-.47.32-.61.22-.14.47-.22.76-.22.38,0,.7.11.94.32.53-.19.97-.82,1.33-1.89.36-1.07.54-2.07.54-3.01,0-1.2-.01-2.22-.04-3.06-.07-1.08-.19-2.05-.36-2.92-.1-.5-.2-.92-.32-1.26-.12-.34-.3-.71-.54-1.12-.34-.6-.89-1.06-1.66-1.37-.41-.12-.8-.18-1.19-.18-.55,0-.92-.23-1.12-.68-.12-.36-.18-.82-.18-1.37,0-.19.04-.5.11-.94l.07-.9c0-1.1-.06-2.12-.18-3.06l-.47-2.99-.22-1.48.61-.65h2.92c1.01,0,1.51.31,1.51.94v.18l-.68.54h-.9v-.11h-1.51c.02,1.2.25,4.06.68,8.57l.72.07c.53.05,1.03.13,1.51.25.26.07.49.18.68.32.5.36.95,1.16,1.33,2.39.38,1.24.64,2.51.76,3.83.12,1.27.18,2.3.18,3.1,0,1.1-.02,2.02-.07,2.74-.02.5-.07.91-.14,1.21s-.19.7-.36,1.21c-.14.41-.32.77-.52,1.08-.2.31-.47.65-.81,1.01-.34.34-.72.68-1.15,1.04h-.61c-1.3,0-1.94-.34-1.94-1.01Z"/></svg>