<?xml version="1.0" encoding="utf-8"?>
<!-- Generator: Adobe Illustrator 25.3.1, SVG Export Plug-In . SVG Version: 6.00 Build 0)  -->
<svg version="1.1" id="Layer_1" xmlns="http://www.w3.org/2000/svg" xmlns:xlink="http://www.w3.org/1999/xlink" x="0px" y="0px"
	 viewBox="0 0 103.4 61.5" style="enable-background:new 0 0 103.4 61.5;" xml:space="preserve">
<style type="text/css">
	.st0{display:none;}
	.st1{display:inline;}
	.st2{fill:#615454;}
</style>
<g class="st0">
	<g class="st1">
		<path class="st2" d="M71.3,40.4c-1.3,0.2-2.6,0.6-3.9,0.8c-1.4,0.3-2.9,0.6-4.3,0.9c0.1-1.5,0.6-2.9,1.4-4.3
			c0.8-1.4,1.8-2.7,2.7-4.1c0.9-1.3,1.7-2.6,2.2-4.1c0.3-0.9,0.7-2.2,0.4-3.2c-0.4-1.3-2-0.7-2.9-0.5c-1.6,0.4-3.2,1-4.9,1.4
			c-1.5,0.4-3.2,0.9-4.7,0.7c-1.1-0.1-0.3,1.6,0,1.9c0.2,0.2,0.4,0.4,0.7,0.6c0.3,0.1,0.8,0,1.1-0.1c0.9-0.2,1.8-0.4,2.7-0.6
			c1.8-0.5,3.5-1,5.3-1.6c-0.1,0.5-0.5,1.2-0.7,1.6c-0.4,0.8-0.8,1.5-1.2,2.3c-0.8,1.5-1.6,2.9-2.3,4.4c-0.8,1.5-1.4,3.1-2,4.7
			c-0.4,1.1-0.7,2.2-0.6,3.3c0,0.1,0,0.2,0,0.2l0,0l0,0c3.9-0.3,7.7-1.2,11.5-1.6c0.8-0.1,1.5-0.3,1.5-1.2
			C73.3,41.2,72.4,40.3,71.3,40.4z"/>
		<g>
			<path class="st2" d="M50.1,25.1c-0.3,0.1-2,0.5-2.3,0.5c-0.2,0.1-0.4,0.1-0.7,0c-0.2,0-0.3-0.1-0.4-0.3c-0.1-0.2-0.2-0.4-0.3-0.7
				c-0.1-0.2-0.1-0.5-0.1-0.7s0-0.4,0-0.6l4-1.6l0.2-8.6c0.1-0.3,0.3-0.5,0.6-0.4c0.4,0.1,0.7,0.1,1.1,0.2c0.1,0,0.1,0,0.3,0.1
				c0.1,0,0.2,0.1,0.3,0.1c-0.1,0.7-0.1,1.4-0.2,2.2c-0.1,0.8-0.1,1.6-0.2,2.4c-0.1,0.8-0.1,1.6-0.1,2.4c0,0.8,0,0.3,0.1,0.9
				l5.9-1.6c0.1,0,0.2,0,0.3,0.2s0.1,0.4,0.2,0.6c0.1,0.2,0.1,0.6,0.2,1L52.4,24c0,0.2,0,0.8,0.1,1.6c0,0.9,0.1,3,0.1,4.2
				c0.1,1.2,0.1,2.5,0.2,3.8c0.1,1.4,0.1,2.6,0.2,3.8c0.1,1.2,0.2,3.4,0.2,4.3c0,0.9,0,1.4,0,1.7c-0.1,0.8-0.3,1.1-0.7,1.1
				s-0.8-0.2-1.3-0.6L50.1,25.1z"/>
		</g>
		<path class="st2" d="M80.8,12c-0.1-1.2-1.6-0.7-2.3-0.4c-0.1,0-0.1,0.2,0,0.3c0.3,3.8,0.1,7.7-0.2,11.5c-0.3,4.2-0.6,8.4-1.2,12.6
			c-0.3,2.2-0.6,4.3-1.2,6.5l0,0l0,0l0,0v0.1c0,0.9,0.8,1.6,1.7,1.6c0.2,0,0.9,0,1-0.2c0.2-0.3,0.1-0.9,0.2-1.2
			c0.3-2.8,0.5-5.6,0.8-8.4c0.5-5.9,1-11.8,1.2-17.7c0-0.8,0-1.6,0.1-2.3C80.8,13.6,80.9,12.8,80.8,12z"/>
		<g>
			<g>
				<path class="st2" d="M42.3,43.8c-0.1-0.6-0.2-1.4-0.3-2.3c-0.1-0.9-0.2-1.8-0.3-2.8c-0.1-0.9-0.2-1.8-0.4-2.6
					c-0.1-0.8-0.4-1.5-0.7-2c-1.3,2.6-2.5,4.6-3.6,6.1c-1,1.5-1.9,2.5-2.7,3.2c-0.8,0.6-1.4,0.9-2,0.9c-0.5,0-1-0.2-1.3-0.7
					c-0.3-0.4-0.6-1-0.7-1.6c-0.1-0.7-0.2-1.3-0.3-1.9c0-0.5,0.1-1.3,0.4-2.3c0.3-1,0.6-2.1,1.1-3.3c0.4-1.2,1-2.4,1.6-3.6
					c0.6-1.2,1.3-2.3,2-3.3c0.7-1,1.5-1.8,2.2-2.5c0.8-0.6,1.5-1,2.3-1c1.1-0.2,2,0.1,2.5,0.7c0.5,0.6,0.6,1.7,0.3,3.2
					c0,1.6,0.1,3.1,0.2,4.2c0.1,1.2,0.3,2.3,0.5,3.4s0.3,2.2,0.5,3.4c0.1,1.2,0.2,2.6,0.2,4.2c0,0.3,0,0.6-0.1,0.8s-0.4,0.3-1,0.3
					c-0.1,0-0.2-0.1-0.3-0.2C42.3,44,42.3,43.9,42.3,43.8z M40.1,27.1c-0.3-0.4-0.7-0.4-1.2-0.1c-0.5,0.3-1,0.9-1.6,1.6
					c-0.6,0.7-1.1,1.6-1.7,2.7c-0.6,1-1.1,2.1-1.6,3.2c-0.5,1.1-0.9,2.1-1.3,3c-0.4,1-0.6,1.8-0.8,2.4c0,0.9,0.1,1.4,0.4,1.5
					s0.6,0,1.1-0.4c0.4-0.4,0.9-1,1.4-1.7s1.1-1.5,1.6-2.4c0.5-0.8,1-1.7,1.5-2.5s0.8-1.4,1.1-1.9c0.2-0.5,0.4-1,0.6-1.5
					c0.1-0.4,0.2-0.9,0.3-1.3c0.1-0.4,0.1-0.8,0.2-1.3C40.1,28,40.1,27.5,40.1,27.1z"/>
			</g>
			<g>
				<g>
					<path class="st2" d="M35.3,18.4c0.4-0.4,0.7-0.6,0.9-0.8c0.3-0.1,0.6-0.2,1-0.2c0.7,0,1.1,0.3,1.1,1c0,0.2,0,0.3-0.1,0.5
						s-0.2,0.4-0.4,0.5c-0.1,0.2-0.3,0.3-0.5,0.4s-0.4,0.1-0.5,0C36.7,20,36.5,20,36.3,20c-0.2-0.1-0.4-0.2-0.5-0.3
						c-0.2-0.2-0.3-0.3-0.4-0.6C35.3,18.9,35.3,18.7,35.3,18.4z"/>
				</g>
				<g>
					<path class="st2" d="M40.5,18.4c0.4-0.4,0.7-0.6,1-0.8c0.3-0.1,0.6-0.2,1-0.2c0.7,0,1.1,0.3,1.1,1c0,0.2,0,0.3-0.1,0.5
						s-0.2,0.4-0.4,0.5c-0.2,0.2-0.3,0.3-0.5,0.4s-0.4,0.1-0.5,0C41.9,20,41.7,20,41.5,20c-0.2-0.1-0.4-0.2-0.5-0.3
						c-0.2-0.2-0.3-0.3-0.4-0.6C40.5,18.9,40.5,18.7,40.5,18.4z"/>
				</g>
			</g>
		</g>
		<g>
			<path class="st2" d="M17.5,26.8v-0.3c0-0.3,0.1-0.4,0.3-0.5s0.4-0.2,0.7-0.2c0.2,0,0.4,0,0.6,0.1c0.2,0,0.3,0.2,0.4,0.4
				c0.1,0.4,0.2,0.9,0.2,1.6c0.1,0.7,0.2,1.4,0.3,2.2c0.1,0.8,0.2,1.7,0.3,2.6c0.1,0.9,0.2,1.8,0.4,2.6s0.2-1.1,0.5-2.9
				c0.2-1.8,0.7-3.3,1.3-4.4c0.7-1.1,1.6-1.9,2.7-2.4c1.2-0.4,2.6-0.5,4.4-0.3c0.8,0,1.2,0.4,1.2,1.3c0,0.3-0.2,0.6-0.7,0.7
				c-0.4,0.1-5.4,0.4-6.1,3.5c-0.3,1.1-0.9,6.6-0.9,8.3c-0.1,1.7,0.1,3.5-0.2,5.3c0,0.3-0.1,0.4-0.3,0.6c-0.2,0.1-0.5,0.2-0.8,0.2
				s-0.6-0.1-0.9-0.2s-0.5-0.3-0.6-0.6L17.5,26.8z"/>
		</g>
		<path class="st2" d="M13.6,4.9c0.7,0.5,1,1,0.9,1.6c-0.2,0.6-1.1,1-2.8,1C8.4,8.8,5.8,13.3,4,20.9C1.7,30.1,1.8,37,4.2,41.7
			c0.6,0.8,1.1,1.2,1.5,1.3c2,0.5,3.9-2.1,5.8-7.8l0.6-1.8c0.2-1.3,0.2-2,0-2.1C11,31.5,9.3,31.9,7,32.6l-0.8-0.1
			c-0.5-0.1-0.8-0.6-0.9-1.5c0.2-0.7,1.3-1.2,3.5-1.5c1.9-0.7,3.3-0.9,4.2-0.7c1.6,0.4,2.3,1.8,1.9,4.4l-0.1,0.2
			c-1.7,7.1-4.4,11.1-8,12.1c-0.9-0.1-1.3-0.2-1.3-0.1c-4.1-1-6-6.5-5.4-16.5c0.3-3,0.7-5.7,1.3-8.2l0.2-0.9
			c2.1-8.3,5.2-13.3,9.5-14.9C12.3,4.9,13.2,4.8,13.6,4.9z"/>
	</g>
	<g class="st1">
		<g>
			<path class="st2" d="M19.3,0.4c0-0.2,0.1-0.3,0.2-0.3C19.6,0,19.7,0,19.8,0c0.3,0,0.4,0.1,0.5,0.3c0.1,0.2,0.1,0.4,0.1,0.6
				c-0.1,0.1-0.2,0.3-0.3,0.3c-0.1,0.1-0.3,0.1-0.4,0c-0.1,0-0.2-0.1-0.3-0.3C19.3,0.8,19.3,0.6,19.3,0.4z M19,14.7
				c0-0.9,0.1-1.9,0.1-2.9s0-2,0-3s0.1-2,0.1-3c0.1-1,0.2-1.9,0.3-2.8c0,0,0.1,0,0.2,0c0.1,0,0.2,0,0.2,0c0.2,0,0.4,0,0.5,0.1
				c0.1,0.1,0.2,0.2,0.2,0.4c0,0.8-0.1,1.7-0.1,2.7c-0.1,1-0.1,2-0.2,2.9c-0.1,1-0.1,2-0.2,3c0,1-0.1,1.9-0.1,2.7
				c0,0.2-0.1,0.4-0.2,0.5c-0.1,0.1-0.2,0.1-0.4,0.1s-0.3-0.1-0.4-0.1C19,15.1,19,15,19,14.7z"/>
		</g>
		<g>
			<path class="st2" d="M21.9,14.7c0-0.4,0.1-0.7,0.1-1.4c0-0.7,0-1.1,0.1-1.9c0-0.8,0.1-1.6,0.1-2.5s0-1.7,0.1-2.4c0-1,0-1.6-0.1-2
				c0-0.3,0.1-0.4,0.2-0.5c0.1,0,0.3-0.1,0.5,0c0,0,0.1,0,0.2,0c0.1,0,0.2,0,0.2,0c0.1,0.4,0.1,1,0.1,1.6c0,0.7-0.2,2.1-0.2,2.9
				s-0.1,1.6,0,2.4c0.3-1.1,0.5-2,0.7-2.7s0.4-1.3,0.5-1.7c0.2-0.4,0.3-0.7,0.4-1c0.1-0.2,0.2-0.3,0.4-0.4C25.3,5,25.5,5,25.6,5
				c0.2,0,0.4,0,0.6,0.1c0.3,0,0.4,0.1,0.6,0.3c0.1,0.2,0.3,0.5,0.3,0.8c0.1,0.3,0.1,0.7,0.1,1c0,0.4,0,0.7,0.1,1.1
				c0,0.3,0,0.7,0.1,0.9c0,0.3,0.1,0.5,0.2,0.6c0.4-1,0.8-1.8,1.1-2.5c0.2-0.3,0.5-0.8,0.7-1.2c0.2-0.4,0.4-0.6,0.5-0.8
				C30.1,5.1,30.2,5,30.3,5c0.1,0,0.2,0,0.3,0s0.2,0.1,0.3,0.1c0.4,0,0.6,0.2,0.8,0.6C31.9,6.4,32,7,32,7.6s0,1.1,0,1.6
				c0,0.5-0.1,1-0.1,1.5c0,0.5-0.1,0.9-0.1,1.4c0,0.4,0,0.9,0.1,1.3c0.1,0.4,0.3,0.9,0.5,1.3c-0.1,0.2-0.3,0.4-0.4,0.4
				c-0.1,0.1-0.3,0.1-0.5,0.1s-0.3-0.1-0.4-0.2c-0.1-0.1-0.2-0.3-0.3-0.5c0.1-0.1,0.1-0.3,0-0.5c0-0.2-0.1-0.3-0.1-0.5
				c0.1-2,0.1-3.5,0.1-4.6s-0.2-1.6-0.4-1.7s-0.6,0.4-1,1.3c-0.4,1-1,2.5-1.7,4.5c0,0.1-0.1,0.1-0.2,0.1c-0.1,0-0.2,0-0.3,0
				s-0.1,0-0.2,0c-0.1,0-0.2-0.1-0.3-0.1c-0.2-2.1-0.4-3.6-0.5-4.5c-0.2-0.9-0.4-1.3-0.6-1.1c-0.3,0.2-0.6,0.9-1,2.2
				c-0.4,1.3-0.9,2.7-1.5,5c0,0-0.3,0.3-0.6,0.2C22.1,14.9,21.9,14.7,21.9,14.7z"/>
		</g>
	</g>
</g>
<path class="st2" d="M15.8,38.8c0,0-3.3,1.4-4.4,1.6s-6.2,0.9-6.2,0.9l-2-0.1c0,0,1.1-9.9,2-34c0.2-2.9-0.2-6.4-1.4-6.4
	C2.9,0.8,2.3,1.1,2,1.7c1.4,16.7-0.8,27.9-1.1,32.5c-0.5,7.2-1.5,10.5-0.3,10.6L2,44.9c1.3-0.6,2.3-0.5,2.8-0.5l7.5-1.2
	c3.8,0.2,4.6-0.2,4.9-1.4C18.1,39.5,16.4,38.8,15.8,38.8z M30.4,26.7c-0.3-0.4-0.5-0.9-0.9-1.6c-0.4-0.6-0.8-1.2-1.4-1.8
	c-0.5-0.5-1.1-1-1.7-1.4c-0.6-0.4-1.4-0.5-2.1-0.5c-0.3,0-0.7,0.1-1.1,0.2c-0.3,0.2-0.7,0.3-1,0.5c-0.3,0.2-0.6,0.5-0.8,0.7
	c-0.2,0.3-0.3,0.6-0.3,0.9c-0.2,0.7-0.5,1.5-0.7,2.2c-0.3,0.7-0.5,1.5-0.7,2.2c-0.3,1.4-0.5,2.6-0.6,3.9c-0.1,1.2-0.1,2.5-0.1,3.7
	c0.1,1.2,1.3,6.6,1.5,7.2c0.2,0.6,0.5,1.2,0.9,1.6c0.4,0.4,1,0.6,1.8,0.6c0.1,0,0.1,0,0.1,0c1.4-0.2,2.6-0.7,3.7-1.4
	c1-0.7,1.8-1.6,2.4-2.7c0.6-1,1.1-2.2,1.4-3.5c0.3-1.2,0.5-2.5,0.5-3.8c0-1.3-0.1-2.5-0.2-3.8C31,28.8,30.8,27.7,30.4,26.7z
	 M28.5,34.9c-0.1,0.9-0.9,4.3-1.2,4.9c-0.3,0.7-1.1,1.3-1.6,1.7c-0.5,0.4-1.1,0.7-1.8,0.7c-0.3-0.3-0.7-0.6-0.7-0.7
	c-0.1-0.3-0.6-2.1-0.6-2.4c-0.1-0.7-0.1-1.3-0.2-1.9c-0.1-0.5-0.2-1.2-0.2-1.8C22,34.6,22,33.9,22,33.2c0-0.4,0-0.9,0-1.3
	c0-1.1,0-2.2,0.1-3c0.1-0.9,0.3-1.7,0.6-2.3c0.3-0.6,0.9-1.4,1.4-1.7h0.1c0.3-0.2,0.6-0.3,1-0.3c0.2,0,0.5,0,0.7,0.1l0,0l0,0
	c0.4,0,0.7,0.1,0.9,0.3c0.3,0.2,0.5,0.9,0.7,1.3c0.2,0.3,0.7,2.2,0.8,2.6s0.1,2,0.1,2c0,0.4,0.3,1,0.3,1.8
	C28.9,33.2,28.7,34.1,28.5,34.9z M65,34.1c-0.2-1.2-0.3-2.4-0.5-3.7s-0.2-2.8-0.2-4.6c0.3-1.7,0.3-2.9-0.3-3.7
	c-0.6-0.7-1.6-1-2.8-0.8c-0.8,0-1.7,0.4-2.5,1.1c-0.8,0.7-1.6,1.6-2.4,2.8c-0.7,1.1-1.4,2.4-2.1,3.7c-0.7,1.4-1.2,2.7-1.7,4
	s-0.8,2.5-1.2,3.7c-0.3,1.1-0.4,2-0.4,2.6c0.1,0.6,0.1,1.4,0.3,2c0.1,0.7,0.4,1.4,0.8,1.9c0.4,0.5,0.9,0.8,1.5,0.8s1.3-0.3,2.2-1.1
	c0.8-0.7,1.8-1.9,2.8-3.5c1-1.6,2.2-3.7,3.6-6.4c0.2,0.5,0.4,1.2,0.5,1.9c0.1,0.9,0.3,1.9,0.4,2.9c0.1,1,0.2,2,0.3,3
	c0.1,1,0.2,1.9,0.3,2.6c0,0.1,0.1,0.3,0.2,0.4c0.1,0.2,0.3,0.3,0.4,0.3c0.7,0,1.1-0.1,1.2-0.5c0.1-0.3,0.1-0.5,0.1-0.9
	c0-1.8-0.1-3.4-0.2-4.7C65.4,36.5,65.2,35.3,65,34.1z M61.6,26.2c0,0.5-0.1,0.9-0.1,1.4c-0.1,0.5-0.2,0.9-0.3,1.4
	c-0.1,0.5-0.3,1-0.5,1.6c-0.3,0.5-0.7,1.3-1.2,2.2c-0.5,0.9-1,1.8-1.6,2.7s-1.1,1.8-1.6,2.6c-0.5,0.8-1.1,1.4-1.5,1.9
	c-0.4,0.4-0.7,0.5-0.9,0.4c-0.1-0.1-0.3-0.3-0.3-1.5c0.1-0.7,0.4-1.6,0.7-2.6c0.4-1.1,0.8-2.2,1.4-3.4c0.5-1.2,1.1-2.4,1.7-3.5
	s1.2-2.1,1.8-3c0.5-0.8,1.1-1.4,1.6-1.8c0.2-0.1,0.4-0.2,0.5-0.2c0.2,0,0.3,0.1,0.4,0.3C61.6,25.2,61.6,25.7,61.6,26.2z M84.4,7.2
	c-0.7-0.4-2,0.2-2.2,0.3c-0.1,0.1-0.1,0.3-0.1,0.5c0.5,4.1,0.3,8.3,0.2,12.3V21c-0.2,5.2-0.5,9.9-0.9,14.2c-0.3,2.5-0.5,4.9-1.1,7.3
	c0,0.1,0,0.1,0,0.2c0.1,1.1,0.9,1.9,2.1,1.9c0,0,0,0,0.1,0c0.7,0,1.2-0.1,1.3-0.3c0.2-0.3,0.2-0.7,0.2-1.1c0-0.1,0-0.3,0-0.3
	c0.2-2.4,0.3-5,0.5-7.4c0.1-0.7,0.1-1.4,0.1-2.2c0.3-6,0.7-13.1,0.7-20c0-0.9,0-1.8,0-2.6c0-0.3,0-0.5,0-0.8c0-0.6,0.1-1.2-0.1-1.8
	C84.9,7.6,84.7,7.4,84.4,7.2z M47.6,37.2c-0.5,0.5-1.1,1.2-1.7,1.8c-0.6,0.7-1.4,1.3-2.3,1.8c-0.8,0.5-1.8,0.6-3,0.6
	c-2.5-1-3.5-3.4-3.4-7.3c0.1-1.3,0.5-3.5,1.1-5.2c0.1-0.3,0.2-0.7,0.3-1c0.3-1.2,0.7-2.4,1.3-3.1c0.8-0.9,1.2-1.8,1.1-2.4
	c-0.1-0.3-0.2-0.7-0.5-0.9l0,0l0,0c-0.7,0-1.4,0.3-2,1c-0.5,0.7-1.1,1.6-1.5,2.6c-0.4,1.1-0.8,2.2-1.2,3.5s-0.5,2.4-0.7,3.6
	c-0.2,1.2-0.3,2.2-0.4,3c-0.1,0.9-0.1,1.5-0.1,1.8c0,0.7,0.1,1.6,0.3,2.4c0.2,0.8,0.5,1.6,0.9,2.2c0.4,0.7,0.9,1.3,1.6,1.7
	c0.7,0.5,1.4,0.7,2.4,0.7c1.2,0,2.3-0.1,3.5-0.5c1.2-0.3,2.2-0.8,3-1.4c0.9-0.6,1.7-1.4,2.2-2.3c0.6-0.9,0.9-2,0.9-3.3v-0.1h-0.1
	C48.6,36.4,48.2,36.6,47.6,37.2z M103.4,25.1c-0.1-0.4-0.3-0.6-0.5-0.7c-0.3-0.1-0.5-0.2-0.7-0.3c-0.1,0-0.1,0-0.3,0
	c-0.1,0-0.2,0-0.2,0h-0.1l-3.8,15.6c-0.6-0.8-1.2-1.8-1.7-2.8c-0.5-1.2-1.1-2.4-1.6-3.7s-0.9-2.6-1.4-3.9s-0.9-2.4-1.3-3.5
	c-0.1-0.1-0.2-0.3-0.5-0.5s-0.5-0.3-0.6-0.3c-0.6-0.1-1,0-1.2,0.3s-0.3,0.5-0.4,0.9c0,0.1,0,0.3-0.1,0.5c0,0.3,0,0.3,0.1,0.4l7.4,18
	l-3,12.1l-1.2,2.6c-0.1,0.3,0,0.5,0.1,0.7c0.3,0.5,0.9,0.9,1.4,0.9l0.7,0.1h0.1c0.2,0,0.3-0.1,0.4-0.3c0.1-0.5,0.3-1.2,0.5-2.1
	c0.3-1.1,1.7-6.4,2-7.9c0.4-1.5,0.7-2.9,1.1-4.3s0.6-2.6,0.9-3.7c0.3-1.1,0.5-1.9,0.6-2.4c0.2-0.8,0.4-2,0.7-3.3s0.6-2.8,0.9-4.3
	c0.3-1.5,0.6-3,0.9-4.4C103.1,27.3,103.3,26.1,103.4,25.1L103.4,25.1L103.4,25.1z M74.9,10.3c0-0.3,0-0.5,0-0.8c0-0.6,0-1.3-0.1-1.8
	c-0.1-0.4-0.3-0.7-0.6-0.8c-0.8-0.3-2,0.3-2.2,0.5c-0.1,0.1-0.1,0.3-0.1,0.5c0.7,4,0.7,8.2,0.7,12.3v0.7c0.1,5.2-0.1,9.9-0.3,14.2
	c-0.1,2.5-0.3,4.9-0.8,7.4c0,0.1,0,0.1,0,0.2c0.1,1,1,1.8,2,1.8c0.1,0,0.1,0,0.1,0c0.7-0.1,1.2-0.2,1.3-0.4c0.1-0.3,0.1-0.7,0.1-1.1
	c0-0.1,0-0.3,0-0.3c0.1-2.4,0.1-5,0.1-7.4c0-0.7,0-1.4,0-2.2c0.1-6,0.1-13.1-0.1-20C74.9,12,74.9,11.2,74.9,10.3z M19.8,12.2
	c0.3-0.8,0.7-1.8,1.1-3.1c0.1,0.1,0.4,1.4,0.5,1.8c0.1,0.4,0.7,3.2,0.9,3.5c0.2,0.3,1.2,0.5,1.4,0.5c0.2,0,0.7-0.5,0.8-0.7
	c0.1-0.3,0.5-1.1,0.7-1.6c0.1-0.5,0.7-3.7,1-5.1v0.1c0.2-1.2,0.7-5.2,0.9-5.4c0-0.1,0.2-0.8,0.3-0.9c0-0.3,0.5-0.7-0.1-1.1
	c-0.5-0.3-1.3,0.3-1.3,0.3c-0.5,2.8-1.1,7.1-1.4,8.7c-0.3,1.5-0.3,2.5-1,3.5c-0.2,0.3-0.5-0.8-0.8-2c-0.3-1.1-0.6-2.9-1.1-5.4
	c-0.1,0-0.2,0-0.3,0c-0.1,0-0.2,0-0.3,0s-0.2,0-0.3,0c-0.1,0-0.2,0.1-0.2,0.1C19.9,8,19.4,9.9,18.9,11c-0.5,1.2-0.9,2.4-1.3,2.3
	c-0.3-0.1-0.3-1.4-0.5-2.7c-0.2-1.2-0.3-5-0.3-7.5c-0.1-0.2-0.1-0.3-0.1-0.6c-0.1-0.2-0.1-0.5-0.3-0.7c-0.1-0.2-0.2-0.4-0.4-0.5
	c-0.1-0.1-0.3-0.2-0.5-0.2c-0.3,0-0.4,0.1-0.5,0.1c-0.1,0.1-0.3,0.3-0.4,0.5c0.3,0.5,0.6,1,0.7,1.6c0.1,0.5,0.3,3.1,0.3,3.7
	c0.1,0.5,0.1,1.1,0.1,1.7c0,0.6,0,1.2,0,1.8c0,0.6,0.1,1.3,0.2,2c0.1,0.7,0.3,1.4,0.5,2.2c0.3,0.5,0.7,0.8,1.1,0.8
	c0.1,0,0.5-0.1,0.7-0.1c0.1-0.1,0.8-0.9,1.1-1.4C19.3,13.7,19.6,13,19.8,12.2z M37.5,10.7c0.2-0.4,0.3-0.7,0.3-1
	c0-0.2-0.1-0.3-0.3-0.4c-0.2-0.1-0.3-0.1-0.5-0.1s-0.3,0.1-0.5,0.3c-0.2,0.3-0.4,0.5-0.7,0.8c-0.3,0.4-0.9,1.4-1.4,1.8
	s-0.8,0.7-1.3,0.9c-0.5,0.3-0.9,0.3-1.4,0.3c-0.5,0-0.7-0.1-0.9-0.3c-0.2-0.2-0.3-0.5-0.3-0.8c-0.1-0.3-0.1-0.9-0.1-1.1
	c0-0.1,0-1.2,0-1.4c0.1-0.1,3.2-1.8,3.7-2s0.9-0.5,1.4-0.8C36,6.6,36.3,6.3,36.6,6c0.2-0.2,0.3-0.4,0.2-0.5c0-0.3-0.1-0.7-0.3-1
	c-0.2-0.3-1.9-1.4-2.4-1.3c-0.6,0-1.2,0.1-1.6,0.3c-0.5,0.2-0.8,0.5-1.2,0.9C31,4.7,30,6.5,29.8,7c-0.2,0.5-0.5,0.9-0.7,1.4
	c-0.3,0.4-0.5,0.8-0.9,1.1C28.1,9.6,28,9.7,28,9.7c-0.1,0.1-0.1,0.1-0.1,0.2c0,0.2,0.1,0.3,0.2,0.4c0.1,0.1,0.3,0.1,0.5,0.1
	c0.2,0,0.3,0,0.5,0l0,0c0,0.5,0.3,3,1.3,3.7c0.4,0.3,0.9,0.5,1.6,0.5c0.3,0,0.7-0.1,1.2-0.3c0.5-0.2,0.9-0.2,1.8-0.9
	C35.9,13,37.3,11.1,37.5,10.7z M31.6,6.8c0.2-0.4,1.1-1.8,1.4-2c0.3-0.3,0.6-0.3,0.9-0.3c0.1,0,0.7,0.1,0.9,0.2
	c0.1,0.1,0.3,0.1,0.4,0.3c0.1,0.1,0.1,0.2,0.1,0.3c0,0.3-0.2,0.5-0.5,0.8c-0.3,0.3-0.7,0.5-1.2,0.8c-0.5,0.3-0.9,0.5-1.4,0.6
	s-0.8,0.4-1.1,0.4C31.1,7.6,31.4,7.2,31.6,6.8z M29.1,10.6L29.1,10.6C29,10.6,29,10.6,29.1,10.6z"/>
</svg>
