<?xml version="1.0" standalone="no"?>
<!DOCTYPE svg PUBLIC "-//W3C//DTD SVG 20010904//EN"
 "http://www.w3.org/TR/2001/REC-SVG-20010904/DTD/svg10.dtd">
<svg version="1.0" xmlns="http://www.w3.org/2000/svg"
 width="700.000000pt" height="700.000000pt" viewBox="0 0 700.000000 700.000000"
 preserveAspectRatio="xMidYMid meet">
<metadata>
Created by potrace 1.14, written by Peter Selinger 2001-2017
</metadata>
<g transform="translate(0.000000,700.000000) scale(0.100000,-0.100000)"
fill="#000000" stroke="none">
<path d="M2917 6733 c-16 -4 -18 -12 -13 -46 3 -23 12 -109 21 -192 8 -82 17
-164 20 -181 l5 -31 158 23 c86 13 158 24 160 24 1 0 2 92 2 205 l0 205 -167
-1 c-93 -1 -176 -3 -186 -6z"/>
<path d="M3355 6728 c-2 -7 -5 -95 -7 -196 -3 -179 -3 -183 17 -178 11 2 37 8
57 11 36 7 36 8 30 43 -8 44 -9 182 -2 267 l5 60 -48 3 c-32 2 -49 -1 -52 -10z"/>
<path d="M2735 6723 c-22 -2 -55 -6 -72 -9 l-33 -5 0 -157 c0 -98 6 -186 15
-235 8 -43 15 -80 15 -82 0 -2 15 2 33 10 19 8 64 19 100 25 l67 12 0 34 c0
53 -33 286 -56 392 -2 12 -10 21 -17 20 -6 -1 -30 -3 -52 -5z"/>
<path d="M3565 6558 c4 -95 10 -176 14 -180 3 -3 119 22 256 57 138 34 314 76
393 91 140 28 142 29 142 56 0 25 -5 27 -67 42 -160 36 -429 76 -681 101 l-64
6 7 -173z"/>
<path d="M2360 6675 c-265 -46 -544 -118 -719 -185 l-83 -33 6 -36 c6 -43 25
-246 29 -314 l2 -47 45 22 c29 15 47 32 51 48 4 14 7 100 8 191 l1 167 31 6
c17 3 35 6 40 6 5 0 9 -90 9 -200 l0 -200 38 0 c79 0 725 90 738 102 2 3 -3
39 -11 82 -10 50 -15 139 -15 247 0 155 -1 169 -17 168 -10 0 -79 -11 -153
-24z"/>
<path d="M4440 6576 c0 -12 10 -16 42 -16 47 0 42 14 -9 25 -26 5 -33 3 -33
-9z"/>
<path d="M4600 6528 c-107 -22 -397 -91 -434 -105 -59 -22 -142 -39 -401 -84
-126 -22 -375 -69 -553 -104 -178 -36 -336 -65 -351 -65 -15 0 -95 -14 -177
-30 -82 -17 -207 -35 -279 -40 -113 -9 -496 -49 -770 -80 -111 -13 -552 -82
-735 -115 -149 -27 -147 -26 -228 -139 l-34 -46 39 5 c21 3 124 17 228 31 247
32 559 84 813 134 112 22 227 40 255 40 138 0 627 81 1087 180 124 27 353 74
510 105 157 31 335 67 395 80 61 14 189 40 285 59 96 19 262 53 369 76 l193
41 68 -20 c111 -34 94 -22 -30 20 -182 63 -200 67 -250 57z"/>
<path d="M1354 6365 c-71 -37 -142 -76 -158 -88 l-28 -22 9 -95 8 -95 150 1
c83 0 163 4 179 8 27 7 28 9 23 54 -3 26 -12 104 -19 175 -7 75 -17 127 -23
127 -6 0 -69 -29 -141 -65z"/>
<path d="M4935 6419 c-22 -4 -94 -17 -160 -29 -66 -12 -349 -70 -630 -130
-572 -122 -842 -173 -1090 -206 -22 -3 -128 -25 -235 -50 -287 -64 -482 -100
-790 -144 -161 -23 -331 -54 -410 -74 -176 -46 -274 -62 -510 -86 -229 -23
-313 -35 -434 -61 -49 -10 -93 -19 -97 -19 -8 0 -109 -162 -109 -175 0 -4 23
-5 51 -1 92 12 786 135 962 170 95 19 249 46 342 61 594 93 1018 173 1335 250
190 46 261 57 485 74 91 7 248 34 520 90 396 80 491 97 715 126 69 10 178 28
244 41 65 13 127 24 137 24 10 0 46 -18 79 -39 l61 -40 -48 -6 c-26 -4 -120
-18 -208 -31 -88 -14 -194 -30 -235 -36 -75 -10 -75 -11 -109 -59 -34 -50
-174 -189 -190 -189 -8 0 -90 102 -109 136 -7 12 -54 7 -282 -30 -278 -46
-577 -86 -636 -86 -28 0 -39 -8 -81 -62 -39 -52 -166 -212 -179 -227 -7 -8
-33 32 -84 132 -28 53 -53 97 -55 97 -3 0 -37 -9 -77 -19 -40 -11 -90 -22
-111 -26 -34 -5 -43 -14 -81 -73 -24 -37 -60 -98 -81 -135 l-37 -68 -49 76
c-27 42 -56 89 -64 105 -8 16 -19 32 -25 35 -14 9 -166 -19 -362 -65 -216 -51
-321 -69 -460 -78 l-113 -7 -74 -119 -74 -119 -50 99 c-27 55 -50 100 -51 101
-1 2 -36 -4 -77 -11 -41 -8 -106 -17 -145 -21 -39 -4 -75 -10 -80 -13 -6 -4
-35 -38 -66 -77 -31 -38 -72 -87 -90 -108 l-33 -39 -43 64 c-23 35 -50 73 -60
86 l-18 23 -214 -47 c-118 -26 -221 -52 -228 -58 -8 -5 -27 -39 -44 -75 -32
-70 -118 -271 -118 -276 0 -6 401 -133 534 -170 71 -19 158 -40 192 -46 61
-10 73 -21 74 -62 0 -4 -33 -43 -73 -86 l-74 -78 -7 -674 c-6 -616 3 -1419 20
-1793 l7 -149 131 7 c192 10 470 35 641 57 83 10 247 26 365 34 260 18 354 28
530 60 74 13 154 27 178 30 34 6 46 13 58 37 12 24 14 36 5 55 -6 13 -11 40
-11 59 0 44 -11 48 -102 35 -40 -6 -185 -20 -323 -31 -137 -11 -261 -23 -275
-26 -46 -10 -16 4 94 46 88 33 122 41 176 41 36 0 91 6 121 12 l54 12 0 1033
1 1033 -21 -5 c-11 -3 -176 -28 -367 -56 -192 -28 -359 -54 -371 -59 -21 -8
-25 -18 -30 -78 -10 -100 -9 -414 4 -1076 11 -561 10 -589 -7 -625 -23 -46
-25 -156 -5 -225 12 -43 20 -51 78 -86 l65 -39 -78 -6 c-44 -4 -94 -8 -111
-11 -29 -3 -34 0 -39 23 -4 15 -12 32 -19 38 -11 8 -11 39 1 170 25 267 20
930 -13 1652 l-6 142 -59 0 -58 0 0 -923 0 -923 35 -70 c19 -38 35 -75 35 -82
0 -7 -19 -42 -41 -78 -38 -59 -44 -65 -68 -59 -14 4 -28 9 -31 11 -2 3 -6 51
-7 107 -6 233 -25 1182 -32 1585 l-8 434 -32 30 c-60 56 -65 71 -66 194 l0
114 190 84 c207 92 339 146 357 146 6 0 69 32 140 71 l128 70 79 -30 c92 -36
360 -114 449 -131 34 -7 62 -16 62 -20 0 -4 -56 -10 -123 -13 -140 -7 -778
-93 -994 -133 l-143 -27 0 -36 c0 -20 9 -54 19 -77 l19 -41 258 33 c496 64
1018 143 1044 159 5 3 10 35 10 71 0 53 -3 64 -17 64 -13 0 -11 6 12 30 16 16
26 33 22 36 -10 10 -677 234 -697 234 -10 0 -74 -32 -142 -71 -152 -88 -213
-119 -303 -154 -38 -15 -118 -52 -178 -83 -59 -30 -109 -53 -111 -51 -2 2 -6
18 -10 34 l-6 30 319 188 c175 103 341 197 369 209 l51 21 83 -38 c46 -21 205
-78 353 -127 250 -82 445 -160 445 -179 0 -5 -27 -40 -59 -79 -52 -62 -61 -78
-66 -125 -4 -30 -4 -62 -1 -71 4 -9 9 -472 12 -1028 5 -1119 10 -1216 60
-1263 13 -12 29 -35 35 -50 14 -37 2 -143 -16 -143 -32 0 -512 -42 -635 -55
-128 -14 -324 -41 -615 -84 -178 -27 -436 -49 -705 -61 -244 -11 -540 -38
-553 -50 -8 -7 18 -67 45 -103 12 -16 23 -16 218 3 113 11 342 29 510 40 345
23 562 42 795 70 262 31 426 48 772 80 180 17 393 39 473 50 326 44 672 81
901 95 358 23 1323 141 1377 169 15 8 42 33 61 56 39 48 33 58 -34 62 -139 6
-356 -19 -795 -93 -483 -81 -457 -78 -715 -89 -126 -5 -342 -21 -480 -35 -137
-14 -261 -24 -275 -24 -36 2 368 55 555 74 88 8 306 31 485 49 179 19 377 39
440 45 167 16 164 15 156 69 -10 76 -35 114 -81 127 l-40 11 -2 734 c-3 766
-14 1454 -24 1464 -3 3 -25 2 -48 -2 l-44 -7 0 -730 c-1 -402 3 -860 8 -1020
6 -215 5 -308 -4 -361 l-12 -71 -162 -22 c-215 -28 -362 -43 -382 -39 -10 1
92 39 225 83 l242 80 -6 260 c-14 579 -17 1413 -7 1556 9 119 8 155 -3 195 -8
27 -17 62 -20 77 -4 15 -10 26 -14 23 -9 -5 -505 -89 -753 -127 l-147 -22 -6
-86 c-11 -165 -9 -1664 3 -1701 14 -44 15 -240 1 -240 -6 0 -18 8 -29 19 -14
14 -21 41 -26 102 -4 46 -14 120 -22 164 -13 66 -16 220 -18 903 -2 453 -5
826 -8 829 -4 3 -32 2 -63 -2 l-57 -7 6 -786 c3 -433 11 -888 17 -1011 l12
-223 -26 -27 c-50 -52 -35 -61 107 -62 107 -1 174 -11 147 -22 -8 -3 -80 -16
-159 -27 -111 -17 -145 -19 -151 -10 -16 25 -35 355 -51 870 -15 476 -17 1446
-4 1459 6 6 327 63 715 127 l705 117 18 74 c10 41 17 76 15 78 -7 7 -390 -16
-478 -30 -52 -7 -203 -37 -335 -65 -278 -59 -426 -85 -544 -95 l-83 -7 7 43
c4 24 9 47 12 52 2 4 39 30 81 59 42 28 133 91 202 139 89 63 169 108 279 158
l154 70 111 -33 c97 -30 194 -53 558 -136 l77 -17 40 61 c22 34 36 62 33 63
-4 2 -131 27 -282 58 -151 30 -342 72 -424 91 -175 43 -143 51 -360 -85 -153
-96 -541 -291 -579 -291 -22 0 -67 32 -67 49 0 4 181 110 403 235 l402 228
265 -61 c146 -33 379 -83 519 -111 139 -28 257 -53 262 -56 16 -10 9 -36 -25
-93 -87 -144 -116 -218 -144 -364 -26 -139 -27 -150 -27 -527 1 -212 5 -692
11 -1067 l9 -681 58 -60 c56 -59 87 -115 102 -180 4 -20 13 -32 23 -32 17 0
348 37 410 46 28 4 32 9 33 37 0 18 4 68 8 112 4 44 2 240 -5 435 -26 757 -27
1024 -8 1310 16 220 19 392 19 1016 l0 750 -26 40 c-15 22 -28 49 -31 60 -4
22 -142 101 -298 170 -173 76 -191 81 -235 73z m-1662 -4356 c-7 -2 -21 -2
-30 0 -10 3 -4 5 12 5 17 0 24 -2 18 -5z m-135 -10 c-16 -2 -40 -2 -55 0 -16
2 -3 4 27 4 30 0 43 -2 28 -4z"/>
<path d="M1023 6149 c-62 -50 -73 -64 -73 -91 l0 -31 73 8 c39 3 73 8 75 10 2
1 2 39 0 83 l-3 81 -72 -60z"/>
<path d="M5676 6038 c-10 -30 -27 -302 -33 -520 -5 -208 -4 -246 13 -329 18
-89 19 -154 19 -1339 0 -685 -4 -1286 -8 -1337 -10 -109 -14 -105 116 -127 61
-11 144 -40 292 -101 255 -106 265 -111 505 -255 107 -64 210 -125 229 -134
32 -17 33 -20 28 -59 l-6 -42 15 40 c44 119 101 387 130 610 21 168 29 630 15
840 -62 888 -271 1559 -656 2110 -134 192 -348 419 -535 568 -103 83 -119 92
-124 75z m748 -1162 c20 -60 55 -151 78 -204 l42 -95 -20 -36 c-10 -20 -27
-37 -36 -39 -10 -2 -109 46 -220 107 -112 60 -211 113 -220 116 -16 6 -18 0
-18 -59 l0 -66 223 -112 c237 -121 271 -148 183 -148 l-46 0 0 -899 c0 -754
-2 -900 -14 -910 -10 -9 -26 -9 -62 -1 -47 11 -233 74 -264 90 -13 7 -14 49
-9 326 4 176 7 592 8 926 l1 608 -50 25 -50 25 0 118 0 118 33 32 c42 41 33
44 262 -88 96 -55 177 -100 180 -100 3 0 -1 10 -9 23 -16 24 -82 210 -116 324
-11 40 -24 74 -28 77 -4 2 -39 -19 -76 -47 -94 -70 -105 -77 -147 -77 -40 0
-49 12 -49 58 0 43 14 55 51 50 29 -5 43 1 90 38 30 24 59 44 65 44 5 0 29 14
54 30 l45 30 42 -87 c23 -49 58 -137 77 -197z"/>
<path d="M6170 3592 l0 -869 63 -28 c34 -15 68 -29 75 -32 9 -4 12 170 12 848
l0 854 -48 31 c-26 17 -59 39 -74 48 l-28 18 0 -870z"/>
<path d="M204 4835 c-10 -30 -15 -57 -12 -60 5 -6 117 -39 402 -119 l200 -57
51 51 c48 47 53 50 105 51 l55 0 -40 15 c-70 26 -694 174 -733 174 -6 0 -19
-25 -28 -55z"/>
<path d="M729 4516 c-2 -2 -98 -9 -214 -16 -191 -10 -401 -33 -413 -44 -6 -7
-33 -138 -28 -143 2 -2 97 7 212 21 115 14 243 28 284 31 89 8 215 32 241 46
27 14 26 84 0 99 -19 10 -74 14 -82 6z"/>
<path d="M2732 4416 c-73 -9 -73 -9 -67 -35 9 -31 7 -1420 -1 -1716 -5 -146
-3 -223 5 -252 l12 -43 48 0 48 0 7 213 c8 284 29 1837 25 1840 -2 2 -37 -2
-77 -7z"/>
<path d="M698 4243 c-35 -5 -44 -35 -29 -103 8 -35 11 -344 11 -977 0 -920 -4
-1046 -34 -1065 -6 -4 -40 -8 -76 -8 -67 0 -231 -18 -239 -25 -8 -9 52 -137
67 -143 8 -3 65 2 126 11 61 10 141 17 178 17 36 0 72 2 80 5 16 7 16 301 -2
535 -6 85 -14 516 -17 958 -6 884 0 805 -65 795z"/>
<path d="M335 4183 c-148 -13 -275 -25 -281 -28 -36 -12 -56 -765 -26 -985 48
-360 139 -723 246 -985 l24 -60 59 1 c32 0 101 4 154 8 l97 8 7 581 c5 320 7
654 5 742 -6 268 -5 403 3 578 7 137 6 167 -5 166 -7 -1 -134 -12 -283 -26z"/>
<path d="M5783 2249 c-21 -54 -66 -25 507 -327 157 -82 314 -164 350 -182 36
-18 66 -34 68 -35 2 -1 -5 -21 -13 -43 l-17 -41 -261 130 c-275 138 -701 339
-718 339 -6 0 -9 -45 -7 -117 l3 -117 80 -34 c195 -84 610 -268 717 -319 l117
-56 -32 -58 c-18 -32 -35 -59 -40 -59 -4 0 -48 20 -97 45 -323 162 -784 337
-795 302 -11 -36 -29 -439 -32 -745 l-5 -353 -55 -24 c-31 -14 -58 -25 -60
-25 -3 0 -3 219 -1 488 3 344 8 495 17 516 6 16 10 30 8 32 -2 2 -80 4 -173 5
-137 1 -224 -6 -459 -35 -264 -32 -418 -43 -860 -61 -82 -4 -283 -20 -445 -36
-178 -18 -440 -35 -660 -44 -397 -16 -590 -28 -832 -50 -87 -8 -229 -22 -315
-30 -154 -14 -376 -27 -776 -44 -109 -5 -201 -12 -204 -15 -9 -9 117 -154 228
-262 206 -199 465 -366 778 -499 l84 -36 -6 83 c-4 46 -7 161 -7 256 0 165 -1
172 -20 172 -15 0 -20 7 -20 25 0 16 6 25 16 25 9 0 18 9 21 20 8 29 27 19 31
-15 l4 -28 206 6 c114 4 250 13 302 22 111 17 244 20 288 4 32 -11 36 -17 47
-84 4 -22 17 -59 31 -81 23 -41 24 -49 30 -338 4 -163 8 -296 10 -296 1 0 60
-7 131 -15 141 -16 444 -35 557 -35 l73 0 6 317 c4 174 7 381 7 460 0 106 3
145 13 148 10 3 923 85 951 85 5 0 5 -102 0 -237 -10 -255 -9 -376 1 -572 l7
-123 56 6 c168 20 591 117 807 186 200 64 451 173 567 247 l40 24 -3 219 c-3
202 -2 221 16 240 10 11 22 20 26 20 5 0 46 -17 91 -39 46 -21 115 -48 153
-60 39 -13 76 -25 84 -27 10 -3 10 -10 -4 -32 l-18 -27 28 25 c34 31 148 184
202 271 84 135 225 440 206 446 -5 2 -117 62 -248 134 -233 127 -471 248 -665
339 -52 24 -97 45 -100 47 -3 2 -11 -11 -17 -28z"/>
<path d="M5165 1959 c-503 -57 -1045 -109 -1260 -119 -121 -6 -427 -33 -680
-60 -253 -28 -536 -57 -630 -65 -93 -9 -264 -24 -380 -35 -115 -11 -322 -27
-460 -35 -425 -27 -1087 -99 -1132 -124 -9 -5 1 -27 33 -74 l45 -68 117 6 c64
4 144 11 177 17 237 40 337 49 635 58 812 25 845 27 1780 114 796 75 778 73
1190 96 201 11 412 25 470 30 58 5 142 9 188 10 114 0 217 17 280 47 l52 24 0
105 0 104 -87 -1 c-49 -1 -200 -14 -338 -30z"/>
<path d="M4035 1029 c-192 -22 -351 -42 -353 -44 -6 -6 -23 -797 -18 -803 12
-11 591 30 765 54 l44 7 -6 210 c-4 116 -7 302 -7 414 l0 203 -37 -1 c-21 0
-195 -19 -388 -40z"/>
<path d="M6150 925 c0 -63 4 -115 8 -115 4 0 40 30 80 66 64 59 73 70 70 98
-3 28 -7 32 -56 42 -29 7 -64 15 -77 18 l-25 6 0 -115z"/>
<path d="M2505 933 c-58 -11 -145 -14 -318 -13 l-238 1 7 -238 c4 -155 10
-242 18 -250 32 -33 463 -143 730 -186 l29 -5 -7 217 c-7 211 -11 254 -38 414
l-13 77 -45 -1 c-25 -1 -81 -8 -125 -16z"/>
</g>
</svg>
