<?xml version="1.0" encoding="utf-8"?>
<!-- Generator: Adobe Illustrator 24.0.1, SVG Export Plug-In . SVG Version: 6.00 Build 0)  -->
<svg version="1.1" id="Layer_1" xmlns="http://www.w3.org/2000/svg" xmlns:xlink="http://www.w3.org/1999/xlink" x="0px" y="0px"
	 viewBox="0 0 392.6 141.17" style="enable-background:new 0 0 392.6 141.17;" xml:space="preserve">
<style type="text/css">
	.st0{fill:#000000;}
</style>
<g>
	<path class="st0" d="M365.32,117.87c0.05-1.2,1.06-3.89,4.1-3.89c2.88,0,3.96,2.64,4.01,3.89H365.32z M369.42,112.76
		c-3.26,0-5.4,2.66-5.4,5.76c0,3.12,2.35,5.76,5.62,5.76c1.8,0,3.53-0.96,4.58-2.23l-0.84-0.86c-0.74,0.94-2.06,1.87-3.74,1.87
		c-2.9,0-4.27-2.38-4.37-4.03h9.43c0.02-0.26,0.02-0.29,0.02-0.5C374.73,115.16,372.33,112.76,369.42,112.76 M358.14,109.49
		c0,0.53,0.43,0.96,0.96,0.96c0.53,0,0.96-0.43,0.96-0.96s-0.43-0.96-0.96-0.96C358.58,108.53,358.14,108.97,358.14,109.49
		 M358.48,123.99h1.25v-10.94h-1.25V123.99z M352,120.51c0,0-1.13,2.54-3.96,2.54c-2.45,0-4.13-1.99-4.13-4.54
		c0-2.54,1.68-4.54,4.13-4.54c2.83,0,3.96,2.54,3.96,2.54V120.51z M352.12,113.05v2.02c0,0-1.2-2.3-4.08-2.3
		c-3.02,0-5.42,2.35-5.42,5.76c0,3.41,2.4,5.76,5.42,5.76c2.42,0,3.6-1.61,3.96-2.11v2.14c0,2.45-1.3,4.27-4.1,4.27
		c-2.78,0-4.18-1.9-4.18-1.9l-0.84,0.89c0,0,1.8,2.23,5.02,2.23c3.19,0,5.35-2.11,5.35-5.54v-11.21H352.12z M334,123.05
		c-2.74,0-4.27-2.06-4.27-4.54s1.54-4.54,4.27-4.54s4.27,2.06,4.27,4.54S336.74,123.05,334,123.05 M334,112.76
		c-3.26,0-5.57,2.59-5.57,5.76s2.3,5.76,5.57,5.76s5.57-2.59,5.57-5.76S337.27,112.76,334,112.76 M322.82,123.99h1.25v-18.14h-1.2
		L322.82,123.99z M312.88,123.05c-2.74,0-4.27-2.06-4.27-4.54s1.54-4.54,4.27-4.54c2.74,0,4.27,2.06,4.27,4.54
		S315.62,123.05,312.88,123.05 M312.88,112.76c-3.26,0-5.57,2.59-5.57,5.76s2.3,5.76,5.57,5.76c3.26,0,5.57-2.59,5.57-5.76
		S316.14,112.76,312.88,112.76 M299.23,112.76c-2.69,0-3.74,2.28-3.74,2.28v-1.99h-1.13v10.94h1.25v-7.56c0,0,0.96-2.45,3.38-2.45
		c1.78,0,3.1,0.96,3.1,3.22v6.79h1.25v-6.98C303.33,114.03,301.27,112.76,299.23,112.76 M281.71,114.85v-9h-1.25v18.14h1.25v-7.56
		c0,0,0.96-2.45,3.38-2.45c1.78,0,3.1,0.96,3.1,3.22v6.79h1.25v-6.98c0-2.98-2.06-4.25-4.1-4.25
		C282.76,112.76,281.71,114.85,281.71,114.85 M271.84,123.05c-2.62,0-4.34-2.11-4.34-4.54c0-2.42,1.73-4.54,4.34-4.54
		c2.3,0,3.48,1.63,3.48,1.63l0.89-0.79c0,0-1.51-2.06-4.37-2.06c-3.26,0-5.64,2.59-5.64,5.76s2.38,5.76,5.64,5.76
		c2.98,0,4.49-2.23,4.49-2.23l-0.86-0.82C275.47,121.23,274.27,123.05,271.84,123.05 M253.75,117.87c0.05-1.2,1.06-3.89,4.1-3.89
		c2.88,0,3.96,2.64,4.01,3.89H253.75z M257.85,112.76c-3.26,0-5.4,2.66-5.4,5.76c0,3.12,2.35,5.76,5.62,5.76
		c1.8,0,3.53-0.96,4.58-2.23l-0.84-0.86c-0.74,0.94-2.06,1.87-3.74,1.87c-2.9,0-4.27-2.38-4.37-4.03h9.43
		c0.02-0.26,0.02-0.29,0.02-0.5C263.15,115.16,260.75,112.76,257.85,112.76 M245.15,123.99h1.25v-15.65h5.06v-1.15h-11.38v1.15h5.06
		V123.99z M227.03,120.51c0,0-1.2,2.54-3.94,2.54c-2.45,0-4.15-1.99-4.15-4.54c0-2.54,1.7-4.54,4.15-4.54
		c2.76,0,3.94,2.54,3.94,2.54V120.51z M228.28,123.99v-18.14h-1.22v9.05c-0.29-0.43-1.56-2.14-3.96-2.14
		c-3.05,0-5.45,2.35-5.45,5.76c0,3.41,2.4,5.76,5.45,5.76c2.78,0,4.06-2.3,4.06-2.3v2.02H228.28z M209.56,112.76
		c-2.69,0-3.74,2.28-3.74,2.28v-1.99h-1.13v10.94h1.25v-7.56c0,0,0.96-2.45,3.38-2.45c1.78,0,3.1,0.96,3.1,3.22v6.79h1.25v-6.98
		C213.67,114.03,211.6,112.76,209.56,112.76 M194.9,124.28c2.69,0,3.74-2.23,3.74-2.23v1.94h1.13v-10.94h-1.25v7.61
		c0,0-0.96,2.4-3.38,2.4c-1.82,0-3.1-0.96-3.1-3.22v-6.79h-1.25v6.98C190.79,123.01,192.81,124.28,194.9,124.28 M173.97,112.76
		c-2.69,0-3.74,2.28-3.74,2.28v-1.99h-1.13v10.94h1.25v-7.56c0,0,0.96-2.45,3.38-2.45c1.78,0,3.1,0.96,3.1,3.22v6.79h1.25v-6.98
		C178.07,114.03,176.01,112.76,173.97,112.76 M159.55,123.05c-2.74,0-4.27-2.06-4.27-4.54s1.54-4.54,4.27-4.54
		c2.74,0,4.27,2.06,4.27,4.54S162.28,123.05,159.55,123.05 M159.55,112.76c-3.26,0-5.57,2.59-5.57,5.76s2.3,5.76,5.57,5.76
		c3.26,0,5.57-2.59,5.57-5.76S162.81,112.76,159.55,112.76 M148.1,109.49c0,0.53,0.43,0.96,0.96,0.96s0.96-0.43,0.96-0.96
		s-0.43-0.96-0.96-0.96S148.1,108.97,148.1,109.49 M148.43,123.99h1.25v-10.94h-1.25V123.99z M136.55,114.2h2.38v6.84
		c0,1.8,0.98,3.24,3.12,3.24c1.1,0,2.16-0.65,2.16-0.65l-0.48-1.08c0,0-0.77,0.5-1.63,0.5c-1.49,0-1.92-1.03-1.92-2.26v-6.6h3.72
		v-1.15h-3.72v-3.53h-1.25v3.53h-2.38V114.2z M127.72,123.05c-1.42,0-2.98-0.74-2.98-2.47c0-1.73,1.78-2.5,3.22-2.5
		c2.18,0,3.48,0.91,3.48,0.91v1.85C131.44,120.85,130.12,123.05,127.72,123.05 M128.2,112.76c-2.3,0-4.1,1.15-4.1,1.15l0.55,1.08
		c0,0,1.58-1.01,3.58-1.01c1.2,0,3.22,0.46,3.22,3.12v0.82c0,0-1.42-1.03-3.65-1.03c-2.14,0-4.34,1.3-4.34,3.7
		c0,2.42,2.14,3.7,3.98,3.7c2.69,0,4.13-2.18,4.13-2.18v1.9h1.13v-7.18C132.69,114.58,131.25,112.76,128.2,112.76 M109.75,113.05
		l5.47,11.42l5.47-11.42h-1.3l-4.15,8.81l-4.15-8.81H109.75z M102.14,123.05c-2.74,0-4.27-2.06-4.27-4.54s1.54-4.54,4.27-4.54
		s4.27,2.06,4.27,4.54S104.88,123.05,102.14,123.05 M102.14,112.76c-3.26,0-5.57,2.59-5.57,5.76s2.3,5.76,5.57,5.76
		s5.57-2.59,5.57-5.76S105.4,112.76,102.14,112.76 M88.48,112.76c-2.69,0-3.74,2.28-3.74,2.28v-1.99h-1.13v10.94h1.25v-7.56
		c0,0,0.96-2.45,3.38-2.45c1.78,0,3.1,0.96,3.1,3.22v6.79h1.25v-6.98C92.59,114.03,90.52,112.76,88.48,112.76 M74.59,112.76
		c-2.69,0-3.74,2.28-3.74,2.28v-1.99h-1.13v10.94h1.25v-7.56c0,0,0.96-2.45,3.38-2.45c1.78,0,3.1,0.96,3.1,3.22v6.79h1.25v-6.98
		C78.69,114.03,76.63,112.76,74.59,112.76 M62.85,123.99h1.25v-16.8h-1.25V123.99z"/>
	<path class="st0" d="M267.07,97.52l1.1,0.38l2.04-5.62l-1.15-0.41L267.07,97.52z M256.46,84.2h2.38v6.84c0,1.8,0.98,3.24,3.12,3.24
		c1.1,0,2.16-0.65,2.16-0.65l-0.48-1.08c0,0-0.77,0.5-1.63,0.5c-1.49,0-1.92-1.03-1.92-2.26v-6.6h3.72v-1.15h-3.72v-3.53h-1.25v3.53
		h-2.38V84.2z M249.67,79.49c0,0.53,0.43,0.96,0.96,0.96c0.53,0,0.96-0.43,0.96-0.96s-0.43-0.96-0.96-0.96
		C250.1,78.53,249.67,78.97,249.67,79.49 M245.32,79.49c0,0.53,0.43,0.96,0.96,0.96s0.96-0.43,0.96-0.96s-0.43-0.96-0.96-0.96
		S245.32,78.97,245.32,79.49 M247.63,93.05c-1.42,0-2.98-0.74-2.98-2.47c0-1.73,1.78-2.5,3.22-2.5c2.18,0,3.48,0.91,3.48,0.91v1.85
		C251.35,90.85,250.03,93.05,247.63,93.05 M248.11,82.76c-2.3,0-4.1,1.15-4.1,1.15l0.55,1.08c0,0,1.58-1.01,3.58-1.01
		c1.2,0,3.22,0.46,3.22,3.12v0.82c0,0-1.42-1.03-3.65-1.03c-2.14,0-4.34,1.3-4.34,3.7c0,2.42,2.14,3.7,3.98,3.7
		c2.69,0,4.13-2.18,4.13-2.18v1.9h1.13v-7.18C252.59,84.58,251.15,82.76,248.11,82.76 M232.39,84.2h2.38v6.84
		c0,1.8,0.98,3.24,3.12,3.24c1.1,0,2.16-0.65,2.16-0.65l-0.48-1.08c0,0-0.77,0.5-1.63,0.5c-1.49,0-1.92-1.03-1.92-2.26v-6.6h3.72
		v-1.15h-3.72v-3.53h-1.25v3.53h-2.38V84.2z M226.63,79.49c0,0.53,0.43,0.96,0.96,0.96s0.96-0.43,0.96-0.96s-0.43-0.96-0.96-0.96
		S226.63,78.97,226.63,79.49 M226.96,93.99h1.25V83.05h-1.25V93.99z M220.1,93.99h1.25V75.85h-1.2L220.1,93.99z M212.9,79.49
		c0,0.53,0.43,0.96,0.96,0.96s0.96-0.43,0.96-0.96s-0.43-0.96-0.96-0.96S212.9,78.97,212.9,79.49 M213.23,93.99h1.25V83.05h-1.25
		V93.99z M199.56,86.31c0,0,1.1-2.33,3.94-2.33c2.45,0,4.15,1.99,4.15,4.54s-1.7,4.54-4.15,4.54c-2.83,0-3.94-2.33-3.94-2.33V86.31z
		 M199.44,93.99v-1.85c0,0,1.18,2.14,4.06,2.14c3.05,0,5.45-2.35,5.45-5.76s-2.4-5.76-5.45-5.76c-2.5,0-3.67,1.58-3.96,2.02v-8.93
		h-1.22v18.14H199.44z M188.32,93.05c-2.74,0-4.27-2.06-4.27-4.54s1.54-4.54,4.27-4.54c2.74,0,4.27,2.06,4.27,4.54
		S191.06,93.05,188.32,93.05 M188.32,82.76c-3.26,0-5.57,2.59-5.57,5.76s2.3,5.76,5.57,5.76c3.26,0,5.57-2.59,5.57-5.76
		S191.59,82.76,188.32,82.76 M163.2,77.19v16.8h1.22v-14.3l6.38,10.1l6.36-10.13v14.33h1.25v-16.8h-1.18l-6.43,10.32l-6.43-10.32
		H163.2z M147.36,97.52l1.1,0.38l2.04-5.62l-1.15-0.41L147.36,97.52z M134.92,87.87c0.05-1.2,1.06-3.89,4.1-3.89
		c2.88,0,3.96,2.64,4.01,3.89H134.92z M139.03,82.76c-3.26,0-5.4,2.66-5.4,5.76c0,3.12,2.35,5.76,5.62,5.76
		c1.8,0,3.53-0.96,4.58-2.23l-0.84-0.86c-0.74,0.94-2.06,1.87-3.74,1.87c-2.9,0-4.27-2.38-4.37-4.03h9.43
		c0.02-0.26,0.02-0.29,0.02-0.5C144.33,85.16,141.93,82.76,139.03,82.76 M127.75,79.49c0,0.53,0.43,0.96,0.96,0.96
		s0.96-0.43,0.96-0.96s-0.43-0.96-0.96-0.96S127.75,78.97,127.75,79.49 M128.08,93.99h1.25V83.05h-1.25V93.99z M121.6,90.51
		c0,0-1.13,2.54-3.96,2.54c-2.45,0-4.13-1.99-4.13-4.54s1.68-4.54,4.13-4.54c2.83,0,3.96,2.54,3.96,2.54V90.51z M121.72,83.05v2.02
		c0,0-1.2-2.3-4.08-2.3c-3.02,0-5.42,2.35-5.42,5.76s2.4,5.76,5.42,5.76c2.42,0,3.6-1.61,3.96-2.11v2.14c0,2.45-1.3,4.27-4.1,4.27
		c-2.78,0-4.18-1.9-4.18-1.9l-0.84,0.89c0,0,1.8,2.23,5.02,2.23c3.19,0,5.35-2.11,5.35-5.54V83.05H121.72z M108.48,82.76
		c-2.26,0-3.19,2.06-3.19,2.06v-1.78h-1.13v10.94h1.25v-7.9c0,0,0.89-2.11,2.78-2.11c1.01,0,1.46,0.26,1.46,0.26l0.53-1.2
		C110.18,83.05,109.51,82.76,108.48,82.76 M90.76,87.87c0.05-1.2,1.06-3.89,4.1-3.89c2.88,0,3.96,2.64,4.01,3.89H90.76z
		 M94.87,82.76c-3.26,0-5.4,2.66-5.4,5.76c0,3.12,2.35,5.76,5.62,5.76c1.8,0,3.53-0.96,4.58-2.23l-0.84-0.86
		c-0.74,0.94-2.06,1.87-3.74,1.87c-2.9,0-4.27-2.38-4.37-4.03h9.43c0.02-0.26,0.02-0.29,0.02-0.5
		C100.17,85.16,97.77,82.76,94.87,82.76 M81.38,82.76c-2.69,0-3.74,2.28-3.74,2.28v-1.99h-1.13v10.94h1.25v-7.56
		c0,0,0.96-2.45,3.38-2.45c1.78,0,3.1,0.96,3.1,3.22v6.79h1.25v-6.98C85.48,84.03,83.42,82.76,81.38,82.76 M63.76,78.34h8.06v-1.15
		h-9.31v16.8h9.46v-1.15h-8.21v-6.89h7.49V84.8h-7.49V78.34z"/>
	<path class="st0" d="M302.11,67.52l1.1,0.38l2.04-5.62l-1.15-0.41L302.11,67.52z M291.5,54.2h2.38v6.84c0,1.8,0.98,3.24,3.12,3.24
		c1.1,0,2.16-0.65,2.16-0.65l-0.48-1.08c0,0-0.77,0.5-1.63,0.5c-1.49,0-1.92-1.03-1.92-2.26v-6.6h3.72v-1.15h-3.72v-3.53h-1.25v3.53
		h-2.38V54.2z M286,63.99h1.25V45.85h-1.2L286,63.99z M272.23,57.87c0.05-1.2,1.06-3.89,4.1-3.89c2.88,0,3.96,2.64,4.01,3.89H272.23
		z M276.33,52.76c-3.26,0-5.4,2.66-5.4,5.76c0,3.12,2.35,5.76,5.62,5.76c1.8,0,3.53-0.96,4.58-2.23l-0.84-0.86
		c-0.74,0.94-2.06,1.87-3.74,1.87c-2.9,0-4.27-2.38-4.37-4.03h9.43c0.02-0.26,0.02-0.29,0.02-0.5
		C281.63,55.16,279.23,52.76,276.33,52.76 M251.27,53.05l4.87,11.42l3.82-9.14l3.79,9.14l4.9-11.42h-1.3l-3.53,8.57l-3.46-8.57
		h-0.72l-3.48,8.57l-3.55-8.57H251.27z M241.05,56.09c0,0,0.84-2.11,2.9-2.11c1.66,0,2.66,0.96,2.66,3.19v6.82h1.25v-7.2
		c0-3.07-1.94-4.03-3.62-4.03c-2.42,0-3.43,1.99-3.5,2.14c-0.65-1.54-1.97-2.14-3.31-2.14c-2.45,0-3.41,2.14-3.41,2.14v-1.85h-1.13
		v10.94h1.25v-7.9c0,0,0.94-2.11,3-2.11c1.66,0,2.66,0.96,2.66,3.19v6.82h1.25V56.09z M226.36,57.56c0,3.26-1.39,5.5-4.73,5.5
		s-4.73-2.23-4.73-5.5V47.19h-1.25v10.49c0,3.91,2.14,6.6,5.98,6.6c3.84,0,5.98-2.69,5.98-6.6V47.19h-1.25V57.56z M199.82,67.52
		l1.1,0.38l2.04-5.62l-1.15-0.41L199.82,67.52z M187.87,53.05v1.15h6.72l-7.22,9.79h9.17v-1.15h-6.96l7.22-9.79H187.87z
		 M176.63,54.2h2.38v6.84c0,1.8,0.98,3.24,3.12,3.24c1.1,0,2.16-0.65,2.16-0.65l-0.48-1.08c0,0-0.77,0.5-1.63,0.5
		c-1.49,0-1.92-1.03-1.92-2.26v-6.6h3.72v-1.15h-3.72v-3.53h-1.25v3.53h-2.38V54.2z M167.9,64.28c2.69,0,3.74-2.23,3.74-2.23v1.94
		h1.13V53.05h-1.25v7.61c0,0-0.96,2.4-3.38,2.4c-1.82,0-3.1-0.96-3.1-3.22v-6.79h-1.25v6.98C163.8,63.01,165.81,64.28,167.9,64.28
		 M151.15,54.85v-9h-1.25v18.14h1.25v-7.56c0,0,0.96-2.45,3.38-2.45c1.78,0,3.1,0.96,3.1,3.22v6.79h1.25v-6.98
		c0-2.98-2.06-4.25-4.1-4.25C152.2,52.76,151.15,54.85,151.15,54.85 M141.28,63.05c-2.62,0-4.34-2.11-4.34-4.54
		c0-2.42,1.73-4.54,4.34-4.54c2.3,0,3.48,1.63,3.48,1.63l0.89-0.79c0,0-1.51-2.06-4.37-2.06c-3.26,0-5.64,2.59-5.64,5.76
		s2.38,5.76,5.64,5.76c2.98,0,4.49-2.23,4.49-2.23l-0.86-0.82C144.91,61.23,143.71,63.05,141.28,63.05 M123.6,61.95
		c0,0,1.44,2.33,4.68,2.33c2.06,0,4.15-1.06,4.15-3.14c0-1.97-1.63-2.69-3.67-3.14c-1.85-0.41-3.29-0.79-3.29-2.14
		c0-1.13,1.1-1.87,2.59-1.87c1.97,0,3.1,1.22,3.1,1.22l0.82-0.91c0,0-1.34-1.54-3.91-1.54c-2.4,0-3.86,1.54-3.86,3.1
		c0,1.82,1.49,2.74,3.89,3.26c1.7,0.38,3.05,0.77,3.05,2.02c0,1.44-1.66,1.92-2.86,1.92c-2.59,0-3.7-1.94-3.7-1.94L123.6,61.95z
		 M114.55,63.05c-1.42,0-2.98-0.74-2.98-2.47c0-1.73,1.78-2.5,3.22-2.5c2.18,0,3.48,0.91,3.48,0.91v1.85
		C118.27,60.85,116.95,63.05,114.55,63.05 M115.03,52.76c-2.3,0-4.1,1.15-4.1,1.15l0.55,1.08c0,0,1.58-1.01,3.58-1.01
		c1.2,0,3.22,0.46,3.22,3.12v0.82c0,0-1.42-1.03-3.65-1.03c-2.14,0-4.34,1.3-4.34,3.7c0,2.42,2.14,3.7,3.98,3.7
		c2.69,0,4.13-2.18,4.13-2.18v1.9h1.13v-7.18C119.52,54.58,118.08,52.76,115.03,52.76 M99.14,56.09c0,0,0.84-2.11,2.9-2.11
		c1.66,0,2.66,0.96,2.66,3.19v6.82h1.25v-7.2c0-3.07-1.94-4.03-3.62-4.03c-2.43,0-3.43,1.99-3.51,2.14
		c-0.65-1.54-1.97-2.14-3.31-2.14c-2.45,0-3.41,2.14-3.41,2.14v-1.85h-1.13v10.94h1.25v-7.9c0,0,0.94-2.11,3-2.11
		c1.65,0,2.66,0.96,2.66,3.19v6.82h1.25V56.09z M84.16,49.49c0,0.53,0.43,0.96,0.96,0.96s0.96-0.43,0.96-0.96s-0.43-0.96-0.96-0.96
		S84.16,48.97,84.16,49.49 M84.5,63.99h1.25V53.05H84.5V63.99z M77.64,63.99h1.25V45.85h-1.2L77.64,63.99z M63.76,47.19h-1.25v16.8
		h1.25v-8.23l8.5,8.23h1.8l-8.81-8.57l7.61-8.23h-1.63l-7.46,8.09V47.19z"/>
	<path class="st0" d="M273.88,22.61c-2.42,0-3.31,2.06-3.31,2.06s-0.7-2.06-3.46-2.06c-2.26,0-3.07,1.92-3.07,1.92V22.9h-1.87v11.09
		h2.02v-7.73c0,0,0.74-1.78,2.38-1.78c1.44,0,2.38,0.89,2.38,2.69v6.82h2.02v-7.73c0,0,0.72-1.78,2.38-1.78
		c1.44,0,2.38,0.89,2.38,2.69v6.82h2.02v-7.13C277.72,24.13,276.18,22.61,273.88,22.61 M252.38,34.28c2.4,0,3.41-1.99,3.41-1.99v1.7
		h1.87V22.9h-2.02v7.68c0,0-0.89,1.82-2.76,1.82c-1.49,0-2.66-0.82-2.66-2.71V22.9h-2.02v7.13
		C248.2,32.77,250.17,34.28,252.38,34.28 M240.95,19.35c0,0.74,0.62,1.37,1.37,1.37c0.74,0,1.37-0.62,1.37-1.37
		c0-0.74-0.62-1.37-1.37-1.37C241.58,17.98,240.95,18.61,240.95,19.35 M241.31,33.99h2.02V22.9h-2.02V33.99z M236.32,22.61
		c-2.11,0-3.1,1.99-3.1,1.99v-1.7h-1.87v11.09h2.02v-7.63c0,0,0.79-1.87,2.54-1.87c0.84,0,1.27,0.24,1.27,0.24l0.74-1.82
		C237.93,22.9,237.23,22.61,236.32,22.61 M218.68,27.49c0.14-1.15,1.13-3,3.53-3c2.23,0,3.36,1.75,3.43,3H218.68z M222.21,22.61
		c-3.34,0-5.54,2.59-5.54,5.83c0,3.29,2.42,5.83,5.78,5.83c2.93,0,4.61-2.18,4.61-2.18l-1.27-1.32c0,0-1.15,1.63-3.34,1.63
		c-2.09,0-3.7-1.56-3.82-3.24h8.95c0.02-0.26,0.02-0.43,0.02-0.65C227.61,24.94,225.31,22.61,222.21,22.61 M206.01,24.73h2.16v6.07
		c0,2.45,1.75,3.48,3.34,3.48c0.65,0,1.34-0.14,2.3-0.67l-0.74-1.66c0,0-0.65,0.46-1.27,0.46c-1.08,0-1.61-0.62-1.61-1.7v-5.98h3.46
		V22.9h-3.46v-3.38h-2.02v3.38h-2.16V24.73z M193.89,31.95c0,0,1.63,2.33,4.75,2.33c2.14,0,4.39-1.1,4.39-3.24
		c0-2.26-1.8-3.05-3.91-3.5c-1.82-0.38-2.69-0.84-2.69-1.68c0-0.72,0.7-1.42,2.11-1.42c1.68,0,2.78,1.22,2.78,1.22l1.32-1.37
		c0,0-1.49-1.68-4.1-1.68c-2.47,0-4.08,1.58-4.08,3.19c0,2.09,1.68,3.02,4.06,3.5c1.7,0.34,2.52,0.82,2.52,1.78
		c0,0.89-1.27,1.37-2.4,1.37c-2.18,0-3.36-1.8-3.36-1.8L193.89,31.95z M187.36,19.35c0,0.74,0.62,1.37,1.37,1.37
		s1.37-0.62,1.37-1.37c0-0.74-0.62-1.37-1.37-1.37S187.36,18.61,187.36,19.35 M187.72,33.99h2.02V22.9h-2.02V33.99z M178.67,22.61
		c-2.4,0-3.41,1.85-3.41,1.85V22.9h-1.87v11.09h2.02v-7.63c0,0,0.96-1.87,2.76-1.87c1.49,0,2.66,0.82,2.66,2.71v6.79h2.02v-7.13
		C182.85,24.13,180.88,22.61,178.67,22.61 M166.15,19.35c0,0.74,0.62,1.37,1.37,1.37c0.74,0,1.37-0.62,1.37-1.37
		c0-0.74-0.62-1.37-1.37-1.37C166.77,17.98,166.15,18.61,166.15,19.35 M166.51,33.99h2.02V22.9h-2.02V33.99z M157.8,22.61
		c-2.42,0-3.31,2.06-3.31,2.06s-0.7-2.06-3.46-2.06c-2.26,0-3.07,1.92-3.07,1.92V22.9h-1.87v11.09h2.02v-7.73
		c0,0,0.74-1.78,2.38-1.78c1.44,0,2.38,0.89,2.38,2.69v6.82h2.02v-7.73c0,0,0.72-1.78,2.38-1.78c1.44,0,2.38,0.89,2.38,2.69v6.82
		h2.02v-7.13C161.64,24.13,160.1,22.61,157.8,22.61 M133,31.95c0,0,1.63,2.33,4.75,2.33c2.14,0,4.39-1.1,4.39-3.24
		c0-2.26-1.8-3.05-3.91-3.5c-1.82-0.38-2.69-0.84-2.69-1.68c0-0.72,0.7-1.42,2.11-1.42c1.68,0,2.78,1.22,2.78,1.22l1.32-1.37
		c0,0-1.49-1.68-4.1-1.68c-2.47,0-4.08,1.58-4.08,3.19c0,2.09,1.68,3.02,4.06,3.5c1.7,0.34,2.52,0.82,2.52,1.78
		c0,0.89-1.27,1.37-2.4,1.37c-2.18,0-3.36-1.8-3.36-1.8L133,31.95z M121.05,27.49c0.14-1.15,1.13-3,3.53-3c2.23,0,3.36,1.75,3.43,3
		H121.05z M124.58,22.61c-3.34,0-5.54,2.59-5.54,5.83c0,3.29,2.42,5.83,5.78,5.83c2.93,0,4.61-2.18,4.61-2.18l-1.27-1.32
		c0,0-1.15,1.63-3.34,1.63c-2.09,0-3.7-1.56-3.82-3.24h8.95c0.02-0.26,0.02-0.43,0.02-0.65C129.98,24.94,127.68,22.61,124.58,22.61
		 M112.84,30.49c0,0-1.06,1.92-3.26,1.92c-2.26,0-3.67-1.78-3.67-3.96c0-2.18,1.46-3.96,3.67-3.96s3.26,1.92,3.26,1.92V30.49z
		 M109.27,22.61c-3,0-5.38,2.57-5.38,5.83s2.38,5.83,5.38,5.83c2.66,0,3.74-1.9,3.74-1.9v1.61h1.85V15.85h-2.02v8.42
		C112.84,24.27,111.72,22.61,109.27,22.61 M95.97,22.61c-2.4,0-3.41,1.85-3.41,1.85V22.9h-1.87v11.09h2.02v-7.63
		c0,0,0.96-1.87,2.76-1.87c1.49,0,2.66,0.82,2.66,2.71v6.79h2.02v-7.13C100.15,24.13,98.18,22.61,95.97,22.61 M80.9,34.28
		c2.4,0,3.41-1.99,3.41-1.99v1.7h1.87V22.9h-2.02v7.68c0,0-0.89,1.82-2.76,1.82c-1.49,0-2.66-0.82-2.66-2.71V22.9h-2.02v7.13
		C76.72,32.77,78.69,34.28,80.9,34.28 M64.22,24.44v-5.33h2.74c1.9,0,3.05,1.03,3.05,2.66c0,1.63-1.15,2.66-3.05,2.66H64.22z
		 M67.46,32.07h-3.24v-5.76h3.24c2.4,0,3.46,1.3,3.46,2.88S69.86,32.07,67.46,32.07 M62.2,33.99h5.26c3.31,0,5.47-1.87,5.47-4.8
		c0-3.34-2.57-4.08-2.81-4.13c0.24-0.05,1.9-1.01,1.9-3.29c0-2.81-1.94-4.58-5.4-4.58H62.2V33.99z"/>
</g>
<polygon class="st0" points="43.23,22.68 43.23,17.01 17.01,17.01 19.65,22.68 "/>
<polygon class="st0" points="24.94,34.02 43.23,34.02 43.23,28.35 22.29,28.35 "/>
</svg>
