<?xml version="1.0" encoding="UTF-8"?>
<svg id="Layer_2" data-name="Layer 2" xmlns="http://www.w3.org/2000/svg" viewBox="0 0 523 139.12">
  <defs>
    <style>
      .cls-1, .cls-2 {
        fill: #fff;
      }

      .cls-2 {
        fill-rule: evenodd;
      }
    </style>
  </defs>
  <g id="Layer_1-2" data-name="Layer 1">
    <g>
      <g>
        <path class="cls-2" d="M134.72,74.99c1.45-2.35,3.43-4.81,3.79-7.47-.14-.49-.49-1-1.24-1.43-1.45-.88-3.56-1.01-5.26-.62-8.84,1.97-12.68,12.11-8.16,19.99.51,1.03,1.14,1.93,1.83,2.74,3.2-4.3,6.26-8.85,9.04-13.21Z"/>
        <path class="cls-2" d="M126.4,96.3c-.25.29-.51.6-.76.89-.26.29-.56.52-.88.68-4.73,4.79-10.45,7.55-15.47,7.55-1.6,0-3.14-.28-4.54-.87-3.1-1.3-8.06-5.2-6.49-16.62.51-3.78,2.38-7.11,4.19-10.33,1.35-2.4,2.61-4.66,3.17-6.83.48-1.77.23-3.29-.71-4.46-1.04-1.29-2.77-1.96-4.74-1.85h-.28c-3.41,0-6.75,1.59-9.43,4.5-3.26,3.54-5.04,8.52-4.63,13.02.26,2.84.96,4.41,1.76,6.21.51,1.15,1.1,2.46,1.57,4.12.39,1.37-.34,2.82-1.68,3.33-1.34.5-2.84-.11-3.45-1.4-6.1-12.93-7.8-24.86-5.15-35.25-16.74,2.77-30.67.45-39.92-2.29-6.12-1.81-14.45-2.76-19.4.03-2.05,1.15-3.35,2.86-3.97,5.21-.29,1.1-.34,2.18-.14,3.11,1.51,7.04,16.06,5.17,25.69,3.93,3.45-.45,6.41-.83,8.68-.85,8.45-.07,19.39,3.31,23.5,10.91,1.71,3.18,2.83,8.34-1.58,14.92-.1.15-.22.3-.35.43-9.48,9.31-19.89,4.5-29.96-.16-12.82-5.93-24.98-11.55-39.34,4.78,3.61,14.54,11.57,24.08,21.42,29.51,21.72,12,91.79,20.3,117.54-12.2,5.05-6.37,8.89-12.89,11.71-19.41.01-.02.02-.03.03-.05-.05.02-.11.04-.16.05-8.52,2.84-18.21,3.74-26.24-.59Z"/>
        <path class="cls-2" d="M131.09,9.09C114.56.17,82.2-3.91,51.35,4.91,17.7,14.54,4.75,39.33,1.18,64.62c-1.49,10.59-1.52,19.8-.37,27.74,16.03-15.59,30.81-8.75,42.94-3.14,10.45,4.83,17.22,7.49,23.6,1.42,2.18-3.36,2.56-6.38,1.14-9.01-2.48-4.6-10.33-8.02-18.35-8.02h-.25c-1.94.02-4.77.38-8.02.8-12.33,1.59-29.2,3.77-31.77-8.22-.38-1.78-.31-3.74.2-5.66,1.01-3.81,3.23-6.69,6.58-8.58,8.12-4.57,20.16-1.55,23.66-.51,9.22,2.73,23.4,5.02,40.47,1.58,1.41-3.14,3.26-6.1,5.56-8.89,8.52-10.27,19.8-13.45,26.1-11.23,2.72.96,4.36,3.01,4.39,5.47.07,4.94-6.14,9.94-17.97,14.5-2.55.97-6.28,2.38-9.97,3.68-.27.2-.57.35-.91.44l-.14.04c-.39.1-.77.19-1.15.28-.68.24-1.36.46-2.01.67-1.28,3.71-1.87,7.66-1.77,11.85.91-1.64,2.01-3.19,3.3-4.59,3.72-4.05,8.5-6.26,13.47-6.26h.06c3.73-.18,7.08,1.23,9.23,3.89,2.04,2.54,2.68,5.93,1.74,9.32-.71,2.83-2.22,5.51-3.68,8.11-1.63,2.9-3.17,5.64-3.55,8.39-.45,3.35-.65,9.2,3.19,10.81,3.45,1.45,9.82-.66,15.01-6.59-10.91-11.12-6.84-30.86,10.02-33.79,5.73-.98,13.5,2.58,12.75,9.44-.6,3.83-3.04,7.11-4.92,9.89l-4.38,6.37c-1.62,2.35-3.35,4.64-5.15,6.87,3.19,1.57,6.93,2.14,10.59,1.99,4.65-.27,9.31-1.02,13.91-2.11.05-.02.09-.03.14-.04.03-.09.06-.19.1-.28,12.62-36.71-5.76-72.37-23.88-82.15Z"/>
        <path class="cls-2" d="M111.56,38.43c-.06-.07-.74-.58-2.51-.68-.2-.01-.41-.02-.62-.02-4.79,0-11.91,3-17.63,9.9-.9,1.09-1.73,2.21-2.48,3.36,3.28-1.17,6.51-2.4,8.78-3.27,12.22-4.7,14.52-8.52,14.46-9.29Z"/>
      </g>
      <path class="cls-1" d="M194.66,66.43c.31-.12.61-.23.91-.34l2.34-14.5c2.72.21,9.34-.76,11.62,1.7,1.73,1.1.77,5.52.5,8.03,7.82-2.15,15.03-3.37,21.87-3.75,4.48-10.87-.09-20.91-12.02-23.37-4.97-1.55-34.84-.56-40.48-.82l-7.86,44.97c7.82-3.72,14.65-8.56,23.13-11.91ZM221.92,62.12s0,.01-.01,0c-17.9,2.93-26.16,8.1-42.32,16.59-6.33,3.33-15.59,11.29-24.74,12.55-.46,1.16-2.06,5.23-2.21,5.62-.01,0-.01.02-.01.02,6.91-.65,12-3.41,16.67-6.38l-2.62,14.86h33.46c7.97-.02,15.98-1.44,22.22-5.63,11.97-7.71,12.53-28.31-3.87-32.25,4.58-1.1,10.27-2.21,15.5-2.68.26-1.27.56-2.84.92-4.07-4.37.1-8.66.57-13,1.37ZM206.96,84.08c-3.28,4.21-10.44,2.69-15.16,3l1.94-10.88s-.01,0-.02.01v-.02s7.83-.06,9.02.15c4.21.26,6.38,4.31,4.22,7.74ZM437.38,31.54h0c-18.82-.49-39.54,10.96-32.34,33.61,3.31,9.05,15.35,10.84,22.71,14.64,7.89,5.03-2.15,10.3-8.57,7.94-4.52-.86-9.54-4.29-13.44-7.33-2.51,6.99-6.8,12.96-12.49,17.52,8.64,5.85,19.18,9.66,29.59,9.39,17.56,1.03,38.24-13.56,30.87-32.95-3.43-9.08-14.11-11.91-22.37-15.34-1.42-.59-2.62-1.66-3.21-3.09-1.77-4.27,1.62-6.24,9.01-5.73,0,0,40.45.99,40.45.99l-9.6,54.26h23.97l9.57-54.27,17.73.11,3.76-19.64s-76.83-.31-85.62-.12ZM353.73,115.4c-23.1,2.09-35.92-1.14-50.86-19.78.74-.68,1.44-1.42,2.11-2.17,0,0,0,0,0,0,9.79-10.83,13.33-28.27,8.18-42.01-5.19-13.62-18.88-19.69-33.36-19.47-24.53-.5-43.93,18.44-43.6,42.79-.23,13.65,7.19,25.85,20.33,30.26,11.9,4.18,28.19,2.94,38.95-3.83l-14.7-16.8c-18.18,7.11-25.91-11.59-15.49-25.04,4.07-5.29,11.96-7.63,18.2-5.07,9.82,3.88,8.96,17.3,3.66,24.62-6.44-5.03-14.15-9.03-21.64-11.56-.1-.05-.2-.08-.31-.11-.16,1.04-.28,2.03-.36,3.12,12.68,4.23,20.6,15.07,29.13,24.66,8.43,10.94,16.63,21.62,32.28,23.86,8.68,1.52,20.24.75,27.84-3.17.07-.14-.07-.23-.39-.29ZM398.78,64.62c.26-29.45-29.69-38.51-53.59-29.3-20.27,7.71-30.81,32.57-23.37,52.62,5.16,13.57,18.85,19.69,33.26,19.47,24.52.52,44.1-18.3,43.7-42.79ZM373.13,73.64c-2.7,9.04-12.67,14.85-21.65,11.26-7.68-2.91-8.9-12.31-6.34-19.27,6.94-20.19,35.7-14.45,27.98,8.01Z"/>
    </g>
  </g>
</svg>