<?xml version="1.0" encoding="UTF-8"?>
<svg id="Layer_1" xmlns="http://www.w3.org/2000/svg" version="1.1" viewBox="0 0 512 512">
  <!-- Generator: Adobe Illustrator 30.1.0, SVG Export Plug-In . SVG Version: 2.1.1 Build 136)  -->
  <defs>
    <style>
      .st0 {
        fill: #69a9a9
      }

      .st1 {
        fill: #fff;
      }
    </style>
  </defs>
  <path class="st0" d="M152.4,125.2c33.2-19.3,98.3-28.1,160.3-9,67.7,20.8,93.7,74.5,100.9,129.2,9.9,75.7-12.4,118.9-44.9,138.2-43.7,26-184.6,43.9-236.4-26.4-70.3-95.4-24.7-206,20-232Z"/>
  <path class="st1" d="M242.8,193.9c-14.4,4.4-23.6,16.9-25.5,32,4,.7,12.8,2.4,16.8,2.1,3.9-.9,3.8-11.4,10.4-15.5,10.9-8.3,30.1-3,28.9,13.2.7,14-12.7,18.1-25.2,17.7v14.4c9.3.2,16.4.6,22.5,5.2,11.3,12.2,1.7,33.2-15.8,32.2-14.2.2-17.8-10.2-23.7-20.2-4.4-.2-12.9,4.5-17.2,6,4.2,13.5,11.8,25.1,25.7,29.2,18.3,5.5,43.9.5,52.5-18.6,7.8-16.9,2.1-37.9-17.8-42.9,16.7-4.1,22.7-23.6,16.2-38.4-7.6-17.4-30.8-21.6-47.6-16.3Z"/>
</svg>