<?xml version="1.0" encoding="UTF-8"?>
<svg id="Layer_1" xmlns="http://www.w3.org/2000/svg" version="1.1" viewBox="0 0 512 512">
  <!-- Generator: Adobe Illustrator 30.1.0, SVG Export Plug-In . SVG Version: 2.1.1 Build 136)  -->
  <defs>
    <style>
      .st0 {
        fill: #69a9a9
      }

      .st1 {
        fill: #fff;
      }
    </style>
  </defs>
  <path class="st0" d="M152.4,125.2c33.2-19.3,98.3-28.1,160.3-9,67.7,20.8,93.7,74.5,100.9,129.2,9.9,75.7-12.4,118.9-44.9,138.2-43.7,26-184.6,43.9-236.4-26.4-70.3-95.4-24.7-206,20-232Z"/>
  <path class="st1" d="M228.4,310.8h65.2v-15.1h-21.2v-102.9h-16.5l-35.9,30.5,6.4,8.7c.4.6,1.1,1.1,2,1.6.9.5,1.9.7,3,.7s1.4-.1,2.2-.3c.7-.2,1.5-.6,2.2-1.2l16.9-14.2c-.2,2.9-.2,5.7-.2,8.4v68.7h-23.9v15.1Z"/>
</svg>