<?xml version="1.0" encoding="UTF-8"?>
<svg id="Layer_1" xmlns="http://www.w3.org/2000/svg" version="1.1" viewBox="0 0 512 512">
  <!-- Generator: Adobe Illustrator 30.1.0, SVG Export Plug-In . SVG Version: 2.1.1 Build 136)  -->
  <defs>
    <style>
      .st0 {
        fill: #69a9a9
      }

      .st1 {
        fill: #fff;
      }
    </style>
  </defs>
  <path class="st0" d="M152.4,125.2c33.2-19.3,98.3-28.1,160.3-9,67.7,20.8,93.7,74.5,100.9,129.2,9.9,75.7-12.4,118.9-44.9,138.2-43.7,26-184.6,43.9-236.4-26.4-70.3-95.4-24.7-206,20-232Z"/>
  <path class="st1" d="M244.6,193.9c-14.4,4.4-23.6,16.9-25.5,32,2.1.3,11.4,2.2,13.3,2.1,1.8,0,3.5.9,4.7,0,1.2-.9,2-3.8,2.6-5.8,2.8-11.1,15.1-16,25.5-12.4,10.2,3.3,11.7,16,8.9,25-3,10-10.2,17.5-17.6,25.2,0,0-35.8,35.8-35.8,35.8-4.3,3.7-3.6,10-3.6,15h80.8v-12.1c0-2,.9-5.1-.4-6.3-1.3-1.2-1.2-.3-3.4-.3h-44c0,0,22.2-24.8,22.2-24.8,8.7-9,17.7-18,21.7-30,9.9-32.8-19.3-52.7-49.4-43.4Z"/>
</svg>