<?xml version="1.0" encoding="UTF-8"?>
<svg width="96px" height="64px" viewBox="0 0 96 64" version="1.1" xmlns="http://www.w3.org/2000/svg" xmlns:xlink="http://www.w3.org/1999/xlink">
    <!-- Generator: Sketch 47 (45396) - http://www.bohemiancoding.com/sketch -->
    <title>Badge / xx_xx / pay_now / standard /pink</title>
    <desc>Created with Sketch.</desc>
    <defs>
        <rect id="path-1" x="0" y="0" width="96" height="64" rx="5"></rect>
    </defs>
    <g id="Badges" stroke="none" stroke-width="1" fill="none" fill-rule="evenodd">
        <g id="Logo" transform="translate(-25.000000, -122.000000)">
            <g id="Badge-/-xx_xx-/-pay_now-/-standard-/pink" transform="translate(25.000000, 122.000000)">
                <g id="BG-/-Radius-5">
                    <mask id="mask-2" fill="white">
                        <use xlink:href="#path-1"></use>
                    </mask>
                    <g id="BG"></g>
                    <g id="Color-/-Pink" mask="url(#mask-2)" fill-rule="evenodd" fill="#EB6F93">
                        <rect id="BG" x="0" y="0" width="96" height="64"></rect>
                    </g>
                </g>
                <g id="Logo-/-White-(Clean)-Copy" transform="translate(20.000000, 44.000000)" fill-rule="nonzero" fill="#FFFFFF">
                    <path d="M10.204415,0 L7.34922737,0 C7.34922737,2.33235294 6.27373068,4.46078431 4.40441501,5.8627451 L3.27770419,6.70392157 L7.65651214,12.6431373 L11.2543046,12.6431373 L7.22119205,7.1754902 C9.12891832,5.28921569 10.204415,2.74019608 10.204415,0 Z" id="Shape"></path>
                    <rect id="Rectangle-path" x="0" y="0" width="2.9192053" height="12.6431373"></rect>
                    <rect id="Rectangle-path" x="12.0993377" y="0" width="2.75275938" height="12.6431373"></rect>
                    <path d="M38.9995585,3.65784314 C37.9496689,3.65784314 36.9509934,3.97647059 36.2852097,4.88137255 L36.2852097,3.9 L33.6732892,3.9 L33.6732892,12.6431373 L36.3236203,12.6431373 L36.3236203,8.05490196 C36.3236203,6.72941176 37.2198675,6.07941176 38.2953642,6.07941176 C39.4476821,6.07941176 40.1134658,6.76764706 40.1134658,8.04215686 L40.1134658,12.6558824 L42.7381898,12.6558824 L42.7381898,7.08627451 C42.7381898,5.04705882 41.1121413,3.65784314 38.9995585,3.65784314 Z" id="Shape"></path>
                    <path d="M23.1743929,3.9 L23.1743929,4.46078431 C22.4317881,3.95098039 21.5355408,3.65784314 20.5624724,3.65784314 C18.001766,3.65784314 15.9275938,5.72254902 15.9275938,8.27156863 C15.9275938,10.8205882 18.001766,12.8852941 20.5624724,12.8852941 C21.5355408,12.8852941 22.4317881,12.5921569 23.1743929,12.0823529 L23.1743929,12.6431373 L25.799117,12.6431373 L25.799117,3.9 L23.1743929,3.9 Z M20.7801325,10.5147059 C19.4613687,10.5147059 18.3986755,9.50784314 18.3986755,8.27156863 C18.3986755,7.03529412 19.4613687,6.02843137 20.7801325,6.02843137 C22.0988962,6.02843137 23.1615894,7.03529412 23.1615894,8.27156863 C23.1615894,9.50784314 22.0988962,10.5147059 20.7801325,10.5147059 Z" id="Shape"></path>
                    <path d="M29.8706402,5.03431373 L29.8706402,3.9 L27.1818985,3.9 L27.1818985,12.6431373 L29.8834437,12.6431373 L29.8834437,8.56470588 C29.8834437,7.18823529 31.381457,6.44901961 32.418543,6.44901961 C32.4313466,6.44901961 32.4441501,6.44901961 32.4441501,6.44901961 L32.4441501,3.9 C31.381457,3.9 30.395585,4.35882353 29.8706402,5.03431373 Z" id="Shape"></path>
                    <path d="M50.9068433,3.9 L50.9068433,4.46078431 C50.1642384,3.95098039 49.2679912,3.65784314 48.2949227,3.65784314 C45.7342163,3.65784314 43.6600442,5.72254902 43.6600442,8.27156863 C43.6600442,10.8205882 45.7342163,12.8852941 48.2949227,12.8852941 C49.2679912,12.8852941 50.1642384,12.5921569 50.9068433,12.0823529 L50.9068433,12.6431373 L53.5315673,12.6431373 L53.5315673,3.9 L50.9068433,3.9 Z M48.5125828,10.5147059 C47.193819,10.5147059 46.1311258,9.50784314 46.1311258,8.27156863 C46.1311258,7.03529412 47.193819,6.02843137 48.5125828,6.02843137 C49.8313466,6.02843137 50.8940397,7.03529412 50.8940397,8.27156863 C50.9068433,9.50784314 49.8313466,10.5147059 48.5125828,10.5147059 Z" id="Shape"></path>
                    <path d="M56.3355408,9.54607843 C55.4264901,9.54607843 54.6838852,10.2852941 54.6838852,11.1901961 C54.6838852,12.095098 55.4264901,12.8343137 56.3355408,12.8343137 C57.2445916,12.8343137 57.9871965,12.095098 57.9871965,11.1901961 C57.9871965,10.272549 57.2445916,9.54607843 56.3355408,9.54607843 Z" id="Shape"></path>
                </g>
                <g id="Icons-/-Pay-now-/-White" transform="translate(36.000000, 5.000000)" fill-rule="nonzero" fill="#FFFFFF">
                    <path d="M8.55107133,24.745643 C9.22879411,25.4122308 9.24327745,26.4997109 8.58354713,27.1840838 L8.45110904,27.3230204 C7.79086355,27.998268 6.69897696,28.0148303 6.01224032,27.3537936 L2.17289107,23.5496526 C1.11590922,22.4883871 0.96410333,21.1806239 1.63678914,20.4896552 L1.77159366,20.3482759 C2.32598975,19.7776829 3.22970309,19.7174818 3.86016464,20.2135987 C4.15990129,20.4494647 4.59424066,20.3978748 4.83028878,20.0983694 C5.0663369,19.7988641 5.01470714,19.3648598 4.7149705,19.1289939 C3.5284497,18.1953079 1.82767241,18.3086056 0.775688111,19.39141 L0.64137931,19.5322797 C-0.604692328,20.8121626 -0.354282964,22.9693659 1.19683948,24.526743 L5.04656839,28.3410881 C6.28726435,29.5354532 8.24857838,29.5057029 9.44549924,28.2814411 L9.58132339,28.1390166 C10.7636633,26.9125293 10.7376475,24.9591305 9.52028002,23.7617644 C9.24837962,23.4943313 8.81099605,23.4977827 8.54335646,23.7694733 C8.27571687,24.0411639 8.27917094,24.47821 8.55107133,24.745643 Z" id="_Path_"></path>
                    <path d="M6.25316137,4.12242251 L7.82450265,17.0452935 C7.87051944,17.4237403 8.21485204,17.6932568 8.59359104,17.6472755 C8.97233003,17.6012942 9.24205468,17.2572273 9.19603789,16.8787806 L7.61982167,3.9158176 L7.60423898,3.83165712 C7.33535457,2.75694936 8.00377183,1.55185736 8.89431251,1.3621424 C9.39350944,1.25564667 9.9143927,1.35380329 10.3403167,1.63455315 C10.7662406,1.91530301 11.0615522,2.3551452 11.1600097,2.85541807 L13.8959914,14.5460946 C13.9828807,14.9173062 14.3544774,15.1478494 14.7259757,15.0610271 C15.097474,14.9742048 15.3281952,14.6028949 15.2413059,14.2316832 L12.5104951,2.56501656 C12.3457557,1.72569344 11.8361294,0.966647219 11.1011021,0.482150443 C10.3660749,-0.00234633227 9.46717414,-0.171737568 8.60603358,0.011973129 C6.93120471,0.368767697 5.83076908,2.33107221 6.25316137,4.12242251 Z" id="_Path_2"></path>
                    <path d="M20.6946385,19.3078691 L23.8016655,3.81712838 C24.1627527,2.14965462 23.171098,0.47551642 21.5243733,-0.0135244699 C19.6806639,-0.479631145 17.8331452,0.606305996 17.3518411,2.41523226 L13.9119445,14.2021345 C13.8051409,14.568122 14.01548,14.951328 14.3817501,15.0580493 C14.7480201,15.1647705 15.1315221,14.9545937 15.2383257,14.5886062 L18.6826501,2.78582845 C18.9740354,1.69145566 20.0755418,1.04401067 21.1583367,1.31739288 C22.0849843,1.59320379 22.6596154,2.56331151 22.4491321,3.5355291 L19.3399561,19.0365753 C19.2649826,19.4103719 19.5074605,19.774125 19.8815457,19.8490408 C20.2556309,19.9239565 20.6196649,19.6816657 20.6946385,19.3078691 Z" id="_Path_3"></path>
                    <path d="M12.8691892,34.2319444 C7.94394615,34.2319444 3.83027027,30.6191349 3.83027027,25.4851852 C3.83027027,25.1039553 3.52098374,24.7949074 3.13945946,24.7949074 C2.75793518,24.7949074 2.44864865,25.1039553 2.44864865,25.4851852 C2.44864865,31.4240861 7.21772847,35.6125 12.8691892,35.6125 C13.2507135,35.6125 13.56,35.3034521 13.56,34.9222222 C13.56,34.5409923 13.2507135,34.2319444 12.8691892,34.2319444 Z" id="Shape"></path>
                    <path d="M10.432735,22.1570433 C10.32527,22.5439013 10.0848456,22.8805626 9.75367873,23.1079117 L9.6059963,23.2062097 C8.81135162,23.7403174 7.73737824,23.5331466 7.20041193,22.7442176 L4.18000129,18.2494586 C3.35596459,16.9990586 3.46371228,15.6834862 4.25688098,15.1394828 L4.40481451,15.0410125 C5.42222949,14.4517291 6.28666557,14.8988169 7.17531296,16.1924852 L9.70102318,19.952309 C9.91366027,20.2688394 10.3428334,20.3531945 10.6596081,20.1407214 C10.9763829,19.9282484 11.0608031,19.4994065 10.848166,19.1828762 L8.31843628,15.4171354 C7.06906995,13.5982769 5.52101546,12.7976206 3.67452351,13.8698483 L3.48275305,13.9960245 C1.99799965,15.0142822 1.82065576,17.1796067 3.02954142,19.0139055 L6.05567438,23.5172081 C7.02249844,24.9377201 8.95163568,25.3098531 10.3747579,24.3533116 L10.5280578,24.2511977 C11.1349164,23.8346653 11.5696876,23.2258642 11.7640218,22.52629 C11.8660652,22.1589489 11.650769,21.7785015 11.2831443,21.6765369 C10.9155196,21.5745722 10.5347784,21.7897023 10.432735,22.1570433 Z" id="_Path_4"></path>
                    <path d="M15.0071132,24.4435349 C13.5716937,25.2448408 12.6792061,26.7536409 12.5683793,29.035991 C12.5498892,29.416773 12.8438232,29.7404353 13.2248991,29.7589111 C13.6059751,29.7773869 13.9298874,29.4836798 13.9483774,29.1028979 C14.048744,27.0359645 14.8525076,25.9201363 16.152515,25.4311596 C16.8482268,25.1694788 17.6046979,25.1172637 18.2711038,25.1881316 C18.3606758,25.197657 18.4201821,25.2065197 18.4442402,25.2110001 C19.3337661,25.3766578 19.6045203,24.055905 18.7214531,23.8587418 L13.4090206,22.6726307 C10.9225036,21.9922109 10.5472361,21.0725283 11.0076227,19.5390906 C11.2064187,18.8709365 11.6147718,18.5279857 12.2306776,18.3911484 C12.6373189,18.3008039 13.0941226,18.3120377 13.5282841,18.3880614 C13.6538003,18.4100398 13.7420731,18.4309287 13.7811352,18.4421428 L21.8451208,20.3240568 C21.8985237,20.3343305 21.9361525,20.3447578 22.0020154,20.3745802 C22.1354002,20.4349766 22.2742678,20.5320118 22.4097247,20.6766401 C22.9502905,21.2538059 23.2485509,22.3425546 23.09758,24.130866 C22.571614,30.4000463 19.6483005,34.2928359 12.7195863,34.2319711 C12.3380768,34.2286198 12.0260833,34.5349389 12.0227294,34.9161541 C12.0193755,35.2973692 12.3259312,35.609122 12.7074407,35.6124733 C20.4944029,35.6808773 23.8949457,31.1525921 24.474342,24.2465542 C24.6558214,22.0968603 24.2521788,20.6234324 23.4184922,19.7332994 C22.9588119,19.2424956 22.4737204,19.0228476 22.1015974,18.9687623 L14.1289333,17.1064988 C14.0788208,17.0911991 13.9434651,17.0591685 13.7667652,17.0282275 C13.169132,16.9235791 12.5401983,16.9081123 11.9308051,17.0435027 C10.8493625,17.2837695 10.0333579,17.9690819 9.68377867,19.1440321 C9.0191343,21.3577965 9.72889785,23.0972418 13.0761134,24.0121147 L15.0071132,24.4435349 Z" id="Shape"></path>
                </g>
            </g>
        </g>
    </g>
</svg>