<?xml version="1.0" encoding="utf-8"?>
<!-- Generator: Adobe Illustrator 24.3.0, SVG Export Plug-In . SVG Version: 6.00 Build 0)  -->
<svg version="1.1" id="Layer_1" xmlns="http://www.w3.org/2000/svg" xmlns:xlink="http://www.w3.org/1999/xlink" x="0px" y="0px"
	 viewBox="0 0 198.7 574.6" style="enable-background:new 0 0 198.7 574.6;" xml:space="preserve" preserveAspectRatio="none">
<style type="text/css">
	.st0{fill-rule:evenodd;clip-rule:evenodd;fill:#FFFFFF;}
	.st1{fill:none;stroke:#A7CBC4;stroke-width:2;stroke-miterlimit:8;stroke-dasharray:8,4;}
</style>
<path class="st0" d="M194.1,545.1c0.5-13.9,2-76.7,3.3-143.1c1.8-99.7-3.3-325-3.3-344.9c0.2-53.1,4-55-36-56S47,9,18.1,9.1
	s-11,138.4-6,186c4.9,47-10,183-10,260c0,95-11.3,108.1,40,114c44.8,5.2,67.9,5.8,97.6,2.5C183,566.8,193.4,561.7,194.1,545.1z"/>
<path id="_---" class="st1" d="M1.6,47.4c0.6,11.9-0.3,68.7,0,138c0.5,103.9,2.7,158.4,6,252c2.3,63.8-6.9,116.5,28,116
	s82.8,7.2,108,6s38.4,3.2,42-46c3.6-49.2-3.2-300.7,1.4-380.9c4.5-80.2-5.9-111.2-11-121.3C170.9,1,125.3,6,59.6,1.4
	C-6.7-3.3,1,34.7,1.6,47.4z"/>
</svg>
