<?xml version="1.0" encoding="utf-8"?>
<!-- Generator: Adobe Illustrator 25.1.0, SVG Export Plug-In . SVG Version: 6.00 Build 0)  -->
<svg version="1.1" id="Layer_1" xmlns="http://www.w3.org/2000/svg" xmlns:xlink="http://www.w3.org/1999/xlink" x="0px" y="0px"
	 viewBox="0 0 1931.2 402.3" style="enable-background:new 0 0 1931.2 402.3;" xml:space="preserve" preserveAspectRatio="none">
<style type="text/css">
	.st0{fill-rule:evenodd;clip-rule:evenodd;fill:#FFFFFF;}
	.st1{fill:none;stroke:#92CFC6;stroke-width:2;stroke-miterlimit:8;stroke-dasharray:8,4;}
</style>
<path class="st0" d="M1883.1,11.2c-38.9-1.5-214.5-5.7-400.4-9.1c-278.8-5.1-1269.2,9.3-1324.8,9.1C9.5,10.6,4.2,0,1.3,111.8
	s22.2,164.5,22.4,245.5S570.9,388,704,374.1c130.4-9.4,710.8,33.7,929.4,20.2c265.2-16.3,266.5,7.6,281.4-82.6
	c13.2-92.5,13.2-125.7,11.9-167.8C1937.9,36.9,1929.7,13,1883.1,11.2z"/>
<path id="_---" class="st1" d="M134.1,379.4c33.2-1.7,352.2,0.9,546.1,0c290.8-1.3,650.8-19.3,912.6-7.4
	c179.3,8.1,302.9,15.9,310-52c10.1-97,25.5-139.4,22-210s7.8-98.8-132-100C1654.9,8.9,756.5,19.8,532.1,7.2S65.6,1.9,30.8,24
	c-42.1,26.8-31.1,73.5-18,188C33.9,396.8,98.8,381.3,134.1,379.4z"/>
</svg>
