<?xml version="1.0" encoding="utf-8"?>
<!-- Generator: Adobe Illustrator 25.4.1, SVG Export Plug-In . SVG Version: 6.00 Build 0)  -->
<svg version="1.1" id="Layer_1" xmlns="http://www.w3.org/2000/svg" xmlns:xlink="http://www.w3.org/1999/xlink" x="0px" y="0px"
	 viewBox="0 0 421.6 249.9" style="enable-background:new 0 0 421.6 249.9;" xml:space="preserve" preserveAspectRatio="none">
<style type="text/css">
	.st0{fill-rule:evenodd;clip-rule:evenodd;fill:#F37064;}
</style>
<path id="bubble" class="st0" d="M408.3,160.7c-1.3,15.9-6.1,25-21.2,25.8c-23.8,3.7-47.9,6.1-72,7.2c-48.7,2.3-49.4,2.9-107.2,5.7
	c-22.1,1.1-44.8,4.3-66.8,5.5c-1.3,0.1-2.8,0.1-4.4,0.2c-10.2,10.9-15.9,22.8,3.9,44.7c-17.2-3.4-24.6-10.6-33.4-23.1
	c-8.9-11.2-8.2-14.7-12.3-19.9c-2.7,0-5.1,0.1-7.2,0.2c-42.5,2-63.6-3-63.6-3C9,201.2,10.2,191.3,7.4,175.1c-1.6-9.5-3-25.5-4-47.8
	C2.8,110.9,0,35.7,0,35.7c-0.7-15.2,13.1-22.5,29.8-25.5c0,0,33-6.4,122.9-8.4c71.5-1.6,116.6-2.6,171.8-0.9
	C349.3,1.7,398.1,5,398.1,5c18.2,1.7,23.4,4.3,23.5,19L408.3,160.7z"/>
</svg>
