<?xml version="1.0" encoding="utf-8"?>
<!-- Generator: Adobe Illustrator 25.3.1, SVG Export Plug-In . SVG Version: 6.00 Build 0)  -->
<svg version="1.1" id="Layer_1" xmlns="http://www.w3.org/2000/svg" xmlns:xlink="http://www.w3.org/1999/xlink" x="0px" y="0px"
	 viewBox="0 0 216.8 90.6" style="enable-background:new 0 0 216.8 90.6;" xml:space="preserve">
<style type="text/css">
	.st0{fill-rule:evenodd;clip-rule:evenodd;fill:#93CFC6;}
	.st1{fill:#FFFFFF;}
	.st2{fill:#615454;}
</style>
<path class="st0" d="M12.1,6c7.1-4.1,21.1-6,34.5-1.9C61.2,8.5,66.8,20,68.3,31.6c2.1,16.2-2.7,25.4-9.7,29.5
	c-9.3,5.6-39.6,9.5-50.8-5.6C-7.3,35.1,2.5,11.5,12.1,6z"/>
<path class="st1" d="M12.9,11.7c1.5-0.2,3-0.7,4.5-0.9c2.5-0.4,5.1-0.7,7.6-1.1c2-0.3,3.9-0.9,5.9-1.2c5.7-0.8,11.3-2.2,17-3.3
	C48.3,5.1,48.7,5,49.2,5c-0.1,0-0.1,0-0.2-0.1c-0.5-0.2-1-0.4-1.5-0.5c-3.3,0.7-6.8,1.4-7.5,1.5c-1,0.3-2.1,0.4-3.2,0.7
	c-2.1,0.5-4.3,0.9-6.4,1.3c-0.3,0.1-2,0.5-2.4,0.5c-1,0.1-2.6,0.6-3.5,0.7l-4.7,0.5l-1.1,0.1c-1.4,0.3-2.7,0.5-3.4,0.6
	c-3.1,0.4-6.2,0.9-9.2,1.4c-0.2,0.2-0.3,0.5-0.5,0.7c-0.1,0.1-0.1,0.2-0.2,0.3c0.3-0.1,0.6-0.1,0.9-0.2C8.6,12,10.8,11.9,12.9,11.7z
	 M23.6,8c0.8-0.1,2.5-0.4,3.9-0.6c0.1,0,0.3-0.1,0.4-0.1c1-0.2,1.7-0.3,1.7-0.3c0.1,0,0.1-0.1,0.2-0.1l9-1.5c0.3,0,1.3-0.4,1.6-0.3
	c0.6-0.4,2.9-0.8,5.2-1.3c-0.4-0.1-0.7-0.2-1.1-0.3c-0.1,0-0.2,0.1-0.2,0.1h-0.6c0-0.1,0-0.2,0-0.2c-0.2-0.1-0.4-0.1-0.7-0.1v0.5
	c-2.5,0.6-5.3,1.2-7.9,1.8C35,4.4,35,3.1,35,2c-0.3,0-0.6-0.1-0.9-0.1C34,2.4,34,3.1,33.9,3.7c0,0.6,0.1,1.2,0.1,1.9
	c-0.4,0.1-0.8,0.1-1.2,0.2c0.1-0.5,0.2-2,0.2-3.9c-0.3,0-0.5,0-0.8,0c0,1.4,0.1,2.7,0,3.7c0,0.2,0,0.3-0.1,0.4c-1,0.2-2,0.3-3.1,0.4
	c-0.1-1.5-0.3-2.9-0.4-4.4c-0.3,0-0.7,0-1,0.1c0.1,1.4,0.3,2.9,0.5,4.4c-0.6,0.2-1.3,0.2-2,0.5c-0.2-1-0.3-1.5-0.3-2.3V2.1
	c-0.3,0-0.6,0.1-0.9,0.1v2.4c0,0.7,0.2,1.4,0.3,2.2c-2.5,0.3-4.8,0.8-7.7,1l-0.1-4c-0.2,0.1-0.5,0.1-0.7,0.2c0,1,0.1,1.9,0.1,2.9
	c0,0.3,0,0.5-0.1,0.8c-0.2,0-0.7,0.4-0.8,0.4c-0.2-1.2-0.3-2.5-0.4-3.7c-0.3,0.1-0.5,0.2-0.8,0.3V5c0,0.6,0.4,3.1,0.4,3.1
	s-0.7,0.3-1.9,0.4c-0.5,0-0.7,0.1-1.4,0c0-0.7-0.1-1.3-0.1-1.9V6.3c-0.3,0.2-0.6,0.4-0.9,0.6v1.8c-0.4,0-0.8,0.1-1.4,0.2
	c0-0.3,0-0.6-0.1-0.8C9.2,8.2,9,8.4,8.9,8.5C8.4,9,7.8,9.6,7.3,10.3c3.5-0.6,6.9-1.2,9.3-1.4C16.6,8.8,22.1,8.1,23.6,8z M32.5,5.8
	c-0.1,0-0.2,0-0.3,0.1C32.2,5.8,32.3,5.8,32.5,5.8z M63.9,47.3c-1.8-1.1-4-1.8-6-2.6c-0.5-0.2-1.5-0.2-2.2-0.4
	c0-0.7,0.1-1.6,0.1-2.3V18.9c0-0.7-0.1-1.3-0.3-2.1c-0.1-0.6,0-1.7,0-2.6c0.1-1.7,0.2-3.5,0.4-5.2c0,0,0-0.2,0-0.4
	c-0.6-0.4-1.3-0.9-1.9-1.3c-0.1,0.4-0.1,0.7,0,0.9c0.7,0.9,0.5,1.9,0.5,2.9c-0.1,1.5,0,2.9,0,4.4c-0.1,2.1,0,4.2,0,6.4
	C54.2,24.2,54,26.6,54,29c0,4.5,0.2,8.9,0.3,13.4c0,0.6-0.2,1.5-0.2,2.3c-2.1,0.2-2.6,0.3-4.4,0.4c-0.2-1.6-1.4-2.4-1.4-2.5
	c-0.1-0.7-0.1-1.4-0.1-2.2c0.2-5.9-0.4-12.1-0.2-18c0-1.2,0.3-2.1,0.5-3.5c0.3-0.9,0.8-1.7,1.5-2.7c0.1-0.2,0-0.5-0.2-0.5
	c-3.6-0.7-6.7-1.4-10.2-2.1c-2.7,1.5-5.4,2.9-8.1,4.4c0.7,1.2,1.5,0.2,2-0.1c1.6-0.8,2.3-0.9,3.5-1.8c1-0.7,2.7-1.6,2.8-1.7
	c0.1,0,1.3,0.3,1.9,0.5c2.1,0.5,4.3,0.9,6.6,1.3c-0.5,0.6-0.5,0.8-0.8,1.1c-2.7-0.6-5-0.9-7.4-1.7c-1.1,0.7-2.5,1-3.6,1.8
	c-0.9,0.7-3.2,2.1-3.2,2.1l-0.2,0.1c-0.1,0.1-0.2,0.6-0.1,0.7v0.1c1-0.1,1.9-0.2,2.6-0.3c1.9-0.3,3.9-0.9,5.8-1.2
	c2.6-0.4,3.9-0.4,5.9-0.4c-0.1,0.7-0.2,1-0.3,1.4c-4.7,0.8-9.3,1.5-14,2.2c-0.4,1.2,0,20.2,0.5,23l3.3-0.5c-0.2-0.3-2.9-0.1-3-0.4
	c-0.1-0.3,0.5-0.5,0.5-0.8C33.9,36.9,34,31.6,34,25.5c0-0.2-0.1-1.5,0-1.8l1.1-0.2c0.1,0.2,0,0.5,0,0.7c-0.1,1.1,0,2.9,0,4
	c0,0.8,0.1,1.7,0.1,2.5c0,0.4,0.1,2.8,0,3.2c-0.1,1.9-0.1,1.7-0.1,3.6c0,2.4,0.3,2.5,0.5,4.8c0,0.3,0.2,0.8,0.6,0.9
	c0.1-1.8,0-1.8-0.2-2.5c-0.2-0.6,0-1.2-0.2-1.3c0.2-5.6,0-10.4,0.2-16.1c2.9-0.5,5.8-0.9,9-1.4c0,0.7,0.4,1.1,0.3,1.6
	c-0.2,1.8-0.2,2.5-0.2,4.4v3.8c-0.1,2.7,0.1,2.4-0.1,5.1c0,0.5,0.3,1.5,0.1,2.2c0,0.1,0,2.2-0.1,3.3c-1.5,0.5-5,1.6-4.9,1.6
	c2.5-0.1,3.4-0.4,6-0.6c0-0.4,0.1-0.8,0.1-1.3c0.1-3.5-0.4-6.4-0.2-9.9c0.2-3.2,0-9.8,0-10.2l0.9-0.2c0,0.6,0.4,14,0.1,19.3v2.3
	c0,0.1,0.7,0.2,0.8,0.3c0.3,0.4,0.3,0.9,0.5,1.4c-1,0.3-3.4,0.3-4.2,0.5c-1.4,0.2-3.1,0.4-4.5,0.5c-2.8,0.2-5.9,0.7-8.8,1
	c-0.6,0.1-1.2-0.1-1.9,0.1c0.5-1.5-0.4-1.9-0.5-1.9c0-0.1-0.3-2.1-0.3-2.9c0.1-2.7,0-5.4,0-8.1c0.1-3.3-0.1-6.7,0.1-10
	c0.1-1-0.3-1.3,0-2.6c0.3-0.1,1.1-1.4,1.1-1.4c-2.6-1.4-5.9-1.9-8.6-3.2c-0.1-0.1-1,0.3-1.5,0.6c-2,1.2-3.7,2.1-5.8,3.3
	c-0.1,0-0.1,0.1-0.2,0.1l0.1,0.7c0.2-0.1,0.4-0.2,0.6-0.3c1-0.5,2-0.9,3-1.4c1.1-0.6,3.5-1.9,3.6-2c0.2,0.1,5,1.6,7,2.2
	c-0.3,0.3-0.6,0.6-0.7,0.6c-0.2,0-2.4-0.4-3.9-0.9c-0.6-0.2-2.1-0.7-2.2-0.7c-0.1,0.1-1.9,1-2.4,1.3c-0.5,0.2-4.6,2.2-5.2,2.4
	c0.1,0.6,0.1,1.4,0.1,1.4c0,0.2,0.1,0.8,0.3,1.2c0.3,0.4,0.6,0.5,0.6,0.8c0,6.3,0.4,12.6,0.4,19c0,0.4,0.1,1.2,0.1,1.7
	c0.1,0,0.4,0.1,0.5,0.1c0.2-0.3,0.7-0.9,0.8-1.2c0.1-0.7-0.7-1.1-0.7-1.8V28.2l-0.1-2h1.1c0,2.1,0.2,4.3,0.2,6.3
	c0,2.5,0.3,5.1,0.2,7.6c0,1.7-0.2,3.5-0.3,5.2c0,0.5,0.1,0.5,0.1,1.1c0.3,0,2.1-0.1,2.1-0.1c0.3,0.1-1.4-0.8-1.1-0.7
	c-0.1-0.2-0.6-1.9-0.1-2.7c0.1-0.2,0-1.6,0-1.9c0-5-0.1-7.3-0.2-12.3c0-0.9,0-1.6,0.2-2.7c2.6-0.4,4.9-0.7,7.7-1.2
	c-0.1,1.1,0,2.1,0,3.1c0,3.9,0,7.8-0.1,11.6c0,2,0.1,3.4,0,5.4c-1.9,0.4-0.8-0.1-2.7,0.3c0,0.1-0.3,0.2-2.1,0.8
	c2.2-0.3,4.7-0.4,7-0.6c0.8-0.1,0.2,0,0.7,1.1c-0.1,0.3-0.4,0.6-0.4,0.7c-0.1,0-1.5,0.2-2.1,0.3c-2.5,0.4-4.3,0.4-6.8,0.7
	c-2.2,0.2-7.2,0.6-9.7,0.8c-0.3-8-0.3-15.6-0.1-23.2c0-0.8-0.1-1.4,0-2.2c0.2-0.3,1-0.9,1.3-1.4c0.1-0.2,0-0.6,0-0.6l-0.9-0.3H9
	c-2.1-0.5-4.2-1.1-6.3-1.7c-0.1,0-0.3-0.1-0.5-0.1c-0.1,0.3-0.2,0.6-0.3,0.9c2.4,0.6,5.4,1.1,7.8,1.8c0,0-1.1,0-1.2,0
	c-0.5,0.4-0.7,0.7-1.1,0.9c-1.9-0.6-3.9-1-5.8-1.6c-0.3,1-0.5,2-0.8,3c0.3,0,0.6-0.1,1-0.1c1.6-0.2,3.3-0.1,4.9-0.3
	c0.6-0.1,0.7,0,1,0.1c0,0.3,0.1,0.8-0.1,0.9c-0.1,0.1-0.9,0.2-1.3,0.3c-1.9,0.2-3.8,0.4-5.8,0.6c-0.1,0.5-0.2,1-0.2,1.5
	C2.1,27.3,4,27.1,5.8,27c0,1.9-0.1,3.2-0.1,4.5c0,1.6,0.1,1.7,0.1,3.1s-0.2,2.8-0.2,4.2v4c0,1.3,0,2.6-0.1,4C4.6,46.9,3.8,47,3,47
	c0.1,0.2,0.2,0.4,0.3,0.6c0.8-0.1,1.8-0.2,2.7-0.2c0.1-0.2,0.4-0.7,0.4-1c-0.1-6.2,0.1-12.1,0-18.2c0-0.3-0.3-1.2,0-1.5
	c0-0.1,0.7-0.1,0.8-0.1v12.1c0,2.7,0.2,5.5,0.4,8.2c0,0.7-0.2,1.4,0,2.3c-0.9,0.2-1.3,0-2.2,0.1c-0.5,0.1-0.9,0.1-1.3,0.2
	c0.2,0.4,0.4,0.8,0.6,1.2c0.7-0.1,1.3-0.1,2-0.2c2.1-0.2,4.2-0.2,6.3-0.4c1.8-0.1,3.6-0.4,5.4-0.6c1.2-0.1,2.4-0.3,3.6-0.4
	c4.4-0.6,8.7-0.7,13.1-1.2c1.6-0.2,3.2-0.3,4.9-0.4c2.2-0.1,4.3-0.4,6.5-0.8c3-0.5,4.6-0.8,7.6-1c0.6,0.1,1.2-0.1,1,0.3
	c-0.4,0.3-0.5,0.9-1.1,1c-0.8,0.2-1.5,0.2-2.4,0.3c-2.9,0.4-5.5,0.7-8.4,1c-1.6,0.2-3.3,0.2-4.9,0.4c-1.4,0.2-2.9,0.3-4.3,0.5
	c-1.3,0.2-2.5,0.3-3.8,0.4c-3.8,0.4-7.6,0.7-11.5,1.1c-2.9,0.3-5.8,0.5-8.7,0.7c-1.5,0.1-3.1,0.2-4.7,0.3c0.3,0.5,0.6,1,0.9,1.5
	c0.4,0,0.8-0.1,1.3-0.1c3.5-0.4,7-0.9,10.6-1c2.6-0.1,5.1-0.4,7.6-0.7c3.1-0.3,6.2-0.7,9.4-1c1.9-0.2,3.8-0.2,5.8-0.4
	c2.8-0.3,5.3-0.5,8.1-0.8c1.8-0.2,3.8-0.4,5.8-0.6c0,0.8-0.1,1.4-0.1,2c-1.3,0.9-3.3,0.7-4.7,0.8c-3.6,0.4-6.8,0.4-10.4,0.7
	c-3.6,0.3-7.2,0.6-10.8,1.1c-4.7,0.5-9.3,0.7-14,0.7c-1.6,0-3.1,0.4-4.7,0.6c-0.2,0-0.5,0.1-0.7,0.1c-0.7,0-1.5,0.1-2.2,0.1
	c0.2,0.3,0.4,0.5,0.6,0.8c0.1,0.2,0.3,0.4,0.4,0.6c2.1-0.1,4.3-0.2,6.4-0.3H15c2.5-0.2,5-0.5,7.5-0.7c2.6-0.2,5.1-0.3,7.7-0.4h0.4
	c2.4-0.2,4.9-0.5,7.3-0.7s4.8-0.2,7.2-0.4c1.9-0.1,3.8-0.5,5.7-0.7c1.1-0.1,2.2,0,3.6,0c-0.3,0.5-0.2,0.5-0.3,2.3v7.9
	c0.4-0.1,0.8-0.3,1.1-0.4c0-1.8-0.1-3.7-0.1-5.5c0-0.6,0.2-2.4,0.1-2.4c0-0.9,0.2-2.1,0.2-3.1c0.4,0.1,1.1,0.3,1.5,0.4
	c2.4,1,4.5,1.8,6.9,2.9c0.1,0.1,0.6,0.3,0.7,0.5c0.2-0.4,0.5-0.7,0.7-1.1c-0.3-0.1-0.9-0.6-1.3-0.8c-2.6-1.2-5.1-2.2-8-3.4
	c-0.1-1.1-0.2-1.1,0-2.2c3.4,1.4,7.1,3.2,10.2,4.7c0.1-0.1,0.1-0.3,0.2-0.4c0.1-0.2,0.1-0.3,0.2-0.4c-2.7-1.4-6-2.9-8.7-4.4
	c-0.2-0.1-1-0.4-1.2-0.7c-0.1-0.3,0.1-0.7,0.2-0.9c0.7-0.1,0.9-0.2,1-0.1c0.2,0.1,0.8,0.3,0.9,0.4c3,1.3,5.6,2.8,8.3,4.3
	c0-0.1,0.1-0.2,0.1-0.3c0.1-0.2,0.2-0.7,0.3-0.9C66.2,48.7,65,48,63.9,47.3z M14.7,24.7c0,0-0.1,0.1-0.2,0.1
	c-0.3-0.9-0.1-1.2-0.2-1.6c0.9-0.2,1.7-0.3,2.6-0.5c2.5-0.4,4.9-0.7,7.4-1c0.5-0.1,2.4-0.2,3.1-0.2c0.1,0,0,0.7,0.1,1.4
	C23.1,23.6,14.7,24.7,14.7,24.7z M27.4,44.6h-1c-0.1-0.3-0.2-0.6-0.2-0.9c0.1-6.1,0.1-11.7,0.2-17.8c0-0.5-0.1-1.4-0.1-1.4
	s1,0,1.5-0.1C27.6,31.3,27.5,37.6,27.4,44.6z M59.6,32.8c0,0.2-0.1,5.2-0.2,7.7c0,0.9,0.5,1.6,1.3,1.9l0.9,0.4l0.9,0.2
	c0.4,0,0.4-0.3,0.4-0.6v-1.3L63,25.3h0.8c0.2,0,0-0.4-0.3-0.5s-4-2-4-2v-1.3c0,0,3.9,2.1,4.2,2.3c0.4,0.2,0.6-0.8,0.6-0.8
	s-0.8-1.6-1.4-3.4c-0.2-0.5-0.9-2.1-0.9-2.1s-0.7,0.5-1.1,0.7c-0.2,0.2-1,0.8-1,0.8s-0.2-0.2-0.4-0.2c-0.3,0-0.4,0.6-0.4,0.6
	s0,0.6,0.1,0.6c0.3,0,0.8,0,1.2-0.3s1.4-1,1.4-1s0.4,0.8,0.4,0.9c0,0.2,0.7,2,0.9,2.4s0.5,0.8,0.5,0.8s-3.1-1.8-3.4-2
	c-0.4-0.2-0.6-0.3-0.8-0.2c-0.2,0-0.4,0.5-0.4,0.5v2.3l0.6,0.4V32.8z M60.6,24.2l0.5,0.2c0.6,0.4,1.1,1,1,1.8L62,41.8l-0.2-0.1
	c-0.7-0.3-1.2-1-1.2-1.8V24.2z M9.7,16c0.8-0.9,1-1.3,1.7-2.1c0.6-0.1,1.9-0.2,2.9-0.4c0.4,0.6,0.7,1.2,1.1,1.8
	c0.5-0.7,0.9-1.6,1.5-2.3c3.8,0.1,6-1.1,9.2-1.4c0.4,0.6,0.8,1.3,1.3,2.1c0.5-0.8,1.5-2.6,1.6-2.7c0.1,0,1.1-0.1,2.2-0.5
	c0.5,0.9,0.6,1.4,1.3,2.3c0.8-1.1,1.6-2,2.1-2.8c3.8-0.4,6.5-1,9.6-1.4c0.4,0.5,0.7,0.9,1.1,1.4c1.3-0.9,2.1-2.2,2.2-2.3
	c0.2,0,3.5-0.6,5.6-0.9c-0.4-0.2-0.9-0.5-1.3-0.7C50,6.4,48.7,6.7,46.7,7c-2.5,0.4-6,1.1-8.7,1.6c-0.9,0.2-1.8,0.3-2.4,0.3
	c-2.6,0-4,0.7-6.6,1.2c-2.9,0.5-6,1.1-9.1,1.6c-2.2,0.4-4.3,0.7-6.5,1.1c-1.9,0.3-3.8,0.7-5.6,1c-1,0.2-2.1,0.4-3.1,0.5l-0.1,0.1
	v0.1c-0.1,0.1-0.1,0.2-0.1,0.3S4.4,15,4.3,15.1c1.4-0.1,2.9-0.4,4.3-0.7C8.9,14.9,9.1,15.3,9.7,16z M59.7,55.8c0,0-0.8,0.8-0.3,1.2
	c0,1.2,0,2.5-0.1,3.7c0.4-0.2,0.7-0.5,1.1-0.8v-1.4l0.1-0.8v-0.1c0.5,0.2,1.5,0.3,1.5,0.3v0.6l0.1-0.1c0.1-0.1,0.1-0.1,0.2-0.2
	c0.2-0.2,0.3-0.3,0.4-0.4c0.1-0.1,0.2-0.2,0.3-0.3c0-0.1,0-0.3,0-0.3s-1.3-0.3-2.3-0.9C60.3,56.1,59.7,55.8,59.7,55.8z M44.8,56.3
	V56l-9.6,0.7L35.1,66h0.8l0.2-8.3l7.7-0.8c-0.1,0.6,0,2.9,0.1,4c0,0.4,0.1,2.3,0.2,4.5c0.3,0,0.6-0.1,0.9-0.1
	c-0.1-2.2-0.1-4.1-0.1-4.5C44.8,59.6,44.8,56.3,44.8,56.3z M27.1,58.4v-0.5c-0.1-0.3-0.4-0.8-3.6-0.3c-0.6,0.1-1.6,0.1-2,0.2
	c-0.8,0.1-1.8,0.1-2.7,0c0-0.2,0-0.4,0-0.4l-0.5,0.1v0.3c-0.2,0-0.3,0-0.3,0v0.5c0,0,0.1,0,0.3,0c0,1.1,0.1,3,0.1,4.9
	c0.3,0.1,0.5,0.2,0.8,0.3c-0.1-1.8-0.2-3.7-0.2-4.8c0.9,0,2.1,0.1,2.9,0c0.4-0.1,1,0.1,1.6,0c1-0.2,2-0.3,2.5-0.2c0,0,0,0.3,0,0.4
	c0,0.2,0.2,1,0.3,1.6c0,0.4,0.1,2.4,0.1,4.9c0.3,0,0.5,0.1,0.8,0.1c0-3-0.1-5.6-0.1-6C27,58.9,27.1,58.6,27.1,58.4z"/>
<path class="st2" d="M87.6,57.1c0,0-4.8,2-6.5,2.3s-9.2,1.4-9.2,1.4L69,60.7c0,0,1.6-14.6,3-50.1c0.3-4.3-0.3-9.4-2.1-9.5
	c-1.4-0.1-2.3,0.4-2.8,1.3c2,24.6-1.2,41.1-1.6,47.9c-0.7,10.6-2.2,15.5-0.5,15.6l2.2,0.2c1.9-0.9,3.4-0.8,4.1-0.8l11-1.7
	c5.6,0.3,6.8-0.3,7.3-2.1C91,58.2,88.4,57.1,87.6,57.1z M109.1,39.2c-0.4-0.6-0.8-1.4-1.4-2.3c-0.6-0.9-1.2-1.8-2-2.6
	s-1.6-1.5-2.5-2c-0.9-0.6-2-0.8-3.1-0.8c-0.5,0-1,0.1-1.6,0.3c-0.5,0.3-1,0.5-1.5,0.8s-0.9,0.7-1.2,1.1c-0.3,0.4-0.4,0.9-0.4,1.4
	c-0.3,1.1-0.7,2.2-1,3.2c-0.4,1.1-0.8,2.2-1,3.2c-0.4,2-0.7,3.9-0.9,5.8c-0.2,1.8-0.2,3.7-0.1,5.4c0.1,1.8,1.9,9.7,2.2,10.6
	c0.3,0.9,0.8,1.7,1.4,2.4c0.6,0.6,1.5,0.9,2.6,0.9c0.1,0,0.2,0,0.2,0c2.1-0.3,3.9-1,5.4-2.1s2.7-2.4,3.6-4c0.9-1.5,1.6-3.3,2-5.1
	s0.7-3.7,0.7-5.6c0-1.9-0.1-3.7-0.3-5.6C110,42.3,109.6,40.7,109.1,39.2z M106.3,51.3c-0.2,1.3-1.4,6.3-1.8,7.3
	c-0.5,1-1.6,1.9-2.4,2.5c-0.7,0.6-1.6,1-2.7,1c-0.5-0.4-1-0.9-1.1-1.1c-0.1-0.4-0.9-3.1-0.9-3.5c-0.1-1-0.2-1.9-0.3-2.8
	c-0.1-0.8-0.3-1.7-0.3-2.6c-0.1-1.2-0.1-2.2-0.1-3.3c0-0.6,0-1.3,0-1.9c0-1.6,0-3.2,0.2-4.5c0.2-1.4,0.5-2.5,0.9-3.4
	s1.4-2.1,2.1-2.5h0.1c0.4-0.3,0.9-0.4,1.5-0.4c0.3,0,0.7,0,1,0.1l0,0l0,0c0.6,0,1,0.1,1.4,0.4c0.4,0.3,0.7,1.3,1,1.9
	c0.3,0.5,1.1,3.2,1.2,3.9s0.2,3,0.2,3c0,0.6,0.4,1.5,0.4,2.6C106.8,48.9,106.5,50.1,106.3,51.3z M160.2,50.1
	c-0.3-1.7-0.5-3.6-0.7-5.5s-0.3-4.2-0.3-6.8c0.5-2.5,0.4-4.3-0.5-5.4c-0.9-1.1-2.3-1.5-4.1-1.2c-1.2,0-2.5,0.6-3.7,1.6
	c-1.2,1.1-2.3,2.4-3.5,4.1c-1.1,1.6-2.1,3.5-3.1,5.5s-1.8,4-2.5,5.9s-1.2,3.7-1.7,5.4c-0.4,1.6-0.6,2.9-0.6,3.9c0.1,0.9,0.2,2,0.5,3
	c0.2,1.1,0.6,2,1.2,2.8c0.6,0.7,1.3,1.2,2.2,1.2s1.9-0.5,3.2-1.6c1.2-1,2.6-2.8,4.2-5.2c1.5-2.3,3.3-5.5,5.3-9.5
	c0.3,0.8,0.6,1.7,0.8,2.8c0.2,1.3,0.4,2.8,0.6,4.3c0.2,1.5,0.3,3,0.5,4.5c0.1,1.5,0.3,2.8,0.5,3.8c0,0.2,0.1,0.4,0.3,0.6
	c0.2,0.3,0.4,0.4,0.6,0.4c1,0,1.6-0.2,1.7-0.7c0.1-0.4,0.2-0.8,0.2-1.3c0-2.7-0.1-5-0.3-6.9C160.7,53.7,160.5,51.9,160.2,50.1z
	 M155.1,38.5c0,0.7-0.1,1.3-0.2,2c-0.1,0.7-0.3,1.4-0.5,2.1c-0.2,0.7-0.5,1.5-0.8,2.3c-0.4,0.8-1,1.9-1.7,3.2s-1.5,2.6-2.3,4
	s-1.6,2.7-2.4,3.9c-0.8,1.2-1.6,2.1-2.2,2.8c-0.6,0.6-1,0.8-1.4,0.6c-0.2-0.1-0.5-0.4-0.5-2.2c0.2-1,0.6-2.3,1.1-3.8
	c0.6-1.6,1.2-3.2,2-5c0.8-1.7,1.6-3.5,2.5-5.2s1.8-3.1,2.6-4.4c0.8-1.2,1.6-2,2.4-2.6c0.3-0.2,0.6-0.3,0.8-0.3
	c0.3,0,0.5,0.2,0.6,0.4C155.1,37.1,155.1,37.8,155.1,38.5z M188.8,10.5c-1.1-0.6-3,0.3-3.3,0.5c-0.2,0.1-0.2,0.5-0.2,0.7
	c0.7,6,0.5,12.2,0.3,18.2v1c-0.3,7.7-0.7,14.6-1.4,21c-0.4,3.7-0.8,7.3-1.6,10.8c0,0.1,0,0.2,0,0.3c0.1,1.6,1.4,2.8,3.1,2.8
	c0,0,0,0,0.1,0c1.1,0,1.7-0.2,1.9-0.5c0.3-0.4,0.3-1,0.3-1.6c0-0.2,0-0.4,0-0.5c0.3-3.6,0.5-7.4,0.7-10.9c0.1-1.1,0.1-2.1,0.2-3.2
	c0.5-8.9,1-19.3,1-29.5c0-1.3,0-2.6,0-3.9c0-0.4,0-0.8,0-1.2c0-0.9,0.1-1.8-0.1-2.7C189.5,11.1,189.2,10.7,188.8,10.5z M134.5,54.7
	c-0.7,0.8-1.6,1.7-2.5,2.7s-2.1,1.9-3.4,2.6c-1.2,0.7-2.6,0.9-4.5,0.9c-3.7-1.5-5.2-5-5-10.8c0.1-1.9,0.8-5.2,1.6-7.7
	c0.1-0.5,0.3-1,0.4-1.5c0.4-1.7,1-3.5,1.9-4.6c1.2-1.4,1.7-2.6,1.6-3.5c-0.1-0.5-0.3-1-0.8-1.3l0,0l0,0c-1.1,0-2.1,0.5-2.9,1.5
	s-1.6,2.3-2.2,3.8c-0.6,1.6-1.2,3.3-1.7,5.1s-0.8,3.6-1.1,5.3c-0.3,1.7-0.5,3.2-0.6,4.5s-0.2,2.2-0.2,2.6c0,1.1,0.1,2.3,0.4,3.5
	s0.7,2.3,1.3,3.3c0.6,1,1.4,1.9,2.4,2.5c1,0.7,2.1,1,3.5,1c1.7,0,3.4-0.2,5.1-0.7c1.7-0.5,3.2-1.2,4.5-2.1c1.3-0.9,2.5-2.1,3.3-3.4
	c0.9-1.4,1.3-3,1.3-4.8v-0.1h-0.1C136,53.5,135.3,53.9,134.5,54.7z M216.8,36.9c-0.1-0.6-0.4-0.9-0.8-1.1c-0.4-0.2-0.7-0.3-1.1-0.4
	c-0.1,0-0.2,0-0.4,0s-0.3,0-0.3,0H214l-5.6,23c-0.9-1.2-1.7-2.6-2.5-4.2c-0.8-1.8-1.6-3.6-2.3-5.5s-1.4-3.8-2-5.7s-1.3-3.6-1.9-5.2
	c-0.1-0.2-0.3-0.5-0.7-0.8s-0.7-0.4-0.9-0.5c-0.9-0.2-1.5,0-1.8,0.4s-0.5,0.8-0.6,1.4c0,0.2,0,0.4-0.1,0.7c0,0.4,0,0.5,0.1,0.6
	l10.9,26.6L202.2,84l-1.7,3.9c-0.1,0.4,0,0.8,0.2,1.1c0.4,0.7,1.3,1.3,2,1.4l1,0.2h0.1c0.3,0,0.5-0.2,0.6-0.4
	c0.2-0.7,0.5-1.8,0.8-3.1c0.4-1.6,2.5-9.4,3-11.6c0.6-2.2,1.1-4.3,1.6-6.3s0.9-3.8,1.3-5.4c0.4-1.6,0.7-2.8,0.9-3.6
	c0.3-1.2,0.6-2.9,1-4.9s0.9-4.2,1.3-6.4c0.5-2.2,0.9-4.4,1.3-6.5C216.3,40.2,216.6,38.4,216.8,36.9L216.8,36.9L216.8,36.9z
	 M174.7,15c0-0.4,0-0.8,0-1.2c0-0.9,0-1.9-0.2-2.7c-0.1-0.6-0.4-1-0.9-1.2c-1.2-0.5-3,0.5-3.3,0.7c-0.2,0.1-0.2,0.5-0.2,0.7
	c1,5.9,1,12.1,1.1,18.1v1c0.1,7.7-0.1,14.6-0.5,21c-0.2,3.7-0.5,7.3-1.2,10.9c0,0.1,0,0.2,0,0.3c0.1,1.5,1.5,2.7,3,2.7
	c0.1,0,0.1,0,0.2,0c1.1-0.1,1.7-0.3,1.9-0.6c0.2-0.4,0.2-1,0.2-1.6c0-0.2,0-0.4,0-0.5c0.2-3.6,0.2-7.4,0.2-10.9c0-1.1,0-2.1,0-3.2
	c0.1-8.9,0.2-19.3-0.2-29.5C174.8,17.6,174.7,16.3,174.7,15z M93.5,17.9c0.5-1.2,1-2.7,1.6-4.6c0.2,0.2,0.6,2.1,0.7,2.7
	c0.1,0.6,1,4.7,1.3,5.1s1.8,0.7,2.1,0.7c0.3,0,1-0.7,1.2-1.1s0.8-1.6,1.1-2.4c0.2-0.8,1.1-5.5,1.5-7.5v0.1c0.3-1.7,1.1-7.6,1.3-7.9
	c0-0.1,0.3-1.2,0.4-1.3c0-0.4,0.8-1-0.1-1.6c-0.7-0.4-1.9,0.5-1.9,0.5c-0.8,4.2-1.6,10.5-2,12.8c-0.5,2.2-0.5,3.7-1.5,5.1
	c-0.3,0.5-0.8-1.2-1.2-2.9c-0.4-1.6-0.9-4.3-1.6-8c-0.2,0-0.3,0-0.5,0s-0.3,0-0.5,0s-0.3,0-0.5,0s-0.3,0.1-0.3,0.2
	c-1,3.8-1.8,6.6-2.5,8.3c-0.7,1.8-1.4,3.5-1.9,3.4c-0.4-0.1-0.5-2-0.8-4c-0.3-1.7-0.4-7.4-0.5-11.1c-0.1-0.3-0.2-0.5-0.2-0.9
	c-0.1-0.3-0.2-0.7-0.4-1c-0.1-0.3-0.3-0.6-0.6-0.8c-0.2-0.2-0.5-0.3-0.8-0.3c-0.4,0-0.6,0.1-0.8,0.2c-0.2,0.1-0.4,0.4-0.6,0.8
	c0.5,0.8,0.9,1.5,1.1,2.3S87,9.3,87,10.1c0.1,0.8,0.1,1.6,0.1,2.5s0,1.8,0,2.7s0.1,1.9,0.3,3c0.1,1,0.4,2.1,0.8,3.2
	c0.4,0.7,1,1.2,1.6,1.2c0.2,0,0.8-0.1,1-0.1c0.2-0.1,1.2-1.3,1.6-2C92.7,20,93.1,19,93.5,17.9z M119.6,15.6c0.3-0.6,0.5-1,0.5-1.5
	c0-0.3-0.1-0.5-0.4-0.6s-0.5-0.1-0.7-0.1s-0.5,0.2-0.8,0.5c-0.3,0.4-0.6,0.7-1,1.2c-0.4,0.6-1.4,2.1-2,2.6s-1.2,1-1.9,1.3
	c-0.7,0.4-1.4,0.5-2.1,0.5s-1-0.2-1.3-0.5s-0.5-0.7-0.5-1.2c-0.1-0.5-0.1-1.4-0.1-1.6c0-0.2,0-1.8,0.1-2c0.2-0.1,4.8-2.6,5.4-3
	c0.7-0.4,1.4-0.8,2-1.2c0.6-0.4,1-0.9,1.4-1.3c0.3-0.3,0.5-0.6,0.3-0.8c0-0.5-0.1-1-0.4-1.5c-0.3-0.4-2.8-2-3.6-2
	c-0.9,0.1-1.7,0.1-2.4,0.4c-0.7,0.3-1.2,0.8-1.7,1.4s-1.9,3.2-2.2,4c-0.3,0.7-0.7,1.4-1,2.1c-0.4,0.6-0.8,1.2-1.3,1.6
	c-0.2,0.1-0.3,0.2-0.4,0.3s-0.1,0.2-0.1,0.3c0,0.3,0.1,0.5,0.3,0.6c0.2,0.1,0.4,0.2,0.7,0.2c0.3,0,0.5,0,0.7,0l0,0
	c0,0.7,0.4,4.4,1.9,5.5c0.6,0.4,1.3,0.8,2.3,0.8c0.5,0,1.1-0.1,1.8-0.4s1.4-0.4,2.7-1.3S119.2,16.2,119.6,15.6z M110.8,9.9
	c0.3-0.6,1.6-2.6,2.1-3c0.4-0.4,0.9-0.5,1.3-0.5c0.2,0,1.1,0.2,1.3,0.3c0.2,0.1,0.4,0.2,0.6,0.4c0.2,0.1,0.2,0.3,0.2,0.5
	c0,0.4-0.3,0.8-0.8,1.2s-1.1,0.8-1.7,1.2c-0.7,0.4-1.3,0.7-2,0.9s-1.2,0.6-1.6,0.6C110.2,11.1,110.5,10.4,110.8,9.9z M107.1,15.5
	L107.1,15.5C107,15.5,107,15.5,107.1,15.5z"/>
</svg>
