<?xml version="1.0" encoding="utf-8"?>
<!-- Generator: Adobe Illustrator 27.5.0, SVG Export Plug-In . SVG Version: 6.00 Build 0)  -->
<svg version="1.1" id="Layer_1" xmlns="http://www.w3.org/2000/svg" xmlns:xlink="http://www.w3.org/1999/xlink" x="0px" y="0px"
	 viewBox="0 0 148.7 140.1" style="enable-background:new 0 0 148.7 140.1;" xml:space="preserve">
<style type="text/css">
	.st0{fill:#DECA0A;}
	.st1{fill:#FFED08;}
	.st2{fill:#222;}
</style>
<path class="st0" d="M29,12.3c15.1-8.8,44.7-12.8,72.8-4.1c30.7,9.5,42.6,33.8,45.8,58.7c4.5,34.4-5.6,54-20.4,62.8
	c-19.8,11.8-83.8,20-107.4-12C-12.1,74.3,8.6,24.1,29,12.3z"/>
<path class="st1" d="M25.6,8.9C40.7,0.2,70.3-3.8,98.4,4.8c30.7,9.5,42.6,33.8,45.8,58.7c4.5,34.4-5.6,54-20.4,62.8
	c-19.8,11.8-83.8,20-107.4-12C-15.4,71,5.3,20.7,25.6,8.9z"/>
<g>
	<path class="st2" d="M19.6,55.1c1.1,0,2.3-0.1,3.6-0.2c1.3-0.1,2.1-0.2,2.4-0.2c0.3,0,0.6,0.1,0.7,0.2c0.2,0.1,0.3,0.3,0.3,0.5
		c0,0.9-0.9,1.7-2.7,2.2c-1.8,0.6-3.7,0.9-5.7,1c-0.8,2.6-1.2,4.2-1.2,4.9c0,0.4,0.2,0.5,0.5,0.5c2.4,0,4.9-0.3,7.5-1
		c0.9-0.2,1.4-0.4,1.5-0.4c0.4,0,0.6,0.3,0.6,0.9c0,0.8-0.6,1.5-1.7,2.2c-1.1,0.7-2.5,1.3-4.3,1.7c-1.7,0.4-3.4,0.6-5,0.6
		c-1,0-1.9-0.4-2.7-1.1c-0.8-0.7-1.2-1.6-1.2-2.6c0-1,0.5-3.5,1.6-7.5c1.1-4,1.7-7,1.7-9c0-0.1,0-0.2,0-0.4c0-0.3,0-0.5,0.1-0.7
		c0.2-0.6,0.9-1,2-1.1c1.1-0.2,3-0.2,5.8-0.2c4.6,0,6.9,0.5,6.9,1.5c0,0.7-0.6,1.1-1.7,1.4c-0.8,0.2-1.8,0.3-3.2,0.5
		c-2.1,0.2-3.9,0.6-5.5,1c0,1.5-0.3,3.1-0.8,5H19.6z"/>
	<path class="st2" d="M46.1,45c0.6,0,1.3,0.3,2.1,1c0.8,0.6,1.1,1.2,1.1,1.6c0,1.3-0.3,3.7-0.9,7c-0.6,3.3-1.4,6.5-2.4,9.5c-1,3-1.9,4.5-2.7,4.5
		c-0.3,0-0.7-0.2-1.2-0.5c-0.5-0.4-0.9-0.8-1-1.2c-0.2-0.5-0.5-1.5-1-3c-1.1-3.5-2.2-6.4-3.2-8.6c-0.1,0.6-0.3,1.5-0.6,2.7
		c-0.2,1.2-0.4,2.1-0.6,2.8c-0.1,0.7-0.3,1.5-0.5,2.4s-0.4,1.7-0.6,2.3c-0.2,0.6-0.3,1.1-0.5,1.7c-0.3,1-0.7,1.6-1,1.6
		c-0.4,0-1-0.4-1.7-1.2c-0.7-0.8-1-1.5-1-2c0-0.6,0.6-3.5,1.8-8.9s1.9-8.7,2-10.1c0.1-0.8,0.3-1.2,0.7-1.2c0.4,0,0.8,0.2,1.4,0.6
		c0.6,0.4,1.1,0.9,1.5,1.6s1.2,2.6,2.3,5.9c1.1,3.3,2,5.7,2.6,7.2c0.8-2.5,1.6-6.2,2.3-11.2c0.3-2,0.5-3.2,0.5-3.6
		C45.6,45.2,45.8,45,46.1,45z"/>
	<path class="st2" d="M57.5,55.1c1.1,0,2.3-0.1,3.6-0.2c1.3-0.1,2.1-0.2,2.4-0.2c0.3,0,0.6,0.1,0.7,0.2c0.2,0.1,0.3,0.3,0.3,0.5
		c0,0.9-0.9,1.7-2.7,2.2c-1.8,0.6-3.7,0.9-5.7,1C55.4,61.3,55,63,55,63.7c0,0.4,0.2,0.5,0.5,0.5c2.4,0,4.9-0.3,7.5-1
		c0.9-0.2,1.4-0.4,1.5-0.4c0.4,0,0.6,0.3,0.6,0.9c0,0.8-0.6,1.5-1.7,2.2c-1.1,0.7-2.5,1.3-4.3,1.7c-1.7,0.4-3.4,0.6-5,0.6
		c-1,0-1.9-0.4-2.7-1.1c-0.8-0.7-1.2-1.6-1.2-2.6c0-1,0.5-3.5,1.6-7.5c1.1-4,1.7-7,1.7-9c0-0.1,0-0.2,0-0.4c0-0.3,0-0.5,0.1-0.7
		c0.2-0.6,0.9-1,2-1.1c1.1-0.2,3-0.2,5.8-0.2c4.6,0,6.9,0.5,6.9,1.5c0,0.7-0.6,1.1-1.7,1.4c-0.8,0.2-1.8,0.3-3.2,0.5
		c-2.1,0.2-3.9,0.6-5.5,1c0,1.5-0.3,3.1-0.8,5H57.5z"/>
	<path class="st2" d="M85.3,67.4c0,0.9-0.6,1.3-1.8,1.3c-1.7,0-3.4-0.9-5.2-2.6c-1.8-1.7-3.1-3.5-3.9-5.4c-0.3,1-0.6,1.7-0.7,2.1
		s-0.3,0.9-0.6,1.7c-0.3,0.8-0.5,1.4-0.6,1.8c-0.1,0.4-0.3,0.8-0.5,1.2c-0.3,0.8-0.6,1.2-0.9,1.2c-0.5,0-1.1-0.4-1.8-1.2
		c-0.7-0.8-1-1.5-1-2c0-0.5,0.2-1.5,0.7-2.8c1.5-4.2,2.3-8.1,2.5-11.6c-0.4-0.3-0.8-0.8-1.1-1.3c-0.3-0.6-0.5-1.1-0.5-1.4
		c0-0.6,0.8-1.3,2.5-2c1.7-0.7,3.6-1.1,5.7-1.1s4,0.5,5.4,1.5s2.2,2.4,2.2,4c0,1.2-0.4,2.4-1.1,3.5c-0.7,1.1-1.5,2-2.3,2.6
		c-0.8,0.6-1.6,1.2-2.3,1.7c-0.7,0.5-1.1,0.8-1.1,1c0,0.5,0.2,1,0.5,1.5c0.3,0.5,0.8,1,1.4,1.6c0.6,0.6,1.2,1.1,1.6,1.5
		s0.8,0.8,1.1,1c0.3,0.3,0.6,0.6,0.8,0.9C85,66.6,85.3,67.1,85.3,67.4z M80.8,51c0-0.9-0.9-1.3-2.6-1.3c-0.8,0-1.8,0.2-3,0.7
		c0.5,0.8,0.8,1.6,0.8,2.2c0,1.2-0.2,2.6-0.5,4.1c0.2-0.2,0.7-0.5,1.3-0.9c0.6-0.4,1.1-0.8,1.5-1.1c0.4-0.3,0.8-0.6,1.2-1
		C80.4,52.9,80.8,52,80.8,51z"/>
	<path class="st2" d="M95.2,58.1c0-0.4,0.5-0.8,1.5-1.1c1-0.3,2.1-0.4,3.3-0.4c1.2,0,2.1,0.5,2.7,1.4s0.9,2,0.9,3.2c0,1.2-0.5,3.2-1.5,6.1
		c-1,2.9-1.9,4.3-2.6,4.3c-0.3,0-0.5-0.1-0.8-0.3s-0.3-0.4-0.3-0.7c0-1.5,0.4-3.7,1.3-6.6c-1,1.3-2.1,2.3-3.3,3.1
		c-1.2,0.8-2.4,1.2-3.6,1.2s-2.6-0.5-3.9-1.6s-2-2.3-2-3.6c0-2.3,0.7-4.9,2-7.7c1.4-2.8,3.1-5.2,5.2-7.2c2.1-2,4.1-3,5.9-3
		c0.6,0,1.3,0.5,2,1.5c0.7,1,1,1.9,1,2.8c0,0.4-0.1,0.6-0.4,0.6c0,0-0.2,0-0.6-0.1c-0.4-0.1-0.8-0.1-1.3-0.1c-1.4,0-2.9,0.7-4.4,2.2
		c-1.5,1.5-2.7,3.3-3.6,5.4c-0.9,2.1-1.4,4.1-1.4,6c0,0.6,0.4,0.8,1.1,0.8c1,0,2.2-0.4,3.7-1.3s2.6-1.9,3.4-3c-0.5,0-1,0-1.7,0
		s-1.3-0.2-1.8-0.6C95.5,59,95.2,58.6,95.2,58.1z"/>
	<path class="st2" d="M108.2,67.3c-0.7-0.9-1.1-1.5-1.1-1.9c0-0.4,0.5-3.4,1.6-8.9c1.1-5.5,1.6-8.9,1.6-10.2c0-0.7,0.4-1.1,1-1.1
		c0.5,0,1.2,0.5,2,1.5c0.9,1,1.3,2,1.3,2.9c0,0.4-0.3,1.8-0.9,4.3c-0.6,2.5-1,4.3-1.2,5.2c-0.2,1-0.4,1.9-0.5,2.7
		c-0.1,0.8-0.3,1.4-0.4,1.8c-0.6,2.7-1.1,4.3-1.4,4.7c-0.1,0.1-0.3,0.2-0.4,0.2C109.5,68.6,108.9,68.1,108.2,67.3z"/>
	<path class="st2" d="M123.3,55.1c1.1,0,2.3-0.1,3.6-0.2c1.3-0.1,2.1-0.2,2.4-0.2c0.3,0,0.6,0.1,0.7,0.2c0.2,0.1,0.3,0.3,0.3,0.5
		c0,0.9-0.9,1.7-2.7,2.2c-1.8,0.6-3.7,0.9-5.7,1c-0.8,2.6-1.2,4.2-1.2,4.9c0,0.4,0.2,0.5,0.5,0.5c2.4,0,4.9-0.3,7.5-1
		c0.9-0.2,1.4-0.4,1.5-0.4c0.4,0,0.6,0.3,0.6,0.9c0,0.8-0.6,1.5-1.7,2.2s-2.5,1.3-4.3,1.7c-1.7,0.4-3.4,0.6-5,0.6
		c-1,0-1.9-0.4-2.7-1.1c-0.8-0.7-1.2-1.6-1.2-2.6c0-1,0.5-3.5,1.6-7.5c1.1-4,1.7-7,1.7-9c0-0.1,0-0.2,0-0.4c0-0.3,0-0.5,0.1-0.7
		c0.2-0.6,0.9-1,2-1.1c1.1-0.2,3-0.2,5.8-0.2c4.6,0,6.9,0.5,6.9,1.5c0,0.7-0.6,1.1-1.7,1.4c-0.8,0.2-1.8,0.3-3.2,0.5
		c-2.1,0.2-3.9,0.6-5.5,1c0,1.5-0.3,3.1-0.8,5H123.3z"/>
	<path class="st2" d="M44.5,86.3c-2.1,0.1-3.2,0.2-3.4,0.2c-0.5,0-0.9-0.3-1.4-0.9S39,84.5,39,83.8c0-0.9,2.8-1.4,8.3-1.4c2.8,0,4.9,0.3,6.2,0.9
		s2,1.3,2,2.1c0,0.3-0.1,0.5-0.4,0.7c-0.3,0.2-0.7,0.3-1.1,0.3c-0.4,0-1.3,0-2.4-0.1c-1.2-0.1-2.3-0.1-3.2-0.1
		c0.1,0.2,0.1,0.5,0.1,0.8c0,0.3-0.1,0.9-0.3,1.8c-0.2,0.9-0.5,2.2-0.9,3.8c-0.4,1.6-0.9,3.6-1.3,5.9c-0.5,2.3-0.8,3.7-1,4.1
		c-0.2,0.4-0.4,0.7-0.5,0.7c-0.4,0-0.9-0.4-1.5-1.1c-0.6-0.7-0.9-1.3-0.9-1.8s0.4-2.4,1.2-5.8C43.9,91.2,44.3,88.5,44.5,86.3z"/>
	<path class="st2" d="M65,96.5c-1.3,0.8-2.6,1.1-4,1.1c-1.4,0-2.5-0.1-3.3-0.3c-0.2,0.5-0.3,1-0.3,1.6c0,0.5,0.1,0.9,0.3,1.1
		c0.2,0.2,0.6,0.3,1.3,0.3c1.5,0,2.7-0.1,3.7-0.4s1.6-0.4,1.6-0.4c0.8,0,1.2,0.3,1.2,0.8c0,0.8-0.6,1.5-1.9,2.1
		c-1.2,0.7-2.7,1-4.3,1s-2.9-0.5-3.9-1.5c-1-1-1.5-2.2-1.5-3.6c0-1.4,0.4-2.9,1.2-4.4c0.8-1.5,1.9-2.8,3.1-3.8
		c1.2-1,2.5-1.6,3.7-1.6c1.2,0,2.4,0.6,3.4,1.8c1,1.2,1.6,2.4,1.6,3.6C66.9,94.9,66.3,95.7,65,96.5z M63,92.6
		c-0.4-0.4-0.8-0.6-1.1-0.6c-0.4,0-0.8,0.3-1.4,0.8c-0.6,0.5-1.1,1.2-1.6,2c0.2,0,0.4,0,0.8,0c2.6,0,4-0.5,4-1.4
		C63.6,93.3,63.4,93,63,92.6z"/>
	<path class="st2" d="M71.4,88.5c0.7,0,1.3,0.4,1.8,1.2s0.8,1.5,0.8,2.2c0,0.4-0.3,1.7-1,4c-0.7,2.3-1.3,4.4-2,6.5c-0.2,0.8-0.7,1.1-1.4,1.1
		c-0.4,0-0.8-0.2-1.1-0.5c-0.3-0.3-0.5-0.7-0.5-1.2c0-0.5,0.2-1.8,0.7-3.8c0.5-2,0.9-3.8,1.1-5.2s0.5-2.5,0.7-3.2
		C70.8,88.8,71.1,88.5,71.4,88.5z M70.9,84.9c0-0.5,0.2-1,0.7-1.6c0.5-0.5,0.9-0.8,1.3-0.8s1,0.5,1.6,1.6c0.6,1,0.9,1.8,0.9,2.3
		s-0.2,0.8-0.5,1.1c-0.3,0.3-0.6,0.4-1,0.4c-0.6,0-1.2-0.4-1.9-1.1C71.3,86,70.9,85.4,70.9,84.9z"/>
	<path class="st2" d="M81.5,81.6c0.7,0.8,1.1,1.7,1.1,2.4s-0.1,2.2-0.3,4.1c-0.2,2-0.5,3.6-0.7,4.7c-1.6,7-2.7,10.5-3.4,10.5c-0.4,0-1-0.3-1.6-1
		c-0.6-0.7-0.9-1.3-0.9-1.7c0,0,0.3-1,0.8-3c0.5-2,1-4.5,1.6-7.6c0.5-3.1,0.8-6.1,0.8-8.9c0-0.6,0.3-0.8,0.9-0.8
		C80.2,80.4,80.8,80.8,81.5,81.6z"/>
	<path class="st2" d="M94.4,96.5c-1.3,0.8-2.6,1.1-4,1.1c-1.4,0-2.5-0.1-3.3-0.3c-0.2,0.5-0.3,1-0.3,1.6c0,0.5,0.1,0.9,0.3,1.1
		c0.2,0.2,0.6,0.3,1.3,0.3c1.5,0,2.7-0.1,3.7-0.4s1.6-0.4,1.6-0.4c0.8,0,1.2,0.3,1.2,0.8c0,0.8-0.6,1.5-1.9,2.1
		c-1.2,0.7-2.7,1-4.3,1s-2.9-0.5-3.9-1.5c-1-1-1.5-2.2-1.5-3.6c0-1.4,0.4-2.9,1.2-4.4c0.8-1.5,1.9-2.8,3.1-3.8
		c1.2-1,2.5-1.6,3.7-1.6s2.4,0.6,3.4,1.8c1,1.2,1.6,2.4,1.6,3.6C96.3,94.9,95.7,95.7,94.4,96.5z M92.4,92.6
		c-0.4-0.4-0.8-0.6-1.1-0.6c-0.4,0-0.8,0.3-1.4,0.8s-1.1,1.2-1.6,2c0.2,0,0.4,0,0.8,0c2.6,0,4-0.5,4-1.4C93,93.3,92.8,93,92.4,92.6z
		"/>
	<path class="st2" d="M99.1,93.4l-0.2-3.3c0-1.1,0.3-1.6,1-1.6c0.4,0,0.8,0.1,1.1,0.4s0.7,0.7,0.9,1.4c0.7-0.6,1.4-1,2.2-1.4
		c0.8-0.4,1.5-0.5,2.1-0.5c1.4,0,2.1,0.3,2.1,1c0,0.3-0.1,0.6-0.2,0.8s-0.2,0.3-0.3,0.4c-0.1,0.1-0.2,0.2-0.3,0.3
		c-0.2,0.1-0.3,0.2-0.4,0.3c-0.4,0.3-0.8,0.5-1,0.6c-0.9,0.5-1.6,1.2-2.2,2s-1.1,1.8-1.4,3.2c-0.5,2.2-1,3.9-1.5,5
		c-0.5,1.1-1,1.6-1.7,1.6s-1.1-0.3-1.4-0.9s-0.4-1.1-0.4-1.6c0-0.5,0.2-1.3,0.6-2.3c0.4-1,0.6-1.9,0.8-2.7
		C99,95.2,99.1,94.4,99.1,93.4z"/>
</g>
</svg>
