<?xml version="1.0" encoding="utf-8"?>
<!-- Generator: Adobe Illustrator 19.0.0, SVG Export Plug-In . SVG Version: 6.00 Build 0)  -->
<svg version="1.1" id="Layer_1" xmlns="http://www.w3.org/2000/svg" xmlns:xlink="http://www.w3.org/1999/xlink" x="0px" y="0px"
	 width="121.9px" height="65.1px" viewBox="-418 248.9 121.9 65.1" style="enable-background:new -418 248.9 121.9 65.1;"
	 xml:space="preserve">
<style type="text/css">
	.st0{fill:#93CFC6;}
	.st1{fill:#FFFFFF;}
	.st2{fill:#615454;}
</style>
<g>
	<path class="st0" d="M-410.6,257.6c4.4-2.5,12.9-3.7,21-1.2c8.9,2.7,12.3,9.7,13.2,16.8c1.3,9.9-1.6,15.5-5.9,18
		c-5.7,3.4-24.2,5.7-31-3.4C-422.4,275.4-416.5,261-410.6,257.6z"/>
	<path class="st1" d="M-403.6,258.9c0.5,0,1.5-0.2,2.4-0.4c0.1,0,0.2,0,0.3,0c0.6-0.1,1-0.2,1-0.2l0,0h0.1c1.8-0.4,3.6-0.7,5.4-1
		c0.2,0,0.8-0.2,1-0.2c0.4-0.2,1.8-0.5,3.3-0.8c-0.2-0.1-0.5-0.1-0.7-0.2c-0.1,0-0.1,0-0.2,0.1c-0.1,0-0.2,0-0.4,0
		c0-0.1,0-0.1,0-0.2c-0.1-0.1-0.2-0.1-0.4-0.1c0,0.1,0,0.2,0,0.3c-1.6,0.3-3.3,0.7-4.8,1.1c0-0.7-0.1-1.4-0.1-2.2
		c-0.2,0-0.4,0-0.6,0c0,0.4-0.1,0.8-0.1,1.1c0,0.4,0,0.7,0.1,1.1c-0.2,0-0.5,0.1-0.7,0.1c0.1-0.3,0.1-1.2,0.1-2.4
		c-0.2,0-0.3,0-0.5,0c0,0.8,0,1.6,0,2.3c0,0.3-0.2,0.2,0.2,0.2c-0.7,0.1-1.4,0.2-2.1,0.3c-0.1-0.9-0.2-1.8-0.3-2.7
		c-0.2,0-0.4,0-0.6,0c0.2,0.9,0.3,1.8,0.4,2.7c-0.4,0.1-0.8,0.1-1.2,0.3c-0.1-0.6-0.2-0.9-0.2-1.4s0-1,0-1.4c-0.2,0-0.4,0-0.6,0.1
		c0,0.5,0,1,0,1.5c0,0.4,0.1,0.9,0.2,1.4c-1.5,0.2-2.9,0.5-4.7,0.6v-2.5c-0.1,0-0.3,0.1-0.5,0.1c0,0.6,0,1.2,0,1.8
		c0,0.2,0,0.3-0.1,0.5c-0.1,0-0.4,0.2-0.5,0.2c0-0.8-0.1-1.6-0.2-2.3c-0.1,0-0.3,0.1-0.4,0.1c0,0.1,0,0.2,0,0.2
		c0,0.4,0.2,1.9,0.2,1.9s-0.4,0.2-1.2,0.2c-0.3,0-0.5,0-0.9,0c0-0.4-0.1-0.8-0.1-1.2c0-0.1,0-0.1,0-0.2c0,0.2-0.2,0.3-0.4,0.4v1.1
		c-0.2,0-0.5,0.1-0.9,0.1c0-0.2,0-0.3,0-0.5c-0.4,0.4-0.8,0.9-1.2,1.4c2.1-0.4,4.2-0.7,5.7-0.9
		C-407.9,259.4-404.5,258.9-403.6,258.9z M-382.8,281.9c0.1,0,0.5,0.2,0.5,0.2c1.8,0.8,3.4,1.7,5.1,2.6c0.1-0.2,0.1-0.4,0.2-0.7
		c-0.7-0.4-1.4-0.8-2.2-1.3c-1.1-0.7-2.4-1.1-3.6-1.6c-0.3-0.1-0.9-0.1-1.3-0.3c0-0.4,0.1-1,0.1-1.4c0-4.7,0-9.4,0-14.1
		c0-0.4-0.1-0.8-0.2-1.3c-0.1-0.3,0-1,0-1.6c0-1.1,0.1-2.1,0.2-3.2c0,0,0-0.1,0-0.3c-0.4-0.3-0.8-0.5-1.2-0.8c0,0.3-0.1,0.5,0,0.6
		c0.5,0.5,0.3,1.2,0.3,1.7c0,0.9,0,1.8,0,2.7c0,1.3,0,2.6,0,3.9c0,1.5-0.2,2.9-0.2,4.4c0,2.7,0.1,5.4,0.2,8.1c0,0.4-0.1,0.9-0.1,1.4
		l0,0c-1.3,0.1-1.6,0.2-2.7,0.3l0,0c-0.1-1-0.9-1.5-0.9-1.5c-0.1-0.4-0.1-0.9-0.1-1.3c0.1-3.6-0.2-7.4-0.1-11c0-0.7,0.2-1.3,0.3-2.1
		l0,0c0.2-0.5,0.5-1.1,0.9-1.7c0.1-0.1,0-0.3-0.1-0.3c-2.2-0.4-4.1-0.8-6.2-1.3l0,0c-1.6,0.9-3.3,1.8-4.9,2.7l0,0
		c0.4,0.7,0.9,0.1,1.2,0c1-0.5,1.4-0.6,2.2-1.1c0.6-0.4,1.6-1,1.7-1l0,0c0,0,0.8,0.2,1.2,0.3c1.3,0.3,2.6,0.5,4,0.8l0,0
		c-0.3,0.3-0.3,0.5-0.5,0.7l0,0c-1.7-0.4-3-0.6-4.5-1.1l0,0c-0.7,0.4-1.5,0.6-2.2,1.1c-0.5,0.4-1.9,1.3-1.9,1.3s0,0-0.1,0.1
		c-0.1,0.1-0.1,0.4-0.1,0.5v0.1c0.6-0.1,1.2-0.1,1.6-0.2c1.2-0.2,2.4-0.5,3.5-0.7c1.6-0.3,2.4-0.2,3.6-0.3l0,0
		c-0.1,0.4-0.2,0.6-0.2,0.9l0,0c-2.9,0.5-5.7,0.9-8.5,1.4l0,0c-0.2,0.7,0,12.3,0.3,14l0,0l2-0.3l0,0c-0.1-0.2-1.8-0.1-1.8-0.2
		c-0.1-0.2,0.3-0.3,0.3-0.5c-0.2-4-0.2-7.2-0.2-10.9c0-0.1,0-0.9,0-1.1l0,0l0.7-0.1l0,0c0,0.1,0,0.3,0,0.4c0,0.7,0,1.8,0,2.4
		c0,0.5,0.1,1,0.1,1.5c0,0.3,0,1.7,0,1.9c-0.1,1.1-0.1,1-0.1,2.2c0,1.5,0.2,1.5,0.3,3c0,0.2,0.1,0.5,0.4,0.5c0-1.1,0-1.1-0.1-1.5
		s0-0.7-0.1-0.8l0,0c0.1-3.4,0-6.4,0.1-9.8l0,0c1.7-0.3,3.5-0.5,5.5-0.9l0,0c0,0.4,0.2,0.6,0.2,1c-0.1,1.1-0.1,1.5-0.1,2.7
		c0,1,0,1.8,0,2.3c-0.1,1.7,0.1,1.5,0,3.1c0,0.3,0.2,0.9,0.1,1.3l0,0c0,0,0,1.3,0,2l0,0c-0.9,0.3-3.1,1-3,1c1.5-0.1,2-0.2,3.6-0.4
		l0,0c0-0.2,0.1-0.5,0.1-0.8c0.1-2.1-0.2-3.9-0.1-6c0.1-1.9,0-6,0-6.2l0,0l0.6-0.1l0,0c0,0.4,0.2,8.5,0.1,11.7c0,0.5,0,1.2,0,1.4
		c0,0.1,0.4,0.1,0.5,0.2c0.2,0.2,0.2,0.5,0.3,0.9l0,0c-0.6,0.2-2,0.2-2.6,0.3c-0.8,0.1-1.9,0.2-2.7,0.3c-1.7,0.1-3.6,0.4-5.3,0.6
		c-0.4,0-0.7,0-1.2,0.1l0,0c0.3-0.9-0.2-1.2-0.3-1.2l0,0c0-0.1-0.2-1.3-0.2-1.8c0-1.6,0-3.3,0-4.9c0-2-0.1-4.1,0-6.1
		c0-0.6-0.2-0.8,0-1.6l0,0c0.2-0.1,0.7-0.8,0.7-0.8l0,0c-1.6-0.9-3.6-1.1-5.3-2c-0.1,0-0.6,0.2-0.9,0.4c-1.2,0.7-2.2,1.3-3.5,2
		c0,0-0.1,0-0.1,0.1l0.1,0.4c0.1-0.1,0.2-0.1,0.3-0.2c0.6-0.3,1.2-0.6,1.8-0.8c0.7-0.3,2.1-1.2,2.2-1.2l0,0c0.1,0,3,1,4.3,1.4l0,0
		c-0.2,0.2-0.4,0.4-0.4,0.4l0,0c-0.1,0-1.5-0.3-2.4-0.6c-0.3-0.1-1.3-0.4-1.3-0.5l0,0c-0.1,0-1.1,0.6-1.5,0.8
		c-0.6,0.1-3.1,1.3-3.5,1.4l0,0c0.1,0.4,0,0.8,0,0.9s0,0.5,0.2,0.7c0.2,0.3,0.4,0.3,0.4,0.5c0,3.8,0.2,7.7,0.2,11.6
		c0,0.3,0,0.8,0.1,1l0,0c0.1,0,0.3,0.1,0.3,0.1l0,0c0.1-0.2,0.4-0.6,0.5-0.8c0-0.4-0.4-0.7-0.4-1.1c0-3.2,0-6.4,0-9.7v-1.2l0,0
		c0.3,0,0.5,0,0.7,0l0,0c0,1.3,0.1,2.6,0.1,3.9c0,1.5,0.2,3.1,0.1,4.6c0,1.1-0.1,2.1-0.2,3.2c0,0.3,0.1,0.3,0.1,0.7l0,0
		c0.2,0,1.3-0.1,1.3-0.1c0.2,0-0.9-0.5-0.7-0.5c-0.1-0.1-0.4-1.1,0-1.7c0.1-0.1,0-1,0-1.2c0-3-0.1-4.5-0.1-7.5c0-0.5,0-1,0.1-1.7
		l0,0c1.6-0.3,3-0.4,4.7-0.7l0,0c-0.1,0.7,0,1.3,0,1.9c0,2.4,0,4.7,0,7.1c0,1.2,0.1,2.1,0,3.3l0,0c-1.2,0.3-0.5,0-1.6,0.2l0,0
		c0,0-0.2,0.1-1.3,0.5c1.4-0.2,2.9-0.2,4.2-0.4c0.5,0,0.1,0,0.4,0.7l0,0c0,0.2-0.2,0.4-0.2,0.4l0,0c-0.1,0-0.9,0.1-1.3,0.2
		c-1.5,0.3-2.6,0.3-4.2,0.4c-1.3,0.1-4.4,0.4-5.9,0.5l0,0c-0.2-4.9-0.2-9.5-0.1-14.2c0-0.5-0.1-0.9,0-1.3l0,0
		c0.1-0.2,0.6-0.6,0.8-0.9c0.1-0.1,0-0.3,0-0.4l0,0l-0.6-0.2c-0.4,0,0,0,0,0c-1.3-0.3-2.5-0.7-3.8-1.1c-0.2-0.1-0.4-0.1-0.6-0.1
		c-0.1,0.2-0.1,0.4-0.2,0.5c1.5,0.4,3.5,0.7,5,1.2h-0.7c-0.3,0.2-0.4,0.4-0.6,0.6l0,0c-1.3-0.4-2.6-0.7-3.9-1.1
		c-0.2,0.6-0.4,1.3-0.5,1.9c0.3,0,0.6,0,0.9-0.1c1-0.1,2-0.1,3-0.2c0.4-0.1,0.4,0,0.6,0.1l0,0c0,0.2,0,0.5-0.1,0.5
		c-0.1,0.1-0.5,0.1-0.8,0.2c-1.3,0.1-2.6,0.3-3.8,0.4c-0.1,0.3-0.1,0.6-0.1,0.9c1.2-0.1,2.5-0.2,3.6-0.3c0,1.2-0.1,2-0.1,2.7
		c0,1,0.1,1.1,0.1,1.9c0,0.9-0.1,1.7-0.1,2.6c0,0.8,0,1.6,0,2.5c0,0.8,0,1.6,0,2.4c-0.7,0.1-1.3,0.1-2,0.2c0,0.1,0.1,0.2,0.1,0.3
		c0.7-0.1,1.4-0.2,2.2-0.2l0,0c0.1-0.1,0.2-0.4,0.2-0.6c0-3.8,0.1-7.4,0-11.1c0-0.2-0.2-0.7,0-0.9c0,0,0.4,0,0.5-0.1l0,0
		c0,0.3,0,0.9,0,1.2c0,2,0,4.1,0,6.1c0,1.7,0.1,3.3,0.2,5c0,0.4-0.1,0.9,0,1.4l0,0c-0.6,0.1-0.8,0-1.3,0.1s-0.9,0.1-1.3,0.2
		c0.1,0.2,0.2,0.5,0.4,0.7c0.6-0.1,1.1-0.1,1.7-0.2c1.3-0.1,2.5-0.1,3.8-0.2c1.1-0.1,2.2-0.2,3.3-0.4c0.7-0.1,1.5-0.2,2.2-0.3
		c2.7-0.3,5.3-0.4,8-0.7c1-0.1,2-0.2,3-0.2c1.4,0,2.6-0.3,4-0.5c1.8-0.3,2.8-0.5,4.7-0.6c0.4,0.1,0.7,0,0.6,0.2
		c-0.2,0.2-0.3,0.5-0.7,0.6c-0.5,0.1-0.9,0.1-1.4,0.2c-1.8,0.2-3.3,0.4-5.1,0.6c-1,0.1-2,0.1-3,0.2c-0.9,0.1-1.7,0.2-2.6,0.3
		c-0.8,0.1-1.5,0.2-2.3,0.3c-2.3,0.2-4.7,0.4-7,0.7c-1.8,0.2-3.5,0.3-5.3,0.4c-1.1,0.1-2.2,0.2-3.4,0.3c0.2,0.3,0.4,0.6,0.6,0.9
		c0.4,0,0.8-0.1,1.2-0.1c2.1-0.3,4.3-0.5,6.5-0.6c1.6-0.1,3.1-0.3,4.7-0.4c1.9-0.2,3.8-0.4,5.7-0.6c1.2-0.1,2.3-0.1,3.5-0.2
		c1.7-0.2,3.2-0.3,4.9-0.5c1.1-0.1,2.3-0.3,3.5-0.3c0,0.5,0,0.9,0,1.2c-0.8,0.6-2,0.4-2.9,0.5c-2.2,0.2-4.1,0.2-6.3,0.4
		s-4.4,0.4-6.6,0.6c-2.8,0.3-5.7,0.4-8.5,0.4c-0.9,0-1.9,0.2-2.8,0.3c-0.1,0-0.3,0.1-0.4,0.1c-0.6,0-1.2,0.1-1.8,0.1
		c0.1,0.2,0.2,0.4,0.4,0.5c0.1,0.1,0.1,0.1,0.2,0.2c1.5-0.1,2.9-0.1,4.4-0.2c0.1,0,0.1,0,0.2,0c1.5-0.1,3-0.3,4.6-0.4
		c1.6-0.1,3.1-0.2,4.7-0.2c0.1,0,0.1,0,0.2,0c1.5-0.1,3-0.3,4.4-0.4c1.5-0.1,2.9-0.1,4.4-0.2c1.2-0.1,2.3-0.3,3.5-0.4
		c0.7-0.1,1.3,0,2.2,0c-0.2,0.3-0.1,0.3-0.2,1.4c0,1.6,0,3.2,0,4.8c0.2-0.1,0.5-0.2,0.7-0.3c0-1.1,0-2.2,0-3.3
		c0-0.4,0.1-1.4,0.1-1.4c0-0.6,0.1-1.3,0.1-1.9c0.2,0,0.7,0.2,0.9,0.2c1.5,0.6,2.8,1.1,4.2,1.8c0.1,0,0.2,0.1,0.3,0.1
		c0.1-0.2,0.3-0.5,0.4-0.7c-0.2-0.1-0.4-0.2-0.6-0.3c-1.6-0.7-3.1-1.4-4.9-2.1c0-0.7-0.1-0.7,0-1.4c2,0.9,4,1.8,5.9,2.8
		c0.1-0.2,0.1-0.3,0.2-0.5c-1.6-0.8-3.3-1.7-4.9-2.5c-0.1-0.1-0.6-0.3-0.7-0.4c-0.1-0.2,0.1-0.4,0.1-0.5
		C-382.9,281.9-382.9,281.8-382.8,281.9z M-409,269c0,0-0.1,0-0.1,0.1c-0.2-0.6-0.1-0.7-0.1-1c0.6-0.1,1-0.2,1.6-0.3
		c1.5-0.2,3-0.4,4.5-0.6c0.3,0,1.5-0.1,1.9-0.1c0.1,0,0,0.4,0,0.8C-403.9,268.4-409,269-409,269z M-401.3,281.1h-0.6
		c0-0.2-0.1-0.4-0.1-0.6c0.1-3.7,0-7.1,0.1-10.8c0-0.3-0.1-0.8-0.1-0.8s0.6,0,0.9-0.1C-401.2,273.1-401.2,276.9-401.3,281.1z
		 M-410.1,261.1c0.9-0.1,1.8-0.4,2.7-0.6c1.5-0.2,3.1-0.4,4.6-0.7c1.2-0.2,2.4-0.6,3.6-0.7c3.5-0.5,6.9-1.4,10.3-2
		c0.3,0,0.5-0.1,0.8-0.1c-0.3-0.1-0.7-0.2-1-0.3c-2,0.4-4.2,0.9-4.6,0.9c-0.6,0.2-1.3,0.3-1.9,0.4c-1.3,0.3-2.6,0.5-3.9,0.8
		c-0.2,0-1.2,0.3-1.5,0.3c-0.6,0.1-1.6,0.4-2.2,0.4l-2.7,0.4h-0.6c-0.8,0.2-1.7,0.3-2,0.4c-1.9,0.3-3.8,0.6-5.6,0.8
		c-0.1,0.2-0.3,0.4-0.4,0.6c0.2,0,0.4-0.1,0.6-0.1C-412.8,261.3-411.4,261.3-410.1,261.1z M-401.5,289.6c0-0.1,0-0.2,0-0.3
		c-0.1-0.2-0.2-0.5-2.2-0.2c-0.4,0.1-1,0.1-1.2,0.1c-0.5,0.1-1.1,0-1.6,0c0-0.1,0-0.2,0-0.3h-0.3c0,0,0,0.1,0,0.2
		c-0.1,0-0.2,0-0.2,0v0.3c0,0,0.1,0,0.2,0c0,0.7,0,1.8,0.1,3c0.2,0.1,0.3,0.1,0.5,0.2c0-1.1-0.1-2.2-0.1-2.9c0.5,0,1.3,0,1.8,0
		c0.2,0,0.6,0.1,1,0c0.6-0.1,1.2-0.2,1.5-0.2v0.2c0,0.1,0.1,0.6,0.2,1c0,0.2,0.1,1.5,0.1,3c0.2,0,0.3,0,0.5,0.1
		c0-1.9-0.1-3.5-0.1-3.7C-401.5,289.8-401.5,289.7-401.5,289.6z M-412.8,262.7c0.2,0.3,0.4,0.5,0.7,1l0,0c0.5-0.5,0.7-0.8,1.1-1.3
		l0,0c0.4-0.1,1.2-0.1,1.8-0.3l0,0c0.2,0.4,0.4,0.8,0.6,1.2l0,0c0.3-0.4,0.6-1,0.9-1.4l0,0c2.3,0,3.7-0.7,5.6-0.9l0,0
		c0.2,0.4,0.5,0.8,0.8,1.3l0,0c0.3-0.5,0.9-1.6,1-1.6l0,0c0.1,0,0.7-0.1,1.3-0.3l0,0c0.3,0.5,0.4,0.9,0.8,1.4l0,0
		c0.5-0.7,1-1.2,1.3-1.7l0,0c2.2-0.2,3.8-0.5,5.7-0.8l0,0c0.2,0.3,0.4,0.6,0.7,0.9l0,0c0.8-0.6,1.3-1.3,1.3-1.4l0,0
		c0.1,0,2.3-0.4,3.5-0.5c-0.3-0.2-0.5-0.3-0.8-0.5c-1.1,0.2-1.9,0.4-3.1,0.5c-1.5,0.2-3.6,0.7-5.3,1c-0.5,0.1-1.1,0.2-1.5,0.2
		c-1.6,0-2.4,0.4-4,0.7c-1.9,0.4-3.7,0.7-5.6,1c-1.3,0.2-2.6,0.4-4,0.7c-1.1,0.2-2.3,0.4-3.4,0.6c-0.6,0.1-1.3,0.2-1.9,0.3
		c-0.1,0.2-0.2,0.3-0.3,0.5C-414.6,263.1-413.7,262.9-412.8,262.7L-412.8,262.7z M-381.7,268.5c0,0.1,0,5.4,0,5.5s-0.1,5.6-0.1,5.6
		l1.4,0.5l0.5,0.1c0.2,0,0.2-0.2,0.2-0.4V279v-9.7c0.2,0,0.4,0,0.5,0c0.1,0,0-0.3-0.2-0.3c-0.2-0.1-2.4-1.2-2.4-1.2V267
		c0,0,2.4,1.3,2.6,1.4c0.2,0.1,0.4-0.5,0.4-0.5s-0.5-1-0.8-2.1c-0.1-0.3-0.6-1.3-0.6-1.3s-0.4,0.3-0.7,0.4c-0.2,0.1-0.6,0.5-0.6,0.5
		s-0.1-0.1-0.3-0.1c-0.2,0-0.2,0.3-0.2,0.3s0,0.4,0.1,0.4c0.2,0,0.5,0,0.7-0.2c0.2-0.2,0.8-0.6,0.8-0.6s0.2,0.5,0.2,0.6
		s0.4,1.2,0.5,1.5c0.1,0.3,0.3,0.5,0.3,0.5s-1.9-1.1-2.1-1.2c-0.2-0.1-0.4-0.2-0.5-0.1s-0.3,0.3-0.3,0.3v1.4L-381.7,268.5z
		 M-380.1,269.2v10.2l-0.9-0.4v-10.4L-380.1,269.2z M-390.7,288.3v-0.2l-5.8,0.5l-0.1,5.7c0.2,0,0.3,0,0.5,0l0.1-5l4.7-0.5
		c0,0.4,0,1.8,0,2.5c0,0.3,0.1,1.4,0.1,2.7c0.2,0,0.4,0,0.5-0.1c0-1.3-0.1-2.4-0.1-2.7C-390.7,290.3-390.7,288.3-390.7,288.3z
		 M-381,288.3L-381,288.3c-0.2-0.1-0.6-0.3-0.6-0.3s-0.5,0.5-0.2,0.7c0,0.8,0,1.6,0,2.3c0.2-0.2,0.5-0.3,0.7-0.5v-0.9l0,0v-0.5V289
		c0.3,0.1,0.9,0.2,0.9,0.2c0,0.1,0,0.2,0,0.4c0.2-0.2,0.4-0.4,0.6-0.7c0-0.1,0-0.1,0-0.1S-380.4,288.6-381,288.3z"/>
	<g>
		<path class="st2" d="M-306.6,289.3c-1.3,0.2-2.6,0.6-3.9,0.8c-1.4,0.3-2.9,0.6-4.3,0.9c0.1-1.5,0.6-2.9,1.4-4.3
			c0.8-1.4,1.8-2.7,2.7-4.1c0.9-1.3,1.7-2.6,2.2-4.1c0.3-0.9,0.7-2.2,0.4-3.2c-0.4-1.3-2-0.7-2.9-0.5c-1.6,0.4-3.2,1-4.9,1.4
			c-1.5,0.4-3.2,0.9-4.7,0.7c-1.1-0.1-0.3,1.6,0,1.9c0.2,0.2,0.4,0.4,0.7,0.6c0.3,0.1,0.8,0,1.1-0.1c0.9-0.2,1.8-0.4,2.7-0.6
			c1.8-0.5,3.5-1,5.3-1.6c-0.1,0.5-0.5,1.2-0.7,1.6c-0.4,0.8-0.8,1.5-1.2,2.3c-0.8,1.5-1.6,2.9-2.3,4.4c-0.8,1.5-1.4,3.1-2,4.7
			c-0.4,1.1-0.7,2.2-0.6,3.3c0,0.1,0,0.2,0,0.2l0,0l0,0c3.9-0.3,7.7-1.2,11.5-1.6c0.8-0.1,1.5-0.3,1.5-1.2
			C-304.6,290.1-305.5,289.2-306.6,289.3z"/>
		<g>
			<path class="st2" d="M-327.8,274c-0.3,0.1-2,0.5-2.3,0.5c-0.2,0.1-0.4,0.1-0.7,0c-0.2,0-0.3-0.1-0.4-0.3
				c-0.1-0.2-0.2-0.4-0.3-0.7c-0.1-0.2-0.1-0.5-0.1-0.7c0-0.2,0-0.4,0-0.6l4-1.6l0.2-8.6c0.1-0.3,0.3-0.5,0.6-0.4
				c0.4,0.1,0.7,0.1,1.1,0.2c0.1,0,0.1,0,0.3,0.1c0.1,0,0.2,0.1,0.3,0.1c-0.1,0.7-0.1,1.4-0.2,2.2c-0.1,0.8-0.1,1.6-0.2,2.4
				c-0.1,0.8-0.1,1.6-0.1,2.4c0,0.8,0,0.3,0.1,0.9l5.9-1.6c0.1,0,0.2,0,0.3,0.2c0.1,0.2,0.1,0.4,0.2,0.6c0.1,0.2,0.1,0.6,0.2,1
				l-6.6,2.8c0,0.2,0,0.8,0.1,1.6c0,0.9,0.1,3,0.1,4.2c0.1,1.2,0.1,2.5,0.2,3.8c0.1,1.4,0.1,2.6,0.2,3.8c0.1,1.2,0.2,3.4,0.2,4.3
				c0,0.9,0,1.4,0,1.7c-0.1,0.8-0.3,1.1-0.7,1.1c-0.4,0-0.8-0.2-1.3-0.6L-327.8,274z"/>
		</g>
		<path class="st2" d="M-297.1,260.9c-0.1-1.2-1.6-0.7-2.3-0.4c-0.1,0-0.1,0.2,0,0.3c0.3,3.8,0.1,7.7-0.2,11.5
			c-0.3,4.2-0.6,8.4-1.2,12.6c-0.3,2.2-0.6,4.3-1.2,6.5l0,0l0,0l0,0v0.1c0,0.9,0.8,1.6,1.7,1.6c0.2,0,0.9,0,1-0.2
			c0.2-0.3,0.1-0.9,0.2-1.2c0.3-2.8,0.5-5.6,0.8-8.4c0.5-5.9,1-11.8,1.2-17.7c0-0.8,0-1.6,0.1-2.3
			C-297.1,262.5-297,261.7-297.1,260.9z"/>
		<g>
			<g>
				<path class="st2" d="M-335.6,292.7c-0.1-0.6-0.2-1.4-0.3-2.3s-0.2-1.8-0.3-2.8c-0.1-0.9-0.2-1.8-0.4-2.6c-0.1-0.8-0.4-1.5-0.7-2
					c-1.3,2.6-2.5,4.6-3.6,6.1c-1,1.5-1.9,2.5-2.7,3.2c-0.8,0.6-1.4,0.9-2,0.9c-0.5,0-1-0.2-1.3-0.7c-0.3-0.4-0.6-1-0.7-1.6
					c-0.1-0.7-0.2-1.3-0.3-1.9c0-0.5,0.1-1.3,0.4-2.3s0.6-2.1,1.1-3.3c0.4-1.2,1-2.4,1.6-3.6c0.6-1.2,1.3-2.3,2-3.3
					c0.7-1,1.5-1.8,2.2-2.5c0.8-0.6,1.5-1,2.3-1c1.1-0.2,2,0.1,2.5,0.7c0.5,0.6,0.6,1.7,0.3,3.2c0,1.6,0.1,3.1,0.2,4.2
					c0.1,1.2,0.3,2.3,0.5,3.4c0.2,1.1,0.3,2.2,0.5,3.4c0.1,1.2,0.2,2.6,0.2,4.2c0,0.3,0,0.6-0.1,0.8c-0.1,0.2-0.4,0.3-1,0.3
					c-0.1,0-0.2-0.1-0.3-0.2S-335.6,292.8-335.6,292.7z M-337.8,276c-0.3-0.4-0.7-0.4-1.2-0.1s-1,0.9-1.6,1.6
					c-0.6,0.7-1.1,1.6-1.7,2.7c-0.6,1-1.1,2.1-1.6,3.2s-0.9,2.1-1.3,3c-0.4,1-0.6,1.8-0.8,2.4c0,0.9,0.1,1.4,0.4,1.5
					c0.3,0.1,0.6,0,1.1-0.4c0.4-0.4,0.9-1,1.4-1.7c0.5-0.7,1.1-1.5,1.6-2.4c0.5-0.8,1-1.7,1.5-2.5s0.8-1.4,1.1-1.9
					c0.2-0.5,0.4-1,0.6-1.5c0.1-0.4,0.2-0.9,0.3-1.3c0.1-0.4,0.1-0.8,0.2-1.3C-337.8,276.9-337.8,276.4-337.8,276z"/>
			</g>
			<g>
				<g>
					<path class="st2" d="M-342.6,267.3c0.4-0.4,0.7-0.6,0.9-0.8c0.3-0.1,0.6-0.2,1-0.2c0.7,0,1.1,0.3,1.1,1c0,0.2,0,0.3-0.1,0.5
						c-0.1,0.2-0.2,0.4-0.4,0.5c-0.1,0.2-0.3,0.3-0.5,0.4c-0.2,0.1-0.4,0.1-0.5,0c-0.1,0.2-0.3,0.2-0.5,0.2
						c-0.2-0.1-0.4-0.2-0.5-0.3c-0.2-0.2-0.3-0.3-0.4-0.6C-342.6,267.8-342.6,267.6-342.6,267.3z"/>
				</g>
				<g>
					<path class="st2" d="M-337.4,267.3c0.4-0.4,0.7-0.6,1-0.8c0.3-0.1,0.6-0.2,1-0.2c0.7,0,1.1,0.3,1.1,1c0,0.2,0,0.3-0.1,0.5
						c-0.1,0.2-0.2,0.4-0.4,0.5c-0.2,0.2-0.3,0.3-0.5,0.4c-0.2,0.1-0.4,0.1-0.5,0c-0.2,0.2-0.4,0.2-0.6,0.2
						c-0.2-0.1-0.4-0.2-0.5-0.3c-0.2-0.2-0.3-0.3-0.4-0.6C-337.4,267.8-337.4,267.6-337.4,267.3z"/>
				</g>
			</g>
		</g>
		<g>
			<path class="st2" d="M-360.4,275.7v-0.3c0-0.3,0.1-0.4,0.3-0.5c0.2-0.1,0.4-0.2,0.7-0.2c0.2,0,0.4,0,0.6,0.1
				c0.2,0,0.3,0.2,0.4,0.4c0.1,0.4,0.2,0.9,0.2,1.6c0.1,0.7,0.2,1.4,0.3,2.2c0.1,0.8,0.2,1.7,0.3,2.6c0.1,0.9,0.2,1.8,0.4,2.6
				c0.2,0.8,0.2-1.1,0.5-2.9c0.2-1.8,0.7-3.3,1.3-4.4c0.7-1.1,1.6-1.9,2.7-2.4c1.2-0.4,2.6-0.5,4.4-0.3c0.8,0,1.2,0.4,1.2,1.3
				c0,0.3-0.2,0.6-0.7,0.7c-0.4,0.1-5.4,0.4-6.1,3.5c-0.3,1.1-0.9,6.6-0.9,8.3c-0.1,1.7,0.1,3.5-0.2,5.3c0,0.3-0.1,0.4-0.3,0.6
				c-0.2,0.1-0.5,0.2-0.8,0.2c-0.3,0-0.6-0.1-0.9-0.2s-0.5-0.3-0.6-0.6L-360.4,275.7z"/>
		</g>
		<path class="st2" d="M-364.3,253.8c0.7,0.5,1,1,0.9,1.6c-0.2,0.6-1.1,1-2.8,1c-3.3,1.3-5.9,5.8-7.7,13.4
			c-2.3,9.2-2.2,16.1,0.2,20.8c0.6,0.8,1.1,1.2,1.5,1.3c2,0.5,3.9-2.1,5.8-7.8l0.6-1.8c0.2-1.3,0.2-2,0-2.1
			c-1.1,0.2-2.8,0.6-5.1,1.3l-0.8-0.1c-0.5-0.1-0.8-0.6-0.9-1.5c0.2-0.7,1.3-1.2,3.5-1.5c1.9-0.7,3.3-0.9,4.2-0.7
			c1.6,0.4,2.3,1.8,1.9,4.4l-0.1,0.2c-1.7,7.1-4.4,11.1-8,12.1c-0.9-0.1-1.3-0.2-1.3-0.1c-4.1-1-6-6.5-5.4-16.5
			c0.3-3,0.7-5.7,1.3-8.2l0.2-0.9c2.1-8.3,5.2-13.3,9.5-14.9C-365.6,253.8-364.7,253.7-364.3,253.8z"/>
	</g>
	<g>
		<path class="st2" d="M-320.1,300.8c0.3,0.1,0.4,0.2,0.5,0.4c-0.2,2.5-0.3,4.3-0.3,5.5l0.1,3.4l0.2,0.6l-0.1,0.3
			c0.1,0.8,0.2,1.2,0.4,1.2c0.6-1.3,1.1-2.9,2.3-6.5v-0.8l-0.2-0.3c0.2-0.5,0.4-0.8,0.6-0.8c0.4,0,0.7,0.2,0.8,0.7l-0.1,0.8
			c0.5,4.5,1,6.8,1.6,6.8c0.4,0,0.6-1.3,0.7-4l-0.1-1.9c0-1.1-0.2-2.8-0.5-5.3l0.4-0.8c0.3,0.1,0.4,0.3,0.5,0.6l0.4,6.8
			c-0.2,3.8-0.6,5.6-1.4,5.7c-0.9,0-1.6-2.1-2.2-6.3c-0.2,0.1-0.6,0.5-1.3,3.1c-0.8,2.5-1.3,3.7-1.7,3.8h-0.2
			c-0.2,0-0.4-0.1-0.5-0.4h-0.1l-0.3-4.2v-1.3c-0.1-4.8,0.1-7.2,0.5-7.2L-320.1,300.8z"/>
		<path class="st2" d="M-310.5,302.6c0.3,0,0.6,0.1,0.8,0.4c0,0.2-0.2,0.5-0.7,0.8c-0.2,0-0.4-0.1-0.6-0.5
			C-310.9,302.9-310.7,302.6-310.5,302.6z M-310.3,305.4l0.4,0.4c-0.3,0.3-0.4,1.1-0.3,2.4c0.1,1.4,0.4,2.7,0.9,4v0.2l-0.3,0.4h-0.3
			c-0.3,0-0.9-1.7-1.3-5.1c-0.1-1.5,0.2-2.3,0.6-2.3H-310.3z"/>
		<path class="st2" d="M-306.3,303.2c1.2,0.2,1.9,0.7,2,1.5v0.3c0.2,1.6-0.3,2.9-1.7,3.7l-0.7,0.1v0.2c0.2,1.3,0.6,2.2,1.4,2.6h0.3
			c0.4-0.1,0.9-0.7,1.5-2l0.1,0.1h0.1c-0.3,1.8-0.9,2.7-1.8,2.8c-0.9,0.1-1.8-1.3-2.7-4.2c-0.1,0-0.2-0.2-0.3-0.5
			c0.3-0.3-0.1-1.2,0.4-2.9C-307.3,303.9-306.8,303.3-306.3,303.2z M-307.1,307.5c0.1,0.3,0.3,0.5,0.4,0.5l0.7-0.1
			c0.8-0.5,1.1-1.4,1-2.7v-0.1c-0.2-0.7-0.6-1-1.2-0.9C-307.1,304.2-307.4,305.4-307.1,307.5z"/>
		<path class="st2" d="M-300.9,301.3L-300.9,301.3c0.9-0.3,1.9,0.4,3.1,3.7l0.6,1.9l0.6,1.2v0.1v0.3v0.1l0.3,0.6
			c0.1,0.1,0,0.3-0.1,0.4l0,0c-0.1,0.1-0.2,0.1-0.3,0.1c-0.3,0-0.6-0.4-0.7-0.7l-1.1-3.5c-0.8-2.4-1.5-3.2-2-3.2l-0.4,0.2
			c-0.6,0.6-0.6,1.8,0.1,4.6l0.9,2.6l0.3,0.4c0,0.5-0.1,0.7-0.2,0.8c-0.3,0.1-0.6,0-0.8-0.2l-0.7-2.5l-1.9-4.6l-0.2-0.6l0.3-0.6
			c0.3,0,0.5,0.1,0.5,0.2l0.4,1.6l0.1,0.1C-302,304.2-302.3,302.3-300.9,301.3z"/>
	</g>
	<g>
		<g>
			<path class="st2" d="M-358.6,249.3c0-0.2,0.1-0.3,0.2-0.3c0.1-0.1,0.2-0.1,0.3-0.1c0.3,0,0.4,0.1,0.5,0.3s0.1,0.4,0.1,0.6
				c-0.1,0.1-0.2,0.3-0.3,0.3c-0.1,0.1-0.3,0.1-0.4,0c-0.1,0-0.2-0.1-0.3-0.3C-358.6,249.7-358.6,249.5-358.6,249.3z M-358.9,263.6
				c0-0.9,0.1-1.9,0.1-2.9s0-2,0-3s0.1-2,0.1-3c0.1-1,0.2-1.9,0.3-2.8c0,0,0.1,0,0.2,0s0.2,0,0.2,0c0.2,0,0.4,0,0.5,0.1
				c0.1,0.1,0.2,0.2,0.2,0.4c0,0.8-0.1,1.7-0.1,2.7c-0.1,1-0.1,2-0.2,2.9c-0.1,1-0.1,2-0.2,3c0,1-0.1,1.9-0.1,2.7
				c0,0.2-0.1,0.4-0.2,0.5c-0.1,0.1-0.2,0.1-0.4,0.1s-0.3-0.1-0.4-0.1C-358.9,264-358.9,263.9-358.9,263.6z"/>
		</g>
		<g>
			<path class="st2" d="M-356,263.6c0-0.4,0.1-0.7,0.1-1.4c0-0.7,0-1.1,0.1-1.9c0-0.8,0.1-1.6,0.1-2.5s0-1.7,0.1-2.4
				c0-1,0-1.6-0.1-2c0-0.3,0.1-0.4,0.2-0.5c0.1,0,0.3-0.1,0.5,0c0,0,0.1,0,0.2,0c0.1,0,0.2,0,0.2,0c0.1,0.4,0.1,1,0.1,1.6
				c0,0.7-0.2,2.1-0.2,2.9s-0.1,1.6,0,2.4c0.3-1.1,0.5-2,0.7-2.7c0.2-0.7,0.4-1.3,0.5-1.7c0.2-0.4,0.3-0.7,0.4-1
				c0.1-0.2,0.2-0.3,0.4-0.4c0.1-0.1,0.3-0.1,0.4-0.1c0.2,0,0.4,0,0.6,0.1c0.3,0,0.4,0.1,0.6,0.3c0.1,0.2,0.3,0.5,0.3,0.8
				c0.1,0.3,0.1,0.7,0.1,1c0,0.4,0,0.7,0.1,1.1c0,0.3,0,0.7,0.1,0.9c0,0.3,0.1,0.5,0.2,0.6c0.4-1,0.8-1.8,1.1-2.5
				c0.2-0.3,0.5-0.8,0.7-1.2c0.2-0.4,0.4-0.6,0.5-0.8c0.2-0.2,0.3-0.3,0.4-0.3s0.2,0,0.3,0c0.1,0,0.2,0.1,0.3,0.1
				c0.4,0,0.6,0.2,0.8,0.6c0.2,0.7,0.3,1.3,0.3,1.9s0,1.1,0,1.6s-0.1,1-0.1,1.5s-0.1,0.9-0.1,1.4c0,0.4,0,0.9,0.1,1.3
				s0.3,0.9,0.5,1.3c-0.1,0.2-0.3,0.4-0.4,0.4c-0.1,0.1-0.3,0.1-0.5,0.1c-0.2,0-0.3-0.1-0.4-0.2c-0.1-0.1-0.2-0.3-0.3-0.5
				c0.1-0.1,0.1-0.3,0-0.5c0-0.2-0.1-0.3-0.1-0.5c0.1-2,0.1-3.5,0.1-4.6s-0.2-1.6-0.4-1.7c-0.2-0.1-0.6,0.4-1,1.3
				c-0.4,1-1,2.5-1.7,4.5c0,0.1-0.1,0.1-0.2,0.1s-0.2,0-0.3,0c-0.1,0-0.1,0-0.2,0s-0.2-0.1-0.3-0.1c-0.2-2.1-0.4-3.6-0.5-4.5
				c-0.2-0.9-0.4-1.3-0.6-1.1c-0.3,0.2-0.6,0.9-1,2.2c-0.4,1.3-0.9,2.7-1.5,5c0,0-0.3,0.3-0.6,0.2C-355.8,263.8-356,263.6-356,263.6
				z"/>
		</g>
	</g>
</g>
</svg>
