<?xml version="1.0" encoding="utf-8"?>
<!-- Generator: Adobe Illustrator 19.0.1, SVG Export Plug-In . SVG Version: 6.00 Build 0)  -->
<svg version="1.1" id="Layer_1" xmlns="http://www.w3.org/2000/svg" xmlns:xlink="http://www.w3.org/1999/xlink" x="0px" y="0px"
	 width="80.9px" height="45.5px" viewBox="-795.9 497.8 80.9 45.5" style="enable-background:new -795.9 497.8 80.9 45.5;"
	 xml:space="preserve">
<style type="text/css">
	.st0{fill:#615454;}
</style>
<g>
	<g>
		<path class="st0" d="M-724.6,538.2c-1.3,0.2-2.6,0.6-3.9,0.8c-1.4,0.3-2.9,0.6-4.3,0.9c0.1-1.5,0.6-2.9,1.4-4.3s1.8-2.7,2.7-4.1
			c0.9-1.3,1.7-2.6,2.2-4.1c0.3-0.9,0.7-2.2,0.4-3.2c-0.4-1.3-2-0.7-2.9-0.5c-1.6,0.4-3.2,1-4.9,1.4c-1.5,0.4-3.2,0.9-4.7,0.7
			c-1.1-0.1-0.3,1.6,0,1.9c0.2,0.2,0.4,0.4,0.7,0.6c0.3,0.1,0.8,0,1.1-0.1c0.9-0.2,1.8-0.4,2.7-0.6c1.8-0.5,3.5-1,5.3-1.6
			c-0.1,0.5-0.5,1.2-0.7,1.6c-0.4,0.8-0.8,1.5-1.2,2.3c-0.8,1.5-1.6,2.9-2.3,4.4c-0.8,1.5-1.4,3.1-2,4.7c-0.4,1.1-0.7,2.2-0.6,3.3
			c0,0.1,0,0.2,0,0.2l0,0l0,0c3.9-0.3,7.7-1.2,11.5-1.6c0.8-0.1,1.5-0.3,1.5-1.2C-722.6,539-723.5,538.1-724.6,538.2z"/>
		<g>
			<path class="st0" d="M-745.8,522.9c-0.3,0.1-2,0.5-2.3,0.5c-0.2,0.1-0.4,0.1-0.7,0c-0.2,0-0.3-0.1-0.4-0.3
				c-0.1-0.2-0.2-0.4-0.3-0.7c-0.1-0.2-0.1-0.5-0.1-0.7c0-0.2,0-0.4,0-0.6l4-1.6l0.2-8.6c0.1-0.3,0.3-0.5,0.6-0.4
				c0.4,0.1,0.7,0.1,1.1,0.2c0.1,0,0.1,0,0.3,0.1c0.1,0,0.2,0.1,0.3,0.1c-0.1,0.7-0.1,1.4-0.2,2.2c-0.1,0.8-0.1,1.6-0.2,2.4
				c-0.1,0.8-0.1,1.6-0.1,2.4c0,0.8,0,0.3,0.1,0.9l5.9-1.6c0.1,0,0.2,0,0.3,0.2c0.1,0.2,0.1,0.4,0.2,0.6c0.1,0.2,0.1,0.6,0.2,1
				l-6.6,2.8c0,0.2,0,0.8,0.1,1.6c0,0.9,0.1,3,0.1,4.2c0.1,1.2,0.1,2.5,0.2,3.8c0.1,1.4,0.1,2.6,0.2,3.8c0.1,1.2,0.2,3.4,0.2,4.3
				c0,0.9,0,1.4,0,1.7c-0.1,0.8-0.3,1.1-0.7,1.1s-0.8-0.2-1.3-0.6L-745.8,522.9z"/>
		</g>
		<path class="st0" d="M-715.1,509.8c-0.1-1.2-1.6-0.7-2.3-0.4c-0.1,0-0.1,0.2,0,0.3c0.3,3.8,0.1,7.7-0.2,11.5
			c-0.3,4.2-0.6,8.4-1.2,12.6c-0.3,2.2-0.6,4.3-1.2,6.5l0,0l0,0l0,0v0.1c0,0.9,0.8,1.6,1.7,1.6c0.2,0,0.9,0,1-0.2
			c0.2-0.3,0.1-0.9,0.2-1.2c0.3-2.8,0.5-5.6,0.8-8.4c0.5-5.9,1-11.8,1.2-17.7c0-0.8,0-1.6,0.1-2.3
			C-715.1,511.4-715,510.6-715.1,509.8z"/>
		<g>
			<g>
				<path class="st0" d="M-753.6,541.6c-0.1-0.6-0.2-1.4-0.3-2.3c-0.1-0.9-0.2-1.8-0.3-2.8c-0.1-0.9-0.2-1.8-0.4-2.6
					c-0.1-0.8-0.4-1.5-0.7-2c-1.3,2.6-2.5,4.6-3.6,6.1c-1,1.5-1.9,2.5-2.7,3.2c-0.8,0.6-1.4,0.9-2,0.9c-0.5,0-1-0.2-1.3-0.7
					c-0.3-0.4-0.6-1-0.7-1.6c-0.1-0.7-0.2-1.3-0.3-1.9c0-0.5,0.1-1.3,0.4-2.3s0.6-2.1,1.1-3.3c0.4-1.2,1-2.4,1.6-3.6
					c0.6-1.2,1.3-2.3,2-3.3s1.5-1.8,2.2-2.5c0.8-0.6,1.5-1,2.3-1c1.1-0.2,2,0.1,2.5,0.7c0.5,0.6,0.6,1.7,0.3,3.2
					c0,1.6,0.1,3.1,0.2,4.2c0.1,1.2,0.3,2.3,0.5,3.4s0.3,2.2,0.5,3.4c0.1,1.2,0.2,2.6,0.2,4.2c0,0.3,0,0.6-0.1,0.8
					c-0.1,0.2-0.4,0.3-1,0.3c-0.1,0-0.2-0.1-0.3-0.2C-753.6,541.8-753.6,541.7-753.6,541.6z M-755.8,524.9c-0.3-0.4-0.7-0.4-1.2-0.1
					s-1,0.9-1.6,1.6c-0.6,0.7-1.1,1.6-1.7,2.7c-0.6,1-1.1,2.1-1.6,3.2c-0.5,1.1-0.9,2.1-1.3,3c-0.4,1-0.6,1.8-0.8,2.4
					c0,0.9,0.1,1.4,0.4,1.5s0.6,0,1.1-0.4c0.4-0.4,0.9-1,1.4-1.7c0.5-0.7,1.1-1.5,1.6-2.4c0.5-0.8,1-1.7,1.5-2.5s0.8-1.4,1.1-1.9
					c0.2-0.5,0.4-1,0.6-1.5c0.1-0.4,0.2-0.9,0.3-1.3c0.1-0.4,0.1-0.8,0.2-1.3C-755.8,525.8-755.8,525.3-755.8,524.9z"/>
			</g>
			<g>
				<g>
					<path class="st0" d="M-760.6,516.2c0.4-0.4,0.7-0.6,0.9-0.8c0.3-0.1,0.6-0.2,1-0.2c0.7,0,1.1,0.3,1.1,1c0,0.2,0,0.3-0.1,0.5
						c-0.1,0.2-0.2,0.4-0.4,0.5c-0.1,0.2-0.3,0.3-0.5,0.4s-0.4,0.1-0.5,0c-0.1,0.2-0.3,0.2-0.5,0.2c-0.2-0.1-0.4-0.2-0.5-0.3
						c-0.2-0.2-0.3-0.3-0.4-0.6C-760.6,516.7-760.6,516.5-760.6,516.2z"/>
				</g>
				<g>
					<path class="st0" d="M-755.4,516.2c0.4-0.4,0.7-0.6,1-0.8c0.3-0.1,0.6-0.2,1-0.2c0.7,0,1.1,0.3,1.1,1c0,0.2,0,0.3-0.1,0.5
						c-0.1,0.2-0.2,0.4-0.4,0.5c-0.2,0.2-0.3,0.3-0.5,0.4s-0.4,0.1-0.5,0c-0.2,0.2-0.4,0.2-0.6,0.2c-0.2-0.1-0.4-0.2-0.5-0.3
						c-0.2-0.2-0.3-0.3-0.4-0.6C-755.4,516.7-755.4,516.5-755.4,516.2z"/>
				</g>
			</g>
		</g>
		<g>
			<path class="st0" d="M-778.4,524.6v-0.3c0-0.3,0.1-0.4,0.3-0.5c0.2-0.1,0.4-0.2,0.7-0.2c0.2,0,0.4,0,0.6,0.1
				c0.2,0,0.3,0.2,0.4,0.4c0.1,0.4,0.2,0.9,0.2,1.6c0.1,0.7,0.2,1.4,0.3,2.2c0.1,0.8,0.2,1.7,0.3,2.6c0.1,0.9,0.2,1.8,0.4,2.6
				s0.2-1.1,0.5-2.9c0.2-1.8,0.7-3.3,1.3-4.4c0.7-1.1,1.6-1.9,2.7-2.4c1.2-0.4,2.6-0.5,4.4-0.3c0.8,0,1.2,0.4,1.2,1.3
				c0,0.3-0.2,0.6-0.7,0.7c-0.4,0.1-5.4,0.4-6.1,3.5c-0.3,1.1-0.9,6.6-0.9,8.3c-0.1,1.7,0.1,3.5-0.2,5.3c0,0.3-0.1,0.4-0.3,0.6
				c-0.2,0.1-0.5,0.2-0.8,0.2s-0.6-0.1-0.9-0.2s-0.5-0.3-0.6-0.6L-778.4,524.6z"/>
		</g>
		<path class="st0" d="M-782.3,502.7c0.7,0.5,1,1,0.9,1.6c-0.2,0.6-1.1,1-2.8,1c-3.3,1.3-5.9,5.8-7.7,13.4
			c-2.3,9.2-2.2,16.1,0.2,20.8c0.6,0.8,1.1,1.2,1.5,1.3c2,0.5,3.9-2.1,5.8-7.8l0.6-1.8c0.2-1.3,0.2-2,0-2.1
			c-1.1,0.2-2.8,0.6-5.1,1.3l-0.8-0.1c-0.5-0.1-0.8-0.6-0.9-1.5c0.2-0.7,1.3-1.2,3.5-1.5c1.9-0.7,3.3-0.9,4.2-0.7
			c1.6,0.4,2.3,1.8,1.9,4.4l-0.1,0.2c-1.7,7.1-4.4,11.1-8,12.1c-0.9-0.1-1.3-0.2-1.3-0.1c-4.1-1-6-6.5-5.4-16.5
			c0.3-3,0.7-5.7,1.3-8.2l0.2-0.9c2.1-8.3,5.2-13.3,9.5-14.9C-783.6,502.7-782.7,502.6-782.3,502.7z"/>
	</g>
	<g>
		<g>
			<path class="st0" d="M-776.6,498.2c0-0.2,0.1-0.3,0.2-0.3c0.1-0.1,0.2-0.1,0.3-0.1c0.3,0,0.4,0.1,0.5,0.3
				c0.1,0.2,0.1,0.4,0.1,0.6c-0.1,0.1-0.2,0.3-0.3,0.3c-0.1,0.1-0.3,0.1-0.4,0c-0.1,0-0.2-0.1-0.3-0.3
				C-776.6,498.6-776.6,498.4-776.6,498.2z M-776.9,512.5c0-0.9,0.1-1.9,0.1-2.9s0-2,0-3s0.1-2,0.1-3c0.1-1,0.2-1.9,0.3-2.8
				c0,0,0.1,0,0.2,0c0.1,0,0.2,0,0.2,0c0.2,0,0.4,0,0.5,0.1c0.1,0.1,0.2,0.2,0.2,0.4c0,0.8-0.1,1.7-0.1,2.7c-0.1,1-0.1,2-0.2,2.9
				c-0.1,1-0.1,2-0.2,3c0,1-0.1,1.9-0.1,2.7c0,0.2-0.1,0.4-0.2,0.5c-0.1,0.1-0.2,0.1-0.4,0.1c-0.2,0-0.3-0.1-0.4-0.1
				C-776.9,512.9-776.9,512.8-776.9,512.5z"/>
		</g>
		<g>
			<path class="st0" d="M-774,512.5c0-0.4,0.1-0.7,0.1-1.4c0-0.7,0-1.1,0.1-1.9c0-0.8,0.1-1.6,0.1-2.5s0-1.7,0.1-2.4
				c0-1,0-1.6-0.1-2c0-0.3,0.1-0.4,0.2-0.5c0.1,0,0.3-0.1,0.5,0c0,0,0.1,0,0.2,0c0.1,0,0.2,0,0.2,0c0.1,0.4,0.1,1,0.1,1.6
				c0,0.7-0.2,2.1-0.2,2.9s-0.1,1.6,0,2.4c0.3-1.1,0.5-2,0.7-2.7s0.4-1.3,0.5-1.7c0.2-0.4,0.3-0.7,0.4-1c0.1-0.2,0.2-0.3,0.4-0.4
				c0.1-0.1,0.3-0.1,0.4-0.1c0.2,0,0.4,0,0.6,0.1c0.3,0,0.4,0.1,0.6,0.3c0.1,0.2,0.3,0.5,0.3,0.8c0.1,0.3,0.1,0.7,0.1,1
				c0,0.4,0,0.7,0.1,1.1c0,0.3,0,0.7,0.1,0.9c0,0.3,0.1,0.5,0.2,0.6c0.4-1,0.8-1.8,1.1-2.5c0.2-0.3,0.5-0.8,0.7-1.2
				c0.2-0.4,0.4-0.6,0.5-0.8c0.2-0.2,0.3-0.3,0.4-0.3c0.1,0,0.2,0,0.3,0s0.2,0.1,0.3,0.1c0.4,0,0.6,0.2,0.8,0.6
				c0.2,0.7,0.3,1.3,0.3,1.9s0,1.1,0,1.6s-0.1,1-0.1,1.5s-0.1,0.9-0.1,1.4c0,0.4,0,0.9,0.1,1.3c0.1,0.4,0.3,0.9,0.5,1.3
				c-0.1,0.2-0.3,0.4-0.4,0.4c-0.1,0.1-0.3,0.1-0.5,0.1s-0.3-0.1-0.4-0.2c-0.1-0.1-0.2-0.3-0.3-0.5c0.1-0.1,0.1-0.3,0-0.5
				c0-0.2-0.1-0.3-0.1-0.5c0.1-2,0.1-3.5,0.1-4.6s-0.2-1.6-0.4-1.7c-0.2-0.1-0.6,0.4-1,1.3c-0.4,1-1,2.5-1.7,4.5
				c0,0.1-0.1,0.1-0.2,0.1c-0.1,0-0.2,0-0.3,0c-0.1,0-0.1,0-0.2,0c-0.1,0-0.2-0.1-0.3-0.1c-0.2-2.1-0.4-3.6-0.5-4.5
				c-0.2-0.9-0.4-1.3-0.6-1.1c-0.3,0.2-0.6,0.9-1,2.2c-0.4,1.3-0.9,2.7-1.5,5c0,0-0.3,0.3-0.6,0.2C-773.8,512.7-774,512.5-774,512.5
				z"/>
		</g>
	</g>
</g>
</svg>
