<?xml version="1.0" encoding="UTF-8"?>
<svg id="Layer_1" xmlns="http://www.w3.org/2000/svg" version="1.1" viewBox="0 0 512 512">
  <!-- Generator: Adobe Illustrator 30.1.0, SVG Export Plug-In . SVG Version: 2.1.1 Build 136)  -->
  <defs>
    <style>
      .st0 {
        fill-rule: evenodd;
      }

      .st1 {
        fill: #fff;
      }
    </style>
  </defs>
  <path class="st0" fill="#5d9b9a" d="M152.4,125.2c33.2-19.3,98.3-28.1,160.3-9,67.7,20.8,93.7,74.5,100.9,129.2,9.9,75.7-12.4,118.9-44.9,138.2-43.7,26-184.6,43.9-236.4-26.4-70.3-95.4-24.7-206,20-232Z"/>
  <path class="st1" d="M306.6,324.7c-2.8-.4-5.7-.8-8.4-1.6-11.9-3.4-23.4-9.6-23.5-9.6l-4.4-2.4-2.8,4.1c-.5.7-11.3,16.8-5.8,30.9,3.1,8,10.5,13.4,21.9,16,2.1.5,4.3.7,6.4.7,13.7,0,26.5-9.9,31.2-25.2,1-3.3.1-5.7-.8-7.2-2.6-4.1-7.8-4.8-13.8-5.7ZM286,351.3c-7.6-1.8-12.3-4.9-14-9.2-2-5.1.1-11.8,2.3-16.4,4.8,2.3,12.7,5.8,20.9,8.1h0c3.4,1,6.8,1.5,9.8,1.9,1.5.2,3.4.5,4.8.8-3.8,9.4-12.9,17.4-23.8,14.9ZM232.1,242.3c-2.3-7.5-3-13.9-2.1-18.4,1.2-6.2,2.2-20.5.1-34.9-2.6-18.1-9.3-29.8-19.3-33.8-12.6-5.1-28.3-3.1-40,5.1-12.4,8.7-18.9,23.4-18.3,41.4,1.3,40,25.3,67.1,26.4,68.3l2.5,2.8,43.2-15.5c7.7-2.9,9.9-7.2,7.6-14.8ZM220.7,246.8l-35.9,12.9c-5.7-7.5-20.3-29.5-21.2-58.4-.6-18.1,7.1-27.4,13.6-31.9,5.9-4.2,12.7-5.8,18.8-5.8s7.7.7,10.7,1.9c14,5.6,15,42.5,12.4,56.4-1.2,6.4-.4,14.4,2.4,23.7,0,.3.2.6.2.8-.3.1-.6.2-1,.4ZM340.2,207.7c-15.3-11.3-35.9-12-47.5-7-10.1,4.4-16.1,17.5-17.9,38.9-1.4,16.1,0,32.5,1.5,39.1,1.3,5.8.6,11-.2,14.3-1.5,5.8,1.8,11.8,7.5,13.6l37.5,12.1,2.4-2.2c1.2-1.1,28.7-27,33.4-66.8,2.1-17.6-3.8-32.5-16.6-42ZM345.8,248.4c-3.5,29.4-21.4,50.9-27.7,57.7l-31.1-10c-.1,0-.2-.2-.1-.4,1.1-4.5,2.1-11.4.3-19.4-3.2-14.3-3.6-59.4,10-65.4,8.7-3.8,25.1-2.7,36.5,5.7,9.6,7.1,13.8,18.1,12.2,31.8ZM236.6,262.6l-4.1,2.3c-.1,0-11.5,6.6-23.2,10.3-2.6.8-5.5,1.3-8.4,1.8-6,1.1-11.1,2-13.6,6.1-.9,1.5-1.7,4-.6,7.2,5.1,14.7,19.4,30.9,20,31.6l1.3,1.4,1.9.3c2.1.4,4.7.6,7.5.6,11.5,0,26.7-4.3,31.3-20.8,5.5-19.5-8.6-36.8-9.2-37.5l-3-3.6ZM238.1,300.7c-3.7,13.3-18.9,13-24.3,12.5-3.3-3.9-11.7-14.5-15.7-24.2,1.4-.3,3.3-.7,4.8-.9,3-.5,6.4-1.1,9.8-2.2h0c8.3-2.6,16.2-6.4,20.9-8.9,3,5,7.2,14.2,4.5,23.7Z"/>
</svg>