<?xml version="1.0" encoding="UTF-8"?>
<svg id="Layer_1" xmlns="http://www.w3.org/2000/svg" version="1.1" viewBox="0 0 512 512">
  <!-- Generator: Adobe Illustrator 30.1.0, SVG Export Plug-In . SVG Version: 2.1.1 Build 136)  -->
  <defs>
    <style>
      .st0 {
        fill-rule: evenodd;
      }
    </style>
  </defs>
  <path fill="#fff" class="st0" d="M139.9,404.6c-2.8,0-5.5-.2-8-.5h-1.2c0-.1-.3-1.3-.3-1.3-3.4-14.1-7.4-28.8-11.2-43-1.4-5.2-2.8-10.4-4.2-15.5-4.2-16.7-9.4-35.2-16.1-58.1-2.3-4.1-4.8-8.1-7.2-11.9l-1.1-1.7v-.2c-3.7-11.2-6.7-21.9-2.9-29.6v-.2c0,0,.2-.2.2-.2,3-3.7,8.5-5.6,13.8-7-.1-1.9-.9-4.3-1.7-6.7-1.5-4.5-3.1-9.2-.7-12.4,2.1-3.7,6-4.5,10-5.3,1.5-.3,2.9-.6,4.4-1.1-1.3-4.7-2.8-7.9-4.6-10l-.2-.3v-.4c-.4-1-.9-2.2-1.6-3.5-1.3-2.6-2.9-5.9-1.3-8.7-.2-2.9,2.2-4.5,3.8-5.6.8-.5,1.5-1,1.9-1.5l.3-.4,10.8-3.3c17.7-8.4,38.2-15,57.8-20.9h.1s.1,0,.1,0c0,0,0,0,0,0,.3-.3.7-.9,1.6-1.2l62.5-19.1h.1c22.7-3.4,48.3-11.4,73-19.1,7.8-2.4,16-5,23.9-7.3.5-.2,1-.4,1.5-.4s1,.1,1.3.2c.1,0,.3,0,.3,0s.1,0,.4-.2l.2-.2h.3c1.3-.4,2.7-.6,4.1-.6s2.6.1,3.8.3c1.1.1,2.2.3,3.4.3s2.6-.2,3.9-.6h.1s.1,0,.1,0c1.7-.3,3.3-.5,4.8-.5,3.9,0,7.3,1,10.1,3.1,2.9,1.9,4.1,6.3,5.2,10.7.5,1.8,1,3.7,1.6,5.2,2.3,5.2,4.2,10.3,5.6,15.5h0c0,.1,0,.2,0,.2,1.8,14.2,6.5,27.4,11,40.1,2.7,7.7,5.6,15.7,7.7,23.7.2.7,0,1.3,0,1.7,0,.4,0,.4,0,.5.2.3.3.5.3.6.4.6.4,1,.5,1.9.1.1.3.4.5.5.5.5,1.6,1.6.7,2.8,0,.1-.2.2-.2.3,0,0,0-.3,0-.4,0-.1-.1-.2-.2-.2,0,0-.2,0-.3,0v1.6s0,0,0,0l1.6-.6c.5,1.2.2,2.1,0,2.5,0,0,0,0,0,0,.1.2.3.5.5.8.4.5.9,1.2,1.1,1.9l-1.6.5v1.6c.5,0,1-.3,1.2-.6,0,0,0,0,0-.1,0,0,0,0,0,.1,0,0,0,0,0-.1,0,0,0,0,0,.2,0,.2.1.2.4.5.4.3.9.8,1.2,1.6.2.6.1,1.2,0,1.6.3.2.6.5.8.8.3.6.3,1.4-.1,2,0,0,0,0,0,.1.9,2.6,1.8,5.1,2.7,7.5,3.7,10.1,7.1,19.6,9.6,32.9v.4c0,0,0,.4,0,.4-.8,3-4,4.4-6.8,5.6-.7.3-1.4.6-2.1.9-.7,1.6-2.8,2-4.3,2.3-.7.1-1.6.3-2,.5h-.2c0,.1-5.4,1.7-5.4,1.7.1.5.4,1.2.6,1.6.4.9.7,1.8.9,2.6.8,1.6.7,2.7.6,3.6,0,.6-.1,1,.2,1.6l.4.8-.5.8c-1.7,2.9-3.4,6-4,9.6l-.2,1.2-1,.2v.4s-.7.5-.7.5c-4.9,3.6-10.5,7.1-18.8,9.1,0,.1.1.2.1.3.5,1.1,1.1,2.3.5,3.5,0,0,0,.2-.1.2l1.2,4c1,2.2,1.2,4.1,1.3,5.7.1,1.5.3,3,1.1,4.8l.7,1.5-1.5.7c-22.7,10.9-47.6,18.3-74,26-6.6,1.9-13.5,4-20.2,6l-99.4,30.4h0c-3.1.7-6.1,1.4-9.2,2.1-14.7,3.4-29.9,6.9-43.2,6.9h0ZM127.8,340c2.3,2.1,2.1,4.7,2,6.8-.1,1.6-.2,3.2.6,4.6h0c0,.1,0,.3,0,.3.8,2.3,1.5,4.9,2.2,7.3,1.3,4.7,2.7,9.5,4.7,12.9v.2c0,0,.7,2,.7,2,1.8,5.7,3.7,11.6,6.8,14.4,1.2-.4,2.3-.5,3.1-.5,1.1,0,1.7-.1,2.4-.7.7-2.5,3.3-3.5,5.6-4.4.4-.2.8-.3,1.2-.5l1.4-.6.5,1c.4-.1.9-.3,1.3-.5.8-.4,1.7-.7,2.5-.8,9.4-3.2,19.3-5.9,28.9-8.5,6.6-1.8,13.5-3.6,20.1-5.7,19.2-5.9,33.3-11.2,45.5-17.1l.8-.4.8.4c.2.1.6.2,1.1.2.7,0,1.6-.1,2.5-.3.3,0,.6-.1.9-.2.5-.1,1-.2,1.4-.2.7,0,1.4.1,1.9.3.4.1.8.2,1.1.2s.7,0,1.4-.4h.1c0,0,.2-.1.2-.1,27.2-8.6,62.3-20.3,93-34.7-12.9-42.8-24.9-85.7-36.1-126.1-24.6,7-49.7,14.2-74,21.3-50.6,14.6-102.8,29.7-153.7,43.5,0,.1,0,.3,0,.6,4.2,14.9,9.8,27.6,15.2,39.8,1.1,2.4,2.1,4.8,3.2,7.2h0c1.7,4.8,2.7,9.1,3.6,13.3.9,4.2,1.9,8.5,3.6,13,1.3,3.4,1.9,6.4,2.4,9.2.2,1.1.4,2.2.6,3.3ZM334.9,169.3c7.1,25.9,15.8,49.7,24.1,72.6,6.3,17.4,12.8,35.4,18.7,54.2.5-.2,1-.4,1.4-.7,3.8-1.8,7.7-3.6,11-5.6-2.7-9.2-6-17.7-9.1-25.9-3.4-8.8-6.8-17.8-9.7-27.8-6.9-15.8-13-35.8-16.8-55l-.2-.5c-3.6-8.6-7.3-17.5-8.5-26.6-26,10.3-52,16.2-80.4,24.8-6.3,1.9-13.7,3.3-20,5.3-3.8,1-15.2,3.2-18.9,4.2-13.5,3.5-22.2,9.3-35.6,12-18.2,3.4-35.3,7.9-52.2,13.5-4.6,2.6-10.8,4.3-16.8,6-3,.8-6.1,1.7-9,2.7.4,1.1.7,2.3,1,3.4.6,2.3,1.2,4.6,2.1,6,25.2-7.3,50.6-15.4,75.3-23.1,28.9-9.1,58.7-18.6,87.5-26.6,20.8-6.5,38.5-11.1,54.2-14.1l1.5-.3.4,1.5ZM379.1,200.9c0,.8-.4,1.5-.6,2.1-.4,1.1-.6,1.6,0,2.9h0c4.1,9.5,7.7,19.9,11.2,30,3.2,9.2,6.5,18.8,10.2,27.4,2-1,4.5-1.9,7.3-2.7-7.3-27.3-16.2-55.8-24.8-83.5-5.2-16.8-10.7-34.3-15.7-51.2-.5.2-1,.5-1.6.8-1.3.7-4.1-2.6-6.1-2.4l-12.3,4.1h-.2c-1-.5-3.5.7-3.9,0,0-.1-.1-.2-.2-.4,0,0-.1,0-.2.1l-.2.2-52.1,15.9c-14.3,4.1-27.7,6.4-40.8,8.7-2.9.5-5.9,1-8.8,1.6l-81.3,24.8s0,0,0,0c-.3.4-.9,1.2-2.3,1.4-6.8,1.5-12.9,4.1-18.8,6.6-4.6,2-9,3.8-13.4,5,1.7,3.7,3,8,4.2,12.2l.2.6c3.7-1.3,7.5-2.7,11.2-4.1,10.8-4,22-8.1,33.5-11.1,5.5-1.4,11.1-2.9,16.7-4.3,41.7-10.7,84.8-21.7,122.6-37.5h.1s.1,0,.1,0c6.9-1.8,12.7-3.7,18.8-5.7,4.2-1.4,8.6-2.7,13.6-4.2,1.9-.9,3.7-1.4,5.4-1.4s4.2.9,5.8,1.7l.5.3.2.5c1.1,2.5,1.4,4.8.8,6.7h.6s.2,1.4.2,1.4c.2,1.5.8,2.1,1.2,2.4l.4.3,2.5,8.2c.9.9,1.3,2.2,1.7,3.5.2.7.6,1.9.9,2.1l.7.3.2.7c1.9,5.2,4.2,9.9,6.5,14.5,2.1,4.2,4.2,8.5,6.1,13.3l.4,1-.6.7c0,.3.2,1.1.3,1.6.3,1.3.9,3.4-.4,4.8ZM161.4,369.6c-1.5,0-2.9,0-4.3-.2-.6,0-1.1,0-1.7-.1h-.7s-.5-.5-.5-.5c-3.9-4.2-6.4-10.4-6.7-16.2v-.4s.2-.4.2-.4c.4-.8.7-1.6,1.1-2.3,1.7-3.9,3.5-7.9,8-10.7h.2c0,0,.2-.2.2-.2,1.6-.5,3.1-.8,4.7-.8s2.3.1,3.4.3c1,.1,2,.2,3,.2s.4,0,.6,0h1.1c0,0,.5,1,.5,1,.7,1.5,1.7,2.3,2.9,3.2.5.4,1,.8,1.5,1.3l.3.3v.3c2.5,5.9,1.8,10.1,1.1,14.2-.2,1.2-.4,2.3-.5,3.5v.9c0,0-.8.4-.8.4-1.2.7-2.2,1.6-3.2,2.6-1,.9-1.9,1.8-3.2,2.6h-.2c0,.1-.3.2-.3.2-2.1.5-4.2.8-6.6.8h0ZM163.2,350.2c-1.6,1-2.9,2.9-1.7,7.1,1.7,0,2.4-1.3,2.7-2.3.4-1.5.2-3.6-1-4.8ZM253.1,327.9c-3.5,0-6.9-.3-10-1-7.1-.7-13.1-3.5-18.9-6.1l-.4-.2c-.6.4-1.3.7-1.9,1.1-2.2,1.2-4.5,2.5-6.2,3.9l-1.2.9-.6-.6c-.1,0-.3.2-.3.2-.2.2-.5.3-.7.4-.8.4-1.5.5-2,.5h-.5c-.2,0-.3,0-.4,0l-.5.2h-.5c-1.8-.5-3-1.7-4-2.8-.2-.2-.3-.3-.5-.5l-.4-.4v-.6c-.5-3.6,2-5.7,4-7.3.3-.2.5-.4.8-.6h.1c0,0,.1-.2.1-.2,1.2-.7,2.2-1.5,3.4-2.3.7-.5,1.5-1.1,2.2-1.6-.7-1.1-1.3-2.5-1.8-4.1-1.6.6-3,1.3-4.5,2-.5.3-1,.5-1.6.8h-.1c0,0-.1,0-.1,0-.5.1-1,.3-1.4.5-2,.6-3.9,1.2-5.7,1.2s-3.1-.6-4.1-1.7l-.3-.3v-.4c-1.1-4.4,1.5-6.9,3.6-9,.4-.4.9-.8,1.3-1.3l.2-.2h.2c3-1.8,5.5-3.7,8.3-5.8.7-2.2,1-4.6,1.3-7.1.3-2.9.7-5.8,1.6-8.5.9-4.6,2.6-8.9,4.3-13,.3-.8.6-1.5.9-2.3v-.2c0,0,.2-.2.2-.2,1.6-2,3.1-4.2,4.5-6.5l.2-.2.2-.2c1-.8,2-1.7,3-2.6,3-2.7,6-5.6,11.6-7.1.2-.2.5-.5.9-.6,3.9-1.4,7.4-2,10.8-2.6.9-.2,1.9-.3,2.8-.5h.4c0,0,.4,0,.4,0,.6.2,1.4.2,2.2.2,1.1,0,2.3,0,3.4.4,1.2,0,2.2.4,3.1.7.7.2,1.3.5,1.9.5h1c0,0,.4,1,.4,1,.1.3.3.4.9.7.3.2.7.4,1,.7l.3.3.4,1c.8,2,1.8,4.2,1.8,6.4v.8s-.6.5-.6.5c-1.1.9-2.7,1.3-4.3,1.8-.7.2-1.3.4-1.8.6h-.3c0,.1-.4,0-.4,0-2.2-.2-4.8-.4-7.4-.4-5.8,1.5-10.7,3.6-14.6,6.1-.7.6-1.3,1.2-1.9,1.9-.8.9-1.6,1.7-2.6,2.5h0s0,0,0,0c-.5.4-.9.9-1.3,1.7-.4.8-.9,1.7-1.9,2.5-.1.8-.4,1.5-.7,2.1-.1.3-.3.6-.4.9h0c0,.1,0,.3,0,.3-.1.3-.3.6-.4,1-.2.6-.4,1.2-.8,1.8.1,1.1-.1,2-.4,2.7,0,.2,0,.3-.1.5,2.1-.1,5.1-1.7,6.9-2.6h.1c0,0,.2-.1.2-.1h.3c2.7-1,5.4-2,7.8-2s4.1.9,5.2,2.7h0c0,.1,0,.3,0,.3.7,1.7.5,3.1.3,4.1,0,.5-.1.9-.1,1.3v.6s-.4.5-.4.5c-1.3,1.6-3,3.4-5.9,4.5-.8.5-1.7,1-2.5,1.4-1.1.6-2.3,1.1-2.9,1.8l-.3.3h-.5c-2,.6-3.4,1.5-4.8,2.4-.4.2-.7.5-1.1.7-.1.2-.2.3-.4.5-.9,1.2-1.4,1.8-1.1,2.9.4,0,.8-.3,1.2-.4h.1c1.3-.4,1.7-.8,1.8-.9l.2-.3.4-.2c2-1,3.6-2.2,5.3-3.5,3-2.2,6-4.4,11-5.7h.4c0-.1.4,0,.4,0,.2,0,.6,0,.8,0s.4,0,.6,0c.2,0,.5,0,.7,0,.8,0,1.7,0,2.6.5l.6.3,2.4,8.1-.8.7c-3.9,3.5-8.9,6.4-13.7,9.3-.2.1-.4.2-.6.3.4.1.9.3,1.4.6.8,0,1.5.3,2.1.5.6.2,1.1.4,1.7.4s.4,0,.6,0h.4c0,0,.4,0,.4,0,.9.3,2,.4,3.4.4s3-.2,4.7-.3c1,0,1.9-.2,2.9-.3l8.3-2.5c4.9-2.4,8.4-5.5,12-8.7,1.3-1.2,2.7-2.5,4.2-3.7l.3-.3h.4c.1-.1.2-.2.4-.3.3-.2.8-.6,1.6-.8.7-.6,1.8-1,2.6-1s.6,0,.8.1h0c1.4,0,2.1,1,2.4,1.8.4.3.7.7.9.9,0,0,.1.2.2.3l.4.3.2.4c.9,1.9.9,3.4.8,4.6,0,.6,0,1.2,0,1.8l.2.9-.7.6c-.1,0-.3.2-.2.8v.6c.1,0-.2.5-.2.5-4.8,8.6-12.1,14.8-22.3,19h0s-5.2,1.6-5.2,1.6h0c-4.9,1-9.6,1.5-14,1.5h0ZM336.1,317.8c-3.8,0-7.2-1.7-10.3-5.1l-.2-.2v-.3c-1.7-5.9-1.4-10.7-1-14.2v-.2s.1-.2.1-.2c1-2,2.5-3.6,4.1-5.1.5-.5,1-1,1.5-1.6l.3-.3h.4c3-.8,6-1.1,9.6-1.1h.8s1,.7,1,.7c3,2.2,6.3,4.7,7.7,10.6h0c0,0,0,.2,0,.2.9,7.4-2.8,12.9-10.8,16.4h-.1c0,0-.1,0-.1,0-1,.2-2,.3-3,.3ZM165.6,319c-2.7-.8-5.1-2.3-7-4.4-2,1.2-4.6,1.9-7.2,2.6l-.9.2-.7-.6c-1.5-1.3-3.4-3.3-4.1-7.2-.4-2.4.2-4.3.7-6,.3-1,.6-2,.7-3v-.5s.3-.4.3-.4c.5-.7.7-1.8,1-2.9.3-1.4.6-3.1,1.7-4.5l.2-.3.3-.2c1.8-.9,3.5-1.3,5.3-1.3s1.9.1,2.8.2c.8.1,1.5.2,2.3.2s.4,0,.6,0h1.4c0-.1.4,1.2.4,1.2.3,1.3.9,2,1.7,2.9.6-1.5,1.6-4.1,4.7-4.1h1.1s.2.5.2.5c0,0,.1,0,.2,0,.3,0,.7-.1,1.1-.1.8,0,1.5.3,2,.8,1.4.2,2,1.5,2.3,2.2,0,0,0,.1,0,.2l1.2-.2.2,1.7c.1.9.6,2.1,1,3.3.8,2.2,1.7,4.5,1,6.3.1,2.1-1.4,3.2-2.4,3.9-.4.3-1,.7-1,.9v.7s-.6.5-.6.5c-1.2,1.1-2.4,2.3-3.2,3.8l-.4.8h-.9c-1,.2-1.3.5-2,1-.8.6-1.8,1.4-3.7,1.6h-.3s-.3,0-.3,0ZM119.8,283.6c-.7,0-1.4,0-2,0h-.5s-.4-.3-.4-.3c-3.8-2.7-5.6-8.4-6.9-13.6l-.2-.9.7-.7c1.3-1.2,2.2-2.8,3.3-4.4,2.4-3.8,5.2-8.2,11.9-8.4h.6s.5.4.5.4c3.6,2.9,7,5.8,10.2,9.2l.3.3v.4c1.1,4,.3,8-2.2,11.3-3.3,4.3-9.1,6.9-15.2,6.9h0ZM123.1,263.5c0,.6.3,1.4.7,2,.2.3.4.5.5.6.2-.2.5-.3.7-.4l-.5-1.8c-.3,0-.6-.2-.9-.3-.2,0-.4-.1-.5-.2ZM298.1,281.2c-.2-.5-.4-.7-1.1-1.2-.2-.1-.5-.3-.8-.5-.6,1.1-1.6,2.1-3.4,2.6l-.8.2-.7-.5c-4-2.8-5.3-9.2-4.3-13.6.2-.9.9-1.5,1.4-2,.1-.1.3-.2.4-.3,0,0,0-.2,0-.3-.1-.6-.3-1.5.3-2.4.4-.7,1-1,1.5-1.3l-.7-1.9h2.6c0,.1,1,.2,1,.2,2.2.1,4.4.3,6.4,1.2l.6.3.2.6c.3.8.8,1.3,1.3,2,.5.6,1.1,1.4,1.6,2.4.8-.8,1.1-1.9,1.6-3.5.5-1.8,1.1-3.9,3-5.5h0c0,0,.1-.1.1-.1,1-.6,1.9-.8,2.8-.8s.7,0,1,0c.2,0,.4,0,.6,0s.4,0,.5,0c.5-.2,1-.3,1.5-.3,1.4,0,2.3.7,3,1.3.5.4.8.6,1,.6s.3,0,.4-.1h.1s.1,0,.1,0c1.1-.2,1.6-.7,2.4-1.4.7-.6,1.6-1.4,2.9-1.9h.2c0,0,.2,0,.2,0,.2,0,.4,0,.7,0,2.8,0,6.6,1.4,8,8.1v.5c.1,0,0,.5,0,.5-1.8,4.8-8.8,8-14.1,8h0c-1.6,0-3-.3-4.2-.8-.8.7-1.2,1.7-1.7,3.1-.2.6-.4,1.1-.6,1.7l-.4,1s-1.1,0-1.1,0h0c-.1.5-.4,1.4-1.2,1.9-.5.8-1.4,1.1-1.9,1.4,0,0,0,0-.1,0l.3,1.1-1.8.3c-1,.2-1.8.2-2.5.2h-1.4c-1,0-2,0-3,.3l-1.6.4-.5-1.6ZM310.1,231.6c-1,0-2.1,0-3.2-.2h-.4c0,0-.4-.3-.4-.3-1.4-1.1-2.8-2.3-4.1-3.5-.5-.5-1-1-1.6-1.4l-.3-.2v-.3c-1.5-2.9-1.5-5.3-1.6-7.3,0-1.3,0-2.5-.4-3.8l-.2-.9.6-.7c.6-.6,1.1-1.3,1.7-2,.9-1.2,1.9-2.5,3.3-3.6l.2-.2h.3c2.1-.8,4.1-1.1,6.2-1.1,2.9,0,5.4.7,7.2,1.4h.4c0,.1.3.5.3.5,4.7,5.3,6.1,14.3,3.2,19.7l-.2.3-.3.2c-3.3,2.5-6.7,3.6-10.8,3.6h0Z"/>
</svg>