<?xml version="1.0" encoding="UTF-8"?>
<svg id="Layer_1" xmlns="http://www.w3.org/2000/svg" version="1.1" viewBox="0 0 512 512">
  <!-- Generator: Adobe Illustrator 30.1.0, SVG Export Plug-In . SVG Version: 2.1.1 Build 136)  -->
  <path d="M423.8,92.4c-4.5-4.5-9.9-8.3-15.2-11.4l-10.6,7.6s-3.8,1.5-1.5,9.1c3,7.6,6.8,17.4,6.8,17.4l.8,13.6c0,5.3,1.5,9.1-2.3,12.9-3.8,3.8-7.6,6.1-14.4,10.6l-9.9,4.5-7.5-.7c-4.5,0-8.3-1.5-12.9-3.8s-5.3-6.1-7.6-8.3q-3-2.3-3-6.1s-2.3-5.3,0-12.9,3-19.7,3-19.7l-1.5-9.9-6.8-9.9c-2.3-3-5.3-3-8.3-1.5-3.8,2.3-6.8,4.5-9.9,7.6-5.3,5.3-6.8,10.6-9.9,16.7-1.5,3-6.8,9.1-7.6,12.9-4.5,12.9-4.5,25.8-1.5,37.9,1.5,7.6,3,14.4,6.1,22.7,3.8,3.8,7.6,12.9,12.9,16.7,4.5,1.5,9.1,5.3,12.9,5.3,3,3,6.1,3,9.1,3.8v.8c-1.5,0-4.5,44.7-3,50.8v3c-2.3,11.4-1.5,22.7-4.5,34.1.8,12.1-.8,25-.8,37.1-1.5,12.1-2.3,24.3-3.8,36.4.8,6.1,0,12.1,0,18.2,1.5,3-.8,8.3,0,9.9,2.3,2.3-.8,9.1,3.8,11.4,3.8,4.5,7.6,11.4,11.4,11.4,1.5,1.5,3.8,3,6.1,3.8,3.8,3,9.1,6.1,11.4,4.5,3,.8,5.3.8,8.3.8s3,0,5.3-.8v.8l2.3-.8c4.5-.8,9.1-3,12.9-5.3l4.5-1.5c5.3-3.8,12.9-12.9,13.6-17.4,2.3-4.5,3.8-12.9,2.3-17.4-1.5-9.1.8-15.2-2.3-24.3v-.8c0-3,.8-8.3,0-11.4,0-3,1.5-6.1-.8-9.1v-18.9c-.8-3-1.5-6.8-2.3-9.9l-.8-8.3v-3q0-.8-.8-1.5l-2.3-34.1c0-9.9.8-16.7-1.5-18.2l-1.5-18.2c1.5-.8.8-6.1-.8-9.9v-6.1h2.3c1.5.8,3.8-1.5,5.3-1.5,2.3.8,3.8-4.5,6.1-3.8,3.8-3,7.6-5.3,11.4-7.6,3.8-3.8,6.8-7.6,10.6-11.4-.8-.8,0-1.5,1.5-3,3-7.6,3.8-15.2,5.3-22.7,0-3-.8-5.3-.8-7.6,4.7-21.2-1.4-45.4-19.6-63.6ZM395.1,226.5s.8,0,1.5.8c.8,2.3.8,8.3,1.5,10.6-3-2.3-7.6-3.8-7.6-3.8,0,0,.8-8.4,4.6-7.6ZM388.2,240.1c.8,0,6.1,3,11.4,7.6,0,0,.8,2.3.8,3v7.6c-6.8-4.5-12.9-8.3-13.6-8.3-.8-2.3,0-9.1,1.4-9.9ZM386.7,259.8c.8,0,6.1,3,12.1,6.8-.8,3.8.8,9.9.8,9.9v.8c-6.8-3.8-13.6-8.3-14.4-8.3-2.3-2.3,0-9.2,1.5-9.2ZM400.4,298.5c-6.1-3.8-13.6-8.3-14.4-9.1-1.5-2.3.8-9.9,2.3-9.9,0-1.5,5.3,3,9.1,6.1l3,12.9ZM393.5,396.3c-.8,2.3-3.8,6.1-6.1,7.6-5.3,5.3-12.1,6.1-20.5,5.3-3,0-6.8-3.8-9.9-6.1-3-3-4.5-9.1-5.3-13.6,0-3.8.8-5.3,2.3-9.1.8-2.3,2.3-3.8,3.8-5.3s2.3-2.3,3.8-3c2.3-1.5,5.3-2.3,8.3-2.3s3.8,0,6.8.8c3.8.8,9.1,2.3,12.1,5.3,6.3,6,8.5,12.8,4.7,20.4ZM403.4,319.7c-5.3-3.8-10.6-7.6-10.6-8.3-.8-1.5,0-8.3,2.3-9.1.8,0,3,.8,6.8,3.8l1.5,13.6ZM420.1,200c-1.5.8-2.3,1.5-3.8,1.5-3-3-6.1-6.1-6.1-6.8-.8-1.5,4.5-6.1,5.3-5.3,0,0,3.8,3.8,7.6,6.8-1.5.7-3,3.8-3,3.8ZM427.6,190.1c-7.6-2.3-11.4-11.4-11.4-12.1s3-4.5,4.5-4.5,6.1,4.5,11.4,9.1c-.7,2.2-2.9,5.3-4.5,7.5ZM435.2,176.5c-3-3-6.8-5.3-6.8-6.1-.8-1.5,5.3-6.1,6.1-5.3,0,0,2.3,1.5,4.5,3.8-1.5,2.3-3,6.1-3.8,7.6ZM270.3,131.4c-3.8-5.3-6.9-9.9-11.4-15.2l-17.5-13.7c-8.4-5.3-15.2-9.1-22.8-12.9-3.8,0-7.6-1.5-11.4-1.5-3.8-1.5-26.6-4.6-34.3-3.8-7.6-2.3-9.1-.8-16,0-7.6,0-13.7,1.5-20.6,7.6-3,3.8-3.8,3.8-6.1,7.6-4.6,0-6.1.8-10.7.8,1.5-5.3,0-6.9-4.6-10.7-3.8-3.8-12.2-2.3-15.2-3-4.6-.8-3.8-.8-8.4-.8-7.6,1.5-9.9-1.5-16.7,6.9-3,6.1.8,8.4-1.5,14.5.8,5.3,0,6.1,0,11.4-.8,4.6,1.5,18.3.8,19-.8.8,0,.8,0,1.5,0,3.8-.8,6.9,2.3,9.9,4.6,3.8,7.6.8,12.2,3.8,3.8,0,14.5-2.3,18.3-3.8,5.3-9.1,4.6-9.1,11.4-16,5.3-.8,4.6,1.5,10.7,3,3.8,2.3-.8,9.9,2.3,10.7,2.3,14.5-2.3,29.7,0,43.4,3,3.8,1.5,12.9,2.3,16-3,12.9-9.9,50.2-9.1,51-1.5,3.8-.8,7.6-.8,11.4-3,14.5-2.3,43.4-.8,57.1-1.5,3,0,9.1-1.5,12.2.8,6.9,0,36.5,1.5,39.6,0,6.9-2.3,18.3-1.5,25.1,3,6.1.8,13.7,7.6,19.8,3,3,5.3,0,8.4-.8,2.3,2.3,4.6,3,6.1,3.8,8.4-.8,19.8.8,28.2-.8,3.8-.8,8.4,2.3,12.9,0,8.4-8.4,3-14.5,5.3-22.1-1.5-6.9,2.3-19.8,1.5-26.6-1.5-13.7.8-28.2,0-41.9-1.5-6.9-2.3-13.7-3-20.6,0-7.6-1.5-14.5-.8-21.3-1.5-6.9,0-14.5-2.3-21.3.8-3.8.8-6.9,0-10.7,1.5-3.8-5.3-41.9-5.3-47.2s.8-12.2-6.1-14.5v-7.6h0c3.8,1.5,7.6,1.5,10.7-1.5,3-7.6-1.5-14.5-1.5-22.1,6.1-6.1,2.3-10.7,1.5-16,0-3.8,0-7.6.8-11.4,3-1.5,5.3-3,8.4-3,3,.8,5.3-.8,8.4-.8,13.7.8,25.9,4.6,40.4,11.4,9.1,5.3,13.7,12.2,21.3,14.5,3-1.5,6.1-1.5,8.4-5.3,2.3-4.6.8-8.4,0-12.2.5-5.3-1.8-9.1-1.8-12.9ZM148.5,329.4c0-.8,1.5-.8,1.5,0h-1.5ZM168.3,147.4c.8,0,3.8,1.5,6.9,3.8,0,4.6.8,8.4,1.5,12.2-6.1-4.6-12.2-8.4-12.9-9.1,0,0,3-6.9,4.5-6.9ZM161.5,269.2c-1.5-1.5.8-6.1,2.3-6.9.8,0,6.9,3.8,12.9,7.6-.8,3.8-.8,6.9-.8,6.9v3c-6.9-3.8-12.9-7.6-13.7-8.4l-.7-2.2ZM179.7,321c-5.3-3.8-10.7-7.6-10.7-8.4-.8-1.5,1.5-6.9,3-7.6.8,0,3,1.5,6.9,3.8l.8,12.2ZM164.5,293.6c-1.5-2.3,1.5-9.1,3-8.4.8,0,4.6,2.3,9.1,4.6v2.3l1.5,10.7c-6.7-4.7-12.8-8.5-13.6-9.2ZM177.5,250.9v9.1c-6.1-3-12.2-6.1-12.9-6.1-.8-.8.8-9.9,2.3-10.7.8,0,5.3,2.3,9.9,6.1-.1,1.6.7,1.6.7,1.6ZM175.2,231.1c0,.8,0,1.5.8,3,.8,2.3.8,4.6.8,6.9-4.6-3-8.4-6.1-8.4-6.1,0,0,.8-6.1,3-6.1,0,.1,1.5.8,3.8,2.3ZM168.3,172.5c-.8-1.5,2.3-7.6,3-6.9,0,0,3,2.3,6.1,4.6v9.1c-3.7-3-8.3-5.3-9.1-6.8ZM177.5,142.1c-.8,1.5-.8,2.3-1.5,3.8-3-2.3-5.3-4.6-5.3-4.6-.8-1.5,3-5.3,3.8-5.3,0,0,2.3,1.5,4.6,3.8-.9.7-1.6,1.5-1.6,2.3Z"/>
</svg>