<svg viewBox="0 0 512 512" xmlns="http://www.w3.org/2000/svg"><path fill="#69a9a9" d="m437 230.5c-8.3-64.5-38.2-117.2-116.4-141.7-71.6-22.5-135.8-5.6-174.2 17.2-51.7 30.6-115.4 154.3-34.2 266.7 59.8 82.8 192.9 68.7 243.3 38.1 37.6-22.7 92.9-91.1 81.5-180.3zm-70.3-14.6c-.9.4-1.6 1-1.9 2-1.7.7-3.9.8-6.4.7-6.2 5.3-14.8 8.1-20.4 14-4.2 1.6-6.7 5-10.2 7.4-3 2.7-20.5 19.5-26.2 25.4-5.9 5.6-12.5 10.5-17.9 16.7-2.7.3-13.6 12.5-17.3 17.4-5.6 5.9-10.2 12.9-15.3 19.4-5.9 5.7-19.7 26.8-21.7 30.7-3.1 2.5-4.3 7.1-10.9 6-3.7-.6-4.7-4-6.4-6.7-2.1-2.2-13.3-21.3-14.1-24.7-6.3-10.1-21.4-31.6-23-34.1-1.3-6-4.8-9.7-5.8-16-.9-1.5-2.6-2.2-3.8-3.3-.4-1.8-1.3-3.1-2.6-4v-4c-3.8-6.4-8.1-12.5-8.9-22.1.8-.1.5-1.2.6-2 3.5-4.6 10-6 15.3-8.7 1.8-2.1 8.7-6.9 10.2-7.4.7-1.3 2.9-.9 3.8-2 2.8-.1 4 1.6 6.4 2 1.2 1.5 5 .1 6.4 1.3 3.1 4.8 5.9 9.9 9.6 14 3.5 4.4 12.7 18.8 14.1 21.4 1.5 2.4 9.3 17.9 11.5 23.4 4.5-4.6 6.5-11.9 10.9-16.7 1.1-3.5 3.3-5.9 5.1-8.7 1.5-2.9 3.2-5.6 5.1-8 7-11.1 14.3-22 23-31.4 1.4-3.2 17.4-19.2 19.8-21.4.8-1.3 18.6-16.9 21.7-18 2-2.6 5.5-3.6 7.7-6 3.1-1.2 5.1-3.6 8.3-4.7.5-.6 1.2-1 1.9-1.3h2.6c3.8.7 6.1 3 7 6.7 2.1-1.1 4.9-.7 6.4.7 2.6 2.2 7.4 16.3 8.3 20.1 2.1 2.4 3.1 6.1 5.1 8.7.5 4.1 3.3 5.9 3.2 10.7-1.1 0-.3 2.1-1.2 2.5z" fill-rule="evenodd"/></svg>