<?xml version="1.0" encoding="UTF-8"?>
<svg id="Layer_1" xmlns="http://www.w3.org/2000/svg" version="1.1" viewBox="0 0 512 512">
  <!-- Generator: Adobe Illustrator 30.1.0, SVG Export Plug-In . SVG Version: 2.1.1 Build 136)  -->
  <defs>
    <style>
      .st0 {
        fill: #fff;
      }

      .st0, .st1 {
        fill-rule: evenodd;
      }
    </style>
  </defs>
  <path class="st1" fill="#5d9b9a" d="M152.4,125.2c33.2-19.3,98.3-28.1,160.3-9,67.7,20.8,93.7,74.5,100.9,129.2,9.9,75.7-12.4,118.9-44.9,138.2-43.7,26-184.6,43.9-236.4-26.4-70.3-95.4-24.7-206,20-232Z"/>
  <path class="st0" d="M355.8,202.2c-1.9-2.4-2.9-5.7-4.9-8-.8-3.5-3.1-5.5-3.7-9.2-2-2.5-1.8-7.2-4.3-9.2-1.4-1.2-4.1-1.6-6.1-.6-.9-3.4-3.1-5.5-6.8-6.1h-2.5c-.7.3-1.4.7-1.8,1.2-3.1,1-5,3.1-8,4.3-2.1,2.2-5.5,3.1-7.4,5.5-3,1.1-4.6,3.5-7.4,4.9-2.1,2.2-5.1,3.5-6.8,6.1-1.6.2-2.6,1.5-3.7,2.5-1.1.9-2.3,1.8-3.1,3.1-2.3,2-4.7,3.9-6.8,6.1-2.3,2-4.2,4.4-6.1,6.8-2.3,2-4.8,3.8-6.1,6.7-8.4,8.6-15.4,18.6-22.1,28.8-1.8,2.2-3.5,4.7-4.9,7.4-1.7,2.6-3.8,4.8-4.9,8-4.2,4.4-6.1,11.1-10.4,15.3-2.1-5-3.9-10.4-7.4-14.1-.8-2.9-2.2-5.1-3.7-7.4-1.3-2.3-2.3-5.1-4.3-6.8-2.4-5-5.8-8.9-9.2-12.9-3.5-3.8-6.3-8.5-9.2-12.9-1.3-1.1-5,.1-6.2-1.2-2.3-.3-3.4-1.9-6.1-1.8-.9,1-3,.7-3.7,1.8-1.4.4-1.6,2-3.1,2.5-2,1.7-5,2.4-6.8,4.3-5.1,2.4-11.4,3.8-14.7,8,0,.7.1,1.7-.6,1.8.8,8.8,4.9,14.3,8.6,20.3v3.7c1.2.8,2.1,2,2.5,3.7,1.2,1.1,2.8,1.7,3.7,3.1,1,5.8,4.3,9.2,5.5,14.7,1.5,2.3,4.2-.4,4.9,2.5,5.6,9.7,11.2,19.5,17.2,28.8.8,3.1,2.3,5.5,3.7,8,1.6,2.5,2.7,5.5,4.9,7.4,1.2,2.9,2.9,5.3,4.9,7.4,1.7,2.4,2.6,5.6,6.1,6.1,6.3,1,7.4-3.2,10.4-5.5,1.9-3.6,5.1-6,6.8-9.8,4.7-6.2,8.5-13.2,14.1-18.4,4.9-5.9,9.3-12.4,14.8-17.8,3.5-4.5,8.1-7.8,11.7-12.3,2.1-.8,2.3-3.4,4.9-3.7,5.2-5.7,11.5-10.2,17.2-15.3,5.4-5.4,11.3-10.4,17.2-15.3,2.4-3,5.1-5.5,8-8,3.4-2.2,5.8-5.3,9.8-6.8,5.4-5.4,13.7-8,19.7-12.9,2.4.1,4.5,0,6.1-.6.4-.9,1-1.5,1.8-1.8.8-.4,0-2.4,1.2-2.5.1-4.4-2.6-6-3.1-9.8ZM217,293.1c-.9,1.3-1.2,3.3-2.5,4.3.5,3.3-.8,5-.6,8-1.4-1.5-.2-5.5-.6-8-1-1.5-.5-4.5-2.5-4.9-1.9-.3-2.5.8-3.1,1.8-1.7.1-.2,3.5-2.5,3.1.7-10.8-.1-15.5,0-28.2-.8-3.1-.8-6.9-4.3-7.4-3.7.2-4.1,3.7-4.9,6.8-1.1,3-1.3,6.9-1.8,10.4-1.3-1-1.6-3-2.5-4.3.7-9.1,1-18.6,1.2-28.2-.4,0-.7,0-.6-.6-.8-1.4-5.9-1.9-7.4-.6-1.8-1.8.9-4.4,0-7.4,2.6-.1,2,2.9,3.1,4.3,1.3,1.3,4.4.9,4.3,3.7.4,0,.7,0,.6.6,6.7,7.4,12.7,15.6,17.2,25.2-.4,1.7,2.9-.4,2.5,1.2,2.5,5.5,4.3,11.7,7.4,16.6-.2,2-1.8,2.7-3.1,3.7ZM221.9,322.5c0,.8-.8.9-.6,1.8-1.7-.2-1.3-2.1.6-1.8,0-.7.9-.4,0,0ZM223.7,320.7c-.3-.3.4-.8.6-.6.3.3-.4.8-.6.6ZM235.4,303.5c-1.4,1.5-3,2.7-3.7,4.9-3.2,2.8-5.5,6.3-6.8,11-1.6-.8-.1-3.8,0-4.9v-16c-.2-2.2-.8-4.1-1.2-6.1,2.5.3,2.4-2.1,3.7-3.1,1.6-.6,2-2.5,3.1-3.7,2.6-1.7,4.3-4.3,6.1-6.7,1.7.6-.2,2.6,0,3.7v10.4c0,2.9,2.8,2.9,3.1,5.5-2,1-2.8,3.3-4.3,4.9ZM257.5,278.9c-1.5,1-2.7,2.2-3.7,3.7-1.9.3-1.6,2.9-3.7,3.1-.2-6.6.8-14.3-1.8-18.4,1.4-3.3,4.3-5.1,6.8-7.4,1.7-2.8,4.2-4.8,6.1-7.4.5-.1.6.2.6.6-.5,4-1.8,7.2-1.8,11.7.6,2.5,1.7,4.4,3.7,5.5-1.6,3.3-4.4,5.4-6.1,8.6ZM333.7,210.2c-6.5,2.5-11.3,6.8-16.6,10.4-5.1,3.7-9.8,7.8-14.1,12.3-1-.9-.7-3-1.8-3.7-3,1.1-3.8,4.4-3.7,8.6-1.2,1.2-2,2.9-3.7,3.7-1.9.6-1.9,3-4.3,3.1,0-3.3-.6-6-3.1-6.7-5.6.2-5,6.5-6.8,10.4v4.9c-.3,2.6-2.9,2.8-3.7,4.9-1.5-.1-1.9.9-2.5,1.8-.9-.3-1.5,2.4-1.8.6-.7-5.4,2.2-14.4-3.7-14.7,4.3-6.4,8.9-12.4,14.1-17.8,1.7-3.7,5.2-5.4,7.4-8.6,2.4-2.9,5.1-5.6,8-8,5.4-5.2,11.6-9.7,17.2-14.7,3.1-2.2,6.4-4.3,9.2-6.8,3.1-2,6.7-3.5,9.2-6.1h1.8c1,7.8,4.4,13.2,6.8,19.6-3.5,1.4-5.8,4-8,6.7Z"/>
</svg>