<?xml version="1.0" encoding="UTF-8"?>
<svg id="Layer_1" xmlns="http://www.w3.org/2000/svg" version="1.1" viewBox="0 0 512 512">
  <!-- Generator: Adobe Illustrator 30.1.0, SVG Export Plug-In . SVG Version: 2.1.1 Build 136)  -->
  <defs>
    <style>
      .st0 {
        fill-rule: evenodd;
      }

      .st1 {
        fill: #fff;
      }
    </style>
  </defs>
  <path class="st0" fill="#5d9b9a" d="M152.4,125.1c33.2-19.3,98.3-28.1,160.3-9,67.7,20.8,93.7,74.5,100.9,129.2,9.9,75.7-12.4,118.9-44.9,138.2-43.7,26-184.6,43.9-236.4-26.4-70.3-95.4-24.7-206,20-232h0Z"/>
  <path class="st1" d="M312.9,217.9h-5.5c-3.9-.2-6.3,1-10.4.5-6.2,1.1-14.8-.1-20.9,1.1-3.1-.9-7.6-.5-11.5-.5s-2.5-1.9-4.9-1.6c-10.1-.1-17.5.5-26.9,0-.8.3-1.4.8-2.2,1.1-2.8.5-6.3.2-8.8,1.1-3.5-.2-5.9.7-6,3.8,1.3,4.5,6.6,2.7,11.5,2.7,4.3-.8,9.7-.5,14.3-1.1,7.4,2.1,18.7.3,26.9,1.6,7-1.3,16.6.2,23.6-1.1h15.4c4.9.5,10.4-1.2,8.8-5.5,0-1.8-1.6-2.1-3.3-2.2h-.1ZM336,315.5c-.9-6.2-1.3-13.3-.5-19.7.5-13.8.4-28.1,1.1-41.7.3-14.6-.8-27.7-2.2-40.6,0-14.3.2-28.7-2.7-40-3.9-2.4-10.7-1.7-15.9-2.7-6.8-.2-5.1-8.8-11.5-9.3h-1.1c-7.9-1.2-15.5,1.4-24.2,1.1-2,.4-2.7-1.2-1.6-2.2,1.1-.4-.1-3.1,1.1-3.3.4-3.3-.5-5.3-1.6-7.1-.4-1.3-1.8-1.5-2.2-2.7-1.5-1.3-3.3-2.2-4.9-3.3-1.3-1.3-4.7-.5-6-1.6h-6.6c-1,.9-2.9.7-4.4,1.1-1,.6-2.6.7-3.8,1.1-2.6.7-4.6,2-6.6,3.3-.5,1.1-1.1,2.2-1.6,3.3.3,1.3-.7,4,.5,4.4-.4,2.5,5.2,4.4,1.1,5.5-4.9.5-7.3-1.5-12.1-1.1-1.9-1.1-3.2,0-5.5,0-.8-1.4-2-2.4-4.4-2.2-5.4,2.1-3.5,11.5-9.3,13.2-5.5-.4-9.5.7-14.8.6-4.3,1.6-9-.3-13.2-.6-.2,1.3-1.9,1-1.6,2.7-2.2,1.4-1.8,5.5-2.7,8.2,0,3.7-1,6.4-.5,10.4-1.3,33.3-1.1,68-1.1,102.6.3,1.5-.7,4.4.5,4.9,0,7.3-.2,14.8.5,21.4,0,3.6.6,7.9-1.6,9.3v10.4c.9,2.4,5.1,1.5,7.1,2.7,3.2.1,6.1.5,8.8,1.1,7.5.4,15.1,0,23.1,0,22.3,0,47.8,1.5,70.8,0h19.2c5.9-1.3,10,1.9,16.5,1.6,2.6-.7,5.7-2.6,8.2-1.6,1.2-1.7,2.9-3,3.8-4.9,1.8-1,2.2-3.3,3.3-4.9.8-5.6-1.5-12.3-1.1-19.2l-.3-.2ZM303.6,175.7c.6,3.2,3.4,4.2,3.3,8.2-12.8.8-26.1.9-39.5,1.1,1.6-3.7-.9-6.9-3.3-8.2-1.7,1.4,1.8,2.2,1.1,4.4-2.3.6-1.7,4.1-4.9,3.8-1.1-1.9,1.7-4,2.2-6,.5-2.1-1.2-3.2,0-4.4,14.4-.3,27.1,1.1,41.2,1.1h-.1ZM256.9,152.6c3.7.2,8.2-.5,11,.6.6,2.9,1.2,5.8,2.2,8.2-2.8,1.7-5.4.4-9.3.6.6-5-1.9-6.9-4.4-8.8-.1-.5.2-.5.5-.6h0ZM255.8,178.4c.1-.4,0-1.1.5-1.1-.4-1.5,1.1-1.1,1.1-2.2,1.5.5-.5,2-1.1,2.2-.1.4,0,1.1-.5,1.1.5,2.3-1.6.1,0,0ZM253.6,160.3c0,.5-.7.4-1.1.5,0-.5.7-.4,1.1-.5ZM254.2,180.6c1.8,0,2,3.3,1.1,4.4-1.3.2-2.1,0-2.7-.5-.1-2,1.6-2,1.6-3.8h0ZM250.3,175.1c1,.9-.2,2.2-1.6,2.2-.2-1.4.2-2.4,1.6-2.2ZM248.7,177.9c.3.3-.4.7-.5.5-.3-.3.4-.7.5-.5ZM247.6,180.1c.3.3-.4.7-.5.6-.3-.3.4-.7.5-.6ZM247,181.2c.3.3-.4.7-.5.5-.3-.3.4-.7.5-.5ZM245.9,183.3c.3.3-.4.7-.6.5-.3-.3.4-.7.6-.5ZM237.7,180.1c1.7.3.7,5.3-1.6,4.9,0-2.2,1.7-2.7,1.6-4.9ZM232.8,167.4c.3.3-.4.7-.6.5-.3-.3.4-.7.6-.5ZM227.3,166.9c-.5,1.7-3.5,3.1-4.9,2.2.4-2,2.3-2.5,4.9-2.2ZM226.7,184.4c-.3-.3.4-.7.5-.6.3.3-.4.7-.5.6ZM218.5,177.9c2.3.7,0,2.3,0,3.8-1.2.8-.5,3.6-2.7,3.3,0-3.4,2.2-4.4,2.7-7.1ZM189.4,179.5c-.3-.3.4-.7.6-.5.3.3-.4.7-.6.5ZM325.5,325.9c-8,1.9-18.1,1.7-28,1.6-12.6,2.1-28.6.7-42.8,1.1-2.4-.2,0-5.1-2.7-4.9-4.3-.5-4.7,3-6.6,4.9-3.3-.3-8.2.4-9.9,0,.4-2.1,1-4.6,0-6.6-5.6-.8-5.4,4.1-7.7,6.6h-8.8c-.2-1.8.7-4.7-1.1-4.9-3.3-.2-3.9,2.3-5.5,3.8-1.1,1.8-4,1.8-7.1,1.6.1-2.5.4-4.7,1.1-6.6.4-2,1.8-3.6,0-4.9-3.4.3-3.4,3.9-5.5,5.5-.9,2.7-3.6,3.7-4.4,6.6-1.5-1.2,0-3.9,0-5.5.7-1.3.9-3.1,1.6-4.4.5-3.2,3-6.4,1.6-9.9-3.1-.5-3,2.1-4.9,2.7-.7,1.3-1.8,3.9-3.3,2.7-1.5-1-1-4.1-1.1-6.6-.2-2.7,0-5,.5-7.1v-34c.3-2.4,1.3-4.2,1.6-6.6.7-2.4-2.1-1.2-1.6-3.3.4-25.4-.3-49.8-1.1-74,0-2.3.8,0,1.6,0,.5.8,1.4,1.2,2.7,1.1,4.4.2,7.4-1,12.1-.5,0,2.4-1.5,3.2-1.6,5.5,2.6,4.5,9.6,3.3,15.9,3.3h18.7c7.2,1.4,17.5-.3,24.7,1.1,16.5.4,31.5-.7,47.8-.5,2.2-.9,4.7-1.5,6.6-2.7.8-4.6.5-8.5-1.6-11.5,0-1.6,2.3-1,3.8-1.1,0,2.2-1.1,3.3-1.1,5.5v24.7c-2.1,38.4,6.9,70.7,5.5,110.2.1,2.4.9,4.2.5,7.1h.1ZM225.1,249.7c2.1.1,4.1,0,5.5-.6,1.6.3,1.7,1.9,3.8,1.6,2.6,0,2.6-2.5,4.9-2.7,1.7,1.2,2.9,3,5.5,3.3.9-.9,3-.7,3.8-1.6,1.4-.5,2.2-1.5,3.8-1.6,1.8,0,1.9,1.8,3.8,1.6.4-1.2,3.1-.2,4.4-.6,1.9-.6,3-2.2,5.5-2.2,2.2.2,3.8.9,6,1.1,4.7.4,9.1-.4,13.2-.5,2.2,0,5.4-.2,6,.5.3.4.7-.5.6-.5,4-.1,6.2,1,9.3,1.1,1.9-.7,4.7-.4,6-1.6.3-2.5-.3-4.1-.5-6-10.2-.9-21.6-.1-31.8.5-1.1-.3-1.8-1.2-2.7-1.6-.5-1.2-2.8-.5-3.3-1.6-8.9.1-18.5,2.2-27.4.5-.9,1.9-4.9.6-6.6,1.6-2.6.1-4.7.8-7.1,1.1-3.4-.3-5.8.4-8.8.6-3.1,0-5.2,1-5.5,3.8.7,4.4,7.4,2.8,11.5,3.8h0ZM299.7,299.1c-2.4-3.4-6.9-1.7-11-1.6-4.3,0-10.3-.3-13.2,0-4.7.4-9.1,1-12.6,2.2-2.9-2.2-7.4-.4-11.5-.5-2.4,0-4.4-.8-6.6-.6-6.9.8-15.2.1-22,1.1-3.3.2-7.6-.5-9.3.6-.9.5-.7.6-1.7,1.6-.3,5.8,5.4,5.6,9.9,6.6,5.1-.2,8.5.3,12.6,0,2.2-.2,2.2,1.8,4.9,1.1,2.3.1,3-1.4,5.5-1.1h7.1c8.1-1.8,17.9-1.8,25.8-3.8,2.5,1.2,7.1.3,10.4.5,2.3,0,3.4-1,6-.5.8-.3,2.8.6,2.8-.5,1-.1,2.7.6,2.2-1.1.8-.7.5-2.4.6-3.8v-.2ZM308.5,267.3c-2.1-1.3-6.7-1.4-8.2-.5-2.1-.4-2.6.7-4.4.5-11.1-2.2-20.7,1.8-31.3.5-2.2,0-3.2,1.2-4.9,1.6-.7-1.3-1.8-2.2-3.8-2.2-3.8,0-7.4,0-10.4.5h-9.9c-4.2.6-8.3,1.2-13.2,1.1-1.3,1-4.4.4-6,1.1-2,.5-3.8,1.3-3.8,3.8.4,3.4,3.6,4.1,7.7,3.8,4.3.3,7.8-.3,11.5-.5,1.9-.4.7,2.2,2.8,1.6,2.3.5,2.6-1.1,4.4-1.1,1,.5,1.7,1.2,2.2,2.2.7,0,1.6,0,1.6.5.9.2,1.4-.8,1.7,0,3.2-.1,4.3-2.3,7.1-2.7,2,.4,3.3,1.5,6,1.1,2.6-.7,5.1-1.5,7.7-2.2,10.5.3,21.7-2.8,31.3,0,2.5-.9,7.9-1.3,9.3-1.6h1.1c2.6-.6,3.2-1.8,4.4-3.3-.4-1.7-1.3-3.5-2.7-4.4l-.2.2Z"/>
</svg>