<?xml version="1.0" encoding="UTF-8"?>
<svg id="Layer_1" xmlns="http://www.w3.org/2000/svg" version="1.1" viewBox="0 0 512 512">
  <!-- Generator: Adobe Illustrator 30.1.0, SVG Export Plug-In . SVG Version: 2.1.1 Build 136)  -->
  <path fill="#69a9a9" d="M176.8,87.1c-2.1-1.4-4.2-.7-6.4-2.1-4.9,1.4-4.9,5.7-7.8,8.5-1.4,3.5-3.5,7.1-4.9,10.6-3.5,7.1-16.2,38.9-17,42.4-3.5,7.1-6.4,14.1-9.2,21.2-11.3,28.3-19.8,57.2-33.2,85.5-2.8,3.5-4.2,7.8-6.4,11.3,5.7,2.1,15.5,5.7,22.6,7.8,7.8,2.8,38.9,14.8,53,21.2.7-1.4,1.4-2.1,2.1-2.8,4.2-12.7,6.4-25.4,9.9-38.1,1.4-13.4,2.8-26.1,4.2-39.6-.7-13.4,1.4-26.8.7-40.3.7-6.4-.7-30.4-1.4-42.4-.5-10.7-2.7-38.9-6.2-43.2ZM165.5,277.2c-2.8,0-4.9-5.7-4.9-5.7,0,0-5.7-6.4-8.5-8.5s-12.7-12-12-13.4,4.2-4.9,6.4-3.5c1.4.7,21.2,26.1,21.2,26.1,0,0,.6,5-2.2,5ZM171.2,260.9c-2.8,0-4.9-5.7-4.9-5.7,0,0-5.7-6.4-8.5-8.5s-12.7-12-12-13.4,4.2-4.9,5.7-4.2c1.4.7,21.9,27.6,21.9,27.6,0,0,.6,4.2-2.2,4.2ZM175.4,242.5c-2.8,0-4.9-5.7-4.9-5.7,0,0-5.7-6.4-8.5-8.5s-12.7-12-12-13.4,3.5-5.7,4.9-4.9c1.4.7,21.2,24,21.2,24,0,0,2.8,8.5-.7,8.5ZM176.1,222.8c-2.8,0-4.2-6.4-4.2-6.4,0,0-2.1-2.8-4.9-4.9-2.8-2.1-12.7-12-12-13.4s4.2-2.1,5.7-.7c1.4.7,19.1,21.2,19.1,21.2,0,0-.9,4.2-3.7,4.2ZM178.9,200.9c-2.8,0-4.9-5.7-4.9-5.7,0,0-1.4-2.1-4.2-4.2-2.1-1.4-9.2-7.8-8.5-9.2s3.5-2.8,4.9-2.1,14.8,16.2,14.8,16.2c0,0,1.5,5-2.1,5ZM304,133.8c-32.5.7-64.3,7.8-92.5,19.8,0,3.5-.7,12.7-2.1,23.3,2.8-1.4,6.4-2.1,9.2-3.5,6.4-2.8,13.4-.7,19.8,2.1,4.9,2.1,8.5,6.4,11.3,10.6,7.1,8.5,9.2,17.7,4.9,28.3-2.1,4.9-4.9,7.8-9.9,10.6-3.5,2.1-7.1,7.8-12,7.8-5.7.7-9.2,1.4-19.1-4.2-3.5-2.1-7.1-4.2-9.9-7.1-.7,6.4-.7,10.6-1.4,13.4-.7,4.9-2.1,22.6-7.8,39.6-2.8,8.5-4.2,17-5.7,24,13.4-1.4,24.7,8.5,22.6,30.4-16.2,138.5,115.2,77.7,183,15.5,89.7-82.7,22.6-212-90.4-210.6ZM355.6,193.2c2.1-4.9,6.4-8.5,11.3-10.6,5.7-2.1,11.3-1.4,17,.7,6.4,2.8,11.3,4.2,14.8,17,2.1,4.9,2.8,10.6,2.1,14.8-.7,5.7-.7,9.2-4.2,12.7s-4.9,4.2-7.8,4.9c-4.2,1.4-12.7,3.5-17,2.1-6.4-1.4-9.2-5.7-13.4-12-1.4-2.1-4.2-7.1-4.9-9.2-2.9-7.7-1.5-13.4,2.1-20.4ZM322.3,340.8c-1.4,5.7-5.7,11.3-10.6,15.5-2.8,2.8-7.1,3.5-11.3,5.7-2.8,1.4-4.9,3.5-7.8,4.2-9.2,2.1-16.2.7-22.6-2.8-2.8-1.4-7.8-2.8-9.9-4.9s-1.4-3.5-2.1-5.7c-1.4-2.8-1.4-4.9-2.1-7.8-.7-9.2,4.2-19.1,13.4-26.1,1.4-.7,4.2-2.1,5.7-2.8,1.4-.7,4.2-2.1,6.4-2.8,8.5-3.5,17-4.2,24.7-2.1,7.8,2.1,12,7.1,15.5,14.1,2.2,4.2,2.2,9.9.7,15.5ZM323.1,188.9c-2.8,2.1-5.7,3.5-8.5,4.9s-7.8,2.8-11.3,2.8-5.7-3.5-9.2-5.7c-2.8-2.1-6.4-3.5-7.8-6.4-1.4-2.8-4.2-7.1-4.2-10.6s2.1-8.5,3.5-11.3c1.4-3.5,4.2-4.2,7.8-6.4,3.5-2.1,7.8-3.5,12-3.5s8.5.7,11.3,2.1,4.2,4.2,6.4,6.4c2.8,3.5,4.2,7.8,4.2,12.7-.7,5.1.7,10.8-4.2,15ZM346.4,371.2c-1.4-1.4-.7-8.5-.7-8.5,0,0-.7-2.1-2.8-4.9-2.1-2.1-1.4-.7-.7-2.1.7-1.4,6.4-2.1,7.8-.7,1.4.7,1.4,12.7,1.4,12.7,0,0-1.5,4.2-5,3.5ZM359.1,360.6c-1.4-2.1-2.1-9.2-2.1-9.2,0,0-.7-2.8-2.1-5.7-2.1-2.8-1.4-1.4,0-2.1s5.7-3.5,6.4-2.1c1.4,1.4,3.5,14.1,3.5,14.1,0,0-2.9,6.4-5.7,5ZM376.7,349.3c-1.4-2.1-4.9-7.8-4.9-7.8,0,0-4.2-7.1-6.4-9.9s.7-4.9,1.4-5.7c.7-1.4,4.9-1.4,6.4,0,1.4.7,5.7,20.5,5.7,20.5,0,0,.7,3.6-2.2,2.9ZM386.6,340.1c-1.4-2.1-3.5-11.3-3.5-11.3,0,0-2.1-4.9-3.5-7.8-1.4-2.8,0-5.7,1.4-7.1.7-1.4,5.7,0,6.4,1.4,4.2,4.9,4.2,19.8,4.2,19.8,0,0-2.1,5.7-5,5ZM400.1,326.7c-1.4-2.1-2.8-9.2-2.8-9.2,0,0-3.5-9.9-5.7-12.7-2.1-2.8,0-4.9.7-6.4s2.8-.7,4.9,1.4c1.4.7,8.5,21.2,8.5,21.2,0,0-2.8,6.4-5.6,5.7ZM410.7,309c-1.4-2.1-2.8-7.1-2.8-7.1,0,0,.7-4.2-1.4-7.1-2.1-2.8.7-2.8,2.1-4.2,1.4-1.4,3.5-2.1,4.9,0,1.4,1.4,4.2,13.4,4.2,13.4,0,0-4.2,6.4-7,5ZM92.7,281.4v2.8c1.4,5.7.7,10.6,2.8,16.2.7,10.6,4.9,21.9,8.5,32.5,0,2.8-4.2-.7-3.5,2.8-.7,1.4,0,3.5-2.8,4.9-3.5,2.1-17.7,5.7-20.5,16.2-2.1,7.8-2.1,16.2,5.7,24,7.8,7.8,20.5,25.4,22.6,38.9.7,19.1-7.1,25.4-7.1,28.3s.7.7.7,1.4c.7.7,2.1.7,2.8,1.4,1.4-.7,3.5.7,4.9-.7,1.4.7,3.5-2.8,4.9-2.1,11.3-7.8,23.3-19.1,26.1-24,19.1-33.9,12.7-57.2,9.2-65.7-.7-2.1-3.5-4.9-4.2-7.8-2.1-2.8-4.9-4.9-7.1-7.1,3.5-2.1-.7-4.9,2.8-6.4,0-2.1,4.2-4.2,4.9-6.4,4.2-4.2,6.4-8.5,10.6-12.7,2.8-4.2,4.9-7.8,7.1-12-13.4-5.7-38.1-16.2-44.5-19.1-4.8-3.3-16.1-4.7-23.9-5.4ZM113.2,357.7c-.7.7-1.4,1.4-2.1,2.1-.7-1.4,0-2.1-.7-3.5,1.4-.7,2.1,0,2.8,1.4ZM99.8,352.8c.7,2.1-2.1,3.5-4.2,4.9,0-.7,0-1.4-.7-2.1,2.1-2.1,3.5-2.1,4.9-2.8ZM123.8,365.5c0,.7-1.4,0-1.4,0,.7-.7,1.4-.7,1.4,0ZM121.7,378.9c4.2-3.5,6.4-7.1,6.4-10.6,2.8-1.4,4.2,2.1,7.1,1.4,7.1,14.8,4.9,25.4-12.7,55.1-6.4,9.9-2.1-4.2-2.8-4.2-.7-4.2-1.4-8.5-3.5-12.7-7.1-10.6-14.8-19.1-22.6-23.3-2.1-1.4,1.4-2.8.7-4.2,0-1.4.7-2.1.7-3.5,0-2.8,1.4-4.9,4.9-7.1.7,2.1.7,4.2,3.5,7.1,2.8.7,4.9,1.4,8.5-1.4,3.5,4.1,6.3,4.8,9.8,3.4Z"/>
</svg>
