<?xml version="1.0" encoding="UTF-8"?>
<svg id="Layer_1" xmlns="http://www.w3.org/2000/svg" version="1.1" viewBox="0 0 512 512">
  <!-- Generator: Adobe Illustrator 30.1.0, SVG Export Plug-In . SVG Version: 2.1.1 Build 136)  -->
  <defs>
    <style>
      .st0 {
        fill: #fff;
      }

      .st0, .st1 {
        fill-rule: evenodd;
      }
    </style>
  </defs>
  <path class="st1" fill="#5d9b9a" d="M152.4,125.2c33.2-19.3,98.3-28.1,160.3-9,67.7,20.8,93.7,74.5,100.9,129.2,9.9,75.7-12.4,118.9-44.9,138.2-43.7,26-184.6,43.9-236.4-26.4-70.3-95.4-24.7-206,20-232Z"/>
  <g>
    <path class="st0" d="M334.6,237c-1.1-18.4-.3-38.6-4.2-54.1-2.6-2.5-3.1-7.2-6.5-8.9-1.8-3.3-3.8-6.5-7.1-8.3-11-.1-21.3-1.9-32.1-.6-15.4.7-32.7.8-49.3,1.2-13.1.3-26-.5-36.2,1.8-3.5.8-6.7,2-10.1,3-3.5,5.6-7,11.2-8.3,19-1.6,3.5.5,7,.6,10.7-.7,3.5-1.2,7.2-1.2,11.3.4,8.2-.8,17.8.6,25v38.1c-.2,4.5,2.1,6.6,1.8,11.3-.2,5.2.5,11.2-.6,15.5,3.5,9.8,1.4,25.2,5.9,33.9.5.1.7.5.6,1.2,2.9,3,5.1,6.8,10.1,7.7,3.8,2.4,9.1,3.2,13.1,5.4,19.6,1.4,39.4-.7,60,0,10.1-1.6,20.5-2.9,30.9-4.2,1.6-1.2,5.2-.3,7.1-1.2,2.1-.9,5-1,7.1-1.8,6.7.8,10.3-1.6,13.7-4.2,1.9-2.5,2.2-6.5,3-10.1v-6.5c.4-2-.8-5.5.6-6.5-.7-26.1-1-53.2.6-78.5ZM324.5,251.9c-.6,8.9-.6,18.4-1.2,27.4.3,8.2,1.2,17.1,0,25,.5,4.7-.9,8.6,0,11.9.2,4.4-1.9,6.5-2.4,10.1-17.4,5.6-38.1,7.8-60.6,8.3-10.2,1.3-21,1.9-32.1,2.4-12,.5-22.6-.4-28.5-6-.6-1.2-1-2.5-2.4-3-3.4-9.1-3-22-4.2-33.3.4-8.1-1-15.2-1.8-23.2-.8-7.9-.6-20.1-.6-30.3,0-18.6-.5-37.5,1.2-54.7,2.1-2.5,4.5-4.6,6.5-7.1,11.6-3.5,28-2.1,42.8-2.4,4.9-.6,9.7-1.4,14.9-1.8,12.9,0,25.5,2.1,37.4,0,1,.2,1-.6,1.8-.6,4.3.2,9.7-.6,13.1.6,3.4,1.2,5.5,3.6,8.3,5.4.8,3.8,3,6.1,3,10.7.2,4.1,1.4,7.3,2.4,10.7-.4,8.7,1,15.6,2.4,22.6-.7,8.3.4,17.6,0,27.4Z"/>
    <path class="st0" d="M308.9,215c-1.1-8-1-17.2-3.4-24.1-2.4-1.2-5.8-1.3-8.9-1.7-.7,0-.8.7-1.7.6h-10.6c-15.6,2.5-34.2,2-49.8,4.5-8.1.2-17.4-2-23.5,1.1-2.1,11.9-1.8,26.9,0,39.2,1.5,2.4,3.2,4.7,5,6.7,2.1.5,4,1.2,5.6,2.2,11.4.1,24.3-2.8,34.7-3.4,10.8-.6,20.4.9,30.2-.6,8.2.4,15.2-.5,20.1-3.4,1-4.2,2.2-8.5,1.1-13.4.8-2.2,1.3-4.7,1.1-7.8Z"/>
    <path class="st0" d="M270.3,256.4c-.1-2.3-1.7-3.2-1.7-5.6-8.7-2.4-19.5-.6-24.6,3.9,0,4.2-.6,9.2,1.7,11.2,2.6.5,3.2-.9,5-1.1,1.9,1,2.6-.6,5-.6,5.6.3,9.9-.6,13.4-2.2.4-1.9,1.6-2.9,1.1-5.6Z"/>
    <path class="st0" d="M305.6,251.9c-1.2-1-3.6-.9-4.5-2.2-2.9-.1-5.6,0-7.8.6h-7.8c-1,.3-3.3-.7-3.4.6-1.1.3-3.9-.9-3.4,1.1-1.6,1.2,0,4,0,5.6.9,1.5,1.7,3.1,2.2,5,3.6.5,6.8,1.5,11.2,1.1,4.8-1.7,9.8-.8,14-2.2,2.1-2.8.5-6.8-.6-9.5Z"/>
    <path class="st0" d="M234.5,254.2c-.2-1-.7.1-1.7,0h-21.3c-1.9,2-3.2,4.6-2.8,9,1.5,2.3,4.2,3.3,6.7,4.5h11.7c3-1.8,6.5-3.2,8.4-6.2-.2-2.6.7-6.3-1.1-7.3Z"/>
    <path class="st0" d="M304.5,277.2c-2.6-1.9-8.2-.8-11.8-1.7-4,.7-8.4.9-10.1,3.9-.7,2.3,0,2.8.6,5,1.8.5,1.2,3.2,3.4,3.4,2.9,2,9.2,1.1,11.8-.6,3.7-1.3,7.2-2.9,7.3-7.8,0-1.1-1.5-.7-1.1-2.2Z"/>
    <path class="st0" d="M272,279.4c0-1.4-2.2-.8-2.2-2.2-7.8.2-17-.9-21.8,2.2-.4,2.8-.8,5.6-.6,9,3.4,2.6,9,2.9,14.6,3.4,5.5-1.8,11.6-2.9,11.8-10.1-1.2-.2-.1-2.5-1.7-2.2Z"/>
    <path class="st0" d="M232.8,279.4c-6.1-1.1-13.9,0-20.1.6-1.3,1.9-1.5,6.4-.6,9,2.6,1.5,6.5,1.7,10.1,2.2,4.6-.9,10.5-.4,13.4-2.8.3-4.2-.9-7-2.8-9Z"/>
    <path class="st0" d="M306.1,298.5c-5.1.4-8.7-.6-13.4-.6-1,.4-2,.3-2.8.6-1.2.3-1.2.6-2.2,1.1-.5.2-1.2-.2-1.7,0-.4.2-1.6,1.5-1.7,1.7-.2.4,0,1.2-.6,1.1-.7,5,2.6,6,5,7.8.7,0,1.6,0,1.7.6h9.5c1-1,3.4-.7,4.5-1.7,1.9-.2,2-2.1,3.4-2.8.3-3.5-.8-5.5-1.7-7.8Z"/>
    <path class="st0" d="M257.5,299.6c-2.2,1.7-7.1.8-9.5,2.2.3,2.6-1,3.5-.6,6.2,1.3,2.6,4.6,3.2,6.7,5,6,.2,11.4-.2,16.8-.6,1.4-2.7,3.3-4.9,3.4-9-3.2-3.7-9.8-4-16.8-3.9Z"/>
    <path class="st0" d="M237.3,305.7c-1.7-.7.8-2.1-.6-2.8-2.5-.4-3.7-2.2-6.7-2.2-.4,1.6-4.6-.5-5,1.1h-6.2c-.8.9-2.5.9-3.4,1.7-1.4.5-2.2,1.5-3.9,1.7-.1,2.7,1,4.2.6,7.3,1.9.7,2.1,3.1,4.5,3.4,5.4-1.3,10.5-2.9,17.9-2.2.4-2,3.4-1.4,3.4-3.9.3-1.8-1-2-.6-3.9Z"/>
  </g>
</svg>