<?xml version="1.0" encoding="UTF-8"?>
<svg id="Layer_1" xmlns="http://www.w3.org/2000/svg" version="1.1" viewBox="0 0 512 512">
  <!-- Generator: Adobe Illustrator 30.1.0, SVG Export Plug-In . SVG Version: 2.1.1 Build 136)  -->
  <defs>
    <style>
      .st0 {
        fill-rule: evenodd;
      }
    </style>
  </defs>
  <path fill="#69a9a9" class="st0" d="M222.9,173.2c-3.9,3.2-10,4.2-15.5,5.8.5,9.5,5.3,14.7,5.8,24.2,31.5-2.4,63.2-4.6,93.9-7.7-.6-8.8-2.5-16.2-1.9-26.1,5.1-6.2,16.4-6.2,28.1-5.8,10.8-1.1,19.1-4.8,32-3.9.2,1.1,1.8.8,2.9,1,8.6,5.5,14.9,17.6,11.6,31.9-3.4,4.6-7.6,8.5-14.5,9.7-8.2,1.5-12.7-5.2-10.7-10.6-.3-6,8.9-2.5,10.7-3.9,2.4-12.1-5.9-13.5-16.5-12.6-2.6,2.2-9.3.3-13.6,1,.2,2.8-6-.8-5.8,1.9-2.4-.2-3,1.5-4.9,1.9v13.6c2.6,6.1,6.9,10.5,8.7,17.4,3.5,4.9,5.7,11.1,7.8,17.4,10.1-1.8,19.7-4.2,31-4.8,10.4.3,17.7,3.6,25.2,6.8,7.8,6.8,15.1,14,20.3,23.2,4.3,10.3,7.9,21.2,8.7,34.9.3,12.2-2.2,21.7-4.8,31-1.6,1.3-1.5,4.3-2.9,5.8-.4,2.5-2.9,2.9-2.9,5.8-2.7,3.1-5.9,5.7-7.7,9.7-5,1.8-7.2,6.4-12.6,7.8-3.2,3.3-9.8,3.1-13.6,5.8-2.6,0-5.5-.4-6.8,1h-20.3c-18.6-2.7-32.5-10.1-43.6-20.3-3.3-5.4-7.2-10.2-9.7-16.5-2.2-6.5-3.6-13.8-4.8-21.3v-10.7c2.4-25,16.9-38,30-52.3-2.1-1.8-.6-7.1-2.9-8.7.5-4.4-1.7-6-1-10.6-3.1-2.8-2.8,3.7-5.8,3.9-.4,3.2-2.8,4.3-3.9,6.8-3,4.1-6.4,7.9-8.7,12.6-6.4,8.1-12.3,16.8-17.4,26.1-6.1,8.4-10.5,18.5-17.4,26.1-2,5.1-6,8.2-8.7,12.6-3.4,3.7-6.8,7.4-11.6,9.7-9.5-.8-18.9-1.8-28.1-2.9-2.6,1.3-2.1,5.7-3.9,7.8.9,4.8-4.1,3.7-3.9,7.7-3,4.4-4.6,10.3-6.8,15.5-1.4.8-3.1,1.5-2.9,3.9-12.6,11-27.8,19.4-52.3,18.4-9.3-1.3-17.6-3.7-25.2-6.8-7.9-2.4-13.2-7.5-20.3-10.7-3.4-4.7-8.2-7.9-11.6-12.6,0-1.7-.7-2.5-1.9-2.9-3.9-12.2-6.4-25.9-5.8-42.6,1-21.6,10.7-34.5,22.3-45.5,6.3-3,11.7-7,17.4-10.7,4.8-1,9-2.6,13.6-3.9h18.4c3.9.7,6.9,2.1,11.6,1.9,1.9,1.7,5.1,2.1,7.8,2.9,1.5,2,5.9,1.2,7.7,2.9,6.5-3.5,10.8-9.2,14.5-15.5-2.4-12.8-5.8-24.5-7.7-37.8-6.6.5-12,2.2-19.4,1.9-12.2-2-20.5-7.9-20.3-22.3,2.5-1.7,1.8-6.6,6.8-5.8,1.1-3.1,4.7-3.7,6.8-5.8,1.5,0,3.7.5,3.9-1,6.8,0,11.9-1.6,19.4-1,8.3,1.4,18.3,1,25.2,3.9,6.4,1.8,17.1,2.6,18.4,9.7,1,5.6-2.5,9.9-9.7,11.6ZM178.4,167.4c3.4.5,2.4-3.4,5.8-2.9,1.7,3.5,8.8,3.8,10.7,0-5.9-.3-10.8-1.5-16.5-1.9v4.8ZM161.9,166.5c1.4.4,1.6,1.2,2.9,0v-1.9h-1.9c0,1-.8,1.1-1,1.9ZM170.6,174.2c1.7,0,2.5-.7,2.9-1.9-1.5,0-3.4-.1-2.9,1.9ZM306.2,207.2c-1.2,0-1.3,1.2-2.9,1-20.9,1.8-51.7.9-72.6,5.8h-10.6c-1.8,2.6,2.2,5.7,2.9,8.7,1.4,3.1,3.6,5.4,4.9,8.7,2.9,6.1,6.3,11.8,8.7,18.4,2.3,6.7,4.9,13.1,7.7,19.4,1,3.5,3.1,6,3.9,9.7,3.2,1.4,2.6,6.4,7.7,5.8,4-3.4,6.9-8,9.7-12.6,3.9-3.9,5.7-9.8,9.7-13.6.6-3.2,3-4.7,3.9-7.7,2.5-1.4,1.9-5.9,4.8-6.8,1.4-6.3,5.6-9.9,7.7-15.5,4.2-1.9,6.6-5.6,9.7-8.7,1.9-4.3,5.7-6.5,6.8-11.6-1,0-1.2-.8-1.9-1ZM195.8,243.9c2.3,3.5,4.7,6.9,7.7,9.7.9,4.9,5.1,6.5,4.8,12.6,5.8,3.3,7.3,10.8,10.7,16.5-.3,3.9,1.7,5.4,1,9.7,4.1,3.4,9.8,5,16.5,5.8,1.4-1.7-.6-5.8-1.9-7.7.1-4.3-2.4-6-2.9-9.7-3.5-4.6-4.7-11.5-8.7-15.5-1.5-6.6-6.3-9.9-7.7-16.5-3.7-4.6-5.4-11.4-8.7-16.5-3.1,1.2-.7-3.1-3.9-1.9-1.1,5.7-5.9,7.7-6.8,13.6ZM320.7,272c-3.3,3.5-4.9,8.7-6.8,13.6.6,7-1.7,11.2-1,18.4,2.5,8.8,7.2,15.4,12.6,21.3,12,3.1,20.5,9.8,33.9,11.6,19.2-.8,31-9.1,41.6-18.4,2.3-7.4,5.9-13.5,7.7-21.3v-17.4c-.8-1.1-1.3-2.6-1-4.8-3.3-6.4-6.4-13-9.7-19.4-2.6-2.9-5.8-5.2-7.8-8.7-4.5-1.3-7.2-4.4-11.6-5.8-10.1-3.3-21.9-1-32,1,1,11.6,5.1,20.1,7.8,30,1.4,1.8,6.3.1,7.7,1.9,4.3,5.7,11.2,8.8,10.7,19.4-1,5.1-6.4,5.9-9.7,8.7-3.6,2.5-8.9,3.4-15.5,2.9-2.8-2-5.4-4.3-6.8-7.7v-11.6c-.9-2-2-3.8-2.9-5.8-1.1-2.1-.2-6.3-2.9-6.8-1.4-4.8-.3-12-5.8-12.6-5.8,1-8,5.5-8.7,11.6ZM154.2,243.9c-5.3-.9-8.3.9-10.7,1.9-.2,0-.7,0-1,0-1.1,0-.5.7-1,1-3.2,1.5-6.8,3.4-9.7,4.8-5,2.5-11,5.2-16.5,6.8-1.6,3.6-3.4,6.9-6.8,8.7.1,2.4.2,4.7-1.9,4.8-1.1,8.9-1.7,18.4-2.9,27.1,1.3,5.8,2.7,11.5,3.9,17.4,5.3,5.7,9.9,12.1,14.5,18.4,10.1,6.7,21.3,12.3,36.8,13.6,5.7.2,9.3-1.7,15.5-1,3.5-1.7,6-4.3,10.7-4.8,3.3-3.4,5.6-8,9.7-10.7-.2-5.7,3.5-7.5,4.8-11.6-.6-5.7,2.5-7.8,1.9-13.6-13.4-1.8-26.3-4-38.7-6.8-4.2,1.6-4.2,7.5-9.7,7.8-11.1.5-13-8.3-16.5-15.5,3.2-6.2,3.8-14.9,11.6-16.5,3,.5,6.3.8,8.7,1.9.8-6.6,5.6-9.2,8.7-13.6,2-5.5,7.7-7.1,9.7-12.6-8.1-1.6-14-5.3-21.3-7.8ZM186.1,260.4h-2.9c-4.4,8.5-12.8,13-15.5,23.2,8.7,3.3,22.8,6.2,32.9,4.8-2.4-11.8-10.7-17.7-14.5-28.1ZM354.6,294.3c1.4,1.5,5,.9,7.7,1,1.6-3.2,1-7.4-1-9.7-6.4-1.2-7.5,2.9-6.8,8.7ZM149.3,298.2c3.1.6,4.5-.7,6.8-1,1-4,1.3-9.4-2.9-10.7-6.6-.4-6.6,7.8-3.9,11.6ZM236.5,305.9c-3,.7-2.9-1.7-5.8-1-.1,2.8,5.7,4,5.8,1ZM238.4,306.9c-.3-.3-1.5.5-1,1,.3.3,1.5-.5,1-1Z"/>
</svg>