<svg viewBox="0 0 512 512" xmlns="http://www.w3.org/2000/svg"><path fill="#69a9a9" d="m424.2 179.4c-2-4.1-9.7-3.7-14.3-4 0-7.6 1.6-22.5-2.2-29.7-1.3-2.6-4.3-6.1-6.1-8.4-4.2-5.4-10.3-5.1-16.5-5-5.4 0-11.9-2.5-17.1-2-4.4.4-8 1.2-11.6.7l-1.5-40.3c-.2-5.7-15.6-8.2-16.9-1.6-2.5 13.4-.7 27.1-1.2 41.1l-8.4.2-2.5-25.2v-14.5c-3.9-4.9-14.4-4-17.7.9l.6 34c0 1-.3 4.2-1.3 4.3l-3.8.5c.6 1.1 1 1.7 1.3 2 .3.2.5.3.9.3-.4 0-.7 0-.9-.3-.4-.3-.7-.9-1.3-2l-2.5.2-30.8-2.4c-10.1-.8-20.3.9-30.4 1.5l-52.4 3.4c-5.8.4-12.5-.8-18.4-.8l-38.6-.5c-6.4-6-21.7 3.4-25.9 8.5-3.4 4.1-7.7 12.8-7.2 18.3l3 39.7c2.4 30.9-4.3 14.2 5.8 41.6 2.3 6.2 6.2 9.8 13.1 10.5l.4 23.1c0 2.2 5.1 3.8 7.6 4.3l6.8 36.5c7.2-9.5 4.8-19.9 7.3-30.1l1.4-5.6c.3-1.4 3.8-1.1 6.3-1.5l1.6-28.3c16.6 1.9 32.7 1.6 49.3.4 10.8-.8 21.3-2.8 32.1-2.9 10 0 19.7 1.8 29.7 2l25.7.4c7.4 2.2 11.4 15.8 11.4 23.4l-.3 44.9c-20-5.7-43.1 1.9-59 1l-45.8-2.4c-34.6-1.8-50.4 2.9-85.7.8-3.9-.2-10.1.2-14.1 1.1-8.2 2.1-7.7 13.8-2.5 19.3-1.5 12.7-5.5 10.6-4.3 24.8l3.5 40.2 26.9 3.7c14.7 2 33.5-.8 46.9-.8 1.3 0 72.3-2.9 72.3-2.9 3.6-.2 6.7.4 10.4 0 8.5-.9 17 .3 25.7.1 16.2-.3 31.9-1.2 47.9.9 3.4.4 7.6 2.3 11.3 2.2l26.4-1.2-9.9-11.2c-.5-.6-.6-3.6-.2-4.2.5-.8 3.3-.7 4.4 0l20.3 13.7h14.7c0 .1-15.8-13.7-15.8-13.7-3.1-2.7-6.5-6.8-4.2-11.2 12.9 6 23.8 14.5 32.6 24.3l9.9-1.4c1.4-3.9-1.3-8.8-4.5-12.1-9-9.2-17.6-17.5-27.5-25.6-3.7-3-7-6.9-6.4-12.3 15.5 5.9 26.4 16.3 37.9 29.2 1-3.1 2.1-8 2.5-11.3-4.4-3.9-8.3-7.4-12.2-11.5-7.5-8-15.3-14.8-23.7-21.7-3.5-2.9-6.3-6.8-5.7-11.7 16.7 6.1 27.9 18.1 40.1 31.5l-1.2-15.4c-3.8-.3-8.4-1.9-11.5-5.3-9-9.9-18.2-18.5-28.4-27-3.7-3-8.3-7.1-5.5-12.5 9.4 5.1 19.1 10.5 26 17.9l19.4 20.9c.3-2.1 1.1-5.8 1-7.5l-2.3-27.6c-1.3-16.1-1.1-32.3-.1-48.6.2-3.4 1.1-6.6.5-10.1-.3-1.5-.6-4.4.3-5 3.4-2.5 15.8 1.7 18.6-9.6l2.5-20.6c-1.6-9.2-1.6-15.9-5.7-24.2zm-173.4 26.5c-7.7 2-11.2-2.6-14.2-7.6-2.9-4.8-2.7-7.4-1.1-12.7 2-6.4 2.6-15.5 10.5-18.3l11.9 3.5c5 1.5 8.9 5 10.8 9 5.3 11.5-4.7 22.7-17.8 26.2zm65.1-74.5c-1.5 0-2.7 0-3.8.1 1.1 0 2.3-.1 3.8-.1zm13.5 62.1c-1.8 4.3-5.7 11.7-13 11-1.6-.2-5.1-1.6-6.6-.7-4.6 2.7-9.3.6-11.6-3.8-5.4-10.2-1.9-26.4 6.7-31.7 0 0 17.9-2.9 21.3 8.4 1.9 6.4 5.9 10.5 3.2 16.9zm90.4 20.3c-.1 3-2 5.6-4.9 6.8l-5.6 2.3c0-6.4.9-11.6 1.3-17.8l1.1-17.6c.8-1.6 4.6-1.6 6.6-.3 3.8 10.2 2 14.6 1.6 26.7z"/></svg>