<svg viewBox="0 0 512 512" xmlns="http://www.w3.org/2000/svg"><path fill="#69a9a9" d="m332.2 265.7-56.7 20.4c-17.2 5.3-31.8 2.4-39.5 0l-47.2-9.3-18.9-11-21.2-6.5-8.5 68.3c0 11.4 2.9 14.9 26.4 21.9 20.5 6.1 59.1 18.2 88.8 18.2s34.5-2.9 49.4-5.2c17.3-2.7 32.2-6.8 43.6-11.9 14.4-6.4 22.8-14.4 22.8-23l-8.5-68.3zm15 79c-2.3-.2-4.2-4.9-4.2-4.9s0 1.2-2.4-.6-2.8-2.1-2.3-3.5c.6-1.3 2.9-2.8 4.4-1.8 1.3.6 6.2 6.3 6.2 6.3s1.1 4.5-1.7 4.5zm8.3-10c-2.3-.2-4.2-4.9-4.2-4.9s0 1.2-2.4-.6-5.2-5.3-4.6-6.7c.6-1.3 3.3-4.6 4.9-3.5 1.3.6 8.6 9.5 8.6 9.5s.4 6.2-2.3 6.2zm5.9-15.1c-2.3-.2-4.2-4.9-4.2-4.9s0 1.2-2.4-.6-11.4-10.5-10.8-11.8 2.9-2.8 4.4-1.8c1.3.6 14.8 14.7 14.8 14.7s.9 4.4-1.8 4.4zm1.3-16.2c-2.3-.2-4.2-4.9-4.2-4.9s-1.9-2.7-4.2-4.5c-2.4-1.8-11.4-10.5-10.8-11.8s4.2-3.5 5.7-2.5c1.3.6 16.7 18.6 16.7 18.6s-.5 5.1-3.2 5.1zm75-114.7-51.7-15.9-69-18.1-47.2-17.6c-9.1-2.8-19-2.8-28.1 0 0 0-9.9 5.2-33.7 12.5-12.3 3.8-36 7.9-47.9 12.5-13.1 5.1-34.8 14.5-49 18.7-23.5 7.2-41.3 13.2-41.3 13.2-14.2 4.3-10 17.7 4.1 22.1l29.3 9c-6.4 7.9-10.4 17.6-10.8 28.2-5.8 3.3-9.9 9.3-9.9 16.5s3.4 11.9 8.3 15.4l-2.9 34-12.4 35.1c-1.3 6 3.2 11.7 9.4 11.7l13.1 7.7 13.1-2c6.2 0 18.2-11.3 16.9-17.4l-7.4-33.2-8-35.9c4.9-3.5 8.3-8.9 8.3-15.4s-3.9-12.8-9.4-16.2c.5-9 5.1-17 12.4-22.1l46.6 12 71 24.2c5.5 1.7 15.9 3.8 28.1 0l42.1-16.1 61.6-16.1 62.6-22.2c23.4.9 15.9-20.3 1.8-24.6z"/></svg>