<?xml version="1.0" encoding="UTF-8"?>
<svg id="Layer_1" xmlns="http://www.w3.org/2000/svg" version="1.1" viewBox="0 0 500 500">
  <!-- Generator: Adobe Illustrator 30.1.0, SVG Export Plug-In . SVG Version: 2.1.1 Build 136)  -->
  <path fill="#69a9a9" d="M325.8,298.3c-5.8,6-11.6,12-17.2,18.2-6,5.4-13,10-18.2,16.2-4.4,1.4-6.3,5.1-10.1,7.1-3.3,2.4-7.1,4.3-10.1,7.1-4.4,1.3-7.1,4.4-11.1,6.1-3.6,2.2-8.1,3.3-11.1,6.1-5.6.2-5.5-5.3-10.1-6.1-1.9-3.5-5.7-5.1-9.1-7.1-5-5.4-13.1-7.9-18.2-13.2-12.9-8-25.3-16.5-35.4-27.3-12.4-8.8-21-21.5-31.4-32.4-8.7-12.2-17.4-24.4-23.3-39.5-2.5-8.6-2.1-20.2-2-31.4,6.3-20.4,17.6-35.7,33.4-46.6,11.3-3.2,29.2-7.1,41.5-3,8.9,2.9,13.3,10.3,19.2,16.2,5.3,6.5,9.7,14,15.2,20.2,1.2,5.5,4.9,8.6,6.1,14.2,2.3,4.5,3.9,9.6,11.1,9.1,8.7.9,6.8-8.7,10.1-13.2,5.6-5.5,10.3-12,15.2-18.2,5.8-5,11.2-10.4,16.2-16.2,3.9-1.5,6.6-4.2,9.1-7.1,4-1.4,6.5-4.3,10.1-6.1,3.8-1.6,6.7-4.1,11.1-5.1,2.9-2.5,8.1-2.7,11.1-5.1,5.4-1,12.5-.4,17.2-2,4.4,1.3,10.6.9,14.2,3,.8,1.5,2.7,2.7,4,4,3.1,3.2,5.4,7.3,8.1,12.1,1.3,2.4,2.5,10.5,3,15.2,1.3,10.8.6,22.2,0,34.4-1.1,1.2-1.5,3.1-1.8,5.1h24c.7-4.4,1.5-8.6,2-13.2.7-16.6-.7-31-3-44.5-3.1-3.7-3.4-10.1-7.1-13.2-1-6.1-6.1-8.1-8.1-13.2-3.3-1-5.4-4.3-8.1-6.1-3-2-6.2-2.8-9.1-5.1-7.7-1.7-16.5-2.4-26.3-2-5.4,1.4-11.3,2.2-17.2,3-5.4,2.7-10.9,5.3-17.2,7.1-4.7,3.4-9.8,6.4-15.2,9.1-8.8,7.4-17.9,14.5-26.3,22.3-2.9,3.9-6.1,7.4-9.1,11.1-3.6,3.2-5.6,7.9-9.1,11.1-3.1-6.3-7.8-11.1-12.1-16.2-4.6-5.2-7.5-12.1-12.1-17.2-6.1-5.7-13.2-10.4-20.2-15.2-2.6-.1-4.8-.6-6.1-2-11.3-2.2-26.1-2.8-38.5-1-3.6,2.8-10.3,2.6-13.2,6.1-5.9.9-8.1,5.4-13.2,7.1-15.2,15.1-28,32.8-34.4,56.7v32.4c1.5.2.9,2.5,1,4,5.4,19.9,15.1,35.5,25.3,50.6,11.8,13.5,22,28.6,36.4,39.5,12,13.3,27.7,22.9,42.5,33.4,8.6,4.2,14.9,10.8,24.3,14.2,6.9,5.9,14.4,11.3,25.3,13.2,2.3-.8,5.5-.6,6.1-3,2-1.4,3.1-3.6,6.1-4.1,5.1-1.3,8.6-4.2,13.2-6.1,7.8-5.3,16.8-9.6,23.3-16.2,4.5-1.9,7.9-5,11.1-8.1,3.6-2.8,7.7-5.1,10.1-9.1,8.1-5.1,13.8-12.5,20.2-19.2,10.2-11.6,20.3-23.4,28.8-36.7h-28.9c-3.9,5.2-8,10.4-12,15.5ZM426.6,242l-24.4-.8c0,0-.2,0-.2,0h-24.4c-.2,0-.4,0-.6,0l-20.4,1.8-10.7-22c-1.1-2.3-3.5-3.8-6-3.8h0c-2.5,0-4.9,1.4-6,3.7l-9.3,18.2s0,0,0,.1l-9.3,19.2-5.3-19.3-4.4-20.5-3.5-20.3c-.5-2.6-2.4-4.7-4.9-5.4-2.5-.7-5.3.1-7,2.1l-12.5,14.7c-.3.3-.5.7-.8,1.1l-9.5,17.1-9.9,13.5-22.1,1-24.9-1.1c-3.8-.2-6.9,2.8-7.1,6.5-.2,3.7,2.8,6.9,6.5,7.1l25.2,1.1c.2,0,.4,0,.6,0l25.6-1.2c2.1,0,4-1.1,5.2-2.8l12.1-16.5c.2-.2.3-.5.4-.7l9.4-16.9,2.7-3.2,1.1,6.2c0,0,0,.2,0,.3l4.5,20.8c0,.1,0,.2,0,.4l5.6,20.5,5.2,19.7c.8,2.9,3.3,4.9,6.3,5.1.1,0,.2,0,.3,0,2.8,0,5.4-1.8,6.4-4.5l7-19.1,9.2-19,3.1-6.1,6.8,14c1.2,2.5,3.9,4,6.7,3.8l24.8-2.1h24c0,0,24.3.8,24.3.8,3.8,0,6.9-2.8,7-6.6s-2.8-6.9-6.6-7Z"/>
</svg>