<?xml version="1.0" encoding="UTF-8"?>
<svg id="Layer_1" xmlns="http://www.w3.org/2000/svg" version="1.1" viewBox="0 0 512 512">
  <!-- Generator: Adobe Illustrator 30.1.0, SVG Export Plug-In . SVG Version: 2.1.1 Build 136)  -->
  <path fill="#69a9a9" d="M245.4,173.7c-.5.8-1,1.4-1.2,1.8-.2.2-.5.6-.8,1.1-6.3,8-10,14-8.7,19.6.6,2.7,2.3,4.8,4.8,6.1,1.7.8,3.6,1,4.8,1s4.5-.3,6.9-2.1c8.8-6.7,16.3-17.5,23.6-27.9,3.3-4.7,6.6-9.5,10-13.7,1.9-2.4,5.2-8.3,4.6-13.8-.3-2.5-1.4-4.6-3.2-6.1-1.6-1.6-3.7-2.5-6-2.5-6.4,0-14.4,6.1-34.7,36.7ZM389.5,176.7c-.5-.2-1.1-.3-1.6-.5-.1-.2-.2-.4-.3-.5-1-1.6-3.4-5.3-8.3-5.3s-1.6.1-2.5.3c-1.5.4-3.6.9-5.6,2.4l-.6-5c-.2-1.8-.3-3.7-.5-5.6-.3-4.3-.6-8.7-1.9-13.4l-.5-2c-4.9-17.8-11-39.9-24.9-52-15.5-13.6-29.6-23.4-44.1-30.8-7.1-3.6-14.3-4.6-21.3-5.5-2.8-.4-5.3-.7-7.9-1.2-5.2-1-10-1.5-14.7-1.5s-9.5.5-14.4,1.6c-42,9-54,16.5-80.1,50.5-13,16.9-14.6,28.9-16.5,44.2-.6,4.9-1.3,9.9-2.4,15.7v.6c-.1,0-.1,4.8-.1,4.8-1.5-1.4-3.7-2.6-6.7-2.6s-.7,0-1.1,0c-5.1.5-7.7,3.4-9.1,5.8-.5.2-1.6.4-2.4.6-2.9.6-10.7,2.1-11,10.6-.3,9.6,8.8,11.5,12.2,12.3.2,0,.5.1.8.2.7,2.6,1,5.5,1.4,8.4.6,4.9,1.2,9.9,3.3,15.1,5.3,12.7,11.8,27.2,22.4,39.2,12.5,14.2,29.1,26.4,50.7,37.2,12.4,6.2,26,9.5,42.6,10,.2,10.3-.2,20-.5,29.5-.5,15.8-1,30.8.6,47.3-.9.4-1.8.7-2.7,1.1-1,.4-2.1.8-3.1,1.2-10.6,4.6-13.1,12.3-14.6,16.9-.2.5-.3,1-.5,1.5-7.1,1-13.2,1.5-20.2,1.5s-8.7-.2-13.9-.3h-3.7c-.9-.2-1.8-.2-2.6-.2-26.1,0-44.1,13.6-49.7,26.3-2.7,6-2.3,11.6,1,15.3,3.4,3.8,8.7,3.9,11,4l61.3,1.7,50.4-2.6c6.5-.3,12.7-.5,19-.5,14.2,0,27.3.8,42.6,1.8l4.4.3c6.3.4,12,.6,17.5.6,12.7,0,24-1,34.5-3.2l2.9-.6,1.4-2.7c2.7-5.3,2.3-14.3-2.4-18.3-3.1-2.7-6.1-4.4-8.7-5.9-3-1.8-5.4-3.1-7.8-5.8-9.6-10.8-23.3-12.1-32.8-12.1s-11.3.5-16.8.9c-5.5.5-10.7.9-15.7.9s-3.9,0-5.6-.2l-4.5-9.2c-3.6-7.4-10.5-10.3-16.7-12.9,1-10.7,0-18.3-.9-25.7-1.1-8.8-2.2-17.2,0-31.2,1.1-7,1.4-13.1.8-19.4,16.9-1.3,38.4-8.1,52.3-14.7,14.5-6.9,24.2-17.8,33.6-29.4l19.5-23.9c9.9-12,13.2-26.5,15.4-41.7,6.3-1.5,10.6-5.7,10.9-11.2.6-9-7.7-11.5-10.8-12.5ZM166.9,152.5c4.7-18,14.9-36.1,28-49.7,13.5-14,34.5-21.7,59.2-21.7s29.4,2.6,43,7.6c11.5,6.7,21.3,14.9,31,25.8,10.5,16.9,16.6,32.4,18.5,47.5.6,4.3-.6,8.9-1.9,13.8-.8,3.1-1.6,6.2-2,9.5-4.1,31.1-26.3,53.6-66.1,66.8-6.9,2.3-13.6,3.4-20.3,3.4s-13.7-1.2-20.9-3.6l-.5-.2c-12.8-4.3-24.9-8.4-35.5-15.8-22.4-15.5-39.1-58.5-32.5-83.6ZM338.7,251.4c-8,8.5-16.5,14.6-24.6,19.9-11.8,7.8-24.9,11-38.7,14.4l-2.8.7c-6.6,1.6-11.9,2.4-17.1,2.4s-10.1-.7-16.2-2.1c-53.1-12.5-79.8-37.9-92.4-87.6,0,0,0,0,0-.1l.9-.2c3.7,12.1,8.9,24.1,17.8,34l.5.5c7.1,7.9,14.5,16.1,22.9,23.4,14.9,12.8,42.3,21.7,66.7,21.7s16.4-1.1,23-3.3c23.4-7.6,40.9-16.2,55.3-27,9.2-6.9,20.1-22,27.3-37.4-4.3,16.6-6.6,23.6-22.5,40.7ZM206.7,196.6c1.4.9,3,1.3,4.7,1.3,3.7,0,8.9-1.7,19.4-14.1,5.5-6.5,10.7-13.9,12.9-17.3,1.4-2.2,4.7-6.4,8.3-10.9,16.8-21.3,23.7-31.4,22.2-38.7-.5-2.5-2-4.6-4.1-5.8-1.4-.8-3.2-1.2-5.3-1.2s-5.6.3-8.3,3c-13.8,13.8-25,28.8-37.6,47.2-.5.7-1.3,1.8-2.3,3.2-10,13.4-14.9,21.4-13.7,27.6.5,2.4,1.8,4.4,3.8,5.7Z"/>
</svg>