<?xml version="1.0" encoding="UTF-8"?>
<svg id="Layer_1" xmlns="http://www.w3.org/2000/svg" version="1.1" viewBox="0 0 512 512">
  <!-- Generator: Adobe Illustrator 30.1.0, SVG Export Plug-In . SVG Version: 2.1.1 Build 136)  -->
  <path fill="#69a9a9" d="M175.4,195c18.3,39.4,28.5,48,11.1,93.8-7.6,19.9-20.1,69.2-11.4,88.8,19.4,5.1,47.5,6.5,69.5,6.7,4,27,2.2,48.4,1.4,71.8h23.1c-.1-13,0-26.1.1-39.3v-32.2c10.5-2,19.7.2,29.8-1-4.7-9.6-26.6-18.7-23.5-28.7,15.2,6.1,26.1,16.8,36.2,28.4,4.5-.5,8.1-1.1,11.5-2.7-6.4-11.6-33.4-25.8-30.2-35,14.8,5.4,25.9,16,35.7,27.7,2.1,2.5,4,4.2,6.8,3.8,2.7-.4,5.4-1.3,5.6-3.9.5-8.9-3.9-10.8-8.6-15.1-10.2-9.4-18.9-19.5-29.9-27.9-3.1-2.3-5.8-6.5-4.3-10.6,17.3,6.9,28.3,19.5,40.5,33.4,1.5-21.7-4.9-16.6-9.9-22.7-14.1-17.2-34.7-27.9-31.9-36.7,16.3,6,26.8,18.1,38.7,30.7-2.3-21.1-6.1-14.4-16.1-26.9-11.9-14.9-32.2-21.9-30-31.1,15,5.2,25.7,16.5,36.4,27.7-3.5-13.6-9.2-26.9-9.6-40.4-.5-14.7,6.6-26.1,11.6-38.7l16.4-41.9c2.1-5.5,2.6-11.2.6-16.8-1.4-3.9-6.2-7.4-11.8-8.9-10.8-3-46.6-14.1-49.8-25.8l-3.9-14.4c-3-1.6-6.7-.5-10.2-1.9-3.4-1.4-2.8-6.6-2.8-9.9,0-4.9,14.9-5.2,10-24.1-1.3-5-5-9.1-10.7-12.1-10.4-5.5-22.4-2.7-29,6.8-5.6,8-4.7,22.4,4.2,27.9,4.1,2.6,5.7,4.9,4.8,9.4-.6,3.2-4.1,4.2-8,4.1-12.2-.6-7.1,17.9-14.5,23.5-31.3,23.7-63.8,8.8-56.2,37.5,2.4,9.2,4.2,18,8.3,26.9Z"/>
</svg>