<?xml version="1.0" encoding="UTF-8"?>
<svg id="Layer_1" xmlns="http://www.w3.org/2000/svg" version="1.1" viewBox="0 0 512 512">
  <!-- Generator: Adobe Illustrator 30.1.0, SVG Export Plug-In . SVG Version: 2.1.1 Build 136)  -->
  <path fill="#69a9a9" d="M187.7,248.6c-21.6,6.3-36,24.8-34.6,44.5,6.9-7.6,17.3-14.2,30-18.6l4.6-25.9ZM168.7,322.3c-13.2-6.1-25.4-10.8-34.4-19.7-6.7-6.6-12.1-17.4-13.2-24l-4-22.4-9.9-56.3-5.2-29.2c-.2-1,.2-1.6,0-1.6,9.6-5.3,18.6-12,28.8-15.9,10.2-3.9,27.2-5.9,37.9-8.4,17.2-4,29.2-5.2,46.9-5.2s1.9.1,2.9.1c8.4-8.1,15.1-15.8,27.1-17.7,11.4-1.8,26.8-.6,38.3-1.1-6-8.4-14.7-14.6-25.1-16.2-14.4-2.3-29.5-1.6-43.8-1.6-23,0-45.2-1.3-67.4,4.5-22.2,5.7-48.7,20.4-69.1,31.8-14.5,8.1-17.4,21.2-14.5,38.1l2.2,37.7,16.9,70.2c2,11.3,6.5,18.2,14.3,27.9,10.8,13.5,31.6,34.5,47.9,43.5,22.4,12.3,42.5,14,60.6,14s4.1-.3,6-.5c-8.1-10.3-17.4-24.3-23.7-40.6-6.4-1.9-13.1-4.4-19.6-7.4ZM179.6,196c-.4-2.5-1.3-4.7-2.4-6.9-5,5.4-12.4,9.5-21.2,11-8.8,1.6-17.2.2-23.7-3.1-.3,2.4-.4,4.8.1,7.3,2.3,13,14.8,21.7,27.8,19.5,13-2.3,21.7-14.8,19.4-27.8ZM434.6,178.7c-2-1.8-4.1-3.4-6.5-4.7l6.5,4.7ZM434.6,178.7c.2.1.3.3.4.4l.6.3-1-.7ZM435,179.1c-10.2-5.7-26.5-15.9-35.4-20.3-18.7-9.1-36.6-15.6-59.9-18.4-12.6-1.5-36.2-.9-48.9-.7-12.7.2-23,4.3-35.7,6.3-16.4,2.6-26,7.6-29,24.5l-12.3,49-12.8,64.1c-2.6,14.8.8,30.6,7.9,45.8,9.5,20.4,28,34.9,45,49.4,15.4,13.1,29.3,27.1,42.2,29.4,14.9,2.6,37.2-1.8,59.2-11.4,13.7-6,33.9-14.1,45.6-23.5,17.3-13.9,23.9-30.8,27.2-49.7l17.3-65.1,1.7-42.8c2.7-13.8-2.2-27.6-12.1-36.6ZM263.9,232.1c2.3-13,14.8-21.7,27.8-19.4,13.1,2.3,21.8,14.7,19.5,27.8-.4,2.5-1.3,4.7-2.4,6.9-5-5.4-12.4-9.5-21.2-11-8.8-1.6-17.2-.2-23.7,3.1-.4-2.5-.5-4.9,0-7.4ZM364.3,332.6c-4.2,3.3-11.3,8.9-16.7,11.1-5.3,2.2-13.7,5.8-20.1,7.1-7.1,1.4-13.8,4.1-20.6,2.9l-11.7-3.9c-20.9-3.4-28.6-15.3-33.4-28.4-5-13.4-10-18.9-9.1-37.8,6.2,7.7,14.6,14.6,24.8,20.2,10.1,5.6,23.1,13.1,36.1,15.3,13,2.3,24.8.1,36.2-1.7,11.5-1.8,21.5-6.4,29.9-11.5-3.6,13.5-5.8,19.3-15.4,26.7ZM363.3,249.6c-8.8-1.6-17.2-.2-23.7,3.1-.3-2.4-.4-4.8.1-7.3,2.3-13,14.8-21.7,27.8-19.5,13.1,2.3,21.8,14.7,19.5,27.8-.4,2.5-1.3,4.7-2.4,6.9-5.1-5.3-12.5-9.4-21.3-11ZM393.8,365.9c-3.8-2.3-6.8-4-7.2-4.2-1.4-1.3.8-5.6,1.8-5.9,1.8-1.2,6.6.8,11.5,3.7-2,2.4-4,4.5-6.1,6.4ZM404.7,353c-5.7-3.7-11.1-7-11.7-7.3-.8-.9,2.1-6.2,3.6-6.6.7-.2,6.2,3.6,11.8,7.6-1.1,2.2-2.4,4.3-3.7,6.3ZM412.6,337.7c0,.1-.1.2-.1.3-6.3-4.5-13.6-9.6-13.6-9.6,0,0,.9-2.9,2.3-3.8,2.3-1.6,9.2,2.7,13.9,6.5-.8,2-1.6,4.2-2.5,6.6ZM418.2,320.7l-1.9,2.9c1.3-1-11.2-9.4-11.8-10.9-.5-1.5,3.4-2.9,3.7-3.6,1-2,8.1,3.4,11.3,5.8-.2,1.7-.7,3.7-1.3,5.8ZM421.1,305.6c-5-4.7-12.2-11.2-12.6-11.4-.1-.5,2.8-4,4-3.7.7-.2,4.5,2.9,8.6,6.5-.1,2.4,0,4.9.1,7.3-.1.1-.1.6-.1,1.3ZM421.7,287.7c-2.4-2.3-4.6-4.4-4.8-5.1-.4-1.5,3.4-3.6,4.1-3.2.1.1.8.7,1.8,1.6-.4,2.2-.8,4.4-1.1,6.7Z"/>
</svg>