<?xml version="1.0" encoding="UTF-8"?>
<svg id="Layer_1" xmlns="http://www.w3.org/2000/svg" version="1.1" viewBox="0 0 512 512">
  <!-- Generator: Adobe Illustrator 30.1.0, SVG Export Plug-In . SVG Version: 2.1.1 Build 136)  -->
  <defs>
    <style>
      .st0 {
        fill-rule: evenodd;
      }
    </style>
  </defs>
  <path fill="#69a9a9" class="st0" d="M396.1,408.3c-1.4-3.6-3.6-8.5-7.8-12.1-3.6-2.8-6.4-6.4-10.7-10-4.3-4.3-7.8-7.1-14.2-11.4-4.3-2.8-11.4-7.1-17.1-10-5-2.8-9.3-5.7-14.2-8.5-3.6-2.1-7.8-4.3-11.4-6.4s-8.5-3.6-12.1-5c-4.3-2.1-7.8-5-12.1-6.4l-.7-8.5c0-5,0-11.4-1.4-22.1-.7-12.1-4.3-17.1-2.8-24.2.7-3.6.7-7.1,2.1-10.7.7-2.8,2.1-5.7,3.6-8.5,1.4-2.1,2.1-5.7,2.8-7.8,2.1-4.3,3.6-6.4,3.6-8.5,0-4.3-1.4-7.8-4.3-11.4s-6.4-6.4-11.4-9.3c-4.3-2.1-7.1-4.3-10-6.4-2.8-2.1-4.3-3.6-6.4-5.7l-.7-24.2,2.1-17.1c0-2.1,0-6.4-.7-10,0-3.6-.7-9.3-1.4-12.8-.7-7.1-.7-12.8-2.1-23.5-.7-4.3-2.1-7.8-2.8-11.4-.7-3.6-.7-7.1-.7-9.3-.7-7.8-1.4-14.9-1.4-17.1s2.1-6.4,5-12.8c3.6-6.4,5.7-11.4,5.7-16.4,0-7.8-3.6-16.4-8.5-22.8-2.1-3.6-5-6.4-10.7-11.4-1.4-1.4-3.6-.7-5,0-3.6,2.8-6.4,6.4-7.8,9.3-2.1,2.8-3.6,5-5,8.5-1.4,3.6-3.6,8.5-3.6,12.1s.7,5,1.4,7.8,2.1,5.7,3.6,9.3c2.8,6.4,7.1,11.4,7.1,12.8,0,2.1-2.1,7.8-3.6,16.4-.7,5.7-.7,11.4-1.4,21.4-1.4,10-1.4,18.5-2.1,24.9-.7,5.7-3.6,11.4-3.6,14.9l-13.5-8.5c-3.6-3.6-5.7-5.7-6.4-5.7-6.4-2.8-13.5-2.1-21.4,1.4-1.4.7-3.6,2.1-5,2.8-4.3,2.8-8.5,5.7-11.4,9.3-2.1,2.8-6.4,7.8-7.1,10.7-3.6,8.5-2.1,16.4,0,24.9-2.8,2.1-5,5-5.7,7.8-2.1,5-4.3,9.3-3.6,14.2.7,3.6,4.3,8.5,6.4,12.1,5,7.1,5.7,12.8,3.6,17.8-2.1,4.3-5.7,6.4-10.7,5.7-2.8,0-3.6,1.4-3.6,3.6s1.4,3.6,3.6,3.6c8.5.7,14.2-2.8,17.8-10,1.4-2.8,3.6-6.4,5-10,2.1-5,2.8-10,0-15.7-3.6-5.7-3.6-7.1-2.1-10-1.4-1.4-2.1-3.6-3.6-6.4l5,3.6c-.7,1.4-.7,2.1-1.4,2.8,2.8,5,6.4,6.4,12.8,9.3,2.1.7,4.3,1.4,6.4,2.1,5,1.4,10,1.4,14.9,0l2.1-.7c-1.4,3.6-2.1,8.5-2.1,13.5,0,10.7,6.4,24.9,19.9,42,12.1,15.7,18.5,27.8,18.5,34.9s-6.4,12.8-22.1,18.5c-5.7,2.1-12.8,5.7-17.1,12.8-3.6,5.7-5,9.3-4.3,18.5,2.8,10.7,0,14.2-13.5,19.9-2.1.7-5,.7-7.1,2.1l-16.4,5-7.1,3.6c1.4-6.4,7.8-22.1,7.8-29.2,0-19.2,3.6-39.1,4.3-43.4,0-1.4.7-10.7,7.1-17.8l8.5,2.1c3.6-5,7.1-10,7.8-17.1l-1.4-35.6.7-7.1c0-2.1-.7-3.6-2.1-3.6-2.1-.7-3.6,0-4.3,2.1-9.3,17.8-18.5,36.3-30.6,64.1-2.1,5.7-7.1,12.1-10,17.8-2.8,5-4.3,11.4-6.4,16.4-7.8,17.1-14.9,29.9-19.9,42-8.5,19.9-12.8,33.5-12.8,39.1s0,5,.7,7.1c1.4,5,3.6,9.3,7.1,11.4,2.8,2.1,6.4,3.6,10.7,4.3,2.8.7,6.4.7,10.7.7s7.8-1.4,12.1-1.4,5.7-.7,9.3-1.4c2.8-.7,7.8-2.1,10.7-2.8,8.5-2.1,16.4-3.6,24.2-5.7,7.8-2.8,13.5-7.1,21.4-10.7,5.7-2.8,11.4-5,16.4-7.8,4.3-2.8,4.3-3.6,8.5-6.4,1.4-.7,10-6.4,12.8-8.5,5.7-2.8,10.7-4.3,14.2-7.8,5.7,1.4,10.7,4.3,17.8,6.4,5,1.4,10,1.4,17.8,2.1l11.4,1.4,9.3.7h18.5l-19.9,5-12.1,2.8-4.3,1.4c-3.6,2.1-5.7,2.8-10.7,4.3-4.3,1.4-9.3,3.6-12.8,5-7.1,2.1-11.4,2.8-13.5,2.8l-12.2-3.2c-2.8,0-5-.7-7.8-.7-2.8.7-7.8,2.8-10,4.3-2.1,2.1-5.7,3.6-9.3,6.4,0,0-7.1,4.3-9.3,5s-4.3,2.1-4.3,2.1c0,0-5.7,3.6-7.1,3.6-2.1.7-2.1,2.8-1.4,4.3.7,1.4,1.4,2.1,3.6,2.1h0c10-.7,16.4-.7,26.3-3.6,2.8-.7,5.7,0,9.3-.7,7.1,0,13.5.7,19.2.7h7.8c10.7-.7,17.1-1.4,20.6-1.4h12.8l11.4-1.4,25.6-2.8c6.4-.7,16.4-2.8,21.4-4.3,4.3-1.4,7.8-2.1,11.4-4.3,3.6-2.1,6.4-5,9.3-7.1,4.3-2.1,5-7.8,5-14.2.1-2.3.1-5.1-1.4-8.7ZM285.8,274.5s1.4.7,2.8,2.1v1.4c.7,2.1.7,5,.7,7.1-3.6-2.8-11.4-5-11.4-5.7-.6-1.3,7.2-5.6,7.9-4.9ZM290.1,300.1c-3.6-2.8-7.8-6.4-7.8-7.1-.7-1.4,3.6-4.3,4.3-3.6,0,0,1.4.7,2.1,2.1.7.8.7,4.4,1.4,8.6ZM290.8,330.7c-5-4.3-15.7-12.8-16.4-13.5,0-.7,2.8-4.3,4.3-4.3s7.1,4.3,13.5,9.3c-.7,3.6-.7,6.4-1.4,8.5ZM290.8,315.1c-5-2.8-7.1-5.7-7.8-6.4-.7-1.4.7-7.1,2.1-7.1s3.6,2.1,6.4,4.3c.7,3.6,1.4,7.8,1.4,8.5,0,0-2.1,0-2.1.7ZM347.7,443.2c-1.4-2.1-4.3-2.1-5.7-4.3-.7-1.4,2.8-5,4.3-5s6.4,8.5,6.4,8.5l-5,.8ZM364.1,441.8c0-1.4-7.1-8.5-7.8-10.7-.7-2.1,3.6-5,4.3-4.3,1.4,0,7.8,12.1,9.3,12.8l-5.8,2.2ZM376.9,436.1c.7-.7-6.4-7.1-7.8-8.5v-2.1c-.7-1.4,1.4-5,2.1-4.3s9.3,13.5,9.3,13.5l-3.6,1.4ZM386.9,433.2c.7-1.4-5-8.5-5.7-10-.7-1.4,2.1-5.7,3.6-5,1.4,0,5,10,5.7,10.7l-3.6,4.3Z"/>
</svg>