<?xml version="1.0" encoding="utf-8"?>
<!-- Generator: Adobe Illustrator 24.3.0, SVG Export Plug-In . SVG Version: 6.00 Build 0)  -->
<svg version="1.1" id="Layer_1" xmlns="http://www.w3.org/2000/svg" xmlns:xlink="http://www.w3.org/1999/xlink" x="0px" y="0px"
	 viewBox="0 0 512 512" style="enable-background:new 0 0 512 512;" xml:space="preserve">
<path fill="#fff" d="M425,155.2l-27.9-48.9L387.7,92c-1.4-2-4.1-3.4-6.8-3.4c0,0-5.4,0-16.3,0c-6.1,0-14.9-0.7-23.1-0.7
	c-30.6-0.7-70.7-1.4-84.3,0c-22.4,2-106.7,0-106.7,0h-17c-2.7,0-5.4,1.4-6.8,3.4c0,0-8.8,12.2-12.2,21.1S103,132.1,103,132.1
	l-13.6,22.4c-0.7,1.4-1.4,2.7-1.4,4.1c0,0-1.4,8.2-2,14.3c0,6.1,2,17,2,17l0,0c0.7,6.1-0.7,12.2,2,17c2.7,5.4,8.2,8.8,12.9,12.9
	v79.5c2,33.3,5.4,65.2,7.5,99.2c2,0,0.7,2.7,0.7,4.1c2,2,2.7,4.8,3.4,8.2c3.4,2.7,6.1,5.4,8.2,8.2c4.1,0.7,6.8,2.7,10.9,4.1
	c4.1,0.7,8.2,1.4,12.2,2h107.4c28.5-2.7,74.1-1.4,97.8-4.8h36c2-1.4,5.4-1.4,8.2-2.7c2.7-2,4.8-3.4,7.5-5.4c1.4-1.4,1.4-4.1,3.4-4.8
	c2.7-8.8,4.1-19,4.8-29.2V221.1c8.2-8.2,13.6-19,14.9-31.3l0,0v-31.3C426.4,157.9,425.7,156.5,425,155.2z M337.4,103.5l18.3-0.7
	c0,0-0.7,0,5.4,0c6.1,0,15.6,0,15.6,0l8.8,14.9c0,0,6.1,8.8,8.2,13.6c1.4,2.7,5.4,10.9,8.8,15.6c1.4,2.7,3.4,4.1,2.7,4.8
	c0,0.7-6.8,0-11.6,0s-23.1,0-23.1,0h-12.2c0,0-14.3,0.7-15.6-1.4c-1.4-2-3.4-8.2-3.4-8.2s0-3.4-2.7-8.2c-2.7-4.8-3.4-10.2-3.4-10.2
	l-0.7-10.2l-4.8-10.9L337.4,103.5z M264.7,166.7h17l29.9,2l19.7-2v19.7c0,8.8-5.4,16.3-10.9,22.4c-6.1,6.1-12.2,10.2-21.7,10.2
	c-10.2,0-21.1-6.1-27.2-12.9c-4.8-5.4-5.4-11.6-5.4-19.7l0.7-8.2L264.7,166.7z M264.7,113c-0.7-4.8,0-10.2,0-10.2h21.1
	c0,0,4.8,0.7,12.2,0c7.5-0.7,13.6,0,13.6,0L315,113c0,0,4.8,12.2,6.1,18.3c0.7,6.1,6.8,20.4,6.8,20.4s-17-1.4-25.1,0
	c-8.8,1.4-23.1,0-23.1,0s-12.9,1.4-14.3,0c-0.7-1.4,0-6.8,0-6.8v-19C264.7,125.9,266.1,117.1,264.7,113z M192.7,134.8
	c1.4-6.8,5.4-17,5.4-17s1.4-2.7,2-6.8c0.7-3.4,2.7-8.2,2.7-8.2h8.2c0,0,12.9,1.4,21.7,0c8.8-1.4,17,0,17,0v6.1l-0.7,21.7l0.7,21.1
	h-17h-29.9c0,0-16.3,0.7-16.3-1.4C187.9,149,190.6,141.6,192.7,134.8z M249.7,175.5v11.6c0,9.5-3.4,17-10.2,23.1
	c-6.1,4.8-12.9,8.8-23.1,9.5c-7.5,0.7-14.3-2.7-19.7-6.8c-3.4-2.7-6.8-4.1-8.8-9.5c-2-5.4-4.8-10.9-4.8-17c0,0-2.7-17.7,0-19.7
	c2.7-2,28.5,0,28.5,0s6.8-0.7,14.3,0c9.5,1.4,22.4-1.4,22.4,0C249.7,168.1,249.7,175.5,249.7,175.5z M116.6,139.5l8.8-14.9
	c0,0,4.1-6.1,6.8-11.6c2.7-5.4,6.1-10.2,6.1-10.2h5.4c0,0,14.3,0.7,21.7,0c7.5-0.7,21.7,0,21.7,0l-2,6.8c0,0-6.1,10.9-6.1,14.9
	c0,3.4-4.1,17-4.1,17l-3.4,9.5l-23.1-1.4l-12.2,1.4l-14.3-0.7c0,0-12.2,0.7-12.2-0.7C108.4,149,116.6,139.5,116.6,139.5z M136.3,219
	c-10.2,0-21.1-6.1-27.2-12.9c-4.8-5.4-5.4-11.6-5.4-19.7l0.7-8.2l-0.7-11.6h17l29.9,2l19.7-2v19.7c0,8.8-5.4,16.3-10.9,22.4
	C151.9,214.9,145.8,219,136.3,219z M209,358.3L209,358.3c-8.2,0-14.9-6.8-14.9-14.9c0-8.2,6.8-14.9,14.9-14.9
	c8.2,0,14.9,6.8,14.9,14.9C223.9,351.5,217.1,358.3,209,358.3z M351,307.4c0,7.5,0.7,22.4,0,34.7c0,6.8,2,11.6-0.7,13.6
	c-2,1.4-5.4,2-5.4,2H332v-10.9c0,0,2-9.5,0-11.6c-2-2-6.8-0.7-6.8-0.7l-12.9-1.4c0,0-8.8,0-10.2,1.4s0,8.2,0,8.2v15.6h-14.9V342
	c0,0,2-4.8-2-6.1c-4.1-2-9.5,0-9.5,0H262c0,0-4.8-1.4-6.1,1.4c-1.4,3.4,0.7,6.8,0.7,6.8v13.6h-23.1c2.7-4.8,2-7.5,4.1-14.9
	c2-7.5-0.7-8.2-2-11.6c-1.4-2.7-6.1-10.2-4.1-7.5c2,2.7-5.4-5.4-8.2-7.5v-15.6l-12.2-0.7c0,0-6.1,0.7-12.2,0.7c-4.8,0.7-5.4,0-5.4,0
	v17c-4.8,2.7-8.2,6.1-10.9,10.9c-2.7,4.8-4.1,9.5-4.1,14.9c0,5.4,1.4,10.9,4.1,14.9c0,0-14.9,0.7-17-0.7c-2-1.4-2-8.8-1.4-20.4
	c0-14.9,0-34.7,0-42.8c-0.7-10.2,1.4-25.1-0.7-36.7c-2-11.6,0.7-17.7,0.7-17.7v-14.3c5.4-3.4,9.5-8.2,12.9-13.6
	c3.4,5.4,6.8,10.2,12.2,14.3c3.4,2.7,8.8,4.1,13.6,5.4c4.8,1.4,10.2,1.4,15.6,1.4c4.8,0,8.2,0.7,12.2-0.7c4.8-1.4,10.9-3.4,14.9-6.1
	c6.1-4.1,8.8-8.8,12.2-14.3c2,3.4,2.7,6.1,6.8,8.8c4.1,2.7,9.5,6.1,13.6,8.2c6.8,3.4,13.6,4.8,21.1,4.8c6.8,0,15.6-3.4,21.1-6.1
	c4.8-2,8.2-5.4,10.9-8.2c2-2,4.1-3.4,6.8-6.8c3.4,5.4,8.2,10.2,12.9,13.6c0,0,0,16.3,0,27.2c0,5.4,1.4,17,1.4,27.9
	C352.3,291.7,351,301.9,351,307.4z M393.1,412.7c0-2-18.3-21.7-19.7-23.1c-1.4-1.4,0.7-8.8,1.4-8.8c0.7,0,21.1,22.4,21.1,22.4
	L393.1,412.7z M398.5,392.3c-0.7,2-20.4-19-21.1-23.1c0-2,0.7-6.8,1.4-7.5c0.7,0,19.7,22.4,19.7,22.4V392.3z M401.3,373.3
	c0-1.4-17.7-17.7-18.3-19.7c-0.7-2,1.4-8.2,2-8.2c0.7,0,16.3,17.7,17,17.7L401.3,373.3z M401.3,320.3l0.7,9.5l0.7,1.4
	c-0.7-1.4-11.6-14.9-11.6-14.9s0-7.5,1.4-6.8C393.8,310.1,401.3,320.3,401.3,320.3z M392.4,297.8c0,0,0-6.8,1.4-6.1
	c1.4,0.7,9.5,9.5,9.5,9.5v6.1l-0.7,2.7C401.9,308.7,392.4,297.8,392.4,297.8z M403.3,352.2c0-1.4-17-17.7-17.7-19
	c-0.7-1.4,0.7-6.8,1.4-6.8c0.7,0.7,16.3,16.3,16.3,16.3V352.2z M411.5,178.9v7.5c0,6.1-2,12.2-4.8,17c-2.7,4.1-6.1,6.8-10.2,9.5
	c-4.8,3.4-11.6,4.8-17.7,4.8c-9.5,0-18.3-2.7-24.5-9.5c-5.4-6.1-7.5-14.3-7.5-23.1l-0.7-17l10.2-1.4c0,0,20.4,0,25.8,0
	s10.9,0,10.9,0s18.3-0.7,19,1.4C412.1,170.1,411.5,178.9,411.5,178.9z"/>
</svg>
