<svg xmlns="http://www.w3.org/2000/svg" viewBox="0 0 497.15 59.64"><title>sozialbau-logo</title><path d="M38.63,30.65c-.34-15.07,13-28.14,28.42-28.31C82.75,2.17,96.1,15.4,96,30.91a28.76,28.76,0,0,1-28.69,28.4C54.13,59.48,38.31,48.93,38.63,30.65ZM66.8,10.33C60.17,10,52.87,14.27,49.54,20.68c-3.81,7.35-3.63,14.81,1,21.74a19.4,19.4,0,0,0,16.31,9Z"/><path d="M494.57,13.81c-.13.15-.26.31-.4.45L488.8,19.4c-1.21-1.28-2.33-2.58-3.56-3.75-10.55-10-29-5.1-32.71,10.08-3.41,13.92,5.52,22.9,14.75,25.45,9,2.48,18.57-3.2,20.53-12,.09-.42.12-.85.2-1.4H474.44V30h22.71c-.13,2.35-.13,4.7-.39,7-1.14,10.11-6.55,17.2-15.95,20.81a27,27,0,0,1-30-7.51c-5.71-6.35-7.86-13.78-7.2-22.24,1-12.44,11.58-23.44,23.7-25.14,10-1.42,18.55,1.45,25.51,8.85.52.55,1,1.11,1.55,1.67A2.28,2.28,0,0,1,494.57,13.81Z"/><path d="M261.17,28.87a13.61,13.61,0,0,1,9,11.13c1.42,9.13-4.35,17-13.58,17.9-6.1.62-12.29.31-18.44.41-.06,0-.13-.07-.28-.14V3.55c1,0,2,0,3,0,4,.14,8.08.05,12.07.52A14.18,14.18,0,0,1,265.47,18.2C265.56,22.51,264.88,24.21,261.17,28.87Zm-15,4.95V50.53c3.3,0,6.53.29,9.7-.51,4-1,6.35-4,6.25-7.93a7.57,7.57,0,0,0-6.63-7.49C252.54,34.11,249.46,34.07,246.22,33.82Zm0-6.54c2.26-.26,4.43-.43,6.57-.8a5.19,5.19,0,0,0,2.2-1.15c2.69-2.21,2.84-5.23,2.36-8.33a6.24,6.24,0,0,0-5.34-5.44,48.64,48.64,0,0,0-5.79-.47Z"/><path d="M180,0l26.16,58.33c-2.4,0-4.63-.14-6.83,0-1.81.14-2.65-.51-3.28-2.18-1.31-3.44-2.89-6.76-4.3-10.15a1.37,1.37,0,0,0-1.5-1q-10.73,0-21.45,0a1.26,1.26,0,0,0-1.32.91c-1.72,3.82-3.51,7.62-5.22,11.44a1.4,1.4,0,0,1-1.54,1c-2.55,0-5.11,0-7.9,0C161.87,38.87,170.87,19.58,180,0Zm-.15,18.71-8.43,18.41h16.45Z"/><path d="M298,.07c8.77,19.56,17.41,38.82,26.12,58.26-.73,0-1.34.11-1.95.11-2,0-4.08-.06-6.11,0-.84,0-1.16-.3-1.47-1-1.59-3.79-3.27-7.54-4.86-11.33a1.37,1.37,0,0,0-1.5-1q-10.68,0-21.35,0a1.31,1.31,0,0,0-1.41.93c-1.7,3.79-3.47,7.55-5.17,11.34a1.47,1.47,0,0,1-1.6,1c-2.55-.07-5.1,0-7.89,0C279.89,38.92,288.87,19.65,298,.07Zm-8.6,37.15h16.48l-8-18.44Z"/><path d="M416.93.14c8.8,19.61,17.45,38.91,26.17,58.36-3,0-5.77,0-8.56,0-.32,0-.76-.49-.93-.85q-2.52-5.7-4.94-11.44a1.39,1.39,0,0,0-1.48-1q-10.6,0-21.21,0a1.49,1.49,0,0,0-1.62,1c-1.7,3.83-3.5,7.62-5.22,11.44a1.32,1.32,0,0,1-1.45.9c-2.27,0-4.55,0-6.83,0-.3,0-.6-.07-1.08-.12C398.82,39,407.81,19.72,416.93.14Zm7.89,37.17c-2.69-6.16-5.31-12.18-8-18.46-2.88,6.27-5.63,12.3-8.45,18.46Z"/><path d="M359.56,3.65h8.36V5.31c0,11.12,0,22.23,0,33.35,0,9-3.93,15.78-12.33,19.2-12.65,5.15-25.52-2.38-27.77-14.1a38.72,38.72,0,0,1-.48-7.15c0-10.51,0-21,0-31.54V3.67h8.29c0,2.81,0,5.56,0,8.31,0,8.07-.06,16.14,0,24.21A35.11,35.11,0,0,0,336.3,43a10.33,10.33,0,0,0,9,8.46c4.35.66,8.28-.23,11.32-3.69,2.22-2.53,2.83-5.65,2.87-8.83.11-9.63.07-19.27.09-28.9Z"/><path d="M109.17,50.44h26.17v7.77H95.49L122.35,11.3H100V3.57h36Z"/><path d="M0,43l8.25-1.82c.27,1.28.47,2.53.8,3.74,1.15,4.26,4.41,6.6,8.9,6.44a8.61,8.61,0,0,0,8.55-7c.8-3.85-.48-7.3-3.86-9.31-2.49-1.48-5.27-2.47-7.85-3.81s-5.34-2.51-7.54-4.34C.58,21.43.72,12,7.31,6.35c8.34-7.13,21.59-4.53,26.33,5.3L27,15.59c-.56-.81-1.11-1.57-1.64-2.35C22.48,9,15.12,9.46,12.27,13a5.55,5.55,0,0,0,.7,8.1,20.15,20.15,0,0,0,4.13,2.38c2.94,1.36,6,2.45,8.87,3.93,4.27,2.2,7.61,5.36,8.67,10.29C37.28,50,28.48,59.08,17.93,59.24,7.69,59.39,1.52,53.1,0,43.64A5.87,5.87,0,0,1,0,43Z"/><path d="M209.34,3.58h8.25V50.51h16v7.77H209.34Z"/><path d="M141.43,3.57h8.19V58.25h-8.19Z"/><path d="M66.77,10.33a20.57,20.57,0,0,1,0,41.13" style="fill:#d81d30"/></svg>