<?xml version="1.0" encoding="utf-8"?>
<!-- Generator: Adobe Illustrator 30.1.0, SVG Export Plug-In . SVG Version: 9.03 Build 0)  -->
<svg version="1.1" id="Layer_1" xmlns="http://www.w3.org/2000/svg" xmlns:xlink="http://www.w3.org/1999/xlink" x="0px" y="0px"
	 viewBox="0 0 451.3 125.3" style="enable-background:new 0 0 451.3 125.3;" xml:space="preserve">
<style type="text/css">
	.st0{fill:#FFFFFF;}
	.st1{fill:#DB6C6C;}
</style>
<path class="st0" d="M413.4,37.3h-35.6v0h-52.7c-4.2,0-8,2-10.3,5.1c-5.6-4.1-12.8-6.4-21-6.4c-4.9,0-9.5,0.8-13.7,2.5
	c-1.7-0.8-3.5-1.2-5.5-1.2h-11.2c-1.7,0-3.4,0.3-4.9,0.9c-1.5-0.6-3.1-0.9-4.9-0.9h-11.1c-2.4,0-4.6,0.6-6.5,1.7
	c-4.9-1.9-10.4-3-16-3c-12.3,0-23.1,4.8-30.8,12.8c-5.9-8-15.6-12.8-27.4-12.8c-2.1,0-4.2,0.2-6.1,0.5V14.2c0-0.7-0.1-1.4-0.2-2
	v-0.6c0-6.4-5.2-11.5-11.5-11.5h-29.5v0.1c-0.6,0-1.1,0-1.7,0c-27.2,0-49.9,16-59.2,39.3c-4.7-2.1-9.9-3.3-15.4-3.3
	c-18.5,0-32.4,12.8-32.4,29.9c0,6.9,1.9,12.7,5.6,17.5l-6.6,5.4c-4.6,3.7-6.1,10-3.6,15.4c5.8,12.8,19.5,21.1,35,21.1
	c14.3,0,26-7.3,31.6-18.5c11.2,10.5,26.1,16.6,42.2,17.1c0.4,0,0.8,0.1,1.2,0.1h31.5c0.4,0,0.8,0,1.2-0.1h26.5
	c0.4,0,0.8,0.1,1.2,0.1h11.1c0.4,0,0.8,0,1.2-0.1h57.6c0.4,0,0.8,0.1,1.2,0.1h11.1c0.4,0,0.8,0,1.2-0.1h7.4c0.4,0,0.8,0.1,1.2,0.1
	h11.2c0.4,0,0.8,0,1.2-0.1h26.5c0.4,0,0.8,0.1,1.2,0.1h11.1c0.4,0,0.8,0,1.2-0.1h2.5c0.4,0,0.8,0.1,1.2,0.1h61c0.4,0,0.8,0,1.2-0.1
	h28.2h3.6c21,0,38-17,38-38V75.2C451.3,54.3,434.3,37.3,413.4,37.3z"/>
<path class="st1" d="M409.3,103c-11,0-19.1-7.5-20-19.8h49.4c0-21-11.8-34.1-29.7-34.1c-18,0-30.9,13.2-30.9,31.9
	c0,18.7,12.2,31.3,31.2,31.3c12.2,0,22.3-6.1,27.7-15.9l-8.3-5.1C423.5,98.9,417.7,103,409.3,103z M408.8,58
	c9.7,0,16.8,6.4,18.1,16.4h-37.2C391.6,64,398.4,58,408.8,58z M161.8,49.1c-8.1,0-14.5,3.4-18.9,10h-0.3V14.2h-11.3v86l-20.2-0.1
	c-20.6-0.8-36.9-16.8-36.9-37.3c0-22.2,16.8-38.9,38.9-38.9c2.9,0,5.8,0.3,8.5,0.8V13.7c-2.8-0.5-5.8-0.7-8.9-0.7
	C84,13,62,34.9,62,63.3c0,26.5,21.1,47.1,49.2,47.7v0h20.2h11.1h0.1V74.5c0-8.9,6.6-16,15.6-16c8.5,0,13.2,4.9,13.2,14.2V111h11.1
	V69.2C182.6,56.6,174.3,49.1,161.8,49.1z M41.1,74.4c-8.4-2.7-11.3-4.6-11.3-9.6c0-4.6,4-6.9,8.7-6.9c4.5,0,8.5,1.9,12.2,6.3
	l5.3-6.9c-3.6-4.9-10.1-8.2-17.7-8.2c-11.4,0-19.4,7.3-19.4,16.9c0,8.4,4.5,13.9,16.8,17.2c8.8,2.3,11.8,4.7,11.8,10
	c0,6.1-4.8,10-11.4,10c-7.6,0-12.5-4.3-15.6-10.2l-7.4,6c3.1,6.9,11.1,13.4,23.1,13.4c12.9,0,22-8.4,22-20.3
	C58.1,82.8,53,77.9,41.1,74.4z M242.5,59.9h-0.3c-4.1-6.8-12.9-10.9-22.2-10.9c-17.3,0-30.3,13-30.3,31.8c0,18.3,12,31.4,29.7,31.4
	c9.7,0,18.4-4.1,22.8-10.6h0.3v9.3h11.1V50.3h-11.1V59.9z M221.7,102.7c-12,0-20.4-8.4-20.4-22.2c0-13.2,8.7-21.8,21-21.8
	c11.9,0,21.2,8.3,21.2,21.7C243.4,93.1,234.5,102.7,221.7,102.7z M381.1,50.6l-0.1-0.3h-55.9v9.3h36.2l-42,51l0.1,0.4h61v-9.2h-41.8
	L381.1,50.6z M293.8,49.1c-7.9,0-14.5,3.2-18.9,9.7h-0.3v-8.4h-11.2V111h11.2V74.4c0-9.7,6.7-15.8,15.4-15.8
	c8.5,0,13.4,4.9,13.4,13.8V111h11.1V69.2C314.6,56.6,306.2,49.1,293.8,49.1z"/>
</svg>
