<?xml version="1.0" encoding="utf-8"?>
<!-- Generator: Adobe Illustrator 26.5.0, SVG Export Plug-In . SVG Version: 6.00 Build 0)  -->
<svg version="1.1" id="Layer_1" xmlns="http://www.w3.org/2000/svg" xmlns:xlink="http://www.w3.org/1999/xlink" x="0px" y="0px"
	 viewBox="0 0 204 215" style="enable-background:new 0 0 204 215;" xml:space="preserve">
<style type="text/css">
	.st0{fill:#FFFFFF;}
</style>
<path d="M197.9,74.9c-6.8-30.5-29-48.6-41.6-56.8c-2-1.3-48.8-30.7-95.2-6.9c-8.8,4.5-16.7,10.5-23.3,17.7
	C18.4,45.3,5.8,68.8,4.2,93.6c-1.3,17.1,2.6,34.3,11.2,49.1c5.2,13.7,14.4,25.5,26.5,33.8c2.8,2,13.9,8.5,18.2,9.4
	c0.3,0.1,0.5-0.1,0.6-0.4l0,0c0.1-0.3-0.1-0.5-0.4-0.6l0,0c-4.2-0.8-15.1-7.3-17.8-9.2c-10.1-7-18.2-16.4-23.5-27.5
	c5.7,8.2,12.6,15.4,20.5,21.5l0.3,0.3c6.4,4.7,13.4,8.5,20.8,11.3c0.1,0,0.2,0,0.2,0c0.8,0.4,1.6,0.6,2.4,0.6c2.1,0,4.7-1.9,7-3.6
	c0.4-0.3,0.8-0.6,1.1-0.8c3.6-2.6,6.2-4.8,6.2-4.8l10-8.5c0.8-0.7,2-0.6,2.7,0.2l0,0c0.6,0.8,0.5,2-0.3,2.7l-5.2,4.6
	c-0.6,0.5-0.8,1.3-0.5,2s0.9,1.2,1.7,1.2h21.7c0.7,0,1.2,0.6,1.2,1.2s-0.6,1.2-1.2,1.2H95.2c-1.2,0-2.1,0.9-2.1,2.1s0.9,2.1,2.1,2.1
	h15.6c0.7,0,1.2,0.5,1.3,1.1c0.1,0.7-0.4,1.3-1.1,1.4h-0.1H90.5c-0.2,0-0.4,0-0.6,0.1c-0.3,0-0.5,0.2-0.7,0.4
	c-0.4,0.4-0.7,0.9-0.7,1.5c0,1.1,0.9,1.9,1.9,1.9h17.9c0.7,0,1.2,0.6,1.2,1.3v0.1c-0.1,0.7-0.7,1.1-1.3,1.1H87.9
	c-1.1,0-1.9,0.9-1.9,1.9v0.3c0,1.1,0.9,1.9,1.9,1.9h15.3c0.7,0,1.3,0.6,1.3,1.2v0.1c0,0.1-0.1,0.2-0.1,0.3c-0.3,0.3-0.7,0.4-1.1,0.4
	H91c-0.7,0-1.4,0.5-1.5,1.2c-0.3,0.4-0.5,0.9-0.5,1.4c0,1.2,1,2.2,2.2,2.2h21.7c0.4,0,0.8,0.3,0.8,0.8c0,0.2-0.1,0.4-0.3,0.6
	l-5.2,4.5c-1.2,1-1.4,2.8-0.4,4.1c0.5,0.6,1.2,1,2,1h0.2c0.7,0,1.4-0.3,1.9-0.7l10.1-8.8l0,0l18.8-12c17.1-7,26.9-14.8,28-15.9
	c15-15.4,24.8-35.1,27.9-56.4C200.6,104.5,201,89.4,197.9,74.9z M38.4,29.7c4.5-3.8,9.3-7.1,14.4-10c-1.2,0.8-2.4,1.7-3.5,2.6
	c-13.5,8-22.3,23-27.6,34.8c-1.9,4.4-3.7,8.8-5.2,13.4c-0.8,1.8-1.5,3.6-2.1,5.3C19,57.3,27.2,41.7,38.4,29.7z M42.4,28.5
	c-8,8.4-14.7,19-19.9,29v-0.1C26.8,48.1,33.2,36.7,42.4,28.5L42.4,28.5z M5.2,93.6c1.4-21.9,11.5-42.8,27.2-58.5
	c-10.1,13-17.2,29.4-20.8,48.2c-0.6,1.7-1,3.4-1.3,5.2c-0.2,2.1-0.4,4.2-0.4,6.3c-1.2,11.2-1.3,26.5,3.4,41.8
	C6.9,123.3,4.1,108.5,5.2,93.6z M40.3,169.2L40,169c-9.5-7.3-17.5-16.4-23.7-26.7c-5-12.8-6.2-26.1-6-37.1c1.5,15.3,6.6,30.1,15,43
	c7.1,11.7,16.7,21.6,28.1,29C48.9,175,44.5,172.3,40.3,169.2z M88.9,162.8c-0.8-0.1-1.5,0.2-2.1,0.7l-10,8.5c0,0-2.6,2.2-6.1,4.8
	c-0.4,0.3-0.8,0.6-1.2,0.8c-2.1,1.6-4.5,3.4-6.4,3.4c-0.3,0-0.6-0.1-0.9-0.2c-1.1-0.5-2-1-2.8-1.4c1.6,0.6,3.1,1.1,3.3,1.1
	c2.3,0,24-17.6,24-17.6c1-0.9,2.6-0.8,3.6,0.2c0.1,0.1,0.1,0.1,0.2,0.2C90,163,89.5,162.8,88.9,162.8z M141.8,17.6
	c-6.8-3.1-31.1-13.8-61.1-8.3c20.9-4,42.6-1,61.6,8.5L141.8,17.6z M107.5,173.8H85.8c-0.3,0-0.6-0.2-0.7-0.5c0.1,0,0.2,0,0.2,0
	l22.6,0.1c1,0,1.7,0.8,1.8,1.8c0,0.3,0,0.6,0,0.8C109.7,174.8,108.7,173.8,107.5,173.8L107.5,173.8z M110.8,180.5H95.2
	c-0.6,0-1.1-0.5-1.1-1.1l0,0c0-0.1,0-0.2,0-0.2c0.2,0.8,0.8,0.9,1.5,0.9h15.6c0.8,0,1.5,0.5,1.7,1.2c0.1,0.4,0.2,0.8,0.1,1.2
	C112.9,181.4,111.9,180.6,110.8,180.5L110.8,180.5z M108.4,186.9H90.5c-0.4,0-0.7-0.3-0.9-0.6c0.2,0.1,0.4,0.2,0.7,0.2h18.1
	c0.7,0,1.2,0.4,1.5,1C109.5,187.1,108.9,186.9,108.4,186.9L108.4,186.9z M103.2,193.5H87.9c-0.3,0-0.6-0.2-0.8-0.4h16.1
	c0.7,0,1.3,0.4,1.6,1.1C104.4,193.8,103.8,193.5,103.2,193.5L103.2,193.5z M112.9,200.5H91.2c-0.5,0-1-0.4-1.2-0.9
	c0.3,0.3,0.7,0.5,1.2,0.5l22.3-0.2c0.7,0,1.3,0.6,1.3,1.3c0,0.2-0.1,0.4-0.2,0.6c0-0.1,0-0.1,0-0.2
	C114.4,201,113.7,200.5,112.9,200.5L112.9,200.5z M168.2,174.4c-1.1,1.1-10.9,8.8-27.9,15.8c-0.1,0-0.2,0.1-0.2,0.2l-18.5,11.9
	c-0.1,0-0.1,0-0.2,0.1l-10.2,8.8c-0.4,0.3-0.9,0.5-1.4,0.5c-0.3,0-0.5-0.1-0.8-0.3c0.2-0.1,0.4-0.2,0.7-0.4
	c6.6-5.6,13.6-10.9,13.6-10.9s15.8-10.9,16.1-11.1c12.2-5.6,23-13.8,31.6-24.2c8.4-9,15.2-19.4,20.2-30.7c1-2.2,1.9-4.5,2.7-6.8
	C189.9,145.1,180.9,161.4,168.2,174.4L168.2,174.4z M195.8,118.5c-1.4,5.2-3.2,10.3-5.3,15.2c-3.3,7.4-7.4,14.5-12.2,21
	c8.4-14,13-30.5,14.3-48.5c0.9-8.3,1-16.6,0.3-24.9c-0.2-2.7-0.5-5.4-1-7.9c2,5.7,3.5,11.6,4.4,17.7
	C197.4,100.2,197.2,109.4,195.8,118.5L195.8,118.5z M197.3,90.8c-1.2-8-3.4-15.9-6.5-23.3c-2.3-10.2-7.2-19.6-14.3-27.3
	c-5.9-6.3-12.9-11.6-20.6-15.5c-8.2-5.7-17.1-10.2-26.6-13.2c-11-3.6-39.9-10.3-70.3,3.9c-5,2.3-9.8,5.1-14.3,8.3
	c5.1-4.5,10.8-8.4,16.9-11.5c45.9-23.5,92.2,5.6,94.2,6.9c12.5,8,34.5,26,41.2,56.1c2.4,11.2,2.7,22.7,0.8,34
	C198.2,103,198.1,96.9,197.3,90.8L197.3,90.8z"/>
<path class="st0" d="M147.7,88.8c-2.8,2.3-10.2,7.8-12.3,9.7c-2.3,1.7-6.3,3-8.2,5.1c3.7,11.9,6.8,20.5,11.1,31.8
	c0.4,0.8,1.1,5.6,1.6,6.6c0.5,1.4,0.8,2,0.9,3c0,1.3-1.4,1.3-1.9,1.5c-1.6-0.3-3.4-1.1-4.5-1.9c-0.9-1.2-7.8-5-9.9-6.7
	c-4.6-2.9-7.6-6.9-12.8-10.3c-2.8-2.3-4.3-3.8-7.4-5.6c-1.4,0.6-3.3,2-4.6,2.8c-1.3,0.8-7.8,5.1-9.6,7.4c-2.7,1.5-11.7,8.6-14.4,9.9
	c-0.9,0.5-1.1,1.7-1.9,2.2c-0.9,0.4-1.7,0.9-2.9,0.9c-0.6,0-1.1-0.2-1.7-0.6c-1.7-1.3-1.4-1.4-1.1-2.3c0-0.6-0.2-1,0-1.7
	c0-2.3,1.2-3.3,1.5-5.3c1-3.7,1.9-7.5,2.9-11.2c2-7.5,4.8-14.3,7.2-21.5c-0.5-1.3-1.8-1.9-2.9-2.6C76,99.1,63.7,89.4,61.5,88
	c-2.4-1.7-4.1-1.7-7-4c-2.3-1.7-2.8-2.2-2.8-4.7c0.1-2.6,2.6-2.8,5.2-2.9c2.4,0.2,4.7,0.4,7.5,0.3c4.5,0.7,10.3,0.1,15.3,0.3
	c2.3,0.5,5.4,0.3,8.2,0.3c1.3-0.8,1.2-2.9,1.9-4.2c0.5-1.6,3.8-10.5,5.2-13.1c0.3-1.8,0.9-3.2,1.6-4.5c0.4-1.7,0.9-3.1,1.6-4.5
	c0.9-3.3,2-6.4,3.3-9.3c0.2-0.5,0.5-0.8,1-0.9c1.3,0.2,1.3,0.2,2.6,0c0.9,1.1,0.9,3.2,1.3,4.8c2,5.2,6.9,18.3,7.5,19.5
	c0.3,1.5,2,7.1,2.9,8c0.2,1.5,0.9,1.9,1.5,3c1.7,0.8,3.4,0.9,5.4,0.8c6.2-0.3,13.4,0,19.3,0.3c3.6,0.1,8.5-0.4,11.2,0.4
	c2.2,0.4,1.4,1.6,1.8,3.8C155.5,82.8,151.2,85.6,147.7,88.8z"/>
</svg>
