<?xml version="1.0" encoding="utf-8"?>
<!-- Generator: Adobe Illustrator 18.1.1, SVG Export Plug-In . SVG Version: 6.00 Build 0)  -->
<svg version="1.1" id="Layer_1" xmlns="http://www.w3.org/2000/svg" xmlns:xlink="http://www.w3.org/1999/xlink" x="0px" y="0px"
	 width="993.1px" height="99.4px" viewBox="0 0 993.1 99.4" enable-background="new 0 0 993.1 99.4" xml:space="preserve">
<path fill-rule="evenodd" clip-rule="evenodd" fill="#83C7BD" d="M12.2,4.1c0,0,53.9-4.6,68-4c14,0.6,131.3,10.9,146.2,6
	c4-1.3,53-0.1,121.7,1.5c25.4,0.6,53.3-1.8,82.9-1.3c38.7,0.7,80.1,4.3,122,4.5c14.3,0.1,28.7-3.9,43-3.9
	c150.3,0,291.5,0.3,302.4,0.1C922,6.8,970.1,7,976.4,8.7c6.3,1.7,15,11.7,16.5,28c1.6,16.3-6.1,56.2-11.9,59.1
	c-1.6,0.8-64.1,3.8-152,3.6c-35.8-0.1-75.9-2.6-118-3.2c-70.2-1.1-146.1-0.4-218-0.3c-13.5,0-37.9,3-51,3.1
	c-72.5,0.3-135-2.8-179-3.1c-40.1-0.2-64.8,2.4-67.8,2c-16.6-2.2-142-5.7-157.3-7c-15.2-1.3-32,2-34.4-15c-2.4-17-5.5-53.6-2-60.7
	C5.1,8,12.2,4.1,12.2,4.1z"/>
</svg>
