<?xml version="1.0" encoding="utf-8"?>
<!-- Generator: Adobe Illustrator 19.0.0, SVG Export Plug-In . SVG Version: 6.00 Build 0)  -->
<svg version="1.1" id="Layer_1" xmlns="http://www.w3.org/2000/svg" xmlns:xlink="http://www.w3.org/1999/xlink" x="0px" y="0px"
	 width="887px" height="559px" viewBox="-36 81 887 559" style="enable-background:new -36 81 887 559;" xml:space="preserve">
<style type="text/css">
	.st0{fill:#FFFFFF;}
</style>
<path id="XMLID_11_" class="st0" d="M-36,81v559h887V81H-36z M-15.2,631c-5,0-9-4-9-9s4-9,9-9s9,4,9,9S-10.3,631-15.2,631z
	 M-15.2,108c-5,0-9-4-9-9s4-9,9-9s9,4,9,9S-10.3,108-15.2,108z M830.8,631c-5,0-9-4-9-9s4-9,9-9s9,4,9,9S835.7,631,830.8,631z
	 M830.8,108c-5,0-9-4-9-9s4-9,9-9s9,4,9,9S835.7,108,830.8,108z"/>
</svg>
