<?xml version="1.0" encoding="utf-8"?>
<!-- Generator: Adobe Illustrator 19.0.1, SVG Export Plug-In . SVG Version: 6.00 Build 0)  -->
<svg version="1.1" id="Layer_1" xmlns="http://www.w3.org/2000/svg" xmlns:xlink="http://www.w3.org/1999/xlink" x="0px" y="0px"
	 width="65.8px" height="93.8px" viewBox="0 0 65.8 93.8" style="enable-background:new 0 0 65.8 93.8;" xml:space="preserve">
<style type="text/css">
	.st0{fill:#F9F9FA;stroke:#E8E8E8;stroke-width:1.5;stroke-miterlimit:10;}
	.st1{fill:#f8cac4;}
</style>
<circle class="st0" cx="9.9" cy="83.9" r="9.2"/>
<path class="st1" d="M63.7,29.3c-0.2-0.1-0.4-0.3-0.5-0.4c0.2-0.6,0.3-1.2,0.4-1.8c0.9-6.4-2.3-13.4-9.6-21l-1.4,1.4
	c6.8,7.1,9.9,13.6,9,19.3c-0.1,0.5-0.2,0.9-0.3,1.3c-2.8-0.8-6.4-0.3-9.7,0.7C43.4,13.8,31.1,0.9,30.3,0l-1.4,1.4
	C29,1.6,41.3,14.6,49.6,29.5c-0.1,0-0.2,0.1-0.2,0.1c-1.8,0.7-2.9,2.1-3.1,3.8c-0.2,1.9,0.8,4,2.5,5.1c1.6,1,3.4,1.2,5.3,0.5
	c0.6,1.5,1.1,3,1.5,4.5c-4.3,1.4-10,1.7-16.1,2.1c-7.3,0.4-14.9,0.8-21.5,3.1c-7,2.5-11.7,7-13.7,13c-2.3,7.1-0.4,15.7,5.2,23.5
	c1.6,2.2,3.7,3.7,6.3,4.5v-2.1c-1.8-0.6-3.4-1.7-4.7-3.5c-5.2-7.3-7-15.3-4.9-21.8c1.7-5.4,6-9.5,12.4-11.7c6.3-2.2,13.7-2.6,20.9-3
	c6-0.3,11.9-0.7,16.5-2.1c0.9,3.9,1.2,7.7,0.5,11.1C54.2,68.9,42.3,80.7,31,85.8V88c12-5,25-17.4,27.7-31c0.8-3.8,0.5-8-0.5-12.2
	c4.1-1.7,6.9-4.7,7.6-9.8C66.1,31.9,64.8,30.2,63.7,29.3z M49.9,36.8c-1.1-0.7-1.8-2.1-1.7-3.2c0.1-1,0.7-1.7,1.8-2.1
	c0.2-0.1,0.3-0.1,0.5-0.2c1,1.9,2,3.9,2.8,5.9C52.1,37.5,50.9,37.4,49.9,36.8z M55.2,36.2c-0.8-1.9-1.7-3.8-2.7-5.6
	c3.2-0.9,6.1-1.1,8.1-0.6C59.3,33.2,56.8,35.2,55.2,36.2z M63.7,34.7c-0.5,4.1-2.8,6.5-6.1,8.1c-0.4-1.6-1-3.1-1.6-4.7
	c1.8-1.1,4.8-3.4,6.5-7.2c0,0,0,0,0,0C63.5,31.7,63.9,33,63.7,34.7z"/>
</svg>
