<?xml version="1.0" encoding="utf-8"?>
<!-- Generator: Adobe Illustrator 19.0.0, SVG Export Plug-In . SVG Version: 6.00 Build 0)  -->
<svg version="1.1" id="Layer_1" xmlns="http://www.w3.org/2000/svg" xmlns:xlink="http://www.w3.org/1999/xlink" x="0px" y="0px"
	 width="68px" height="58.2px" viewBox="0 0 68 58.2" style="enable-background:new 0 0 68 58.2;" xml:space="preserve">
<style type="text/css">
	.st0{fill:#D1ECEC;}
</style>
<path id="XMLID_56_" class="st0" d="M65.4,29.4c-0.3-0.4-0.7-0.7-1-1.1c0.1-0.1,0.2-0.3,0.3-0.4c0.5-1,0.8-2.5-0.7-4.4
	c-2.5-3.1-5.9-4.1-9.8-3.9c-0.9-3.1-2.3-6-4.4-8.2C41.2,2,22.2-1.8,10.7,0.8C9.3,1.1,8,1.5,6.8,2C3.2,3.5,0.9,5.7,0.4,8.7
	c-0.9,5-0.2,10.2,2,13.2h2c-2.3-3-3.1-7.9-2.2-13c0.8-4.2,5.3-6,9-6.8c11-2.4,29.3,1.4,37.3,10.1c1.9,2,3.2,4.6,4,7.5
	c-4.2,0.6-8.8,2.3-13.6,4.1c-5.4,2-11.2,4-16.2,4.8V30c5-0.8,11.4-2.9,16.9-4.9c4.9-1.8,9.4-3.5,13.3-4c0.3,1.1,0.4,2.3,0.5,3.5
	c-1.7,0.2-3.2,0.9-4,2.1c-0.9,1.3-0.9,3,0,4.2c0.8,1.1,2.2,1.6,3.9,1.5c0.1,0,0.1,0,0.2,0c-0.6,12.6-5.2,25.2-5.3,25.4l1.7,0.4
	c0.3-0.8,4.8-13.4,5.4-26c3-0.4,6-1.3,7.9-2.8c0.3,0.2,0.5,0.5,0.7,0.8c3,3.5,3.1,8.8,0.6,15.8l1.7,0.4C68.9,39,68.6,33.3,65.4,29.4
	z M53.6,31c-0.1,0-0.3,0-0.4,0c-1,0.1-1.8-0.2-2.3-0.8c-0.6-0.7-0.6-1.8,0-2.7c0.5-0.8,1.4-1.2,2.6-1.4C53.6,27.7,53.7,29.4,53.6,31
	z M55.4,30.7c0-1.5,0-3.1-0.1-4.6c1.6,0.1,4.3,0.6,6.7,2.3C60.6,29.5,58.3,30.3,55.4,30.7z M63.1,27.3L63.1,27.3
	c-2.8-1.9-6.1-2.5-7.9-2.6c-0.1-1.2-0.3-2.5-0.6-3.6c3.2-0.1,5.9,0.8,7.9,3.3C63.4,25.4,63.6,26.4,63.1,27.3z"/>
</svg>
