<?xml version="1.0" encoding="utf-8"?>
<!-- Generator: Adobe Illustrator 19.0.1, SVG Export Plug-In . SVG Version: 6.00 Build 0)  -->
<svg version="1.1" id="Layer_1" xmlns="http://www.w3.org/2000/svg" xmlns:xlink="http://www.w3.org/1999/xlink" x="0px" y="0px"
	 width="79.2px" height="58.2px" viewBox="-445 251.8 79.2 58.2" style="enable-background:new -445 251.8 79.2 58.2;"
	 xml:space="preserve">
<style type="text/css">
	.st0{fill:#D1ECEC;}
</style>
<path id="XMLID_56_" class="st0" d="M-368.4,281.2c-0.3-0.4-0.7-0.7-1-1.1c0.1-0.1,0.2-0.3,0.3-0.4c0.5-1,0.8-2.5-0.7-4.4
	c-2.5-3.1-5.9-4.1-9.8-3.9c-0.9-3.1-2.3-6-4.4-8.2c-8.6-9.4-27.6-13.2-39.1-10.6c-1.4,0.3-2.7,0.7-3.9,1.2c-3.6,1.5-5.9,3.7-6.4,6.7
	c-0.9,5-0.2,10.2,2,13.2h2c-2.3-3-3.1-7.9-2.2-13c0.8-4.2,5.3-6,9-6.8c11-2.4,29.3,1.4,37.3,10.1c1.9,2,3.2,4.6,4,7.5
	c-4.2,0.6-8.8,2.3-13.6,4.1c-5.4,2-11.2,4-16.2,4.8v1.4c5-0.8,11.4-2.9,16.9-4.9c4.9-1.8,9.4-3.5,13.3-4c0.3,1.1,0.4,2.3,0.5,3.5
	c-1.7,0.2-3.2,0.9-4,2.1c-0.9,1.3-0.9,3,0,4.2c0.8,1.1,2.2,1.6,3.9,1.5c0.1,0,0.1,0,0.2,0c-0.6,12.6-5.2,25.2-5.3,25.4l1.7,0.4
	c0.3-0.8,4.8-13.4,5.4-26c3-0.4,6-1.3,7.9-2.8c0.3,0.2,0.5,0.5,0.7,0.8c3,3.5,3.1,8.8,0.6,15.8l1.7,0.4
	C-364.9,290.8-365.1,285.1-368.4,281.2z M-380.1,282.8c-0.1,0-0.3,0-0.4,0c-1,0.1-1.8-0.2-2.3-0.8c-0.6-0.7-0.6-1.8,0-2.7
	c0.5-0.8,1.4-1.2,2.6-1.4C-380.1,279.5-380,281.2-380.1,282.8z M-378.4,282.5c0-1.5,0-3.1-0.1-4.6c1.6,0.1,4.3,0.6,6.7,2.3
	C-373.1,281.3-375.5,282.1-378.4,282.5z M-370.6,279.1L-370.6,279.1c-2.8-1.9-6.1-2.5-7.9-2.6c-0.1-1.2-0.3-2.5-0.6-3.6
	c3.2-0.1,5.9,0.8,7.9,3.3C-370.4,277.2-370.1,278.2-370.6,279.1z"/>
</svg>
