<?xml version="1.0" encoding="utf-8"?>
<!-- Generator: Adobe Illustrator 19.0.0, SVG Export Plug-In . SVG Version: 6.00 Build 0)  -->
<svg version="1.1" id="Layer_1" xmlns="http://www.w3.org/2000/svg" xmlns:xlink="http://www.w3.org/1999/xlink" x="0px" y="0px"
	 width="887px" height="399px" viewBox="0 0 887 399" style="enable-background:new 0 0 887 399;" xml:space="preserve">
<style type="text/css">
	.st0{fill:#FFFFFF;}
</style>
<path id="XMLID_11_" class="st0" d="M0,0v399h887V0H0z M20.8,390c-5,0-9-4-9-9c0-5,4-9,9-9s9,4,9,9C29.8,386,25.7,390,20.8,390z
	 M20.8,27c-5,0-9-4-9-9c0-5,4-9,9-9s9,4,9,9C29.8,23,25.7,27,20.8,27z M866.8,390c-5,0-9-4-9-9c0-5,4-9,9-9s9,4,9,9
	C875.8,386,871.7,390,866.8,390z M866.8,27c-5,0-9-4-9-9c0-5,4-9,9-9s9,4,9,9C875.8,23,871.7,27,866.8,27z"/>
</svg>
