<?xml version="1.0" encoding="utf-8"?>
<!-- Generator: Adobe Illustrator 19.0.1, SVG Export Plug-In . SVG Version: 6.00 Build 0)  -->
<svg version="1.1" id="Layer_1" xmlns="http://www.w3.org/2000/svg" xmlns:xlink="http://www.w3.org/1999/xlink" x="0px" y="0px"
	 width="59.4px" height="63px" viewBox="0 0 59.4 63" style="enable-background:new 0 0 59.4 63;" xml:space="preserve">
<style type="text/css">
	.st0{fill:#F9F9F9;stroke:#E8E8E8;stroke-width:1.5;stroke-miterlimit:10;}
	.st1{fill:#BFD6D7;}
</style>
<circle class="st0" cx="10.3" cy="25.7" r="6.7"/>
<g>
	<path class="st1" d="M58.3,35.4c-1.1-1.6-3.1-2.3-5.6-2c-0.1,0-0.2,0-0.3,0c-0.1-0.3-0.2-0.6-0.3-0.9c-0.2-0.5-0.5-1.1-1-1.6
		c0.9-7.4,0.4-14.7-2.9-20.4c-3.6-6.3-10.4-9.8-20-10.4C13-0.8,4.4,4.1,1.4,8.9c-1.8,3-1.9,6.2-0.2,9.1c2.3,3.9,7.2,6.6,13.9,7.8v-1
		c-6.3-1.2-11-3.7-13.1-7.3c-1.5-2.6-1.5-5.5,0.2-8.1c2.8-4.6,11.1-9.2,25.9-8.3C37.4,1.6,43.9,5,47.3,11c3,5.2,3.5,12,2.8,18.9
		c-2.7-2.3-8.3-4.5-20.2-4.5c-0.9,0-1.7,0-2.7,0v1c15-0.4,20.6,2.4,22.9,4.7c-0.1,0.9-0.3,1.8-0.4,2.7c-5.8,1.2-6.8,3.6-6.9,4.3
		c-0.2,1,0.3,2,1.2,2.5c1,0.6,2.6,0.6,4.3-0.2c-3,11.9-8,21.8-8.1,22l0.9,0.5c0.1-0.1,0.2-0.4,0.4-0.8c1.3-2.8,5.6-11.9,8.1-22.4
		c0.3-0.2,0.7-0.5,1-0.8c1.4-1.3,2.1-2.9,2-4.5c0.1,0,0.2,0,0.3,0c1.5-0.2,3.5,0,4.7,1.6c1.3,1.8,2,6.2-2.6,16.5l0.5,0.2l0.5,0.2
		C59.6,44.2,60.4,38.4,58.3,35.4z M44.3,39.8c-0.6-0.3-0.8-0.8-0.7-1.4c0.2-1.2,1.9-2.6,5.8-3.5c-0.3,1.4-0.6,2.9-0.9,4.3
		C46.8,40.3,45.3,40.3,44.3,39.8z M50.7,33.6c0.1-0.4,0.1-0.9,0.2-1.3c0.1,0.2,0.2,0.4,0.3,0.6c0.1,0.2,0.2,0.4,0.2,0.7
		C51.2,33.6,50.9,33.6,50.7,33.6z M50.5,34.7c0.3-0.1,0.6-0.1,1-0.2c0,1.4-0.8,2.7-1.7,3.6C50.1,37,50.3,35.8,50.5,34.7z"/>
</g>
</svg>
