<svg xmlns="http://www.w3.org/2000/svg" viewBox="0 0 196.01 210.57"><defs><style>.cls-1{fill:#fff;}.cls-2{fill:#87b9b9;}</style></defs><title>Asset 3</title><g id="Layer_2" data-name="Layer 2"><g id="Logo_svg" data-name="Logo svg"><path class="cls-1" d="M188.4,79.3c-1.41-17.76-7.18-31-16.31-40.76-10.44-11.22-24.35-18.43-34.32-23C129.51,11.83,95-3.33,55.93,13.7,25.55,27,7,80.37,6.38,86.53,3,120.1,20.14,156.64,51.47,175.89a66,66,0,0,0,7.22,2.69c2.32,0,24-17.64,24-17.64a2.38,2.38,0,0,1,3.4.29,2.44,2.44,0,0,1-.36,3.37l-5,4.35-.21.19a1.28,1.28,0,0,0,.85,2.25l22.64.09a1.75,1.75,0,0,1,1.75,1.75s.5,1.75-1.75,1.75H91.65a1.62,1.62,0,1,0,0,3.23h15.63a1.88,1.88,0,0,1,1.82,1.58c.33,1.82-1.19,1.86-2.22,1.86H86.52a1.43,1.43,0,0,0-1.43,1.43h0a1.43,1.43,0,0,0,1.43,1.42h17.87a1.75,1.75,0,0,1,1.74,1.93,1.79,1.79,0,0,1-1.82,1.57H83.87a1.43,1.43,0,0,0-1.43,1.43v.28a1.43,1.43,0,0,0,1.43,1.43H99.19a1.75,1.75,0,0,1,1.74,1.92,1.79,1.79,0,0,1-1.81,1.58H87.22a1.75,1.75,0,0,0-1.75,1.75h0a1.75,1.75,0,0,0,1.75,1.75l22.3-.2a1.29,1.29,0,0,1,.85,2.25l-5.81,5.64a2.44,2.44,0,0,0-.36,3.37c.32.4.54.38,1.57-.28,6.61-5.6,13.61-10.89,13.61-10.89s15.79-10.91,16.14-11.07C177.47,167.25,192.16,126.65,188.4,79.3Z"/><path d="M69.82,79.89h-.37l-.27.24a1.25,1.25,0,0,1-.85.37,5.41,5.41,0,0,1-3.67-1.23,4.84,4.84,0,0,1-1-1.37,14.82,14.82,0,0,1-.89-2.46,18.77,18.77,0,0,1-.42-5L62.82,57v-.33a45.72,45.72,0,0,1,.47-6.27,23,23,0,0,1,1-3.36A8.1,8.1,0,0,1,65,44.35a2.63,2.63,0,0,1,2-.85l1.31.07a4,4,0,0,0,4-2.65l.07-.17v-.46a2.59,2.59,0,0,0-1-2,3.05,3.05,0,0,0-2-.77c-3.17,0-6.51.67-8.34,2-3.55,2.62-5.27,10.57-5.27,24.34l0,4.05C55.9,77.25,57.55,82.84,61,85a10.08,10.08,0,0,0,2.79,1.12,19.68,19.68,0,0,0,4.32.49c4.2,0,4.83-2.32,4.83-3.71A2.88,2.88,0,0,0,69.82,79.89ZM113.59,39.2c-1.06-1-5.71-1.66-7.84-.17-3.31,2.29-4.67,8.69-4.67,18.88l0,5.59c0,1.22,0,2.44.07,3.63.64,13.34,3.72,19.83,9.4,19.83,6.14,0,9.13-6.85,9.13-20.92V57.67c0-2.75-2-13.37-3-15.09A12.71,12.71,0,0,0,113.59,39.2ZM114,65.49a47.52,47.52,0,0,1-1.53,13c-.38,1.34-1.07,3-2.12,3-.37,0-1-.61-1.47-2.3-.27-.89-.51-1.9-.73-3s-.4-2.29-.53-3.57-.25-2.57-.35-3.75-.17-2.36-.2-3.55l-.09-2.93q0-1.1,0-1.89l0-6.44-.1-3.92c0-3.09.47-6.77,2.66-6.77h.14c.73,0,1.79.21,2.6,2A25.58,25.58,0,0,1,113.43,49a46,46,0,0,1,.63,9.54Zm27.23-23.36c-1.38-2.81-6-3.86-8.6-3.86h-3.05a2.35,2.35,0,0,0-2,1.23,5.91,5.91,0,0,0-.8,2l0,.21,0,.21a26.91,26.91,0,0,1,.55,6.19l-.1,6.6-.27,7.92.17,17.75a29.56,29.56,0,0,0,.43,5.86l.16.76h2.47a3,3,0,0,0,2.16-.84,2.9,2.9,0,0,0,.91-2.2l-.54-13.1v-6.7L134,63.8a18.09,18.09,0,0,0,4.47-1.46,7,7,0,0,0,1.6-1.43,12.65,12.65,0,0,0,1.07-1.44,6.64,6.64,0,0,0,.78-1.85c.18-.67.36-1.39.52-2.14a35.41,35.41,0,0,0,.26-6.15A16.48,16.48,0,0,0,141.19,42.13Zm-8.55,17.19L133,47V44.18c.2.06.36.24.54.24,3.31.07,3.32,2.89,3.47,4.49C137.66,56.29,134.74,58.61,132.64,59.32ZM92,42.58A8.25,8.25,0,0,0,88.9,39.2c-.53-.23-5.37-2.08-7.85-.17-3.19,2.45-4.66,8.69-4.66,18.88l0,5.59c0,1.22,0,2.44.07,3.63C77.14,80.47,80.21,87,85.89,87,92,87,95,80.11,95,66V57.67a49.16,49.16,0,0,0-.71-8.28A19.9,19.9,0,0,0,92,42.58ZM89.26,65.52a48.78,48.78,0,0,1-1.52,13.15c-.39,1.36-1.07,3-2.12,3-.37,0-1-.61-1.48-2.32-.26-.9-.51-1.91-.72-3S83,74,82.89,72.71s-.26-2.59-.36-3.79-.16-2.38-.2-3.58-.06-2.21-.08-3,0-1.37,0-1.91l0-6.5-.1-4c0-3.12.46-6.84,2.66-6.84h.13c.73,0,1.8.21,2.61,2a25,25,0,0,1,1.18,3.69,46.61,46.61,0,0,1,.64,9.63Z"/><path d="M58.77,105.23c-3.29,0-12.35-.74-12.41,13.12,0,7.18,8.36,16.38,8.73,21.12.28,3.66-2.86,3.72-4.59,3.37s-2-1.77-2.89-2.19a1.91,1.91,0,0,0-.67-.16c-.3,0-2.58.66-2.23,2a7.81,7.81,0,0,0,1.14,2.85,8.22,8.22,0,0,0,2.54,2c2.91,1.4,8.83,1.3,11.94-2.5,2.54-3.1,2.05-7.17,1.78-8.56-1.25-6.49-8.63-12.43-8.37-20.43.2-6,3.28-7.2,4.88-7.19s2.17,2,3.1,2c1.2,0,1.65-1.4,1.65-1.88A4.36,4.36,0,0,0,58.77,105.23ZM159.09,130c-.66,0-1.5,1.13-2.2,2.35-1.32,1.66-4.73,8.08-10,8.06-1.62,0-3.54-1.33-4.53-4.75,2.55-3,5.55-8.56,5.57-12.72,0-3-1.47-5.22-5.76-5.24-2,0-6.75.8-6.79,10.57,0,1.05,0,2,.08,3a6.49,6.49,0,0,0-1.85,2.1c-2.16,3.41-5.2,7.78-6.82,7.77-.79,0,0-9.55-3.94-11.14a12.83,12.83,0,0,0-4.29-.9s0,0,0-.13a21.38,21.38,0,0,0,.32-2.41c0-1.4-.52-2.8-3.15-2.81-.87,0-1.63,2.35-1.63,4.15a4.81,4.81,0,0,0,1.43,3.55c-1.32,3.47-2,5.14-3.22,6.76s-2.75,3.11-4,3.11c-2.28,0-1.68-6.4-1.92-11.05-.24-4.38-2.39-4.52-3.83-4.52a2.36,2.36,0,0,0-1.72.82,2.21,2.21,0,0,0-1.7-.62c-2.31,0-6.94,1-9,6.72-1.23,2.24-3.56,9.69-6.16,9.68s-1.08-13.63-8.79-13.66c-1.62,0-2.9,2.09-4.14,4.62.1-1.44.15-3.11.16-4.9,0-1.31,0-2.67-.07-4.16,2-4.63,4.68-9.4,4.7-13.78,0-2.89-1.29-4.51-3.09-4.52-7.14,0-7,18.45-8,37.62,0,0,.81,2.73,3,2.43,4.56-1.64,5.14-13.6,7.46-13.59,1.89,0-1.29,14.19,8.26,14.23,2.66,0,4.61-1.9,5.92-4.34a3.83,3.83,0,0,0,4,2.89c1.19,0,4.39-.94,6.46-5,.73,3,2.35,5.13,5.94,5.15a6.77,6.77,0,0,0,1.84-.27c2.19-.38,7.45-2.19,11.75-12.55,1.74.8,2,2.9,1.94,4.83v2c0,5.69,1.67,8,3.68,8,3.64,0,8.27-7.19,10.61-11.3l.34-.63c1.2,6.93,4.54,10.2,10.12,10.22,6.49,0,10.32-6.17,12.67-11.68a9.63,9.63,0,0,0,.93-3.23C159.65,130.21,159.44,130,159.09,130ZM70.94,118.08s.61-9,1.49-9c.13,0,.61.31.6,1.72s-.45,3.72-2.09,7.87Zm28.32,13.35C98.5,135.33,95.4,141.88,94,142c-.08,0-.13-.22-.12-.65,0-2.72,1.89-12.78,4.74-12.77.48,0,.74.44.78,1.1A10,10,0,0,0,99.26,131.43ZM141.19,127c0-3.73.68-6.79,1.69-6.78s1.49.92,1.48,2.24c0,2.75-1.78,7.35-2.84,9.35A29.18,29.18,0,0,1,141.19,127Z"/><path class="cls-2" d="M102.11,96.66c0,3.46-2.15,5.63-4,7.6a32,32,0,0,0,6.6,8.4c2.18-1.87,2.61-4.89,2.61-7V105a8.23,8.23,0,0,0-2.71-.71,1.11,1.11,0,0,0-1.12.65,3.63,3.63,0,0,0-.31,1.34,5.32,5.32,0,0,0,.13.9.89.89,0,0,1,.06.37.46.46,0,0,1-.5.47.71.71,0,0,1-.5-.19,2.81,2.81,0,0,1-.74-2,4.34,4.34,0,0,1,.43-1.84,4.15,4.15,0,0,1,2.31-2.39,3.71,3.71,0,0,1,1.37-.25c3.3,0,5.54,3,7.5,3,.31,0,.4-.13.43-.44a1,1,0,0,1,.13-.47c.09-.18.28-.22.68-.25a.9.9,0,0,1,.59.94c0,1.43-1.61,2.21-3,2.21a10.18,10.18,0,0,1-2.46-.38,12.57,12.57,0,0,1-3.11,8.22,6.46,6.46,0,0,0,3.36,1.34.66.66,0,0,1,.62.69c0,.4-.31.81-1.12.81a11.12,11.12,0,0,1-4.61-1.28,9.62,9.62,0,0,1-5.48,1.87c-4.76,0-8.62-2.18-8.62-6.85,0-2.46,1.4-4.48,3-6.41a13.07,13.07,0,0,1-1.12-5.2c0-5.11,3-7.26,5.1-7.26C100,91.8,102.11,93.2,102.11,96.66Zm-6.67,10.83a5.21,5.21,0,0,0-.68,2.56c0,2,.4,4.32,4.61,4.32a9.71,9.71,0,0,0,2.64-.31A25.33,25.33,0,0,1,95.44,107.49Zm1.25-6.66a8.2,8.2,0,0,0,1.93-5.29c0-.87-.16-2-1.06-2s-1.15,3-1.15,5.23A7.9,7.9,0,0,0,96.69,100.83Z"/><path class="cls-2" d="M132,187.29a.5.5,0,0,1-.21-.95,120.59,120.59,0,0,0,20.89-12c14.2-10.29,26.19-25.44,33.77-42.64,8.48-19.26,10.73-39.5,6.5-58.54C186.24,43,164.26,25,151.75,17c-1.95-1.26-48.26-30.39-94.2-6.88C31.63,23.39,14.12,49.55,8.27,83.78l-.1.57C5,102.59,1.52,147.81,38.48,173.69c2.72,1.9,13.68,8.38,17.83,9.21a.5.5,0,1,1-.19,1c-4.36-.87-15.36-7.37-18.21-9.37C.47,148.3,4,102.61,7.18,84.18l.1-.57c5.91-34.55,23.6-61,49.81-74.37,46.44-23.76,93.23,5.66,95.2,6.92,12.64,8.12,34.85,26.28,41.62,56.76,4.27,19.25,2,39.71-6.57,59.16-7.64,17.37-19.75,32.65-34.09,43a122,122,0,0,1-21.07,12.12A.45.45,0,0,1,132,187.29Z"/><path class="cls-2" d="M131.43,187.58a.5.5,0,0,1-.46-.29.51.51,0,0,1,.25-.66c38.8-17.95,60.52-59.06,56.68-107.29-1.35-17-6.64-30.22-16.17-40.46C161.35,27.74,150,22.39,140.24,18.62c-.48-.18-48.58-17.89-89.82.09-15.83,6.9-26,23.76-31.82,36.69C12.17,69.8,9.24,83.51,8.9,86.87c-3.61,35.6,13.2,70.38,42.83,88.59a70.12,70.12,0,0,0,6.54,3.41.5.5,0,0,1,.24.67.51.51,0,0,1-.67.24,71.64,71.64,0,0,1-6.63-3.47c-30-18.41-47-53.56-43.3-89.54.34-3.4,3.3-17.26,9.78-31.78C23.54,41.9,33.9,24.82,50,17.8c41.61-18.15,90.1-.3,90.58-.11,9.85,3.81,21.34,9.22,31.86,20.5,9.69,10.42,15.07,23.85,16.43,41.07,3.88,48.66-18.06,90.15-57.25,108.28A.52.52,0,0,1,131.43,187.58Z"/><path class="cls-2" d="M106.05,210.57h-.25a2.84,2.84,0,0,1-2-1,3,3,0,0,1,.42-4.07l5.22-4.53a.79.79,0,0,0,.21-.87.77.77,0,0,0-.74-.5H87.22a2.26,2.26,0,0,1,0-4.51h11.9a1.31,1.31,0,0,0,1.32-1.13,1.25,1.25,0,0,0-1.25-1.38H83.87a1.93,1.93,0,0,1-1.93-1.92v-.28a1.94,1.94,0,0,1,1.93-1.93h20.44a1.3,1.3,0,0,0,1.32-1.12,1.19,1.19,0,0,0-.32-1,1.23,1.23,0,0,0-.92-.41H86.52a1.93,1.93,0,0,1,0-3.85h20.36a1.26,1.26,0,0,0,.93-.41,1.28,1.28,0,0,0,.32-1,1.31,1.31,0,0,0-1.32-1.13H91.18a2.11,2.11,0,1,1,0-4.22h12.34a1.25,1.25,0,1,0,0-2.5H81.82a1.77,1.77,0,0,1-1.67-1.16,1.73,1.73,0,0,1,.49-2l.21-.2,5-4.35a1.94,1.94,0,0,0,.29-2.67,1.87,1.87,0,0,0-1.29-.69,1.89,1.89,0,0,0-1.4.46l-10,8.52s-2.63,2.25-6.19,4.82c-.39.27-.78.57-1.19.87-2.32,1.73-4.72,3.52-6.84,3.52a5.25,5.25,0,0,1-1.68-.21c-.52-.18-.95-.38-1.06-.43A87.43,87.43,0,0,1,35.73,168l-.34-.27C21.11,156.72-2.44,132.16.21,91.57c2.15-33,23.63-63.67,54.72-78.22C85.35-.89,114.21,5.86,125.21,9.42c36,11.67,62.76,42.85,68.07,79.43.78,5.3,6.42,52.81-32.05,88.42a69.62,69.62,0,0,1-25.17,14.55s-1.48.43-3.94,1.2c-1,.32-9,5-14.06,8l0,0-10.1,8.78A2.85,2.85,0,0,1,106.05,210.57ZM87.22,196a1.26,1.26,0,0,0,0,2.51h21.7a1.78,1.78,0,0,1,1.18,3.12l-5.22,4.54a2,2,0,0,0-.3,2.67,1.91,1.91,0,0,0,1.3.69,1.84,1.84,0,0,0,1.39-.46l10.18-8.84a.51.51,0,0,1,.16-.09c1.57-.94,12.76-7.66,14.21-8.12,2.48-.77,3.94-1.19,3.94-1.19a68.59,68.59,0,0,0,24.79-14.33c38.1-35.27,32.51-82.3,31.74-87.55C187,52.78,160.58,21.92,124.9,10.37,114,6.85,85.45.17,55.35,14.25,24.59,28.65,3.33,59,1.2,91.64-1.41,131.77,21.88,156.05,36,167l.34.27a86.3,86.3,0,0,0,20.52,11.19l0,0s.45.22,1,.4a4.51,4.51,0,0,0,1.35.15c1.79,0,4.16-1.76,6.24-3.32l1.21-.89c3.52-2.54,6.1-4.73,6.12-4.76l10-8.52a2.84,2.84,0,0,1,2.13-.69,2.87,2.87,0,0,1,2,1.05,3,3,0,0,1-.42,4.06l-5.21,4.53a.78.78,0,0,0-.22.87.77.77,0,0,0,.74.51h21.7a2.25,2.25,0,1,1,0,4.5H91.18a1.11,1.11,0,1,0,0,2.22h15.63a2.32,2.32,0,0,1,2.32,2,2.26,2.26,0,0,1-2.25,2.47H86.52a.93.93,0,0,0,0,1.85h17.87a2.25,2.25,0,0,1,2.24,2.47,2.31,2.31,0,0,1-2.32,2H83.87a.93.93,0,0,0-.93.93v.28a.93.93,0,0,0,.93.92H99.19a2.25,2.25,0,0,1,2.24,2.47,2.31,2.31,0,0,1-2.31,2Z"/></g></g></svg>