<?xml version="1.0" encoding="utf-8"?>
<!-- Generator: Adobe Illustrator 25.4.1, SVG Export Plug-In . SVG Version: 6.00 Build 0)  -->
<svg version="1.1" id="Layer_1" xmlns="http://www.w3.org/2000/svg" xmlns:xlink="http://www.w3.org/1999/xlink" x="0px" y="0px"
	 viewBox="0 0 546.3 85.2" style="enable-background:new 0 0 546.3 85.2;" xml:space="preserve">
<style type="text/css">
	.st0{fill:#999999;}
</style>
<path d="M114.1,53.5c-0.7-1.4-1.3-3-1.8-4.9c-0.6-2.2-1.1-4.9-1.7-8.1c-1.7,3.1-2.5,6.6-2.5,10.6c0,2.9,0.8,5.2,2.3,6.8
	c0.9,0.9,1.9,1.3,3.1,1.3c0.6,0,1.3-0.2,2.1-0.5c0.7-0.2,1.2-0.5,1.6-0.8c-0.2-0.2-0.5-0.6-1-1.1C115.6,56,114.9,54.9,114.1,53.5z
	 M84.8,26.6c-0.3-0.2-0.7-0.3-1.2-0.4v2.9l-0.3,11.3c1.9-0.7,2.9-3.9,2.9-9.7C86.2,28.6,85.7,27.2,84.8,26.6z M113.7,26.7
	c0.5-1.5,0.7-2.8,0.7-3.7c0-1.5-0.3-2.4-0.9-2.5c-0.2,0.2-0.4,0.5-0.7,1.2v3.1l0,4.3C113.2,28.3,113.5,27.5,113.7,26.7z M258.4,6.6
	c-67-0.9-207-3.2-217.4-2.2C27.1,5.6,9,6.3,5.4,8.4c-5,3-4.2,22-5.2,29.3c-1,7.3,2.2,21.8,4,30c1.8,8.2,12.4,9.9,21.4,9.1
	c2.8-0.3,67.4,0.9,101.9,0.8c19.2,0,59.4-1.8,76.6-2c11.7-0.1,29.5,0.3,50.7,0.7c-5.5-5-9.8-11.4-12.3-19.4
	c-6.1-19.4,3.5-36.3,4.7-38.3C250.3,13.8,254.1,9.8,258.4,6.6z M33.2,57.9c0,1.3-0.4,2.4-1.2,3.2c-1.2,1.4-3.2,2.1-5.8,2.1
	c-1.4,0-2.8-0.5-4.2-1.4c-1.4-0.9-2.4-2.2-3.1-3.7c-0.7-1.5-1.2-5.2-1.6-11.3c-0.4-6-0.6-10.6-0.6-13.9c0-3.2,0.1-5.5,0.4-7
	C17,25.3,17,24.6,17,24c0-2.6,1-4.6,2.9-6.2c1.9-1.5,4.3-2.3,7-2.3c1,0,2,0.3,3,0.9c1,0.6,1.6,1.4,1.6,2.4c0,0.5-0.2,1-0.7,1.3
	c-0.4,0.3-0.9,0.4-1.6,0.4c-0.6,0-1.1-0.2-1.4-0.6h-1.2v-0.2c-2.7,0.1-4.4,1.3-5.1,3.7c-0.4,1.2-0.6,2.9-0.6,5l0.2,4.1l-0.5,4.2
	c0,2,0.3,5.7,0.8,11.1c0.7,6.6,1.2,8.6,1.5,9.1c0.8,1.2,2.1,1.8,3.8,1.8c1.8,0,3.1-0.5,4-1.6l0.1-0.1h0.2c0.6,0,1.2-0.1,1.8-0.3
	l0.5-0.2V57.9z M52.7,45.7c0,11.7-2.5,17.6-7.4,17.6c-4.6,0-7.1-5.5-7.7-16.7c0-1-0.1-2.1-0.1-3.1l0-4.8c0-8.7,1.3-13.9,3.9-16
	c0.7-0.5,1.4-0.8,2.2-0.9l0.1,0l0.1,0c0.6,0.2,1.2,0.4,2,0.5c0.9,0.2,1.5,0.3,1.9,0.5c0.8,0.4,1.6,1.3,2.5,2.7
	c0.9,1.4,1.5,3.4,1.9,5.7c0.4,2.3,0.6,4.7,0.6,7.1V45.7z M73.2,45.7c0,11.7-2.5,17.6-7.4,17.6c-4.6,0-7.1-5.5-7.7-16.7
	c0-1-0.1-2.1-0.1-3.1l0-4.8c0-8.7,1.3-13.9,3.9-16c0.7-0.5,1.4-0.8,2.2-0.9l0.1,0l0.1,0c0.6,0.2,1.2,0.4,2,0.5
	c0.9,0.2,1.5,0.3,1.9,0.5c0.8,0.4,1.6,1.3,2.5,2.7c0.9,1.4,1.5,3.4,1.9,5.7c0.4,2.3,0.6,4.7,0.6,7.1V45.7z M90,36.5
	c-0.1,0.6-0.3,1.2-0.4,1.8c-0.2,0.6-0.4,1.1-0.6,1.5c-0.2,0.4-0.5,0.8-0.9,1.2c-0.4,0.4-0.8,0.8-1.3,1.1c-1,0.6-2.1,1.2-3.4,1.6v6.1
	l0.5,11.4c0,0.6-0.2,1.1-0.6,1.5c-0.4,0.4-0.9,0.6-1.5,0.6h-1.8l-0.1-0.3c-0.2-1.1-0.4-2.8-0.4-5l-0.1-15.3l0.2-6.8l0.1-5.7
	c0-2.3-0.2-4.2-0.5-5.5l0-0.1l0-0.1c0.1-0.5,0.3-1.1,0.6-1.6c0.4-0.7,1-0.8,1.4-0.8h2.6c2.4,0,4.2,1,5.2,3.1c0.8,1.7,1.3,3.8,1.3,6
	C90.2,34.1,90.2,35.8,90,36.5z M128.8,60c0,1.2-0.6,1.7-1,1.9c-0.6,0.3-1.4,0.4-2.4,0.4c-1.9,0-3.8-0.7-5.8-2.2
	c-2.1,1.5-4.1,2.2-6,2.2c-1.9,0-3.5-0.5-4.9-1.6c-1.3-1.1-2.3-2.4-3-3.9c-0.7-1.5-1.1-3.2-1.1-4.8c0-1.6,0.1-3.1,0.3-4.5
	c0.2-1.4,0.6-2.8,1.1-4.3c0.7-2,2-4.9,3.8-8.5l-0.4-8.1v-5c0-1.7,0.3-2.8,0.9-3.6c1.2-1.6,3.2-1.6,5.6-0.1c1.2,0.8,1.8,1.8,1.8,3
	l0,0l-0.2,3c0,0.4,0,0.8,0.1,1.2l0,0.1l0,0.1c-0.3,0.7-0.8,2-1.3,3.8c-0.6,1.8-1,3-1.3,3.5c-0.3,0.5-0.6,1-0.8,1.4
	c-0.8,1.1-0.9,1.6-0.9,1.8c0,1.9,0.7,5.3,2.2,10.2c1.3,4.3,2.4,7.2,3.4,8.6c1-2.7,1.5-6,1.5-9.8c-0.6-0.1-1.1-0.5-1.5-1.2l0-0.2
	v-1.9h0.4c1,0,2.3-0.1,3.9-0.2c1.6-0.1,2.7-0.3,3.3-0.5l0.1,0l0.1,0c1.7,0.3,2,1.2,2,1.9c0,1.3-1.2,2-3.7,2h-1.1
	c0,1-0.1,2.2-0.1,3.4c0,0,0,0,0,0c0.2,0.3,0.4,0.8-0.6,4.1c-0.7,2.4-1.3,3.9-1.7,4.8c1.1,1,2.2,1.6,3.4,1.6l2.6-0.2l1.4,1.1V60z
	 M155.1,55.7c-0.3,1.3-0.9,2.6-1.5,3.7c-0.7,1.2-1.6,2.2-2.7,2.9c-1.1,0.8-2.2,1.1-3.2,1.1c-1,0-1.8-0.1-2.4-0.2
	c-0.7-0.1-1.4-0.3-2-0.7c-0.8-0.4-1.2-0.9-1.2-1.6c0-1.7,1.1-2,1.7-2c0.5,0,1.1,0.2,1.9,0.5c0.7,0.3,1.3,0.4,1.8,0.4
	c0.4,0,0.9-0.3,1.5-0.9c0.6-0.6,1.1-1.5,1.4-2.4c0.7-2,1.1-3.8,1.1-5.5c0-1.6-0.3-3.4-0.9-5.3c-0.6-1.9-1.3-3.7-2.1-5.3
	c-0.8-1.7-1.7-3.4-2.5-5c-2-4.1-3.1-7.8-3.1-11.1c0-3.2,1-5.8,3.1-7.6c1.1-1,2.5-1.5,4-1.5c0.8,0,1.6,0.2,2.3,0.7
	c0.8,0.4,1.3,1,1.6,1.7l0,0.1v1.7h-0.4c-1.7,0-2.8-0.2-3.5-0.6c-0.6,0.1-1.1,0.4-1.6,0.9c-0.9,1.1-1.4,2.4-1.4,3.8
	c0,1.5,0.2,3.1,0.7,4.6c0.4,1.6,1,3.1,1.6,4.5c0.6,1.4,1.3,2.8,1.9,4c0.6,1.2,1.2,2.2,1.6,3c0.7,1.3,0.7,1.3,0.7,1.4v0.4
	c0.1,0.5,0.4,1.3,0.7,2.3l0.8,2.6c0.5,1.8,0.7,3.4,0.7,4.9C155.6,53,155.4,54.4,155.1,55.7z M173.6,61.9c-0.4,0.2-0.8,0.4-1.4,0.4
	c-0.5,0-1-0.1-1.5-0.4c-0.7-0.4-0.8-0.9-0.8-1.3c-0.2-4-0.3-8.9-0.3-14.7l0-2.1c-0.3,0-0.6,0-1,0l-3.4-0.5l-0.2,6.5l0.5,9.9
	c0,0.7-0.2,1.3-0.5,1.7c-0.3,0.5-0.9,0.8-1.6,0.8c-1,0-1.7-0.8-2-2.5c-0.3-1.5-0.5-3.5-0.5-6l0.2-12.6l0.1-3.5l-0.4-13.5
	c0-0.6,0.2-1.1,0.6-1.5c0.4-0.4,0.9-0.7,1.5-0.7c1.5,0,2.3,1.3,2.3,3.9v0L165,40.4c0.7,0.1,1.6,0.2,2.8,0.2h1.9v-0.9
	c0-1.8-0.1-4.6-0.4-8.2c-0.3-3.7-0.4-6.5-0.4-8.3c0-0.6,0.2-1,0.6-1.4c0.4-0.4,0.8-0.5,1.2-0.5c0.2,0,0.5,0,0.6,0c0.2,0,0.4,0,0.6,0
	c0.2,0,0.4,0.1,0.6,0.2c0.4,0.2,0.6,0.8,0.6,1.7c0,4.2,0.2,10.5,0.6,18.9c0.4,8.3,0.6,14.7,0.6,18.9C174.2,61.2,174,61.6,173.6,61.9
	z M194.4,62.7L194.4,62.7l-0.1,0c-0.9,0-1.6-0.2-2.2-0.5c-0.6-0.3-0.9-1.1-0.9-2.4c0-1-0.3-3.2-0.8-6.5l-1.6-0.1l-2,0l-0.1,0
	c-0.3-0.1-0.8-0.2-1.9-0.3c0,0.1,0,0.3,0,0.4l-0.1,1.2c0,0.3-0.1,0.7-0.1,1.3c-0.1,0.6-0.1,1.1-0.2,1.5c-0.1,0.4-0.2,0.9-0.3,1.4
	c-0.1,0.6-0.3,1-0.4,1.4c-0.2,0.4-0.3,0.7-0.5,1.1c-0.4,0.8-1,1.2-1.6,1.2c-0.6,0-1.1-0.2-1.6-0.5c-0.5-0.4-0.7-0.9-0.7-1.5l0-0.1
	c1-4,2-8.3,2.7-12.7c0.8-4.4,1.2-7.1,1.3-7.9s0.5-2.5,1-4.8c0.5-2.4,0.9-3.9,1-4.7c0.1-0.8,0.2-1.8,0.3-3.1c0.2-2.9,0.6-4.7,1.1-5.5
	l0.1-0.2h2.2c2,0,2.4,0.9,2.4,1.6c0,7.7,0.8,15.4,2.2,22.9c0.1,0.4,0.2,1.1,0.4,1.8c0.5,1.8,0.7,3.2,0.7,4.2l0,0.1l-0.3,1.2
	c0,0.4,0.1,1.2,0.5,3.5c0.4,1.9,0.5,3.2,0.5,3.8C195.6,62,194.9,62.5,194.4,62.7z M212.8,62.6c-0.3,0.4-0.8,0.6-1.3,0.6
	c-1.5,0-2.8-2.2-4-6.8c-0.5-1.9-0.9-3.8-1.3-5.8c-0.7-3.7-1.2-5.9-1.5-7.2c0,0.2-0.1,0.5-0.2,0.7c-0.3,1.1-0.4,2.1-0.4,3
	c0,0.9,0.1,3,0.4,6c0.2,3.1,0.4,5.1,0.4,6c0,1-0.2,1.7-0.5,2.3c-0.4,0.6-0.9,0.9-1.4,0.9c-0.5,0-1.2-0.3-1.5-1.5
	c0-1.6,0.1-3.4,0.1-5.5c0-2.1-0.2-6.9-0.5-14.2c-0.3-7.3-0.5-12.8-0.5-16.4c0-2.7,1.3-3.2,2.4-3.2c2.2,0,4,0.6,5.5,1.7
	c1.5,1.2,2.3,2.8,2.3,5c0,2.8-0.2,4.9-0.7,6.5c-0.4,1.5-1.2,3.4-2.4,5.7c0.2,1,0.6,2.9,1.1,5.6c1.1,6.1,2.4,10.6,3.9,13.3
	c0.4,0.8,0.7,1.5,0.7,2C213.2,61.8,213.1,62.3,212.8,62.6z M228.1,62.6c-0.6,0.3-1.2,0.5-2,0.5h-5.7c-0.6,0-1.1-0.2-1.6-0.6
	c-0.4-0.4-0.7-1-0.7-1.6c0-0.6,0-1.3,0.1-2.1c0.1-0.8,0.2-1.4,0.2-1.9l-0.3-7.7l0.4-17.5l-0.3-5c0-3.1,1-4.6,2.9-4.6
	c0.5,0,1,0.2,1.5,0.5c0.2,0,0.5,0.1,1,0.1c0.6,0,1.1,0.1,1.6,0.2c0.5,0.1,1,0.2,1.5,0.3c1.3,0.4,2,1,2,2c0,1-0.7,1.7-2,2.2l-0.1,0
	l-0.1,0c-1.6-0.5-2.9-0.9-4-1.1c0,0.7,0.1,1.4,0.1,2.1l-0.3,8.6c0,0,0,0.2,0.1,0.5l1.8-0.1c0,0,0,0,0,0c2.7,0,3.3,1.1,3.3,2
	c0,0.7-0.2,1.3-0.6,1.8c-0.4,0.5-1,0.8-1.7,0.8c-0.7,0-1.3-0.2-1.8-0.5h-1c0.1,1.4,0.1,2.7,0.1,4l-0.3,10.9c0,3,1.3,3,1.8,3l2.4-0.1
	h0c2.2,0,2.7,1,2.7,1.8C229.1,61.6,228.7,62.2,228.1,62.6z M206.5,26.2c-0.3-1.1-1-1.6-2-1.7l-0.1,0.5c0,1.5,0,3.9,0.1,7
	c0.1,2.6,0.1,4.6,0.1,6c0.6-0.6,1.1-1.7,1.5-3.2c0.6-2,0.9-3.6,0.9-4.6c0-1.1,0-1.9-0.1-2.4C206.8,27.4,206.7,26.8,206.5,26.2z
	 M67.6,27.1C67,25.7,66.2,25,65,25h-0.1c-1.8,0-2.8,2.2-2.8,6.5l0.1,3.5l0,5.8c0,0.5,0,1.1,0,1.7l0.1,2.6c0,1.1,0.1,2.1,0.2,3.2
	c0.1,1.1,0.2,2.2,0.3,3.4c0.1,1.2,0.3,2.3,0.5,3.2c0.2,1,0.4,1.9,0.6,2.7c0.3,1.1,0.9,2.4,1.7,2.4c1,0,1.7-1,2.3-3
	c0.9-3.2,1.3-7.1,1.3-11.8l0.1-6.2c0-4.3-0.2-7.2-0.6-8.7C68.3,29,68,27.9,67.6,27.1z M189.6,43.3c-0.2-1.9-0.4-4-0.7-6.5
	c-0.2-1.2-0.3-2.3-0.4-3.2c-0.2,1-0.5,2.2-0.9,3.6c-1.3,5.3-2.1,9.5-2.1,12.5c0.5,0.3,1.7,0.6,4.5,0.8c-0.1-0.6-0.1-1.4-0.1-2.4
	C189.8,46.7,189.7,45.1,189.6,43.3z M47.1,27.1c-0.6-1.4-1.5-2.1-2.7-2.1h-0.1c-1.8,0-2.8,2.2-2.8,6.5l0.1,3.5l0,5.8
	c0,0.5,0,1.1,0,1.7l0.1,2.6c0,1.1,0.1,2.1,0.2,3.2c0.1,1.1,0.2,2.2,0.3,3.4c0.1,1.2,0.3,2.3,0.5,3.2c0.2,1,0.4,1.9,0.6,2.7
	c0.3,1.1,0.9,2.4,1.7,2.4c1,0,1.7-1,2.3-3c0.9-3.2,1.3-7.1,1.3-11.8l0.1-6.2c0-4.3-0.2-7.2-0.6-8.7C47.8,29,47.5,27.9,47.1,27.1z
	 M539.3,9.8c-4.6-4.5-29-3.8-51.7-3c-5.2,0.2-51.5-0.6-104-0.6c-17.6,0-45,2-60.8,2c-0.9,0-1.8,0-2.6,0c4,3.3,7.4,7.5,9.3,12.9
	c7,20.5,1.1,39.9,0,42.7c-1.5,3.9-4.7,8.7-8.7,13.1c1.4,0,2.7,0,4.1,0c62.9-0.3,129.3-2.7,131.8-3.1c8.6-1.6,64.8,5.3,68.7,4
	c3.9-1.3,10,0.5,15-5c3.4-3.8,5.9-26.8,6-31C546.4,39,543.9,14.2,539.3,9.8z M365.2,62.6c-0.4,0.3-0.6,0.4-0.9,0.4
	c-0.1,0-0.1,0-0.1,0c0,0-0.1,0-0.1,0c-0.5,0.1-0.9,0.1-1.2-0.1c-0.2-0.1-0.4-0.3-0.5-0.7c0-0.3-0.1-0.6-0.1-0.9l0-1
	c-0.1-3-0.1-5.4-0.1-7.1c0-1.7,0-4.1,0-7.1c0-2.5,0-7,0-13.3c-0.2,0.9-0.4,2-0.6,3.2c-0.7,3.4-1.2,6-1.4,7.5
	c-0.3,1.6-0.5,2.9-0.6,3.9c-0.2,1.1-0.3,2-0.5,2.8c-0.1,0.8-0.3,1.7-0.5,2.6c-0.5,2-1.3,3-2.3,3c-1.5,0-2.2-2-2.2-6
	c-0.2-1.8-0.9-5.7-1.9-11.4c-0.6-3.1-1-5.7-1.4-7.8c0,1.7,0,3.1,0,4.2l0.5,25c0,1-0.3,1.8-1,2.5l-0.1,0.1H350
	c-1.1,0-1.9-0.4-2.4-1.2c-0.4-0.7-0.6-1.7-0.6-2.9l0.2-10L347.1,25c0-2.6,0-5.2,0.1-7.8l0-0.2l2-1.1l0.1,0c0.9,0.1,2.2,1.4,4,10.8
	c1.1,5.4,2,10.5,2.7,15.1c0.3,2.2,0.6,4,0.8,5.2c2.5-14.1,4-24.1,4.6-29.7l0-0.3c0.1-0.7,0.4-1.2,0.9-1.5c1-0.7,2.1-0.6,2.7-0.2
	c0.6,0.4,0.9,0.9,0.9,1.6c0,4.7,0.1,11.9,0.4,21.3c0.3,9.4,0.4,16.6,0.4,21.3C366.6,60.8,366.1,61.9,365.2,62.6z M387,62.7L387,62.7
	l-0.1,0c-0.9,0-1.6-0.2-2.2-0.5c-0.6-0.3-0.9-1.1-0.9-2.4c0-1-0.3-3.2-0.8-6.5l-1.6-0.1l-2,0l-0.1,0c-0.3-0.1-0.8-0.2-1.9-0.3
	c0,0.1,0,0.3,0,0.4l-0.1,1.2c0,0.3-0.1,0.7-0.1,1.3c-0.1,0.6-0.1,1.1-0.2,1.5c-0.1,0.4-0.2,0.9-0.3,1.4c-0.1,0.6-0.3,1-0.4,1.4
	c-0.2,0.4-0.3,0.7-0.5,1.1c-0.4,0.8-1,1.2-1.6,1.2c-0.6,0-1.1-0.2-1.6-0.5c-0.5-0.4-0.7-0.9-0.7-1.5l0-0.1c1-4,2-8.3,2.7-12.7
	c0.8-4.4,1.2-7.1,1.3-7.9s0.5-2.5,1-4.8c0.5-2.4,0.9-3.9,1-4.7c0.1-0.8,0.2-1.8,0.3-3.1c0.2-2.9,0.6-4.7,1.1-5.5l0.1-0.2h2.2
	c2,0,2.4,0.9,2.4,1.6c0,7.7,0.8,15.4,2.2,22.9c0.1,0.4,0.2,1.1,0.4,1.8c0.5,1.8,0.7,3.2,0.7,4.2l0,0.1l-0.3,1.2
	c0,0.4,0.1,1.2,0.5,3.5c0.4,1.9,0.5,3.2,0.5,3.8C388.1,62,387.5,62.5,387,62.7z M405.4,62.6c-0.3,0.4-0.8,0.6-1.3,0.6
	c-1.5,0-2.8-2.2-4-6.8c-0.5-1.9-0.9-3.8-1.3-5.8c-0.7-3.7-1.2-5.9-1.5-7.2c0,0.2-0.1,0.5-0.2,0.7c-0.3,1.1-0.4,2.1-0.4,3
	c0,0.9,0.1,3,0.4,6c0.2,3.1,0.4,5.1,0.4,6c0,1-0.2,1.7-0.5,2.3c-0.4,0.6-0.9,0.9-1.4,0.9c-0.5,0-1.2-0.3-1.5-1.5
	c0-1.6,0.1-3.4,0.1-5.5c0-2.1-0.2-6.9-0.5-14.2c-0.3-7.3-0.5-12.8-0.5-16.4c0-2.7,1.3-3.2,2.4-3.2c2.2,0,4,0.6,5.5,1.7
	c1.5,1.2,2.3,2.8,2.3,5c0,2.8-0.2,4.9-0.7,6.5c-0.4,1.5-1.2,3.4-2.4,5.7c0.2,1,0.6,2.9,1.1,5.6c1.1,6.1,2.4,10.6,3.9,13.3
	c0.4,0.8,0.7,1.5,0.7,2C405.8,61.8,405.7,62.3,405.4,62.6z M426.4,62.7c-0.4,0.4-0.9,0.5-1.4,0.5c-1.1,0-2.2-1-3.3-3.2
	c-1-2-1.9-4.5-2.8-7.4c-1.2-4.5-2.2-8.6-2.8-12c-0.4,0.6-0.7,1.2-1,2c-0.4,1.4-0.5,2-0.5,2.2v16.4c0,1.1-0.6,1.8-1.7,1.8
	c-0.7,0-1.3-0.2-1.7-0.6c-0.4-0.4-0.7-1-0.7-1.7V42.6c0-2.2,0.2-5.4,0.6-9.7c0.4-4.3,0.6-7.5,0.6-9.6l0-0.2c0.5-1.1,1.3-1.4,1.9-1.4
	c1.4,0,2.2,0.9,2.2,2.4v0L415.3,35v1.4c0.3-0.7,0.8-1.7,1.5-3.2c5.2-11.2,6.1-11.2,6.7-11.2c0.6,0,1.2,0.2,1.8,0.5
	c0.6,0.3,0.9,0.9,0.9,1.5c0,0.2,0,0.2-3.1,5.3c-1.9,3.2-3.1,5.1-3.3,5.7l-0.1,3.5c0,1.7,0.7,4.9,2.1,9.5c1.4,4.7,2.5,7.8,3.4,9.3
	c0.1,0.2,0.4,0.5,0.8,1.1c0.4,0.6,0.7,1.1,0.9,1.5c0.2,0.5,0.3,0.9,0.3,1.4C427.1,61.8,426.8,62.3,426.4,62.7z M443.4,25.4
	c-0.5,0.3-1,0.5-1.6,0.5l-2.5-0.4l0,0.3c0,3.7,0.3,9.4,1,16.9c0.7,7.5,1,13.3,1,17.1c0,0.6-0.2,1.1-0.7,1.5
	c-0.4,0.4-0.9,0.6-1.5,0.6h-1.7l-0.1-5.8l0.1-2c-0.1-0.5-0.3-2.7-1-13.6c-0.5-8-0.7-13.1-0.8-15.3c-2.9-0.1-3.7-0.4-4.1-0.7
	c-0.7-0.4-1-0.9-1-1.4c0-0.4,0.1-0.9,0.8-1.3c0.5-0.3,1-0.4,1.4-0.4l8.2,0.6l0.9,0c2,0,2.3,1.1,2.3,1.8
	C444.1,24.6,443.9,25.1,443.4,25.4z M459.9,36.5c-0.1,0.6-0.3,1.2-0.4,1.8c-0.2,0.6-0.4,1.1-0.6,1.5c-0.2,0.4-0.5,0.8-0.9,1.2
	c-0.4,0.4-0.8,0.8-1.3,1.1c-1,0.6-2.1,1.2-3.4,1.6v6.1l0.5,11.4c0,0.6-0.2,1.1-0.6,1.5c-0.4,0.4-0.9,0.6-1.5,0.6h-1.8l-0.1-0.3
	c-0.2-1.1-0.4-2.8-0.4-5l-0.1-15.3l0.2-6.8l0.1-5.7c0-2.3-0.2-4.2-0.5-5.5l0-0.1l0-0.1c0.1-0.5,0.3-1.1,0.6-1.6
	c0.4-0.7,1-0.8,1.4-0.8h2.6c2.4,0,4.2,1,5.2,3.1c0.8,1.7,1.3,3.8,1.3,6C460.1,34.1,460,35.8,459.9,36.5z M476.6,62.6
	c-0.4,0.3-0.9,0.5-1.4,0.6l-0.1,0l-0.1,0c-1.4-0.4-3.1-0.7-5.1-0.7c-1.4,0.8-2.9,0.7-3.6-0.2c-0.4-0.5-0.6-1-0.6-1.6l0.6-27.2
	c-0.1-1.2-0.2-3.1-0.2-5.6c0-4.1,0.8-6.1,2.5-6.1c0.5,0,1,0.2,1.3,0.5c0.4,0.4,0.6,0.8,0.6,1.3l-0.4,4.6l0.2,14.5l0,0.1
	c-0.1,0.4-0.3,1.2-0.3,3.1l-0.2,9.6c0,2.5,0.6,3.7,1.6,3.7l2.5-0.1c0,0,0,0,0,0c2.4,0,3.6,0.7,3.6,2.1
	C477.3,61.8,477.1,62.2,476.6,62.6z M496.1,62.7L496.1,62.7l-0.1,0c-0.9,0-1.6-0.2-2.2-0.5c-0.6-0.3-0.9-1.1-0.9-2.4
	c0-1-0.3-3.2-0.8-6.5l-1.6-0.1l-2,0l-0.1,0c-0.3-0.1-0.8-0.2-1.9-0.3c0,0.1,0,0.3,0,0.4l-0.1,1.2c0,0.3-0.1,0.7-0.1,1.3
	c-0.1,0.6-0.1,1.1-0.2,1.5c-0.1,0.4-0.2,0.9-0.3,1.4c-0.1,0.6-0.3,1-0.4,1.4c-0.2,0.4-0.3,0.7-0.5,1.1c-0.4,0.8-1,1.2-1.6,1.2
	c-0.6,0-1.1-0.2-1.6-0.5c-0.5-0.4-0.7-0.9-0.7-1.5l0-0.1c1-4,2-8.3,2.7-12.7c0.8-4.4,1.2-7.1,1.3-7.9s0.5-2.5,1-4.8
	c0.5-2.4,0.9-3.9,1-4.7c0.1-0.8,0.2-1.8,0.3-3.1c0.2-2.9,0.6-4.7,1.1-5.5l0.1-0.2h2.2c2,0,2.4,0.9,2.4,1.6c0,7.7,0.8,15.4,2.2,22.9
	c0.1,0.4,0.2,1.1,0.4,1.8c0.5,1.8,0.7,3.2,0.7,4.2l0,0.1l-0.3,1.2c0,0.4,0.1,1.2,0.5,3.5c0.4,1.9,0.5,3.2,0.5,3.8
	C497.3,62,496.7,62.5,496.1,62.7z M514,25.4c-0.5,0.3-1,0.5-1.6,0.5l-2.5-0.4l0,0.3c0,3.7,0.3,9.4,1,16.9c0.7,7.5,1,13.3,1,17.1
	c0,0.6-0.2,1.1-0.7,1.5c-0.4,0.4-0.9,0.6-1.5,0.6H508l-0.1-5.8l0.1-2c-0.1-0.5-0.3-2.7-1-13.6c-0.5-8-0.7-13.1-0.8-15.3
	c-2.9-0.1-3.7-0.4-4.1-0.7c-0.7-0.4-1-0.9-1-1.4c0-0.4,0.1-0.9,0.8-1.3c0.5-0.3,1-0.4,1.4-0.4l8.2,0.6l0.9,0c2,0,2.3,1.1,2.3,1.8
	C514.8,24.6,514.5,25.1,514,25.4z M530.1,29.5c-0.9,2.4-1.4,4.4-1.7,5.9c-0.3,1.6-0.9,3.9-1.8,6.9c-0.9,3-1.8,5.9-2.5,8.7
	c-0.7,2.6-1.1,5.1-1.2,7.3h0.6l2.5-0.1c2.3,0,2.8,1,2.8,1.8c0,0.6-0.3,1.1-0.8,1.4c-0.5,0.3-1,0.4-1.6,0.4l-3.6-0.2
	c-0.1,0-0.4,0-0.9,0.3c-0.5,0.2-1,0.4-1.4,0.4c-0.4,0-0.9-0.2-1.3-0.5c-0.4-0.4-0.6-0.9-0.6-1.5c0-0.5,0.1-1.3,0.3-2.3
	c0.2-1,0.6-2.2,1-3.7c0.4-1.5,0.8-2.5,0.9-3.1c0.2-0.6,0.5-2,0.9-4c0.4-2.1,0.8-3.7,1.1-4.8c0.3-1.1,0.8-2.9,1.6-5.2
	c1.7-5,2.7-8.9,2.9-11.7l-4.5,0.3h0c-0.6,0-1-0.2-1.4-0.6c-0.4-0.4-0.5-0.9-0.5-1.4c0-1.4,2.1-2.1,6.5-2.1h0.2
	c1.7,0,2.7,0.2,3.1,0.7c0.4,0.4,0.5,0.9,0.5,1.4C531.4,25.1,531,27.1,530.1,29.5z M382.1,43.3c-0.2-1.9-0.4-4-0.7-6.5
	c-0.2-1.2-0.3-2.3-0.4-3.2c-0.2,1-0.5,2.2-0.9,3.6c-1.3,5.3-2.1,9.5-2.1,12.5c0.5,0.3,1.7,0.6,4.5,0.8c-0.1-0.6-0.1-1.4-0.1-2.4
	C382.4,46.7,382.3,45.1,382.1,43.3z M399.1,26.2c-0.3-1.1-1-1.6-2-1.7l-0.1,0.5c0,1.5,0,3.9,0.1,7c0.1,2.6,0.1,4.6,0.1,6
	c0.6-0.6,1.1-1.7,1.5-3.2c0.6-2,0.9-3.6,0.9-4.6c0-1.1,0-1.9-0.1-2.4C399.4,27.4,399.2,26.8,399.1,26.2z M454.7,26.6
	c-0.3-0.2-0.7-0.3-1.2-0.4v2.9l-0.3,11.3c1.9-0.7,2.9-3.9,2.9-9.7C456.1,28.6,455.6,27.2,454.7,26.6z M491.3,43.3
	c-0.2-1.9-0.4-4-0.7-6.5c-0.2-1.2-0.3-2.3-0.4-3.2c-0.2,1-0.5,2.2-0.9,3.6c-1.3,5.3-2.1,9.5-2.1,12.5c0.5,0.3,1.7,0.6,4.5,0.8
	c-0.1-0.6-0.1-1.4-0.1-2.4C491.5,46.7,491.4,45.1,491.3,43.3z"/>
<g>
	<g>
		<path class="st0" d="M30.8,20.1c-0.4,0.3-0.9,0.4-1.6,0.4c-0.6,0-1.1-0.2-1.4-0.6h-1.2v-0.2c-2.7,0.1-4.4,1.3-5.1,3.7
			c-0.4,1.2-0.6,2.9-0.6,5l0,0.6c0.1-1.6,0.2-2.9,0.5-4c0.7-2.4,2.4-3.6,5.1-3.7v0.2h1.2c0.4,0.4,0.8,0.6,1.4,0.6
			c0.7,0,1.2-0.1,1.6-0.4c0.4-0.3,0.7-0.8,0.7-1.3c0-0.3-0.1-0.6-0.2-0.9C31.2,19.8,31,19.9,30.8,20.1z"/>
		<path class="st0" d="M32.1,61c-1.2,1.4-3.2,2.1-5.8,2.1c-1.4,0-2.8-0.5-4.2-1.4c-1.4-0.9-2.4-2.2-3.1-3.7
			c-0.7-1.5-1.2-5.2-1.6-11.3c-0.4-5.6-0.6-10-0.6-13.2c0,0.3,0,0.6,0,0.9c0,3.2,0.2,7.9,0.6,13.9c0.4,6.1,0.9,9.8,1.6,11.3
			c0.7,1.5,1.8,2.7,3.1,3.7c1.4,0.9,2.8,1.4,4.2,1.4c2.6,0,4.6-0.7,5.8-2.1c0.8-0.8,1.2-1.9,1.2-3.2V58l0,0
			C33.1,59.2,32.8,60.2,32.1,61z"/>
		<path class="st0" d="M21,32.9l-0.5,3.8c0,0.4,0,0.8,0,1.3l0.5-4L21,32.9z"/>
		<path class="st0" d="M17.1,25.8c-0.1-0.4-0.1-0.7-0.1-1.1c0,0.3,0,0.5,0,0.8c0,0.3,0,0.7,0.1,1C17.1,26.3,17.1,26,17.1,25.8z"/>
	</g>
	<g>
		<path class="st0" d="M48.2,30.3c-0.4-1.5-0.7-2.6-1-3.3c-0.6-1.4-1.5-2.1-2.7-2.1h-0.1c-1.8,0-2.8,2.2-2.8,6.5l0,0.9
			c0.1-3.8,1-5.8,2.7-5.8h0.1c1.2,0,2.1,0.7,2.7,2.1c0.3,0.7,0.7,1.9,1,3.3c0.3,1.3,0.5,3.9,0.6,7.5l0-0.5
			C48.7,34.7,48.6,31.8,48.2,30.3z"/>
		<path class="st0" d="M41.7,41.3l0-4.7l0-0.3l0,4.4C41.6,40.9,41.7,41.1,41.7,41.3z"/>
		<path class="st0" d="M45.3,63.2c-4.6,0-7.1-5.5-7.7-16.7c0-1-0.1-2.1-0.1-3.1l0-3.9c0,0.2,0,0.4,0,0.6l0,4.8c0,1,0,2.1,0.1,3.1
			c0.5,11.2,3.1,16.7,7.7,16.7c4.9,0,7.4-5.9,7.4-17.6v-1.6C52.7,57.3,50.2,63.2,45.3,63.2z"/>
	</g>
	<g>
		<path class="st0" d="M62.2,41.3l0-4.7l0-0.3l0,4.4C62.1,40.9,62.1,41.1,62.2,41.3z"/>
		<path class="st0" d="M65.8,63.2c-4.6,0-7.1-5.5-7.7-16.7c0-1-0.1-2.1-0.1-3.1l0-3.9c0,0.2,0,0.4,0,0.6l0,4.8c0,1,0,2.1,0.1,3.1
			c0.5,11.2,3.1,16.7,7.7,16.7c4.9,0,7.4-5.9,7.4-17.6v-1.6C73.2,57.3,70.7,63.2,65.8,63.2z"/>
		<path class="st0" d="M68.7,30.3c-0.4-1.5-0.7-2.6-1-3.3c-0.6-1.4-1.5-2.1-2.7-2.1h-0.1c-1.8,0-2.8,2.2-2.8,6.5l0,0.9
			c0.1-3.8,1-5.8,2.7-5.8H65c1.2,0,2.1,0.7,2.7,2.1c0.3,0.7,0.7,1.9,1,3.3c0.3,1.3,0.5,3.9,0.6,7.5l0-0.5
			C69.2,34.7,69.1,31.8,68.7,30.3z"/>
	</g>
	<g>
		<path class="st0" d="M84.8,26.5c-0.3-0.2-0.7-0.3-1.2-0.4v1.6c0.5,0,0.9,0.2,1.2,0.4c0.8,0.5,1.3,1.8,1.4,3.7c0-0.4,0-0.7,0-1.1
			C86.2,28.5,85.7,27.1,84.8,26.5z"/>
		<path class="st0" d="M83.4,40.3l0.3-9.7v-1.6L83.4,40.3C83.3,40.3,83.4,40.3,83.4,40.3z"/>
		<path class="st0" d="M83.2,62.6c-0.4,0.4-0.9,0.6-1.5,0.6h-1.8l-0.1-0.3c-0.2-1.1-0.4-2.8-0.4-5l-0.1-14.1l0,0.3l0.1,15.3
			c0,2.2,0.1,3.9,0.4,5l0.1,0.3h1.8c0.6,0,1.1-0.2,1.5-0.6c0.4-0.4,0.6-0.9,0.6-1.5l0-1.1C83.7,62,83.5,62.3,83.2,62.6z"/>
		<path class="st0" d="M90,36.4c-0.1,0.6-0.3,1.2-0.4,1.8c-0.2,0.6-0.4,1.1-0.6,1.5c-0.2,0.4-0.5,0.8-0.9,1.2
			c-0.4,0.4-0.8,0.8-1.3,1.1c-1,0.6-2.1,1.2-3.4,1.6v1.6c1.3-0.4,2.5-1,3.4-1.6c0.5-0.3,0.9-0.7,1.3-1.1c0.4-0.4,0.7-0.8,0.9-1.2
			c0.2-0.4,0.5-0.9,0.6-1.5c0.2-0.6,0.3-1.2,0.4-1.8c0.1-0.7,0.2-2.4,0.2-5.2c0-0.1,0-0.1,0-0.2C90.2,34.6,90.1,35.8,90,36.4z"/>
		<path class="st0" d="M79.6,30.1c0-1.9-0.1-3.4-0.3-4.6c-0.1,0.2-0.1,0.4-0.2,0.6l0,0.1l0,0.1c0.3,1.2,0.4,2.8,0.5,4.7L79.6,30.1z"
			/>
	</g>
	<g>
		<path class="st0" d="M117.7,24.6l0.1-2.1c0-0.2,0-0.4-0.1-0.6l-0.1,2.1C117.6,24.1,117.6,24.3,117.7,24.6z"/>
		<path class="st0" d="M116.3,56.7c-0.7-0.8-1.5-1.9-2.2-3.2c-0.7-1.4-1.3-3-1.8-4.9c-0.6-2.2-1.1-4.9-1.7-8.1
			c-1.7,3.1-2.5,6.6-2.5,10.6c0,0.2,0,0.5,0,0.7c0.1-3.6,0.9-6.9,2.5-9.7c0.5,3.2,1.1,5.9,1.7,8.1c0.5,1.9,1.1,3.5,1.8,4.9
			c0.7,1.4,1.4,2.5,2.2,3.2c0,0,0,0,0.1,0.1c0.4-0.2,0.7-0.4,1-0.6C117.2,57.6,116.8,57.2,116.3,56.7z"/>
		<path class="st0" d="M120.4,46.5c0-0.5,0.1-1,0.1-1.6c-0.6-0.1-1.1-0.5-1.5-1.2l0-0.2v1.6l0,0.2C119.3,46,119.8,46.4,120.4,46.5z"
			/>
		<path class="st0" d="M125,44.9h-1.1c0,1-0.1,2.2-0.1,3.4c0,0,0,0,0,0c0,0,0,0,0,0.1c0-0.7,0-1.3,0.1-1.9h1.1c2.4,0,3.7-0.7,3.7-2
			c0-0.3,0-0.5-0.2-0.8C128.1,44.5,126.9,44.9,125,44.9z"/>
		<path class="st0" d="M123.8,50c-0.1,0.6-0.3,1.4-0.7,2.4c-0.7,2.4-1.3,3.9-1.7,4.8c0.2,0.2,0.3,0.3,0.5,0.4
			c0.3-0.9,0.7-2.1,1.2-3.6C124.1,50.9,124,50.3,123.8,50z"/>
		<path class="st0" d="M113.6,20.4c-0.2,0.2-0.4,0.5-0.7,1.2v1.6c0.3-0.6,0.5-1,0.7-1.2c0.5,0.1,0.8,0.7,0.9,1.6c0-0.3,0-0.5,0-0.7
			C114.5,21.3,114.2,20.5,113.6,20.4z"/>
		<path class="st0" d="M109.9,34.7l-0.4-8.1v1.6l0.3,6.7C109.9,34.8,109.9,34.7,109.9,34.7z"/>
		<path class="st0" d="M127.8,61.8c-0.6,0.3-1.4,0.4-2.4,0.4c-1.9,0-3.8-0.7-5.8-2.2c-2.1,1.5-4.1,2.2-6,2.2c-1.9,0-3.5-0.5-4.9-1.6
			c-1.3-1.1-2.3-2.4-3-3.9c-0.6-1.4-1-2.8-1-4.2c0,0.3,0,0.7,0,1c0,1.6,0.4,3.2,1.1,4.8c0.7,1.5,1.7,2.9,3,3.9
			c1.3,1.1,3,1.6,4.9,1.6c1.8,0,3.8-0.7,6-2.2c2,1.4,3.9,2.2,5.8,2.2c1,0,1.8-0.1,2.4-0.4c0.5-0.2,1-0.7,1-1.9v-0.2l-0.3-0.2
			C128.3,61.5,128,61.7,127.8,61.8z"/>
		<polygon class="st0" points="112.9,26.7 112.9,23.1 112.9,24.6 		"/>
		<path class="st0" d="M115.1,34.2c0.3-0.6,0.7-1.7,1.3-3.5c0.6-1.8,1-3,1.3-3.8l0-0.1l0-0.1c-0.1-0.4-0.1-0.8-0.1-1.1
			c-0.3,0.8-0.7,1.9-1.2,3.5c-0.6,1.8-1,3-1.3,3.5c-0.3,0.5-0.6,1-0.8,1.4c-0.8,1.1-0.9,1.6-0.9,1.8c0,0.3,0,0.8,0.1,1.2
			c0.1-0.3,0.3-0.7,0.8-1.4C114.5,35.3,114.8,34.8,115.1,34.2z"/>
	</g>
	<g>
		<path class="st0" d="M148.3,42.1c0.8,1.7,1.6,3.4,2.1,5.3c0.5,1.5,0.7,3,0.8,4.4c0-0.2,0-0.5,0-0.7c0-1.6-0.3-3.4-0.9-5.3
			c-0.6-1.9-1.3-3.7-2.1-5.3c-0.8-1.7-1.7-3.4-2.5-5c-1.9-3.7-2.9-7.2-3-10.3c0,0.3,0,0.5,0,0.8c0,3.3,1,7.1,3.1,11.1
			C146.6,38.8,147.5,40.4,148.3,42.1z"/>
		<path class="st0" d="M149.9,20.5c0.7,0.4,1.8,0.6,3.5,0.6h0.4v-1.6h-0.4c-1.7,0-2.8-0.2-3.5-0.6c-0.6,0.1-1.1,0.4-1.6,0.9
			c-0.9,1.1-1.4,2.4-1.4,3.8c0,0.4,0,0.7,0,1.1c0.1-1.2,0.5-2.4,1.4-3.3C148.8,20.9,149.3,20.6,149.9,20.5z"/>
		<path class="st0" d="M155.1,55.6c-0.3,1.3-0.9,2.6-1.5,3.7c-0.7,1.2-1.6,2.2-2.7,2.9c-1.1,0.8-2.2,1.1-3.2,1.1
			c-1,0-1.8-0.1-2.4-0.2c-0.7-0.1-1.4-0.3-2-0.7c-0.5-0.3-0.8-0.6-1-0.9c-0.1,0.3-0.2,0.6-0.2,1c0,0.6,0.4,1.2,1.2,1.6
			c0.7,0.3,1.4,0.6,2,0.7c0.7,0.1,1.5,0.2,2.4,0.2c1,0,2.1-0.4,3.2-1.1c1.1-0.8,2-1.7,2.7-2.9c0.6-1.2,1.2-2.4,1.5-3.7
			c0.3-1.3,0.5-2.7,0.5-4.2c0-0.2,0-0.5,0-0.7C155.5,53.5,155.4,54.6,155.1,55.6z"/>
	</g>
	<g>
		<path class="st0" d="M165.2,25.6L165.2,25.6L165,40.3c0.2,0,0.3,0.1,0.5,0.1l0.2-13.2c0-1.3-0.2-2.3-0.6-3
			C165.2,24.6,165.2,25.1,165.2,25.6z"/>
		<path class="st0" d="M174.1,43.3c-0.4-8.3-0.6-14.7-0.6-18.9c0-0.8-0.2-1.3-0.5-1.6c0,4.2,0.2,10.5,0.6,18.8
			c0.4,8.3,0.6,14.7,0.6,18.9c0,0.5-0.2,0.9-0.6,1.1c-0.4,0.2-0.8,0.4-1.4,0.4c-0.5,0-1-0.1-1.5-0.4c-0.1-0.1-0.3-0.2-0.4-0.3
			c0,0.2,0,0.4,0,0.6c0,0.4,0.2,0.9,0.8,1.3c0.5,0.3,1,0.4,1.5,0.4c0.5,0,1-0.1,1.4-0.4c0.4-0.3,0.6-0.7,0.6-1.1
			C174.7,58,174.5,51.7,174.1,43.3z"/>
		<path class="st0" d="M169,45.2c0.2,0,0.4,0,0.5,0l0-1.6c-0.3,0-0.6,0-1,0l-3.4-0.5l-0.2,6.5l0.5,9.9c0,0.7-0.2,1.3-0.5,1.7
			c-0.3,0.5-0.9,0.8-1.6,0.8c-0.7,0-1.2-0.4-1.6-1.1c0,0.1,0,0.2,0,0.2c0.3,1.6,1,2.5,2,2.5c0.7,0,1.2-0.3,1.6-0.8
			c0.3-0.5,0.5-1.1,0.5-1.7l-0.5-9.9l0.2-6.5L169,45.2z"/>
	</g>
	<g>
		<path class="st0" d="M190.4,53.3l-1.6-0.1l-2,0l-0.1,0c-0.3-0.1-0.8-0.2-1.9-0.3c0,0.1,0,0.3,0,0.4l-0.1,1.2
			c0,0.3-0.1,0.7-0.1,1.3c-0.1,0.6-0.1,1.1-0.2,1.5c-0.1,0.4-0.2,0.9-0.3,1.4c-0.1,0.6-0.3,1-0.4,1.4c-0.2,0.4-0.3,0.7-0.5,1.1
			c-0.4,0.8-1,1.2-1.6,1.2c-0.6,0-1.1-0.2-1.6-0.5c-0.1-0.1-0.1-0.1-0.2-0.2c0,0.1,0,0.1-0.1,0.2l0,0.1c0,0.6,0.3,1.1,0.7,1.5
			c0.5,0.4,1,0.5,1.6,0.5c0.7,0,1.2-0.4,1.6-1.2c0.2-0.3,0.3-0.7,0.5-1.1c0.2-0.4,0.3-0.9,0.4-1.4c0.1-0.5,0.2-1,0.3-1.4
			c0.1-0.4,0.2-0.9,0.2-1.5c0.1-0.6,0.1-1,0.1-1.3l0.1-1.2c0-0.2,0-0.3,0-0.4c1.1,0,1.6,0.2,1.9,0.3l0.1,0l2,0l1.3,0.1
			C190.6,54.4,190.5,53.9,190.4,53.3z"/>
		<path class="st0" d="M190.3,47.9c0-1.3-0.1-2.9-0.2-4.7c-0.2-1.9-0.4-4-0.7-6.5c-0.2-1.2-0.3-2.3-0.4-3.2
			c-0.1,0.6-0.3,1.2-0.5,1.9c0.1,0.8,0.2,1.8,0.4,2.9c0.3,2.4,0.6,4.6,0.7,6.5c0.2,1.8,0.2,3.4,0.2,4.7c0,0.3,0,0.5,0,0.8
			c0.2,0,0.4,0,0.6,0.1C190.3,49.7,190.3,48.9,190.3,47.9z"/>
		<path class="st0" d="M195.5,58.3c-0.4-2.2-0.5-3.1-0.5-3.5l0.3-1.2l0-0.1c0-1-0.2-2.5-0.7-4.2c-0.2-0.8-0.4-1.4-0.4-1.8
			c-1.5-7.6-2.2-15.3-2.2-22.9c0-0.4-0.1-0.8-0.5-1.1c0,7.5,0.8,15,2.2,22.4c0.1,0.4,0.2,1.1,0.4,1.8c0.5,1.8,0.7,3.2,0.7,4.2l0,0.1
			l-0.3,1.2c0,0.4,0.1,1.2,0.5,3.5c0.4,1.9,0.5,3.2,0.5,3.8c0,1.4-0.6,1.9-1.1,2.1l-0.1,0h-0.1c-0.9,0-1.6-0.2-2.2-0.5
			c-0.1-0.1-0.3-0.2-0.4-0.3c0.1,1,0.3,1.6,0.9,1.9c0.5,0.3,1.2,0.5,2.2,0.5h0.1l0.1,0c0.5-0.2,1.1-0.7,1.1-2.1
			C196.1,61.5,195.9,60.3,195.5,58.3z"/>
	</g>
	<g>
		<path class="st0" d="M204.4,24.3l-0.1,0.5c0,1.5,0,3.9,0.1,7c0.1,2.6,0.1,4.6,0.1,6c0.2-0.2,0.4-0.5,0.6-0.9c0-1,0-2.2-0.1-3.6
			c-0.1-3.1-0.1-5.5-0.1-7l0.1-0.5c0.7,0.1,1.2,0.4,1.6,0.8c-0.1-0.2-0.1-0.5-0.2-0.7C206.2,25,205.5,24.5,204.4,24.3z"/>
		<path class="st0" d="M205.4,48.7c0-0.6,0.1-1.2,0.2-1.9c-0.3-1.6-0.6-2.7-0.8-3.5c0,0.2-0.1,0.5-0.2,0.7c-0.3,1.1-0.4,2.1-0.4,3
			c0,0.9,0.1,3,0.4,6c0.2,3.1,0.4,5.1,0.4,6c0,1-0.2,1.7-0.5,2.3c-0.4,0.6-0.9,0.9-1.4,0.9c-0.1,0-0.2,0-0.3,0c0,0,0,0.1,0,0.1
			c0.2,1.2,0.9,1.5,1.5,1.5c0.5,0,1-0.3,1.4-0.9c0.4-0.5,0.5-1.3,0.5-2.3c0-0.9-0.1-2.9-0.4-6C205.5,51.6,205.4,49.6,205.4,48.7z"/>
		<path class="st0" d="M213.7,60.8c-1.4-2.7-2.7-7.2-3.9-13.3l0,0c-0.5-2.7-0.9-4.6-1.1-5.6c1.2-2.2,2-4.1,2.4-5.7
			c0.4-1.5,0.7-3.7,0.7-6.5c0-1.9-0.6-3.4-1.8-4.5c0.4,0.9,0.6,1.8,0.6,2.9c0,2.8-0.2,4.9-0.7,6.5c-0.4,1.5-1.2,3.4-2.4,5.7
			c0.2,1,0.6,2.9,1.1,5.6c1.1,6.1,2.4,10.6,3.9,13.3c0.4,0.8,0.7,1.5,0.7,2c0,0.5-0.2,1-0.4,1.3c-0.3,0.4-0.8,0.6-1.3,0.6
			c-0.4,0-0.8-0.2-1.2-0.5c0.7,1.4,1.5,2.1,2.4,2.1c0.5,0,1-0.2,1.3-0.6c0.3-0.4,0.4-0.8,0.4-1.3C214.4,62.3,214.2,61.6,213.7,60.8z
			"/>
	</g>
	<g>
		<path class="st0" d="M226.7,27l-0.1,0l-0.1,0c-1.6-0.5-2.9-0.9-4-1.1c0,0.7,0.1,1.4,0.1,2.1l-0.3,8.6c0,0,0,0.2,0.1,0.5l0.6,0
			l0.2-7.5c0-0.7,0-1.4-0.1-2.1c1.1,0.2,2.4,0.5,4,1.1l0.1,0l0.1,0c1.3-0.5,2-1.2,2-2.2c0-0.5-0.2-1-0.7-1.4
			C228.6,25.9,227.9,26.6,226.7,27z"/>
		<path class="st0" d="M222.9,58.7c0-0.3-0.1-0.6-0.1-1l0.3-10.9c0-1.2,0-2.6-0.1-4h1c0.5,0.3,1.1,0.5,1.8,0.5
			c0.7,0,1.3-0.3,1.7-0.8c0.4-0.5,0.6-1.1,0.6-1.8c0-0.5-0.2-1-0.7-1.4c0,0.6-0.2,1.1-0.6,1.6c-0.4,0.5-1,0.8-1.7,0.8
			c-0.7,0-1.3-0.2-1.8-0.5h-1c0.1,1.4,0.1,2.7,0.1,4l-0.3,10.9C222.2,57.6,222.6,58.3,222.9,58.7z"/>
		<path class="st0" d="M229,61c-0.1,0.6-0.4,1.1-1,1.4c-0.6,0.3-1.2,0.5-2,0.5h-5.7c-0.6,0-1.1-0.2-1.6-0.6c0,0,0,0,0-0.1
			c0,0,0,0,0,0.1c0,0.6,0.3,1.2,0.7,1.6c0.4,0.4,1,0.6,1.6,0.6h5.7c0.7,0,1.4-0.2,2-0.5c0.6-0.3,1-0.9,1-1.7
			C229.7,61.9,229.6,61.4,229,61z"/>
	</g>
	<g>
		<path class="st0" d="M351.8,35.9c-0.4-2.1-0.7-3.9-1-5.4c0,1.7,0,3.1,0,4.2l0.5,25c0,1-0.3,1.8-1,2.5l-0.1,0.1H350
			c-0.7,0-1.2-0.2-1.7-0.5c0.1,0.3,0.2,0.6,0.3,0.9c0.4,0.8,1.2,1.2,2.4,1.2h0.2l0.1-0.1c0.7-0.7,1-1.6,1-2.5l-0.5-25
			C351.8,36.1,351.8,36,351.8,35.9z"/>
		<path class="st0" d="M353.3,26.7c1.1,5.4,2,10.5,2.7,15.1c0.3,2.2,0.6,4,0.8,5.2c0.1-0.8,0.3-1.6,0.4-2.3
			c-0.1-0.4-0.1-0.8-0.2-1.2c-0.7-4.6-1.6-9.7-2.7-15.1c-1.4-7.3-2.5-9.7-3.4-10.5C351.6,19.3,352.4,22,353.3,26.7z"/>
		<path class="st0" d="M367.2,39.7c-0.3-9.4-0.4-16.6-0.4-21.3c0-0.7-0.3-1.2-0.9-1.6c0,0-0.1-0.1-0.2-0.1c0,0,0,0.1,0,0.1
			c0,4.7,0.1,11.9,0.4,21.3c0.3,9.4,0.4,16.6,0.4,21.3c0,1.3-0.4,2.3-1.3,3.1c-0.4,0.3-0.6,0.4-0.9,0.4c-0.1,0-0.1,0-0.1,0
			c0,0-0.1,0-0.1,0c-0.3,0.1-0.5,0.1-0.7,0c0,0.3,0,0.5,0.1,0.7c0.1,0.4,0.3,0.6,0.5,0.7c0.3,0.2,0.7,0.2,1.2,0.1c0,0,0.1,0,0.1,0
			c0,0,0.1,0,0.1,0c0.2,0,0.5-0.1,0.9-0.4c0.9-0.8,1.3-1.8,1.3-3.1C367.6,56.3,367.4,49.1,367.2,39.7z"/>
		<path class="st0" d="M362.4,32.5c-0.2,0.9-0.4,2-0.6,3.2c-0.7,3.4-1.2,6-1.4,7.5c-0.3,1.6-0.5,2.9-0.6,3.9c-0.2,1.1-0.3,2-0.5,2.8
			c-0.1,0.8-0.3,1.7-0.5,2.6c-0.5,2-1.3,3-2.3,3c-0.3,0-0.6-0.1-0.8-0.3c0.4,1.2,1,1.9,1.8,1.9c1,0,1.8-1,2.3-3
			c0.2-0.9,0.4-1.7,0.5-2.6c0.1-0.8,0.3-1.8,0.5-2.8c0.2-1.1,0.4-2.4,0.6-3.9c0.2-1.3,0.6-3.2,1.1-5.8
			C362.4,37.2,362.4,35,362.4,32.5z"/>
	</g>
	<g>
		<path class="st0" d="M383.4,47.9c0-1.3-0.1-2.9-0.2-4.7c-0.2-1.9-0.4-4-0.7-6.5c-0.2-1.2-0.3-2.3-0.4-3.2c-0.2,0.9-0.5,2-0.8,3.2
			c0.1,0.5,0.1,1,0.2,1.6c0.3,2.4,0.6,4.6,0.7,6.5c0.2,1.8,0.2,3.4,0.2,4.7c0,0.3,0,0.5,0,0.7c0.3,0,0.7,0.1,1.1,0.1
			C383.4,49.7,383.4,48.9,383.4,47.9z"/>
		<path class="st0" d="M383,53.3l-1.6-0.1l-2,0l-0.1,0c-0.3-0.1-0.8-0.2-1.9-0.3c0,0.1,0,0.3,0,0.4l-0.1,1.2c0,0.3-0.1,0.7-0.1,1.3
			c-0.1,0.6-0.1,1.1-0.2,1.5c-0.1,0.4-0.2,0.9-0.3,1.4c-0.1,0.6-0.3,1-0.4,1.4c-0.2,0.4-0.3,0.7-0.5,1.1c-0.4,0.8-1,1.2-1.6,1.2
			c-0.5,0-0.9-0.1-1.3-0.4c0,0.6,0.3,1.1,0.7,1.4c0.5,0.4,1,0.5,1.6,0.5c0.7,0,1.2-0.4,1.6-1.2c0.2-0.3,0.3-0.7,0.5-1.1
			c0.2-0.4,0.3-0.9,0.4-1.4c0.1-0.5,0.2-1,0.3-1.4c0.1-0.4,0.2-0.9,0.2-1.5c0.1-0.6,0.1-1,0.1-1.3l0.1-1.2c0-0.2,0-0.3,0-0.4
			c1.1,0,1.6,0.2,1.9,0.3l0.1,0l2,0l0.8,0.1C383.2,54.4,383.1,53.9,383,53.3z"/>
		<path class="st0" d="M388.6,58.3c-0.4-2.2-0.5-3.1-0.5-3.5l0.3-1.2l0-0.1c0-1-0.2-2.5-0.7-4.2c-0.2-0.8-0.4-1.4-0.4-1.8
			c-1.5-7.6-2.2-15.3-2.2-22.9c0-0.5-0.2-1.1-1-1.4c0,7.6,0.8,15.2,2.2,22.7c0.1,0.4,0.2,1.1,0.4,1.8c0.5,1.8,0.7,3.2,0.7,4.2l0,0.1
			l-0.3,1.2c0,0.4,0.1,1.2,0.5,3.5c0.4,1.9,0.5,3.2,0.5,3.8c0,1.4-0.6,1.9-1.1,2.1l-0.1,0h-0.1c-0.8,0-1.5-0.1-2-0.4
			c0.1,0.8,0.4,1.3,0.8,1.5c0.5,0.3,1.2,0.5,2.2,0.5h0.1l0.1,0c0.5-0.2,1.1-0.7,1.1-2.1C389.1,61.5,389,60.3,388.6,58.3z"/>
	</g>
	<g>
		<path class="st0" d="M399.1,27.7c0.2,0.6,0.3,1.2,0.4,1.6c0,0.3,0.1,0.6,0.1,1.1c0-0.1,0-0.2,0-0.3c0-1.1,0-1.9-0.1-2.4
			c-0.1-0.5-0.2-1-0.4-1.6c-0.3-1.1-1-1.6-2-1.7l-0.1,0.5c0,0.4,0,1,0,1.5l0.1-0.5C398.1,26.1,398.8,26.6,399.1,27.7z"/>
		<path class="st0" d="M406.2,60.8c-1.4-2.7-2.7-7.2-3.9-13.3l0,0c-0.5-2.7-0.9-4.6-1.1-5.6c1.2-2.2,2-4.1,2.4-5.7
			c0.4-1.5,0.7-3.7,0.7-6.5c0-1.7-0.5-3.1-1.5-4.2c0.3,0.8,0.5,1.7,0.5,2.6c0,2.8-0.2,4.9-0.7,6.5c-0.4,1.5-1.2,3.4-2.4,5.7
			c0.2,1,0.6,2.9,1.1,5.6c1.1,6.1,2.4,10.6,3.9,13.3c0.4,0.8,0.7,1.5,0.7,2c0,0.5-0.2,1-0.4,1.3c-0.3,0.4-0.8,0.6-1.3,0.6
			c-0.5,0-1-0.3-1.5-0.8c0.8,1.6,1.6,2.4,2.5,2.4c0.5,0,1-0.2,1.3-0.6c0.3-0.4,0.4-0.8,0.4-1.3C406.8,62.3,406.6,61.6,406.2,60.8z"
			/>
		<path class="st0" d="M397.8,48.7c0-0.7,0.1-1.5,0.3-2.2c-0.3-1.4-0.5-2.4-0.7-3.1c0,0.2-0.1,0.5-0.2,0.7c-0.3,1.1-0.4,2.1-0.4,3
			c0,0.9,0.1,3,0.4,6c0.2,3.1,0.4,5.1,0.4,6c0,1-0.2,1.7-0.5,2.3c-0.4,0.6-0.9,0.9-1.4,0.9c-0.2,0-0.3,0-0.5-0.1c0,0.1,0,0.1,0,0.2
			c0.2,1.2,0.9,1.5,1.5,1.5c0.5,0,1-0.3,1.4-0.9c0.4-0.5,0.5-1.3,0.5-2.3c0-0.9-0.1-2.9-0.4-6C397.9,51.6,397.8,49.6,397.8,48.7z"/>
	</g>
	<g>
		<path class="st0" d="M415.8,24L415.8,24l-0.5,10.9v1.4c0.3-0.6,0.6-1.4,1.1-2.4l0.4-8.4c0-1-0.4-1.8-1-2.1
			C415.8,23.6,415.8,23.8,415.8,24z"/>
		<path class="st0" d="M423.1,29.2c-1.9,3.2-3.1,5.1-3.3,5.7l-0.1,3.5c0,1.7,0.7,4.9,2.1,9.5c1.4,4.7,2.5,7.8,3.4,9.3
			c0.1,0.1,0.3,0.4,0.6,0.8c-0.8-1.7-1.8-4.5-3-8.5c-1.4-4.6-2.1-7.9-2.1-9.5l0.1-3.5c0.3-0.6,1.4-2.5,3.3-5.7
			c3.1-5.1,3.1-5.1,3.1-5.3c0-0.7-0.3-1.2-0.9-1.5c0,0-0.1,0-0.1,0C426.2,24.1,426,24.4,423.1,29.2z"/>
		<path class="st0" d="M416.2,40.5c-0.4,0.6-0.7,1.2-1,2c-0.4,1.4-0.5,2-0.5,2.2v16.4c0,1.1-0.6,1.8-1.7,1.8c-0.5,0-1-0.1-1.3-0.3
			c0.1,0.5,0.3,1,0.6,1.3c0.4,0.4,1,0.6,1.7,0.6c1.1,0,1.7-0.6,1.7-1.8V46.4c0-0.3,0.1-0.9,0.5-2.2c0.1-0.4,0.3-0.8,0.4-1.1
			C416.5,42.2,416.3,41.3,416.2,40.5z"/>
		<path class="st0" d="M427.8,61.3c-0.2-0.4-0.5-0.9-0.9-1.5c0-0.1-0.1-0.1-0.1-0.2c0,0,0,0,0,0.1c0.2,0.5,0.3,0.9,0.3,1.4
			c0,0.6-0.2,1-0.6,1.4c-0.4,0.4-0.9,0.5-1.4,0.5c-0.7,0-1.5-0.5-2.2-1.4c1.1,2,2.1,3,3.2,3c0.5,0,1-0.2,1.4-0.5
			c0.4-0.4,0.6-0.8,0.6-1.4C428.1,62.3,428,61.8,427.8,61.3z"/>
	</g>
	<g>
		<path class="st0" d="M435.6,25.3c-2.8-0.1-3.7-0.4-4.1-0.7c0,0,0,0.1,0,0.1c0,0.5,0.3,1,1,1.4c0.3,0.2,1,0.5,3.2,0.6
			C435.6,26.2,435.6,25.7,435.6,25.3z"/>
		<path class="st0" d="M444.1,23.8c0,0.6-0.3,1.1-0.8,1.5c-0.5,0.3-1,0.5-1.6,0.5l-2.5-0.4l0,0.3c0,3.7,0.3,9.4,1,16.9
			c0.7,7.5,1,13.3,1,17.1c0,0.6-0.2,1.1-0.7,1.5c-0.4,0.4-0.9,0.6-1.5,0.6h-0.7l0,1.6h1.7c0.6,0,1.1-0.2,1.5-0.6
			c0.4-0.4,0.7-0.9,0.7-1.5c0-3.8-0.3-9.5-1-17.1c-0.7-7.5-1-13.2-1-16.9l0-0.3l2.5,0.4c0.6,0,1.1-0.2,1.6-0.5
			c0.5-0.4,0.8-0.9,0.8-1.5C445.1,24.9,445,24.2,444.1,23.8z"/>
	</g>
	<g>
		<path class="st0" d="M454.3,39.6l0.2-8.9v-2.9c0.5,0,0.9,0.2,1.2,0.4c0,0,0.1,0,0.1,0.1c-0.2-0.8-0.6-1.3-1.1-1.7
			c-0.3-0.2-0.7-0.3-1.2-0.4v2.9l-0.3,11.3C453.6,40.2,453.9,40,454.3,39.6z"/>
		<path class="st0" d="M459.8,26.7c-0.3-0.5-0.6-1-0.9-1.4c0.8,1.7,1.2,3.6,1.2,5.8c0,2.8-0.1,4.6-0.2,5.2c-0.1,0.6-0.3,1.2-0.4,1.8
			c-0.2,0.6-0.4,1.1-0.6,1.5c-0.2,0.4-0.5,0.8-0.9,1.2c-0.4,0.4-0.8,0.8-1.3,1.1c-1,0.6-2.1,1.2-3.4,1.6v6.1l0.5,11.4
			c0,0.6-0.2,1.1-0.6,1.5c-0.4,0.4-0.9,0.6-1.5,0.6h-1c0.1,0.5,0.1,0.9,0.2,1.3l0.1,0.3h1.8c0.6,0,1.1-0.2,1.5-0.6
			c0.4-0.4,0.6-0.9,0.6-1.5l-0.5-11.4v-6.1c1.3-0.4,2.5-1,3.4-1.6c0.5-0.3,0.9-0.7,1.3-1.1c0.4-0.4,0.7-0.8,0.9-1.2
			c0.2-0.4,0.5-0.9,0.6-1.5c0.2-0.6,0.3-1.2,0.4-1.8c0.1-0.7,0.2-2.4,0.2-5.2C461.1,30.5,460.7,28.4,459.8,26.7z"/>
	</g>
	<g>
		<path class="st0" d="M470.4,23.5l-0.4,4.6l0.2,14.5l0,0.1c-0.1,0.4-0.3,1.2-0.3,3.1l-0.2,9.6c0,2.1,0.4,3.3,1.2,3.6
			c-0.1-0.6-0.2-1.2-0.2-2l0.2-9.6c0-1.9,0.2-2.8,0.3-3.1l0-0.1L471,29.7l0.4-4.6c0-0.5-0.2-1-0.6-1.3
			C470.7,23.7,470.6,23.6,470.4,23.5C470.4,23.5,470.4,23.5,470.4,23.5z"/>
		<path class="st0" d="M477.3,61.1C477.3,61.1,477.3,61.1,477.3,61.1c0,0.6-0.2,1.1-0.7,1.4c-0.4,0.3-0.9,0.5-1.4,0.6l-0.1,0l-0.1,0
			c-1.4-0.4-3.1-0.7-5.1-0.7c-1.2,0.7-2.4,0.7-3.2,0.2c0.1,0.4,0.2,0.8,0.5,1.2c0.8,0.9,2.2,1,3.6,0.2c2,0,3.8,0.2,5.1,0.7l0.1,0
			l0.1,0c0.5-0.1,1-0.3,1.4-0.6c0.5-0.4,0.7-0.8,0.7-1.4C478.3,62,478,61.4,477.3,61.1z"/>
	</g>
	<g>
		<path class="st0" d="M492.5,47.9c0-1.3-0.1-2.9-0.2-4.7c-0.2-1.9-0.4-4-0.7-6.5c-0.2-1.2-0.3-2.3-0.4-3.2c-0.2,0.9-0.5,2-0.8,3.2
			c0.1,0.5,0.1,1,0.2,1.6c0.3,2.4,0.6,4.6,0.7,6.5c0.2,1.8,0.2,3.4,0.2,4.7c0,0.3,0,0.5,0,0.7c0.3,0,0.7,0.1,1.1,0.1
			C492.6,49.7,492.5,48.9,492.5,47.9z"/>
		<path class="st0" d="M497.8,58.3c-0.4-2.2-0.5-3.1-0.5-3.5l0.3-1.2l0-0.1c0-1-0.2-2.5-0.7-4.2c-0.2-0.8-0.4-1.4-0.4-1.8
			c-1.5-7.6-2.2-15.3-2.2-22.9c0-0.5-0.2-1.1-1-1.4c0,7.6,0.8,15.2,2.2,22.7c0.1,0.4,0.2,1.1,0.4,1.8c0.5,1.8,0.7,3.2,0.7,4.2l0,0.1
			l-0.3,1.2c0,0.4,0.1,1.2,0.5,3.5c0.4,1.9,0.5,3.2,0.5,3.8c0,1.4-0.6,1.9-1.1,2.1l-0.1,0H496c-0.8,0-1.5-0.1-2-0.4
			c0.1,0.8,0.4,1.3,0.8,1.5c0.5,0.3,1.2,0.5,2.2,0.5h0.1l0.1,0c0.5-0.2,1.1-0.7,1.1-2.1C498.3,61.5,498.1,60.3,497.8,58.3z"/>
		<path class="st0" d="M492.1,53.3l-1.6-0.1l-2,0l-0.1,0c-0.3-0.1-0.8-0.2-1.9-0.3c0,0.1,0,0.3,0,0.4l-0.1,1.2
			c0,0.3-0.1,0.7-0.1,1.3c-0.1,0.6-0.1,1.1-0.2,1.5c-0.1,0.4-0.2,0.9-0.3,1.4c-0.1,0.6-0.3,1-0.4,1.4c-0.2,0.4-0.3,0.7-0.5,1.1
			c-0.4,0.8-1,1.2-1.6,1.2c-0.5,0-0.9-0.1-1.3-0.4c0,0.6,0.3,1.1,0.7,1.4c0.5,0.4,1,0.5,1.6,0.5c0.7,0,1.2-0.4,1.6-1.2
			c0.2-0.3,0.3-0.7,0.5-1.1c0.2-0.4,0.3-0.9,0.4-1.4c0.1-0.5,0.2-1,0.3-1.4c0.1-0.4,0.2-0.9,0.2-1.5c0.1-0.6,0.1-1,0.1-1.3l0.1-1.2
			c0-0.2,0-0.3,0-0.4c1.1,0,1.6,0.2,1.9,0.3l0.1,0l2,0l0.8,0.1C492.3,54.4,492.2,53.9,492.1,53.3z"/>
	</g>
	<g>
		<path class="st0" d="M506.2,25.3c-2.8-0.1-3.7-0.4-4.1-0.7c0,0,0,0.1,0,0.1c0,0.5,0.3,1,1,1.4c0.3,0.2,1,0.5,3.2,0.6
			C506.3,26.2,506.2,25.7,506.2,25.3z"/>
		<path class="st0" d="M514.8,23.8c0,0.6-0.3,1.1-0.8,1.5c-0.5,0.3-1,0.5-1.6,0.5l-2.5-0.4l0,0.3c0,3.7,0.3,9.4,1,16.9
			c0.7,7.5,1,13.3,1,17.1c0,0.6-0.2,1.1-0.7,1.5c-0.4,0.4-0.9,0.6-1.5,0.6H509l0,1.6h1.7c0.6,0,1.1-0.2,1.5-0.6
			c0.4-0.4,0.7-0.9,0.7-1.5c0-3.8-0.3-9.5-1-17.1c-0.7-7.5-1-13.2-1-16.9l0-0.3l2.5,0.4c0.6,0,1.1-0.2,1.6-0.5
			c0.5-0.4,0.8-0.9,0.8-1.5C515.8,24.9,515.6,24.2,514.8,23.8z"/>
	</g>
	<g>
		<path class="st0" d="M523.1,25.6c-0.4,0-0.7-0.1-0.9-0.3c0,0.4,0.2,0.9,0.5,1.2c0.4,0.4,0.8,0.6,1.4,0.6c0,0,0,0,0,0l3.3-0.2
			c0.1-0.6,0.2-1.2,0.2-1.7L523.1,25.6C523.1,25.6,523.1,25.6,523.1,25.6z"/>
		<path class="st0" d="M528.8,60c0,0.6-0.3,1-0.8,1.3c-0.5,0.3-1,0.4-1.6,0.4l-3.6-0.2c-0.1,0-0.4,0-0.9,0.3c-0.5,0.2-1,0.4-1.4,0.4
			c-0.3,0-0.6-0.1-0.9-0.2c0,0.5,0.2,1,0.6,1.3c0.4,0.4,0.8,0.5,1.3,0.5c0.4,0,0.9-0.1,1.4-0.4c0.5-0.2,0.8-0.3,0.9-0.3l3.6,0.2
			c0.6,0,1.1-0.1,1.6-0.4c0.5-0.3,0.8-0.8,0.8-1.4C529.8,61,529.6,60.3,528.8,60z"/>
		<path class="st0" d="M531.9,23.8c-0.1-0.1-0.3-0.2-0.5-0.3c0,0,0,0.1,0,0.1c0,1.4-0.4,3.4-1.3,5.9c-0.9,2.4-1.4,4.4-1.7,5.9
			c-0.3,1.6-0.9,3.9-1.8,6.9c-0.9,3-1.8,5.9-2.5,8.7c-0.7,2.6-1.1,5.1-1.2,7.3h0.6l0.5,0c0.2-1.8,0.6-3.7,1.1-5.7
			c0.7-2.8,1.6-5.7,2.5-8.7c0.9-3,1.5-5.3,1.8-6.9c0.2-1.5,0.8-3.5,1.7-5.9c0.9-2.4,1.3-4.4,1.3-5.9
			C532.4,24.7,532.2,24.2,531.9,23.8z"/>
	</g>
</g>
<path d="M328.7,31.6c-2.9-13.2-12.6-21.1-18-24.6c-0.9-0.5-21.1-13.3-41.2-3c-3.8,1.9-7.1,4.5-10.1,7.6c-8.4,7.1-13.9,17.3-14.6,28
	c-0.5,7.6,1.4,14.2,4,19.5c1.9,7.3,5.7,14.7,13.3,19.9c5.8,4,12.4,5.6,19,5.6c1,0,2,0,3-0.1c2.3,0.4,4.6,0.6,7,0.6
	c8.3,0,16.6-2.5,23.5-8.4c9.6-8.2,12.7-19.6,13.7-27.8C329.7,43.5,330,37.6,328.7,31.6z M259.9,12.2c0.1-0.1,0.2-0.2,0.3-0.2
	c-0.6,0.6-1.1,1.2-1.7,1.8C259,13.2,259.4,12.7,259.9,12.2z M266.7,8.4c6-2.6,12.2-3.5,18-3.5c11.3,0,20.5,3.4,20.6,3.4
	c1.5,0.6,3.1,1.2,4.7,2.1c6.6,4.6,11.8,11,14.9,18.3c0.4,1.8,0.7,3.7,0.9,5.7c0.4,5.2,0,10.2-1,15c-0.9,0-8.6-0.3-9.9-0.3
	c-1.2,0-9.1,5.4-11.6,7.1c0,0-0.1,0-0.1,0.1l-8,7c-0.3,0.3-0.7,0.4-1.1,0.4c-0.4,0-0.8-0.2-1-0.5c-0.5-0.6-0.4-1.6,0.2-2.1l4-3.4
	l0.2-0.2c0.4-0.4,0.6-1,0.4-1.6c-0.2-0.6-0.7-0.9-1.3-0.9h-17.2c-0.5,0-1-0.4-1-1s0.4-1,1-1h0.7c0,0,0,0,0,0h8.7
	c0.9,0,1.7-0.7,1.8-1.6c0-0.5-0.1-1-0.5-1.4s-0.8-0.6-1.3-0.6h-12.1c-0.4,0-0.7-0.3-0.7-0.7v-0.2c0-0.4,0.3-0.7,0.7-0.7h16.2
	c0.9,0,1.7-0.7,1.8-1.6c0-0.5-0.1-1-0.5-1.4s-0.8-0.6-1.3-0.6h-14.1c-0.4,0-0.7-0.3-0.7-0.7s0.3-0.7,0.7-0.7h16.1
	c0.5,0,1-0.2,1.3-0.6c0.3-0.4,0.5-0.9,0.5-1.4c-0.1-0.9-0.9-1.6-1.8-1.6h-12.4c-0.5,0-0.9-0.4-0.9-0.9c0-0.5,0.4-0.9,0.9-0.9h9.8
	c1,0,1.8-0.8,1.8-1.8s-0.8-1.8-1.8-1.8h-17.2c-0.4,0-0.5-0.3-0.6-0.4c0-0.1-0.1-0.4,0.2-0.7l4.1-3.6c1-0.8,1.1-2.3,0.3-3.2
	c-0.4-0.5-1-0.8-1.6-0.8c-0.6-0.1-1.2,0.1-1.7,0.6l-8,6.9c0,0,0,0-0.1,0c-4.4,3.2-9.4,6.5-10.1,6.6h-8.8c0-0.5,0-1,0.1-1.5
	C249.2,34.2,254,14,266.7,8.4z M266.8,7.6c0.7-0.4,1.4-0.7,2-1c6-2.8,11.8-3.7,16.8-3.7c5.8,0,10.5,1.2,13.1,2
	c2.2,0.7,4.2,1.6,6.2,2.6C301.2,6.2,282.9,0.8,266.8,7.6z M315.9,14.4c1,0.8,1.9,1.7,2.9,2.7c1.7,1.8,3.1,3.9,4.1,6.2
	C321,20,318.6,17,315.9,14.4z M273.6,33.7c0.2,0.6,0.7,0.9,1.3,0.9h17.2c0.5,0,1,0.4,1,1s-0.4,1-1,1h-9.8c-0.9,0-1.7,0.7-1.7,1.7
	c0,0.9,0.8,1.7,1.7,1.7h12.4c0.5,0,1,0.4,1,0.9c0,0.3-0.1,0.6-0.3,0.8c-0.2,0.2-0.5,0.3-0.7,0.3h-16.1c-0.8,0-1.5,0.7-1.5,1.5
	s0.7,1.5,1.5,1.5h14.1c0.3,0,0.5,0.1,0.7,0.3c0.2,0.2,0.3,0.5,0.3,0.8c0,0.5-0.5,0.9-1,0.9h-16.2c-0.8,0-1.5,0.7-1.5,1.5v0.2
	c0,0.8,0.7,1.5,1.5,1.5h12.1c0.3,0,0.5,0.1,0.7,0.3c0.2,0.2,0.3,0.5,0.3,0.8c0,0.5-0.5,0.9-1,0.9h-0.1c0,0,0,0,0,0h-9.3
	c-1,0-1.8,0.8-1.8,1.8s0.8,1.8,1.8,1.8h17.2c0.4,0,0.5,0.3,0.6,0.4c0,0.1,0.1,0.4-0.2,0.7l-4.1,3.6c-1,0.8-1.1,2.3-0.3,3.2
	c0.4,0.5,1,0.8,1.6,0.8c0.1,0,0.1,0,0.2,0c0.5,0,1.1-0.2,1.5-0.6l8-6.9c0,0,0,0,0,0c4.9-3.4,10.5-7,11.2-7c1.2,0,8.3,0.2,9.7,0.3
	c-3.4,14-12.7,25.2-25.5,29.4c-15.7,5.2-29.2-2.4-31.8-3.9c-12.1-7.4-19.2-21.2-18.5-35.7h8.8c1.2,0,8.3-5.1,10.5-6.7
	c0,0,0.1,0,0.1-0.1l8-7c0.3-0.3,0.7-0.4,1.1-0.4c0.4,0,0.8,0.2,1,0.5c0.5,0.6,0.4,1.6-0.2,2.1l-4.1,3.6
	C273.6,32.6,273.4,33.2,273.6,33.7z M252.2,24.2c0.6-1.4,1.3-2.7,2-4C253.4,21.5,252.8,22.9,252.2,24.2z M245.6,39.7
	c0.6-8.4,4.1-16.5,9.7-23c-3.6,5.4-6.2,12-7.5,19.5c-0.3,1.6-1.5,9.8,0.1,19.1C246.2,50.8,245.2,45.6,245.6,39.7z M262.5,78.5
	c-6.1-4.2-9.8-10-11.9-15.9c4.1,6.7,9.2,11,10.8,12.2c5.5,4.3,12.2,7.5,19.3,9.2C274.3,83.9,268,82.3,262.5,78.5z M261.9,74.1
	L261.9,74.1c-1.8-1.4-8.1-6.7-12.4-15.2c-1.4-5.6-1.7-11.1-1.6-15.3c0.6,13.4,7.6,25.8,18.9,32.8c2,1.2,10.2,5.8,21,5.8
	c2.6,0,5.3-0.3,8.2-0.9c-3.8,1.3-7.8,2.2-11.9,2.5C276,82.5,268.1,79,261.9,74.1z M314,76.2c-7.8,6.6-17.3,8.8-26.6,8
	c8.3-1.2,16.3-4.7,22.5-9.2c6.9-5,13.3-12.6,16.8-21.5C325.2,60.9,321.7,69.6,314,76.2z M327.4,48.8c-1.7,6.3-4.9,12.1-9,17
	c5.9-8.5,9-19.6,8-31.4c0-0.5-0.1-1-0.2-1.5c0.6,1.9,1,3.8,1.3,5.8C327.6,38.7,328.1,42.9,327.4,48.8z M328.4,38.5
	c-0.5-3.5-1.5-6.8-2.8-10c-1.1-4.7-3.2-8.7-6.2-11.9c-2.9-3.1-6-5.2-9-6.8c-3.5-2.4-7.3-4.4-11.4-5.7c-4.8-1.5-17.3-4.5-30.4,1.7
	c-1.1,0.5-2.2,1.1-3.3,1.8c1.5-1.1,3-2,4.6-2.8c5.6-2.9,11.3-3.9,16.5-3.9c13,0,23.4,6.5,24,6.9c5.4,3.4,14.8,11.2,17.7,24.1
	c0.8,3.6,1,7.1,0.7,10.6C328.6,40,328.4,38.6,328.4,38.5z"/>
</svg>
