<?xml version="1.0" encoding="utf-8"?>
<!-- Generator: Adobe Illustrator 24.3.0, SVG Export Plug-In . SVG Version: 6.00 Build 0)  -->
<svg version="1.1" id="Layer_1" xmlns="http://www.w3.org/2000/svg" xmlns:xlink="http://www.w3.org/1999/xlink" x="0px" y="0px"
	 viewBox="0 0 548.3 85.6" style="enable-background:new 0 0 548.3 85.6;" xml:space="preserve">
<style type="text/css">
	.st0{fill:#999999;}
</style>
<g>
	<path d="M85.2,26.8c-0.3-0.2-0.7-0.3-1.2-0.4l0,2.9l-0.4,11.3c1.1-0.4,2.9-1.3,3.9-3.3c0.7-1.3,0.7-3.2,0.8-5.5
		C88.2,29.3,86.6,27.7,85.2,26.8z M47.1,27.2c-0.6-1.4-1.5-2.1-2.7-2.1h-0.1c-1.8,0-2.8,2.2-2.8,6.5l0.1,3.5l0,5.8
		c0,0.5,0,1.1,0,1.7l0.1,2.6c0,1.1,0.1,2.1,0.2,3.2c0.1,1.1,0.2,2.2,0.3,3.4c0.1,1.2,0.3,2.3,0.5,3.2c0.2,1,0.4,1.9,0.6,2.7
		c0.3,1.1,0.9,2.4,1.7,2.4c1,0,1.7-1,2.3-3c0.9-3.2,1.3-7.1,1.3-11.8l0.1-6.2c0-4.3-0.2-7.2-0.6-8.7C47.8,29.1,47.4,28,47.1,27.2z
		 M114.3,27.2c1.1-2.2,1.2-3.2,1.3-4.1c0.4-3.1-1.9-2.9-2.8-2.8c-0.1,0.2-0.5,0.1-0.7,1.1c0,0.1-0.2,0.7-0.2,0.8
		c-0.1,0.7-0.1,2.2-0.1,2.2l0,7.4C112,31.1,113.9,28,114.3,27.2z M67.6,27.2c-0.6-1.4-1.5-2.1-2.7-2.1h-0.1c-1.8,0-2.8,2.2-2.8,6.5
		l0.1,3.5l0,5.8c0,0.5,0,1.1,0,1.7l0.1,2.6c0,1.1,0.1,2.1,0.2,3.2c0.1,1.1,0.2,2.2,0.3,3.4c0.1,1.2,0.3,2.3,0.5,3.2
		c0.2,1,0.4,1.9,0.6,2.7c0.3,1.1,0.9,2.4,1.7,2.4c1,0,1.7-1,2.3-3c0.9-3.2,1.3-7.1,1.3-11.8l0.1-6.2c0-4.3-0.2-7.2-0.6-8.7
		C68.3,29.1,67.9,28,67.6,27.2z M541.3,10c-4.6-4.5-34.7-2-57.3-1.2c-5.4,0.2-47.2,0-99.7,0c-17.6,0-45.6-0.4-61.4-0.4
		c-0.9,0-1.8,0-2.6,0c4,3.3,7.4,7.5,9.3,12.9c7,20.5,1.1,39.9,0,42.7c-1.5,3.9-4.7,8.7-8.7,13.1c1.4,0,2.7,0,4.1,0
		c62.9-0.3,130.3-1.1,132.7-1.6c8.6-1.6,65.9,3.8,69.8,2.5c3.9-1.3,10,0.5,15-5c3.4-3.8,5.9-26.8,6-31
		C548.4,39.2,545.9,14.4,541.3,10z M365.2,63.2c-0.4,0.3-0.6,0.4-0.9,0.4c-0.1,0-0.1,0-0.1,0c0,0-0.1,0-0.1,0
		c-0.5,0.1-0.9,0.1-1.2-0.1c-0.2-0.1-0.4-0.3-0.5-0.7c0-0.3-0.1-0.6-0.1-0.9l0-1c-0.1-3-0.1-5.4-0.1-7.1c0-1.7,0-4.1,0-7.1
		c0-2.5,0.6-12.1,0.1-12.3c-0.5-0.2-0.5,1.1-0.8,2.3c-0.7,3.4-1.2,6-1.4,7.5c-0.3,1.6-0.5,2.9-0.6,3.9c-0.2,1.1-0.3,2-0.5,2.8
		c-0.1,0.8-0.3,1.7-0.5,2.6c-0.5,2-1.3,3-2.3,3c-1.5,0-2.2-2-2.2-6c-0.2-1.8-0.9-5.7-1.9-11.4c-0.6-3.1-0.5-5.1-1-5
		s-0.2,2.3-0.2,3.4l0.2,23c0,1-0.3,1.8-1,2.5l-0.1,0.1H350c-1.1,0-1.9-0.4-2.4-1.2c-0.4-0.7-0.6-1.7-0.6-2.9l0.2-10l-0.2-23.2
		c0-2.6,0.4-6.6,0.6-8.2c0.2-1.7,2.4-0.8,2.4-0.8c0.9,0.1,1.3,1.4,3.2,10.9c1.1,5.4,2,10.5,2.7,15.1c0.3,2.2,0.6,4,0.8,5.2
		c2.5-14.1,4-24.1,4.6-29.7l0-0.3c0.1-0.7,0.4-1.2,0.9-1.5c1-0.7,2.1-0.6,2.7-0.2c0.6,0.4,0.9,0.9,0.9,1.6c0,4.7,0.1,11.9,0.4,21.3
		c0.3,9.4,0.4,16.6,0.4,21.3C366.5,61.4,366.1,62.5,365.2,63.2z M387,62.4L387,62.4l-0.1,0c-0.9,0-1.6-0.1-2.2-0.4
		c-0.6-0.3-0.9-1.1-1-2.4c0-1-0.4-3.2-1-6.4l-1.6-0.1l-2,0.1l-0.1,0c-0.3-0.1-0.8-0.2-1.9-0.2c0,0.1,0,0.3,0,0.4l-0.1,1.2
		c0,0.3-0.4,3.7-0.5,4.2c-0.1,0.6-0.7,2.2-0.8,2.5c-0.4,0.8-0.9,1.3-1.6,1.3c-0.6,0-1.1-0.1-1.6-0.5c-0.5-0.4-0.8-0.8-0.8-1.4l0-0.1
		c0.9-4,1.7-8.3,2.3-12.8c0.6-4.5,1-7.1,1.1-7.9c0.1-0.8,0.4-2.5,0.9-4.8c0.5-2.4,0.7-4,0.8-4.8c0.1-0.8,0.2-1.8,0.2-3.1
		c0.1-2.9,0.4-4.7,1-5.6l0.1-0.2l2.2-0.1c2-0.1,2.4,0.8,2.5,1.5c0.2,7.7,1.2,15.3,2.9,22.9c0.1,0.4,0.3,1.1,0.5,1.8
		c0.5,1.7,0.8,3.2,0.8,4.2l0,0.1l-0.3,1.2c0,0.4,0.1,1.2,0.6,3.4c0.4,1.9,0.6,3.2,0.6,3.8C388.1,61.6,387.5,62.1,387,62.4z
		 M407.5,62.9c-0.3,0.4-0.8,0.6-1.3,0.6c-1.6,0-2.8-2.2-4-6.9c-0.5-1.9-1.7-4.2-2.1-6.2c-0.7-3.7-2.1-5.6-2.4-6.9
		c0,0.2-0.1,0.5-0.2,0.7c-0.3,1.1-0.4,2.1-0.4,3c0,0.9,0.1,3,0.4,6.1c0.2,3.1-0.1,5.2-0.1,6.1c0,1-0.2,1.7-0.6,2.3
		c-0.4,0.6-0.9,0.9-1.4,0.9c-0.5,0-1.3-0.3-1.5-1.5c0-1.6,0.1-3.4,0.1-5.6c0-2.2,0.3-7,0-14.4c-0.3-7.4-0.5-13-0.5-16.6
		c0-2.7,1.3-3.3,2.4-3.3c2.2,0,4.4,0.4,6.1,1.2c2.2,1,2.9,3.3,2.9,6.1c0,2.8-0.4,4.7-1.3,6.7c-0.6,1.5-1.8,2.8-3,5.1
		c0.2,1,1.2,3,2,5.7c1.8,6.1,3.2,10.8,4.7,13.5c0.4,0.9,0.7,1.5,0.7,2C408,62,407.8,62.5,407.5,62.9z M428.4,61.8
		c-0.4,0.4-0.9,0.6-1.4,0.6c-1.1,0-2.2-1-3.4-3.1c-1.1-2-2.1-4.4-3-7.2c-1.4-4.5-3.1-5.9-3.9-9.3c-0.4,0.6-0.1,7.9-0.2,6l0,12.1
		c0,1.1-0.5,1.8-1.6,1.8c-0.7,0-1.3-0.2-1.7-0.6c-0.5-0.4-0.7-0.9-0.7-1.6l-0.7-18.2c-0.1-2.2,0-5.5,0.2-9.8
		c0.2-4.3,0.3-7.5,0.2-9.7l0-0.2c0.5-1.1,1.3-1.4,1.8-1.4c0.6,0,1.3-0.1,1.7,0.3c0.5,0.4,0.6,1.2,0.6,2.1l0,0l-0.1,10.9l0.1,1.4
		c0.3-0.7,0.7-1.8,1.4-3.3c4.8-11.4,5.7-11.4,6.3-11.4c0.6,0,1.3,0.1,1.8,0.4c0.6,0.3,0.9,0.8,1,1.5c0,0.2,0,0.2-2.9,5.4
		c-1.8,3.3-3.8,8.9-4.1,9.4l1,2.8c0.1,1.7,0.8,1.9,2.3,6.5c1.5,4.6,2.8,7.7,3.7,9.1c0.1,0.2,0.4,0.5,0.8,1c0.4,0.6,0.8,1,1,1.5
		c0.2,0.4,0.3,0.9,0.4,1.4C429,60.9,428.8,61.4,428.4,61.8z M445.6,24c0,0.6-0.1,1-0.6,1.3c-0.5,0.3-1.3,0.3-1.9,0.2l-4,0l-0.1,0.3
		c-0.1,3.7,0,9.4,0.5,16.9c0.4,7.6,0.6,13.3,0.4,17.1c0,0.6-0.3,1.1-0.7,1.5c-0.4,0.4-1,0.6-1.6,0.6l-1.3-0.2
		c-0.3,0-0.5-0.3-0.5-0.5l0-5l-0.1-2.1c-0.1-0.5,0.2-2.8-0.1-13.6c-0.2-8-0.3-13.1-0.3-15.3c-2.9-0.2-5.3,0.1-5.7-0.1
		c-0.6-0.5-0.4-1.7-0.4-2.2c0-0.4,0.2-0.9,0.9-1.3c0.5-0.3,1-0.4,1.5-0.4l9.2,0.2l4.3,0C445.8,21.5,445.6,23.3,445.6,24z
		 M460.8,35.6c-0.1,0.6-0.3,1.2-0.4,1.8c-0.2,0.6-0.4,1.1-0.6,1.5c-0.2,0.4-0.5,0.8-0.9,1.2c-0.4,0.4-0.8,0.8-1.3,1.1
		c-1,0.6-2.1,1.2-3.4,1.6V49l0.5,11.4c0,0.6-0.2,1.1-0.6,1.5c-0.4,0.4-0.9,0.6-1.5,0.6h-1.8l-0.1-0.3c-0.2-1.1-0.4-2.8-0.4-5
		l-0.1-15.3l0.2-6.8l0.1-5.7c0-2.3-0.2-4.2-0.5-5.5l0-0.1l0-0.1c0.1-0.5,0.3-1.1,0.6-1.6c0.4-0.7,1-0.8,1.4-0.8h2.6
		c2.4,0,4.2,1,5.2,3.1c0.8,1.7,1.3,3.8,1.3,6C461.1,33.2,461,34.9,460.8,35.6z M478,60.6c0,0.6-0.2,1-0.7,1.4
		c-0.4,0.3-0.9,0.5-1.4,0.6l-0.1,0c0,0-2.2,0-5.5-0.3c-1.8,0.1-2.6,0.4-3.3-0.6c-0.4-0.5-0.6-1-0.6-1.6l0.6-27.2
		c-0.1-1.2-0.2-3.1-0.2-5.6c0-4.1,0.8-6.1,2.5-6.1c0.5,0,1,0.2,1.3,0.5c0.4,0.4,0.6,0.8,0.6,1.3l-0.4,4.6l0,11.2v4.4
		c-0.1,0.4-0.2,1.8-0.2,3.8l0.1,8.4c0,2.5-0.1,3.5,1,3.5l2.7-0.3c0,0,1.3,0.1,1.3,0.1C478.1,58.5,478,59.2,478,60.6z M497.4,62.1
		L497.4,62.1l-0.1,0c-0.9,0-2.3,0.5-2.6-0.1c-0.4-0.9-0.5-1.4-0.6-2.6c0-1-0.4-3.2-1-6.4l-1.6-0.1c0,0-2.9-0.2-4-0.2
		c0,0.1-0.3,4-0.4,4.4c-0.1,0.4-0.9,3.6-1.1,3.9c-0.4,0.8-0.2,1.2-0.9,1.2c-0.6,0-1.9-0.1-2.3-0.4c-0.5-0.4-0.9-0.5-0.9-1.1l0.1-0.5
		c0.9-4,1.7-8.3,2.3-12.8c0.6-4.5,1-7.1,1.1-7.9c0.1-0.8,0.4-2.5,0.9-4.9c0.5-2.4,0.7-4,0.8-4.8c0.1-0.8,0.1-1.8,0.2-3.1
		c0.1-2.9,0.4-4.7,1-5.6l0.1-0.2l2.2-0.1c2-0.1,2.5,0.8,2.5,1.5c0.3,7.7,1.3,15.3,3,22.8c0.1,0.4,0.3,1.1,0.5,1.8
		c0.5,1.7,0.8,3.2,0.9,4.2l0,0.1l-0.3,1.2c0,0.4,0.2,1.2,0.6,3.4c0.4,1.9,0.8,3.9,0.8,4.5C498.7,62,498,61.8,497.4,62.1z
		 M515.7,25.1c-0.5,0.3-1,0.5-1.6,0.4l-3.4,0l-0.1,0.3c-0.2,3.7-0.4,9.4-0.2,16.9c0.3,7.6,0.3,13.3,0.1,17.1c0,0.6-0.1,1.6-0.7,1.9
		c-1.1,0.5-2.3,0.5-2.9,0.3c-0.3-0.1-0.4-0.6-0.4-0.6l0.2-5.4l0.2-2c-0.1-0.5-0.1-9.8,0-14.7c0.1-8-0.3-12.1-0.2-14.2
		c-2.9-0.2-5.1-0.1-5.6,0c-1,0.2-1-0.5-0.9-1c0-0.4-0.3-1.9,0.4-2.2c0.5-0.3,1.3-0.3,1.7-0.3l11.2,0l0.9,0c2,0.1,2.2,1.2,2.2,1.9
		C516.5,24.2,516.2,24.7,515.7,25.1z M531.4,22.8c0,1.4-0.4,3.4-1.3,5.9c-0.9,2.4-1.4,4.4-1.7,5.9c-0.3,1.6-0.9,3.9-1.8,6.9
		c-0.9,3-1.8,5.9-2.5,8.7c-0.7,2.6-1.1,5.1-1.2,7.3h0.6l3.6,0.1c2.3,0,2.8,1,2.8,1.8c0,0.6-0.3,1.1-0.8,1.4c-0.5,0.3-1,0.4-1.6,0.4
		c0,0-6.5,0.3-6.9,0.3c-0.4,0-0.9-0.2-1.3-0.5c-0.4-0.4-0.6-0.9-0.6-1.5c0-0.5,0.1-1.3,0.3-2.3c0.2-1,0.6-2.2,1-3.7
		c0.4-1.5,0.8-2.5,0.9-3.1c0.2-0.6,0.5-2,0.9-4c0.4-2.1,0.8-3.7,1.1-4.8c0.3-1.1,0.8-2.9,1.6-5.2c1.7-5,2.7-8.9,2.9-11.7l-3.8,0.1
		c0,0-2.1,0.1-2.1,0.1c-0.6,0-0.5,0-0.8-0.4c-0.4-0.4-0.2-1-0.2-1.6c0-1.4,2.6-2.1,7-2.1h0.2c1.7,0,3,0.4,3.4,0.9
		C531.5,22,531.4,22.3,531.4,22.8z M491.9,43.3c-0.2-1.8-0.5-4-0.9-6.4c-0.2-1.2-0.3-1.9-0.5-2.7c-0.2,1-0.5,1.8-0.8,3.2
		c-1.2,5.4-1.7,9.6-1.7,12.5c0.5,0.2,1.6-0.1,4.4,0c-0.1-0.6-0.1-1.5-0.2-2.5C492.2,46,492.2,45.1,491.9,43.3z M400.5,26.3
		c-0.6-0.9-2-2-3.1-2.1l-0.1,0.5c0,1.6,0.1,4,0.1,7.1c0.1,2.6,0.1,4.7,0.1,6.1c0.6-0.6,1.2-1.5,2.1-2.8
		C400.9,33.2,403.3,30.9,400.5,26.3z M455.7,25.7c-0.3-0.2-0.7-0.3-1.2-0.4v2.9l-0.3,11.3c1.9-0.7,3.4-3.6,3.4-9.3
		C457.5,28,456.6,26.3,455.7,25.7z M113.4,53.4c-0.7-1.4-1.3-3-1.8-4.9c-0.6-2.2-1.1-4.9-1.7-8.1c-1.7,3.1-2.5,6.6-2.5,10.6
		c0,2.9,0.8,5.2,2.3,6.8c0.9,0.9,1.9,1.3,3.1,1.3c0.6,0,1.3-0.2,2.1-0.5c0.7-0.2,1.2-0.5,1.6-0.8c-0.2-0.2-0.5-0.6-1-1.1
		C114.9,55.9,114.1,54.8,113.4,53.4z M381.6,43c-0.2-1.8-0.5-4-0.9-6.5c-0.2-1.2-0.4-2.3-0.5-3.2c-0.2,1-0.5,2.2-0.8,3.6
		c-1.2,5.4-1.8,9.6-1.8,12.5c0.5,0.2,1.8,0.5,4.5,0.6c-0.1-0.6-0.1-1.4-0.2-2.4C381.9,46.5,381.8,44.9,381.6,43z M242.6,57.1
		c-6.1-19.4,3.5-36.3,4.7-38.3c3-4.8,6.8-8.9,11.1-12.1c-67-0.9-207-3.2-217.4-2.2C27.1,5.8,9,6.5,5.4,8.6c-5,3-4.2,22-5.2,29.3
		c-1,7.3,2.2,21.8,4,30C6,76,16.6,77.8,25.6,77c2.8-0.3,67.4,0.9,101.9,0.8c19.2,0,59.4-1.8,76.6-2c11.7-0.1,29.5,0.3,50.7,0.7
		C249.3,71.5,245.1,65.1,242.6,57.1z M33.1,21.8c-0.4,0.3-0.9,0.4-1.6,0.4c-0.6,0-1.3-0.7-1.7-1.1l-1.2-0.3c-2.7,0-4.6,1.6-5.7,3.8
		c-0.7,1.3-0.9,2.7-0.9,4.8l-0.3,7.8c0,2-0.4,5.7,0,11.1c0.5,6.6,1,8.6,1.3,9.1c0.8,1.2,2,1.8,3.8,1.9c1.8,0,3.1-0.5,4-1.5l0.1-0.1
		l0.2,0c0.6,0,1.2-0.1,1.8-0.2l0.5-0.2l0,1.3c0,1.3-0.4,2.4-1.2,3.2c-1.2,1.4-3.2,2-5.8,2c-1.4,0-2.8-0.5-4.2-1.5
		c-1.3-1-2.4-2.2-3-3.7c-0.7-1.5-1.1-5.2-1.4-11.3c-0.3-6-0.2-7.6-0.2-10.8c0.1-3.2,0.2-7.8,0.2-8.4c0.1-2.6,1.6-7.1,3.6-8.6
		c1.9-1.5,5-2.7,7.8-2.6c1,0,2,0.3,3,0.9c1,0.6,1.9,1.7,1.9,2.8C33.9,20.9,33.5,21.5,33.1,21.8z M52.7,45.8
		c0,11.7-2.5,17.6-7.4,17.6c-4.6,0-7.1-5.5-7.7-16.7c0-1-0.1-2.1-0.1-3.1l0-4.8c0-8.7,1.3-13.9,3.9-16c0.7-0.5,1.4-0.8,2.2-0.9
		l0.1,0c0,0-1.4,0.4,0.1,0c1.5-0.4,3.6,0.3,4,0.5c0.8,0.4,1.6,1.5,2.5,3c0.9,1.4,1.9,4.3,2.2,6.7C53.4,38.8,52.7,45.8,52.7,45.8z
		 M73.2,45.8c0,11.7-2.5,17.6-7.4,17.6c-4.6,0-7.1-5.5-7.7-16.7c0-1-0.1-2.1-0.1-3.1l0-4.8c0-8.7,1.3-13.9,3.9-16
		c0.7-0.5,1.4-0.8,2.2-0.9l0.1,0l0.1,0c0.6,0.2,4.4-0.2,6.4,3.8c0.8,1.5,1.5,3.4,1.9,5.7c0.4,2.3,0.6,4.7,0.6,7.1V45.8z M91.3,36.7
		c-0.1,0.6-0.2,1.3-0.5,1.8c-0.9,2.2-3.1,3.3-3.9,3.8c-1,0.6-2.1,1.1-3.5,1.6L83.4,50l0.3,11.4c0,0.6-0.2,1.1-0.7,1.5
		c-0.4,0.4-0.9,0.6-1.6,0.6l-1.8,0l-0.1-0.3c-0.2-1.1-0.3-2.8-0.3-5l0-15.3l0.3-6.8l0.1-5.7c0-2.3-0.1-4.2-0.4-5.5l0-0.1l0-0.1
		c0.1-0.5,0.3-1.1,0.6-1.6c0.4-0.7,1-0.8,1.4-0.8l2.6,0c2.4,0,4.2,1.3,5.7,2.9c1.6,1.7,1.9,4,1.9,6.2C91.7,34.3,91.5,36,91.3,36.7z
		 M128.2,43.5c-0.2,1.3-1.1,1.5-3.6,1.5l-1.3,0.1c0,1,0.2,4.1-0.8,7.3c-0.7,2.4-1.3,3.9-1.7,4.8c1.1,1,2.2,1.6,3.4,1.6
		c0,0,2-0.4,3-0.3c0.9,0.1,1,1.2,1,1.2v0.2c0,1.2-0.6,1.7-1,1.9c-0.6,0.3-1.4,0.4-2.4,0.4c-1.9,0-3.8-0.7-5.8-2.2
		c-2.1,1.5-4.1,2.2-6,2.2c-1.9,0-3.5-0.5-4.9-1.6c-1.3-1.1-2.7-2.2-3.5-3.7c-0.7-1.5-1-3.1-1-4.7c0-1.6-0.1-3.3,0.1-4.7
		c0.2-1.4,0.7-2.8,1.2-4.3c0.7-2,2.5-4.9,4.3-8.6l-0.4-8.1l0.1-4.7c0.1-3.2,3.6-5.9,6.4-5.3c3.9,0.9,4,5.5,3.7,7.2
		c-0.6,2.8-3,7.3-3.8,8.5c-0.3,0.5-1.3,1.9-1.6,2.3c-0.8,1.1-0.9,1.3-0.9,1.3s0.7,5.3,2.2,10.2c1.3,4.3,2.4,7.2,3.4,8.6
		c1-2.7,1.5-6,1.5-9.8c-0.6-0.1-1.5-0.5-1.8-1.2l0.3-2h0.4c1,0,2.3-0.1,3.9-0.2c1.6-0.1,2.7-0.3,3.3-0.5l0.1,0l0.1,0
		C127.6,41.3,128.4,42,128.2,43.5z M154,22.1c-0.5,0-3-3.1-4.9-2.1c-1.4,0.8-1.8,1.3-2.1,2.8c-0.1,0.3-0.1,0.6-0.1,1
		c0,1.5,0.2,3.1,0.7,4.6c0.4,1.6,1,3.1,1.6,4.5c0.6,1.4,1.3,2.8,1.9,4c0.6,1.2,1.2,2.2,1.6,3c0.7,1.3,1.1,3.1,1.4,4.2l0.8,2.6
		c0.5,1.8,0.7,3.4,0.7,4.9c0,1.5-0.2,2.9-0.5,4.2c-0.3,1.3-0.9,2.6-1.5,3.7c-0.7,1.2-1.6,2.2-2.7,2.9c-1.1,0.8-2.2,1.1-3.2,1.1
		c-1,0-1.8-0.1-2.4-0.2c-0.7-0.1-1.4-0.3-2-0.7c-0.8-0.4-1.2-0.9-1.2-1.6c0-0.1-0.2-2.8-0.2-2.8s0.7-3.5,2.6-1.3
		c1.9,2.1,3.3,1.6,3.9,0.9c0.6-0.7,1-1.6,1.3-2.7c0.6-2.1,0.9-4,0.9-5.6c0-1.6-0.3-3.2-0.8-4.8c-0.5-1.6-1.2-3.1-2-4.5
		c-0.8-1.4-1.6-2.8-2.4-4.3c-1.9-3.5-2.9-6.9-2.9-10.3c0-2.1,0.4-4,1.1-5.6c0.6-1.3,1.2-2.2,1.9-2.9c0.1-0.1,0.3-0.3,0.4-0.4
		c1.1-1,2.5-1.5,4-1.5c0.3,0,0.5,0,0.8,0.1c1.7,0,2.9,0.6,3.5,1c0.8,0.6,2.6,3,2.6,3.7C156.7,21.6,155.3,22.1,154,22.1z M173.5,62
		c-0.4,0.2-0.8,0.4-1.4,0.4c-0.5,0-1-0.1-1.5-0.4c-0.7-0.4-0.8-0.9-0.8-1.3c-0.2-4-0.3-8.9-0.3-14.7l0-2.1c-0.3,0-0.6,0-1,0
		l-3.4,0.1l-0.1,5.9l0.5,9.9c0,0.7-0.2,1.3-0.5,1.7c-0.3,0.5-0.9,0.8-1.6,0.8c-1,0-1.7-0.8-2-2.5c-0.3-1.5-0.5-3.5-0.5-6l0.2-12.6
		l0.1-3.5L160.8,24c0-0.6,0.2-1.1,0.6-1.5c0.4-0.4,0.9-0.7,1.5-0.7c0.9,0,2,0.2,2.1,1.2c0.1,0.9,0.2,1.7,0.2,2.8v0l-0.1,15
		c0.7,0.1,1.5-0.1,2.7-0.1h1.9v-0.9c0-1.8-0.1-4.6-0.4-8.2c-0.3-3.7-0.4-6.5-0.4-8.3c0-0.6,0.2-1,0.6-1.4c0.4-0.4,0.8-0.5,1.2-0.5
		c0.2,0,0.5,0,0.6,0c0.2,0,0.4,0,0.6,0c0.2,0,0.4,0.1,0.6,0.2c0.4,0.2,0.6,0.8,0.6,1.7c0,4.2,0.2,10.5,0.6,18.9
		c0.4,8.3,0.6,14.7,0.6,18.9C174.2,61.3,173.9,61.7,173.5,62z M194.7,62.3L194.7,62.3l-0.1,0c-0.9,0-2.1,0.1-2.6-0.3
		c-0.2-0.2-0.5-1.2-0.5-2.5c0-1-0.4-3.4-1.1-6.6l-1.5,0.1c0,0-2.9-0.2-4-0.2c0,0.1-0.2,2.3-0.2,2.9c-0.1,0.6-0.7,4-0.8,4.3
		c-0.1,0.4-0.3,0.7-0.5,1.1c-0.4,0.8-0.3,1.3-1,1.3c-0.6,0-1.9,0-2.5,0.1c-0.8,0.1-0.6-0.7-0.7-1.3l0.1-0.8c0.9-4,1.7-8.3,2.3-12.8
		c0.6-4.5,1-7.1,1.1-7.9s0.4-2.5,0.9-4.9c0.5-2.4,0.7-4,0.8-4.8c0.1-0.8,0.2-1.8,0.2-3.1c0.1-2.9,0.4-4.7,1-5.6l0.1-0.2l2.2-0.1
		c2-0.1,2,0.4,2.1,1.5c1.1,7.6,1.6,15.3,3.3,22.8c0.1,0.4,0.3,1.1,0.5,1.8c0.5,1.7,0.8,3.2,0.9,4.2l0,0.1l-0.3,1.2
		c0,0.4,0.1,1.2,0.6,3.4c0.4,1.9,0.6,3.2,0.7,3.8C195.8,61.5,195.2,62.1,194.7,62.3z M214.6,63.2c-0.3,0.4-0.8,0.6-1.3,0.6
		c-1.6,0-2.8-2.2-4-6.9c-0.5-1.9-1.7-4.2-2.1-6.2c-0.7-3.7-2.1-5.6-2.4-6.9c0,0.2-0.1,0.5-0.2,0.7c-0.3,1.1-0.4,2.1-0.4,3
		c0,0.9,0.1,3,0.4,6.1c0.2,3.1-0.1,5.2-0.1,6.1c0,1-0.2,1.7-0.6,2.3c-0.4,0.6-0.9,0.9-1.4,0.9c-0.5,0-1.3-0.3-1.5-1.5
		c0-1.6,0.1-3.4,0.1-5.6c0-2.2,0.3-7,0-14.4c-0.3-7.4-0.5-13-0.5-16.6c0-2.7,1.3-3.3,2.4-3.3c2.2,0,4.4,0.4,6.1,1.2
		c2.2,1,3.1,3.5,3.1,6.3c0,2.8,0,3.9-1.5,6.5c-0.8,1.4-1.8,2.8-3,5.1c0.2,1,1.2,3,2,5.7c1.8,6.1,3.2,10.8,4.7,13.5
		c0.4,0.9,0.7,1.5,0.7,2C215.1,62.4,214.9,62.8,214.6,63.2z M222.5,28.3l-0.3,8.6c0,0,0,0.2,0.1,0.5l1.8-0.1c0,0,0,0,0,0
		c2.7,0,3.3,1.1,3.3,2c0,0.7-0.2,1.3-0.6,1.8c-0.4,0.5-3,0.6-3.5,0.3h-1c0.1,1.4,0.1,2.7,0.1,4l-0.3,10.9c0,3,1.3,3,1.8,3l2.4-0.1h0
		c2.2,0,2.7,1,2.7,1.8c0,0.7-0.3,1.3-1,1.7c-0.6,0.3-1.2,0.5-2,0.5h-5.7c-0.6,0-1.1-0.2-1.6-0.6c-0.4-0.4-0.7-1-0.7-1.6
		c0-0.6,0-1.3,0.1-2.1c0.1-0.8,0.2-1.4,0.2-1.9l-0.3-7.7l0.4-17.5l-0.3-5c0-3.1,1-4.6,2.9-4.6c0.5,0,4.4,0,4.7,0.1
		c0.5,0.1,1,0.2,1.5,0.3c1.3,0.4,2,1,2,2c0,1-0.6,1.6-0.6,1.6s-0.3,0.5-1.7,0.6c-1.3,0.1-4.4-0.4-4.6-0.4
		C222.5,26.9,222.5,27.6,222.5,28.3z M207.5,26.6c-0.6-0.9-2-2-3.1-2.1l-0.1,0.5c0,1.6,0.1,4,0.1,7.1c0.1,2.6,0.1,4.7,0.1,6.1
		c0.6-0.6,1.2-1.5,2.1-2.8C208,33.6,210.4,31.2,207.5,26.6z M328.9,31.8c-3-13.3-12.6-21.2-18.1-24.7c-0.9-0.5-21.2-13.4-41.4-3
		c-3.8,1.9-7.2,4.5-10.1,7.6c-8.4,7.1-13.9,17.4-14.6,28.2c-0.5,7.7,1.4,14.2,4,19.6c1.9,7.3,5.8,14.8,13.4,20
		c5.8,4,12.4,5.7,19.1,5.7c1,0,2,0,3-0.1c2.3,0.4,4.6,0.6,7,0.6c8.4,0,16.7-2.5,23.6-8.4c9.6-8.2,12.8-19.6,13.7-27.9
		C329.9,43.7,330.2,37.8,328.9,31.8z M269.9,5.1c19.6-10,39.4,2.4,40.2,2.9c5.3,3.4,14.7,11.1,17.6,24c0.4,2,0.7,3.9,0.8,5.9
		c-0.5-3.2-1.4-6.3-2.7-9.3c-1.1-4.8-3.2-8.7-6.3-12c-2.9-3.2-6.1-5.3-9.1-6.8c-3.5-2.4-7.3-4.4-11.5-5.7
		c-4.7-1.5-16.8-4.3-29.7,1.3C269.5,5.3,269.7,5.2,269.9,5.1z M302.2,6.6c-6-1.6-19-4.2-31.5-0.5c5.3-2.2,10.5-2.9,14.9-2.9
		c5.8,0,10.5,1.2,13,2C299.9,5.6,301,6.1,302.2,6.6z M266.8,8.8c5.9-2.6,12.2-3.4,17.9-3.4c11.3,0,20.4,3.4,20.5,3.4
		c1.5,0.6,3,1.2,4.6,2.1c6.6,4.6,11.7,10.9,14.8,18.2c0.4,1.5,0.6,3.1,0.8,4.8c-0.9,0-4.3-0.1-5.4,0.2c-1.3,0.4-10.1-0.2-10.1-0.2
		s-7.9-0.1-9.3-0.1s-5.6,0.1-5.6,0.1c-0.1,0.2-0.2,0.5-0.4,0.7c-0.4,0.4-0.8,0.6-1.3,0.6h-0.5c0,0,0,0,0,0H283
		c-0.4,0-0.7,0.4-0.7,0.9c0,0.5,0.4,1,0.7,1h12.4c0.5,0,1.1,0.1,1.4,0.4c0.4,0.3,0.5,0.9,0.5,1.4c0.1,0.6,0,1.2-0.4,1.6
		c-0.4,0.4-1,0.5-1.5,0.5c0,0-4.7-0.1-5.4-0.1c-2.4-0.1-5.6,0-5.6,0s-1.5-0.1-3.2,0c-0.7,0-1.6,0-1.6,0c-0.3,0-0.8,0.6-0.8,1
		c0,0.5,0.3,0.9,0.6,0.9c0,0,2.8,0.2,4.2,0.1c0.8-0.1,4.5,0,5.4-0.1s4.6,0,4.6,0c0.6,0,1.1,0.2,1.5,0.6c0.3,0.4,0.6,1,0.6,1.5
		c-0.1,1.1-1.1,1.8-2.1,1.8c0,0-1.8-0.1-3.1,0c-3.3,0.3-6.2-0.1-7.3,0c-1,0.1-5.8,0-5.8,0c-0.3,0-0.6,0.3-0.6,0.7v0.2
		c0,0.4,0.3,0.8,0.6,0.8l3.2,0c0,0,1.2,0,2.1,0c0.9,0,3.3-0.1,4.2-0.1s2.7,0.1,2.7,0.1c0.5,0,1.1,0.2,1.4,0.6c0.4,0.4,0.6,1,0.5,1.6
		c-0.1,1.1-1,1.9-2,1.9l-5.3,0.1c0,0-3.5-0.1-3.5-0.1h-0.3c-0.3,0-0.6,0.2-0.8,0.6c0,0,0,0,0.1,0c0,0.1-0.1,0.2-0.1,0.3
		c0,0,0,0,0,0.1l0,0.8c0.1,0.6,0.7,0.9,1.2,1l6.5-0.1l5.6,0.3l0,0h4.3c0.9,0,1.4,1.2,0.7,1.8l-0.2,0.2l-3.4,2.9
		c-0.8,0.7-1.2,2.2-0.6,3c0.3,0.4,0.9,0.9,1.4,1c0.6,0.1,1.2-0.2,1.6-0.5l4.7-3.8l3.3-3.2l0,0c0,0,2.3-1.7,4.7-3.3
		c2.4-1.7,4.7-3,5.3-3c0.7,0,4.3-0.3,6.8-0.3c1.5,0,2.7,0,3.3,0C321.2,64,311.9,75.4,299,79.6c-15.6,5.2-29.1-2.4-31.6-3.9
		c-8.4-5.2-14.4-13.4-17-22.9c0.7-0.1,2.6-0.2,5.5-0.2c2.6,0,6-0.2,8.9-0.1c2,0,4.3-0.1,6.1,0c3.8,0.1,6.4,0.2,6.7,0.2
		c0.2,0,0.4,0,0.7,0c0.2-0.9,1-1.6,1.9-1.6l2.8,0.1l2.9-0.1l2.9,0.1c0,0,0.6-0.1,0.6-0.1c0.5,0,0.8-0.4,0.9-0.9
		c0-0.3-0.1-0.5-0.2-0.7c-0.2-0.2-0.7-0.4-0.9-0.4c0,0-1.5,0.1-2.5,0c-1-0.1-5.9,0-5.1,0s-4.2,0-4.2,0c-0.9,0-1.7-0.9-1.7-1.9v-0.2
		c0-1,0.8-1.8,1.7-1.8c0,0,4.7-0.1,5.6,0s5.6,0,5.6,0h4.9c0.5,0,0.9,0,1-0.5c0-0.3,0.1-0.8-0.1-1c-0.1-0.2-0.6-0.3-0.8-0.3
		c0,0-1.7,0-2.8,0s-11.3,0-11.3,0c-0.6,0-1.1-0.4-1.4-0.9c-0.2-0.3-0.3-0.7-0.3-1.1c0-0.4,0-0.7,0.2-1c0.3-0.5,0.9-0.8,1.5-0.8h16.1
		c0.2,0,0.5,0.1,0.7-0.1c0.2-0.2,0.3-0.9,0.3-1.2c0-0.5-0.6-0.5-1-0.5H283c-1,0-1.8-0.9-1.8-2.1c0-1.1,0.8-2,1.8-2h8.8c0,0,0,0,0,0
		h1.2c0.6-0.1,1.1-0.7,1.1-1.4v0c0-0.8-0.6-1.4-1.4-1.4l-6.1-0.3l-5.3,0.3l-2.3-0.1l-2.7,0.1c-0.9,0-2-0.4-1.3-1l0.6-0.6L278,28
		l1-1.2c0.8-0.7,1.2-2.2,0.6-3c-0.7-0.8-2.2-1.1-3-0.5l-7.9,6.6l-0.9,0.8c0,0-1.4,1.5-3.8,3c-2.3,1.5-4.7,2.7-5.3,2.7
		c-0.7,0-3.6-0.2-6-0.2c-1.4,0-2.7,0.1-3.3,0.2c0.5-2.5,1.7-7.1,3.9-12C255.7,18.9,260.1,11.7,266.8,8.8z M248.1,36.5l-0.5-0.1
		c-0.3,1.5-1.3,8.6-0.2,17c-1.3-4-2-8.5-1.6-13.5c0.5-7.4,3.3-14.4,7.7-20.4c-2.8,4.9-4.8,10.6-5.8,16.8L248.1,36.5
		C248.1,36.5,248.1,36.5,248.1,36.5z M262.6,78.5c-5-3.5-8.8-8.2-11.2-14.2c3.9,5.9,8.4,9.6,9.9,10.8c5,3.9,11.1,7,17.5,8.8
		C273.1,83.5,267.6,81.9,262.6,78.5z M262,74.1c-1.8-1.4-8.2-6.8-12.4-15.3c-0.4-1.6-0.7-3.2-1-4.9c-0.3-2.1-0.5-4.2-0.5-6.1
		c1.7,11.9,8.4,22.6,18.6,28.9c2,1.2,10.3,5.9,21.1,5.9c1.6,0,3.2-0.1,4.8-0.3c-2.8,0.8-5.7,1.3-8.5,1.5C276,82.5,268.2,79,262,74.1
		z M313.9,76.2c-7.2,6.2-16,8.5-24.7,8.1c7.7-1.4,15-4.8,20.8-8.9c6.4-4.6,12.3-11.5,16-19.5C324.2,62.8,320.8,70.4,313.9,76.2z
		 M327.2,48.9c-1.3,4.7-3.4,9.2-6.1,13.2c4.2-7.7,6.3-16.9,5.7-26.6c0.3,1.1,0.5,2.2,0.6,3.3C327.4,38.9,327.9,43.1,327.2,48.9z
		 M189.7,47.5c0-1.3-0.3-2.6-0.5-4.5c-0.2-1.8-0.5-4-0.9-6.4c-0.2-1.2-0.4-1.6-0.5-2.5c-0.2,1-0.5,1.5-0.8,2.9
		c-1.2,5.4-1.7,9.6-1.7,12.5c0.5,0.2,1.7-0.1,4.4,0.1C189.6,49,189.7,48.5,189.7,47.5z"/>
	<path class="st0" d="M380.6,38.1c0.1-0.3,0.1-0.6,0.2-0.9c0-0.2-0.1-0.4-0.1-0.7c-0.2-1.2-0.4-2.3-0.5-3.2c-0.2,1-0.5,2.2-0.8,3.6
		c-1.2,5.4-1.8,9.6-1.8,12.5c0.2,0.1,0.6,0.2,1.2,0.3C378.9,47,379.5,43.2,380.6,38.1z M381.2,53.1l-2,0.1l-0.1,0
		c-0.3-0.1-0.8-0.2-1.9-0.2c0,0.1,0,0.3,0,0.4l-0.1,1.2c0,0.3-0.4,3.7-0.5,4.2c-0.1,0.6-0.7,2.2-0.8,2.5c-0.4,0.8-0.9,1.3-1.6,1.3
		c-0.6,0-1.1-0.1-1.6-0.5c-0.5-0.3-0.7-0.8-0.8-1.3l0,0.1c0,0.6,0.3,2.5,0.8,2.8c0.5,0.3,1,0.5,1.6,0.5c0.7,0,1.5-0.3,1.9-1.1
		c0.2-0.3,0.4-0.8,0.6-1.1c0.1-0.4,0.9-3.7,0.9-4.3c0.1-0.6,0.2-3.1,0.2-3.2c1.1,0,3.4,0.3,3.4,0.3l1.8,0.1c-0.1-0.5-0.2-1-0.3-1.6
		L381.2,53.1z M356.7,47.7c0.2-1.4,0.5-2.8,0.7-4.1c-0.7-4.5-1.9-9.3-3-14.7c-1.3-6.5-2.4-9.6-3.3-10.9c0.5,1.4,1.1,4.2,2.1,9.4
		c1.1,5.4,2,10.5,2.7,15.1C356.3,44.8,356.6,46.5,356.7,47.7z M347.3,48.8l-0.2-22c0,0.1,0,0.3,0,0.4l0.2,22.1L347.3,48.8z
		 M362.5,34.2c-0.5-0.2-0.5,1.1-0.8,2.3c-0.7,3.4-1.2,6-1.4,7.5c-0.3,1.6-0.5,2.9-0.6,3.9c-0.2,1.1-0.3,2-0.5,2.8
		c-0.1,0.8-0.3,1.7-0.5,2.6c-0.5,2-1.3,3-2.3,3c-0.6,0-1.1-0.4-1.5-1.1c0.6,2,1.4,2.8,2.4,2.8c1,0,1.5-0.6,2-2.6
		c0.2-0.9,0.7-2.4,0.8-3.2c0.1-0.8,0.4-2.1,0.6-3.2c0.2-1.1,0.6-6.7,1.3-10.1c0.2-0.8,0.4-1.7,0.6-2.6
		C362.7,35.1,362.6,34.2,362.5,34.2z M366.6,18.5c0-0.6-0.6-1.5-1.1-2c0.2,0.3,0.3,0.6,0.3,0.9c0,4.7,0.1,11.9,0.4,21.3
		c0.3,9.4,0.4,16.6,0.4,21.3c0,1.3-0.4,2.3-1.3,3.1c-0.4,0.3-0.6,0.4-0.9,0.4c-0.1,0-0.1,0-0.1,0c0,0-0.1,0-0.1,0
		c-0.5,0.1-0.9,0.1-1.2-0.1c-0.2-0.1-0.4-0.3-0.5-0.7c0-0.1,0-0.2,0-0.3l0,1c0,0.4,0,0.7,0.1,0.9c0.1,0.4,0.3,0.6,0.5,0.7
		c0.3,0.2,1.2,0.2,1.3,0.2c0,0,0.6-0.1,1-0.3c0.9-0.8,2.4-1.9,2.4-3.2c0-4.7-0.3-12.2-0.6-21.6C366.8,30.6,366.6,23.2,366.6,18.5z
		 M362.4,60.8c-0.1-2.7-0.1-4.9-0.1-6.5c0,0.4,0,0.7,0,1c0,1.5,0,3.7,0.1,6.3L362.4,60.8z M351.9,37.1c-0.3-2-0.3-3.3-0.7-3.2
		c-0.5,0.1-0.2,2.3-0.2,3.4l0.2,23c0,1-0.3,1.8-1,2.5l-0.1,0.1H350c-1.1,0-1.9-0.4-2.4-1.2c-0.3-0.6-0.5-1.4-0.5-2.4l0,1.1
		c0,1.2,0.2,2.2,0.6,2.9c0.4,0.8,1.2,1.2,2.4,1.2h0.2l0.1-0.1c1.2-0.1,2.3-2.1,2.3-3c0,0-0.9-23.7-0.8-25.4
		C351.8,36.5,351.8,36.8,351.9,37.1z M470.7,27.6l0,11.2v4.4c-0.1,0.4-0.2,1.8-0.2,3.8l0.1,8.4c0,2.5-0.1,3.5,1,3.5l0.5-0.1
		c-0.3-0.3-0.4-1-0.4-2.3l0.2-9.6c0-1.9,0.1-5.6,0.1-5.6l0-12l0-5.1c0.1-0.9-0.7-2-1.6-2.4c0.4,0.4,0.6,0.8,0.6,1.3L470.7,27.6z
		 M489,49.4c0.1-2.8,0.5-6.5,1.4-11c0.2-1,0.4-1.9,0.5-2.7c-0.1-0.8-0.2-1.4-0.4-2.1c-0.2,1-0.5,1.8-0.8,3.2
		c-1.2,5.4-1.7,9.6-1.7,12.5C488.2,49.4,488.6,49.4,489,49.4z M466.7,33.5c-0.1-1-0.1-2.4-0.2-4.2c0,0.1,0,0.1,0,0.2
		c0,2.3,0.1,4.1,0.1,5.3L466.7,33.5z M524.6,26.3l2.8-0.2c0.1-0.5,0.1-1,0.2-1.5l-3.8,0.1c0,0-2.1,0.1-2.1,0.1c-0.6,0-0.5,0-0.8-0.4
		c0,0,0,0,0,0c0.2,0.6,0.5,1.4,0.7,1.6C521.9,26.4,524.6,26.3,524.6,26.3z M415.8,21.5C415.8,21.5,415.7,21.5,415.8,21.5
		C415.8,21.5,415.8,21.5,415.8,21.5C415.8,21.5,415.8,21.5,415.8,21.5z M416.4,23.6l-0.1,10.9l0.1,1.4c0.2-0.5,0.5-1.1,0.8-1.9
		l0.3-9.8c0-1.1-0.7-2.3-1.6-2.8C416.3,21.9,416.4,22.7,416.4,23.6L416.4,23.6z M455.4,29.9V27c0.5,0,0.9,0.2,1.2,0.4
		c0.2,0.1,0.3,0.3,0.5,0.5c-0.4-1-0.9-1.7-1.4-2.1c-0.3-0.2-0.7-0.3-1.2-0.4v2.9l-0.3,11.3c0.4-0.1,0.7-0.3,1-0.6L455.4,29.9z
		 M397.5,37.9c0.3-0.3,0.6-0.7,1-1.2c0-1,0-2.2-0.1-3.5c-0.1-3.1,0.1-5,0.1-6.6v-2c-0.4-0.2-0.8-0.3-1.1-0.4l-0.1,0.5
		c0,1.6,0.1,4,0.1,7.1C397.5,34.5,397.5,36.5,397.5,37.9z M445.1,21.5L445.1,21.5L445.1,21.5C445.1,21.5,445.1,21.5,445.1,21.5z
		 M353.6,46.8c0.3,2.3,0.4,4.1,0.5,5.1c0,0.2,0.1,0.4,0.1,0.5c-0.1-0.6-0.1-1.3-0.1-2.1C354,49.5,353.8,48.4,353.6,46.8z
		 M506.6,25.2c-2.9-0.2-5.1-0.1-5.6,0c-0.5,0.1-0.7,0-0.8-0.2c0,0.5,0.7,1,1.4,1.4c0.3,0.2,2.5,0,5.1,0.2
		C506.6,26,506.6,25.5,506.6,25.2z M499.5,57.3c-0.5-2.2-1-4.6-1-4.6c0-1-0.7-6.4-0.8-6.9c-1.7-7.5-3.3-14.6-3.6-22.3
		c0-0.7-0.6-2.1-2.1-2.3c0.9,0.3,1.1,0.9,1.2,1.4c0.3,7.7,1.3,15.3,3,22.8c0.1,0.4,0.3,1.1,0.5,1.8c0.5,1.7,0.8,3.2,0.9,4.2l0,0.1
		l-0.3,1.2c0,0.4,0.2,1.2,0.6,3.4c0.4,1.9,0.8,3.9,0.8,4.5c0,1.4-0.7,1.2-1.2,1.4l-0.1,0l-0.1,0c-0.9,0-2.3,0.5-2.6-0.1
		c-0.1-0.2-0.2-0.4-0.2-0.5c0.2,1,0.7,1.9,1.2,2.1c0.5,0.3,2.1,0.1,2.1,0.1s2.8,0.1,2.5-1.3C500.2,61.8,499.9,59.2,499.5,57.3z
		 M491.6,52.8c0,0-2.9-0.2-4-0.2c0,0.1-0.3,4-0.4,4.4c-0.1,0.4-0.9,3.6-1.1,3.9c-0.4,0.8-0.2,1.2-0.9,1.2c-0.6,0-1.9-0.1-2.3-0.4
		c-0.5-0.3-0.8-0.5-0.9-0.9c0,0,0,0,0,0l0.2,1.1c0,0.6,0.3,1.1,0.8,1.4c0.5,0.3,1.4,0.5,1.9,0.4c0.7,0,1.9-0.1,2.3-0.9
		c0.2-0.3,0.3-1.1,0.4-1.4c0.1-0.4,0.7-3.8,0.8-4.3c0.1-0.6,0.3-2.8,0.3-2.9c1.1,0,1.6,0.1,1.6,0.1l3.1,0.1c-0.1-0.5-0.2-1-0.3-1.6
		L491.6,52.8z M477.2,58.7c0.9,0.3,0.8,0.9,0.8,1.9c0,0.6-0.2,1-0.7,1.4c-0.4,0.3-0.9,0.5-1.4,0.6l-0.1,0c0,0-2.2,0-5.5-0.3
		c-1.8,0.1-2.6,0.4-3.3-0.6c-0.3-0.4-0.5-0.8-0.6-1.3l0,1.3c0,0.6,0.2,1.1,0.6,1.6c0.8,0.9,7.4,0.4,8.8,0.9l0.1,0l0.1,0
		c0.5-0.1,1-0.3,1.4-0.6c0.5-0.4,1.5-1.4,1.5-2C478.8,60.3,478.8,59,477.2,58.7z M388.3,54.5c0,0,0.2-2.7-0.3-4.5
		c-0.2-0.8-1-3.8-1.1-4.3c-1.7-7.5-3-14.7-3.2-22.3c0-0.4-0.5-1-1.2-1.4c0.3,0.3,0.4,0.6,0.4,0.9c0.2,7.7,1.2,15.3,2.9,22.9
		c0.1,0.4,0.3,1.1,0.5,1.8c0.5,1.7,0.8,3.2,0.8,4.2l0,0.1l-0.3,1.2c0,0.4,0.1,1.2,0.6,3.4c0.4,1.9,0.6,3.2,0.6,3.8
		c0,1.4-0.6,1.9-1.1,2.1l-0.1,0l-0.1,0c-0.9,0-1.6-0.1-2.2-0.4c-0.4-0.2-0.7-0.7-0.8-1.3c0,0,0,0,0,0.1c0,1.3,0.6,2.7,1.3,3.1
		c0.5,0.3,0.9,0.2,1.8,0.2l0.1,0l0.1,0c0.5-0.2,2.2-0.7,2.2-2.1c0-0.6-0.1-1.9-0.5-3.8C388.3,55.8,388.3,54.8,388.3,54.5z
		 M459.9,24.6c0.8,1.7,1.2,3.6,1.2,5.8c0,2.8-0.1,4.6-0.2,5.2c-0.1,0.6-0.3,1.2-0.4,1.8c-0.2,0.6-0.4,1.1-0.6,1.5
		c-0.2,0.4-0.5,0.8-0.9,1.2c-0.4,0.4-0.8,0.8-1.3,1.1c-1,0.6-2.1,1.2-3.4,1.6V49l0.5,11.4c0,0.6-0.2,1.1-0.6,1.5
		c-0.4,0.4-0.9,0.6-1.5,0.6h-1.8l-0.1-0.3c-0.1-0.3-0.1-0.6-0.2-0.9c0,0.2,0,0.4,0,0.6l0.4,2l2.5,0c0.6,0,1.1-0.2,1.5-0.6
		c0.4-0.4,0.6-0.9,0.6-1.5L455,50.4v-6.1c1.3-0.4,2.5-1,3.4-1.6c0.5-0.3,0.9-0.7,1.3-1.1c0.4-0.4,0.7-0.8,0.9-1.2
		c0.2-0.4,0.5-0.9,0.6-1.5c0.2-0.6,0.3-1.2,0.4-1.8c0.1-0.7,0.2-2.4,0.2-5.2c0-2.3-0.4-4.3-1.3-6C460.4,25.3,460.2,24.9,459.9,24.6z
		 M516,22.3c0.4,0.4,0.5,1,0.5,1.3c0,0.6-0.3,1.1-0.8,1.4c-0.5,0.3-1,0.5-1.6,0.4l-3.4,0l-0.1,0.3c-0.2,3.7-0.4,9.4-0.2,16.9
		c0.3,7.6,0.3,13.3,0.1,17.1c0,0.6-0.1,1.6-0.7,1.9c-1.1,0.5-2.3,0.5-2.9,0.3c-0.1,0-0.2-0.1-0.3-0.2c0.1,0.6,0.3,1.6,0.8,1.8
		c0.7,0.2,2.2,0.1,2.8,0.1c1.4-0.1,1.7-1.5,1.8-2.1c0.2-3.8,0.2-9.6-0.1-17.1c-0.3-7.5,0-13.3,0.2-16.9l0.1-0.7l3.2-0.1
		c0.9,0,1,0.1,1.5-0.2C517.5,25.9,517.4,23,516,22.3z M529.8,58.8c0.1,0.2,0.1,0.4,0.1,0.5c0,0.6-0.3,1.1-0.8,1.4
		c-0.5,0.3-1,0.4-1.6,0.4c0,0-6.5,0.3-6.9,0.3c-0.4,0-0.9-0.2-1.3-0.5c-0.2-0.2-0.4-0.5-0.5-0.8c0,0.7,0.1,2.1,0.5,2.4
		c0.4,0.4,0.8,0.5,1.3,0.5c0.4,0,6.8,0.1,6.8,0.1c0.6,0,1.1-0.1,1.6-0.4c0.5-0.3,1.1-2.9,1.1-3.6C530,58.9,529.9,58.8,529.8,58.8z
		 M531.4,21.8c0-0.1-0.1-0.1-0.2-0.1c0.3,0.4,0.2,0.7,0.2,1.1c0,1.4-0.4,3.4-1.3,5.9c-0.9,2.4-1.4,4.4-1.7,5.9
		c-0.3,1.6-0.9,3.9-1.8,6.9c-0.9,3-1.8,5.9-2.5,8.7c-0.7,2.6-1.1,5.1-1.2,7.3h0.6l0.6,0c0.1-1.9,0.1-3.4,0.7-5.8
		c0.7-2.8,1.6-5.7,2.5-8.7c0.9-3,1.5-5.3,1.8-6.9c0.2-1.5,0.8-3.5,1.7-5.9c0.9-2.4,1.6-4.8,1.6-6.2
		C532.4,23.6,531.8,22.2,531.4,21.8z M405.5,51.8l-1.7-5.2c-1.1-3.1-1.8-4.3-2-5.3c1.2-2.3,2.7-3.8,3.5-5.2c0.8-1.4,1-3.5,1-6.3
		c0-1.7-1-4-2.2-5.5c0.6,1.1,0.8,2.5,0.8,4c0,2.8-0.4,4.7-1.3,6.7c-0.6,1.5-1.8,2.8-3,5.1c0.2,1,1.2,3,2,5.7
		c1.8,6.1,3.2,10.8,4.7,13.5c0.4,0.9,0.7,1.5,0.7,2c0,0.5-0.2,1-0.5,1.4c-0.3,0.4-0.8,0.6-1.3,0.6c-0.5,0-1-0.3-1.5-0.8
		c0.5,1,1.1,1.5,1.9,1.5c0.5,0,1.4-0.2,1.7-0.6c0.3-0.4,0.8-1.1,0.8-1.6c0-0.5-0.1-1.4-0.6-2.3C407.2,57,407.6,57.7,405.5,51.8z
		 M411.9,43.9L411.9,43.9L411.9,43.9C411.9,43.9,411.9,43.9,411.9,43.9z M398.2,48.6c0-0.9,0.1-1.9,0.4-3c-0.4-0.9-0.7-1.5-0.8-2.1
		c0,0.2-0.1,0.5-0.2,0.7c-0.3,1.1-0.4,2.1-0.4,3c0,0.9,0.1,3,0.4,6.1c0.2,3.1-0.1,5.2-0.1,6.1c0,1-0.2,1.7-0.6,2.3
		c-0.4,0.6-0.9,0.9-1.4,0.9c-0.5,0-1.1-0.2-1.4-1.1c0,0.1,0,0.1,0,0.2c0.2,1.3,1.5,1.8,2.1,1.8c0.5,0,1.9-0.7,2.3-1.3
		c0.4-0.5,0.4-4.5,0.2-7.6C398.3,51.6,398.2,49.5,398.2,48.6z M445.4,21.6c0.3,0.4,0.2,1.8,0.2,2.4c0,0.6-0.1,1-0.6,1.3
		c-0.5,0.3-1.3,0.3-1.9,0.2l-4,0l-0.1,0.3c-0.1,3.7,0,9.4,0.5,16.9c0.4,7.6,0.6,13.3,0.4,17.1c0,0.6-0.3,1.1-0.7,1.5
		c-0.4,0.4-1,0.6-1.6,0.6l-1.3-0.2c-0.3,0-0.5-0.3-0.5-0.5l0-1l0,2.6c0,0.4,0.3,0.7,0.7,0.7l2.2,0.1c0.6,0,1.1-0.2,1.6-0.6
		c0.4-0.4,0.7-0.9,0.7-1.5c0.1-3.8,0-9.6-0.4-17.1c-0.4-7.5-0.5-13.8-0.4-17.4l0.1-0.3l3.3,0c0.6,0,2.2,0,2.7-0.4
		c0.5-0.4,0.4-2.7,0.2-3.1C446.3,22.7,446,21.9,445.4,21.6z M429.8,25.1c-0.1,0-0.1-0.1-0.2-0.2c0.2,0.5,0.6,1.2,1.1,1.5
		c0.3,0.2,2-0.3,4.7-0.1c0-0.4,0-0.8,0-1.1C432.6,25,430.2,25.4,429.8,25.1z M428.3,57c-1-1.5-2.2-3.9-3.7-8.5
		c-1.5-4.6-3.5-8.5-3.6-10.2l0.5-2.4c0.3-0.6,0.9-2.1,2.7-5.4c2.9-5.2,3-5.5,3-5.6c0.7-1.4-0.6-2.7-1.2-3c0,0-0.1,0-0.1,0
		c0.5,0.3,0.7,0.8,0.7,1.3c0,0.2,0,0.2-2.9,5.4c-1.8,3.3-3.8,8.9-4.1,9.4l1,2.8c0.1,1.7,0.8,1.9,2.3,6.5c1.5,4.6,2.8,7.7,3.7,9.1
		c0.1,0.2,0.4,0.5,0.8,1c0.4,0.6,0.8,1,1,1.5c0.2,0.4,0.3,0.9,0.4,1.4c0,0.6-0.2,1-0.6,1.4c-0.4,0.4-0.9,0.6-1.4,0.6
		c-1.1,0-2.2-1-3.4-3.1c-0.5-0.9-1-2-1.5-3.1c0.6,1.7,1.2,3.3,2.1,4.4c2,2.4,3,2.8,4.1,2.8c0.5,0,1.8-1.4,2-1.9
		c0.6-1.4-0.6-2.3-1-2.9C428.9,58.1,428.4,57.1,428.3,57z M417.7,45.7c-0.4-0.9-0.8-1.8-1-3c-0.4,0.6-0.1,7.9-0.2,6l0,12.1
		c0,1.1-0.5,1.8-1.6,1.8c-0.7,0-1.3-0.2-1.7-0.6c-0.3-0.2-0.4-0.5-0.6-0.8l0,0.3c0,0.7,0.9,1.9,1.4,2.3c0.4,0.4,1.1,0.2,1.8,0.2
		c1.1,0,2-0.7,2-1.9l-0.2-8C417.7,54.1,417.7,48,417.7,45.7z"/>
	<path class="st0" d="M108.4,52.2c0-3.5,0.7-6.6,2-9.5c-0.1-0.8-0.3-1.5-0.4-2.4c-1.7,3.1-2.5,6.6-2.5,10.6c0,2.3,0.5,4.1,1.4,5.6
		C108.5,55.3,108.4,53.9,108.4,52.2z M118.9,23.8c-0.6,2.8-3,7.3-3.8,8.5c-0.3,0.5-1.3,1.9-1.6,2.3c-0.8,1.1-0.9,1.3-0.9,1.3
		s0.1,0.9,0.4,2.3c0.4-0.7,2-3.1,3-4.8c2.9-5,2.9-7.1,3.2-9.7c0.1-1.2-0.1-2.4-0.5-3.5C119.1,21.5,119.1,23,118.9,23.8z M113.9,27.9
		c0.2-0.3,0.3-0.5,0.4-0.7c0.2-0.4,0.3-0.7,0.5-1C114.5,26.8,114.2,27.3,113.9,27.9z M62.1,40.9c0,0.5,0,1.1,0,1.7l0.1,2.6
		c0,1.1,0.1,2.1,0.2,3.2c0.1,1.1,0.2,2.2,0.3,3.4c0.1,1.2,0.3,2.3,0.5,3.2c0.2,1,0.4,1.9,0.6,2.7c0.2,0.8,0.6,1.7,1.1,2.2
		c-0.1-0.2-0.1-0.4-0.2-0.6c-0.2-0.8-0.4-1.7-0.6-2.7c-0.2-1-0.3-2.1-0.5-3.2c-0.1-1.2-0.2-2.3-0.3-3.4c-0.1-1.1-0.1-2.1-0.2-3.2
		l-0.1-2.6c0-0.7,0-1.2,0-1.7l0-5.8L63,33.3c0-4.3,0.9-6.5,2.8-6.5h0.1c0.7,0,1.3,0.3,1.8,0.8c0-0.1-0.1-0.2-0.1-0.3
		c-0.6-1.4-1.5-2.1-2.7-2.1h-0.1c-1.8,0-2.8,2.2-2.8,6.5l0.1,3.5L62.1,40.9z M112.7,30.1l-0.1-4.4c0-0.1-0.6-4.7,1.3-4.6
		c0.8-0.1,1.3,0,1.6,0.3c-0.5-1.3-2-1.2-2.7-1.1c-0.1,0.2-0.5,0.1-0.7,1.1c0,0.1-0.2,0.7-0.2,0.8c-0.1,0.7-0.1,2.2-0.1,2.2l0,7.4
		C111.9,31.5,112.3,30.8,112.7,30.1z M85,30.9l0-2.9c0.5,0,0.9,0.2,1.2,0.4c0.4,0.3,1.1,0.8,1.6,1.4c-0.6-1.4-1.6-2.4-2.6-3.1
		c-0.3-0.2-0.7-0.3-1.2-0.4l0,2.9l-0.4,11.3c0.3-0.1,0.7-0.3,1.2-0.5L85,30.9z M223.9,59.3c-0.2-0.3-0.3-0.8-0.3-1.5l0.3-10.9
		c0-1.2,0-2.6-0.1-4c0,0,2.8-0.3,3.4-0.3c0.7,0,1.9-0.9,1.9-1.6c0-0.8-0.4-2.7-2.4-3.1c0.6,0.4,0.8,1,0.8,1.5c0,0.7-0.2,1.3-0.6,1.8
		c-0.4,0.5-3,0.6-3.5,0.3h-1c0.1,1.4,0.1,2.7,0.1,4l-0.3,10.9C222.2,59.1,223.4,59.3,223.9,59.3z M187.6,38.6c0.2-1,0.4-1.8,0.6-2.6
		c-0.1-0.8-0.3-1.2-0.4-1.9c-0.2,1-0.5,1.5-0.8,2.9c-1.2,5.4-1.7,9.6-1.7,12.5c0.2,0.1,0.4,0.1,0.8,0.1
		C186.2,46.8,186.6,43.1,187.6,38.6z M204.6,38.3c0.3-0.3,0.6-0.7,1-1.2c0-1,0-2.2-0.1-3.5c-0.1-3.1,0.1-5,0.1-6.6v-2
		c-0.4-0.2-0.8-0.3-1.1-0.4l-0.1,0.5c0,1.6,0.1,4,0.1,7.1C204.5,34.8,204.6,36.9,204.6,38.3z M222.3,37.5l1.3-0.1l0.2-7.6
		c0-0.7,0-1.4-0.1-2.1c1.1,0.2,4.3,0.4,4.3,0.4c1.3-0.5,2-1.2,2-2.2c0-0.7-0.3-1.8-1-2.4c0.2,0.3,0.2,0.6,0.2,0.9
		c0,1-0.6,1.6-0.6,1.6s-0.3,0.5-1.7,0.6c-1.3,0.1-4.4-0.4-4.6-0.4c0,0.7,0.1,1.4,0.1,2.2l-0.3,8.6C222.2,37,222.3,37.2,222.3,37.5z
		 M165,23c0.1,0.9,0.2,1.7,0.2,2.8v0l-0.1,15c0.2,0,0.5,0,0.8,0l0.2-13.4c0-1.2,0-2.5-0.2-3.5c-0.1-0.9-0.8-1.5-1.4-1.7
		C164.7,22.4,165,22.6,165,23z M113.4,53.4c-0.3-0.7-0.7-1.4-1-2.2c0.4,1.4,0.9,2.6,1.5,3.7c0.7,1.4,1.4,2.4,2.1,3.2
		c0.2-0.1,0.4-0.2,0.6-0.4c-0.2-0.2-0.5-0.6-1-1.1C114.9,55.9,114.1,54.8,113.4,53.4z M123.2,54.3c1-3.2,1.1-6.5,1.1-7.6l1.4,0
		c2.4,0,3.1-0.7,3.1-2c0-0.5-0.1-1.6-0.7-2.4c0.1,0.3,0.2,0.8,0.1,1.3c-0.2,1.3-1.1,1.5-3.6,1.5l-1.3,0.1c0,1,0.2,4.1-0.8,7.3
		c-0.7,2.4-1.3,3.9-1.7,4.8c0.4,0.4,0.7,0.6,1.1,0.9C122.3,57.2,122.7,55.9,123.2,54.3z M41.6,40.9c0,0.5,0,1.1,0,1.7l0.1,2.6
		c0,1.1,0.1,2.1,0.2,3.2c0.1,1.1,0.2,2.2,0.3,3.4c0.1,1.2,0.3,2.3,0.5,3.2c0.2,1,0.4,1.9,0.6,2.7c0.3,0.9,0.7,2,1.3,2.3
		c-0.1-0.2-0.2-0.5-0.2-0.7c-0.2-0.8-0.4-1.7-0.6-2.7c-0.2-1-0.3-2.1-0.5-3.2c-0.1-1.2-0.2-2.3-0.3-3.4c-0.1-1.1-0.1-2.1-0.2-3.2
		l-0.1-2.6c0-0.7,0-1.2,0-1.7l0-5.8l-0.1-3.5c0-4.3,0.9-6.5,2.8-6.5h0.1c0.6,0,1.1,0.2,1.6,0.6c0,0,0,0,0-0.1
		c-0.6-1.4-1.5-2.1-2.7-2.1h-0.1c-1.8,0-2.8,2.2-2.8,6.5l0.1,3.5L41.6,40.9z M188.8,53c0,0-2.9-0.2-4-0.2c0,0.1-0.2,2.3-0.2,2.9
		c-0.1,0.6-0.7,4-0.8,4.3c-0.1,0.4-0.3,0.7-0.5,1.1c-0.4,0.8-0.3,1.3-1,1.3c-0.6,0-1.9,0-2.5,0.1c-0.3,0-0.5-0.1-0.6-0.3l0,0.5
		c0,0.6,0.2,1.1,1,1.2c0.6,0.1,1.4,0.1,2,0.1c0.7,0,1.2-0.5,1.6-1.3c0.2-0.3,0.3-0.7,0.5-1.1c0.1-0.4,1.3-7,1.3-7.1
		c1.1,0,3.7,0.1,3.7,0.1l1.3,0.1c-0.1-0.6-0.2-1.2-0.4-1.8L188.8,53z M168.5,43.8l-3.4,0.1l-0.1,5.9l0.5,9.9c0,0.7-0.2,1.3-0.5,1.7
		c-0.3,0.5-0.9,0.8-1.6,0.8c-0.7,0-1.2-0.4-1.6-1.1c0,0.1,0,0.1,0,0.2c0.3,1.6,1.4,2.5,2.4,2.5c0.7,0,1.2-0.3,1.6-0.8
		c0.3-0.5,0.5-1.1,0.5-1.7l-0.5-9.9l0.3-5.9l3.2-0.1c0.1,0,0.1,0,0.2,0l0-1.6C169.2,43.8,168.9,43.8,168.5,43.8z M195.6,54.5
		l-0.3-1.2l0-0.1c0-1,0.5-1.9,0-3.7c-0.2-0.8-0.5-1.9-0.6-2.3c-1.7-7.5-3.4-15.2-3.7-22.9c0-0.7-0.2-2.6-1.6-3
		c0.5,0.2,0.5,0.7,0.6,1.4c1.1,7.6,1.6,15.3,3.3,22.8c0.1,0.4,0.3,1.1,0.5,1.8c0.5,1.7,0.8,3.2,0.9,4.2l0,0.1l-0.3,1.2
		c0,0.4,0.1,1.2,0.6,3.4c0.4,1.9,0.6,3.2,0.7,3.8c0,1.4-0.6,1.9-1.1,2.1l-0.1,0l-0.1,0c-0.9,0-2.1,0.1-2.6-0.3c0,0-0.1-0.1-0.1-0.2
		c0.2,1,0.6,1.7,1.1,1.9c0.5,0.3,1.3,0.2,2.2,0.1l0.1,0l0.1,0c0.5-0.2,1.7-0.8,1.6-2.1c0-0.6-0.2-1.8-0.7-3.8
		C195.8,55.8,195.6,54.9,195.6,54.5z M174.2,24.9c0-0.9,0.1-1.9-0.3-2.1c-0.2-0.1-1.2-1.3-1.4-1.3c0,0,0,0-0.1,0
		c0.4,0.2,0.6,0.8,0.6,1.7c0,4.2,0.2,10.5,0.6,18.9c0.4,8.3,0.6,14.7,0.6,18.9c0,0.5-0.2,0.9-0.6,1.1c-0.4,0.2-0.8,0.4-1.4,0.4
		c-0.5,0-1-0.1-1.5-0.4c-0.6-0.4-0.8-0.9-0.8-1.2c0,0.2,0,0.3,0,0.5c0,0.4,1,2,1.7,2.4c0.5,0.3,1,0.4,1.5,0.4c0.5,0,1-0.1,1.4-0.4
		c0.4-0.3,0.6-0.7,0.6-1.1c0-4.2-0.2-10.5-0.6-18.9C174.1,35.2,174.2,29.1,174.2,24.9z M228.2,59.6c0.7,0.4,0.9,1,0.9,1.5
		c0,0.7-0.3,1.3-1,1.7c-0.6,0.3-1.2,0.5-2,0.5h-5.7c-0.6,0-1.1-0.2-1.6-0.6c-0.1-0.1-0.2-0.2-0.3-0.3c0.2,0.6,0.6,1.1,0.9,1.4
		c0.4,0.4,1.7,1,2.3,1h5.7c0.7,0,1.4-0.2,2-0.5c0.6-0.3,0.5-1.7,0.4-2.4C229.8,60.4,229,59.8,228.2,59.6z M23.1,57.3
		c0.6,0.9,1.5,1.5,2.6,1.8c-0.3-0.5-2.1-2.7-2.6-9.2c-0.4-5.4-0.4-9.1-0.3-11.1l0.5-8.4c0-2.1,0.4-7.2,4.7-7.7l2.3,0.1
		c0.3,0.4,1.1,1.3,1.7,1.3c0.7,0,1.6-0.3,2-0.6c0.4-0.3,0.3-1.2,0.3-1.7c0-0.9,0.2-1.8-0.5-2.4c0.1,0.3,0.2,0.6,0.2,1
		c0,0.5-0.4,1.2-0.8,1.5c-0.4,0.3-0.9,0.4-1.6,0.4c-0.6,0-1.3-0.7-1.7-1.1l-1.2-0.3c-2.7,0-4.6,1.6-5.7,3.8
		c-0.7,1.3-0.9,2.7-0.9,4.8l-0.3,7.8c0,2-0.4,5.7,0,11.1C22.3,54.9,22.8,56.9,23.1,57.3z M205.3,48.9c0-0.9,0.1-1.9,0.4-3
		c-0.4-0.9-0.7-1.5-0.8-2.1c0,0.2-0.1,0.5-0.2,0.7c-0.3,1.1-0.4,2.1-0.4,3c0,0.9,0.1,3,0.4,6.1c0.2,3.1-0.1,5.2-0.1,6.1
		c0,1-0.2,1.7-0.6,2.3c-0.4,0.6-0.9,0.9-1.4,0.9c-0.5,0-1.1-0.2-1.4-1.1c0,0.1,0,0.1,0,0.2c0.2,1.3,1.5,1.8,2.1,1.8
		c0.5,0,1.9-0.7,2.3-1.3c0.4-0.5,0.4-4.5,0.2-7.6C205.4,51.9,205.3,49.9,205.3,48.9z M212.6,52.1l-1.7-5.2c-1.1-3.1-1.8-4.3-2-5.3
		c1.2-2.3,2.7-3.8,3.5-5.2c0.8-1.4,1-3.5,1-6.3c0-1.6-0.8-3.6-1.9-5c0.5,1.1,0.7,2.4,0.7,3.7c0,2.8,0,3.9-1.5,6.5
		c-0.8,1.4-1.8,2.8-3,5.1c0.2,1,1.2,3,2,5.7c1.8,6.1,3.2,10.8,4.7,13.5c0.4,0.9,0.7,1.5,0.7,2c0,0.5-0.2,1-0.5,1.4
		c-0.3,0.4-0.8,0.6-1.3,0.6c-0.6,0-1.1-0.3-1.6-0.9c0.6,1.4,1.2,2,2,2c0.5,0,1.4-0.5,1.8-0.9c0.3-0.4,0.8-1.1,0.8-1.6
		c0-0.5-0.1-1.4-0.6-2.3C214.3,57.3,214.6,58.1,212.6,52.1z M51.3,27.4c-0.1-0.2-0.3-0.4-0.4-0.6c0.7,1.5,1.3,3.6,1.6,5.4
		c1,6.7,0.3,13.7,0.3,13.7c0,11.7-2.5,17.6-7.4,17.6c-1.5,0-2.8-0.6-3.9-1.8c1.2,2.3,2.9,3.4,5,3.4c4.9,0,7.4-5.9,7.4-17.6v-7.2
		c0-2.4-0.2-4.7-0.6-7.1C52.8,30.7,52.1,28.8,51.3,27.4z M71.6,27.4c-0.2-0.4-0.5-0.7-0.7-1c0.7,1.4,1.3,3.1,1.6,5.2
		c0.4,2.3,0.6,4.7,0.6,7.1v7.2c0,11.7-2.5,17.6-7.4,17.6c-1.7,0-3.1-0.8-4.3-2.3c1.3,2.6,3,3.9,5.2,3.9c4.9,0,7.4-5.9,7.4-17.6v-7.2
		c0-2.4-0.2-4.7-0.6-7.1C73.1,30.7,72.5,28.8,71.6,27.4z M33.5,57l-0.1,0.2l0.1,0l0,1.3c0,1.3-0.4,2.4-1.2,3.2c-1.2,1.4-3.2,2-5.8,2
		c-1.4,0-2.8-0.5-4.2-1.5c-0.8-0.6-1.5-1.3-2-2c0.7,1.5,1.7,2.7,3,3.7c1.3,1,2.7,1.5,4.2,1.5c2.6,0.1,4.6-0.6,5.8-2
		c0.8-0.8,1.2-1.9,1.2-3.2l0-1.3C34.4,58.8,34.1,57.1,33.5,57z M156.7,20.3c0,1.3-1.4,1.9-2.7,1.9c-0.5,0-3-3.1-4.9-2.1
		c-1.4,0.8-1.8,1.3-2.1,2.8c-0.1,0.3-0.1,0.6-0.1,1c0,1.5,0.2,3.1,0.7,4.6c0.4,1.6,1,3.1,1.6,4.5c0.6,1.4,1.3,2.8,1.9,4
		c0.6,1.2,1.2,2.2,1.6,3c0.7,1.3,1.1,3.1,1.4,4.2l0.8,2.6c0.5,1.8,0.7,3.4,0.7,4.9c0,1.5-0.2,2.9-0.5,4.2c-0.3,1.3-0.9,2.6-1.5,3.7
		c-0.7,1.2-1.6,2.2-2.7,2.9c-1.1,0.8-2.2,1.1-3.2,1.1c-1,0-1.8-0.1-2.4-0.2c-0.7-0.1-1.4-0.3-2-0.7c-0.7-0.4-1.1-0.8-1.1-1.4
		c-0.1,0-0.1,0-0.1,0c0,0.1,0.5,1.4,0.5,1.5c0,0.6,1.1,1,1.9,1.4c0.7,0.3,1.4,0.6,2,0.7c0.7,0.1,3.7,0.3,6.3-1.3
		c1.2-0.7,3.5-4.6,3.8-5.9c0.3-1.3,0.3-3.2,0.6-4.6c0.5-3-2.7-12.9-4.5-15.6c-0.7-1.2-3.4-5.9-3.9-7.5c-0.4-1.6-0.7-3.2-0.7-4.6
		c0-0.3,0-0.7,0.1-1c0.3-1.4,0.7-2,2.1-2.8c1.9-1,4.4,2.1,4.9,2.1c1.3,0,2.7-0.6,2.7-1.9c0-0.6-1.1-2.1-1.9-3.1
		C156.4,19.4,156.7,20,156.7,20.3z M88.1,23.6c0.6,0.5,1.2,1,1.8,1.6c1.6,1.7,1.9,4,1.9,6.2c0,2.8-0.3,4.6-0.4,5.2
		c-0.1,0.6-0.2,1.3-0.5,1.8c-0.9,2.2-3.1,3.3-3.9,3.8c-1,0.6-2.1,1.1-3.5,1.6L83.4,50l0.3,11.4c0,0.6-0.2,1.1-0.7,1.5
		c-0.4,0.4-0.9,0.6-1.6,0.6l-1.8,0l0.3,1.2c0.1,0.3,0.4,0.6,0.8,0.6l1.8-0.1c0.6,0,1.1-0.2,1.6-0.6c0.4-0.4,0.7-0.9,0.7-1.5
		l-0.3-11.4l0.1-6.1c1.3-0.4,2.6-1.3,3.6-1.8c1.8-0.9,3.5-2.8,4.4-4.6c0.3-0.6,0.4-2.5,0.4-5.4c0-2.3-0.9-4.8-1.7-6.6
		C90.7,25.7,89.5,24.4,88.1,23.6z M128.1,59.7C128.1,59.7,128.1,59.7,128.1,59.7l0,0.2c0,1.2-0.6,1.7-1,1.9
		c-0.6,0.3-1.4,0.4-2.4,0.4c-1.9,0-3.8-0.7-5.8-2.2c-2.1,1.5-4.1,2.2-6,2.2c-1.9,0-3.5-0.5-4.9-1.6c-0.7-0.6-1.5-1.2-2.2-1.9
		c0.7,1.4,1.7,2.7,2.9,3.7c1.3,1.1,3,1.6,4.9,1.6c1.8,0,3.8-0.7,6-2.2c2,1.4,3.9,2.2,5.8,2.2c1,0,1.8-0.1,2.4-0.4
		c0.5-0.2,1-0.7,1-1.9L128.1,59.7L128.1,59.7z"/>
</g>
</svg>
