<?xml version="1.0" encoding="utf-8"?>
<!-- Generator: Adobe Illustrator 23.0.1, SVG Export Plug-In . SVG Version: 6.00 Build 0)  -->
<svg version="1.1" id="Layer_1" xmlns="http://www.w3.org/2000/svg" xmlns:xlink="http://www.w3.org/1999/xlink" x="0px" y="0px"
	 viewBox="0 0 204 215" style="enable-background:new 0 0 204 215;" xml:space="preserve">
<style type="text/css">
	.st0{fill:#ffffff;}
</style>
<path d="M197.9,74.9c-6.8-30.5-29-48.6-41.6-56.8c-2-1.3-48.8-30.7-95.2-6.9c-8.8,4.5-16.7,10.5-23.3,17.7
	C18.4,45.3,5.8,68.8,4.2,93.6c-1.3,17.1,2.6,34.3,11.2,49.1c5.2,13.7,14.4,25.5,26.5,33.8c2.8,2,13.9,8.5,18.2,9.4
	c0.3,0.1,0.5-0.1,0.6-0.4c0,0,0,0,0,0c0.1-0.3-0.1-0.5-0.4-0.6c0,0,0,0,0,0c-4.2-0.8-15.1-7.3-17.8-9.2c-10.1-7-18.2-16.4-23.5-27.5
	c5.7,8.2,12.6,15.4,20.5,21.5l0.3,0.3c6.4,4.7,13.4,8.5,20.8,11.3c0.1,0,0.2,0,0.2,0c0.8,0.4,1.6,0.6,2.4,0.6c2.1,0,4.7-1.9,7-3.6
	c0.4-0.3,0.8-0.6,1.1-0.8c3.6-2.6,6.2-4.8,6.2-4.8l10-8.5c0.8-0.7,2-0.6,2.7,0.2c0,0,0,0,0,0c0.6,0.8,0.5,2-0.3,2.7l-5.2,4.6
	c-0.6,0.5-0.8,1.3-0.5,2c0.3,0.7,0.9,1.2,1.7,1.2h21.7c0.7,0,1.2,0.6,1.2,1.2s-0.6,1.2-1.2,1.2H95.2c-1.2,0-2.1,0.9-2.1,2.1
	s0.9,2.1,2.1,2.1h15.6c0.7,0,1.2,0.5,1.3,1.1c0.1,0.7-0.4,1.3-1.1,1.4c0,0-0.1,0-0.1,0H90.5c-0.2,0-0.4,0-0.6,0.1
	c-0.3,0-0.5,0.2-0.7,0.4c-0.4,0.4-0.7,0.9-0.7,1.5c0,1.1,0.9,1.9,1.9,1.9h17.9c0.7,0,1.2,0.6,1.2,1.3c0,0,0,0.1,0,0.1
	c-0.1,0.7-0.7,1.1-1.3,1.1H87.9c-1.1,0-1.9,0.9-1.9,1.9v0.3c0,1.1,0.9,1.9,1.9,1.9h15.3c0.7,0,1.3,0.6,1.3,1.2c0,0,0,0.1,0,0.1
	c0,0.1-0.1,0.2-0.1,0.3c-0.3,0.3-0.7,0.4-1.1,0.4H91c-0.7,0-1.4,0.5-1.5,1.2c-0.3,0.4-0.5,0.9-0.5,1.4c0,1.2,1,2.2,2.2,2.2h21.7
	c0.4,0,0.8,0.3,0.8,0.8c0,0.2-0.1,0.4-0.3,0.6l-5.2,4.5c-1.2,1-1.4,2.8-0.4,4.1c0.5,0.6,1.2,1,2,1h0.2c0.7,0,1.4-0.3,1.9-0.7
	l10.1-8.8l0,0l18.8-12c17.1-7,26.9-14.8,28-15.9c15-15.4,24.8-35.1,27.9-56.4C200.6,104.5,201,89.4,197.9,74.9z M38.4,29.7
	c4.5-3.8,9.3-7.1,14.4-10c-1.2,0.8-2.4,1.7-3.5,2.6c-13.5,8-22.3,23-27.6,34.8c-1.9,4.4-3.7,8.8-5.2,13.4c-0.8,1.8-1.5,3.6-2.1,5.3
	C19,57.3,27.2,41.7,38.4,29.7z M42.4,28.5c-8,8.4-14.7,19-19.9,29v-0.1C26.8,48.1,33.2,36.7,42.4,28.5L42.4,28.5z M5.2,93.6
	c1.4-21.9,11.5-42.8,27.2-58.5c-10.1,13-17.2,29.4-20.8,48.2c-0.6,1.7-1,3.4-1.3,5.2c-0.2,2.1-0.4,4.2-0.4,6.3
	c-1.2,11.2-1.3,26.5,3.4,41.8C6.9,123.3,4.1,108.5,5.2,93.6z M40.3,169.2L40,169c-9.5-7.3-17.5-16.4-23.7-26.7
	c-5-12.8-6.2-26.1-6-37.1c1.5,15.3,6.6,30.1,15,43c7.1,11.7,16.7,21.6,28.1,29C48.9,175,44.5,172.3,40.3,169.2z M88.9,162.8
	c-0.8-0.1-1.5,0.2-2.1,0.7l-10,8.5c0,0-2.6,2.2-6.1,4.8c-0.4,0.3-0.8,0.6-1.2,0.8c-2.1,1.6-4.5,3.4-6.4,3.4c-0.3,0-0.6-0.1-0.9-0.2
	c-1.1-0.5-2-1-2.8-1.4c1.6,0.6,3.1,1.1,3.3,1.1c2.3,0,24-17.6,24-17.6c1-0.9,2.6-0.8,3.6,0.2c0.1,0.1,0.1,0.1,0.2,0.2
	C90,163,89.5,162.8,88.9,162.8z M141.8,17.6c-6.8-3.1-31.1-13.8-61.1-8.3c20.9-4,42.6-1,61.6,8.5L141.8,17.6z M107.5,173.8H85.8
	c-0.3,0-0.6-0.2-0.7-0.5c0.1,0,0.2,0,0.2,0l22.6,0.1c1,0,1.7,0.8,1.8,1.8c0,0.3,0,0.6,0,0.8C109.7,174.8,108.7,173.8,107.5,173.8
	L107.5,173.8z M110.8,180.5H95.2c-0.6,0-1.1-0.5-1.1-1.1c0,0,0,0,0,0c0-0.1,0-0.2,0-0.2c0.2,0.8,0.8,0.9,1.5,0.9h15.6
	c0.8,0,1.5,0.5,1.7,1.2c0.1,0.4,0.2,0.8,0.1,1.2C112.9,181.4,111.9,180.6,110.8,180.5L110.8,180.5z M108.4,186.9H90.5
	c-0.4,0-0.7-0.3-0.9-0.6c0.2,0.1,0.4,0.2,0.7,0.2h18.1c0.7,0,1.2,0.4,1.5,1C109.5,187.1,108.9,186.9,108.4,186.9L108.4,186.9z
	 M103.2,193.5H87.9c-0.3,0-0.6-0.2-0.8-0.4h16.1c0.7,0,1.3,0.4,1.6,1.1C104.4,193.8,103.8,193.5,103.2,193.5L103.2,193.5z
	 M112.9,200.5H91.2c-0.5,0-1-0.4-1.2-0.9c0.3,0.3,0.7,0.5,1.2,0.5l22.3-0.2c0.7,0,1.3,0.6,1.3,1.3c0,0.2-0.1,0.4-0.2,0.6
	c0-0.1,0-0.1,0-0.2C114.4,201,113.7,200.5,112.9,200.5L112.9,200.5z M168.2,174.4c-1.1,1.1-10.9,8.8-27.9,15.8
	c-0.1,0-0.2,0.1-0.2,0.2l-18.5,11.9c-0.1,0-0.1,0-0.2,0.1l-10.2,8.8c-0.4,0.3-0.9,0.5-1.4,0.5c-0.3,0-0.5-0.1-0.8-0.3
	c0.2-0.1,0.4-0.2,0.7-0.4c6.6-5.6,13.6-10.9,13.6-10.9s15.8-10.9,16.1-11.1c12.2-5.6,23-13.8,31.6-24.2c8.4-9,15.2-19.4,20.2-30.7
	c1-2.2,1.9-4.5,2.7-6.8C189.9,145.1,180.9,161.4,168.2,174.4L168.2,174.4z M195.8,118.5c-1.4,5.2-3.2,10.3-5.3,15.2
	c-3.3,7.4-7.4,14.5-12.2,21c8.4-14,13-30.5,14.3-48.5c0.9-8.3,1-16.6,0.3-24.9c-0.2-2.7-0.5-5.4-1-7.9c2,5.7,3.5,11.6,4.4,17.7
	C197.4,100.2,197.2,109.4,195.8,118.5L195.8,118.5z M197.3,90.8c-1.2-8-3.4-15.9-6.5-23.3c-2.3-10.2-7.2-19.6-14.3-27.3
	c-5.9-6.3-12.9-11.6-20.6-15.5c-8.2-5.7-17.1-10.2-26.6-13.2c-11-3.6-39.9-10.3-70.3,3.9c-5,2.3-9.8,5.1-14.3,8.3
	c5.1-4.5,10.8-8.4,16.9-11.5c45.9-23.5,92.2,5.6,94.2,6.9c12.5,8,34.5,26,41.2,56.1c2.4,11.2,2.7,22.7,0.8,34
	C198.2,103,198.1,96.9,197.3,90.8L197.3,90.8z"/>
<path class="st0" d="M131.1,56.8l-0.3,7.9l0.2,17.8c-0.1,2,0.1,3.9,0.4,5.9l0.2,0.8h2.5c0.8,0,1.6-0.3,2.2-0.8
	c0.6-0.6,0.9-1.4,0.9-2.2l-0.5-13.2v-6.7l1.4-0.4c1.5-0.3,3-0.8,4.4-1.4c0.6-0.4,1.1-0.9,1.6-1.4c0.4-0.5,0.7-0.9,1.1-1.4
	c0.3-0.6,0.6-1.2,0.8-1.9c0.2-0.7,0.4-1.4,0.5-2.1c0.3-2,0.4-4.1,0.3-6.2c0-2.5-0.5-4.9-1.5-7.2c-1.4-2.9-6-3.9-8.6-3.9h-3
	c-0.8,0-1.6,0.5-2,1.2c-0.4,0.6-0.7,1.3-0.8,2V44c0.4,2,0.6,4.1,0.6,6.2L131.1,56.8z M137,49v-2.8c0.2,0.1,0.4,0.2,0.5,0.2
	c3.3,0.1,3.3,2.9,3.5,4.5c0.7,7.4-2.3,9.7-4.3,10.5L137,49z M114.6,89c6.1,0,9.1-6.9,9.2-21v-8.3c0-2.8-2-13.4-3-15.1
	c-0.8-1.3-1.9-2.5-3.1-3.4c-1.1-1-5.7-1.7-7.8-0.2c-3.3,2.3-4.7,8.7-4.7,18.9v5.6c0,1.2,0.1,2.4,0.1,3.6
	C105.8,82.5,108.9,89,114.6,89z M113.5,45.4h0.1c0.7,0,1.8,0.2,2.6,2h0c0.5,1.2,0.9,2.4,1.2,3.7c0.5,3.1,0.8,6.3,0.6,9.5l-0.1,6.9
	c0.1,4.4-0.4,8.8-1.5,13c-0.4,1.4-1.1,3-2.1,3c-0.4,0-0.9-0.6-1.5-2.3c-0.3-0.9-0.5-1.9-0.7-3c-0.2-1.1-0.4-2.3-0.5-3.6
	s-0.2-2.6-0.3-3.8c-0.1-1.2-0.2-2.4-0.2-3.5l-0.1-2.9v-8.3l-0.1-3.9C110.8,49.1,111.3,45.4,113.5,45.4z M89.9,89
	C96,89,99,82.1,99,68v-8.3c0-2.8-0.3-5.5-0.7-8.3c-0.3-2.4-1.1-4.7-2.3-6.8c-0.7-1.4-1.8-2.6-3.1-3.4c-0.5-0.2-5.4-2.1-7.9-0.2
	c-3.2,2.5-4.7,8.7-4.6,19v5.6c0,1.2,0.1,2.4,0.1,3.6C81.1,82.5,84.2,89,89.9,89z M88.8,45.2h0.1c0.7,0,1.8,0.2,2.6,2
	c0.5,1.2,0.9,2.4,1.2,3.7c0.5,3.2,0.8,6.4,0.6,9.6l-0.1,7c0.1,4.4-0.4,8.9-1.5,13.2c-0.4,1.4-1.1,3-2.1,3c-0.4,0-1-0.6-1.5-2.3
	c-0.3-0.9-0.5-1.9-0.7-3c-0.2-1.1-0.4-2.3-0.5-3.6c-0.1-1.3-0.3-2.6-0.4-3.8c-0.1-1.2-0.1-2.3-0.2-3.6c-0.1-1.3-0.1-2.3-0.1-3V56
	l-0.1-4C86.1,48.9,86.6,45.2,88.8,45.2z M76.9,84.9c0-0.1,0-0.2,0-0.3c-0.1-1.6-1.5-2.8-3.1-2.7h-0.4l-0.3,0.2
	c-0.2,0.2-0.5,0.3-0.9,0.4c-1.3,0.1-2.6-0.4-3.7-1.2c-0.4-0.4-0.7-0.9-1-1.4c-0.4-0.8-0.7-1.6-0.9-2.5c-0.3-1.7-0.4-3.3-0.3-5L67,59
	v-0.3c0-2.1,0.2-4.2,0.5-6.3c0.2-1.1,0.6-2.3,1-3.4c0.1-0.9,0.4-1.9,0.8-2.7c0.5-0.6,1.2-0.9,2-0.8l1.3,0.1c1.8,0.1,3.4-1,4-2.7
	l0.1-0.2v-0.5c0-0.8-0.4-1.5-1-2c-0.6-0.5-1.3-0.8-2-0.8c-3.2,0-6.5,0.7-8.3,2C61.7,44.1,60,52.1,60,65.8v4c0,9.3,1.6,14.9,5,17.1
	c0.9,0.5,1.8,0.9,2.8,1.1c1.4,0.3,2.9,0.5,4.3,0.5C76.3,88.6,76.9,86.3,76.9,84.9z M98.5,105.8c-1.5,1.8-2.8,3.6-2.8,5.8
	c0,4.2,3.5,6.2,7.9,6.2c1.8,0,3.5-0.6,5-1.7c1.3,0.7,2.7,1.1,4.2,1.2c0.7,0,1-0.4,1-0.7c0-0.3-0.2-0.6-0.6-0.6
	c-1.1-0.1-2.2-0.5-3-1.2c1.8-2.1,2.8-4.7,2.8-7.5c0.7,0.2,1.5,0.3,2.2,0.3c1.2,0,2.7-0.7,2.7-2c0-0.4-0.2-0.7-0.5-0.8
	c-0.4,0-0.5,0.1-0.6,0.2c-0.1,0.1-0.1,0.3-0.1,0.4c0,0.3-0.1,0.4-0.4,0.4c-1.8,0-3.8-2.7-6.8-2.7c-0.4,0-0.8,0.1-1.2,0.2
	c-1.5,0.7-2.4,2.2-2.5,3.9c0,0.7,0.2,1.3,0.7,1.8c0.1,0.1,0.3,0.2,0.5,0.2c0,0,0,0,0,0c0.2,0,0.4-0.2,0.4-0.4c0-0.1,0-0.2-0.1-0.3
	c-0.1-0.3-0.1-0.6-0.1-0.8c0-0.4,0.1-0.8,0.3-1.2c0.2-0.4,0.6-0.6,1-0.6c0.9,0.1,1.7,0.3,2.5,0.6v0.6c0,1.9-0.4,4.7-2.4,6.4
	c-2.4-2.2-4.4-4.8-6-7.6c1.7-1.8,3.7-3.8,3.7-6.9s-1.9-4.4-4-4.4c-1.9,0-4.6,2-4.6,6.6C97.5,102.7,97.9,104.3,98.5,105.8z M102,96.1
	c0.8,0,1,1,1,1.8c0,0,0,0,0,0v0c0,0,0,0,0,0c0,1.8-0.6,3.5-1.7,4.8c-0.2-0.6-0.3-1.2-0.3-1.8C101,98.9,101.2,96.1,102,96.1z
	 M100.1,108.8c1.6,2.3,3.6,4.4,6,6c-0.8,0.2-1.6,0.3-2.4,0.3c-3.8,0-4.2-2.1-4.2-3.9C99.5,110.3,99.7,109.5,100.1,108.8z
	 M62.7,107.2c-3.3,0-12.3-0.7-12.4,13.1c0,7.2,8.4,16.4,8.7,21.1c0.3,3.7-2.8,3.7-4.6,3.4s-2-1.8-2.9-2.2c-0.2-0.1-0.4-0.1-0.7-0.2
	c-0.3,0-2.6,0.7-2.2,2c0.2,1,0.6,2,1.1,2.9c0.7,0.8,1.6,1.5,2.5,2h0c2.9,1.4,8.8,1.3,11.9-2.5c2.5-3.1,2.1-7.2,1.8-8.6
	c-1.2-6.5-8.6-12.4-8.4-20.4c0.2-6,3.2-7.2,4.9-7.2s2.2,2,3.1,2c1.2,0,1.7-1.4,1.7-1.9C66.9,108.6,64.9,107.1,62.7,107.2z
	 M163.1,131.9c-0.7,0-1.5,1.1-2.2,2.4c-1.3,1.7-4.8,8.1-10,8.1c-1.6,0-3.5-1.3-4.5-4.8c2.6-3,5.6-8.6,5.6-12.7c0-3-1.5-5.2-5.8-5.2
	c-2,0-6.8,0.8-6.8,10.6c0,1.1,0.1,2.1,0.1,3c-0.8,0.6-1.4,1.3-1.9,2.1c-2.2,3.4-5.2,7.8-6.8,7.8c-0.8,0,0-9.5-3.9-11.1
	c-1.4-0.5-2.8-0.8-4.3-0.9c0,0,0,0,0-0.1c0.2-0.8,0.3-1.6,0.3-2.4c0-1.4-0.5-2.8-3.2-2.8c-0.9,0-1.6,2.4-1.6,4.2
	c0,1.3,0.5,2.6,1.4,3.5c-1.3,3.5-1.9,5.2-3.2,6.8c-1.3,1.6-2.7,3.1-4,3.1c-2.3,0-1.7-6.4-1.9-11c-0.2-4.4-2.4-4.5-3.8-4.5
	c-0.7,0-1.3,0.3-1.7,0.8c-0.5-0.4-1.1-0.7-1.7-0.6c-2.3,0-6.9,1-9,6.7c-1.2,2.2-3.7,9.7-6.2,9.7s-1.1-13.7-8.8-13.7
	c-1.6,0-2.9,2.1-4.1,4.6c0.1-1.4,0.2-3.1,0.2-4.9c0-1.3-0.1-2.7-0.1-4.2c2-4.6,4.7-9.4,4.7-13.8c0-2.9-1.3-4.5-3.1-4.5
	c-7.1,0-7,18.5-8,37.6c0,0,0.8,2.7,3,2.4c4.6-1.6,5.1-13.6,7.5-13.6c1.9,0-1.3,14.2,8.3,14.2c2.7,0,4.6-1.9,5.8-4.4
	c0.5,1.8,2.1,3,4,2.9c1.2,0,4.4-0.9,6.5-5c0.7,3,2.4,5.1,5.9,5.1c0.6,0,1.2-0.1,1.8-0.3c2.2-0.4,7.5-2.2,11.7-12.5
	c1.8,0.8,2,2.9,2,4.8v2c0,5.7,1.7,8,3.7,8c3.6,0,8.3-7.2,10.6-11.3l0.3-0.6c1.2,6.9,4.5,10.2,10.1,10.2c6.5,0,10.3-6.2,12.7-11.7
	c0.5-1,0.8-2.1,0.9-3.2C163.6,132.2,163.4,131.9,163.1,131.9z M74.9,120.1c0,0,0.6-9,1.5-9c0.1,0,0.6,0.3,0.6,1.7
	c0,1.3-0.5,3.7-2.1,7.9V120.1z M103.2,133.5c-0.8,3.9-3.9,10.4-5.2,10.5c0,0-0.1-0.3-0.1-0.6c0-2.7,1.9-12.8,4.7-12.8
	c0.5,0,0.8,0.4,0.8,1.1C103.3,132.3,103.2,132.9,103.2,133.5z M145.2,129c0-3.8,0.6-6.8,1.7-6.8s1.5,0.9,1.5,2.2
	c0,2.8-1.8,7.3-2.8,9.4C145.3,132.2,145.2,130.6,145.2,129z"/>
</svg>
