<?xml version="1.0" encoding="utf-8"?>
<!-- Generator: Adobe Illustrator 19.0.0, SVG Export Plug-In . SVG Version: 6.00 Build 0)  -->
<svg version="1.1" id="Layer_1" xmlns="http://www.w3.org/2000/svg" xmlns:xlink="http://www.w3.org/1999/xlink" x="0px" y="0px"
	 width="994px" height="708px" viewBox="0 0 994 708" enable-background="new 0 0 994 708" xml:space="preserve">
<path id="XMLID_74_" d="M0,0v708h994V0H0z M19.7,699.8c-5.6,0-10.1-4.6-10.1-10.1s4.6-10.1,10.1-10.1c5.6,0,10.1,4.6,10.1,10.1
	S25.2,699.8,19.7,699.8z M19.7,29.1c-5.6,0-10.1-4.6-10.1-10.1c0-5.6,4.6-10.1,10.1-10.1c5.6,0,10.1,4.6,10.1,10.1
	C29.8,24.6,25.2,29.1,19.7,29.1z M973.7,699.8c-5.6,0-10.1-4.6-10.1-10.1s4.6-10.1,10.1-10.1c5.6,0,10.1,4.6,10.1,10.1
	S979.2,699.8,973.7,699.8z M973.7,29.1c-5.6,0-10.1-4.6-10.1-10.1c0-5.6,4.6-10.1,10.1-10.1c5.6,0,10.1,4.6,10.1,10.1
	C983.8,24.6,979.2,29.1,973.7,29.1z"/>
</svg>
