<?xml version="1.0" encoding="utf-8"?>
<!-- Generator: Adobe Illustrator 23.1.1, SVG Export Plug-In . SVG Version: 6.00 Build 0)  -->
<svg version="1.1" id="Layer_1" xmlns="http://www.w3.org/2000/svg" xmlns:xlink="http://www.w3.org/1999/xlink" x="0px" y="0px"
	 viewBox="0 0 955.6 16" style="enable-background:new 0 0 955.6 16;" xml:space="preserve">
<style type="text/css">
	.st0{fill-rule:evenodd;clip-rule:evenodd;}
</style>
<path class="st0" d="M788.8,0.9c-34,0-55.4-2.1-111.4,0.2c-23.5,1-45.8-0.7-70,0c-20,0.6-41.5,0.3-60.8,0.3
	c-24.2,0-46.9-0.4-68.7-0.5l-0.6,0.4c-0.6,0.3-1.2,0.7-1.7,1.3c-4.1,4.1-6.2,9.7-8.5,9.7c-1.4,0-3.2-1.9-5.3-4.9
	c-1.5-2.2-3.3-4.2-5.3-6c-1.5-0.3-3-0.4-4.5-0.4c-19.7,0-41.1,1.5-56.9,1.5c-39.2,0-60.3-0.8-61.7-1C329.6,1,222.3,1,130.5,1.1
	C60.8,1.3,7,2.4,7,2.4l-7,2c0,0,9.1-0.9,25.9-1c27.6-0.1,73.6,0.7,118,0.6C210,3.9,275,4.8,280.2,4.6c32.7-1.4,66.5-0.1,65.1-0.2
	c-0.8-0.1,14.7-0.1,41.1-0.2c21.2,0,39.8-0.5,67.7-0.7c0.4,0,0.7,0.2,1,0.4c0.8,1,1.6,1.9,2.5,2.8c1.9,1.5,2.3,2.8,3.5,4.3
	c2.6,3,4.2,4.9,5.5,5c1.5,0,3.1-1.9,4.7-3.7c1.1-1.4,2.1-2.8,3.7-4.6c1.3-1.4,1.6-2.6,3.1-4c0.2-0.2,0.5-0.3,0.8-0.3h3.7
	c43.7,0,103.8,0,153.3,0c31.7,0,65.1-0.5,96.3-0.6c56.2,0,107.6,0.5,146.5,0.6c45.4,0,59.7,0,59.7,0l16.9-2
	C955.6,1.5,885.8,0.9,788.8,0.9z"/>
</svg>
