<?xml version="1.0" encoding="utf-8"?>
<!-- Generator: Adobe Illustrator 27.0.0, SVG Export Plug-In . SVG Version: 6.00 Build 0)  -->
<svg version="1.1" id="Layer_1" xmlns="http://www.w3.org/2000/svg" xmlns:xlink="http://www.w3.org/1999/xlink" x="0px" y="0px"
	 viewBox="0 0 339.5 93.1" style="enable-background:new 0 0 339.5 93.1;" xml:space="preserve">
<style type="text/css">
	.st0{fill:#999999;}
</style>
<path d="M163.1,84.1l-4.5,5.6l2.4,1.1l4.5-5.6c0.8,0.3,1.9,0.5,3,0.7l-0.2-0.7C168.4,85.1,164.9,84.8,163.1,84.1z M178.9,84.9
	l-2.3,7.2h-4.4l0.2,1h6.6l2.3-7.2c0.9,0.1,2.4-0.2,3.5-0.4l-1-1.3C183.8,84.2,180.5,85,178.9,84.9z M332.5,11.8
	c-4.6-4.5-31-3.8-53.7-3c-9.3,0.3-43.8,0.5-82.4,0l0.4-4l-2.5-1l-0.8,7.4c0,0,3,1.1,4.1,2.8l6.6-3.6l4.4,4.8l-3.4,6.3
	c0,0,1.8,2.3,2.9,4.3l7.2-0.8l2.3,6.1l-5.6,4.4c0,0,0.7,2.4,0.9,5.1l7.1,2.1v6.4l-7.1,2.1c0,0,0,2.8-0.9,4.9l5.6,4.9l-2.5,5.7
	l-7.3-0.8c0,0-1.1,2.2-2.8,4.1l3.5,6.5l-4.4,4.4l2.2,1.3l4.1-4c20.5-0.8,35.1-1.7,37.3-2.1c8.6-1.6,66.8,5.3,70.7,4
	c3.9-1.3,10,0.5,15-5c3.4-3.8,5.9-26.8,6-31C339.5,41,337.1,16.2,332.5,11.8z M240.1,25.2l0,0.3c0,0.5,0,1.3-0.6,1.8
	c-0.4,0.3-1,0.3-1.5,0.3c-0.1,0-0.2,0-0.3,0l-2.8,0l-0.1,0.3c0,0.8,0,1.8,0,3c-0.1,3.7-0.2,8.7,0.3,14.5c0.5,5.6,0.4,10.2,0.3,13.8
	c0,1.2-0.1,2.4-0.1,3.3c0,0.5,0.3,1.4-0.2,1.9c-0.4,0.4-1.3,0.3-1.8,0.3l-0.2,0c-0.3,0-0.6,0-0.9,0c-0.3,0-0.5,0-0.6,0
	c-0.2-0.1-0.5-0.2-0.4-1.7l0-4.1l0,0l0.1-2c-0.1-0.3-0.1-0.9-0.1-2.4c0-2.2-0.1-6-0.4-11.2c-0.4-6.3-0.2-10.9-0.1-13.6
	c0-0.8,0-1.4,0-1.8c-0.7,0-1.4,0-2,0c-1.3,0-2.2,0.1-2.6-0.2c-0.7-0.4-1-0.9-1-1.4c0,0,0.1-2.2,0.8-2.6c0.5-0.3,1-0.4,1.4-0.4
	l9.7-0.1l1.4,0c0.4,0,0.8,0.1,1,0.4C240.1,23.8,240.1,24.6,240.1,25.2z M255,64.3c-0.6,0.3-1.2,0.5-2,0.5h-6.2
	c-0.6,0-1.1-0.2-1.6-0.6c-0.4-0.4-0.7-1-0.7-1.6c0-0.6,0-1.3,0.1-2.1c0.1-0.8,0.2-1.4,0.2-1.9l-0.3-7.7l0.4-17.5l-0.3-5
	c0-3.1,1-4.6,2.9-4.6c0.5,0,3.6,0.3,4.1,0.3c0.1,0,0.3,0,0.5,0c0.3,0,0.6-0.1,1,0c0.3,0,0.6,0.1,0.9,0.1c0.8,0.1,1.5,0.1,1.5,1
	l0,0.2c0,0.9,0,2.3-1.3,2.8l-0.1,0l-0.1,0c-1.1-0.1-2.3-0.1-3.3-0.2c-0.7,0-1.4-0.1-1.9-0.1c0,0.7,0.1,1.4,0.1,2.2l-0.3,8.6
	c0,0,0,0.2,0.1,0.5l1.8-0.1c0.4,0,0.7,0,1,0c1.1,0,1.8-0.1,2.3,0.4c0.2,0.2,0.3,0.5,0.3,0.8c0,0,0,2-0.5,2.6l-0.1,0.1
	c-0.4,0.5-0.5,0.5-1.2,0.5h-0.2c-0.6,0-1.5,0-2.3-0.1l-1.1,0.1c0.1,1.3,0.1,2.3,0.1,3.4v0.2L248.6,58c0,3,1.3,3,1.8,3l2.9-0.1
	c0,0,0,0,0,0c2.2,0,2.7,1,2.7,1.8C256,63.4,255.6,64,255,64.3z M272.6,61.3c0,0.5-0.1,1.3-0.5,1.7c-0.4,0.4-0.8,0.3-1.3,0.3
	l-4.9,0.1l-2.6,0.1h0c-1.3,0-1.9-0.5-2.3-1.3l0-0.2c0-0.6,0.1-1.1,0.3-1.5c0.1-0.3,0.5-0.7,1.3-0.7h1.1l0.1-0.5l-0.4-12.7l0.3-13.4
	c0-2.1-0.1-4.1-0.3-6h-1.7c-0.8,0-1.4-0.1-1.8-0.4c-0.4-0.3-0.7-0.8-0.7-1.6c0-0.4,0.1-0.8,0.4-1.1c0.5-0.5,1.4-0.7,2.9-0.7h0.2
	c5.6,0,8.8,0.1,8.8,1.8c0,0.2,0,1.3-0.2,1.9l-0.3,0.2l-3.6,0c0.1,1.4,0.2,3,0.2,4.8l-0.3,11.5l0.4,12.7v1.8c0,0.3,0,0.7-0.1,1.2h2.1
	c1.2,0,2.1,0.1,2.5,0.4S272.6,60.9,272.6,61.3z M289,63c0,0.6-0.1,1.4-0.6,1.8c-0.4,0.3-1,0.1-1.6,0.2c0,0-3.2-0.3-5.2-0.3
	c-1.6,0.6-3,0.3-3.7-0.6c-0.4-0.5-0.6-1-0.6-1.6l0.6-27.2c-0.1-1.2-0.2-3.1-0.2-5.6c0-4.1,0.8-6.1,2.5-6.1c0.5,0,1,0.2,1.3,0.5
	c0.4,0.4,0.6,0.8,0.6,1.3l-0.4,4.6l0.2,14.5l0,0.1c-0.1,0.4-0.3,1.2-0.3,3.1l-0.2,9.6c0,2.5,0.6,3.7,1.6,3.7l2.5-0.1c0,0,0,0,0,0
	c1.5,0,2.6,0.1,3.4,0.4C289,61.4,289,62.5,289,63z M303.9,64.7c-0.2,0.1-0.5,0.2-0.8,0.2c-0.3,0-0.6,0-0.8-0.1
	c-0.2,0-0.5-0.1-0.7-0.1h-5.7c-0.6,0-1.1-0.2-1.6-0.6c-0.4-0.4-0.7-1-0.7-1.6c0-0.2,0-0.4-0.1-0.6c-0.1-0.4-0.2-1-0.1-1.6
	c0.1-0.8,0.2-1.4,0.2-1.9l0-7.7l0.4-17.5l-0.3-5c0-3.1,1-4.6,2.9-4.6c0.1,0,0.2,0,0.4,0c0.5,0,1.1-0.1,1.5,0.1c1-0.1,3.1-0.2,3.8,0
	l0.4,0.1c0.9,0.2,1.6,0.4,1.6,1.3c0,1.6-0.5,2.7-1.6,3l-0.1,0l-0.1,0c-1.2-0.4-2.5-0.4-3.6-0.4c-0.4,0-0.7,0-1,0
	c0,0.7,0.1,1.5,0.1,2.2l-0.3,8.6c0,0,0,0.2,0.1,0.5l1.8-0.1c1.3,0,3.5,0,3.5,1.7c0,0.1,0,0.3,0,0.4c0,0.4,0.1,1-0.3,1.4
	c-0.4,0.5-1.1,0.8-1.9,0.8c-0.2,0-0.4,0-0.6,0.1c-0.5,0.1-1.1,0.2-1.5-0.1h-0.9c0.1,1,0.1,1.9,0,2.8l0,1L297.7,58c0,3,1.3,3,1.8,3
	l2.4-0.1c2.4,0.1,2.8,0.8,2.8,2.1C304.7,63.3,304.7,64.3,303.9,64.7z M323.3,63.8c-0.1,0.1-0.1,0.1-0.2,0.2
	c-0.3,0.4-0.8,0.6-1.3,0.6c-1.5,0-2.8-2.2-4-6.8c-0.3-1.1-0.6-1.9-1-2.9c-0.3-0.7-0.5-1.4-0.9-2.4c-0.8-3.8-1.9-6.1-2.5-7.3
	c0,0.1,0,0.1,0,0.2l-0.1,0.6c-0.2,0.9-0.2,2.8-0.2,3.9l0,0.6c0,0.2,0,0.4,0,0.6c0,0.7,0,1.5,0.2,4c0.1,1.3,0.2,2.5,0.3,3.6
	c0.1,1.6,0.3,2.9,0.3,3.4c0,1-0.1,1.3-0.5,1.8c-0.4,0.5-1,0.4-1.4,0.4c-0.1,0-0.2,0-0.3,0c-0.5,0-1.2-0.3-1.5-1.5
	c0-0.8,0-1.6-0.1-2.5c-0.1-0.9-0.1-1.9-0.1-3.1c0-0.4,0-0.8,0-1.4c0-2.5,0.1-6.8-0.2-12.8c-0.3-7.3-0.5-12.8-0.5-16.4
	c0-2.7,1.3-3.2,2.4-3.2c2.2,0,4.3,0.5,5.8,1.6c1.5,1,3.2,2.7,3.5,6c0.2,2.7,0,4.9-0.5,6.5c-0.4,1.6-2.3,3.4-4,4.8
	c0.1,0.4,0.4,1.1,0.7,1.9c0.4,1,0.9,2.2,1.4,3.6c0.7,2.1,1.3,4,1.8,5.7c1,3.1,1.7,5.5,2.6,7.3c0.1,0.3,0.3,0.5,0.5,0.8
	c0.3,0.5,0.6,0.9,0.6,1.3C324,63.2,323.6,63.5,323.3,63.8z M164.7,6.6l-3.3-4.4l-1.3,0.5l3.3,4.3C163.4,7.1,163.8,6.8,164.7,6.6z
	 M181,6.2L179.3,0h-2.2l1.6,6.1C178.7,6.1,179.7,6,181,6.2z M141.2,41.9c2.1-0.7,11.1-7.3,11.1-7.3l0,0l8.8-7.8
	c0.9-0.8,2.2-0.7,3,0.3c0.7,0.9,0.5,2.2-0.3,3l-4.4,3.8l-0.2,0.2c-0.8,0.7-0.3,2,0.7,2H179c0.8,0,1.5,0.7,1.5,1.5
	c0,0.8-0.7,1.5-1.5,1.5h-10.7c-0.8,0-1.4,0.6-1.4,1.4c0,0.8,0.6,1.4,1.4,1.4h13.6c0.8,0,1.5,0.6,1.6,1.4c0.1,0.9-0.6,1.7-1.5,1.7
	h-17.7c-0.7,0-1.2,0.6-1.2,1.3c0,0.7,0.6,1.3,1.2,1.3h15.5c0.9,0,1.6,0.8,1.5,1.7c-0.1,0.8-0.8,1.4-1.6,1.4h-17.8
	c-0.7,0-1.2,0.6-1.2,1.3v0.2c0,0.7,0.6,1.3,1.2,1.3h13.3c0.9,0,1.6,0.8,1.5,1.7c-0.1,0.8-0.8,1.4-1.6,1.4h-10
	c-0.5,0.1-0.9,0.5-0.9,1c0,0.5,0.4,0.9,0.9,0.9h18.5c0.9,0,1.7,0.5,2,1.4c0.3,0.8,0.1,1.8-0.6,2.3l-0.2,0.2l-4.3,3.8
	c-0.5,0.4-0.6,1.1-0.3,1.5c0.2,0.3,0.4,0.4,0.8,0.5c0.3,0,0.6-0.1,0.8-0.3l8.8-7.8c0.1-0.1,0.1-0.1,0.2-0.1c5.2-3.6,11.7-8,13.1-8
	c0.3,0,0.9,0,1.5,0c0.4-2,0.6-4.2,0.6-6.3c0-18-14.6-32.5-32.5-32.5C156.8,13,143,25.7,141.2,41.9z M141.8,69.8c0,0-2.2-2.6-2.6-4.2
	l-7.4,0.6l-2.1-5.9l5.4-4.6c0,0-0.9-2.3-0.9-4.9l-7.2-2.3v-6.2l6.9-2.2c0,0,0.4-2.8,1-4.8l-5.6-4.7l2.7-6l7.3,0.8
	c0,0,1.4-2.8,2.7-4.1l-3.6-6.3l4.6-4.8c0,0,6,3.2,6.6,3.5c0,0,1.4-1.5,3.8-2.6l-0.2-3.3C111.3,6.7,51.2,5,42.6,5.8
	C28.7,7.1,9.9,7.9,6.2,9.6c-3.7,1.8-5,22.7-6,30c-1,7.3,2.2,21.8,4,30c1.8,8.2,12.4,9.9,21.4,9.1c4.3-0.4,64.1,1.4,112.2,1
	c1.4,0,2.9,0,4.3,0l-3.7-3.8L141.8,69.8z M33.8,63.2c-0.2,1-1.1,1.6-2.2,1.6c0,0,0,0,0,0c-1-0.1-1.7-0.5-2.1-1.2
	c-2.2,1.3-4.6,1.5-6.8,0.6c-2.9-1.1-5.1-3.9-5.9-7.2c-1.8-6.6-1.5-12.5-1.2-18.7c1.1-11.9,2.6-19.4,11.9-19.8c0.8,0,3.5-0.1,3.8,1
	c0.3,1.2,0,2.6-0.7,3.1c-0.5,0.4-1.2,0.2-1.9,0.1c-0.2,0-0.4-0.1-0.6-0.1c-4.9-0.6-6.5,6.4-6.7,7.2c-1.4,7-1.7,14.5-1.2,22.3
	c0.1,3.6,1.6,6.9,4,7.7c1.7,0.6,3.6,0.5,5.4-1.4c0-1,0.1-2.7,0.2-3.5c0.1-1.5,0.2-2.6,0-3.2c-1.2,0.1-2.7,0.1-3.6-0.3
	c-0.8-0.3-0.7-1.2-0.7-2l0-0.4c0-0.2,0.1-0.5,0.4-0.7c1-0.9,4.2-1,5.7-0.9c1.3,0.1,2.1,0.5,2.4,1.2c0.2,0.4,0,2.9,0,2.9l0,0.1
	c-0.2,0.6-0.1,2.3,0.1,4C34.1,57.9,34.3,61.3,33.8,63.2z M48.9,64.1c-0.6,0.3-1.2,0.5-2,0.5h-5.7c-0.6,0-1.1-0.2-1.6-0.6
	c-0.4-0.4-0.7-1-0.7-1.6c0-0.6,0-1.3,0.1-2.1c0.1-0.8,0.2-1.4,0.2-1.9L39,50.6l0.4-17.5l-0.3-5c0-3.1,1-4.6,2.9-4.6
	c0.5,0,3.6,0,4.1,0c0.5,0.1,1.7,0.2,2.2,0.3c1.3,0.4,1.2,1,1.2,2c0,1-0.2,2-1.5,1.9s-3.7,0.1-4.8-0.1c0,0.7,0.1,1.4,0.1,2.1
	l-0.3,8.6c0,0,0,0.2,0.1,0.5l1.8-0.1c0,0,0,0,0,0c2.7,0,3.3,1.1,3.3,2c0,0.7-0.1,1.6-0.4,2.1c-0.4,0.5-2.5,0.6-3.5,0.5h-1
	c0.1,1.4,0,2.2,0,3.5l-0.3,10.9c0,3,1.3,3,1.8,3l2.4-0.1h0c2.2,0,2.7,1,2.7,1.8C49.9,63.2,49.5,63.8,48.9,64.1z M84.3,16.4
	c1-1.1,2.5-1,3.4,0c0.5,0.5,0.7,1.1,0.7,1.8c0,0.7-0.3,1.3-0.8,1.7c-0.5,0.4-1.1,0.7-1.8,0.7c-0.7,0-1.2-0.2-1.7-0.7
	c-0.4-0.5-0.7-1-0.7-1.7C83.6,17.6,83.8,17,84.3,16.4z M74,16.5c0.5-0.5,1-0.8,1.7-0.8c0.7,0,1.3,0.2,1.7,0.7c0.5,0.5,0.7,1,0.7,1.7
	c0,0.7-0.3,1.3-0.9,1.8c-0.6,0.5-1.2,0.7-1.8,0.7c-0.7,0-1.2-0.2-1.6-0.7c-0.4-0.4-0.5-1-0.5-1.7C73.4,17.6,73.6,17,74,16.5z
	 M67.5,64.2c-0.3,0.4-0.8,0.6-1.3,0.6c-1.5-0.1-2.7-2.3-3.7-6.9c-0.2-1.1-0.5-1.9-0.9-2.9c-0.2-0.7-0.5-1.4-0.8-2.4
	c-0.6-3.5-1.5-5.8-2.1-7.1c-0.1,2.3-0.3,6.9-0.2,9.2c0.1,2.6,0,4.7,0,5.8l0,0.5c0,1.3-0.2,2.2-0.5,2.6c-0.4,0.5-1.1,0.5-1.5,0.4
	c-0.1,0-0.2,0-0.3,0c-0.5,0-1.2-0.3-1.4-1.6c0-0.8,0-1.6,0-2.5c0-0.9-0.1-1.9,0-3.1c0-0.4,0-0.9,0.1-1.4c0.1-2.5,0.3-6.8,0.2-12.8
	c-0.1-7.3-0.1-12.8,0-16.4c0.1-2.7,1.4-3.2,2.5-3.1c2.2,0.1,4.4,0.2,5.8,1.4c0.8,0.6,3.3,3,3.5,6.8c0.1,2.6-0.2,4.5-1.1,6.3
	c-0.7,1.4-2.3,3.1-4.1,4.6c0.1,0.5,0.4,1.1,0.6,1.9c0.4,1,0.8,2.2,1.2,3.6c0.6,2.1,1.2,4.1,1.6,5.8c0.9,3.1,1.5,5.6,2.4,7.4
	c0.4,0.9,0.6,1.5,0.6,2C68,63.4,67.8,63.9,67.5,64.2z M87.4,64.5c0,0-0.1,0-0.1,0c-0.9,0-1.6-0.2-2.2-0.5c-0.6-0.3-0.9-1.1-0.9-2.4
	c0-1-0.5-6.9-1.1-9.9c-0.9,0.1-3.7,0.2-5.2,0c-0.2,2-0.8,9.9-0.9,10.2c-0.2,0.4-0.3,0.7-0.5,1.1c-0.4,0.8-1,1.2-1.6,1.2
	c-0.6,0-1.1-0.2-1.6-0.5c-0.5-0.4-0.7-0.9-0.7-1.5c0,0,0-0.1,0-0.1c0.8-3.2,1.4-6.6,2-10.1c0.1-0.8,0.3-1.7,0.4-2.6
	c0.4-2.6,0.7-5.5,1-8.1c0.2-1.8,0.3-3.4,0.5-4.4c0.3-1.9,0.6-2.9,0.8-3.6c0.1-0.4,0.2-0.7,0.2-1c0.1-0.7,0.2-1.6,0.3-2.9
	c0.2-2.9,0.6-4.7,1.1-5.5c0-0.1,0.1-0.1,0.2-0.1l1.9-0.6c0,0,0.1,0,0.1,0c1.3,0,2.1,0.2,2.1,1.4c0,6.1,1.3,12.5,2.6,18.6
	c0.3,1.5,0.6,3.1,0.9,4.6c0.1,0.4,0.2,1.1,0.4,1.8c0.5,1.8,0.7,3.2,0.7,4.2c0,0,0,0.1,0,0.1l-0.3,1.2c0,0.4,0.1,1.2,0.5,3.5
	c0.4,1.9,0.5,3.2,0.5,3.8C88.6,63.8,87.9,64.3,87.4,64.5z M105.1,25.5c0,0.2-0.1,0.4-0.1,0.6l0,0.2c0,0.5,0,1-0.5,1.4
	c-0.5,0.4-1.3,0.5-1.9,0.5l-2.8,0l-0.1,0.3c0,0.8,0,1.8,0,3c-0.1,3.7-0.2,8.7,0.3,14.5c0.5,6.1,0.5,10.6,0.5,14.2c0,0.8,0,1.6,0,2.3
	c0,0.1,0,0.3,0.1,0.5c0.1,0.6,0.2,1.3-0.1,1.7c-0.4,0.4-1.1,0.5-1.7,0.6c-0.2,0-0.3,0-0.4,0.1c-0.1,0-0.2,0-0.4,0
	c-0.5,0-1.3-0.1-1.6-0.4c-0.6-0.7-0.3-4.4-0.1-5.5l0.1-2c-0.1-0.3-0.1-0.9-0.1-2.4c0-2.2-0.1-6-0.4-11.2c-0.4-6.3-0.2-10.9-0.1-13.6
	c0-0.8,0-1.4,0-1.8c-0.7,0-1.4,0-2,0c-1.3,0-2.2,0.1-2.6-0.2c-0.7-0.4-1-0.9-1-1.4c0,0,0.1-2.2,0.8-2.6c0.5-0.3,1-0.4,1.4-0.4
	l9.3-0.3l1.5,0.1c0,0,0,0,0,0c0.4,0,1.3,0.1,1.7,0.5C105.3,24.4,105.2,25,105.1,25.5z M114.2,29.8l-0.3,8.6c0,0,0,0.2,0.1,0.5
	l1.8-0.1c0,0,0,0,0,0c2.7,0,3.3,0.5,3.3,1.6c0,0.7,0.1,1.7-0.2,2.2c-0.4,0.5-0.6,0.5-1.3,0.5c-0.7,0-1.8-0.1-2.6-0.2h-1
	c0.1,1.4,0.1,2.7,0.1,4L114,57.8c0,3,1.3,3,1.8,3l2.4-0.1h0c2.2,0,2.7,1,2.7,1.8c0,0.7-0.3,1.3-1,1.7c-0.6,0.3-1.2,0.5-2,0.5h-5.7
	c-0.6,0-1.1-0.2-1.6-0.6c-0.4-0.4-0.7-1-0.7-1.6c0-0.6,0-1.3,0.1-2.1c0.1-0.8,0.2-1.4,0.2-1.9l-0.3-7.7l0.4-17.5l-0.3-5
	c0-3.1,1-4.6,2.9-4.6c0.5,0,5.5-0.1,6.1,0c0.8,0.1,1,0.3,1.4,0.4c0.8,0.2,0.3,2.1,0.3,2.6c0,1-0.4,0.9-1.7,1c0,0-3.8,0.4-4.9,0.3
	C114.2,28.3,114.2,29,114.2,29.8z M173.5,78.1c15.1,0,27.8-10.3,31.4-24.2c-0.4,0-0.8,0-1,0c-0.9,0.2-6.9,4.1-12,7.7c0,0,0,0,0,0
	l-8.7,7.7c-0.6,0.5-1.3,0.8-2,0.8c-0.1,0-0.2,0-0.4,0c-0.9-0.1-1.6-0.6-2.1-1.3c-0.9-1.3-0.6-3.1,0.6-4.2l4.5-4c0,0,0.1-0.1,0-0.1
	c0-0.1-0.1-0.1-0.1-0.1h-18.5c-1.6,0-2.9-1.3-2.9-2.9c0-0.3,0.1-0.7,0.2-1c-1.2,0.1-3.6,0.2-7.5,0.2c-4.5,0.1-8.8,0-12-0.2
	C147.4,69.1,159.4,78.1,173.5,78.1z M197.6,77.3c0,0-1.3,1.4-4.1,2.7l0.7,7.4l-4.8,1.9l1.2,1.5l6-2.4L196,81c2.1-1,3.3-2,3.8-2.4
	L197.6,77.3z M82.2,41.7c-0.3-2.3-0.8-5.8-1.4-6.7c0,0-0.1,0-0.1,0c-0.2,1.1-0.6,2.9-1.1,4.8c-0.3,2.4-0.5,3.9-0.7,5
	c-0.2,1.5-0.4,2.3-0.4,3.9c0.4,0.1,1.2,0.1,2.1,0.1c0.7,0,1.5,0,2.4,0.1c0-0.4-0.1-1-0.2-1.9C82.6,45.3,82.4,43.1,82.2,41.7z
	 M149.5,77.2l-5.5,2.9l1.5,1.5l3.8-2c1.2,0,2.3,0,3.5-0.1C151.7,78.9,150,77.8,149.5,77.2z M316.6,28.7c-0.3-1.1-2.2-2.2-3.4-2.5
	l-0.1,0.5c0,1.5,0,3.9,0.1,7c0.1,2.6,0.1,4.7,0.1,6.1c0.8-0.6,2.7-1.9,3.8-5.2C317.5,33.5,318.2,31.1,316.6,28.7z M62,29.2
	c-0.3-1.1-2-2.8-3.2-3.1l-0.1,0.5c0,1.5-0.1,3.9-0.1,7c0,2.6-0.1,4.6-0.1,6.1c1-0.8,2.8-2.4,3.9-5.3C62.9,33.1,62.8,31.1,62,29.2z"
	/>
<path class="st0" d="M43.1,57.8c0,2.6,1,2.9,1.6,3c0-0.3-0.1-0.8-0.1-1.3l0.3-10.7c0-1.2,0.2-2.5,0.1-3.9l0.4-0.2
	c0.9,0.1,3.2-0.1,3.6-0.6c0.4-0.5,0.4-1.3,0.5-1.9c0-0.9-0.4-1.3-1.4-2.2c0.2,0.3,0.3,0.7,0.3,1c0,0.7-0.1,1.6-0.4,2.1
	c-0.4,0.5-2.5,0.6-3.5,0.5h-1c0.1,1.4,0,2.2,0,3.5L43.1,57.8z M22.5,57.7c0-0.2-0.1-0.4-0.1-0.8c-0.3-2.2-0.6-8-0.6-11.6
	c0-0.1,0.3-4.8,0.4-6.6c0.2-0.9,0.2-2.6,0.3-3.8c0.4-4.6,0.6-10,4.7-10.4l1.4,0.1l0.2,0c0.9,0.2,1.9,0.4,2.7-0.2
	c0.6-0.5,1-1.3,1.1-2.5c0.2-1.6-1.9-2.8-1.9-2.9l-0.1-0.1h0c0.3,0.1,0.5,0.3,0.6,0.6c0.3,1.2,0,2.6-0.7,3.1
	c-0.5,0.4-1.2,0.2-1.9,0.1c-0.2,0-0.4-0.1-0.6-0.1c-4.9-0.6-6.5,6.4-6.7,7.2c-1.4,7-1.7,14.5-1.2,22.3c0.1,2.8,1,5.4,2.5,6.8
	C22.6,58.5,22.5,58.2,22.5,57.7z M76.1,21.9c0.7,0,1.3-0.2,1.8-0.7c0.6-0.5,0.8-0.9,0.8-1.6c0-0.7-0.5-2.5-1-2.9c0,0,0,0-0.1,0
	c0.3,0.4,0.5,0.9,0.5,1.5c0,0.7-0.3,1.3-0.9,1.8c-0.6,0.5-1.2,0.7-1.8,0.7c-0.7,0-1.2-0.2-1.6-0.7c-0.1-0.1-0.2-0.2-0.2-0.4
	c0.2,0.6,0.5,1.3,0.8,1.7C74.9,21.7,75.4,21.9,76.1,21.9z M26.1,51.4c-0.3-0.2-0.5-0.4-0.6-0.7c0,0.4,0.1,0.8,0.2,0.9
	c0.2,0.7,0.5,1.3,1.1,1.7c0.7,0.4,2.1,0.5,3.1,0.5c0.1-0.9,0.1-1.6,0-2C28.6,51.8,27,51.8,26.1,51.4z M60.1,56.6
	c-0.1-3.1-0.2-5.1-0.2-6c0-0.5,0.1-0.9,0.2-1.4c-0.5-1.7-1-2.9-1.4-3.7c-0.1,2.3-0.3,6.9-0.2,9.2c0.1,2.6,0,4.7,0,5.8l0,0.5
	c0,1.3-0.2,2.2-0.5,2.6c-0.4,0.5-1.1,0.5-1.5,0.4c-0.1,0-0.2,0-0.3,0c-0.4,0-0.9-0.2-1.2-0.8c0.3,1.4,2.2,2.9,2.9,2.9
	c0.7,0,1.7-0.4,2.2-1c0.4-0.6,0.7-1.4,0.7-2.5c0-0.4-0.1-1-0.2-1.8C60.4,59.7,60.2,58.3,60.1,56.6z M49.1,24.2
	c0.5,0.4,0.4,0.9,0.4,1.6c0,1-0.2,2-1.5,1.9s-3.7,0.1-4.8-0.1c0,0.7,0.1,1.4,0.1,2.1l-0.3,8.6c0,0,0,0.2,0.1,0.5l1.2-0.1l0.3-7.3
	c0-0.7,0.1-1.8,0-2.5c1.1,0.2,3.4-0.1,4.1-0.1c0.7-0.1,1.7-0.1,1.7-1.1c0-0.4,0.1-0.8,0.1-1.4C50.7,25.3,49.9,24.4,49.1,24.2z
	 M80.5,48.8c0.1-1.1,0.2-1.8,0.4-3c0.2-1.1,0.4-2.6,0.7-5c0.1-0.7,0.2-1.3,0.2-1.9c-0.3-1.7-0.6-3.3-1-3.9c0,0-0.1,0-0.1,0
	c-0.2,1.1-0.6,2.9-1.1,4.8c-0.3,2.4-0.5,3.9-0.7,5c-0.2,1.5-0.4,2.3-0.4,3.9C78.8,48.7,79.6,48.8,80.5,48.8z M35.5,54.6
	c0-1,0-1.7-0.3-2.6c0-0.1-0.7-2.3-1.4-3.5c0.2,0.5,0,2.9,0,2.9l0,0.1c-0.2,0.6-0.1,2.3,0.1,4c0.2,2.4,0.4,5.8-0.1,7.7
	c-0.2,1-1.1,1.6-2.2,1.6c0,0,0,0,0,0c-1-0.1-1.7-0.5-2.1-1.2c-2.2,1.3-4.6,1.5-6.8,0.6c-0.9-0.3-1.6-0.8-2.4-1.4
	c0.3,0.3,0.6,0.6,0.8,0.9l0.5,0.5c0.9,0.9,2,2.1,3.1,2.4c0.7,0.2,1.3,0.3,1.8,0.3c0.9,0,1.7-0.3,2.9-1c0.4,0.4,1.4,1,3,1
	c0,0,0,0,0,0c0.9,0,2-0.3,2.4-1.2c1-2.4,0.8-7.2,0.7-9.6C35.5,55.4,35.5,54.9,35.5,54.6z M49.8,61.8c0.1,0.2,0.1,0.4,0.1,0.6
	c0,0.7-0.3,1.3-1,1.7c-0.6,0.3-1.2,0.5-2,0.5h-5.7c-0.5,0-1-0.2-1.4-0.5c0.3,0.7,0.7,1.3,0.9,1.6c0.4,0.4,1,0.6,1.6,0.6h5.3
	c0.7,0,1.4-0.2,2-0.5c0.6-0.3,1-0.9,1-1.7c0-0.4-0.4-1.9-0.7-2.2C49.9,61.9,49.8,61.9,49.8,61.8z M86.3,22c0.7,0,1.3-0.2,1.8-0.7
	c0.6-0.5,0.8-0.9,0.8-1.6c0-0.5-0.3-1.6-0.6-2.4c0.1,0.3,0.1,0.6,0.1,0.8c0,0.7-0.3,1.3-0.8,1.7c-0.5,0.4-1.1,0.7-1.8,0.7
	c-0.7,0-1.2-0.2-1.7-0.7c-0.2-0.2-0.3-0.5-0.5-0.7c0,0,0,0.1,0,0.1c0.1,0.7,0.6,1.6,0.9,2C85.1,21.8,85.6,22,86.3,22z M299.4,61
	c-0.1-0.4-0.2-0.9-0.2-1.8l0.4-10.5c0-1.2,0-2.1-0.1-3.4l0.8-0.1c0.5,0.4,1.4-0.2,2.1-0.2c0.7,0,1,0.2,1.4-0.4
	c0.4-0.5,0.4-1.8,0.4-2.5c0-0.8,0.2-2.3-2.1-2.8c0.6,0.2,1,0.6,1,1.4c0,0.1,0,0.3,0,0.4c0,0.4,0.1,1-0.3,1.4
	c-0.4,0.5-1.1,0.8-1.9,0.8c-0.2,0-0.4,0-0.6,0.1c-0.5,0.1-1.1,0.2-1.5-0.1h-0.9c0.1,1,0.1,1.9,0,2.8l0,1L297.7,58
	C297.7,60.8,298.9,61,299.4,61z M282,25.4l-0.4,4.6l0.2,14.5l0,0.1c-0.1,0.4-0.3,1.2-0.3,3.1l-0.2,9.6c0,2.5,0.6,3.7,1.6,3.7l0.1,0
	c-0.1-0.5-0.1-1.3-0.1-2.5l0.2-9.6c0-1.9,0-2.8,0.1-3.1l0-0.1l-0.2-14.5l0.3-3.7c0-0.5-0.4-2-0.7-2.5c-0.4-0.7-1.3-1.4-1.8-1.4
	c0,0-0.1,0-0.1,0c0.3,0.1,0.5,0.2,0.7,0.4C281.9,24.4,282,24.9,282,25.4z M267.8,56.4v1.8c0,0.3,0,0.7-0.1,1.2h1.5c0,0,0,0,0,0v-1.8
	L269,44.9l0.3-11.5c0-1.8,0.1-3.1,0-4.5l1.8-0.1l0.9-0.1c0.2,0,0.3-0.1,0.3-0.3c0.2-0.6,0.2-1.6,0.2-1.8c0-0.5-0.7-1.4-1-1.8
	c-0.3-0.4-0.7-0.6-1.3-0.7c0.8,0.3,1.3,0.7,1.3,1.3c0,0.2,0,1.3-0.2,1.9l-0.3,0.2l-3.6,0c0.1,1.4,0.2,3,0.2,4.8l-0.3,11.5
	L267.8,56.4z M297.8,39.1l1.4-0.1l0.3-7.3c0-0.7,0-1.9-0.1-2.6c1.1,0.2,1.6-0.1,3.2,0.4l1.2,0.1c1.7-0.3,1.8-1.4,1.9-2.4
	c0.3-2.1-1.1-3-2.4-3.4c0,0-0.1,0-0.1,0c0.6,0.2,1.1,0.5,1.1,1.2c0,1.6-0.5,2.7-1.6,3l-0.1,0l-0.1,0c-1.2-0.4-2.5-0.4-3.6-0.4
	c-0.4,0-0.7,0-1,0c0,0.7,0.1,1.5,0.1,2.2l-0.3,8.6C297.7,38.6,297.8,38.8,297.8,39.1z M62,29.2c-0.3-1.1-2-2.8-3.2-3.1l-0.1,0.5
	c0,1.5-0.1,3.9-0.1,7c0,2.6-0.1,4.6-0.1,6.1c0.4-0.3,1-0.9,1.7-1.6c0-0.5,0-1.1,0-2.1c0-2.2,0.1-4.3,0.1-5.9c0-0.5,0-1,0-1.4l0,0
	c0.7,0.2,1.5,1,2.1,1.9C62.4,30.2,62.2,29.7,62,29.2z M115.7,60.8c0-0.4-0.1-0.8-0.1-1.3l0.1-10.7c0-1.2,0.1-2.7,0-4.1
	c0,0,1.6,0.1,2.2,0.1c0.7,0,1.5-0.3,1.9-0.8c0.2-0.2,0.3-1.8,0.3-2.5c0-0.7-1.3-2.1-1.3-2.1s0,0,0,0c0.3,0.2,0.4,0.6,0.4,1
	c0,0.7,0.1,1.7-0.2,2.2c-0.4,0.5-0.6,0.5-1.3,0.5c-0.7,0-1.8-0.1-2.6-0.2h-1c0.1,1.4,0.1,2.7,0.1,4L114,57.8
	C114,60.7,115.2,60.8,115.7,60.8z M239.6,23.3L239.6,23.3C239.6,23.3,239.6,23.3,239.6,23.3C239.6,23.3,239.6,23.3,239.6,23.3z
	 M250.4,61l0.1,0c-0.1-0.4-0.2-1-0.2-1.7l0.3-10.7c0-1.2,0-2.3-0.1-3.7c0,0,1.9,0.1,2.6,0.1c0.7,0,1.4,0.2,1.8-0.4
	c0.4-0.5,0.6-1.9,0.6-2.6c0-0.9,0.3-1.4-1.7-2.5c0,0,0,0,0.1,0c0.2,0.2,0.3,0.5,0.3,0.8c0,0,0,2-0.5,2.6l-0.1,0.1
	c-0.4,0.5-0.5,0.5-1.2,0.5h-0.2c-0.6,0-1.5,0-2.3-0.1l-1.1,0.1c0.1,1.3,0.1,2.3,0.1,3.4v0.2L248.6,58C248.6,60.9,250,61,250.4,61z
	 M248.7,39.1l1.7-0.1l0.2-7.9c0-0.7-0.1-0.9-0.1-1.6c1.1,0.2,4.4-0.1,5.1-0.1c0.7,0,0.9-1.3,0.9-2.3c0-0.9,0.1-1.7-1.1-2.6
	c0.1,0.1,0.1,0.3,0.1,0.5l0,0.2c0,0.9,0,2.3-1.3,2.8l-0.1,0l-0.1,0c-1.1-0.1-2.3-0.1-3.3-0.2c-0.7,0-1.4-0.1-1.9-0.1
	c0,0.7,0.1,1.4,0.1,2.2l-0.3,8.6C248.6,38.6,248.7,38.8,248.7,39.1z M89.5,57.2c-0.1-0.4-0.2-0.7-0.2-0.9l0.5-1.3c0,0,0-0.1,0-0.1
	c0-1-0.2-2.5-0.7-4.2c-0.2-0.8-0.4-1.4-0.4-1.8c-0.4-2-0.8-4-1.2-5.8c-1.1-5.1-2.2-9.9-2.6-16.2c-0.1-0.8-0.7-2.2-1.9-2.9
	c0.1,0.2,0.2,0.4,0.2,0.8c0,6.1,1.3,12.5,2.6,18.6c0.3,1.5,0.6,3.1,0.9,4.6c0.1,0.4,0.2,1.1,0.4,1.8c0.5,1.8,0.7,3.2,0.7,4.2
	c0,0,0,0.1,0,0.1l-0.3,1.2c0,0.4,0.1,1.2,0.5,3.5c0.4,1.9,0.5,3.2,0.5,3.8c0,1.4-0.6,1.9-1.1,2.1c0,0-0.1,0-0.1,0
	c-0.9,0-1.6-0.2-2.2-0.5c-0.3-0.2-0.6-0.5-0.7-1c0.1,1,0.5,2,1,2.3c0.3,0.2,1,0.3,1.9,0.3c0.6,0,1.3-0.1,1.9-0.3
	c1.1-0.3,0.9-4.9,0.7-6.3C89.8,58.2,89.6,57.6,89.5,57.2z M239.7,23.4c0.5,0.5,0.4,1.2,0.4,1.9l0,0.3c0,0.5,0,1.3-0.6,1.8
	c-0.4,0.3-1,0.3-1.5,0.3c-0.1,0-0.2,0-0.3,0l-2.8,0l-0.1,0.3c0,0.8,0,1.8,0,3c-0.1,3.7-0.2,8.7,0.3,14.5c0.5,5.6,0.4,10.2,0.3,13.8
	c0,1.2-0.1,2.4-0.1,3.3c0,0.5,0.3,1.4-0.2,1.9c-0.4,0.4-1.3,0.3-1.8,0.3l-0.2,0c-0.3,0-0.6,0-0.9,0c-0.3,0-0.5,0-0.6,0
	c-0.1,0-0.3-0.1-0.4-0.5c0,0.3,0.3,1.6,0.8,1.6l2.8,0.2c0.6,0,1.7-0.3,2.1-0.8c0.3-0.3,0.3-1.6,0.3-2.2c0-3.8,0.4-9.7-0.3-17.2
	c-0.7-7.5-0.6-13-0.6-16.7l0.2-0.2l2.5-0.1c0.6,0,1.1-0.1,1.5-0.4c0.5-0.4,0.6-1.6,0.6-2.2C241.3,25.4,241.4,24.5,239.7,23.4z
	 M263.5,28.5c0-0.4,0-0.8-0.1-1.2h-1.7c-0.8,0-1.4-0.1-1.8-0.4c-0.2-0.1-0.3-0.2-0.4-0.4c0.2,0.7,1.3,1.4,1.7,1.6
	c0.4,0.3,0.7,0.4,1.5,0.4H263.5z M271.9,59.6c0.2,0.1,0.3,0.1,0.4,0.2c0.4,0.4,0.4,1,0.4,1.4c0,0.5-0.1,1.3-0.5,1.7
	c-0.4,0.4-0.8,0.3-1.3,0.3l-4.9,0.1l-2.6,0.1h0c-1,0-1.6-0.3-2-0.8l0,0.1c0.4,0.9,2,1.9,3.3,1.9h0l2.6-0.1l4.9-0.1
	c0.5,0,0.7,0,1.1-0.4c0.3-0.4,0.5-1.4,0.5-2c0-0.6-0.3-1.1-1-1.9C272.5,60,272.3,59.8,271.9,59.6z M255.4,61.4
	c0.4,0.4,0.5,0.8,0.5,1.3c0,0.7-0.3,1.3-1,1.7c-0.6,0.3-1.2,0.5-2,0.5h-6.2c-0.6,0-1.1-0.2-1.6-0.6c-0.2-0.2-0.4-0.5-0.5-0.7
	c0.1,0.6,1.4,1.6,1.8,2c0.4,0.4,1,0.6,1.6,0.6h5.7c0.7,0,1.4-0.2,2-0.5c0.6-0.3,1-0.9,1-1.7C256.8,63.1,257.1,63.2,255.4,61.4
	C255.5,61.4,255.5,61.4,255.4,61.4z M288.8,61.3c-0.1,0-0.1,0-0.2,0c0,0,0.1,0,0.1,0c0.3,0.1,0.3,1.2,0.3,1.7c0,0.6-0.1,1.4-0.6,1.8
	c-0.4,0.3-1,0.1-1.6,0.2c0,0-3.2-0.3-5.2-0.3c-1.6,0.6-3,0.3-3.7-0.6c-0.1-0.1-0.2-0.2-0.3-0.4c0.1,0.4,0.5,0.8,1.2,1.4
	c0.9,0.8,2.2,1.4,4.2,1c2,0,5.1,0.1,5.1,0.1c0.5-0.1,0.8,0.1,1.2-0.3c0.5-0.4,0.5-1,0.6-1.6c0.1-0.9,0-1.6-0.3-2.2
	C289.5,61.8,289.4,61.4,288.8,61.3z M317.8,57.3c-0.2-0.7-0.4-1.3-0.6-1.9C317.3,56.1,317.6,56.7,317.8,57.3z M303.4,61.1
	c1,0.3,1.3,0.9,1.3,1.9c0,0.4,0,1.4-0.8,1.8c-0.2,0.1-0.5,0.2-0.8,0.2c-0.3,0-0.6,0-0.8-0.1c-0.2,0-0.5-0.1-0.7-0.1h-5.7
	c-0.6,0-1.1-0.2-1.6-0.6c-0.1-0.1-0.2-0.3-0.3-0.4c0.2,0.6,1.3,1.3,1.7,1.7c0.4,0.4,1,0.6,1.6,0.6l5.1,0.1c0.7,0,2,0.1,2.6-0.2
	c0.6-0.3,1-0.9,1-1.7c0-0.4,0.3-1.5-0.1-2.1C305.4,61.6,304.4,61.1,303.4,61.1z M316.6,28.7c-0.3-1.1-2.2-2.2-3.4-2.5l-0.1,0.5
	c0,1.5,0,3.9,0.1,7c0.1,2.6,0.1,4.7,0.1,6.1c0.4-0.3,1-0.8,1.7-1.5c0-0.6,0-1-0.1-2.9c-0.1-3.1,0-3.4,0-4.9l0-2.1
	c1,0.1,2.2,2,2.6,3.1C317.5,30.7,317.3,29.7,316.6,28.7z M315.1,56.6c-0.2-3.1-0.4-5.1-0.4-6c0-0.7,0.1-1.4,0.2-2.2
	c-0.5-1.5-1-2.5-1.4-3.2c0,0.1,0,0.1,0,0.2l-0.1,0.6c-0.2,0.9-0.2,2.8-0.2,3.9l0,0.6c0,0.2,0,0.4,0,0.6c0,0.7,0,1.5,0.2,4
	c0.1,1.3,0.2,2.5,0.3,3.6c0.1,1.6,0.3,2.9,0.3,3.4c0,1-0.1,1.3-0.5,1.8c-0.4,0.5-1,0.4-1.4,0.4c-0.1,0-0.2,0-0.3,0
	c-0.4,0-1-0.2-1.3-0.9c0,0.1,0,0.1,0,0.2c0.2,1.2,2.9,1.5,3.4,1.5c0.5,0,1.2-0.3,1.6-0.8c0.4-0.5,0.2-1.1,0.2-2
	C315.6,61.2,315.3,59.7,315.1,56.6z M120.8,24.1c0.3,0.6,0,1.8,0,2.3c0,1-0.4,0.9-1.7,1c0,0-3.8,0.4-4.9,0.3c0,0.7,0.1,1.4,0.1,2.1
	l-0.3,8.6c0,0,0,0.2,0.1,0.5l1.4-0.1l0.2-7.4c0-0.7,0-1.4-0.1-2.1c1.3-0.1,2.9-0.2,3.8-0.2c0.9,0,2.2-0.2,2.2-1.2
	c0-0.5,0.3-1.4,0.2-2.1C121.7,25.3,121.3,24.5,120.8,24.1z M324.5,59.8c-1.4-2.7-2.4-4.1-4.1-10.2c-0.8-2.8-2-6-2.2-7
	c1.5-0.8,4.6-3.5,4.2-9.3c-0.1-1.6-1.3-4.3-2.5-6c0.6,0.9,1,2.1,1.1,3.5c0.2,2.7,0,4.9-0.5,6.5c-0.4,1.6-2.3,3.4-4,4.8
	c0.1,0.4,0.4,1.1,0.7,1.9c0.4,1,0.9,2.2,1.4,3.6c0.7,2.1,1.3,4,1.8,5.7c1,3.1,1.7,5.5,2.6,7.3c0.1,0.3,0.3,0.5,0.5,0.8
	c0.3,0.5,0.6,0.9,0.6,1.3c0,0.5-0.3,0.8-0.6,1.1c-0.1,0.1-0.1,0.1-0.2,0.2c-0.3,0.4-0.8,0.6-1.3,0.6c-0.9,0-1.6-0.7-2.4-2.1
	c1.2,2.6,2.9,3.5,4,3c1.2-0.6,2.1-1.6,2.3-2.6C325.9,62.4,325.1,61.1,324.5,59.8z M91.2,28.1c0,0-0.1-0.1-0.1-0.1
	c0.1,0.1,0.1,0.2,0.2,0.3c0.3,0.2,1.6,1.1,4.5,1c0-0.4,0-0.7,0-1c-0.7,0-1.4,0-2,0C92.5,28.3,91.6,28.4,91.2,28.1z M77.9,51.8
	c-0.2,2-0.8,9.9-0.9,10.2c-0.2,0.4-0.3,0.7-0.5,1.1c-0.4,0.8-1,1.2-1.6,1.2c-0.6,0-1.1-0.2-1.6-0.5c-0.2-0.1-0.3-0.3-0.4-0.5
	c0.1,0.4,0.3,0.7,0.7,1c0.5,0.4,2.8,1,3.3,1c0.9,0,1.3-0.7,1.6-1.2c0.2-0.4,0.7-1.9,0.8-2.3c0.3-1.2,0.5-6.7,0.6-8.3
	c1,0.2,2.5,0.2,3.7,0.1c-0.1-0.7-0.2-1.3-0.3-1.9C82.2,51.8,79.4,52,77.9,51.8z M104.8,23.8c0.1,0,0.1,0.1,0.2,0.1
	c0.4,0.4,0.3,1,0.2,1.6c0,0.2-0.1,0.4-0.1,0.6l0,0.2c0,0.5,0,1-0.5,1.4c-0.5,0.4-1.3,0.5-1.9,0.5l-2.8,0l-0.1,0.3c0,0.8,0,1.8,0,3
	c-0.1,3.7-0.2,8.7,0.3,14.5c0.5,6.1,0.5,10.6,0.5,14.2c0,0.8,0,1.6,0,2.3c0,0.1,0,0.3,0.1,0.5c0.1,0.6,0.2,1.3-0.1,1.7
	c-0.4,0.4-1.1,0.5-1.7,0.6c-0.2,0-0.3,0-0.4,0.1c-0.1,0-0.2,0-0.4,0c-0.5,0-1.3-0.1-1.6-0.4c-0.1-0.1-0.2-0.3-0.2-0.5
	c0,0.4,0.3,2,0.9,2l2.8,0c0.6,0,1.5-0.1,2.1-0.3c0.4-0.2,0.8-1.2,0.5-3c-0.6-3.8,0.1-9.2-0.6-16.7c-0.7-7.5-0.6-13.1-0.6-16.7
	l0.1-0.1l2.7-0.2c0.6,0,1.3-0.1,1.7-0.5c0.5-0.4,0.6-1,0.6-1.7c0-0.3,0-1,0.1-1.7C106.5,25,105.8,24.2,104.8,23.8z M225.3,25.3
	c0-0.1,0-0.3,0.1-0.4c0,0-0.1,0-0.1,0.1C225.3,25.1,225.3,25.2,225.3,25.3z M226.2,27.5c-0.3-0.2-0.5-0.4-0.7-0.6
	c0,0.1,0,0.1,0.1,0.2c0.2,0.5,0.5,1,0.7,1.2c0.1,0.1,0.4,0.7,0.6,0.7c0.6,0.1,2.2,0.2,3.9,0.2c0-0.6,0-1.1,0-1.5c-0.7,0-1.4,0-2,0
	C227.5,27.8,226.7,27.8,226.2,27.5z M67.3,55.2c-0.4-1.6-0.9-3.3-1.6-5.5l-0.1-0.2c-0.9-2.8-1.8-5.7-2-6.9c1.3-0.7,2.1-1.8,2.9-2.8
	c0.1-0.2,0.3-0.4,0.4-0.5c1.3-1.6,1.5-3.3,1.4-6c-0.1-2.7-1.9-6.1-3.4-7.3c-0.3-0.3-0.7-0.5-1-0.8c1.1,1,2.7,3.2,2.9,6.3
	c0.1,2.6-0.2,4.5-1.1,6.3c-0.7,1.4-2.3,3.1-4.1,4.6c0.1,0.5,0.4,1.1,0.6,1.9c0.4,1,0.8,2.2,1.2,3.6c0.6,2.1,1.2,4.1,1.6,5.8
	c0.9,3.1,1.5,5.6,2.4,7.4c0.4,0.9,0.6,1.5,0.6,2c0,0.5-0.2,1-0.5,1.3c-0.3,0.4-0.8,0.6-1.3,0.6c-0.7,0-1.3-0.5-1.9-1.4
	c0.2,0.5,0.5,0.9,0.8,1.3c0.9,1,2,1.6,2.9,1.5c0.6-0.1,1-0.4,1.3-0.9c0.6-1,0.4-2.8,0-3.8C68.6,59.7,68,57.8,67.3,55.2z M120.7,61.8
	c0.1,0.2,0.1,0.4,0.1,0.6c0,0.7-0.3,1.3-1,1.7c-0.6,0.3-1.2,0.5-2,0.5h-5.7c-0.6,0-1.1-0.2-1.6-0.6c-0.3-0.3-0.5-0.6-0.6-1
	c0.2,0.8,1,2.3,1.4,2.6c0.4,0.4,1,0.6,1.6,0.6h5.7c0.7,0,1.4-0.2,2-0.5c0.6-0.3,1-0.9,1-1.7c0-0.4-0.4-1.9-0.7-2.2
	C120.8,61.8,120.7,61.8,120.7,61.8z"/>
</svg>
