<?xml version="1.0" encoding="utf-8"?>
<!-- Generator: Adobe Illustrator 24.3.0, SVG Export Plug-In . SVG Version: 6.00 Build 0)  -->
<svg version="1.1" id="Layer_1" xmlns="http://www.w3.org/2000/svg" xmlns:xlink="http://www.w3.org/1999/xlink" x="0px" y="0px"
	 viewBox="0 0 506 89.7" style="enable-background:new 0 0 506 89.7;" xml:space="preserve" preserveAspectRatio="none">
<style type="text/css">
	.st0{fill-rule:evenodd;clip-rule:evenodd;fill:#729395;}
	.st1{fill-rule:evenodd;clip-rule:evenodd;fill:#FFFFFF;}
</style>
<path class="st0" d="M24,79.7c-2.1,0-6.4-0.9-10-2.5c0.1,0.1,0.1,0.1,0.2,0.2c3.4,2.7,16.3,7.3,19.6,7.3c0,0,108.3,5.1,222,5
	c95.6-0.1,250.2-5,250.2-5v-5c0,0-158.2,4.9-260,5C132.3,84.8,24,79.7,24,79.7z"/>
<path class="st1" d="M6,5.7c0,0,13.9-3.3,36-4c74.3-2.4,217.5-2,346,0c41.6,0.7,118,3,118,3v75c0,0-158.2,4.9-260,5
	c-113.7,0.1-222-5-222-5c-3.3,0-12.5-2.4-15-6c-5.1-7.5-9-60.1-9-60.1C0,10.2,2.7,5.7,6,5.7z"/>
</svg>
