<?xml version="1.0" encoding="utf-8"?>
<!-- Generator: Adobe Illustrator 24.0.1, SVG Export Plug-In . SVG Version: 6.00 Build 0)  -->
<svg version="1.1" id="Layer_1" xmlns="http://www.w3.org/2000/svg" xmlns:xlink="http://www.w3.org/1999/xlink" x="0px" y="0px"
	 viewBox="0 0 512 512" style="enable-background:new 0 0 512 512;" xml:space="preserve">
<style type="text/css">
	.st0{fill-rule:evenodd;clip-rule:evenodd; fill: #69a8a7;}
	.st2{fill:#ffffff;}
</style>
<path class="st0" d="M437,230.5c-8.3-64.5-38.2-117.2-116.4-141.7C249,66.3,184.8,83.2,146.4,106C94.7,136.6,31,260.3,112.2,372.7
	c59.8,82.8,192.9,68.7,243.3,38.1C393.1,388.1,448.4,319.7,437,230.5z"/>
<path class="st2" d="M348.2,237.9c-6,4.8-21.5,16.4-26,20.4c-4.9,3.5-13.3,6.3-17.2,10.8c7.7,25.1,14.4,43.1,23.3,67
	c0.8,1.7,2.3,11.8,3.3,14c1,3,1.7,4.2,2,6.4c0.1,2.8-3,2.7-3.9,3.1c-3.4-0.7-7.2-2.3-9.5-4c-1.9-2.6-16.5-10.5-20.8-14.2
	c-9.6-6.1-16.1-14.5-26.9-21.6c-6-4.8-9-8-15.5-11.9c-3,1.3-7,4.2-9.6,6c-2.7,1.6-16.4,10.7-20.3,15.5c-5.6,3.1-24.7,18.1-30.3,20.9
	c-1.9,1-2.3,3.6-4.1,4.7c-1.9,0.8-3.5,2-6.2,2c-1.2-0.1-2.4-0.4-3.6-1.3c-3.5-2.7-3-2.9-2.4-4.8c0.1-1.2-0.5-2.1,0-3.6
	c0.1-4.9,2.6-6.9,3.2-11.2c2.2-7.7,3.9-15.9,6.2-23.6c4.2-15.9,10.1-30.1,15.1-45.2c-1.1-2.8-3.8-3.9-6.2-5.4
	c-1.6-2.3-27.5-22.7-32.3-25.6c-5.1-3.6-8.7-3.6-14.7-8.4c-4.8-3.6-6-4.6-6-9.8c0.3-5.4,5.4-6,11-6.1c5,0.5,10,0.9,15.8,0.7
	c9.5,1.5,21.7,0.3,32.3,0.7c4.9,1,11.3,0.6,17.2,0.7c2.7-1.6,2.5-6.1,4.1-8.8c1-3.3,7.9-22.2,11-27.6c0.6-3.7,1.9-6.7,3.4-9.4
	c0.8-3.5,2-6.6,3.4-9.4c1.9-6.9,4.2-13.4,6.9-19.6c0.4-1,1.1-1.6,2.1-2c2.7,0.5,2.8,0.5,5.5,0c2,2.3,1.9,6.7,2.7,10.1
	c4.3,10.9,14.5,38.6,15.8,41.1c0.7,3.2,4.2,15,6.2,16.9c0.5,3.1,1.8,4.1,3.2,6.4c3.6,1.7,7.1,1.9,11.3,1.7
	c13.1-0.6,28.3-0.1,40.6,0.7c7.6,0.2,17.8-0.9,23.6,0.8c4.6,0.8,3,3.4,3.7,7.9C364.5,225.4,355.6,231.3,348.2,237.9z"/>
</svg>
