<?xml version="1.0" encoding="utf-8"?>
<!-- Generator: Adobe Illustrator 27.5.0, SVG Export Plug-In . SVG Version: 6.00 Build 0)  -->
<svg version="1.1" id="Layer_1" xmlns="http://www.w3.org/2000/svg" xmlns:xlink="http://www.w3.org/1999/xlink" x="0px" y="0px"
	 viewBox="0 0 100 100" style="enable-background:new 0 0 100 100;" xml:space="preserve">
<path d="M49.8,29.3c1.1,0,1.4-0.7,1.8-1.4c0.1-1.8-0.3-3.1-0.4-4.6c-0.1-0.7-0.3-1.5-0.4-2.2c0-0.8-0.7-1.1-1.1-1.5h-1
	c-0.6,0.1-0.7,0.7-1,1.1v6C47.8,28,48.3,29.3,49.8,29.3z M71.2,30.5c1.3-1.4,3.7-2.5,3.1-5.3c-0.4-0.4-1.1-0.4-2.1-0.4
	c-0.1,0-0.1,0.1-0.4,0.1c-1.5,0.8-2.5,2-3.8,3c-1.1,1.1-2.5,2.1-3.1,3.7c-0.3,0.8,0,1.5,0.3,2.1c0.3,0.1,0.6,0.1,0.7,0.4
	c1.5,0,2-1,3-1.4C69.6,31.9,70.3,31.4,71.2,30.5z M29,31.7c0.6,0.4,1.1,1,1.5,1.5c0.6,0.4,1.1,1,1.7,1.4c0.6,0.4,1.1,1.3,2.4,1
	c0.8-0.4,1.4-0.8,1.3-2.2c-0.4-1.4-1.8-1.8-2.5-3c-0.6-0.3-1-0.8-1.7-1.1c-0.4-0.6-1.1-0.7-1.7-1.1h-1.3c-0.1,0-0.3,0.1-0.1,0.3
	c-0.7,0-1,0.6-0.8,1.4C27.9,30.8,28.6,31,29,31.7z M61,36c-0.8-0.1-1.1-1-2-1.1c-0.6-0.6-1.7-0.6-2.2-1c-1.8-0.4-3.5-0.8-5.5-1
	c-2,0-3.9,0-5.8,0.1c-0.8,0.4-2.1,0.6-2.8,1.3c-1,0.4-1.7,1-2.4,1.7c-0.7,0.6-1.1,1.5-1.8,2.2c-0.1,0.6-0.4,0.8-0.7,1.4
	c-0.3,0.4-0.3,1.1-0.6,1.5c0,1.1-0.3,2.4,0,3.4c0.1,0.6,0.4,0.8,0.4,1.4c0.6,0.3,0.6,1,1.3,0.8c1.5-0.8,1.7-3,2.4-4.6
	c0.7-1.4,1.4-2.7,2.7-3.5c0.7-0.6,1.4-1,2.4-1.3c5.5-0.6,11,0.3,13.3,3.4c0.6,0.4,0.8,1.1,1.1,1.8c0.3,0.7,0.1,1.8,0.3,2.7
	c-0.1,5.9-3,9.1-5.8,12.5c-1.4,1-2.4,2.2-4.4,2.7c-0.3,0-0.3,0-0.4,0.1h-3.2c-1.5-0.3-2.7-0.8-4.1-1.3c-0.4-0.6-1.3-0.8-1.7-1.4
	c-0.6-0.4-1.1-1-1.5-1.5c-1-1.1-2-2.4-2.5-3.9c-0.4-0.8-0.4-2.4-0.6-3.7c-0.3-1.3,0.6-2.5-0.1-3.4c-1-0.1-1.1,0.6-1.4,1
	c-0.3,0.4-0.8,0.8-0.8,1.7c-0.4,0.4-0.1,1.4-0.4,1.8v2.5c0.1,0.1,0.1,0.6,0.1,1c0.7,2.7,2.1,4.9,3.8,6.7c2.5,2.2,5.5,4.1,10,4.5h2.1
	c1.5-0.1,3-0.6,4.1-1.1c3.2-2,5.8-4.5,7.7-7.4c2-3.2,3.5-6.7,3.2-12.1C65.1,40.2,63.2,38,61,36z M81,48c-0.3-0.1-0.3-0.4-0.4-0.7
	c-0.6-0.6-1.7-0.7-3-0.7c-2.2,0.4-5.9-0.4-6.2,2c0.3,1.8,2.2,2.1,4.4,2.2c0.8,0,1.8-0.1,2.7,0c0.1-0.3,1-0.1,1.3-0.3
	c0.4-0.1,0.6-0.6,0.8-0.7C80.9,49.2,81,48.8,81,48z M29.9,52c0.3-0.6,0.8-0.8,0.8-1.5v-1c-0.3-0.8-0.8-1.3-1.5-1.7h-3.4
	C25.6,48,25.6,48,25.4,48c-1.8,0-4.1,0.1-4.4,2v0.7c0.3,1.5,2.1,1.5,3.7,1.8C26.5,52.5,28.4,52.5,29.9,52z M68.9,62.9
	c-1.4-0.3-2,0.4-2.5,1c-0.1,2.1,0.7,3.2,1.1,4.8c0.6,1.3,1.1,2.7,2.1,3.5c0.7,0.3,1.5,0.1,2.4,0.1c0.1-0.3,0.4-0.4,0.7-0.6
	c0-0.1-0.1-0.4,0.1-0.4c-0.1-2-0.8-3.2-1.5-4.6C70.7,65.1,69.9,63.8,68.9,62.9z M33.1,65.4c-0.1,0-0.4,0.1-0.4-0.1
	c-1.1-0.1-1.5,0.4-2.4,0.6c-1,0.8-1.8,1.7-2.7,2.7c-0.8,1-2,1.5-1.8,3.4c0.3,0.6,0.7,1,1.3,1.3c2.1,0,3.1-1.3,4.4-2.4
	c0.6-0.4,1.3-1,1.7-1.7c0.4-0.7,0.8-1.4,0.8-2.7C33.6,66.1,33.2,65.8,33.1,65.4z M51.5,70.4c-0.6-0.3-1.7-0.6-2.1,0
	c-0.3,0.3-0.4,0.4-0.6,0.8c-0.4,0,0.1,1-0.3,1V77c0,0.7,0,1.7,0.1,2.1c0.1,0.3,0.4,0.6,0.7,0.7c-0.1,0.4,0.7,0.1,0.7,0.4
	c0.8-0.1,1.4-0.3,1.8-0.7c0.3-2.1,0-4.8,0.1-7C52.2,71.4,51.8,71,51.5,70.4z"/>
</svg>
