<?xml version="1.0" encoding="utf-8"?>
<!-- Generator: Adobe Illustrator 24.3.0, SVG Export Plug-In . SVG Version: 6.00 Build 0)  -->
<svg version="1.1" id="Layer_1" xmlns="http://www.w3.org/2000/svg" xmlns:xlink="http://www.w3.org/1999/xlink" x="0px" y="0px"
	 viewBox="0 0 100 100" style="enable-background:new 0 0 100 100;" xml:space="preserve">
<style type="text/css">
	.st0{fill:#83C7BD;}
</style>
<path class="st0" d="M99.7,44C97,25,83.4,8.9,64.8,3c-5.7-1.8-20.5-5.2-36.3,2.3C12.5,12.9,1.3,28.9,0.1,46.1
	c-1.7,24.1,16,39.2,19.5,41.9c8.6,6.8,20.1,10.9,31.4,11.4c0.7,0,1.5,0,2.2,0c8.6,0,20.2-2.1,30.5-10.9
	C103.3,71.7,99.8,45.2,99.7,44z M29.2,6.7c15.2-7.2,29.6-3.9,35.1-2.2C69,6,73.4,8.2,77.4,10.9c-1.9-1-3.8-1.8-5.6-2.5
	c-2.7-1-24.1-8-43.7-1.2C28.5,7.1,28.9,6.8,29.2,6.7z M1.7,46.2c0.7-9.4,4.4-18.5,10.4-25.9c-6.4,9.9-8.9,22-9.2,24.1
	c-1.1,10.7,1.5,21.9,7.3,31.3C5.4,68.7,0.8,58.7,1.7,46.2z M82.7,87.3C75,94,63.5,98.2,51.1,97.9c4.1,0,8.5-0.7,13.1-2.2
	c22.1-7.3,34.6-30.5,32.6-55.3c-0.1-1.3-0.3-2.5-0.5-3.7c0.8,2.5,1.3,5,1.7,7.6C98.2,45.4,101.6,71.1,82.7,87.3z"/>
<path d="M65.6,62.5c-1.7-0.7-3.9-1.2-6.6-1.5c-0.7,1-3,3.1-3.7,4c-2.9,4.1-5.6,6-5.6,6s-2.2-2.8-4.6-5.8c-0.9-1.1-3.4-2.6-4.4-4
	c-2.8,0.4-6.9,1-8.5,1.7c-2.8,1.1-3.3,2.2-3.3,4.2c0,1.2,1.9,2.6,3.4,3.7c1.3,0.9,4,0.9,6.1,1.6c3.5,1.2,7,2.9,11.8,2.9
	c3,0,5.9-0.4,8.5-0.9c2.5-0.5,6.8-1.8,8.6-2.6c1.4-0.7,0-1.2,0.9-2c1-0.9,1.9-1.4,1.9-2.4C70,65.2,68.6,63.7,65.6,62.5z M43.2,55.8
	c1.6,2.6,3.2,4.8,4.5,6.5c1.6,2.2,2.7,3.5,2.7,3.5s2.6-1.7,3.5-3.7c1.2-2.7,2.4-4.5,4.6-8.2c1.9-3.2,4.1-6.5,5.1-9.9
	c0.5-1.5,1-3.8,1-5.5c0-4-1.8-6.8-4.4-9.4S54,24.8,50,24.8c-5.3,0-10.6,1.3-13.1,5.6c-1.3,2.1-1.3,6.1-1.3,8.8
	c0,1.6,0.3,3.2,0.8,4.7C37.7,47.8,40.7,51.9,43.2,55.8z M52.7,60c0,0,0,0.5-0.1,0.6c-0.4,0.6-0.8,0.6-0.9,0.5
	c-0.1,0-0.5-1.2-0.5-1.2c-0.2-0.7-0.3-1.2-0.3-1.3c-0.2-0.4-0.1-0.7,0.2-0.9c0.1-0.1,0.3,0,0.5,0.1c0.2,0.2,0.3,0.4,0.3,0.4
	c0.1,0.1,0.2,0.3,0.3,0.5C52.5,58.9,52.8,59.9,52.7,60z M54.8,58.1c0,0,0,0.4,0,0.5c-0.5,0.7-0.5,0.3-0.7,0.2
	c-0.1,0-0.8-1.7-0.8-1.7c-0.2-0.8-0.6-1.2-0.6-1.2c-0.2-0.5-0.2-0.9,0.2-1.1c0.1-0.1,0.3-0.1,0.6,0.1c0.2,0.3,0.4,0.4,0.4,0.5
	c0.1,0.2,0.2,0.4,0.4,0.6C54.5,56.2,54.9,57.9,54.8,58.1z M55.9,55.8c-0.2,0-0.6-0.4-0.6-0.5c-0.1-0.2-0.6-1-0.6-1
	c0,0-0.1-0.2-0.2-0.6c-0.1-0.3-0.2-0.6-0.2-0.8c-0.2-0.5-0.2-0.9-0.1-1.1c0.4-0.1,0.7-0.4,1,0.2c0.3,0.4,0.5,1.4,0.7,1.9
	c0,0,0,0,0,0c0,0.1,0.1,0.2,0.1,0.3C56.4,55.2,55.9,55.8,55.9,55.8z M56.1,48.8c0.2-0.1,0.1-0.2,0.3-0.1c0.2,0.1,0.3,0.2,0.4,0.4
	c0.1,0.2,0.2,0.4,0.3,0.7c0.1,0.3,0.3,0.6,0.4,0.7c0-0.3,0.6,0.8,0.5,0.8c0,0,0.1,0.7,0,0.9c-0.3,0.2-0.4,0.1-0.6,0.1
	c-0.1,0-0.4-0.5-0.8-1.3s-0.8-1.2-0.9-1.6C55.5,49,55.9,48.9,56.1,48.8z M45.7,35.7c1-1.3,1.5-2.2,4.3-2c1.6,0.1,3.5-0.1,4.5,1
	c0.9,1,1.1,3.1,1.1,4.6c0,1.6-0.2,3.1-1.8,4.2c-1.1,0.7-2.4,1.1-3.9,1.1c-1.7,0-3.2-0.5-4.2-1.7c-0.8-1-1.5-2.7-1.5-4.1
	C44.2,37.4,44.9,36.6,45.7,35.7z"/>
</svg>
