<?xml version="1.0" encoding="utf-8"?>
<!-- Generator: Adobe Illustrator 18.1.1, SVG Export Plug-In . SVG Version: 6.00 Build 0)  -->
<svg version="1.1" id="Layer_1" xmlns="http://www.w3.org/2000/svg" xmlns:xlink="http://www.w3.org/1999/xlink" x="0px" y="0px"
	 viewBox="0 0 11.1 26.1" enable-background="new 0 0 11.1 26.1" xml:space="preserve">
<g>
	<g>
		<g>
			<path fill-rule="evenodd" clip-rule="evenodd" fill="#F37064" d="M9,19.8c-0.6,0.2-6.5,3.6-6.5,3.8c0,0.2,0,2.9,0.7,2.4
				c0.7-0.5,8-5.5,7.8-6.2C11,19.6,9.6,19.6,9,19.8z M7.7,12.1c-0.5-0.2-7.6-1.4-7.6-1.2c-0.1,0.1,0.2,2.7,0.9,2.7
				c0.7,0,3.6,0.2,4.2,0.4C8,15,8.2,12.3,7.7,12.1z M7.2,5.3C8.7,8,10.9,6.5,10.6,6c-0.3-0.5-5.2-6-5.3-6C5.1,0,3.4,1.7,4,2.2
				C4.6,2.7,6.8,4.7,7.2,5.3z"/>
		</g>
	</g>
</g>
</svg>
