<?xml version="1.0" encoding="utf-8"?>
<!-- Generator: Adobe Illustrator 24.3.0, SVG Export Plug-In . SVG Version: 6.00 Build 0)  -->
<svg version="1.1" id="Layer_1" xmlns="http://www.w3.org/2000/svg" xmlns:xlink="http://www.w3.org/1999/xlink" x="0px" y="0px"
	 viewBox="0 0 100 100" style="enable-background:new 0 0 100 100;" xml:space="preserve">
<style type="text/css">
	.st0{fill:#FFFFFF;}
</style>
<path class="st0" d="M99.7,44C97,25,83.4,8.9,64.8,3c-5.7-1.8-20.5-5.2-36.3,2.3C12.5,12.9,1.3,28.9,0.1,46.1
	c-1.7,24.1,16,39.2,19.5,41.9c8.6,6.8,20.1,10.9,31.4,11.4c0.7,0,1.5,0,2.2,0c8.6,0,20.2-2.1,30.5-10.9
	C103.3,71.7,99.8,45.2,99.7,44z M29.2,6.7c15.2-7.2,29.6-3.9,35.1-2.2C69,6,73.4,8.2,77.4,10.9c-1.9-1-3.8-1.8-5.6-2.5
	c-2.7-1-24.1-8-43.7-1.2C28.5,7.1,28.9,6.8,29.2,6.7z M1.7,46.2c0.7-9.4,4.4-18.5,10.4-25.9c-6.4,9.9-8.9,22-9.2,24.1
	c-1.1,10.7,1.5,21.9,7.3,31.3C5.4,68.7,0.8,58.7,1.7,46.2z M82.7,87.3C75,94,63.5,98.2,51.1,97.9c4.1,0,8.5-0.7,13.1-2.2
	c22.1-7.3,34.6-30.5,32.6-55.3c-0.1-1.3-0.3-2.5-0.5-3.7c0.8,2.5,1.3,5,1.7,7.6C98.2,45.4,101.6,71.1,82.7,87.3z"/>
<path d="M76.6,60.2c0,0,0.1,0.1,0.1,0.1l-0.4-2.5c0,0-0.5-1.7-0.7-2.1c-0.2-0.4-0.3-1.9-0.3-1.9s0.1-0.7-0.1-0.7s-2.2,0.5-3.2,0.2
	c-1.1-0.4-2.4-1.8-3.2-2.6c-0.9-0.9-1.3-1.8-1.6-3.2c-0.2-1-0.4-3-0.2-4c0.3-1.6,1.4-2.4,2.6-3.4c0.7-0.6,1.6-0.7,2.6-1l-1.4-6.7
	c-0.1-0.6-0.7-1-1.3-0.9h0c0,0-3.2,0.1-6.5,1.2c-3.3,1.1-7.8,1.8-7.8,1.8l-10.3,2.2c0,0-11.8,2.8-14,3s-7.5,1.6-7.5,1.6
	c-0.6,0.1-0.9-0.4-0.8,0.2c0,0-0.1,0-0.1,0l1.4,7.5c1.9-0.4,3.5,0,5,1s3.1,2.9,3.5,4.9c0.4,2.1,0.9,3.6-0.3,5.2
	c-0.4,0.6-1.6,1.6-2.2,2c-0.8,0.5-1.5,1.2-2.9,1.2l0.2,1.3l0.9,2.6l0.2,2l0.4,1.8c0.1,0.6,0.5,0.6,1.1,0.4c0,0,0,0,0,0l6.1-1.3
	L50,67.7L64.3,64l6.5-1.5l5-0.9c0.7-0.2,0.9-0.1,0.9-0.4C76.8,61,76.6,60.4,76.6,60.2z M33.9,45.6l-0.4-1.9c0,0,0,0,0,0
	c-0.1-0.5,0.7-1.1,1.8-1.4c0,0,0,0,0,0c1.1-0.2,2.1,0,2.2,0.5l0.4,1.9c0.1,0.5-0.7,0.7-1.8,1S34,46.1,33.9,45.6z M35.4,52.6L35,50.4
	c0,0,0,0,0,0c-0.1-0.6,0.5-1,1.7-1.2c0,0,0.4-0.1,0.4-0.1c1.1-0.2,1.9-0.1,2,0.5l0.5,2.2c0.1,0.6-0.6,0.9-1.7,1.1
	S35.5,53.2,35.4,52.6z M36.9,59.4l-0.5-2.2l0,0c-0.1-0.4,1.3-1.2,1.8-1.5c0,0-0.1,0,0,0c0.3-0.1,0.3-0.1,0,0c0.1,0,0.2,0,0.2,0
	c1.1-0.2,1.8,0,2,0.6l0.5,2.2c0.1,0.6-0.7,0.9-1.8,1.2S37,60,36.9,59.4z M40.6,66.8c-1.1,0.2-2.2,0.1-2.3-0.5l-0.5-2.2c0,0,0,0,0,0
	c-0.1-0.6,0.7-1.3,1.8-1.5c0,0,0,0,0,0c1.1-0.2,2.1,0.1,2.2,0.7l0.5,2.2C42.4,66.1,41.7,66.6,40.6,66.8z M59.8,62.9L59.5,63
	l-1.1,0.3c0.3-0.8,0.6-1.6,0.7-1.7c0.2-0.2,0.9,0,1,0.2C60.2,61.9,60,62.3,59.8,62.9z M62.5,62.4c-0.5,0-0.9,0.1-1.1,0.1
	c0.3-1,0.6-1.9,0.7-2c0.2-0.3,1,0,1,0.2C63.2,60.8,62.9,61.5,62.5,62.4z M64.7,62.1C64.7,62.2,64.7,62.2,64.7,62.1
	c-0.2,0.1-0.6,0.1-1,0.2c0.4-1.3,1-3.1,1-3.2c0.1-0.2,0.8-0.1,0.9,0.1C65.7,59.3,65.1,61,64.7,62.1z M67.4,61.2
	c-0.3,0.1-0.7,0.2-1,0.3c0.5-1.2,1.1-3,1.1-3.1c0.1-0.1,0.8-0.1,0.9,0.1C68.5,58.6,67.9,60.1,67.4,61.2z M70.2,60.6l-0.7-0.1
	c0,0-0.3,0.1-0.8,0.3c0.5-1.1,1.2-2.9,1.2-2.9s0.9,0.2,0.9,0.4C70.9,58.4,70.4,59.8,70.2,60.6z M72.6,61C72.6,61,72.5,61,72.6,61
	c-0.3-0.3-0.7-0.4-1-0.3c0.4-1,0.8-1.9,0.9-2c0.2-0.2,0.9,0,1,0.2C73.5,58.9,73,60,72.6,61z"/>
</svg>
