<?xml version="1.0" encoding="utf-8"?>
<!-- Generator: Adobe Illustrator 18.1.1, SVG Export Plug-In . SVG Version: 6.00 Build 0)  -->
<svg version="1.1" id="Layer_1" xmlns="http://www.w3.org/2000/svg" xmlns:xlink="http://www.w3.org/1999/xlink" x="0px" y="0px"
	 width="28px" height="28px" viewBox="0 0 512 512" xml:space="preserve">
	 <style type="text/css">
	 	.st0{fill:#EC776A;}
	 </style>
	 <path class="st0" d="m407 180c-7-9-14-19-26-24c-8 1-11 9-16 13c-6 3-10 9-16 14c-6 3-10 9-17 12c-1 3-6 3-8 6c-4 1-5 5-9 6c-4 5-14 6-18 12c-7 2-10 9-17 12c-9 10-23 15-33 24c-6 1-3-7-8-6c-2-2-4-5-7-6c-4-5-8-10-13-14c-9-9-18-17-27-25c-9-8-18-18-28-25c-5-5-9-9-16-11c-4-4-6-11-13-12c-16-1-20 9-30 15c-3 4-7 8-9 14c-6 2-9 6-11 12c1 9 6 13 12 16c2 4 2 8 4 11c13 11 24 23 38 32c4 5 9 8 14 12c7 5 16 13 24 19c12 11 25 21 36 33c13 10 23 23 36 32c1 1 3 2 4 3c9 1 11-4 15-7c2-5 6-7 9-11c8-5 15-11 23-17c7-6 14-13 21-19c7-6 15-11 22-17c15-11 28-24 42-36c8-6 16-11 22-19c3-3 7-6 10-9c6-1 7-6 10-9c-3-15-13-22-20-31z m-266 41c4-1 6-3 10-4c2 3 6 4 6 8c-3 10-12 1-16-4z m62 34c0-1 1-2 1 0c0 0-1 1-1 0z m12 24c2-1 1-5 5-3c0-2 2-3 5-3c1 5 4 9 6 14c-7 6-14-2-16-8z m22 24c2-1 5-6 7-2c-3 1-5 7-7 2z m18 17c-1 0-2-1-2-1c1-1 2 0 2 1z m6 5c4 0 3-6 6-8c0 1 1 2 2 2c0 3-5 9-8 6z m6-42c-1 0-2-1-2-2c-1 1-1 0-1-1c-2-1 0-2 0 0c1 0 1 1 1 1c1 0 2 1 2 2c2 0 3 1 4 2c-3 0-4-1-4-2z m36-35c2 0 3-1 4-1c1 1 1 4 1 8c-4-1-6-3-5-7z m5 40c-3 1-5-5-3-5c0 2 4 1 3 5z m13-17c-4-4-3-10 0-15c2 4 7 4 7 9c-2 3-3 6-7 6z m18-24c-2-3-3-4-6-6c-3-3-8-5-10-9c6 0 7 6 12 8c3 3 8 5 9 11c-4 1-2-5-5-4z m21-12c-5-8-13-12-19-18c11-7 15 11 26 12c-1 4-3 6-7 6z m19-14c0-6-5-8-6-13c-3-2-11-6-8-9c5 2 9 6 11 10l5 0c1 4 8 1 10 4c-5 3-7 7-12 8z"/>
</svg>
