<?xml version="1.0" encoding="utf-8"?>
<!-- Generator: Adobe Illustrator 23.1.1, SVG Export Plug-In . SVG Version: 6.00 Build 0)  -->
<svg version="1.1" id="Layer_1" xmlns="http://www.w3.org/2000/svg" xmlns:xlink="http://www.w3.org/1999/xlink" x="0px" y="0px"
	 viewBox="0 0 100 100" style="enable-background:new 0 0 100 100;" xml:space="preserve">
<style type="text/css">
	.st0{fill:#83C7BD;}
</style>
<path class="st0" d="M99.7,44C97,25,83.4,8.9,64.8,3c-5.7-1.8-20.5-5.2-36.3,2.3C12.5,12.9,1.3,28.9,0.1,46.1
	c-1.7,24.1,16,39.2,19.5,41.9c8.6,6.8,20.1,10.9,31.4,11.4c0.7,0,1.5,0,2.2,0c8.6,0,20.2-2.1,30.5-10.9
	C103.3,71.7,99.8,45.2,99.7,44z M29.2,6.7c15.2-7.2,29.6-3.9,35.1-2.2C69,6,73.4,8.2,77.4,10.9c-1.9-1-3.8-1.8-5.6-2.5
	c-2.7-1-24.1-8-43.7-1.2C28.5,7.1,28.9,6.8,29.2,6.7z M1.7,46.2c0.7-9.4,4.4-18.5,10.4-25.9c-6.4,9.9-8.9,22-9.2,24.1
	c-1.1,10.7,1.5,21.9,7.3,31.3C5.4,68.7,0.8,58.7,1.7,46.2z M82.8,87.3C75,94,63.5,98.2,51.1,97.9c4.1,0,8.5-0.7,13.1-2.2
	c22.1-7.3,34.6-30.5,32.6-55.3c-0.1-1.3-0.3-2.5-0.5-3.7c0.8,2.5,1.3,5,1.7,7.6C98.2,45.4,101.6,71.1,82.8,87.3z"/>
<path d="M73.1,44.4l0,2.4c0.6-0.3,1.5-0.2,1.8-0.7c0.3-0.5,0.5-1.8,0.5-2.3c-0.1-0.9-2.2-2.1-2.5-2c-0.3,0.1,0,1.2,0,1.2L73.1,44.4z
	 M25.1,43.6c0.3,0.5,0.6,1.2,1.1,1.5c0.5-0.1,1.7,0,3.2-0.3c0.8-0.2,1.7-0.4,2.6-0.8c1-1,1.3-2.8,0.4-4.4c-0.5-1-1.2-1.8-2.3-2.1
	c-0.2-0.1-0.6,0-0.8,0c-0.2,0-0.5-0.1-0.7-0.1c-1.3,0-2.5,0.4-3.3,1.3c-0.4,0.5-0.6,0.9-0.8,1.5c-0.1,0.4,0,0.7,0,1.1
	C24.4,42.2,24.6,42.9,25.1,43.6z M57.3,50.9c0,0.2,0.4,0.8,0.4,1c0,0.3,0.1,0.4,0.1,0.7c0.6,0.6,1.5,0.1,2.2,0.2
	c1.8,0.3,2.9,0.4,4.7,0.2c1.8,0,3.2-0.1,4.9-0.5c0.4-0.2,1,0.5,1.3,0.1c0.1-0.5,0.4-1,0.4-1.7c0-0.7,0.1-1.3,0-2.1
	c-0.1-0.4-0.3-1.1-0.3-1.4c-0.1-1.2,0-2.3,0.1-3.3c-0.1-0.7-0.1-1.4-0.1-2.5c-0.4-0.1-0.4-0.4-0.8-0.4c-0.9-0.1-2-0.6-2.8-0.7
	c-1.1-0.2-1.8-0.7-2.9-0.9c-0.7-0.2-1.4-0.4-2-0.7c-0.5-0.2-1.4-0.3-1.4-0.3s-1.6-0.6-2.3-0.7c-0.2,0.1-0.2-0.3-0.4-0.2
	c-0.1,0.1-0.4-0.2-0.4,0.1c-0.2-0.2-0.6-0.3-0.8,0c-0.2,0.5,0.2,5.5,0.1,6.2c-0.1,0.1,0,0.7-0.1,1c0,0.4,0,0.8,0,1.3
	C57.2,47.7,57.3,49.2,57.3,50.9z M69.3,47.3c0.3,0,0.9,0.8,0.7,0.8l0.1,1L70,49.3c-0.1-0.2-0.8-1.1-0.8-1.1S69.2,47.3,69.3,47.3z
	 M67.7,49c0.3,0,1.9,1.7,1.7,1.8l-0.1,0.6H69c-0.1-0.2-1.5-1.5-1.5-1.5S67.6,49,67.7,49z M67.2,50.9c0.3,0.1,0.5,1.1,0.3,1.1
	l-0.4,0.3l-0.2,0c0-0.2-0.3-0.6-0.3-0.6S67,50.8,67.2,50.9z M81.1,56.1c-0.3-1.7-0.6-0.4-1-2c-0.1-1,0.7-1,0.8-1.7
	c0.1-0.9,0-1.6-0.2-2.2c-0.5,0-0.3-0.5-0.5-0.8c-0.1-0.1-0.4,0.1-0.5,0c-0.3-0.3-0.2-0.4-0.7-0.5c-0.9-0.3-2.5-0.3-3.9-0.4
	c-0.7,0-1.4-0.1-2.1-0.1c-0.1,2-0.2,4.1-0.6,5.7c-0.4,0.4-0.4,0.2-0.9,0.3c-2.3,0.4-4.2,0.5-6.6,0.4c-2.4,0.2-4.2,0-6.6-0.3
	c-0.9-0.1-1.2,0.5-2-0.1c0-0.4-0.1-0.4-0.1-0.7c0-0.2-0.1-0.2-0.1-0.4c0.1-1.6-1-3.4-0.8-4.8c0-0.1,0-0.2,0-0.3c-0.3,0-0.5,0-0.8,0
	c-5,0.2-10.1,0.3-15.1,0.4c-1,0.7-1.9,1.1-3.9,2.1c-1.1,0.5-2.6,0.7-3.9,1c-1.3,0.3-2.1,0.8-3.6,0.8l-1.5-0.2c-0.6,0-2.5-0.6-2.9-1
	c-0.3-0.4-0.7-1.4-0.7-1.9l0-0.6c-0.8,0-1.5,0.1-2,0.4c-0.6,0.8-1.4,1.4-1.3,2.9c0,0.3,0.3,0.4,0.2,0.8c0.3,2.9-0.1,2.2,0.1,4.8
	c0.1-0.7,0.1-1.5,0.1-0.6c0,1.7-0.4,3.7,0.6,4.5c0.9,0,1.9,0.2,2.2-0.4c0,0,0,0,0,0c0,0.2-0.1,0.4-0.1,0.6V67c0,1.8,0,3.5,0.1,5.1
	c0.5,0.8,2.1,0.5,3.3,0.5c0-0.1,0.4,0,0.3-0.2c0.1-0.1,0.2-0.1,0.3-0.3c0.2-0.1,0.5-0.2,0.5-0.6c0,0,0.1,0,0.1-0.1
	c0-0.1-0.1-0.1-0.1-0.2c0.1-0.5-0.1-0.7-0.1-1.1c0-2.1,0.1-4.3-0.1-6.2c0-0.8-0.1-1.5-0.1-2.3c2.8-0.1,5.7-0.4,8.2,0
	c7.5,0,14.3-0.7,21.7-0.7c5.2-0.3,10.7,0.4,16.4,0.7c0,0,0,0.1,0,0.1V67c0,1.8,0,3.5,0.1,5.1c0.5,0.8,2.1,0.5,3.3,0.5
	c0-0.1,0.4,0,0.3-0.2c0.1-0.1,0.2-0.1,0.3-0.3c0.2-0.1,0.5-0.2,0.5-0.6c0,0,0.1,0,0.1-0.1c0-0.1-0.1-0.1-0.1-0.2
	c0.1-0.5-0.1-0.7-0.1-1.1c0-2.1,0.1-4.3-0.1-6.2c0-0.8-0.1-1.6-0.1-2.4c0.6,0,1.2-0.1,1.5-0.5c1.2-0.9,1.7,0.6,2.1-1.2
	C80.8,57.7,81.2,58.6,81.1,56.1z M25.8,71.2c0.1,0.2-0.3,0.1-0.4,0.1H24v-0.9c0.8,0,1.2,0.4,1.8,0.6V71.2z M78.8,53.2
	c0.3,0,0.8,0.7,0.6,0.7l0.1,1l-0.2,0.1c-0.1-0.2-0.7-1-0.7-1S78.7,53.2,78.8,53.2z M77.4,60.3L77,60.7l-0.2,0.1
	c-0.1-0.2-0.4-0.6-0.4-0.6s0-0.9,0.2-0.9C76.9,59.3,77.6,60.2,77.4,60.3z M79.3,60.1h-0.3c-0.1-0.2-1.5-1.5-1.5-1.5s0-0.9,0.2-0.9
	c0.3,0,1.9,1.7,1.7,1.8L79.3,60.1z M79.7,58c-0.1-0.2-1.1-1.3-1.1-1.3s0-0.9,0.2-0.9c0.3,0,1.1,1,1,1.1l0.1,1L79.7,58z M29.8,46.7
	c-0.8,0.2-1.4,0.1-2,0.3c-0.8,0.2-1.3,0.3-1.3,0.4c-0.6,0-1.2-0.1-1.6,0.3c-0.3,0.4-0.5,0.8-0.5,1.3c0,0.5-0.1,0.5,0.2,0.9
	c0.4,0.4,0.5,0.5,1.1,0.5l0.4,0.2c1.5,0,1.6,0.1,3-0.2c1.3-0.3,4-0.5,5.1-1c2.3-1.2,3.2-1.5,4.3-2.5c1-0.9,1.8-2.2,2.4-3.1
	c0.5-0.7,0.6-1.1,0.2-1.7c-0.1-0.2-0.4-0.7-0.6-0.8c-0.4-0.3-1.3-0.5-1.7-0.3c-0.5,0.3-0.6,0.1-0.9,0.5c-0.6,0.9-1.6,1.9-2.4,2.5
	c-0.2,0.2-0.2,0.4-0.4,0.6c-0.5,0.4-0.7,0.7-1.5,1.3c-0.3,0.2-1.2,0.3-2,0.5C31.2,46.5,30.2,46.7,29.8,46.7z M35.5,41.5
	c0.5-0.5,0.7-0.7,0.7-0.7c0.6-0.8,1.3-1,2.2-1.1c0.3,0,1.4-0.2,1.8-0.2c0.6,0,1.2,0.2,1.6,0.5c0.5,0.3,1.1,1.4,1.2,1.8
	c0.2,0.5,0.1,0.9,0,1.5c0,0.5-0.4,0.7-0.7,1.2c0,0.1-0.3,1.1-1.2,2c0,0,1.9-0.2,4.6-0.2c2.2,0,4.2-0.3,5.9-0.3
	c1.4,0,3.1,0.3,3.2,0.2c0.4-0.1,0.5-2.5,0.5-2.5l-0.1-1.3l-0.1-2.5l-0.2-1.3c0-0.6,0.3-1.2-0.3-1.2c-1.4,0-3.8,0.2-4.9,0.2
	c-3.2,0-5.5-0.4-7.3-0.5c-2.9-0.1-4.4,0.3-5.5,0.8c-0.5,0.2-1,0.3-1.4,0.7c-0.4,0.4-0.6,1.1-0.8,1.6c-0.4,0.9-0.4,1.8-0.2,2.6
	C35.1,42.4,35.2,41.8,35.5,41.5z"/>
</svg>
