<svg id="Layer_1" data-name="Layer 1" xmlns="http://www.w3.org/2000/svg" viewBox="0 0 100.02 98.75"><defs><style>.cls-1{fill:#fff;}.cls-2{fill-rule:evenodd;}</style></defs><path class="cls-1" d="M98.85,45.4A50.77,50.77,0,0,0,64,4.4c-5.7-1.8-20.5-5.2-36.3,2.3C11.65,14.3.45,30.3-.75,47.5c-1.7,24.1,16,39.2,19.5,41.9a55.64,55.64,0,0,0,31.4,11.4h2.2a46.3,46.3,0,0,0,30.5-10.9C102.45,73.1,99,46.6,98.85,45.4ZM28.35,8.1C43.55.9,58,4.2,63.45,5.9a51.4,51.4,0,0,1,13.1,6.4A53.77,53.77,0,0,0,71,9.8c-2.7-1-24.1-8-43.7-1.2A11.73,11.73,0,0,0,28.35,8.1ZM.85,47.6a46.91,46.91,0,0,1,10.4-25.9c-6.4,9.9-8.9,22-9.2,24.1a50.4,50.4,0,0,0,7.3,31.3C4.55,70.1,0,60.1.85,47.6Zm81,41.1c-7.7,6.7-19.2,10.9-31.6,10.6a42.31,42.31,0,0,0,13.1-2.2C85.45,89.8,98,66.6,96,41.8c-.1-1.3-.3-2.5-.5-3.7a49.13,49.13,0,0,1,1.7,7.6C97.35,46.8,100.75,72.5,81.85,88.7Z" transform="translate(0.86 -2.05)"/><path class="cls-2" d="M50,26.51c2.42-.06,1.23-4.4,1.26-6.3,0-1.09.19-2.47-.36-3.05h-.54c0,.25-.3.3-.36.53s0,.36-.18.36c0,1.32-.37,2.78-.54,4.14s-.49,2.88.18,4.14C49.67,26.36,50,26.3,50,26.51ZM38.84,29.75a2.72,2.72,0,0,0,1.26-1.08A15.11,15.11,0,0,0,39,22.92c-.44-.1-.38-.7-1.08-.55a7.65,7.65,0,0,1-.9-.9s-.14,0-.18,0c-.27.22-.28.68-.54.9v1.8C37.31,25.88,36.15,29.74,38.84,29.75Zm25.56,2c1.19.29,1.5-.4,2-.9a6.64,6.64,0,0,0,1.08-2,4.79,4.79,0,0,0,.9-1.62A13.6,13.6,0,0,1,68.9,26c.15-.39.5-.78.36-1.26,0-.14-.15-.2-.36-.18-1.12.87-2,2-3.06,2.88-.71,1.18-2.35,2.09-2,3.78A.93.93,0,0,1,64.4,31.73Zm-38.34,2c0-.61,1.17-.15,1.08-.9-.21-1.83-1.65-2.42-2.16-4-.7-.2-.92-.87-1.62-1.08-.25.24-.18.79-.18,1.26-.43.42-1,.66-1.08,1.44.16,2.07.91,3.53,2.7,4A1.75,1.75,0,0,0,26.06,33.71Zm44.28,8.82a48.86,48.86,0,0,0-3.78-3.24c-.38-.94-1.28-1.36-1.62-2.34-.75-.63-1.14-1.61-2-2.16-2.51-.19-4.78-.62-7.2-.9-3.29.06-7.3,0-10.08-.18-.11,0-.21,0-.18.18-1.79,0-3.7.41-5.4,0q-2.68,1.55-5.58,2.88a21.49,21.49,0,0,1-2.34,2.52c-2,1.16-3.48,2.76-5.4,4-.67.72-.61,2.15-1.62,2.52-.91.53-.71,2.17-1.08,3.24a14.73,14.73,0,0,0,1.44,2.52,12.63,12.63,0,0,0,1.62,2.34c.73,1.92,2.2,3.08,2.7,5.22,1.36,1,2,2.72,3.24,3.78.31.89,1,1.36,1.44,2.16s1,1.36,1.44,2.16c2.17,2.57,4.54,4.94,6.3,7.92,1.79,1.57,3.48,3.23,5.22,4.86,1.2.36,2.07,1,3.24,1.44.33-.55.85.21,1.44,0,2.58-.77,3.87-2.85,5.58-4.5,1.37-2,2.82-3.89,4.14-5.94.95-1.68,2.35-3.42,3.24-4.86.1-.17.27-.23.36-.36s.2-.66.36-.9c0-.08.29-.09.36-.18s.08-.4.18-.54c.4-.58.76-.93,1.08-1.44.15-.24.19-.65.36-.9.05-.08.3-.1.36-.18s.08-.4.18-.54c.57-.83,1-1.6,1.62-2.34,1.28-3.15,3.1-5.77,3.24-10.08A6.43,6.43,0,0,1,72.86,47,22.53,22.53,0,0,0,70.34,42.53ZM26.6,49c-.09-.09.13-.23.18-.18S26.65,49.06,26.6,49Zm38-6.84h.54c.55.77,1.2,1.43,1.8,2.16s1.31,1.21,1.62,2.16c-1.73,1-3.73,1.68-5.4,2.7-1.23-.63-1-2.68-2-3.6C61.56,43.72,63.65,43.52,64.58,42.17Zm-23.4-5.58a77.23,77.23,0,0,0,13.32.72c1.76.22,3.61.35,5.22.72a5.47,5.47,0,0,1,2.52.54c.53.43.77,1.15,1.26,1.62-1.14,1.57-3,2.35-4.68,3.42-5.19-2.23-13.4.61-19.08-1.08-.27-.33-.75-.45-.9-.9-.39-.21-1-.22-1.08-.72-.67-.47-1.5-.77-1.8-1.62A20.44,20.44,0,0,0,41.18,36.59ZM38.66,48.83c.27-.15.26-.58.36-.9.3-.6.42-1.38.72-2,5.35-1.37,12.41-1,19.08-1.08-.13,2.29,1.26,3.06,1.44,5-3.5.4-7.65.15-11.16.54-2.9-.64-6.53-.55-10.08-.54C39.16,49.29,38.82,49.15,38.66,48.83ZM28.22,46.49c.14-.76.84-1,1.26-1.44A9.14,9.14,0,0,1,31.1,44c.87-.86,2-1.49,2.88-2.34,0-.29.17-.31.18-.54,0,0,.14,0,.18,0,1.32,1,2.09,2.35,3.78,2.88a12.35,12.35,0,0,1-1.26,2.16c-.29.8-1,1.19-1.08,2.16A49.21,49.21,0,0,0,28.22,46.49ZM45,73c-.65-.67-1.16-1.48-1.8-2.16-1.49-3.91-3.77-7-5.94-10.26-2-3.41-4.29-6.51-6.3-9.9.1-.26-.7-.44-.18-.54a31.37,31.37,0,0,1,5.94,2C38.37,56,40,59.89,41.9,63.59c.69,2.06,1.77,3.74,2.52,5.76a13.93,13.93,0,0,1,1.26,2.88,9.67,9.67,0,0,1,1.26,2.88C45.9,74.77,45.71,73.57,45,73Zm7.74,4.32c-1-.34-1.31-1.33-1.8-2.16-.74-.52-.8-1.72-1.44-2.34-.23-2-1.15-3.41-1.44-5.4-.39-.75-.52-1.76-.9-2.52-.09-1-.56-1.6-.72-2.52a67.93,67.93,0,0,0-3.78-9.72c.46-.5,2,.13,2.52-.36a22.86,22.86,0,0,1,5,.9h7c1.42-.09,2.81-.93,4-.72.23,1.33-.58,3-1.08,4.14a22,22,0,0,0-1.26,4.32C56.1,65.67,54.42,71.49,52.7,77.27Zm18-26.64A7.45,7.45,0,0,0,70,52.25a6.64,6.64,0,0,0-.72,1.62c-1.28,2.51-2.78,4.79-4,7.38-1.4,1.66-2.18,4-3.78,5.4a14.73,14.73,0,0,1-1.8,2.88c-.76.74-1.17,1.83-2,2.52-.54-.32.1-1,0-1.44a6.63,6.63,0,0,0,.36-1.26A8.57,8.57,0,0,1,59,67c1.71-5,4.82-8.5,5.4-14.58,1.55-1.5,4-2.09,5.76-3.42h.18C71.15,48.85,70.93,50.31,70.7,50.63ZM81,36.59c0,.21-.29.2-.54.18-.72.67-1.62,1.14-2.34,1.8s-2.12.76-1.8,2.52c1.26,1,2.4-.37,3.42-.72.8-1.17,2.22-1.73,2.34-3.6C81.61,36.78,81.51,36.46,81,36.59Z" transform="translate(0.86 -2.05)"/></svg>