<?xml version="1.0" encoding="utf-8"?>
<!-- Generator: Adobe Illustrator 18.1.1, SVG Export Plug-In . SVG Version: 6.00 Build 0)  -->
<svg version="1.1" id="Layer_1" xmlns="http://www.w3.org/2000/svg" xmlns:xlink="http://www.w3.org/1999/xlink" x="0px" y="0px"
	 viewBox="1082.4 0 334.8 798.8" enable-background="new 1082.4 0 334.8 798.8" xml:space="preserve">
<g>
	<g>
		<g>
			<path fill="#F37064" d="M1082.5,606.9c-6.1,21.5,217.6,174.7,239.1,190c21.5,15.3,21.5-67.4,21.5-73.6
				c0-6.1-180.8-110.3-199.2-116.5C1125.4,600.8,1082.5,600.8,1082.5,606.9z M1260.3,429.1c18.4-6.1,107.3-12.3,128.7-12.3
				s30.7-79.7,27.6-82.8c0-6.1-217.6,30.7-233,36.8C1168.3,377,1174.5,459.8,1260.3,429.1z M1297.1,67.4
				c18.4-15.3-33.7-67.4-39.8-67.4c-3.1,0-153.3,168.6-162.5,183.9c-9.2,15.3,58.2,61.3,104.2-21.5
				C1211.2,144.1,1278.7,82.8,1297.1,67.4z"/>
		</g>
	</g>
</g>
</svg>
