<?xml version="1.0" encoding="utf-8"?>
<!-- Generator: Adobe Illustrator 23.1.1, SVG Export Plug-In . SVG Version: 6.00 Build 0)  -->
<svg version="1.1" id="Layer_1" xmlns="http://www.w3.org/2000/svg" xmlns:xlink="http://www.w3.org/1999/xlink" x="0px" y="0px"
	 viewBox="0 0 100 100" style="enable-background:new 0 0 100 100;" xml:space="preserve">
<style type="text/css">
	.st0{fill:#83C7BD;}
</style>
<path class="st0" d="M99.7,44C97,25,83.4,8.9,64.8,3c-5.7-1.8-20.5-5.2-36.3,2.3C12.5,12.9,1.3,28.9,0.1,46.1
	c-1.7,24.1,16,39.2,19.5,41.9c8.6,6.8,20.1,10.9,31.4,11.4c0.7,0,1.5,0,2.2,0c8.6,0,20.2-2.1,30.5-10.9
	C103.3,71.7,99.8,45.2,99.7,44z M29.2,6.7c15.2-7.2,29.6-3.9,35.1-2.2C69,6,73.4,8.2,77.4,10.9c-1.9-1-3.8-1.8-5.6-2.5
	c-2.7-1-24.1-8-43.7-1.2C28.5,7.1,28.9,6.8,29.2,6.7z M1.7,46.2c0.7-9.4,4.4-18.5,10.4-25.9c-6.4,9.9-8.9,22-9.2,24.1
	c-1.1,10.7,1.5,21.9,7.3,31.3C5.4,68.7,0.8,58.7,1.7,46.2z M82.8,87.3C75,94,63.5,98.2,51.1,97.9c4.1,0,8.5-0.7,13.1-2.2
	c22.1-7.3,34.6-30.5,32.6-55.3c-0.1-1.3-0.3-2.5-0.5-3.7c0.8,2.5,1.3,5,1.7,7.6C98.2,45.4,101.6,71.1,82.8,87.3z"/>
<path d="M27.9,57.2c0.3,0,1.5,0.2,2.6,0.4c1.1,0.2,2.1,0.5,2.1,0.5s1.2,0.2,1.7,0.3s1.2,0.3,1.6,0.3c0.2,0,0.2-0.4,0.2-0.4
	c0-1,0.2-1.2,0.4-2.2c0.2-0.8,0.3-1.9,0.6-2.7c0.3-0.6,1-1.6,1.3-2.4c0.3-0.6,0.9-0.9,1.3-1.4c0.5-0.6,1-0.8,1.6-1.3
	c1-0.9,1.6-1.5,2.7-2.1l-3-0.6l-4.8-0.9c0,0-2.4-0.4-1.9-0.4c0.5,0.1-1-0.4-1.7-0.3c-0.7,0.1-2.7-0.5-2.7-0.5s-1.8-0.4-2.2-0.3
	c-0.4,0.2-0.9,1.3-0.7,1.5s1.2,0.2,1.4,0.4c0.1,0.1,0,1.6,0,2.1s-0.4,1.6-0.4,1.6s-0.8,2.8-0.7,3.8c0.1,1-0.7,2.5-0.7,2.5l-0.6-0.1
	c0,0-0.3-0.2-0.7-0.1c-0.4,0.1-0.2,1.8-0.2,1.8l0.7,0.3C25.8,57.1,27.2,57.3,27.9,57.2z M59.5,34.7c0.9,0,2.1-0.4,3.7-0.7
	c1.1-0.2,1.4-0.4,2.2-0.6v2.7c0,0,0.1,2.2,0,3.2s-0.2,3.3-0.2,3.3s0.3,0.2,0.9,0c0.6-0.3,1.1-0.4,1.1-0.4s0-1.6,0-3.3
	c0-1.8,0.1-3.8,0-4.2c-0.1-0.8-0.2-1.9-0.2-1.9c0.3-0.1,0.7-0.1,1-0.3c0.3-0.1,0.6-0.3,0.9-0.4c0.7-0.3,1.4-0.6,2.1-0.9
	c0.5-0.2,1.4-0.5,1.8-0.7c0.5-0.3,1.2-0.7,1.4-1c0.5-0.5,0.3-0.7,0.2-1c-0.2-0.5-1.5-0.7-3.4-0.3c-0.7,0.1-1.4,0.3-2.2,0.6
	c-0.5,0.2-1.1,0.3-1.7,0.5L67,26.5c0.4-1.2-0.1-1.7-0.7-1.7c-0.2,0-0.7,0.2-0.8,0.3c-0.2,0.2-0.2,0.4-0.2,0.7l-0.1,1.2l0.2,1.5
	l-0.1,1.4c-1.3,0.4-2.6,0.7-3.6,1.2s-2.1,1.2-2.7,1.7c-0.9,0.6-1.2,1.2-1.1,1.5C58,34.5,58.7,34.7,59.5,34.7z M26.8,33.7
	c0.4,0.2,0.8,0.5,1.2,0.7c0.2,0.1,0.4,0.2,0.5,0.3c0.6,0.3,1.3,0.6,2.1,0.9c0.3,0.1,0.6,0.3,0.9,0.4c0.3,0.1,0.7,0.2,1,0.3
	c0,0-0.1,1.2-0.2,1.9c0,0.4,0,1.3,0,3c0,1.7,0,1.5,0,1.5s0.5,0.1,1.1,0.4c0.6,0.3,0.9,0,0.9,0s0-0.5-0.1-1.3v-5.1
	c0.7,0.2,1.1,0.4,2.1,0.6c0.1,0,0.1,0,0.1,0c0.5,0.1,1,0.2,1.4,0.3c0.8,0.2,1.5,0.4,2.1,0.4c0.7,0,1.4-0.2,1.5-0.5
	c0.1-0.4-0.2-0.9-1.1-1.5c-0.6-0.4-1.7-1.2-2.7-1.7c-1-0.4-2.1-0.7-3.3-1.1c-0.1,0-0.1-0.1-0.2-0.1V32l0.1,0.1l-0.1-0.8v-0.1
	c0,0,0,0,0-0.1l0-0.2c0-0.3,0.1-0.6-0.2-0.7c-0.1-0.1-0.6-0.3-0.8-0.3c-0.5,0-1,0.4-0.7,1.4v1.1l0,0.3c-0.2-0.1-0.5-0.1-0.7-0.2
	c-0.3-0.1-0.6-0.2-1-0.3c-0.8-0.2-1.7-0.5-2.4-0.6c-1.2-0.1-2.1-0.2-2.6-0.1c-0.3,0.1-0.5,0.3-0.6,0.5c-0.1,0.3-0.3,0.5,0.2,1
	C25.6,33.2,26.3,33.5,26.8,33.7z M71.9,71.8c0,0-0.9-0.7-1.5-1c-0.6-0.3-1.5-1.1-2-1.3c-0.5-0.2-1.2-0.9-1.2-0.9s0-1.4,0-2.4
	c-0.1-1,0.1-3.2,0-4.1c-0.1-0.9-0.1-2.2-0.1-2.2s-0.4-0.3-1.1-0.1c-0.5,0.1-0.8,0.5-0.8,0.5v2.9c0,0-0.1,2.3,0,2.9
	c0.1,0.6,0,2.6,0,2.6l-1.5,0.9l-1.9,1.1c0,0-0.7,0.9-1.4,1.1c-0.7,0.2-0.6,0.9-0.3,1.3c0.2,0.3,0.5,0.3,0.8,0.3c0.3,0,0.3,0,0.5-0.1
	c0,0,0.2-0.2,0.5-0.4c0.5-0.4,1.4-1,1.9-1.2c0.8-0.3,1.9-1.6,2.3-1.5c0.4,0,0.8,0.6,0.8,0.6l1.3,0.9c0,0,0.5,0.2,1.1,0.6
	c0.6,0.4,1.2,1,1.5,1.1c0.4,0.2,0.6,0,0.7,0c0.3,0,0.2,0.4,0.6,0.1C72.8,73,72.3,72,71.9,71.8z M39,71.8c0,0-0.9-0.7-1.5-1
	c-0.6-0.3-1.5-1.1-2-1.3c-0.5-0.2-1.2-0.9-1.2-0.9s0-1.4,0-2.4c-0.1-1,0.1-3.2,0-4.1c-0.1-0.9-0.1-2.2-0.1-2.2s-0.4-0.3-1.1-0.1
	c-0.5,0.1-0.8,0.5-0.8,0.5v2.9c0,0-0.1,2.3,0,2.9c0.1,0.6,0,2.6,0,2.6l-1.5,0.9L29,70.7c0,0-0.7,0.9-1.4,1.1s-0.6,0.9-0.3,1.3
	c0.2,0.3,0.5,0.3,0.8,0.3c0.3,0,0.6,0.1,0.8,0c0,0,0.1-0.3,0.4-0.5c0.5-0.4,1.2-1,1.7-1.2c0.8-0.3,1.9-1.6,2.3-1.5
	c0.4,0,0.8,0.6,0.8,0.6l1.3,0.9c0,0,0.5,0.2,1.1,0.6c0.6,0.4,1.2,1,1.5,1.1c0.4,0.2,0.6,0,0.7,0c0.3,0,0.2,0.4,0.6,0.1
	C39.9,73,39.4,72,39,71.8z M60.7,64.7c0.7-1.2,0.7-2.4,1-3.8c0.1-0.6-0.3-0.3,0.1-1.7c0.2-0.8-0.1-2-0.1-2.1c0-1.8-0.8-2.4-1.5-3.9
	c-0.5-1.1-1.1-1.9-1.8-2.8c-0.9-1-1.4-1.5-2.6-2.2c-0.1-0.1-0.2-0.1-0.4-0.2c-0.5-0.3-1-0.5-1.6-0.7c-0.6-0.2-1.1-0.6-1.7-0.7
	c-0.7-0.1-1.3-0.2-2.1-0.2s-2.2,0.4-2.9,0.5c-0.6,0.1-2.8,1-3.3,1.2c-0.1,0.1-1.2,1.2-1.3,1.2c-1.8,1-3,2.3-3.7,3.7
	c-0.7,1.4-1,3.4-1,5.6c0,0.1,0,0.2,0,0.4c0,0.6-0.3,0,0.2,1.8s0.4,1.7,0.7,2.5c0.4,1.1,1,2,1.7,2.9c0.8,1,1.8,1.9,2.8,2.6l-0.6,1.7
	l-0.3,0.8l-0.5,1.4c-0.2,0.5,0.3,0.5,0.7,0.7c0.1,0,0.2,0,0.3,0c0.4,0,0.9,0,1.1-0.4l0.4-1.5l0.5-1.6c0.9,0.4,1.3,0.5,2.3,0.7
	c0.8,0.2,1.8,0.2,2.6,0.2c0.7,0,2.1-0.2,2.8-0.2c1.3,0,1.3,0,2.3-0.4l0.5,1.1l0.2,1.9c0.1,0.4,0.7,0.2,1.1,0.2c0.1,0,0.2,0,0.3,0
	c0.5-0.2,0.9-0.5,0.8-0.9L57,70.6l-0.4-1.4c0.8-0.5,1.5-1.2,2.2-1.9C59.3,66.6,60.3,65.5,60.7,64.7z M59.1,59.3
	c0.1,0,0.8,0.8,1.5,1.6c-0.1,0.3-0.2,0.7-0.3,1c-0.8-0.9-1.6-1.7-1.7-1.8C58.5,59.8,59,59.3,59.1,59.3z M58.4,61.7
	c0.1,0,0.8,0.8,1.5,1.7c-0.1,0.4-0.3,0.7-0.5,1c-0.8-0.9-1.6-1.8-1.7-2C57.6,62.2,58.2,61.7,58.4,61.7z M50.3,62.5
	c-0.1-0.5,0-1.2,0-1.8c0.4-0.9,1.6-1.2,2.9-1.1c0-1.6-0.1-3.1,0-4.7c-0.9,0.1-1.6,0.4-2.5,0.5c-0.4,0.1-0.8,0.2-1.3,0.3
	c-0.2,0.1-0.4,0.1-0.6,0.2c-0.2,0.1-0.4,0.1-0.5,0.2c-0.3,0-0.3,0-0.5,0c0.1,1.5,0,3.3,0,5c0,0.2-0.1,0.4-0.3,0.5
	c0.1,0.2,0.2,0.3,0.2,0.5c0,0.2,0.1,0.3,0,0.4c0,0.1-0.1,0.2,0,0.4c-0.2,0.4-0.5,0.7-0.9,0.9c-0.4,0.3-0.9,0.4-1.4,0.4h-0.8
	c0-0.1-0.2,0-0.3,0c-0.2-0.1-0.5-0.2-0.6-0.4c-0.3,0-0.5-0.1-0.6-0.2c-0.1-0.2-0.2-0.3-0.1-0.5v-0.6c0.1-0.2,0.2-0.4,0.3-0.6
	c0.1-0.2,0.3-0.3,0.5-0.4c0.4-0.2,0.8-0.4,1.4-0.4h1.5c0.1-0.1,0-0.3,0-0.4c0-2.3,0-4.5,0-6.7c0-0.2-0.4-0.1-0.3-0.4
	c0-0.2,0.3-0.2,0.4-0.3c0-0.2,0.2-0.3,0.3-0.3c0.3,0,0.2,0.2,0.5,0.2c0.4-0.2,0.8-0.3,1.2-0.5c0.5-0.1,0.8-0.3,1.3-0.4
	c0.4-0.2,0.8-0.3,1.2-0.5c0.4-0.2,0.9-0.3,1.3-0.4h0.6c0.3-0.1,0.6,0,0.8,0.2c0.1,0.2,0,0.5-0.1,0.6c0.1,0.1,0.2,0.2,0.2,0.4
	c0.1,2.4,0.3,4.7,0.3,7.2c0,0.2-0.1,0.3-0.1,0.4c0.2,0.3,0.3,0.8,0.3,1.3c0,0.1-0.1,0.2-0.1,0.4c-0.6,0.9-1.4,1.7-3,1.6
	c-0.1-0.1-0.2-0.1-0.3-0.1C50.7,63,50.5,62.8,50.3,62.5z M51,69.8c-0.2-0.4-0.4-0.7-0.4-0.8c0-0.2,0.8-0.6,0.9-0.5
	c0,0,0.3,0.5,0.6,0.9C51.7,69.6,51.3,69.7,51,69.8z M53.6,69c-0.5-0.8-1-1.6-1-1.6c0-0.1,0.5-0.5,0.7-0.4c0.1,0,0.7,0.9,1.3,1.7
	C54.2,68.8,53.9,68.9,53.6,69z M55.7,68.1c-0.6-0.8-1.2-1.5-1.2-1.6c-0.1-0.2,0.6-0.9,0.8-0.9c0.1,0,0.7,0.8,1.3,1.7
	C56.3,67.6,56,67.9,55.7,68.1z M57.6,66.4c-0.6-0.8-1.2-1.5-1.3-1.6c-0.2-0.2,0.4-0.8,0.5-0.8c0.2,0,0.8,0.8,1.5,1.7
	C58.1,65.9,57.9,66.1,57.6,66.4z M74.6,54.9c-0.3-0.1-1.8,0-1.8,0l-0.6-3.4c0,0-0.7-2.7-0.8-3.9c0-0.7-0.2-1.2-0.3-1.6
	c-0.1-0.4-0.3-0.4-0.2-0.6s1.5-0.3,1.6-0.7c0.1-0.2,0-0.6-0.1-0.9c-0.1-0.4-0.3-0.9-0.5-0.9s-1,0.2-1,0.2s-1.5,0.3-2,0.4
	c-0.4,0.1-2.9,0.6-2.9,0.6l-3.6,0.8c0,0-1.4-0.1-2.2,0.2c-0.7,0.2-2.4,0.8-3.2,0.9c-0.8,0-1.4,0.2-1.4,0.4c0.1,0.2,1.5,1.1,2.3,1.8
	c0.8,0.7,1.8,1.2,2.5,2c0.5,0.6,0.9,1.2,1.2,1.8c0.4,0.6,0.6,1.5,0.8,2.2c0.3,0.9,0.5,1.8,0.7,2.8c0.1,0.7,0.3,1.2,0.3,1.9
	c0,0,0,0,0,0l1.7-0.3l1.7-0.3c0,0,0.9-0.3,1.9-0.4c1-0.1,3.4-1,4.3-1c0.9,0,1.7-0.1,1.8-0.3C75.1,56.3,75,55,74.6,54.9z M70.3,50.1
	c0,0,0.9,0.6,1,0.5l0,0.7l-0.3,0.4c-0.3-0.1-1.1-0.8-1.3-1S70.3,50.1,70.3,50.1z M70.5,56.3l-0.6,0c0.3-0.2-1.7-1.4-1.8-1.6
	c-0.1-0.1,0.3-0.6,0.5-0.7s2,1.4,2.1,1.5L70.5,56.3z M71.4,54.2l-0.3,0.2c-0.4-0.2-2.5-2-2.5-2s0.1-0.8,0.3-0.9s2.4,1.9,2.5,2.1
	L71.4,54.2z"/>
</svg>
