<?xml version="1.0" encoding="utf-8"?>
<!-- Generator: Adobe Illustrator 23.1.1, SVG Export Plug-In . SVG Version: 6.00 Build 0)  -->
<svg version="1.1" id="Layer_1" xmlns="http://www.w3.org/2000/svg" xmlns:xlink="http://www.w3.org/1999/xlink" x="0px" y="0px"
	 viewBox="0 0 100 98.8" style="enable-background:new 0 0 100 98.8;" xml:space="preserve">
<style type="text/css">
	.st0{fill:#83C7BD;}
	.st1{fill-rule:evenodd;clip-rule:evenodd;}
</style>
<path class="st0" d="M99.7,43.5C96.9,24.2,83.3,8.3,64.8,2.4c-5.7-1.8-20.5-5.2-36.3,2.2C12.5,12.3,1.3,28.3,0.1,45.5
	c-1.7,24.1,16,39.2,19.5,42c9.1,6.9,20.1,10.8,31.4,11.3c0.7,0,1.5,0,2.2,0c11.1,0.2,22-3.7,30.5-10.9
	C103.3,71.1,99.8,44.6,99.7,43.5z M29.2,6.1c15.2-7.2,29.6-3.9,35.1-2.2c4.6,1.5,9.1,3.7,13.1,6.5c-1.8-0.9-3.7-1.7-5.6-2.5
	c-2.7-1-24.1-8-43.7-1.2C28.5,6.5,28.9,6.3,29.2,6.1z M1.7,45.6C2.5,36.1,6.1,27,12.1,19.6C7.6,27,4.5,35.2,3,43.8
	c-1.1,10.9,1.5,21.9,7.3,31.3C4.1,66.5,1,56.1,1.7,45.6z M82.7,86.7C75,93.4,63.5,97.6,51.1,97.3c4.5,0,8.9-0.8,13.1-2.2
	c22.1-7.3,34.6-30.5,32.6-55.3c-0.1-1.3-0.3-2.5-0.4-3.8c0.8,2.5,1.3,5,1.7,7.6C98.2,44.8,101.6,70.5,82.7,86.7L82.7,86.7z"/>
<path class="st1" d="M71.9,46.4c-0.2-1.5-0.6-2.4-0.6-4.1c-0.3-0.4,0-2.1-1.6-2.6s-5.7,0.5-6.9-0.7c-0.2-1.5,0.2-3.5-0.1-5.1
	c-0.3-0.8,0.7-0.1,0.6-0.7c-0.4-0.1-0.3-0.7-0.7-0.7c-0.1-0.5-0.8-0.3-0.9-0.7c-0.7-0.3-1.3-0.7-1.9-1.2c-1.8-0.6-6.2-3-12.9-1.9
	c-4.4,0.6-7.1,0.9-10,2.3c-2.9,1.4-2.8,0.8-4.7,4.2c0,0.2,0,0.4-0.2,0.4v0.9c0.8,0.8,1.7,1.4,2.7,2c2.5,1.3,5.4,1.9,8.2,1.8
	c1.1,0,7.5,1.3,12.4-0.6c1.6-0.6,3.2-1.3,4.6-2.3H60c0.5-0.2,0.2,0.5,0.3,0.7s0.3,0.3,0.1,0.7c0.2,0.4,0,1.2,0.3,1.5
	c0,0.2,0,0.4,0,0.6c-0.1,0-0.2,0-0.2,0h-0.2c-1.5,0.9-3,1.6-4.6,2.1c-5,1.7-11.6,0.5-12.7,0.6c-2.9,0.1-5.7-0.4-8.4-1.6v-0.1
	c-0.5-0.2-1.7-0.6-2.7-1.1c0,4.6,0.3,9.3,0.9,13.9c-0.1,4.2,0.3,8.5,1.2,12.6c0.2,0.4,0.8,0.5,1.2,0.7s0.8,0.6,1.2,0.9
	c2.7,0.7,5.4,1,8.2,1.2c3,0.3,6.1,0.4,9.1,0.3c2.8-0.5,5.4-1.6,7.6-3.2c0.8-0.7,1.5-1.5,1.9-2.5c0.1-1.3,0.3-2.5,0.7-3.7
	c1.5,0.2,4.5-0.7,5.2-0.8c1-0.4,1.7-1.2,2.2-2.1c0.1-0.2,0.1-0.3,0.1-0.5C72,53.9,72.1,50.2,71.9,46.4z M49.2,35
	c0.8,0.1,1.6-0.4,2.2,0c-0.4,0.3-1,0.3-1.5,0.5c-0.4,0.2-0.9,0.2-1.3-0.2C48.5,34.9,49.3,35.4,49.2,35z M49.2,37.6
	c0.7-0.5,1.9-0.4,3.1-0.4c0.9-0.2,1.8-0.3,2.6-0.3C53.1,37.8,51.1,38,49.2,37.6L49.2,37.6z M55.8,36.9c-0.1-0.1,0.1-0.2,0.2-0.1
	S55.8,36.9,55.8,36.9L55.8,36.9z M56.8,36.6c-0.1-0.1,0.1-0.2,0.1-0.2S56.8,36.6,56.8,36.6L56.8,36.6z M59.9,35.1
	c-0.5,0.2-0.5,0.9-1.3,0.7c0-0.5,0.3-1.2,0-1.6c-1.1-1-3.3-0.9-5.1-1.2h-6c-3,0.1-3.9,0.6-7.1,0.5C39.1,34,38,34.5,37,35.3
	c-0.8,0.8-0.2,0.9-0.4,1.2c-0.5-0.1-1-0.3-1.3-0.7c-0.5-0.2-0.7-0.7-0.7-1.2c0.7-0.2,1.3-0.5,1.9-0.9c1-0.4,5.4-2.6,9.3-2.9
	s6.6,0.1,7.7-0.2c1.4,0,2.8,0.3,4,1c1.3,0.3,2.5,0.8,3.1,1.9C60.6,34.4,59.9,34.4,59.9,35.1L59.9,35.1z M60.9,41.8
	c0-0.1,0-0.1,0-0.2c0,0,0-0.1,0-0.1C60.9,41.6,60.9,41.7,60.9,41.8L60.9,41.8z M60.3,65.1c-1.2,1-2.4,1.8-3.8,2.4
	c-1.7,0.6-15.1,0.4-15.1,0.4s-5.6-1.2-5-2.2s-0.9-2.9-0.9-2.9c1.9,0.8,3.8,1.4,5.8,1.9c2.3,0.5,9.5,0.3,13-0.5
	c1.9-0.4,3.6-1.1,5.3-2.1c-0.2-0.4-0.5-0.7-0.7-1c-0.3-0.3-1.6-1.8-1.5-2s0.7-0.4,0.9-0.2c0.8,0.9,1.5,1.8,2,2.8
	c0.4-0.3,0.6-0.5,0.6-0.5l0.1,2.8C60.8,64.3,60.6,64.7,60.3,65.1L60.3,65.1z M60.7,60.1c-0.4,0-0.5-0.5-0.5-0.5s-1.4-1.6-1.7-1.8
	s-1.6-1.8-1.5-2s0.7-0.4,0.9-0.2s3.6,4.5,3.6,4.5C61.3,60.1,61,60.1,60.7,60.1L60.7,60.1z M57.2,53c0.1-0.2,0.7-0.4,0.9-0.2
	c1.2,1.3,2.4,2.7,3.3,4.2c0,0,0.2,1.1-0.2,1S60,56.8,60,56.8c-0.3-0.5-0.6-1-1-1.5C58.3,54.6,57.7,53.8,57.2,53z M61.3,55.4
	c-0.4,0-0.5-0.5-0.5-0.5s-1.8-2.6-2-2.8s-1.6-1.8-1.5-2s0.7-0.4,0.9-0.2s3.9,5.6,3.9,5.6C61.8,55.3,61.6,55.3,61.3,55.4L61.3,55.4z
	 M61.3,51.8c-0.3-0.1-0.5-0.6-0.5-0.6c-0.4-0.7-0.8-1.3-1.3-1.9c-0.3-0.3-1.6-1.8-1.5-2s0.7-0.4,0.9-0.2c0.4,0.1,3.2,4.6,3.1,4.7
	C61.8,51.8,61.6,51.8,61.3,51.8L61.3,51.8z M61.5,48.4c-0.3-0.1-0.5-0.6-0.5-0.6c-0.4-0.7-0.8-1.3-1.3-1.9c-0.3-0.3-1.6-1.8-1.5-2
	s0.7-0.4,0.9-0.2c0.4,0.1,3.2,4.6,3.1,4.7C62,48.4,61.7,48.4,61.5,48.4L61.5,48.4z M69.8,57.6c-0.9,0.6-2,0.9-3.1,0.9
	c-1,0.3-2,0.4-3.1,0.6c-0.4-0.9,0.2-1.1,0.3-2c1.2,0,3.5-0.9,3.4-1.6c0.2-0.3,0.4-0.6,0.6-1c-0.1-0.3-0.4-6.9-0.4-10.2
	c-0.2-0.7-1.3-0.6-1.8-1c-0.2,0.2-0.9,0.1-1.3,0.2c-0.2,0.2-0.9,0.3-1,0.2c0.1-0.5-0.2-1.4-0.1-1.9c1-0.1,2-0.1,3,0
	c0.9-0.1,1.7,0,2.6,0.1c0.8,1.1,1.3,3.3,1.3,6.1C70.2,51.2,70.1,54.4,69.8,57.6L69.8,57.6z M65.6,45.6v2.7c0.2,1.6,0.2,4.1,0.4,5.8
	c-0.5,0.6-1.2,1-2,1.2c0-3.1,0-6.9-0.1-9.9c0.3-0.3,1.1-0.1,1.5-0.3S65.6,45.3,65.6,45.6L65.6,45.6z"/>
</svg>
