<?xml version="1.0" encoding="utf-8"?>
<!-- Generator: Adobe Illustrator 23.1.1, SVG Export Plug-In . SVG Version: 6.00 Build 0)  -->
<svg version="1.1" id="Layer_1" xmlns="http://www.w3.org/2000/svg" xmlns:xlink="http://www.w3.org/1999/xlink" x="0px" y="0px"
	 viewBox="0 0 100 98.8" style="enable-background:new 0 0 100 98.8;" xml:space="preserve">
<style type="text/css">
	.st0{fill:#FFFFFF;}
</style>
<path class="st0" d="M99.7,43.5C96.9,24.2,83.3,8.3,64.8,2.4c-5.7-1.8-20.5-5.2-36.3,2.2C12.5,12.3,1.3,28.3,0.1,45.5
	c-1.7,24.1,16,39.2,19.5,42c9.1,6.9,20.1,10.8,31.4,11.3c0.7,0,1.5,0,2.2,0c11.1,0.2,22-3.7,30.5-10.9
	C103.3,71.1,99.8,44.6,99.7,43.5z M29.2,6.1c15.2-7.2,29.6-3.9,35.1-2.2c4.6,1.5,9.1,3.7,13.1,6.5c-1.8-0.9-3.7-1.7-5.6-2.5
	c-2.7-1-24.1-8-43.7-1.2C28.5,6.5,28.9,6.3,29.2,6.1z M1.7,45.6C2.5,36.1,6.1,27,12.1,19.6C7.6,27,4.5,35.2,3,43.8
	c-1.1,10.9,1.5,21.9,7.3,31.3C4.1,66.5,1,56.1,1.7,45.6z M82.7,86.7C75,93.4,63.5,97.6,51.1,97.3c4.5,0,8.9-0.8,13.1-2.2
	c22.1-7.3,34.6-30.5,32.6-55.3c-0.1-1.3-0.3-2.5-0.4-3.8c0.8,2.5,1.3,5,1.7,7.6C98.2,44.8,101.6,70.5,82.7,86.7L82.7,86.7z"/>
<path d="M63.5,52.3c0.6,0.2,1.2,0,1.5-0.6c0.1-0.2,0.1-0.4,0.1-0.5c0-1.1-0.5-1.9-1.2-1.8c-0.6,0.1-1.2,0.2-1.8,0.5
	c0,0.1,0,0.2-0.1,0.2C61.9,51.6,62.2,52.6,63.5,52.3z M57,61.6c-0.6-0.1-1.2,0.1-1.8,0.5c-0.3,0.5-0.3,1.1,0,1.6
	c0.4,0.4,0.3,0.4,1,0.5c0.6,0,1.3-0.1,1.9-0.3c0.2-0.2,0.7-0.1,0.7-0.5c0.3-0.1,0.3-0.5,0.3-0.9C58.8,61.9,57.7,61.9,57,61.6z
	 M58,58.5c0.3-0.8,0.3-1.6-0.1-2.3C57.1,56,56.3,56,55.5,56c-0.5,0.4-0.8,1-0.8,1.7c0.4,0.3,0.9,0.6,1.4,0.7
	C56.7,58.4,57.3,58.9,58,58.5z M57.6,52.1c0.2-0.2,0.7-0.1,0.7-0.5c0.3-0.1,0.3-0.5,0.3-0.9c-0.3-0.6-1.4-0.6-2.1-0.9
	c-0.6-0.1-1.2,0.1-1.8,0.5c-0.3,0.5-0.3,1.1,0,1.7c0.4,0.4,0.3,0.4,1,0.5C56.4,52.4,57,52.3,57.6,52.1L57.6,52.1z M71,38.9
	c-0.2-1-0.4-1.9-0.7-2.8c-0.4-0.5-1-1-1.6-1.2c-0.2-0.4-1.3-0.2-1.5-0.5c-0.4-0.2-3.3-0.2-3.5-0.7c0.3-0.2-0.1-4.9-0.6-4.9
	c-0.2-0.3-3.2-1.5-3.6,1.9c0,0.9,0,1.8-0.2,2.7c-1.1-0.1-3.2,0.1-4-0.3c0.2-1.3,0.2-2.7-0.2-4c-0.3-0.2-0.5-0.7-1.2-0.6
	s-0.7-0.3-1.5-0.1c-0.1,0-0.3,0.1-0.4,0.2c-0.6,0.4-0.2,3.6-0.4,4.6c-0.4,0-1.2,0-1.7,0s-1.1,0.2-1.3-0.1c-0.3-1.3,0-2.9-0.4-4
	c-1.1-0.8-2.5-0.7-3.5,0.2c-0.3,1.2-0.4,2.4-0.3,3.7c-0.6,0-1,0.3-1.6,0.3s-2.1,0-2.3-0.2c0-0.8-0.8-3.8-1.7-4.3
	c-0.8-0.3-1.8-0.2-2.5,0.3c-0.2,0.4-0.5,0.7-0.7,1c-0.3,1.3,0.1,2.1,0.2,3.5c-2.4,0.3-4.6,1.4-6.4,3.2c-0.1,0.1-0.2,0.2-0.2,0.4
	c-0.3,0.5-0.5,1-0.6,1.6c-0.3,0.7-0.4,1.4-0.5,2.1c-0.2,2.7-0.1,5.9-0.1,8.9c0.3,5.7,1,11,1.2,16.8c0.3,0,0.1,0.4,0.1,0.6
	c0.3,0.4,0.4,0.8,0.5,1.2c0.5,0.3,0.9,0.8,1.2,1.2c0.6,0.1,1.1,0.3,1.6,0.6c0.6,0.2,1.3,0.2,2,0.4c5.4-0.1,9.4,0.4,14.5,0.1
	c4-0.6,8.8-0.4,12.8-1.1h5.4c0.3-0.2,0.8-0.2,1.2-0.4s0.8-0.6,1.1-0.8c0.2-0.2,0.2-0.6,0.5-0.7c0.6-2.3,0.9-4.6,0.9-7
	C71,58.2,71,55.6,71,53C71,47.7,71,43.7,71,38.9z M64.4,40.4c0.2,0,1.1,1.8,1.3,2.3c0.2,0.5,0.5,1,0.8,1.5c0,0,0.6,0.5,0.5,0.9
	s-0.8,0-0.8,0s-2.4-3.9-2.4-4.1S64.1,40.4,64.4,40.4L64.4,40.4z M62.5,30.8c0.1,0.1-0.1,0.2-0.1,0.1S62.5,30.7,62.5,30.8L62.5,30.8z
	 M61.9,40.5c0.2,0,1.1,1.8,1.3,2.3c0.2,0.5,0.5,1,0.8,1.5c0,0,0.6,0.5,0.5,0.9s-0.7,0.2-0.7,0.2s-2.3-3.9-2.4-4.2
	S61.7,40.5,61.9,40.5L61.9,40.5z M59.7,40.3c0.2,0,1.1,1.8,1.3,2.3c0.2,0.5,0.5,1,0.8,1.5c0,0,0.6,0.5,0.5,0.9s-0.8,0-0.8,0
	s-2.3-3.9-2.4-4.2S59.4,40.3,59.7,40.3L59.7,40.3z M57.2,40.3c0.2,0,1.1,1.8,1.3,2.3c0.2,0.5,0.5,1,0.8,1.5c0,0,0.6,0.5,0.5,0.9
	s-0.6,0.2-0.6,0.2s-2.3-3.9-2.4-4.2S57,40.3,57.2,40.3L57.2,40.3z M55,41.1c0.2,0,0.7,1.2,0.9,1.7c0.2,0.5,0.5,1,0.8,1.5
	c0,0,0.6,0.5,0.5,0.9s-0.8,0-0.8,0s-2-3.3-2-3.5S54.7,41.1,55,41.1z M52.7,41.3c0.2,0,0.7,1.2,0.9,1.7c0.2,0.5,0.5,1,0.8,1.5
	c0,0,0.6,0.5,0.5,0.9s-0.8,0-0.8,0s-2-3.3-2-3.5S52.4,41.4,52.7,41.3L52.7,41.3z M50.1,41.3c0.2,0,0.7,1.2,0.9,1.7
	c0.2,0.5,0.5,1,0.8,1.5c0,0,0.6,0.5,0.5,0.9s-0.8,0-0.8,0s-1.9-3.3-2-3.5S49.8,41.4,50.1,41.3L50.1,41.3z M48,42.1
	c0.2,0,0.5,1,0.7,1.5c0.1,0.3,0.2,0.5,0.4,0.7c0.2,0.3,0.4,0.7,0.5,1.1c-0.1,0.4-0.5,0.1-0.5,0.1s-1.6-2.6-1.6-2.9
	S47.7,42.1,48,42.1z M45.7,42.9c0.5,0.8,1,1.6,1.3,2.5c-0.1,0.4-0.5,0.1-0.5,0.1c-0.5-0.7-0.9-1.5-1.3-2.2
	C45.1,43,45.4,42.7,45.7,42.9L45.7,42.9z M43.3,43.1c0.4,0.7,0.8,1.3,1.1,2c-0.1,0.4-0.5,0.1-0.5,0.1c-0.4-0.6-0.7-1.2-1-1.8
	C42.8,43.2,43.1,42.9,43.3,43.1L43.3,43.1z M68.3,66.1c-0.4,0.4-0.8,0.7-1.2,1c-0.6,0.4-8.7,0.5-10.4,0.4S42.3,68,40.4,68
	s-5.9-0.4-5.9-0.4c-0.8-0.5-1.4-1.2-1.8-1.9c-0.6-1.1-1.3-19-1.3-19c1.3,0.3,2.7,0.4,4,0.2c1.3-0.4,6.1,0,8,0s10.2-0.1,11.3-0.2
	s13.2,0,13.2,0s0.1,6.1,0.5,9.9C69,63.5,68.2,66.1,68.3,66.1L68.3,66.1z M50.3,52.8c0.2,0,0.5-0.1,0.7-0.2c0.3,0,0.3-0.4,0.5-0.6
	c0-0.9-0.2-1.2-0.9-1.5c-0.4,0-0.7,0-1.1,0.1c-0.9-0.1-1.9-0.1-1.9,0.8c0.2,0.7,0.9,0.9,1.4,1.3C49.6,52.7,49.6,52.8,50.3,52.8z
	 M65.3,58c0.1-0.6-0.1-1.2-0.6-1.6c-1.2-0.2-3-0.2-3.1,1.1C61.7,58.9,64.7,59.1,65.3,58z M64.4,61.2c-0.6,0.1-1.2,0.2-1.8,0.5
	c0,0.1,0,0.2-0.1,0.2c-0.1,1.5,0.3,2.5,1.6,2.2c0.6,0.2,1.2,0,1.5-0.6c0.1-0.2,0.1-0.3,0.1-0.5C65.6,61.9,65.1,61.1,64.4,61.2z
	 M36.6,62.2c-0.3-0.1-0.4-0.1-0.8,0c-0.4,0.4-1.2,0.5-1.1,1.4c-0.1,0.2,0.1,0.4,0.2,0.6c0.3,0.4,0.8,0.7,1.4,0.8
	c0.4,0.1,0.9,0.1,1.3,0c0.5-0.4,0.7-1,0.8-1.6C37.9,62.7,37.3,62.3,36.6,62.2L36.6,62.2z M43.4,59c0.2,0,0.5-0.1,0.7-0.2
	c0.3,0,0.3-0.4,0.5-0.6c0-0.9-0.2-1.2-0.9-1.5c-0.4,0-0.7,0-1.1,0.1c-0.9-0.1-1.9-0.1-1.9,0.8c0.2,0.7,0.9,0.9,1.4,1.3
	C42.7,58.9,42.7,58.9,43.4,59z M44.4,52.4c0-0.3,0.3-0.3,0.3-0.7c-0.1-0.4-0.2-0.7-0.3-1.1c-0.8-0.3-1.6-0.4-2.5-0.3
	c-0.3,0.1-0.6,0.3-0.7,0.6c0,0.5,0.1,1.1,0.3,1.5C42.2,52.8,43.8,53.1,44.4,52.4L44.4,52.4z M42.4,62.1c-0.3,0.1-0.6,0.3-0.7,0.6
	c0,0.5,0.1,1,0.4,1.5c0.8,0.4,2.3,0.7,2.9,0c0-0.3,0.3-0.3,0.2-0.7c-0.1-0.4-0.2-0.7-0.3-1.1C44.1,62.1,43.2,62,42.4,62.1L42.4,62.1
	z M36.1,59.3c0.6,0.2,1.2,0,1.5-0.6c0.1-0.2,0.1-0.3,0.1-0.5c0-1.1-0.5-1.9-1.2-1.8c-0.6,0.1-1.2,0.2-1.8,0.5c0,0.1,0,0.2-0.1,0.2
	C34.5,58.5,34.9,59.5,36.1,59.3L36.1,59.3z M51.3,58.6c0-0.3,0.3-0.4,0.3-0.7c-0.1-0.4-0.2-0.7-0.3-1.1c-0.8-0.3-1.6-0.4-2.5-0.3
	c-0.3,0.1-0.6,0.3-0.7,0.6c0,0.5,0.1,1.1,0.3,1.5C49.2,59,50.8,59.2,51.3,58.6L51.3,58.6z M35.7,53.1c0.4,0.1,0.9,0.1,1.3,0
	c0.5-0.4,0.7-1,0.8-1.6c-0.4-0.6-1-1-1.8-1c-0.3-0.1-0.4-0.1-0.8-0.1c-0.4,0.5-1.2,0.5-1.1,1.4c-0.1,0.2,0.1,0.4,0.2,0.6
	C34.6,52.8,35.1,53.1,35.7,53.1z M51.1,62.3c-0.4,0-0.7,0-1.1,0.1c-1-0.1-1.9-0.1-1.9,0.8c0.2,0.7,0.9,0.9,1.4,1.3
	c0.6,0,0.7,0.1,1.3,0.1c0.2,0,0.5-0.1,0.7-0.2c0.3,0,0.3-0.4,0.5-0.6C52,62.9,51.8,62.6,51.1,62.3z"/>
</svg>
