<?xml version="1.0" encoding="utf-8"?>
<svg version="1.1" id="Layer_1" xmlns="http://www.w3.org/2000/svg" xmlns:xlink="http://www.w3.org/1999/xlink" x="0px" y="0px"
	 viewBox="0 0 100 100" style="enable-background:new 0 0 100 100;" xml:space="preserve">
<path d="M74.8,35.1l-4.1-7.2l-1.4-2.1c-0.2-0.3-0.6-0.5-1-0.5c0,0-0.8,0-2.4,0c-0.9,0-2.2-0.1-3.4-0.1C58,25.1,52.1,25,50.1,25.2
	c-3.3,0.3-15.7,0-15.7,0h-2.5c-0.4,0-0.8,0.2-1,0.5c0,0-1.3,1.8-1.8,3.1c-0.5,1.3-1.7,2.9-1.7,2.9l-2,3.3c-0.1,0.2-0.2,0.4-0.2,0.6
	c0,0-0.2,1.2-0.3,2.1c0,0.9,0.3,2.5,0.3,2.5h0c0.1,0.9-0.1,1.8,0.3,2.5c0.4,0.8,1.2,1.3,1.9,1.9l0,11.7c0.3,4.9,0.8,9.6,1.1,14.6
	c0.3,0,0.1,0.4,0.1,0.6c0.3,0.3,0.4,0.7,0.5,1.2c0.5,0.4,0.9,0.8,1.2,1.2c0.6,0.1,1,0.4,1.6,0.6c0.6,0.1,1.2,0.2,1.8,0.3h15.8
	c4.2-0.4,10.9-0.2,14.4-0.7h5.3c0.3-0.2,0.8-0.2,1.2-0.4c0.4-0.3,0.7-0.5,1.1-0.8c0.2-0.2,0.2-0.6,0.5-0.7c0.4-1.3,0.6-2.8,0.7-4.3
	V44.8c1.2-1.2,2-2.8,2.2-4.6h0v-4.6C75,35.5,74.9,35.3,74.8,35.1z M61.9,27.5l2.7-0.1c0,0-0.1,0,0.8,0c0.9,0,2.3,0,2.3,0l1.3,2.2
	c0,0,0.9,1.3,1.2,2c0.2,0.4,0.8,1.6,1.3,2.3c0.2,0.4,0.5,0.6,0.4,0.7c0,0.1-1,0-1.7,0c-0.7,0-3.4,0-3.4,0h-1.8c0,0-2.1,0.1-2.3-0.2
	c-0.2-0.3-0.5-1.2-0.5-1.2s0-0.5-0.4-1.2c-0.4-0.7-0.5-1.5-0.5-1.5L61.2,29l-0.7-1.6L61.9,27.5z M51.2,36.8h2.5l4.4,0.3l2.9-0.3v2.9
	c0,1.3-0.8,2.4-1.6,3.3c-0.9,0.9-1.8,1.5-3.2,1.5c-1.5,0-3.1-0.9-4-1.9c-0.7-0.8-0.8-1.7-0.8-2.9l0.1-1.2L51.2,36.8z M51.2,28.9
	c-0.1-0.7,0-1.5,0-1.5h3.1c0,0,0.7,0.1,1.8,0c1.1-0.1,2,0,2,0l0.5,1.5c0,0,0.7,1.8,0.9,2.7c0.1,0.9,1,3,1,3s-2.5-0.2-3.7,0
	c-1.3,0.2-3.4,0-3.4,0s-1.9,0.2-2.1,0c-0.1-0.2,0-1,0-1v-2.8C51.2,30.8,51.4,29.5,51.2,28.9z M40.6,32.1c0.2-1,0.8-2.5,0.8-2.5
	s0.2-0.4,0.3-1c0.1-0.5,0.4-1.2,0.4-1.2h1.2c0,0,1.9,0.2,3.2,0s2.5,0,2.5,0v0.9l-0.1,3.2l0.1,3.1h-2.5h-4.4c0,0-2.4,0.1-2.4-0.2
	C39.9,34.2,40.3,33.1,40.6,32.1z M49,38.1v1.7c0,1.4-0.5,2.5-1.5,3.4c-0.9,0.7-1.9,1.3-3.4,1.4c-1.1,0.1-2.1-0.4-2.9-1
	c-0.5-0.4-1-0.6-1.3-1.4c-0.3-0.8-0.7-1.6-0.7-2.5c0,0-0.4-2.6,0-2.9c0.4-0.3,4.2,0,4.2,0s1-0.1,2.1,0c1.4,0.2,3.3-0.2,3.3,0
	C49,37,49,38.1,49,38.1z M29.4,32.8l1.3-2.2c0,0,0.6-0.9,1-1.7c0.4-0.8,0.9-1.5,0.9-1.5h0.8c0,0,2.1,0.1,3.2,0c1.1-0.1,3.2,0,3.2,0
	l-0.3,1c0,0-0.9,1.6-0.9,2.2c0,0.5-0.6,2.5-0.6,2.5l-0.5,1.4l-3.4-0.2l-1.8,0.2l-2.1-0.1c0,0-1.8,0.1-1.8-0.1
	C28.2,34.2,29.4,32.8,29.4,32.8z M32.3,44.5c-1.5,0-3.1-0.9-4-1.9c-0.7-0.8-0.8-1.7-0.8-2.9l0.1-1.2l-0.1-1.7h2.5l4.4,0.3l2.9-0.3
	v2.9c0,1.3-0.8,2.4-1.6,3.3C34.6,43.9,33.7,44.5,32.3,44.5z M43,65L43,65c-1.2,0-2.2-1-2.2-2.2c0-1.2,1-2.2,2.2-2.2
	c1.2,0,2.2,1,2.2,2.2C45.2,64,44.2,65,43,65z M63.9,57.5c0,1.1,0.1,3.3,0,5.1c0,1,0.3,1.7-0.1,2c-0.3,0.2-0.8,0.3-0.8,0.3h-1.9v-1.6
	c0,0,0.3-1.4,0-1.7c-0.3-0.3-1-0.1-1-0.1l-1.9-0.2c0,0-1.3,0-1.5,0.2c-0.2,0.2,0,1.2,0,1.2V65h-2.2v-2.4c0,0,0.3-0.7-0.3-0.9
	c-0.6-0.3-1.4,0-1.4,0h-2c0,0-0.7-0.2-0.9,0.2c-0.2,0.5,0.1,1,0.1,1v2h-3.4c0.4-0.7,0.3-1.1,0.6-2.2c0.3-1.1-0.1-1.2-0.3-1.7
	c-0.2-0.4-0.9-1.5-0.6-1.1c0.3,0.4-0.8-0.8-1.2-1.1v-2.3l-1.8-0.1c0,0-0.9,0.1-1.8,0.1c-0.7,0.1-0.8,0-0.8,0V59
	c-0.7,0.4-1.2,0.9-1.6,1.6c-0.4,0.7-0.6,1.4-0.6,2.2c0,0.8,0.2,1.6,0.6,2.2c0,0-2.2,0.1-2.5-0.1s-0.3-1.3-0.2-3c0-2.2,0-5.1,0-6.3
	c-0.1-1.5,0.2-3.7-0.1-5.4c-0.3-1.7,0.1-2.6,0.1-2.6v-2.1c0.8-0.5,1.4-1.2,1.9-2c0.5,0.8,1,1.5,1.8,2.1c0.5,0.4,1.3,0.6,2,0.8
	c0.7,0.2,1.5,0.2,2.3,0.2c0.7,0,1.2,0.1,1.8-0.1c0.7-0.2,1.6-0.5,2.2-0.9c0.9-0.6,1.3-1.3,1.8-2.1c0.3,0.5,0.4,0.9,1,1.3
	c0.6,0.4,1.4,0.9,2,1.2c1,0.5,2,0.7,3.1,0.7c1,0,2.3-0.5,3.1-0.9c0.7-0.3,1.2-0.8,1.6-1.2c0.3-0.3,0.6-0.5,1-1
	c0.5,0.8,1.2,1.5,1.9,2c0,0,0,2.4,0,4c0,0.8,0.2,2.5,0.2,4.1C64.1,55.2,63.9,56.7,63.9,57.5z M70.1,73c0-0.3-2.7-3.2-2.9-3.4
	s0.1-1.3,0.2-1.3c0.1,0,3.1,3.3,3.1,3.3L70.1,73z M70.9,70c-0.1,0.3-3-2.8-3.1-3.4c0-0.3,0.1-1,0.2-1.1c0.1,0,2.9,3.3,2.9,3.3
	L70.9,70z M71.3,67.2c0-0.2-2.6-2.6-2.7-2.9c-0.1-0.3,0.2-1.2,0.3-1.2c0.1,0,2.4,2.6,2.5,2.6L71.3,67.2z M71.3,59.4l0.1,1.4l0.1,0.2
	c-0.1-0.2-1.7-2.2-1.7-2.2s0-1.1,0.2-1C70.2,57.9,71.3,59.4,71.3,59.4z M70,56.1c0,0,0-1,0.2-0.9c0.2,0.1,1.4,1.4,1.4,1.4l0,0.9
	l-0.1,0.4C71.4,57.7,70,56.1,70,56.1z M71.6,64.1c0-0.2-2.5-2.6-2.6-2.8c-0.1-0.2,0.1-1,0.2-1c0.1,0.1,2.4,2.4,2.4,2.4L71.6,64.1z
	 M72.8,38.6v1.1c0,0.9-0.3,1.8-0.7,2.5c-0.4,0.6-0.9,1-1.5,1.4c-0.7,0.5-1.7,0.7-2.6,0.7c-1.4,0-2.7-0.4-3.6-1.4
	c-0.8-0.9-1.1-2.1-1.1-3.4L63.2,37l1.5-0.2c0,0,3,0,3.8,0s1.6,0,1.6,0s2.7-0.1,2.8,0.2C72.9,37.3,72.8,38.6,72.8,38.6z"/>
</svg>
