<?xml version="1.0" encoding="utf-8"?>
<!-- Generator: Adobe Illustrator 18.1.1, SVG Export Plug-In . SVG Version: 6.00 Build 0)  -->
<svg version="1.1" id="Layer_1" xmlns="http://www.w3.org/2000/svg" xmlns:xlink="http://www.w3.org/1999/xlink" x="0px" y="0px"
	 width="11.7px" height="28px" viewBox="2326.5 386 11.7 28" enable-background="new 2326.5 386 11.7 28" xml:space="preserve">
<g>
	<g>
		<g>
			<path fill="#F37064" d="M2336.1,407.3c-0.6,0.2-7,3.9-7,4.1c0,0.2,0,3.1,0.8,2.6c0.8-0.5,8.6-5.9,8.4-6.7
				C2338.2,407.1,2336.7,407.1,2336.1,407.3z M2334.7,399c-0.5-0.2-8.2-1.5-8.2-1.3c-0.1,0.1,0.2,2.9,1,2.9s3.9,0.2,4.5,0.4
				C2335,402.2,2335.2,399.3,2334.7,399z M2334.1,391.7c1.6,2.9,4,1.3,3.7,0.8c-0.3-0.5-5.6-6.4-5.7-6.4c-0.2,0-2,1.8-1.4,2.4
				C2331.4,388.9,2333.7,391.1,2334.1,391.7z"/>
		</g>
	</g>
</g>
</svg>
