<?xml version="1.0" encoding="utf-8"?>
<!-- Generator: Adobe Illustrator 24.3.0, SVG Export Plug-In . SVG Version: 6.00 Build 0)  -->
<svg version="1.1" id="Layer_1" xmlns="http://www.w3.org/2000/svg" xmlns:xlink="http://www.w3.org/1999/xlink" x="0px" y="0px"
	 viewBox="0 0 100 100" style="enable-background:new 0 0 100 100;" xml:space="preserve">
<style type="text/css">
	.st0{fill:#83C7BD;}
</style>
<path class="st0" d="M99.7,44C97,25,83.4,8.9,64.8,3c-5.7-1.8-20.5-5.2-36.3,2.3C12.5,12.9,1.3,28.9,0.1,46.1
	c-1.7,24.1,16,39.2,19.5,41.9c8.6,6.8,20.1,10.9,31.4,11.4c0.7,0,1.5,0,2.2,0c8.6,0,20.2-2.1,30.5-10.9
	C103.3,71.7,99.8,45.2,99.7,44z M29.2,6.7c15.2-7.2,29.6-3.9,35.1-2.2C69,6,73.4,8.2,77.4,10.9c-1.9-1-3.8-1.8-5.6-2.5
	c-2.7-1-24.1-8-43.7-1.2C28.5,7.1,28.9,6.8,29.2,6.7z M1.7,46.2c0.7-9.4,4.4-18.5,10.4-25.9c-6.4,9.9-8.9,22-9.2,24.1
	c-1.1,10.7,1.5,21.9,7.3,31.3C5.4,68.7,0.8,58.7,1.7,46.2z M82.7,87.3C75,94,63.5,98.2,51.1,97.9c4.1,0,8.5-0.7,13.1-2.2
	c22.1-7.3,34.6-30.5,32.6-55.3c-0.1-1.3-0.3-2.5-0.5-3.7c0.8,2.5,1.3,5,1.7,7.6C98.2,45.4,101.6,71.1,82.7,87.3z"/>
<path d="M74.9,53.2C74,51.2,74.4,43,74.4,43s1.2-1.6-0.1-1.9c-1.2-0.3-5.8,0.3-5.8,0.3l-2.7,0.1c0,0-0.1,0.1-0.1,0.2l-5.9-5.2
	c-0.6-0.5-4.9-1.2-5.6-1.2L53,35.5l-2.1,1c-0.7,0-1.4,0.3-1.9,0.8c0,0-2.2,1.5-3,3s-3.2,3.3-3.2,3.3s-1.8,1-2.2,2.2s0,0,0,0
	c-0.7,0.7-1,1.6-1,2.5c0,0.9,0.4,1.8,1.1,2.4c0.5,0.5,1.1,1.1,2.6,0.9c1.4-0.2,2-0.4,2.8-1.2c0.5-0.3,1.1-0.7,1.1-0.7
	c0,0,2.2-1.9,3.1-3.5c1-1.5,2.2-2.4,2.2-2.4c0.6-0.6,1.4-0.9,2-0.4c0.6,0.6,0.8,2.2,0.2,2.7l-2.9,1.6l3.6,2.6c0,0,2.6,1.4,3.8,2.8
	c1.2,1.4,3.3,3.1,3.3,3.1c1.9,1.3,2.5,2.6,4.1,2.4c0,0,0.1-0.1,0.2-0.3c0.1,0,0.3,0,0.6,0c0,0,2.7,0.6,3.5,0.6c1.5,0,4-1,4.7-1.1
	C76.7,57.7,75.8,55.2,74.9,53.2z M70,57.2c-0.4,0.1-0.7,0.2-1,0.4c0.2-0.5,0.4-2,0.5-2.1c0.2-0.2,0.7,0.2,0.7,0.3
	C70.3,55.8,70.1,56.5,70,57.2z M72.3,57.2c-0.3,0-0.7,0-0.9,0c0.2-0.9,0.3-2,0.3-2c0.1-0.1,0.7,0,0.8,0.2
	C72.5,55.4,72.4,56.3,72.3,57.2z M74.2,56.8c-0.3,0.2-0.6,0.3-1,0.4c0.2-0.6,0.3-1.5,0.4-1.6c0.2-0.2,0.7,0.2,0.7,0.3
	C74.4,55.8,74.3,56.3,74.2,56.8z M64.1,60.4l-1.2-0.8L61.3,58l-4.5-3.4l-4.5-2.8L51,50l-3.3,2.8c-2.5,2.5-6.7,1.9-9.2-0.5
	c-1-1-0.8-3.2-0.7-4.7c0.2-2.2,3.4-5.6,4.8-7.1l2.8-3.7c0,0-0.4-0.4-3.6,0.2s-3.6,1.2-3.6,1.2c-0.8,0-2,0.8-2.5,1.4l-1.7,1l-3,4.2
	l-3.6,0.3c0,0-7.6,0.4-7.8,0.7c-0.1,0.3,0.2,1.8,0.2,1.8l0.2,2.3c0,0,2,4.5,1.5,6.2c-0.3,1,0.6,3.5-0.1,5.2
	c-0.6,1.5-0.1,2.6-0.1,2.6s7.8-0.9,9.2-0.8c1.1,0.1,2.3-0.3,2.6-1.3l0.9,1.2l3.4,2c0,0,2.2,1.5,3.5,2.6c1.7,1.4,2.7,1.9,2.7,1.9
	c1.2,0.9,2,1.7,3.6,1.3c1.6-0.4,3-1,3.9-2.3l0,0l1.7,1.3c1.5,1.1,3.7-0.2,4.7-0.8C59,68,59,67.2,59,67.2l0.4-1.5l0.5,0.4
	c1.3,0.9,3.1,0.7,4-0.6l0.8-1.1C65.6,63.1,65.3,61.3,64.1,60.4z M23.5,61.4c-0.1-0.5-0.2-0.9-0.2-1c0-0.1,0.6-0.4,0.7-0.3
	c0.1,0.1,0.3,1,0.4,1.6C24.1,61.7,23.8,61.6,23.5,61.4z M25.5,61.9C25.3,61,25.2,60,25.3,60c0.1-0.2,0.7-0.2,0.8-0.2
	c0,0.1,0.2,1.1,0.3,2C26.1,61.8,25.8,61.9,25.5,61.9z M27.7,61.9c-0.1-0.7-0.3-1.4-0.3-1.5c0-0.1,0.6-0.4,0.7-0.3
	c0.1,0.1,0.4,1.7,0.5,2.1C28.4,62.1,28.1,62,27.7,61.9z"/>
</svg>
