<svg viewBox="0 0 512 512" xmlns="http://www.w3.org/2000/svg"><path d="m437 230.5c-8.3-64.5-38.2-117.2-116.4-141.7-71.6-22.5-135.8-5.6-174.2 17.2-51.7 30.6-115.4 154.3-34.2 266.7 59.8 82.8 192.9 68.7 243.3 38.1 37.6-22.7 92.9-91.1 81.5-180.3z" fill="#ec776a" fill-rule="evenodd"/><g fill="#fff"><path d="m323.4 150c-30.9 7.2-71.8 44.5-98.5 88.9-23 5.3-42.9 13.4-54.4 28.6l32.5 18.7 31.2 18.1 31.2 18.1 32.5 18.7c8.6-14.7 4.8-36.9-2.4-61.1 25.3-45.4 37.3-99.5 28-129.9v-.2zm-60.3 63.5c5.6-9.8 18.2-13.1 28-7.5s13.1 18.2 7.5 28-18.2 13.1-28 7.5-13.1-18.2-7.5-28z"/><path d="m215.8 313.3c-3.2 3.7-6.4 7.8-9.1 12.6-8.6 14.9-12.8 32.9-9.6 43 10.2-2.4 23.8-15 32.5-29.9 2.7-4.8 4.8-9.4 6.4-14.1l-10.1-5.8-10.1-5.8v-.2z"/></g></svg>