<?xml version="1.0" encoding="utf-8"?>
<!-- Generator: Adobe Illustrator 24.3.0, SVG Export Plug-In . SVG Version: 6.00 Build 0)  -->
<svg version="1.1" id="Layer_1" xmlns="http://www.w3.org/2000/svg" xmlns:xlink="http://www.w3.org/1999/xlink" x="0px" y="0px"
	 viewBox="0 0 100 100" style="enable-background:new 0 0 100 100;" xml:space="preserve">
<style type="text/css">
	.st0{fill:#FFFFFF;}
</style>
<path class="st0" d="M99.7,44C97,25,83.4,8.9,64.8,3c-5.7-1.8-20.5-5.2-36.3,2.3C12.5,12.9,1.3,28.9,0.1,46.1
	c-1.7,24.1,16,39.2,19.5,41.9c8.6,6.8,20.1,10.9,31.4,11.4c0.7,0,1.5,0,2.2,0c8.6,0,20.2-2.1,30.5-10.9
	C103.3,71.7,99.8,45.2,99.7,44z M29.2,6.7c15.2-7.2,29.6-3.9,35.1-2.2C69,6,73.4,8.2,77.4,10.9c-1.9-1-3.8-1.8-5.6-2.5
	c-2.7-1-24.1-8-43.7-1.2C28.5,7.1,28.9,6.8,29.2,6.7z M1.7,46.2c0.7-9.4,4.4-18.5,10.4-25.9c-6.4,9.9-8.9,22-9.2,24.1
	c-1.1,10.7,1.5,21.9,7.3,31.3C5.4,68.7,0.8,58.7,1.7,46.2z M82.7,87.3C75,94,63.5,98.2,51.1,97.9c4.1,0,8.5-0.7,13.1-2.2
	c22.1-7.3,34.6-30.5,32.6-55.3c-0.1-1.3-0.3-2.5-0.5-3.7c0.8,2.5,1.3,5,1.7,7.6C98.2,45.4,101.6,71.1,82.7,87.3z"/>
<path d="M61.9,51.3l-8.6,3.1c-2.6,0.8-4.8,0.4-6,0L40.2,53l-2.9-1.7l-3.2-1l-1.3,10.3c0,1.7,0.4,2.3,4,3.3c3.1,0.9,8.9,2.7,13.4,2.7
	c2.7,0,5.2-0.4,7.5-0.8c2.6-0.4,4.9-1,6.6-1.8c2.2-1,3.5-2.2,3.5-3.5l-1.3-10.3L61.9,51.3z M64.1,63.3c-0.3,0-0.6-0.7-0.6-0.7
	s0,0.2-0.4-0.1s-0.4-0.3-0.3-0.5s0.4-0.4,0.7-0.3c0.2,0.1,0.9,1,0.9,1S64.6,63.3,64.1,63.3z M65.4,61.8c-0.3,0-0.6-0.7-0.6-0.7
	s0,0.2-0.4-0.1s-0.8-0.8-0.7-1c0.1-0.2,0.5-0.7,0.7-0.5c0.2,0.1,1.3,1.4,1.3,1.4S65.8,61.8,65.4,61.8z M66.3,59.5
	c-0.3,0-0.6-0.7-0.6-0.7s0,0.2-0.4-0.1s-1.7-1.6-1.6-1.8c0.1-0.2,0.4-0.4,0.7-0.3c0.2,0.1,2.2,2.2,2.2,2.2S66.7,59.5,66.3,59.5z
	 M66.5,57.1c-0.3,0-0.6-0.7-0.6-0.7s-0.3-0.4-0.6-0.7c-0.4-0.3-1.7-1.6-1.6-1.8s0.6-0.5,0.9-0.4c0.2,0.1,2.5,2.8,2.5,2.8
	S66.9,57,66.5,57.1z M77.8,39.7L70,37.3l-10.4-2.7l-7.1-2.7c-1.4-0.4-2.9-0.4-4.3,0c0,0-1.5,0.8-5.1,1.9c-1.9,0.6-5.5,1.2-7.2,1.9
	c-2,0.8-5.3,2.2-7.4,2.8c-3.6,1.1-6.3,2-6.3,2c-2.1,0.7-1.5,2.7,0.6,3.3l4.4,1.4c-1,1.2-1.6,2.7-1.6,4.3c-0.9,0.5-1.5,1.4-1.5,2.5
	c0,1,0.5,1.8,1.3,2.3l-0.4,5.1L23,64.7c-0.2,0.9,0.5,1.8,1.4,1.8l2,1.2l2-0.3c0.9,0,2.8-1.7,2.6-2.6l-1.1-5l-1.2-5.4
	c0.7-0.5,1.3-1.4,1.3-2.3c0-1.1-0.6-1.9-1.4-2.4c0.1-1.4,0.8-2.6,1.9-3.3l7.1,1.8l10.7,3.7c0.8,0.3,2.4,0.6,4.3,0l6.4-2.4l9.3-2.4
	l9.5-3.4C81.1,43.6,80,40.4,77.8,39.7z"/>
</svg>
