<svg xmlns="http://www.w3.org/2000/svg" xmlns:xlink="http://www.w3.org/1999/xlink" height="120" viewBox="4 4 120 120" width="120" xmlns:v="https://vecta.io/nano"><use xlink:href="#B"/><use xlink:href="#B"/><path style="fill:#69a8a7" d="M2392.982 3060.087c-.992-5.074-2.472-9.66-4.627-13.573-.478-2.604-2.248-3.919-3.084-6.168-1.024-.518-1.045-2.042-2.158-2.467-.201-1.343-1.605-1.48-1.851-2.773-6.118-6.225-13.602-11.075-24.677-12.342-4.04-.174-8.8.37-12.339-.306-.874-1.903.06-5.612-2.468-5.864-.304-.943-.819.357-1.233.312-1.562 1.462.327 4.76-.615 6.476-16.7 2.221-28.545 9.296-37.938 18.815-1.165 2.849-3.271 4.754-4.627 7.403l-4.01 8.021c.191 2.453-.536 3.986-.312 6.479-.071 1.307.289 2.184.619 3.084-.517 1.511-.957 3.336.309 4.315 1.758.221 2.525-1.08 3.396-1.848.941-.832 1.491-1.96 2.776-2.468l2.466-1.235c1.963-.401 4.411-.316 6.788-.312.999.751 2.182 1.315 3.392 1.853-.071.586.352.68.308 1.232.838-.22-.221 1.457.617 1.235-.06 1.191.487 1.773 1.542 1.852 2.25-.321 2.189-2.953 3.087-4.625 3.226-3.604 9.314-5.846 16.35-4.627.673.659 1.712.959 2.158 1.85.511.823 1.763.906 1.85 2.159-.196 1.14-.837 1.834-.619 3.393v28.688c.31.823.639 1.626.619 2.775 2.166 3.691 4.191 7.528 8.328 9.253 3.621.885 6.41 1.078 9.869.311 1.217-.842 2.271-1.84 3.394-2.777.577-1.48 2.236-1.875 3.083-3.084 1.177-3.041 2.438-5.995 2.163-10.487-.826-1.336-1.394-2.928-2.777-3.702-.549-1.373-2.751-2.498-4.629-1.543-2.088 3.338 2.179 4.789 2.468 7.711-.586 5.068-3.535 7.771-9.873 7.099-2.942-2.502-3.841-7.06-5.24-11.107-1.032-4.515-1.773-9.327-2.467-14.187-.096-4.001.049-7.768.312-11.415.09-.834 1.296-.55 1.539-1.232.351-.678 1.032-1.023 1.235-1.851 1.143-.912 2.211-1.902 3.394-2.776 2.679-.919 5.154-2.042 8.944-1.85 1.809.862 3.586 1.759 4.625 3.39 1.056 1.005.26 3.857 2.16 4.014 2.969-.426 3.104-3.681 5.861-4.318 1.857-1.223 5.28-.888 8.325-.927 1.175 1.093 2.864 1.66 3.702 3.086 1.501.862 1.352 3.377 4.012 3.084.114-2.687-1.387-3.756-2.466-5.243-1.673-1.008-2.396-2.953-4.32-3.701-1.593-.26-2.735-.969-4.632-.926-2.235-.077-3.718 1.17-5.549.616-.865-7.978-4.36-13.321-8.019-18.508-.79-1.782-1.855-3.287-2.469-5.241-.454-.271-.978-.464-.927-1.236a8.53 8.53 0 0 1-2.158-2.159c-.954-.691-2.042-1.245-2.777-2.157-.787-.036-1.079-.566-1.539-.927-.275-.181-1.763-.647-.925-.925h6.168c1.481.366 2.959.741 4.627.925.26.665 1.59.261 1.851.927.976-.053 1.031.818 2.159.615 2.329 1.374 4.341 3.064 6.785 4.32 3.011 3.057 5.718 6.414 8.021 10.18 2.487 3.678 3.998 8.341 5.551 12.953.024 2.135.921 3.396.927 5.55.68 1.48.762 3.556 3.081 3.396 2.716-.269 2.497-3.472 2.464-6.485zm-88.214-4.935c.162.158-.225.394-.307.31-.16-.164.225-.398.307-.31zm-2.776.618c-.008.302-.378.238-.618.309.008-.304.378-.24.618-.309zm12.647 8.019c-1.372-.171-2.128-.959-3.087-1.544-1.128.103-1.712-.342-2.466-.616-4.249-.033-8.287.146-10.486 2.16-.781-.602.174-2.071.307-2.775.864-.368 1.775-.695 2.773-.927.607-.522 1.911-.354 2.471-.925 2.162-.2 4.346-.384 4.937-2.16-.31-1.645-1.882-2.021-4.011-1.85 2.273-1.736 6.693-1.326 8.019-4.012-.19-1.351-1.774-1.309-3.39-1.23-1.562.285-2.836.861-4.32 1.23.919-1.756 3.168-2.181 4.936-3.084.324-1.352-1.043-1.012-.924-2.16a6.26 6.26 0 0 0 1.848-1.851c2.023-.139 4.803.482 5.557-.927.022-1.153-1.215-1.05-2.16-1.23.568-.461 1.466-.592 2.467-.617.57-.457 1.469-.592 2.469-.617 1.237-.714 2.93-.977 3.701-2.16-.193-1.141-1.734-.939-3.087-.926 2.225-1.988 5.53-2.9 8.021-4.625 1.854-.306 3.552-.77 4.935-1.543.79-.014.378.23.311.617-2.896 2.451-5.532 5.162-8.33 7.711-4.754 6.77-8.907 14.131-10.491 24.061zm26.22-1.233c-.606-.838-1.479-1.405-1.854-2.469-1.771-.491-3.131-1.392-4.935-1.851-4.472-.258-8.099.334-11.414 1.231-1.481.578-2.461 1.651-4.009 2.16 1.578-2.947 2.877-6.167 4.627-8.944.815-1.445 1.345-3.182 2.468-4.32.52-1.74 1.946-2.572 2.467-4.316a70.01 70.01 0 0 0 6.17-6.168c2.849-1.368 3.795-4.639 6.787-5.861-.697 9.584-.123 20.442-.307 30.538.444.265.976.46.92 1.233-.81.091-1.008-.429-.92-1.233zm26.525-3.702c.612.582.523 1.08.306 1.852-.682-.039-.129-1.31-.306-1.852zm-16.038-24.678c1.484 1.701 2.967 3.405 4.934 4.629 2.733 5.594 5.105 11.551 6.479 18.506-1.299-.551-2.251-1.452-3.704-1.849-2.466-.104-4.179.551-6.476.615-1.831.843-4.156 1.188-5.862 2.159-.779-1.276-.652-3.455-.925-5.244-.438-1.517-.178-3.729-.616-5.243V3031.4c.088-.496-.292-.529-.31-.926v-.925c.498-.089.532.291.926.312 1.778 1.512 3.399 3.175 5.554 4.315zm358.893 12.237c.956 1.213 1.551 3.426 3.025 4.535.042.03.246-.003.302 0 .353.018.135.194.305.302 1.647 1.068 3.076 1.128 4.841 0 .017-1.029-.896-1.126-1.517-1.512-.371-.637-.836-1.18-1.209-1.814-1.09-.928-1.436-2.6-1.812-4.233.484-.423.32-1.492.904-1.815.207-.701 1.007-.81 1.213-1.512 1.107-.708 2-1.63 3.022-2.418.947-1.876 2.671-2.977 3.024-5.446 1.183-1.643 1.492-4.155 1.816-6.653-.144-1.373-.545-2.48-.607-3.933-2.309-3.641-4.069-7.823-8.771-9.073-.124-.517-.392.063-.907 0-1.342-.029-2.266.357-2.418 1.513.105 1.504 1.427 1.8 2.418 2.419.843.772 1.812 1.416 2.724 2.119 1.767 2.566 3.539 5.131 3.022 9.979-1.268 5.283-5.547 7.562-8.469 11.19-.493 1.222-1.1 2.328-1.211 3.934-.061.97.539 1.276.305 2.418zm-4.232-5.446c1.433-2.019.257-5.359-1.211-6.353-1.024.083-2.452-.233-3.022.304v.906c1.479 1.648 1.564 4.687 4.233 5.143zm17.24 3.026c-.048.354.051.855-.303.905-.261 2.116-.181 4.521 2.421 4.535 1.346-.367 1.085-2.337 1.512-3.628 2.076-1.957 6.152-1.913 6.654-5.444-1.325-.729-2.691-.634-4.234-.302-.562.119-.906.528-1.211.604-.767.19-.81.398-1.209.604-.874.447-1.303.488-1.815.906-.753.618-1.124 1.44-1.815 1.82zm50.208 31.757c-.354-2.57-1.924-3.925-3.023-5.747-1.727-1.298-2.986-3.063-4.537-4.536-1.864-.658-3.363-1.679-5.748-1.813-3.238.187-6.299.555-8.168 2.116-.643-2.184-1.608-4.036-3.022-5.445-5.035-.855-10.44.414-16.03 0l-15.425-1.51c-6.173-.227-11.547.348-17.543.3-5.158-.726-12.662-1.718-17.542 0-.021.889-.691 1.125-1.21 1.512-1.31 3.188-.024 7.229-.304 11.193.688.319.117 1.898.304 2.721.255.754.394 1.622.303 2.723.595.414.163 1.853.606 2.42.021.982.152 1.861.603 2.42.623 3.408 1.765 6.304 3.327 8.772.364.474.444 1.156.604 1.511.049.104.532.182.607.303.088.148-.072.446 0 .604.047.106.531.176.604.304.357.651.324 1.22.605 1.513.242.252.357.648.604.906.657.686 1.275 1.543 1.512 2.42.723.487 1.335 1.086 2.117 1.51.53.561 2.262.918 1.517 1.817-3.047.384-6.035.823-9.68.604-1.796-.321-3.57-.663-5.446-.907-1.487-.932-3.741-1.098-5.143-2.114-2.228-.37-4.593-.253-5.141 1.812-.018.186-.044.358-.305.302.033 2.69 1.29 4.156 3.027 5.144 1.276 1.444 3.17 2.274 5.141 3.024 1.713 1.011 3.785 1.657 5.747 2.42 1.136.275 2.137.685 3.325.906.773.637 2.184.644 3.024 1.211 3.093.133 5.886.569 8.771.906 9.205-.071 18.979.431 26.618-1.21 7.711-.157 15.174.239 22.382-.907.678-.529 1.698-.719 2.418-1.209.499-.715 1.556-.861 2.118-1.514 2.266-.252 3.211-1.828 5.142-2.42 1.545-2.184 4.342-3.115 3.932-7.257-.819-.392-1.073-1.347-2.42-1.21-1.327-.019-2.499.121-3.327.602-2.248.373-4.645.6-6.959.91h-11.793c.389-.926 1.729-.889 2.118-1.814.89-.422 1.146-1.479 2.42-1.514 1.513-.102 1.67 1.153 3.327.908 2.284-1.143 3.213-3.641 5.744-4.536.74-.269 1.312-.706 2.421-.605.383-.728 2.384.167 2.721-.604 2.444.226 3.571-.869 5.748-.908 3.321-1.015 6.642-2.026 9.071-3.932.654-.759.957-1.869 1.816-2.419.35-1.667 1.166-2.87 1.21-4.841.696-1.324 1.452-2.586 1.212-4.842zm-75.615-13.309h.605c.062.851-2.263-.084-.605 0zm-11.796 11.495c-.155-.157.22-.388.303-.303.157.155-.218.385-.303.303zm3.933 8.769c-.157-.156.22-.384.303-.301.154.158-.219.386-.303.301zm59.584 21.173c.49.085.521-.286.906-.304h2.118c.571.137 1.822-.41 1.512.604-.347.108-.767.533-.303.605-.221.28-.55.457-.908.604-.339.567-1.171.645-1.51 1.21-1.185-.176-1.758.26-2.421.605-.107.8-1.539.272-1.816.906-2.483.34-5.389.256-7.559.907l-32.363.906c-1.111.201-2.302.322-3.328.606h-9.375c-1.431-.08-2.33-.694-3.935-.606-1.387-.121-2.737-.281-2.721-1.813-.118-2.135 2.715-1.316 4.235-1.812 1.473-.545 3.443-.588 5.142-.909 2.16.159 3.916.722 6.354.604 1.494-.016 2.666-.355 3.93-.604 8.32-.032 16.759-1.269 25.102-.302 5.507-1.147 11.599-.341 16.94-1.207zm-12.102-9.073c-3.059 2.385-8.098 2.787-12.094 4.234-2.555-.232-4.168.468-6.653.303.308-1.404 1.382-2.045 1.206-3.934-2.893-.174-3.197 2.246-4.232 3.934-.854-.254-1.865-.354-2.726-.607.367-2.254 1.864-3.377 2.422-5.442-1.012-1.229-2.729.218-3.325 1.211-.977.837-1.396 2.231-2.42 3.022-.93-.078-1.361-.654-2.117-.906 1.253-2.273 2.572-4.482 3.63-6.955-1.988-.992-2.931 1.44-4.234 2.114-.88 1.438-2.062 2.576-2.721 4.235-1.361-.054-2.195-.628-3.026-1.209.145-2.979 1.998-4.254 2.118-7.261-2.368.354-2.974 2.471-4.232 3.934-.65-.438-2.166-1.011-1.212-2.118.162-1.048.812-1.61.906-2.721.661-1.763 1.617-3.221 1.814-5.443-2.341-.327-2.396 1.632-3.628 2.418-.36 1.655-1.456 2.58-1.813 4.234-1.024-.688-1.843-1.586-2.423-2.723.494-1.723 1.054-3.383 1.517-5.143.308-1.412 1.897-3.357.603-4.535-1.505.308-1.62 2.007-2.721 2.723-.137.771-.427 1.389-.909 1.812-.103.703-.193 1.416-1.209 1.211-1.292.083-.021-1.326 0-1.814.004-.713-.521-.892-.303-1.814.532-3.021 2.951-5.688 2.118-9.074-1.661-.047-1.704 1.525-2.418 2.42-.828.787-.862 2.366-2.118 2.724-.482-2.277-1.537-5.474-1.212-7.562.14-.646-.435-.575-.906-.604.068-1.545 1.97-1.259 2.722-2.119-.189-.718-1.859.048-2.118-.604.041-.968 1.35-.666 1.815-1.209 3.305.527 6.846.818 9.98 1.512.923.218 1.103-.31 1.814-.303h3.327c.714-.25 1.392.427.3.303h-1.509c.131.677 1.488.122 2.118.302h2.418c14.041.578 27.17 2.065 42.041 1.815-2.291 11.117-4.508 22.309-10.59 29.639zm11.196-11.493c.86-2.871 1.491-5.967 2.418-8.772 1.975-1.866 5.784-.925 9.073-.906a2.73 2.73 0 0 0 1.209 1.209c.166.539.153 1.257.604 1.513-.351 1.666-1.205 2.827-2.116 3.932-2.702 2.033-7.527 1.948-11.188 3.024zm19.052-5.142c-.211 1.299-.388 2.636-.907 3.629-.042 1.367-1.241 1.582-1.207 3.023-2.327.804-4.541 1.714-7.564 1.815-.955.654-2.902.32-3.931.905-.806.003-1.729-.112-2.118.304-.532.174-1.774-.364-1.813.303-1.236.144-.044-.813.303-.907.265-.444.452-.959 1.211-.907.795-.716 2.026-.995 3.326-1.21 2.162-.76 4.891-.955 6.652-2.116 2.261-1.472 3.324-4.136 3.023-8.167-.16-.243-.313-.49-.303-.906-.544-1.371-1.719-2.111-2.722-3.024-2.815-.761-6.535-.741-9.377 0 .503-.607.813-1.406 1.815-1.513.132-.373.388-.623.908-.604.672.166.43-.579.907-.604.075-.327.603-.205.604-.604h4.838c1.481.332 2.49 1.137 3.934 1.51.422 1.193 1.466 1.763 2.118 2.726-.236 2.448.437 3.996.303 6.347zM111.335 39.593c-.915-1.481-3.675-1.12-5.692-1.5h-4.494c.572-1.426 1.384-2.613 2.099-3.896.224-1.771 1.026-2.966.899-5.093.523-.673.711-1.685 1.197-2.398.418-.583.98-1.928.299-2.695-.205-.893-1.19-1.005-2.396-.898-.354.146-.681.317-.896.599-1.812 1.75-3.148 4.099-5.098 5.692-.037.033-.249-.002-.3 0-.349.019-.132.188-.302.3l-1.493.9c-1.15.712-2.212 1.799-3.601 2.097-2.14-.855-4.678-1.317-7.49-1.497-4.678.412-9.312.871-12.284 2.994-3.683 1.416-5.972 4.214-8.69 6.594-.2 1.296-1.383 1.609-1.497 2.996-.019.183-.047.354-.299.3.174.973-.205 1.393-.299 2.097-.002.537.807 1.743 0 2.099-3.323-.482-6.006-2.546-8.691-3.897-2.901-1.457-5.937-2.439-8.388-4.492-2.895-1.303-5.094-3.301-7.19-5.394-.841-1.26-2.193-2.004-2.7-3.598-1.532-.665-.708-3.688-2.995-3.595-1.276-.174-1.393.807-1.797 1.498-.285.915-1.46.939-1.501 2.097-.016.185-.043.356-.298.302-.688 4.404-2.133 8.055-2.098 13.182.521 1.678 1.413 2.986 2.396 4.196-1.69.205-2.894.898-3.596 2.099-.241 4.341 1.528 6.663 2.999 9.286.543 1.556 1.422 2.771 2.397 3.896.07.928.833 1.165 1.196 1.799.075.427.495.505.602.899-.162.431 1.167.73.297.896-1.67.527-4.109.285-5.093 1.5-.442 1.128-.442 3.368 0 4.494.138.96 1.141 1.057 1.198 2.097 2.019 1.683 4.374 3.021 6.595 4.497 2.324.67 4.899 1.092 7.49 1.497-.414 1.386-1.367 2.228-2.397 2.995-3.154 1.542-7.475 1.916-11.089 2.996-2.244.152-3.863.93-6.29.9-1.344.514-3.452.303-4.495.898-.493.277-.411.389-.9.896-.542 1.662.449 2.99 1.796 3.597-.02 1.021.883 1.118 1.501 1.499.358.74 1.025 1.172 1.797 1.498 2.203 1.891 5.126 3.066 7.792 4.496 3.353.74 6.665 1.523 10.188 2.097 3.622.472 7.687.503 11.385.897h3.895c2.066.533 4.977.219 7.49.301.386-.412 1.304-.297 2.099-.301 2.111-1.086 4.836-1.555 6.594-2.994 2.321-.975 3.998-2.596 6.293-3.596 3.502-3.093 7.832-5.354 10.186-9.591.829-.768 1.419-1.776 1.801-2.995 1.067-.632 1.557-1.838 2.395-2.697 1.635-1.66 2.856-3.736 4.195-5.693 1.291-2.006 2.33-4.264 3.598-6.291-.039-1.639 1.234-1.96 1.197-3.598.782-.914.715-2.678 1.502-3.595-.137-1.03.117-1.678.297-2.398.188-5.181-.191-9.795-1.201-13.78 2.376-.626 4.775-1.221 6.596-2.398 2.125-.747 4.036-2.351 3.289-5.093zm-13.78 16.479c-.621 3.476-2.49 5.701-4.197 8.091.236 1.532-.42 2.175-.297 3.596-.641 1.261-1.16 2.636-1.502 4.193-.82 1.077-1.342 2.45-2.095 3.596-1.483 2.216-3.146 4.248-4.795 6.294-1.528 2.266-3.688 3.901-5.396 5.991-1.699 1.994-3.811 3.579-5.691 5.394-1.913.686-3.594 1.605-5.094 2.697-.938.363-1.87.727-2.694 1.199-.716.587-2.02.581-2.701 1.197-4.395.598-9.302.687-14.378.6-4.168-.426-8.552-.641-12.288-1.499-3.731-.765-6.112-2.878-9.289-4.194.619-.977 2.566-.625 3.896-.897.125-.672 1.592-.009 1.795-.601 1.041.24 1.153-.446 2.1-.299 2.279-.813 4.976-1.219 6.893-2.397 1.14-.556 1.641-1.753 2.696-2.396.134-.767.418-1.38.896-1.799.193-1.109.814-1.784.601-3.296.45-.849 1.21-1.385 1.198-2.698-.3-.594-.519-1.279-1.198-1.499-.106-.792-1.526-.271-1.797-.896-1.031.13-1.682-.119-2.397-.303-.622-.176-1.97.371-2.098-.299-3.403-.093-5.255-1.738-7.491-2.994 1.739-1.056 4.172-1.422 5.391-2.998 2.088-.31 4.277-.521 4.497-2.696 0-2.895-3.118-2.673-5.391-3.297-3.128-2.666-4.831-6.757-7.193-10.187.963-.636 2.283-.913 2.994-1.797 1.836.235 2.185-1.014 2.698-2.099.076-1.974-1.345-2.449-2.398-3.297-1.045-.851-1.92-1.87-2.695-2.994-.012-3.309-.087-6.68.3-9.59.254-.056.283.116.298.299.915 1.785 2.261 3.133 3.297 4.794 2.15 1.446 3.742 3.45 6.292 4.497 1.829 1.668 4.482 2.511 6.295 4.194 2.429 1.065 4.685 2.304 6.889 3.595 2.708.789 4.27 2.722 8.091 2.397l2.397-1.2c1.043-1.842-.235-4.361.598-6.591 1.031-2.663 3.225-4.17 5.094-5.991 1.172-.626 2.242-1.356 3.297-2.1 1.404-.394 2.727-.871 3.896-1.497 1.521-.078 2.884-.313 4.197-.599h5.094c.985.211 1.916.482 2.994.599.844.554 1.535 1.264 2.694 1.497 3.19 2.805 5.133 6.858 5.697 12.288-.5 1.96.209 3.537 0 5.992zm1.195-22.773c-.521 1.377-.934 2.859-2.398 3.297-.068-.427-.49-.505-.596-.898-.048-.846.848-.751 1.197-1.198.66-.342.992-1.004 1.797-1.201-.027-.361.438-.185 0 0zM76.578 45.584c.656.544 1.146 1.252 2.098 1.5.406.893 1.271 1.323 2.398 1.497.189-.608 1.398-.196 1.496-.898.703-.094.672-.927 1.199-1.2-.074-2.223-.521-4.071-1.498-5.393-3.065-1.709-6.777.16-5.693 4.494z"/></svg>
