<?xml version="1.0" encoding="utf-8"?>
<!-- Generator: Adobe Illustrator 25.1.0, SVG Export Plug-In . SVG Version: 6.00 Build 0)  -->
<svg version="1.1" id="Layer_1" xmlns="http://www.w3.org/2000/svg" xmlns:xlink="http://www.w3.org/1999/xlink" x="0px" y="0px"
	 viewBox="0 0 100 100" style="enable-background:new 0 0 100 100;" xml:space="preserve">
<style type="text/css">
	.st0{fill:#83C7BD;}
</style>
<path class="st0" d="M99.7,44C97,25,83.4,8.9,64.8,3c-5.7-1.8-20.5-5.2-36.3,2.3c-16,7.6-27.2,23.6-28.4,40.8
	c-1.7,24.1,16,39.2,19.5,41.9c8.6,6.8,20.1,10.9,31.4,11.4c0.7,0,1.5,0,2.2,0c8.6,0,20.2-2.1,30.5-10.9
	C103.3,71.7,99.8,45.2,99.7,44z M29.2,6.7c15.2-7.2,29.6-3.9,35.1-2.2C69,6,73.4,8.2,77.4,10.9c-1.9-1-3.8-1.8-5.6-2.5
	c-2.7-1-24.1-8-43.7-1.2C28.5,7.1,28.9,6.8,29.2,6.7z M1.7,46.2c0.7-9.4,4.4-18.5,10.4-25.9c-6.4,9.9-8.9,22-9.2,24.1
	c-1.1,10.7,1.5,21.9,7.3,31.3C5.4,68.7,0.8,58.7,1.7,46.2z M82.8,87.3C75,94,63.5,98.2,51.1,97.9c4.1,0,8.5-0.7,13.1-2.2
	c22.1-7.3,34.6-30.5,32.6-55.3c-0.1-1.3-0.3-2.5-0.5-3.7c0.8,2.5,1.3,5,1.7,7.6C98.2,45.4,101.6,71.1,82.8,87.3z"/>
<path d="M63.9,29.9l-1.4-0.8L59.9,28L56.5,27l-2-0.9l-1.3-0.6l-2.1-0.8c-0.7,0.7-1.4,1.2-2.1,2c-0.7,0.8-1.6,2-2.3,2.9
	c-0.4,0.5-1.2,1.6-1.6,2.1c-0.6,0.9-0.6,1.2-1.1,2.2c-0.6,1.1-1.1,2.3-1.6,3.6c-0.6,1.7-1.2,3.4-1.6,5.1c-0.2,0.9-0.4,3.3-0.6,4.2
	c-0.4,1.8-0.8,2-1,3.8L36.7,52l-3.8,2.1c-0.3,0.2-0.6,0.5-0.7,0.8l0,1L31,59.1l-0.6,2.6l-0.9,3.1L29,66.3c-0.1,0.3,0.3,0.3,0.6,0.4
	l0.6,0.6l1.5,0.2c0.3,0.1,0.7,0.3,0.8,0.1l0.8-1.2l1.2-1.7l0.7-0.9l1.7-2.4l0.9,0l-0.1,1.2c-0.2,0.5,0,0.7,0.5,0.9l1.7,0.4l2.3,0.8
	l2.1,1.4l2.4,0.6l1.8,0.6c0.5,0.2,0.9,0.2,1.1-0.3l0.7-1l0.6,0.6l-0.2,1.9l0,2.9l-0.5,1.9l-0.1,0.8c0,0.3,0.4,0.4,0.6,0.5l1.4,0.5
	l0.8,0.5c0.3,0.1,0.6,0,0.8-0.3l1.4-2.4l0.6-2.1l0.6-1.4l1.5-2.9l0.6-2c0.1-0.3,0.2-0.7,0-1.1l-1.3-3.3l-1.3-3.3
	c0.7-1.1,1.3-2,2-3.2c0.6-1.2,1.7-3.3,1.7-3.3s1.2-2,1.7-3.5c0.3-1.1,0.6-2.4,0.8-3.1c0.5-1.4,0.7-1.9,1-3.3
	c0.2-0.9,0.3-1.9,0.5-2.8c0.1-1,0.3-3.3,0.3-4.2C64.1,31.6,64.1,31.7,63.9,29.9z M53.5,42.1c-0.5,0-1,0-1.5-0.2
	c-0.6-0.2-1.1-0.6-1.5-1.1c-0.7-0.8-1-1.8-0.9-2.8c0-0.3,0.1-0.6,0.2-0.9c0.2-0.5,0.6-0.9,1-1.2c0.5-0.5,0.9-1,1.6-1.1
	c0.7-0.2,1.5-0.2,2.2,0.1c0.7,0.2,1.2,0.7,1.6,1.2c0.4,0.5,0.7,1.1,0.8,1.8c0.1,0.6,0,1.2-0.2,1.8c-0.3,0.7-0.7,1.3-1.3,1.8
	C55,41.8,54.3,42,53.5,42.1z M55.5,55.2c0,0-1.1,0.5-1.4,0.4c-0.3-0.1-0.4-0.8-0.3-1c0.1-0.2,0.2-0.5,0.7-0.4
	c0.5,0.1,0.5-0.1,0.5-0.1s0.4-0.2,0.8,0.1C56.1,54.5,55.5,55.2,55.5,55.2z M57.2,52c0,0-2.4,0.6-2.6,0.5c-0.3,0-0.5-1-0.4-1.2
	c0.1-0.2,1.4-0.4,1.9-0.4c0.5,0,0.3,0,0.3,0s0.8-0.4,1.1-0.2C57.8,51,57.2,52,57.2,52z M59.1,47.5c0,0.8-3.1,1.7-3.3,1.1
	c-0.7,0.3-0.4-0.8-0.4-1.1c0-0.2,1.4-0.2,1.8-0.2c0.4,0,0.9-0.3,0.9-0.3s0.5-0.4,0.9-0.2C59.3,47.1,59.1,47.5,59.1,47.5z M59.1,45
	c0,0-1.6,0.6-1.8,0.5c-0.3,0,0.1-0.8,0.2-1c0.1-0.2,0.2-0.4,0.7-0.4c0.5,0,0.5-0.1,0.5-0.1s0.4-0.2,0.7,0.1
	C59.7,44.3,59.1,45,59.1,45z M56.4,25l1.8,1l2,0.6l1.5,0.7l1.9,0.7c-0.2-1.2-0.2-1.9-0.4-2.9c-0.2-0.9-0.1-1.6-0.3-2.4
	c-0.2-0.8-0.9-2-1.1-2.6c-0.2-0.7-0.4-1.2-0.6-1.6c-0.2-0.4-0.7-0.6-1.1-0.4c-0.8,0.5-0.3,0-1.9,1.1c-0.3,0.2-0.4,0.5-1.2,1
	c-0.9,0.6-2.4,1.4-2.7,1.7c-0.7,0.6-1.3,1.2-2.1,1.9l1.6,0.5L56.4,25z M46.8,68.1c-0.1-0.1-0.4-0.2-0.6-0.1
	c-0.5,0.2-0.1,1.4-0.6,2.7c-0.4,1.2-1.5,2.2-1.9,2.1c-0.6-0.2-0.1-0.8-0.1-1.7c0-0.1-0.2-0.2-0.2-0.1c-1,1.6-2.1,3.2-2.9,3
	c-1-0.3-1-2.5-0.5-5.1c0-0.2-0.2-0.4-0.4-0.3c-0.3,0.1-0.6,0.5-0.7,0.4c-0.4-0.3,0.5-1.8-0.1-3.2c-0.1-0.3-0.2-0.4-0.4-0.4
	c-0.6-0.3-1.6,0.7-2,1.1c-0.5,0.5-1.3,1.3-1.7,2.6c-0.8,2.7,1,5,1.1,5.2c0.4-0.6,0.5-0.7,0.6-0.7c0.2,0.1-0.4,1.3-0.4,2.7
	c0,1.3,0.4,1.8,0.9,3.4c0.2,0.8,0.4,2.2,0.4,3.7c0,0.2,0.2,0.3,0.4,0.2c2.6-2.1,3.4-3.7,3.5-4.7c0-0.1,0.1-1.2,0.8-2.2
	c0.2-0.3,0.6-0.8,0.8-0.7c0.3,0.1,0.4,1,0.3,2.1c0.6-0.3,4-2.1,4.6-5.4C48.4,71,48,68.7,46.8,68.1z"/>
</svg>
