<?xml version="1.0" encoding="utf-8"?>
<!-- Generator: Adobe Illustrator 18.1.1, SVG Export Plug-In . SVG Version: 6.00 Build 0)  -->
<svg version="1.1" id="Layer_1" xmlns="http://www.w3.org/2000/svg" xmlns:xlink="http://www.w3.org/1999/xlink" x="0px" y="0px"
	 viewBox="0 0 46.4 47.4" enable-background="new 0 0 46.4 47.4" xml:space="preserve">
<g>
	<g>
		<path fill="#F37064" d="M11.7,47.4c-0.4,0-0.7-0.3-0.7-0.6c-0.1-0.4,0.2-0.8,0.6-0.9c0.1,0,0.8-0.2,1.2-1.3
			c0.6-1.7,2.5-3.6,2.5-3.7c0.3-0.3,0.8-0.3,1.1,0c0.3,0.3,0.3,0.8,0,1.1c0,0-1.7,1.7-2.2,3.1c-0.6,1.6-1.7,2.2-2.3,2.3
			C11.8,47.4,11.7,47.4,11.7,47.4z"/>
	</g>
	<g>
		<path fill="#F37064" d="M0.8,33.2c-0.2,0-0.5-0.1-0.6-0.3C-0.1,32.6,0,32,0.3,31.7c0.2-0.1,2-1.4,3.4-1.3c0.9,0.1,4.4-0.3,5.8-0.4
			c0.4,0,0.8,0.4,0.8,0.8c0,0.4-0.3,0.8-0.7,0.8c-0.5,0.1-4.9,0.5-6.1,0.4c-0.7-0.1-1.9,0.6-2.4,1C1.1,33.2,0.9,33.2,0.8,33.2z"/>
	</g>
	<g>
		<path fill="#F37064" d="M7.7,17.5c-0.1,0-0.2,0-0.3-0.1c-0.1,0-2-1-3.1-1.7c-1-0.6-2.7-0.9-2.8-0.9c-0.4-0.1-0.7-0.5-0.6-0.9
			c0.1-0.4,0.5-0.8,0.9-0.7c0.1,0,2,0.4,3.2,1.1c1.1,0.6,3,1.6,3,1.6c0.4,0.2,0.5,0.6,0.3,1C8.3,17.2,8,17.5,7.7,17.5z"/>
	</g>
	<g>
		<path fill="#F37064" d="M14.3,8.7c-0.2,0-0.4-0.1-0.6-0.2c-0.3-0.3-2.9-3.2-3.6-4.3C9.5,3,9.1,1,9.1,0.9C9,0.5,9.3,0.1,9.7,0
			c0.4-0.1,0.8,0.2,0.9,0.6c0.1,0.5,0.5,2,0.9,2.8c0.5,0.8,2.6,3.2,3.4,4.1c0.3,0.3,0.3,0.8-0.1,1.1C14.6,8.6,14.5,8.7,14.3,8.7z"/>
	</g>
	<path fill-rule="evenodd" clip-rule="evenodd" fill="#F37064" d="M16.7,28.7c0,0,4.5-0.2,5.2,0c0.7,0.2,9,0,9,0v8.1l14.9-13.5
		c0.6-0.6,0.8-1.4,0.1-2c-0.9-0.8-2.7-2.1-3.2-2.5c-1.6-1-8.8-6.3-9.8-7.5c-1-1.3-2-2-2-2l0,7.4H17.2c0,0,0,9.4-0.3,10
		C16.6,27.3,16.7,28.7,16.7,28.7z"/>
</g>
</svg>
