<?xml version="1.0" encoding="utf-8"?>
<!-- Generator: Adobe Illustrator 23.1.1, SVG Export Plug-In . SVG Version: 6.00 Build 0)  -->
<svg version="1.1" id="Layer_1" xmlns="http://www.w3.org/2000/svg" xmlns:xlink="http://www.w3.org/1999/xlink" x="0px" y="0px"
	 viewBox="0 0 100 98.8" style="enable-background:new 0 0 100 98.8;" xml:space="preserve">
<style type="text/css">
	.st0{fill:#FFFFFF;}
</style>
<path class="st0" d="M99.7,43.5C96.9,24.2,83.3,8.3,64.8,2.4c-5.7-1.8-20.5-5.2-36.3,2.2C12.5,12.3,1.3,28.3,0.1,45.5
	c-1.7,24.1,16,39.2,19.5,42c9.1,6.9,20.1,10.8,31.4,11.3c0.7,0,1.5,0,2.2,0c11.1,0.2,22-3.7,30.5-10.9
	C103.3,71.1,99.8,44.6,99.7,43.5z M29.2,6.1c15.2-7.2,29.6-3.9,35.1-2.2c4.6,1.5,9.1,3.7,13.1,6.5c-1.8-0.9-3.7-1.7-5.6-2.5
	c-2.7-1-24.1-8-43.7-1.2C28.5,6.5,28.9,6.3,29.2,6.1z M1.7,45.6C2.5,36.1,6.1,27,12.1,19.6C7.6,27,4.5,35.2,3,43.8
	c-1.1,10.9,1.5,21.9,7.3,31.3C4.1,66.5,1,56.1,1.7,45.6z M82.7,86.7C75,93.4,63.5,97.6,51.1,97.3c4.5,0,8.9-0.8,13.1-2.2
	c22.1-7.3,34.6-30.5,32.6-55.3c-0.1-1.3-0.3-2.5-0.4-3.8c0.8,2.5,1.3,5,1.7,7.6C98.2,44.8,101.6,70.5,82.7,86.7L82.7,86.7z"/>
<path d="M74.8,36.8c-0.3-2.3-3.1-2.3-3.1-2.3c0.1-0.6-0.1-1.2-0.5-1.6c-0.6-0.7-4.8-0.5-5.6,0c-0.6,0.6-0.9,1.4-0.9,2.2
	c-2,0.1-3.9,0.1-5.9,0c-0.2-0.1-3.4-4.3-4-4.7c-1.5-0.7-3.2-1-4.8-0.9c-2.3,0.1-4.1,0.4-4.7,0.9c-1.1,1.5-2.1,3-3,4.7
	c-0.2,0.2-5.9-0.1-6.1-0.1s0-2-0.2-2.3c-2.2-0.3-4.5-0.3-6.7-0.1C29,32.8,29.1,35,29.1,35c-1.9,0.2-3.4,0.9-3.9,1.8
	s-0.1,22.8,0.2,25.5c0.2,1.9,1.7,3.5,3.6,3.8c0.9,0.1,10.4,0.3,10.4,0.3s3.3,3,10.5,3.1c6.4,0.1,9.7-2.8,9.7-2.8
	c0.9-0.2,1.8-0.3,2.7-0.2c3.6,0.1,7.2,0.1,10.9-0.2c0.6-0.3,0.6-0.4,1.2-2.7S75.2,39.2,74.8,36.8z M45.4,33.8c0.3-0.7,0.7-1.4,1.2-2
	c1.3-0.4,2.7-0.6,4.1-0.5c2,0.1,2.7,0.6,3,0.8c0.5,0.5,1,1.1,1.3,1.8l1.3,1.5l-4.9,2.2c-0.9,0.1-1.8,0.1-2.7-0.1
	c-1.1-0.2-4.3-1.4-4.3-1.4L45.4,33.8z M37.6,36.4v0.5l1.6,3.9v0.1l0,0v-0.1l0.1,0.1c0,0.3-0.2,0.5-0.3,0.7c-0.7,0.7-0.5,0.8-0.5,0.7
	c-0.4-1-2.9-5.9-2.9-5.9L37.6,36.4z M61.2,60.6c-4.1,6.2-14,8.7-21.6,2c-3.7-3.9-5.1-12.6-0.5-17.8c5.2-5.8,8.4-5.7,12.5-5.7
	c5.7-0.1,10.5,5.2,11.3,9.7C63.5,54.7,63.4,57.2,61.2,60.6z M70.6,44.4c-1.6,1-3.2,0.9-4.8-0.8c-1.1-1.1-1.2-2.9-0.1-4
	c0.1-0.1,0.3-0.2,0.4-0.4c1.3-0.9,3.9-1.3,5.1,0.3C72.3,41.1,72.1,43.3,70.6,44.4z M51.1,41.7c-3.4,0-6.2-0.4-10.1,4.5
	c-3.4,4.2-3.3,10.3,0.3,14.4c1.9,2,4.6,3.1,7.3,3.2c0.3,0-0.7-1.2-0.8-1.5s0.5-0.3,0.8-0.3s1.2,1.6,1.3,1.8c0.4,0.1,0.8,0,1.1-0.2
	c0.2-0.1-1.6-1.9-1.8-2.1s0.2-0.4,0.8-0.5s2.2,2.5,2.2,2.5c0.3,0,0.6-0.1,0.9-0.3c0.2-0.2-2-2.6-2.3-2.8s0.4-0.5,0.5-0.5
	c0.2-0.1,2.7,3,2.7,3c2.1-0.5,3.9-1.8,5.1-3.6c1.6-3,2.5-4.5,1.7-9.4C59.9,45.2,55.9,41.8,51.1,41.7z M46.4,45.8
	c-1.3,0.9-2.3,2-3,3.4c-0.6,1.7-0.5,2.7-0.7,3s-1.6,0.1-1.6-0.4c0.1-1.6,0.6-3.1,1.4-4.5c0.7-1.1,1.7-2.1,2.9-2.7
	C45.9,44.6,46.7,45.6,46.4,45.8z M47.3,54.7c-1.6-1.3-0.8-5.9,3.1-5.5c1.9,0.1,3.4,1.6,3.3,3.5c0,0.4-0.1,0.8-0.2,1.1
	C52.7,56.6,48.8,56,47.3,54.7z M55,61.3c-0.2,0-2.4-2.4-2.2-2.6c0.2-0.2,0.4-0.3,0.7-0.3c0,0.1,2.2,2.3,2,2.4S55.2,61.4,55,61.3z
	 M56.6,59.7c-0.1-0.1-2.3-1.9-2.2-2s0.3-0.5,0.5-0.5c0.2-0.2,2.3,1.6,2.1,2S56.7,59.8,56.6,59.7L56.6,59.7z M58,57.8
	c-0.8-0.7-1.7-1.5-2.4-2.3c0.2-0.2,0.4-0.4,0.6-0.5c0.8,0.6,1.5,1.3,2.1,2.1C58.3,57.4,58.2,57.6,58,57.8L58,57.8z M58.9,55.4
	c-0.9-0.6-1.7-1.2-2.4-1.9c0-0.2,0.4-0.5,0.5-0.6s2.2,1.9,2.1,2S59.1,55.5,58.9,55.4L58.9,55.4z M59,53.2c-0.2-0.1-1-0.6-1.1-0.9
	c0-0.3,0.1-0.6,0.4-0.8c0.2,0,1.1,0.6,1.1,0.9S59.2,53.2,59,53.2z"/>
</svg>
