<?xml version="1.0" encoding="utf-8"?>
<!-- Generator: Adobe Illustrator 27.5.0, SVG Export Plug-In . SVG Version: 6.00 Build 0)  -->
<svg version="1.1" id="Layer_1" xmlns="http://www.w3.org/2000/svg" xmlns:xlink="http://www.w3.org/1999/xlink" x="0px" y="0px"
	 viewBox="0 0 100 100" style="enable-background:new 0 0 100 100;" xml:space="preserve">
<style type="text/css">
	.st0{fill:#FFFFFF;}
	.st2{fill:#1D1D1B;}
</style>
<path class="st0" d="M99.7,44C97,25,83.4,8.9,64.8,3c-5.7-1.8-20.5-5.2-36.3,2.3c-16,7.6-27.2,23.6-28.4,40.8
	c-1.7,24.1,16,39.2,19.5,41.9c8.6,6.8,20.1,10.9,31.4,11.4c0.7,0,1.5,0,2.2,0c8.6,0,20.2-2.1,30.5-10.9
	C103.3,71.7,99.8,45.2,99.7,44z M29.2,6.7c15.2-7.2,29.6-3.9,35.1-2.2C69,6,73.4,8.2,77.4,10.9c-1.9-1-3.8-1.8-5.6-2.5
	c-2.7-1-24.1-8-43.7-1.2C28.5,7.1,28.9,6.8,29.2,6.7z M1.7,46.2c0.7-9.4,4.4-18.5,10.4-25.9c-6.4,9.9-8.9,22-9.2,24.1
	c-1.1,10.7,1.5,21.9,7.3,31.3C5.4,68.7,0.8,58.7,1.7,46.2z M82.8,87.3C75,94,63.5,98.2,51.1,97.9c4.1,0,8.5-0.7,13.1-2.2
	c22.1-7.3,34.6-30.5,32.6-55.3c-0.1-1.3-0.3-2.5-0.5-3.7c0.8,2.5,1.3,5,1.7,7.6C98.2,45.4,101.6,71.1,82.8,87.3z"/>
<path class="st2" d="M52.1,36.9c2,0.2,1.4-2.1,2.1-3.2c0.1-1.7,0.4-3,0.7-4.6v-1.9c-0.1-0.2,0.1-0.8-0.1-0.8c-0.1-0.3,0.2-1-0.3-0.8
	h-0.2c0,0.1-0.2,0.1-0.3,0.2c-1.7,2.3-2.3,5.8-2.7,9.5C51.5,35.9,51.4,36.9,52.1,36.9z M38.6,35.6c-1.2-0.7-1.7-2-3.2-2.2
	c-0.6-0.1-0.4,0.4-0.7,0.7c0.1,0.2,0.2,0.6,0.2,0.9c0.1,0.3,0.3,0.6,0.4,1c0.3,0.6,0.8,1,0.9,1.8c1.2,0.8,1.4,2.7,3.5,2.5
	c0.2-0.2,0.3-0.7,0.6-1C40.5,37.4,39.3,36.9,38.6,35.6z M66.9,42c0.7-0.3,1.1-1,1.8-1.4c0.4-0.6,1-1,1.2-2c-2.7-0.9-4.3,1.1-6.4,1.7
	c-0.6,0.8-1.8,1-1.8,2.3c-0.1,0.7,0.4,0.9,0.7,1.3C64.5,43.9,65.4,42.6,66.9,42z M58.5,48.3c-1.7-3.2-3.9-6-8.7-6.1
	c-0.6,0.2-1.1,0.4-1.9,0.4c-1,1.1-3.4,1.4-2.7,3.9c1.1,0.1,1.5-0.6,2.1-0.9c0.7-0.4,1.4-0.9,2.2-1.1c4.2-0.1,6.2,1.9,7.2,4.9
	c-0.2,0.8-0.3,1.7-0.4,2.5c-0.9,1.4-1.8,2.9-3,4.1c-0.9,0.3-1.4,1-2.4,1.3c-1.7,0.4-3.8,0.6-5.2-0.1c-0.4-0.4-1.1-0.7-1.3-1.3
	c-0.3-0.6-0.6-1.2-0.9-1.8c-0.7-1.1-1-2.5-1.2-4.1v-1.9c0-0.4,0.3-0.6,0.2-1.1c0.4,0,0.6-0.3,0.6-0.8c-0.9-0.3-1.9,0.4-2.1,1.2
	c-0.6,0.7-0.7,1.9-0.9,3v1.1c0.3,2.2,1,4,1.8,5.8c0.8,0.7,1.3,1.3,2.2,1.8c0.7,0.7,1.7,1,2.5,1.5c1,0.1,2,0.1,3.1,0.1
	c5.2-1.2,8.5-4.3,9.2-10C58.8,49.9,58.3,49.4,58.5,48.3z M31.4,49.4h1.3c1.1,0.1,1.5-0.3,2-0.8c-0.2-2.2-3.2-1.5-5.1-2.1
	c-1.2,0.1-2.8-0.2-3,1c0,0.8,0.7,1.1,1.2,1.3c0.7,0.2,1.7,0.3,2.4,0.3C30.5,49.5,31.4,48.9,31.4,49.4z M73.3,54.2
	c-1-0.2-1.8-0.6-2.8-0.7c-2.2-0.2-3.8-1.1-6-1.2c-0.2,0-0.2,0.2-0.4,0.2c-0.3,0-0.1,0.6-0.3,0.6c0.1,1,0.9,1.3,1.3,2.1
	c1.4,0.6,2.8,1.1,4.4,1.4c1.2-0.1,1.9,0.3,3,0.2s2.4-0.2,2.9-1.2C75.1,54.9,74.2,54.6,73.3,54.2z M36.2,59.9
	c-1.5,1.1-3.1,2.2-4.6,3.3c-0.1,0.7-0.9,0.9-0.8,1.9c1,0.3,1.8-0.2,2.8-0.3c0.7-0.7,1.8-0.9,2.4-1.7c1-0.4,2-1,2-2.3
	C37.6,60.2,37.2,59.8,36.2,59.9z M64.1,67.6c-0.4-0.4-1.1-0.8-1.7-1.2c-0.4-0.7-1.1-1.3-1.5-2c-0.7-0.6-1-1.4-1.9-1.8
	c-1-0.1-1.8,0-2.1,0.6c-0.1,1.2,0.7,1.5,1.1,2.1c0.6,0.7,1,1.3,1.5,1.9c1.1,1.1,2.1,2.4,3.2,3.5c0.7,0.1,0.9,0.7,1.8,0.6
	c0-0.4,0.2-0.7,0.1-1.2c0.3-0.1,0.8-0.2,0.7-0.8C65.2,68.5,64.7,68.1,64.1,67.6z M45.6,65.6c-0.6,0.2-0.8,0.8-1.1,1.2
	c-0.1,2-1,3.2-1.2,5.1c-0.1,0.6,0.4,0.6,0.3,1.1c0.1,0.3-0.1,1,0.2,1.1c0,0.4-0.1,1,0.3,0.9c1.1-0.2,1.1-1.5,1.8-2.1
	c0.1-2.7,1.5-4,1.2-7.1C46.7,65.8,46.1,65.8,45.6,65.6z"/>
</svg>
