<?xml version="1.0" encoding="utf-8"?>
<!-- Generator: Adobe Illustrator 24.3.0, SVG Export Plug-In . SVG Version: 6.00 Build 0)  -->
<svg version="1.1" id="Layer_1" xmlns="http://www.w3.org/2000/svg" xmlns:xlink="http://www.w3.org/1999/xlink" x="0px" y="0px"
	 viewBox="0 0 100 100" style="enable-background:new 0 0 100 100;" xml:space="preserve">
<style type="text/css">
	.st0{fill:#FFFFFF;}
</style>
<path class="st0" d="M99.7,44C97,25,83.4,8.9,64.8,3c-5.7-1.8-20.5-5.2-36.3,2.3C12.5,12.9,1.3,28.9,0.1,46.1
	c-1.7,24.1,16,39.2,19.5,41.9c8.6,6.8,20.1,10.9,31.4,11.4c0.7,0,1.5,0,2.2,0c8.6,0,20.2-2.1,30.5-10.9
	C103.3,71.7,99.8,45.2,99.7,44z M29.2,6.7c15.2-7.2,29.6-3.9,35.1-2.2C69,6,73.4,8.2,77.4,10.9c-1.9-1-3.8-1.8-5.6-2.5
	c-2.7-1-24.1-8-43.7-1.2C28.5,7.1,28.9,6.8,29.2,6.7z M1.7,46.2c0.7-9.4,4.4-18.5,10.4-25.9c-6.4,9.9-8.9,22-9.2,24.1
	c-1.1,10.7,1.5,21.9,7.3,31.3C5.4,68.7,0.8,58.7,1.7,46.2z M82.7,87.3C75,94,63.5,98.2,51.1,97.9c4.1,0,8.5-0.7,13.1-2.2
	c22.1-7.3,34.6-30.5,32.6-55.3c-0.1-1.3-0.3-2.5-0.5-3.7c0.8,2.5,1.3,5,1.7,7.6C98.2,45.4,101.6,71.1,82.7,87.3z"/>
<path d="M75.4,51.2c-0.2,1.8-0.6,4.1-1.2,6.9c-0.2,0.4-0.4,1-0.6,1.7c-0.2,0.7-0.4,1.2-0.5,1.3c-0.1,0.2-0.2,0.4-0.3,0.8
	c-0.1,0.4-0.2,0.6-0.3,0.8c-0.2,0.1-0.2,0.3-0.2,0.7c-0.2,0.2-0.4,0.4-0.4,0.7c-0.2,0.2-0.4,0.5-0.7,0.9c-0.3,0.4-0.5,0.7-0.6,0.9
	c-0.1,0.2-0.3,0.6-0.5,1c-0.3,0.4-0.5,0.7-0.5,1c-0.4,0.2-0.9,0.7-1.4,1.3c-0.5,0.6-0.9,1-1,1.2c-1.4,0.9-2.1,1.4-2.3,1.6
	c-6.3,3.1-13,3.9-20.2,2.5c-5.8-1.1-11-4-15.4-8.6c0-0.5-0.1-0.8-0.4-0.8c-0.1,0-0.2-0.2-0.5-0.7c-0.5-0.6-0.8-1.2-0.8-1.6
	c-0.2-0.3-0.5-0.9-0.9-1.6c-0.4-0.8-0.7-1.3-0.9-1.6c-0.1-0.3-0.2-1-0.4-2c-0.2-1-0.3-1.9-0.4-2.6c-0.2-0.6-0.3-1.4-0.3-2.6
	c0-1.2-0.1-2-0.2-2.4c0.2-1,0.3-2.2,0.5-3.8c0.1,0,0.1-0.1,0.1-0.4c0-0.3,0.1-0.4,0.2-0.4c-0.1-0.2-0.1-0.3,0.1-0.5
	c0.1-0.2,0.2-0.3,0.2-0.4l0.7-1.8c0.1-0.2,0.4-0.7,0.8-1.6c0.5-0.6,0.8-1.1,0.8-1.4c0.2-0.2,0.5-0.4,0.7-0.7
	c0.2-0.3,0.4-0.5,0.5-0.6c0.1-0.2,0.3-0.5,0.5-0.8c0.3-0.3,0.4-0.5,0.4-0.7c0.2-0.4,0.6-0.9,1-1.6c0.4-0.6,0.7-1.1,0.9-1.4
	c0.2-0.2,0.7-0.7,1.4-1.3c0.7-0.6,1.3-1.1,1.8-1.5c0.5-0.4,1.1-0.8,1.6-1.1c2.1-1.4,3.9-2.5,5.4-3.3c0.2,0.1,0.3,0,0.5-0.1
	c0.2-0.2,0.3-0.2,0.4-0.2c0-0.1,0.1-0.1,0.4-0.2c0.2,0,0.4-0.1,0.4-0.2c2.7-0.4,4.3-0.6,4.7-0.6h0.4c-0.1-0.1,0-0.1,0.1-0.1
	c1.2-0.2,3.6-0.1,7.2,0.1c0.5-0.1,1.1-0.1,1.9,0.1c0.8,0.1,1.3,0.2,1.5,0.2c0.4,0.1,0.9,0.2,1.5,0.4c0.6,0.2,1.1,0.3,1.4,0.3
	c0.3,0.2,0.7,0.6,1.3,1c0.5,0.4,0.9,0.7,1.1,0.9c0.2,0.2,0.6,0.6,1.1,1c0.5,0.4,0.8,0.7,1.1,1c0.2,0.2,0.6,0.6,1.1,1
	c0.5,0.4,0.9,0.7,1.1,1c0.2,0.2,0.4,0.5,0.6,0.7c0.2,0.2,0.5,0.4,0.8,0.7c0.3,0.3,0.5,0.5,0.7,0.7c0.2,0.3,0.5,0.7,1,1.2
	c0.2,0.5,0.5,0.9,0.8,1.2c0,0.2,0.1,0.4,0.2,0.6C75,40.9,75.7,45.7,75.4,51.2z M28.9,46.4c-0.3,1.2-0.4,2.2-0.4,3
	c2.1,0.6,5.2,1,9.3,1.2c0-3.9,0.3-7.3,0.8-10.2c-2.1-0.6-3.9-1.4-5.4-2.3c0,0.1,0,0.2-0.1,0.2c-0.1,0.1-0.1,0.2-0.1,0.2
	c-0.2,0.2-0.6,0.7-1.4,1.7c-0.1,0.2-0.3,0.5-0.5,1c-0.3,0.5-0.5,0.8-0.8,1c-0.1,0.7-0.4,1.4-1,2C29.4,44.5,29.2,45.2,28.9,46.4z
	 M34.5,64.5c0.6-0.3,1.5-0.7,2.7-1.1c1.2-0.4,1.9-0.6,2.1-0.7c-0.9-4.4-1.3-7.5-1.3-9.2c-0.4-0.1-1.8-0.2-4.2-0.5
	c-2.4-0.2-4.1-0.5-5.3-0.8c0,0.5,0.4,1.5,1.2,3.1c-0.2-0.1-0.3-0.1-0.4,0c-0.1,0.1-0.1,0.2-0.1,0.4c0.3,0.9,1,2.6,2,5
	c0.2,0.2,0.4,0.5,0.7,1c0.3,0.5,0.5,0.9,0.8,1c0.1,0.2,0.3,0.6,0.7,1C33.9,64.1,34.3,64.4,34.5,64.5z M35.6,35.5
	c-0.4,0.4-0.6,0.7-0.7,0.9c0.5,0.1,1.2,0.3,2.2,0.6c1,0.3,1.8,0.5,2.4,0.6c0.3-2.1,1.1-4.7,2.4-7.8c-0.4,0.2-0.9,0.5-1.5,0.9
	c-0.6,0.4-1.1,0.7-1.4,0.9c-0.2,0.4-0.6,0.9-1.4,1.6c-0.3,0.5-0.6,0.9-0.7,1.2c-0.1,0.2-0.2,0.2-0.3,0.2c-0.1,0-0.2,0-0.3,0.1
	C36.1,34.8,35.9,35.1,35.6,35.5z M40.9,69.3c-0.1-0.5-0.2-1.2-0.5-2c-0.2-0.9-0.4-1.6-0.5-2c-0.1-0.1-0.2-0.1-0.4-0.1
	c-0.2,0.2-0.5,0.3-0.9,0.4c-0.4,0.1-0.7,0.2-0.8,0.2c-0.3,0.2-1,0.3-1.9,0.5c0.1,0.2,0.2,0.3,0.5,0.5c0.2,0.2,0.4,0.3,0.5,0.4
	c0.1,0.1,0.3,0.2,0.6,0.4c0.3,0.2,0.5,0.3,0.6,0.5c0.6,0.3,1.1,0.6,1.3,0.7C39.7,68.7,40.2,68.9,40.9,69.3z M49.8,41.6
	c-5.7-0.5-8.7-0.7-8.8-0.7c-0.4,5-0.5,8.3-0.4,9.8c0.6,0.1,3.9,0.1,9.8,0.1C50.1,46.9,49.9,43.8,49.8,41.6z M41.7,61.7
	c0.3,0,0.7-0.1,1.2-0.2c0.5-0.2,0.9-0.2,1.2-0.1c0.2-0.2,0.5-0.3,1.1-0.4c0.6-0.1,0.9-0.2,1.1-0.2c0.6-0.2,1.6-0.3,2.8-0.5
	c1.2-0.2,1.9-0.2,2-0.2c0-0.7-0.1-1.8-0.2-3.2c-0.1-1.4-0.2-2.5-0.3-3.3c-3.7,0.2-7.1,0.1-9.9-0.1L41.7,61.7z M41.6,38.1
	c0.9,0.2,2.2,0.3,4,0.4c1.8,0.1,3.1,0.2,4,0.2c0-0.8-0.1-2-0.2-3.6c-0.1-1.6-0.2-2.8-0.2-3.6c0-0.8,0-2,0.1-3.6h-0.4
	c0,0.2-0.3,0.2-0.8,0.2c-0.5,0-0.9-0.1-1-0.1c-0.3,0.2-0.8,0.3-1.5,0.5c-0.7,0.2-1.1,0.3-1.4,0.4C43,32.2,42.1,35.3,41.6,38.1z
	 M52,70.3l-0.4-2.5v-1.9c-0.2-0.6-0.2-1.2-0.2-1.6c-0.1-0.1-0.1-0.2-0.1-0.4c0-0.2,0-0.4,0-0.6c0-0.2-0.1-0.3-0.3-0.3h-0.4l-0.1,0.1
	c-0.1,0.1-0.2,0.1-0.2,0c-0.5,0-1.1,0-1.7,0.1c-0.7,0.1-1.2,0.1-1.6,0.1c-0.2,0.1-0.7,0.1-1.3,0.2c-0.6,0-1,0.1-1.3,0.2
	c-1.1,0.2-1.8,0.4-2.2,0.7c0.2,0.2,0.3,0.4,0.3,0.7c0,0.3,0.1,0.5,0.2,0.6c0,0.2,0,0.4,0.1,0.7C43,66.7,43,67,43,67.2
	c0.1,0.1,0.2,0.5,0.5,1.3c0.1,0.5,0.3,0.9,0.6,1.3c0.1,0,0.4,0,0.9,0.1c0.5,0.1,0.9,0.2,1.3,0.2h1.4c0.2-0.1,0.3,0,0.4,0.1
	c0.1,0.2,0.3,0.2,0.4,0.1C50.5,70.4,51.7,70.4,52,70.3z M52.1,38.6c3,0.1,5.7-0.2,8.1-1c-0.2-1.3-0.8-2.9-1.8-5
	c-0.1-0.2-0.3-0.6-0.7-1.1c-0.4-0.5-0.6-0.8-0.7-1.1c-0.2-0.1-0.4-0.4-0.7-0.9c-0.3-0.5-0.7-0.8-1.1-0.9c-0.2-0.1-0.8-0.1-1.9-0.1
	s-1.8,0-2.1,0L52.1,38.6z M52.6,46.1c0.2,2,0.3,3.6,0.4,4.6c0.9,0,1.8,0,2.7-0.1c1-0.1,2-0.2,3.2-0.3c1.2-0.1,2.1-0.2,2.7-0.3
	c0.1-3.2-0.1-6.3-0.6-9.2c0-0.2,0-0.2-0.1-0.2c0,0.2-0.1,0.2-0.2,0.2c-2.3,0.7-5.1,1-8.2,0.8C52.4,42.6,52.4,44.1,52.6,46.1z
	 M61.6,52.4h-0.2c-2.7,0.5-5.4,0.8-8.1,1.1c0.2,3.3,0.4,5.5,0.6,6.5c2.4-0.2,4.9-0.4,7.5-0.4C61.5,58.6,61.6,56.2,61.6,52.4z
	 M60.4,63.8c0.1-0.3,0.2-0.5,0.2-0.6c0-0.1,0-0.3-0.1-0.4c-1.4,0.1-3.7,0.1-6.7,0.1c-0.2,2.7,0,5.2,0.5,7.4c0.4-0.2,1.1-0.3,2.1-0.4
	c1-0.1,1.7-0.2,2.1-0.3c0.2-0.3,0.5-0.9,0.7-1.6c0.2-0.8,0.4-1.3,0.6-1.6c0-0.2,0.1-0.6,0.2-1c0.1-0.4,0.2-0.7,0.2-1
	C60.2,64.3,60.3,64.1,60.4,63.8z M62.8,36.7c0.3-0.1,0.7-0.2,1.1-0.4c0.4-0.2,0.8-0.3,1-0.3c0.2-0.2,0.5-0.3,0.9-0.5
	c0.4-0.2,0.7-0.4,0.9-0.7c-0.2-0.4-0.7-0.8-1.3-1.3c-0.6-0.5-1.1-0.9-1.3-1.2c-0.6-0.2-1.4-0.6-2.4-1.2c-1-0.6-1.6-0.9-2-1.1
	l-0.1,0.2l0.6,0.5c0.1,0.1,0.1,0.2,0.1,0.5c0.2,0.2,0.3,0.4,0.5,0.7c0,0.1,0.1,0.2,0.2,0.4c0.2,0.2,0.2,0.3,0.2,0.4
	C62.2,35.1,62.7,36.4,62.8,36.7z M65.1,65.6c0.5-0.4,0.8-0.9,1-1.3c-0.2-0.1-0.6-0.2-1.1-0.5c-0.5-0.2-0.9-0.4-1.3-0.5l-0.1,0.1
	c0,0.1,0,0.2,0,0.2c-0.2,1-0.3,1.6-0.5,1.9c0,0.1-0.1,0.4-0.2,0.9c-0.2,0.5-0.2,0.8,0,0.9c0.2-0.2,0.4-0.5,0.7-0.8
	c0.1,0,0.2,0,0.3-0.1c0.1-0.1,0.3-0.1,0.4-0.1C64.4,66.3,64.7,66,65.1,65.6z M71,48c0-1.4-0.2-3.2-0.7-5.6c-0.2-0.6-0.4-1.5-0.8-2.6
	c-0.4-1.1-0.7-1.9-0.8-2.3l-0.1-0.1h-0.1c-1,0.6-2.6,1.4-4.8,2.4c0.6,3.8,0.8,7.2,0.7,10h2.9C69.5,48.7,70.8,48.1,71,48z M71,50.6
	c-0.1,0-0.2,0-0.3,0.1c-0.1,0-0.2,0.1-0.3,0.1c-2.1,1-4.1,1.6-6,1.7c0,0.4,0,1.5,0.1,3.4c0,1.9,0,3.3-0.2,4.2
	c0.3,0.1,0.9,0.3,1.7,0.7c0.8,0.4,1.5,0.7,2.1,0.8c1.4-3.2,2.2-5.9,2.4-8.1c0.2-0.2,0.3-0.5,0.5-1V50.6z"/>
</svg>
