<?xml version="1.0" encoding="utf-8"?>
<!-- Generator: Adobe Illustrator 23.1.1, SVG Export Plug-In . SVG Version: 6.00 Build 0)  -->
<svg version="1.1" id="Layer_1" xmlns="http://www.w3.org/2000/svg" xmlns:xlink="http://www.w3.org/1999/xlink" x="0px" y="0px"
	 viewBox="0 0 100 98.8" style="enable-background:new 0 0 100 98.8;" xml:space="preserve">
<style type="text/css">
	.st0{fill:#83C7BD;}
</style>
<path class="st0" d="M99.7,43.5C96.9,24.2,83.3,8.3,64.8,2.4c-5.7-1.8-20.5-5.2-36.3,2.2C12.5,12.3,1.3,28.3,0.1,45.5
	c-1.7,24.1,16,39.2,19.5,42c9.1,6.9,20.1,10.8,31.4,11.3c0.7,0,1.5,0,2.2,0c11.1,0.2,22-3.7,30.5-10.9
	C103.3,71.1,99.8,44.6,99.7,43.5z M29.2,6.1c15.2-7.2,29.6-3.9,35.1-2.2c4.6,1.5,9.1,3.7,13.1,6.5c-1.8-0.9-3.7-1.7-5.6-2.5
	c-2.7-1-24.1-8-43.7-1.2C28.5,6.5,28.9,6.3,29.2,6.1z M1.7,45.6C2.5,36.1,6.1,27,12.1,19.6C7.6,27,4.5,35.2,3,43.8
	c-1.1,10.9,1.5,21.9,7.3,31.3C4.1,66.5,1,56.1,1.7,45.6z M82.7,86.7C75,93.4,63.5,97.6,51.1,97.3c4.5,0,8.9-0.8,13.1-2.2
	c22.1-7.3,34.6-30.5,32.6-55.3c-0.1-1.3-0.3-2.5-0.4-3.8c0.8,2.5,1.3,5,1.7,7.6C98.2,44.8,101.6,70.5,82.7,86.7L82.7,86.7z"/>
<path d="M77.2,49.7c-0.2-0.1-0.1-0.5-0.3-0.6s-0.2-0.3-0.3-0.6c-0.3-0.3-0.7-0.7-1-1c-0.3-0.1-0.4-0.3-0.6-0.4s-0.4-0.3-0.6-0.5
	c-0.1,0-0.2,0-0.2-0.1c-0.5-0.1-1-0.1-1.6,0c-0.3,0-0.6,0-0.9,0.1c-1,0.4-1.9,1-2.7,1.8c-0.9,0.6-1.7,1.3-2.4,2.1
	c-0.8,0.7-1.5,1.5-2.3,2.2c-0.8,0.7-1.6,1.4-2.3,2.2c-0.2,1-0.1,2,0.1,3c-0.3-0.3-0.6-0.6-0.7-1c-0.5,0.1-0.3-0.4-0.8-0.3
	c-0.4,0.2-0.6,0.6-0.7,1c-0.2,0.4-0.3,0.9-0.4,1.4c0,0.7-0.1,1.3-0.1,2c0.1,0.2,0,0.6,0.1,0.8c0.2,0.8,0.6,1.5,1,2.2
	c0.1,0.1,0.2,0.3,0.3,0.4s0.4,0.2,0.4,0.4c-0.6,0.9-1.2,2-1.8,2.9c-0.2,0.6-0.4,1.3-0.5,1.9c0.2,0.4,0.6,0.6,1.1,0.5
	c0.5-0.2,0.6-0.7,0.9-1c0.2-0.4,0.5-0.8,0.7-1.2c0.3-0.3,0.5-0.7,0.8-1c0.1-0.2,0.2-0.4,0.4-0.6c0.1-0.2,0.2-0.4,0.4-0.6
	c0.3,0.1,0.5,0.2,0.9,0.3h0.9C65,66,65.3,66,65.5,66c0.2-0.1,0.5-0.2,0.7-0.2c0-0.1,0.3,0,0.3-0.2c0.2,0,0.2-0.1,0.4-0.1
	c0.4-0.2,0.9-0.5,1.3-0.7c0.4-0.2,0.9-0.4,1.2-0.7c0.4-0.2,0.8-0.5,1.2-0.8c0.3-0.4,0.6-0.9,0.8-1.4c0.2-0.2,0.2-0.6,0.3-0.8
	c0.1-0.3,0.2-0.6,0.2-0.9c-0.1-0.1-0.2-0.3-0.3-0.3s-0.5,0.1-0.6-0.1c0.2,0,0.3-0.3,0.5-0.3s0.3-0.2,0.4-0.4
	c0.5-0.4,0.9-0.8,1.3-1.2c0.4-0.4,1-0.8,0.7-1.6C74,56,73.8,56,73.7,55.9s-0.5,0.1-0.6-0.1c0.5-0.1,0.9-0.3,1.3-0.5
	c0.4-0.2,0.9-0.4,1.3-0.6c0.3-0.3,0.6-0.6,0.9-0.9c0.3-0.6,0.5-1.2,0.7-1.9C77.3,51.2,77.3,50.4,77.2,49.7z M76.1,51.7
	c-0.3,0.2-0.7,0.4-1.1,0.6c-0.5,0.1-1.1,0-1.3,0.3c0,0.5,0.6,0.4,1,0.5c0.3-0.1,0.7,0,0.8-0.2c0.2,0.2-0.2,0.2-0.1,0.4
	c-0.1,0.1-0.3,0.2-0.4,0.3c-0.7,0.4-1.4,0.7-2.2,1c-0.4,0.1-0.7,0.3-1.1,0.5c-0.4,0.1-0.8,0.3-1,0.6c-0.2,0.9,0.8,0.8,1.4,1h0.8
	c0.3,0,0,0.1,0,0.2c-0.1,0-0.2,0.1-0.2,0.2c-0.2,0.1-0.4,0.1-0.4,0.4c-0.3,0.2-0.6,0.4-0.8,0.7c-0.6,0.4-1.2,0.9-1.8,1.3
	c-0.1,0.3-0.4,0.3-0.4,0.7c0.1,0.5,0.7,0.5,1.3,0.5c-0.1,0.4-0.3,0.8-0.5,1.2c-0.1,0-0.3,0.1-0.4,0.2c-0.1,0-0.3,0-0.4,0.1
	c-0.2,0-0.6-0.1-0.7,0s-0.5-0.1-0.6,0c-0.5,0-0.9,0-1,0.3s0.3,0.4,0.6,0.5s0.6,0.1,1,0.1c0,0.2-0.3,0.2-0.4,0.4s-0.3,0.2-0.4,0.2
	c-0.2,0.2-0.6,0.3-0.9,0.5c-0.7,0.3-1.4,0.5-2.2,0.6c-0.5,0-0.9,0-1.3-0.2c0.3-0.8,0.9-1.2,1-2.2c0.3-0.2,0.4-0.6,0.7-0.9
	c0.2-0.3,0.4-0.6,0.6-0.9c0.4-0.6,0.7-1.2,1.2-1.8c0.2-0.3,0.4-0.6,0.6-0.9c0.2-0.3,0.4-0.6,0.6-0.9c0.2-0.3,0.4-0.6,0.6-0.9
	c0.2-0.3,0.5-0.5,0.6-0.9s-0.2-0.3-0.4-0.5c-0.7,0.1-0.8,0.8-1.3,1c-0.2,0.4-0.6,0.6-0.8,1c-0.3,0.3-0.5,0.6-0.7,1
	c-0.2,0.3-0.5,0.7-0.7,1c-0.2,0.4-0.5,0.6-0.7,1c-0.3,0.3-0.5,0.7-0.8,0.9c-0.2,0.3-0.5,0.7-0.8,0.9c-0.2,0.4-0.5,0.6-0.7,1
	c-0.3,0.3-0.4,0.8-0.7,1c-0.5-0.1-0.6-0.5-0.8-0.9c-0.1-0.2-0.2-0.4-0.2-0.6c-0.1-0.1-0.1-0.4-0.2-0.6c0-0.3,0-0.6-0.1-0.9
	c0-1.1,0-2.1,0.3-3.1c0.2,0.4,0.4,0.7,0.7,1c0.3,0.3,0.4,0.6,0.9,0.7c0.3,0,0.4-0.1,0.4-0.4c0.2,0,0.3,0,0.5-0.1
	c0.1-0.1,0.1-0.2,0.2-0.3c-0.2-0.9-0.3-1.9-0.2-2.8c0.3-0.4,0.6-0.8,1-1.1c0.1-0.1,0.1-0.2,0.3-0.2c0-0.1,0.1-0.2,0.3-0.2
	c0-0.2,0.2-0.2,0.2-0.3c0.2,0,0.1-0.2,0.3-0.2c-0.2,0.8-0.3,1.5-0.4,2.3c0.1,0.3,0.3,0.5,0.6,0.6c0.4,0,0.5-0.2,0.6-0.4
	c0.1-1.4,0.5-2.3,0.5-3.8c0.1-0.3,0.4-0.4,0.5-0.6s0.4-0.4,0.6-0.5c0.3-0.4,0.7-0.7,1.2-1c0.4-0.3,0.8-0.7,1.2-1
	c0.2-0.1,0.4-0.3,0.6-0.5c0.2-0.1,0.5-0.2,0.6-0.4c0.3-0.1,0.6-0.2,0.8-0.3c0.7,0,1.2-0.1,1.9,0c0.7,0.5,1.3,1.1,1.9,1.7
	C76,50.2,76.1,50.9,76.1,51.7L76.1,51.7z M61.2,45.8c0.9-1.2,1.7-2.6,2.3-4c0.6-1.5,1.1-3.1,1.5-4.7c0.4-1.8,0.5-3.7,0.3-5.5
	c-0.2-0.8-0.4-1.6-0.6-2.5c-0.4-0.5-0.6-1.5-1.1-1.9c-0.3-0.6-1.2-3.8-1.7-4.3s-1-0.8-1.3-1.5c-3.7-3-7.3-3.7-13.3-3.4l-4.6,0.8
	c-1.9,0.6-4.2,2.6-5.6,3.5c-0.9,1.3-2.1,2.4-2.5,4.1c-0.8,1.4-0.8,3.2-0.8,5.1c0.5,4.6,0.9,7.3,2.8,10.3c1.6,3.1,3.6,6,6,8.5
	c1.4,1,2.9,1.8,4.5,2.4c0.2,0,0.1,0.3-0.1,0.3s-0.1,0.3-0.2,0.3c0,0.3-0.5,0.4-0.3,0.8c-0.5,0.3-0.5,1.1-1,1.4
	c-0.1,0.6-0.3,1.1-0.6,1.6c-0.1,0.7,0,1.4,0.4,2.1c1,0.3,1.7-0.5,2.6-0.8c0.6-0.1,0.6,0.7,0.9,1c0.4,0.1,0.8,0.1,1.2,0
	c0.7,1.6,1.4,3.1,2.3,4.6c1.8,3.4,2.1,3.3,0.3,7.8c-0.6,1.5-1,3.2-0.9,4.8l0,0c-0.1-0.5-0.2-0.9-0.5-1.4c-0.1-0.5-0.3-0.9-0.5-1.3
	c-0.3-0.4-0.7-0.8-1.2-1.1c-0.1-0.2-0.5-0.3-0.7-0.5c-0.2-0.2-0.5-0.4-0.8-0.4c-0.1,0.1-0.3,0.1-0.4,0.2s-0.1,0.5-0.2,0.5
	c0-0.2-0.2-0.3-0.2-0.6c-0.1-0.1-0.1-0.4-0.2-0.5c-0.2-0.5-0.5-1.1-0.8-1.6c-0.3-0.5-0.5-1.2-1.4-1.1c-0.1,0-0.2,0.2-0.3,0.3
	S44.6,70,44.5,70c0-0.5-0.1-0.9-0.2-1.4c0-0.5-0.2-0.9-0.3-1.4c-0.2-0.4-0.4-0.7-0.7-1.1c-0.5-0.4-1-0.8-1.6-1.1
	c-0.7-0.2-1.4-0.4-2.1-0.4c-0.2,0.1-0.5,0-0.6,0.2c-0.2,0-0.4,0.2-0.6,0.1c-0.4,0.3-0.8,0.5-1.2,0.7c-0.1,0.2-0.4,0.3-0.5,0.5
	c-0.2,0.1-0.4,0.3-0.6,0.5c0,0.1,0,0.2-0.1,0.2c-0.2,0.5-0.3,1-0.4,1.5c-0.1,0.3-0.1,0.6-0.1,0.9c0.2,1,0.5,2.1,1,3
	c0.4,1,0.9,1.9,1.4,2.8c0.5,1,1,1.8,1.5,2.8c0.5,1,1,1.9,1.6,2.8c0.9,0.4,1.9,0.6,2.8,0.7c-0.3,0.2-0.7,0.4-1.2,0.4
	c0,0.5-0.4,0.2-0.5,0.7c0.1,0.4,0.4,0.7,0.8,0.9c0.4,0.3,0.8,0.5,1.2,0.7c0.6,0.2,1.2,0.4,1.9,0.6c0.2,0,0.6,0.1,0.8,0.1
	c0.8,0,1.6-0.2,2.4-0.4c0.1-0.1,0.3-0.1,0.4-0.2s0.2-0.3,0.5-0.3c0.7,0.8,1.6,1.6,2.3,2.4c0.5,0.4,1.1,0.7,1.7,1
	c0.4-0.1,0.7-0.5,0.7-0.9c0-0.5-0.5-0.7-0.7-1.1c-0.3-0.3-0.6-0.6-0.9-1c-0.3-0.4-0.6-0.7-0.8-1.1c-0.2-0.2-0.3-0.3-0.4-0.5
	c-0.2-0.1-0.4-0.3-0.5-0.5c0.1-0.3,0.3-0.5,0.5-0.8l0.2-0.9c0-0.3,0-0.5,0.1-0.8c0-0.2-0.1-0.5,0-0.7c-0.1-0.1,0-0.3-0.1-0.3
	c0.1-0.2,0-0.2,0-0.3c0.6,0.3,1.4-3.1,2.2-5.3c3-5.1,0.9-7,0.8-7.6c-0.5-1.9-1.5-3.7-3-5l-0.3-1.9c0.6-0.5,1.2,0.2,1.8,0.1
	c0.6,0.3,1.2,0,1.8-0.3c0.6-2.1-1.2-3.8-1.9-5.1c0-0.3,0.8-0.1,0.8-0.5c0.5,0,0.5-0.3,1-0.3c0.2-0.4,0.8-0.5,1.1-0.8
	c0.4-0.2,0.6-0.6,1.1-0.8c0.3-0.5,0.5-1,0.7-1.5c0.7-0.5,1.2-1.1,1.7-1.8C60.4,47.1,60.8,46.5,61.2,45.8z M41.9,23.6
	c-1.2,0.6-2.3,1.6-2.9,2.8c-0.8,1.2-0.5,3-0.9,3.9s-1,0.7-1.3,0.3s0.3-2.8,0.3-3.6s2.3-2.9,3.4-4.1c0.8-0.7,1.8-1.1,2.9-1
	C43.2,22.7,42.6,23.3,41.9,23.6z M51,80.2c-0.1,0.4-0.3,0.9-0.5,1.2c-0.7-0.5-0.9-1.2-1.8-1.5c-0.1-0.3-0.5-0.5-0.7-0.8
	s-0.5-0.5-0.7-0.8c-0.5-0.5-1-1-1.4-1.6c-0.3-0.2-0.5-0.5-0.7-0.8c-0.3-0.2-0.5-0.5-0.7-0.8c-0.3-0.2-0.5-0.5-0.7-0.8
	c-0.2-0.3-0.3-0.6-0.7-0.8s-0.4,0.1-0.5,0.3c-0.1,0.7,0.6,0.9,0.6,1.5c0.4,0.3,0.5,0.7,0.8,1c0.2,0.3,0.5,0.6,0.8,0.9
	c0.3,0.3,0.5,0.6,0.8,0.9c0.3,0.3,0.5,0.6,0.8,0.9c0.2,0.4,0.5,0.6,0.7,1c0.3,0.3,0.5,0.6,0.7,1c0.3,0.3,0.4,0.7,0.8,0.9
	c0.2,0.3,0.6,0.6,0.8,0.9c-0.2,0.4-0.7,0.4-1.1,0.5c-0.2,0.1-0.4,0.1-0.6,0.1c-0.2,0.1-0.5,0-0.6,0.1c-0.3-0.1-0.6-0.1-0.9-0.1
	c-1-0.2-2-0.5-2.9-1c0.4-0.1,0.7-0.2,1.1-0.4c0.3-0.2,0.7-0.2,0.9-0.6c0.1-0.2,0-0.4-0.2-0.5c0,0-0.1,0-0.1,0c0-0.1,0-0.3,0-0.4
	c0-0.1-0.2-0.2-0.2-0.3c-0.9,0-1.9-0.2-2.8-0.5c-0.3-0.4-0.6-0.8-0.8-1.3c-0.1-0.1-0.2-0.2-0.2-0.4c-0.1-0.1-0.2-0.2-0.2-0.3
	c-0.2,0-0.1-0.2-0.2-0.3c0-0.2-0.2-0.2-0.1-0.3c0.7,0.4,1.4,0.7,2.1,0.9c0.3,0,0.6-0.2,0.7-0.4c0.1-0.3-0.1-0.5-0.2-0.7
	c-1.3-0.4-2.1-1-3.5-1.4C39,75.5,39,75.2,38.8,75c-0.1-0.2-0.2-0.5-0.3-0.7c-0.3-0.4-0.5-0.9-0.7-1.4c-0.2-0.5-0.4-0.9-0.6-1.4
	c-0.1-0.3-0.2-0.5-0.3-0.7c0-0.2-0.1-0.5-0.2-0.7c0-0.3,0-0.6-0.1-0.9c0.2-0.6,0.2-1.2,0.5-1.8c0.6-0.5,1.3-1,2.1-1.4
	c0.7-0.1,1.5,0,2.2,0.2c0.1,0.4,0.2,0.8,0.3,1.2c-0.1,0.5-0.3,1,0,1.3c0.5,0.2,0.5-0.5,0.8-0.8c0-0.3,0.1-0.6,0-0.8
	c0.2-0.2,0.2,0.2,0.4,0.2s0.1,0.3,0.2,0.4c0.2,0.8,0.3,1.5,0.4,2.3c0,0.4,0.1,0.8,0.2,1.2c0,0.4,0.1,0.8,0.3,1.1
	c0.8,0.4,1-0.5,1.3-1l0.2-0.7c0.1-0.3,0.1,0,0.2,0c0,0.1,0,0.2,0.1,0.2c0,0.2,0,0.4,0.3,0.5c0.1,0.3,0.3,0.7,0.4,1
	c0.2,0.7,0.5,1.3,0.8,2c0.3,0.1,0.2,0.4,0.6,0.5c0.5,0.1,0.7-0.5,0.8-1.1c0.4,0.2,0.7,0.4,1,0.7c0,0.1,0,0.3,0.1,0.4
	c-0.1,0.1-0.1,0.3,0,0.4c0,0.2-0.2,0.5-0.1,0.7s-0.2,0.5-0.1,0.6c-0.2,0.4-0.2,0.8,0.1,1.1s0.4-0.2,0.6-0.5s0.3-0.5,0.3-0.9
	c0.2,0.1,0.1,0.3,0.3,0.5c0,0.2,0.1,0.3,0.1,0.5s0.1,0.7,0.2,1C51.1,78.8,51.1,79.5,51,80.2z M49.4,57.4c-0.3-0.2-0.5-0.5-1-0.4
	c-0.7,0-1.3,0.2-1.9,0.6c0,0.2-0.2,0,0,0c0.5-1.1,1.3-2,1.9-3.1c0.7-0.3,1.3-0.7,1.9-1.2c-0.2,1.2,0.5,1.9,0.7,3.1
	C50.1,56.4,50,57.1,49.4,57.4z M61.4,36c0.3,0,1.3,1,1.3,1.4s-0.4,0.9-0.6,0.8s-1.2-1-1.3-1.3C60.8,36.6,61.1,36.2,61.4,36z
	 M60.1,38c0.2-0.2,2,2.3,1.9,2.5s-0.2,0.7-0.4,0.6c-0.9-0.7-1.6-1.5-2.3-2.4C59.4,38.4,59.9,38.1,60.1,38z M58.3,40.2
	c0.9,0.9,1.7,1.9,2.4,3c-0.1,0.3-0.3,0.6-0.5,0.9c-1-1-1.9-2.1-2.8-3.3C57.7,40.6,58,40.4,58.3,40.2L58.3,40.2z M54.2,48.8
	c-0.1,0.4-0.6,0.8-0.8,0.7c-0.4-0.4-0.8-0.9-1-1.5c0-0.4,0.7-0.8,0.8-0.8C53.5,47.3,54.3,48.4,54.2,48.8z M56.5,47.7
	c-0.2,0.3-0.6,0.7-0.8,0.5s-2.2-2.9-1.9-3c0.3-0.2,0.6-0.3,1-0.3C54.8,45,56.8,47.5,56.5,47.7z M58.7,45.7c-0.2,0.4-0.5,0.8-0.6,0.7
	S55,43,55.2,42.8s0.5-0.6,0.7-0.5C56.2,42.1,59,45.3,58.7,45.7L58.7,45.7z"/>
</svg>
