<?xml version="1.0" encoding="utf-8"?>
<!-- Generator: Adobe Illustrator 23.1.1, SVG Export Plug-In . SVG Version: 6.00 Build 0)  -->
<svg version="1.1" id="Layer_1" xmlns="http://www.w3.org/2000/svg" xmlns:xlink="http://www.w3.org/1999/xlink" x="0px" y="0px"
	 viewBox="0 0 100 98.8" style="enable-background:new 0 0 100 98.8;" xml:space="preserve">
<style type="text/css">
	.st0{fill:#83C7BD;}
</style>
<path class="st0" d="M99.7,43.5C96.9,24.2,83.3,8.3,64.8,2.4c-5.7-1.8-20.5-5.2-36.3,2.2C12.5,12.3,1.3,28.3,0.1,45.5
	c-1.7,24.1,16,39.2,19.5,42c9.1,6.9,20.1,10.8,31.4,11.3c0.7,0,1.5,0,2.2,0c11.1,0.2,22-3.7,30.5-10.9
	C103.3,71.1,99.8,44.6,99.7,43.5z M29.2,6.1c15.2-7.2,29.6-3.9,35.1-2.2c4.6,1.5,9.1,3.7,13.1,6.5c-1.8-0.9-3.7-1.7-5.6-2.5
	c-2.7-1-24.1-8-43.7-1.2C28.5,6.5,28.9,6.3,29.2,6.1z M1.7,45.6C2.5,36.1,6.1,27,12.1,19.6C7.6,27,4.5,35.2,3,43.8
	c-1.1,10.9,1.5,21.9,7.3,31.3C4.1,66.5,1,56.1,1.7,45.6z M82.7,86.7C75,93.4,63.5,97.6,51.1,97.3c4.5,0,8.9-0.8,13.1-2.2
	c22.1-7.3,34.6-30.5,32.6-55.3c-0.1-1.3-0.3-2.5-0.4-3.8c0.8,2.5,1.3,5,1.7,7.6C98.2,44.8,101.6,70.5,82.7,86.7L82.7,86.7z"/>
<path d="M71,55.6c1.3-0.1,2.6-0.5,3.9-1c0.3-0.2,1.3-7.3,1.2-9.4s-2.9-5-8.2-4.4s-8.4,3.2-8.7,4s0.9,8.7,0.9,8.7
	c1.9,2.4,6,2.5,6.2,2.6s0,6.6,0,7.1s-1.9-1.2-2.4-1.3c-0.7-0.1-1.3,0.1-1.8,0.6c-0.2,0.6-0.4,1.2-0.5,1.8c0,0.1,0.1,0.5,0.8,0.7
	c0.4,0.1,0.9,0.1,1.3,0.1v-1.2c1,0.5,1.9,1,2.8,1.6c0,0.2-5.4,3-5.5,3.3s-0.2,1.5,0.2,1.9c0.5,0.4,1.2,0.4,1.7,0.1
	c0.3-0.2,0-1.4,0-1.4s4.5-2.7,4.7-2.7s3.6,2.2,3.6,2.2v0.8c0,0,0.3,0.8,0.8,0.9c0.4,0,0.8-0.1,1.1-0.4c0.2-0.6,0.2-1.2,0-1.8
	c-1.3-1.1-2.6-2.2-4-3.2c0,0,1.7-0.5,1.8-0.5s0.3,0.6,0.4,0.8s1.1-0.3,1.4-0.6s-0.3-2.3-0.5-2.4c-1.2,0.3-2.4,0.6-3.6,1.1V56
	C69.3,55.9,70.2,55.8,71,55.6z M71.4,53.8c-0.5-0.9-1-1.7-1.6-2.4c0,0,0.4-0.5,0.7-0.5c0.7,0.7,1.3,1.6,1.8,2.4L71.4,53.8z M72.9,53
	c0.2-0.2-1.4-2.3-1.6-2.6s0.8-0.5,0.8-0.5c0.4,0.7,0.8,1.3,1.3,1.8L72.9,53z M61.5,45.5c-0.1-0.3,2.1-2.8,6.6-2.7s5.9,1.6,6,2.4
	s-1.5,1.9-5.4,2.2S62,47.1,61.5,45.5z M68.2,51.9c-0.1-0.2,0.4-0.3,0.7-0.3s1.3,2.1,1.4,2.3l-0.8,0.3C69.8,54.1,68.3,52.2,68.2,51.9
	z M56.6,54.4V54c-0.1-6.1-2.8-9-3.6-9.8c-0.7-0.3-1.4-0.7-2.1-0.9c-3.2-1.2-6.6-2.1-10-2.6c-0.7,0-1.3,0-2,0.1
	c-1.2,0.1-2.3,0.4-3.4,0.8c-0.2,0.2-0.8-10.3-0.8-10.4s1.1-0.2,2.9-1.3c4.5-2.6,4.5-4.7,4.2-5.1s-7.4-0.4-7.4-0.4s-0.7-1.4-1.8-0.8
	c-0.7,0.3-1,1.1-0.7,1.8c0,0-7.7,6.2-7.7,6.6c0,0.3,1.6,0.8,4.1,0.7c1.6-0.1,3.1-0.3,4.6-0.7l1.1,10.7c-3.4,1.2-6.2,3.6-7.9,6.8
	c-1.9,3.8-2.2,8.2-0.8,12.2c0.9,2.8,2.8,5.2,5.5,6.6l-3.1,3.7c-0.6,0-1.2,0.3-1.6,0.7c-0.7,0.6-0.7,1.4,0.5,1.9
	c1.1,0.4,2.3,0.3,3.4-0.2c0.6-0.3-0.3-1.3-0.3-1.4s3.1-3.8,3.1-3.8l1,0.3l1.2,1.7c0.4,0.8,1.2,1.2,2.1,1.1c1-0.5,1.9-1.2,2.8-1.9
	c1.7,0,3.3-0.1,5-0.3c1.4-0.2,2.8-0.5,4.2-1l2.2,2.2c-0.1,0.3-0.2,0.6-0.3,0.9c-0.1,0.2,0.2,0.5,0.9,1.3s2.9,0.3,3.4-0.1
	c0.6-0.7,0.6-1.7-0.1-2.4c-0.4-0.4-1-0.5-1.5-0.4L50.8,68c1.1-0.5,2.2-1.1,3.1-1.8C55.6,64.6,56.7,61.8,56.6,54.4z M27.5,30.8h-0.3
	c-0.3,0,4.7-4.2,5-4.2c0.6,0,1.1-0.1,1.6-0.4c0.7-0.3,0.5-0.5,0.5-0.5s5.7-0.1,5.8,0.1s-1,1.5-4.8,3.1
	C32.8,30.1,30.2,30.7,27.5,30.8z M49.5,58.7c-1-1.2-2-2.4-3.1-3.5c-0.3,0-0.6,0.7-0.5,0.8s3.4,3.5,3.4,3.8c-0.1,0.4-0.3,0.7-0.5,1
	c-0.4-0.4-3-3.1-3.1-3.1h-0.1l0,0c-0.2,0-0.7,0.6-0.5,0.8s3.5,3.4,3.5,3.5s-0.5,1.3-0.6,1.3s-3.2-3.5-3.3-3.5h-0.1
	c-0.2-0.1-0.8,0.5-0.7,0.8s3.6,3.7,3.6,3.9v-0.1c0,0,0,0,0,0.1c-0.2,0.4-0.5,0.9-0.8,1.3c0,0-3.2-4.2-3.4-4.2s-0.8,0.6-0.6,0.8
	s3.5,3.9,3.4,4.2c-0.3,0.3-0.6,0.5-1,0.6c-1-1.4-2-2.7-3.1-4c-0.1,0-0.1,0-0.2,0.1c-0.2,0.1-0.3,0.2-0.3,0.4c0,0.1,0,0.1,0,0.2
	c0.1,0.2,3.2,3.6,2.8,3.7c-0.4,0.2-0.9,0.3-1.4,0.4c-0.7-1.1-1.4-2.2-2.2-3.2c-0.1-0.1-0.2-0.2-0.2-0.2s-0.8,0.3-0.8,0.4
	c0.7,1,1.4,2.1,2,3.2h-1.4c-0.2-0.4-1.5-2.3-1.5-2.3s0,0,0,0c0,0,0,0,0-0.1c-0.2,0-0.8,0.1-0.8,0.3s1.4,2.2,1.2,2.3
	s-4.7-0.4-4.7-0.4c-0.3-0.8-0.6-1.7-0.8-2.5c-0.3-0.7-0.3-1.5-0.3-2.2c0.9-0.2,1.6-1.1,1.6-2c0.1-1.7-0.9-2.3-2.6-2.3
	c-1.3,0.1-2.3,1.1-2.3,2.4c0,0.8,1,1.5,1,1.5s0.2,1.9,0.5,2.9c0.2,0.6,0.4,1.2,0.8,1.8c0,0-4.8-2.9-5.7-7.7s0-12.8,7.9-15.1
	c4-0.9,8.1,0,11.4,2.4c3,2.5,3.6,8.7,3.6,8.9c-0.3-0.3-1.3-1.5-1.9-2.1c-0.1-0.2-0.3-0.3-0.5-0.4c-0.3-0.1-0.5,0.5-0.5,0.5
	c1,1.1,2,2.3,2.8,3.5C49.7,57.8,49.6,58.2,49.5,58.7L49.5,58.7z M33.1,47.4c-0.8,0.3-1.5,0.8-2,1.4c-0.6,0.7-1.1,1.6-1.4,2.4
	c0.1,0.3,1.1,0.6,1.1,0.6c0.2-0.7,0.5-1.3,0.9-1.8c0.4-0.8,1.1-1.4,2-1.7C33.7,48.2,33.3,47.3,33.1,47.4z M40.5,33.2
	c-0.2,0.7,0.5,4.5,0.8,6.1c2.4,0.1,4.7,0.4,7,0.8c-0.1-0.1-0.1-0.3-0.2-0.3c-0.1-0.2,0.5-0.3,0.8-0.3c0.3,0.3,0.5,0.7,0.6,1.1
	c0.3,0.1,0.6,0.2,0.8,0.4c-0.4-0.8-1-1.8-1-1.8s0.6-0.3,0.8-0.2c0.6,0.8,1,1.6,1.4,2.5l0.4,0.4c0.6,0.3,1.2,0.7,1.7,1.1l0.2-0.2
	c0.2-0.3,2.3-7.4,1.8-9.1s-2.5-3.5-7.6-3.4S40.8,32.3,40.5,33.2z M52.5,41.5c-0.5-1-1-2-1.6-2.9c0,0,0.6-0.5,0.9-0.5s0.9,1.3,1,1.5
	L52.5,41.5z M47.7,31.8c3.5-0.2,5.9,0.6,6.1,1.3s-3,2.1-6.4,2.1s-4.6-0.9-4.9-1.5C42.4,33.4,44.2,31.9,47.7,31.8L47.7,31.8z"/>
</svg>
