<?xml version="1.0" encoding="utf-8"?>
<!-- Generator: Adobe Illustrator 23.1.1, SVG Export Plug-In . SVG Version: 6.00 Build 0)  -->
<svg version="1.1" id="Layer_1" xmlns="http://www.w3.org/2000/svg" xmlns:xlink="http://www.w3.org/1999/xlink" x="0px" y="0px"
	 viewBox="0 0 100 98.8" style="enable-background:new 0 0 100 98.8;" xml:space="preserve">
<style type="text/css">
	.st0{fill:#FFFFFF;}
	.st1{fill-rule:evenodd;clip-rule:evenodd;}
</style>
<g>
	<path class="st0" d="M99.7,43.5C96.9,24.2,83.3,8.3,64.8,2.4c-5.7-1.8-20.5-5.2-36.3,2.2C12.5,12.3,1.3,28.3,0.1,45.5
		c-1.7,24.1,16,39.2,19.5,42c9.1,6.9,20.1,10.8,31.4,11.3c0.7,0,1.5,0,2.2,0c11.1,0.2,22-3.7,30.5-10.9
		C103.3,71.1,99.8,44.6,99.7,43.5z M29.2,6.1c15.2-7.2,29.6-3.9,35.1-2.2c4.6,1.5,9.1,3.7,13.1,6.5c-1.8-0.9-3.7-1.7-5.6-2.5
		c-2.7-1-24.1-8-43.7-1.2C28.5,6.5,28.9,6.3,29.2,6.1z M1.7,45.6C2.5,36.1,6.1,27,12.1,19.6C7.6,27,4.5,35.2,3,43.8
		c-1.1,10.9,1.5,21.9,7.3,31.3C4.1,66.5,1,56.1,1.7,45.6z M82.7,86.7C75,93.4,63.5,97.6,51.1,97.3c4.5,0,8.9-0.8,13.1-2.2
		c22.1-7.3,34.6-30.5,32.6-55.3c-0.1-1.3-0.3-2.5-0.4-3.8c0.8,2.5,1.3,5,1.7,7.6C98.2,44.8,101.6,70.5,82.7,86.7L82.7,86.7z"/>
	<path class="st1" d="M42,46.2c-0.1,0.1-0.2,0.3-0.3,0.4c-0.5,0.8-1,1.7-1.4,2.6c-1,1.8-1.8,3.7-2.3,5.7c-0.2,0.4-0.5-0.5-0.8,0
		c-0.3,0.1-0.4,0.5-1,0.4c-0.7,0-3.2-1.2-4.8,0.1c-1.4,0.9-2.1,2.5-1.8,4.1c0.3,2,0.1,5.9-1,8.1c-2,2.8-3.9,2.9-4.1,3.3v0.3
		c0.1,0.2,0.2,0.3,0.3,0.6c0.3,0.1,0.4,0.4,0.8,0.4c0.1,0.3,0.9,0,1,0.3c2.2,0.2,4.4,0,6.6-0.5c6.5-2.8,8.2-6.8,8.6-8.4
		c0.2-0.4,0.1-1.1,0.3-1.5c0-0.6-0.1-1.2-0.3-1.8c0.7,0.1,0.5-0.7,1.1-0.7c0.3-0.3,1.1-0.1,1.4-0.4c1.1-0.1,1.9-0.5,2.9-0.7
		c0.8-0.3,1.6-0.6,2.3-1c-1.3-2.3-3.7-6.5-4.3-7.7C44.1,48.3,43.1,47.2,42,46.2z M37.1,61.6c0.1-0.1,0.2,0.1,0.1,0.1
		S37,61.6,37.1,61.6z M36.3,59c0.2,0,0.3,0.2,0.3,0.5H36C36.1,59.3,36.2,59.2,36.3,59z M34.2,57.2c0.5-0.1,0.6,0.1,1,0.1
		c-0.1,0.3-0.6,0.3-1.1,0.3C34.2,57.5,34.2,57.3,34.2,57.2L34.2,57.2z M30.4,70.2c-2,0.8,0.2-0.9,0.1-0.9c0.4-0.7,0.8-1.4,1-2.2
		c0.2-2-0.1-4-0.7-5.9c-0.1-0.5,0.5-0.2,0.5-0.6c0.2-0.1,0.4-0.2,0.5-0.4c0.4-0.4,1-0.6,1.5-0.4c-0.2,0.4-0.3,0.9-0.3,1.4
		c0.3,0.5,0.8,0.8,1.4,0.7c-0.1,0.7,0.3,1.4,1,1.7c0.8,0.1,1.6-0.2,2.1-0.8c0.5,0.1,0.4,0.8,0.8,1C37.7,66.6,36.3,67.9,30.4,70.2
		L30.4,70.2z M74.9,26.5c-0.8-0.3-1.3,0.2-2.1,0.4c-0.6,0.4-1.3,0.6-1.9,1c-2.5,1.3-4.9,2.7-7.2,4.3c-1.3,0.6-2.5,1.4-3.7,2.1
		c-4.8,2.9-9.2,6-14.2,8.7c-0.8,0.2-1.5,0.6-2.2,0.9c0.6,0.9,1.6,2.5,2.3,3.6s3.9,6.5,5.4,8.9c0.2-0.1,0.5-0.2,0.7-0.2
		c2-1.4,3.8-2.9,5.7-4.4c1.7-1.7,3.3-3.5,5-5.2c1.4-2,3.1-3.7,4.6-5.7c0.8-0.9,3.3-4.4,4.5-6.3s4-6.1,3.9-7.1
		C75.5,27,75.1,26.9,74.9,26.5z M52.9,54.5c-0.3-0.2-0.2-1.1-0.2-1.1c-0.1-0.6-0.2-1.2-0.3-1.8c-0.2-0.5-0.7-2.6-0.5-2.8
		s0.7-0.1,0.8,0.2s0.8,5.1,0.8,5.1S53.3,54.7,52.9,54.5L52.9,54.5z M55,52.8c-0.3-0.2-0.2-1.1-0.2-1.1c-0.1-0.6-0.2-1.2-0.4-1.8
		c-0.2-0.5-0.7-2.6-0.5-2.8s0.7,0.1,0.8,0.4s0.8,5.1,0.8,5.1S55.4,53.1,55,52.8z M57.1,50.8c-0.3-0.2-0.2-1.1-0.2-1.1
		c-0.1-0.6-0.2-1.2-0.4-1.8c-0.2-0.5-0.7-2.6-0.5-2.8s0.7-0.1,0.8,0.2s0.8,5.1,0.8,5.1S57.5,51.1,57.1,50.8L57.1,50.8z M59.2,49.2
		c-0.3-0.2-0.2-1.1-0.2-1.1c-0.1-0.6-0.2-1.2-0.3-1.8c-0.2-0.5-0.7-2.6-0.5-2.8s0.7,0.1,0.8,0.4s0.8,5.1,0.8,5.1
		S59.7,49.5,59.2,49.2L59.2,49.2z M61.2,46.7c-0.3-0.2-0.2-1.1-0.2-1.1c-0.1-0.6-0.2-1.2-0.4-1.8c-0.2-0.5-0.6-1.8-0.4-2
		s0.7-0.1,0.8,0.2s0.7,4.3,0.7,4.3S61.7,46.9,61.2,46.7L61.2,46.7z M63.4,44.4c-0.1-0.4-0.2-0.8-0.3-1.2c0-0.3,0-0.6-0.2-0.9
		c-0.2-0.5-0.6-1.5-0.4-1.7s0.6-0.2,0.7,0.1s0.6,3.5,0.6,3.5S63.9,44.7,63.4,44.4L63.4,44.4z M65,42.5c-0.2-1-0.4-2-0.5-3
		c0-0.2,0.4-0.2,0.6,0c0.2,0.9,0.3,1.8,0.4,2.8C65.5,42.3,65.4,42.8,65,42.5z M66.7,40.3c-0.2-0.8-0.4-1.6-0.5-2.5
		c0-0.2,0.4-0.2,0.6,0c0.2,0.7,0.3,1.4,0.4,2.2C67.2,40,67.1,40.6,66.7,40.3L66.7,40.3z"/>
</g>
</svg>
