<?xml version="1.0" encoding="utf-8"?>
<!-- Generator: Adobe Illustrator 23.1.1, SVG Export Plug-In . SVG Version: 6.00 Build 0)  -->
<svg version="1.1" id="Layer_1" xmlns="http://www.w3.org/2000/svg" xmlns:xlink="http://www.w3.org/1999/xlink" x="0px" y="0px"
	 viewBox="0 0 100 98.8" style="enable-background:new 0 0 100 98.8;" xml:space="preserve">
<style type="text/css">
	.st0{fill:#FFFFFF;}
	.st1{fill:#1A1A18;}
</style>
<g id="Layer_5">
	<path class="st0" d="M99.7,43.5C96.9,24.2,83.3,8.3,64.8,2.4c-5.7-1.8-20.5-5.2-36.3,2.2C12.5,12.3,1.3,28.3,0.1,45.5
		c-1.7,24.1,16,39.2,19.5,42c9.1,6.9,20.1,10.8,31.4,11.3c0.7,0,1.5,0,2.2,0c11.1,0.2,22-3.7,30.5-10.9
		C103.3,71.1,99.8,44.6,99.7,43.5z M29.2,6.1c15.2-7.2,29.6-3.9,35.1-2.2c4.6,1.5,9.1,3.7,13.1,6.5c-1.8-0.9-3.7-1.7-5.6-2.5
		c-2.7-1-24.1-8-43.7-1.2C28.5,6.5,28.9,6.3,29.2,6.1z M1.7,45.6C2.5,36.1,6.1,27,12.1,19.6C7.6,27,4.5,35.2,3,43.8
		c-1.1,10.9,1.5,21.9,7.3,31.3C4.1,66.5,1,56.1,1.7,45.6z M82.7,86.7C75,93.4,63.5,97.6,51.1,97.3c4.5,0,8.9-0.8,13.1-2.2
		c22.1-7.3,34.6-30.5,32.6-55.3c-0.1-1.3-0.3-2.5-0.4-3.8c0.8,2.5,1.3,5,1.7,7.6C98.2,44.8,101.6,70.5,82.7,86.7L82.7,86.7z"/>
	<path class="st1" d="M22.1,56.5c-0.2-0.1-0.2-1,0-1.1c1.2,0.3,2.3,0.6,3.4,1.1c-0.1-0.5-0.3-1.2-0.4-1.7c-1.1-0.4-2.2-0.6-3.3-0.8
		c-0.1-0.4-0.1-0.8,0.1-1.2c0.9,0.1,1.8,0.4,2.6,0.6l0.3,0.3c-0.1-0.6-0.2-1.2-0.4-1.8c-0.6-2.8-1.3-5.6-2.2-8.4
		c-1.6,0.3-3.2,0.7-4.8,1.3c-1.4,0.7-1.5,2.8-1.5,3.6s3.3,12,3.7,13.5c0.5,1.1,1.6,1.8,2.9,1.6c0.6,0,3.1-0.4,4.6-0.6
		c-0.2-1-0.9-3.2-1.4-5.4C24.6,57.1,23.4,56.8,22.1,56.5z M26,60c-1.1-0.5-2.3-0.8-3.5-1.2c-0.2-0.1-0.4-1.1-0.2-1.2
		c1.2,0.3,2.3,0.7,3.4,1.1L26,60z M77.2,38.2c0.4-1.3-0.1-2.2-1.5-3.1s-4.9-1.3-7.8-1.1s-2.6,2.5-2.8,3.1s-1.3,6.2-1.3,6.2
		c-4.6-0.2-9.1-0.2-13.7,0.1c-10.1,0.4-14.6,1.9-14.6,1.9s-1.3-6.7-1.7-8.7s-1-1.9-1.7-1.9c-3,0.4-5.9,1.1-8.8,2.1
		c-1.5,0.7-0.7,2.3-0.7,2.7c0,0.1,0.3,1.2,0.5,2c0,0,1.7,4.9,1.9,5.6s3.3,15.3,3.3,15.5c0,0,0.4,1.6,0.6,2.4
		c0.2,0.8,0.7,1.5,1.5,1.8c2,0,4-0.3,5.8-1c1.5-0.5,1.1-1.9,1-2.7s-0.7-9.5-0.7-9.5c4.4-1,8.8-1.6,13.2-2c4.1-0.3,8.3,0,12.3,0.8
		c0,0-1.4,7.6-1.8,9.7c-0.4,2,0.5,2.7,0.7,2.9s3.2,0.8,4.2,1.2c0.9,0.2,1.9-0.2,2.3-1c0.3-0.6,0.6-1.2,0.8-1.8l8-23
		C76.7,40,77,39,77.2,38.2z M31.6,45.5c0.7,0.2,1.5,0.5,2.1,0.9l0.1,1c-0.5-0.2-2.3-0.9-2.4-1C31.4,46.1,31.4,45.8,31.6,45.5z
		 M30.7,47.6c1.2,0.4,2.3,0.8,3.4,1.3l0.1,1.3c-1.2-0.6-2.4-1.1-3.7-1.6C30.4,48.3,30.5,47.9,30.7,47.6z M30.6,50.3
		c1.3,0.4,2.6,0.9,3.8,1.4l0.1,1.3c-0.6-0.3-3.8-1.5-4-1.6S30.5,50.4,30.6,50.3z M30.7,52.9c1.3,0.4,2.6,1,3.8,1.6l0.3,0.2
		c0.1,0.4,0.1,0.8,0.1,1.2c-0.2-0.2-4.1-1.8-4.3-1.9S30.5,53,30.7,52.9z M30.8,55.3c0.2-0.2,4.3,1.9,4.3,1.9s0.1,1.3,0.1,1.2
		c-1.4-0.7-2.8-1.3-4.2-1.9C30.7,56.4,30.6,55.5,30.8,55.3z M30.9,59c-0.1-0.4-0.1-0.8,0-1.2c0.1-0.1,4.5,2,4.5,2l0.1,1.1
		C35.4,60.5,30.9,59,30.9,59z M31.3,60.4l4.3,1.8l0.2,1.1l-4.5-1.8C31,61.3,31.3,60.3,31.3,60.4L31.3,60.4z M31.5,63.4
		c-0.2-0.1,0.1-1,0.1-1l4.3,1.5l0.1,0.6C35.9,64.5,31.7,63.5,31.5,63.4L31.5,63.4z M48.7,50.1C41.8,51,36,52.4,36,52.1s-0.5-5-0.5-5
		s4.2-1.6,14.8-2.2s13.1,0.1,13.1,0.1s-1,5.4-1.3,5.5S55.6,49.4,48.7,50.1z M67.1,64.9c-0.1,0.3-0.3,0.4-0.2,0.4
		c-0.1-0.2-3.3-2.8-3.4-3s0.5-0.8,0.5-0.8l3.2,3.2L67.1,64.9z M67.4,63.9l-3.1-3.4c-0.2-0.2,0.4-1,0.4-1l3,3.5
		C67.4,63.7,67.4,63.8,67.4,63.9L67.4,63.9z M68.5,60.7c-0.1,0.4-0.2,0.8-0.4,1.1c0,0-0.4-0.5-0.6-0.8l-2.4-2.9c0,0,0.3-1.1,0.5-1.1
		c1.1,1.1,2.1,2.3,3,3.5L68.5,60.7z M69,59.3c-0.4-0.7-2.6-3-2.7-3.2s0.1-1.1,0.4-1.2s2.4,2.8,2.8,3.3C69.5,58.2,69.2,58.9,69,59.3z
		 M69.9,56.9c-0.2-0.4-2.7-3.2-2.9-3.4s0.4-1,0.6-0.8c0.9,0.9,1.8,1.9,2.6,3C70.2,56.1,70,56.5,69.9,56.9L69.9,56.9z M70.8,54
		c0,0-2.6-2.4-2.7-2.6s0.4-1.1,0.5-1.1c0.9,0.8,1.7,1.6,2.5,2.4L70.8,54z M71.7,51.4c0-0.2-2.1-2.5-2.2-2.9s0.3-0.7,0.5-0.7
		c0.8,0.8,1.5,1.6,2.1,2.5C72,50.7,71.7,51.4,71.7,51.4L71.7,51.4z M72.8,48.4L72.8,48.4c-0.4-0.6-0.9-1.2-1.5-1.7
		c-0.1-0.1,0.3-0.7,0.5-0.7s1.3,1.5,1.3,1.5C73,47.7,72.9,48.1,72.8,48.4L72.8,48.4z M43.1,46.8c-0.3-0.2-5.7,1-5.8,1.1
		s-0.1,1.2,0.1,1.3c2-0.3,4-0.8,6-1.4C43.7,47.6,43.4,47.1,43.1,46.8z M83.1,44.8c-0.4-0.2-3.1-1.5-5-2.3c-0.8,2-3.6,8.3-3.9,9
		s-3,8.8-3.9,11.8c1.4,0.6,3.3,1.4,3.9,1.7c0.8,0.4,1.8,0.1,2.2-0.6c0,0,0-0.1,0-0.1c0.4-0.7,6.1-13.9,6.9-16.2
		C84.2,45.6,83.7,45.1,83.1,44.8L83.1,44.8z M75,62.4c0.1-0.2-2.5-2.4-2.7-2.7s0.4-1.3,0.7-1.3c0.8,0.9,1.6,1.9,2.3,3L75,62.4z
		 M75.8,60c0-0.2-2.2-2.9-2.2-3.1s0.2-1.1,0.4-1.1c0.8,1,1.6,2,2.3,3.1L75.8,60z M77,57.8c0.1-0.3-2.3-2.8-2.4-3.1s0.4-1,0.6-1
		c0.8,0.9,1.6,1.9,2.2,2.9L77,57.8z M78,55.1c-0.7-0.9-1.4-1.8-2.2-2.5c-0.1-0.1,0.4-0.8,0.7-0.8c0.7,0.7,1.3,1.4,1.9,2.1L78,55.1z"
		/>
</g>
</svg>
