<?xml version="1.0" encoding="utf-8"?>
<!-- Generator: Adobe Illustrator 23.1.1, SVG Export Plug-In . SVG Version: 6.00 Build 0)  -->
<svg version="1.1" id="Layer_1" xmlns="http://www.w3.org/2000/svg" xmlns:xlink="http://www.w3.org/1999/xlink" x="0px" y="0px"
	 viewBox="0 0 100 100" style="enable-background:new 0 0 100 100;" xml:space="preserve">
<style type="text/css">
	.st0{fill:#FFFFFF;}
</style>
<path class="st0" d="M99.7,44C97,25,83.4,8.9,64.8,3c-5.7-1.8-20.5-5.2-36.3,2.3C12.5,12.9,1.3,28.9,0.1,46.1
	c-1.7,24.1,16,39.2,19.5,41.9c8.6,6.8,20.1,10.9,31.4,11.4c0.7,0,1.5,0,2.2,0c8.6,0,20.2-2.1,30.5-10.9
	C103.3,71.7,99.8,45.2,99.7,44z M29.2,6.7c15.2-7.2,29.6-3.9,35.1-2.2C69,6,73.4,8.2,77.4,10.9c-1.9-1-3.8-1.8-5.6-2.5
	c-2.7-1-24.1-8-43.7-1.2C28.5,7.1,28.9,6.8,29.2,6.7z M1.7,46.2c0.7-9.4,4.4-18.5,10.4-25.9c-6.4,9.9-8.9,22-9.2,24.1
	c-1.1,10.7,1.5,21.9,7.3,31.3C5.4,68.7,0.8,58.7,1.7,46.2z M82.8,87.3C75,94,63.5,98.2,51.1,97.9c4.1,0,8.5-0.7,13.1-2.2
	c22.1-7.3,34.6-30.5,32.6-55.3c-0.1-1.3-0.3-2.5-0.5-3.7c0.8,2.5,1.3,5,1.7,7.6C98.2,45.4,101.6,71.1,82.8,87.3z"/>
<path d="M66.9,65.9L66.9,65.9c0,0-2-0.8-2.9-1.1s-1.9-0.7-1.9-0.7c0,0,0,0,0,0c0,0-0.1,0-0.1,0c-0.1,0-0.2-0.1-0.3-0.1c0,0,0,0,0,0
	c0,0-8.3,0.1-7.4,0c0.9-0.1-4,0-4,0h-9.1c-1,0-2,0.2-2.4,0.7c-0.4,0.5-0.4,1.3-0.4,1.9c0,0.6-0.1,1.1,0.3,1.6c0.7,0.7,2,1.2,2.5,1.1
	c0.8-0.1,8.5,0,8.5,0s4.7-0.2,5.5,0c0.8,0.2,6.4,0,6.4,0c0.2,0,0.3,0,0.5-0.1c0,0,0,0,0,0c0,0,1.4-0.3,2.2-0.8c0.8-0.5,2.6-1,2.6-1
	c0.6-0.2,0.8-0.8,0.5-1.2C67.3,66.1,67.2,66,66.9,65.9z M63.3,67.5L62,68.1l0-2.9c0,0,0.9,0.2,1.4,0.6c0.5,0.3,2.1,0.7,2.1,0.9
	C65.5,66.8,63.3,67.5,63.3,67.5z M83.8,58.4c0-1.1-0.3-2.1-0.7-3c-0.4-0.8-1-1.5-1.7-1.9c-0.8-0.5-1.7-0.8-2.8-0.8
	c0,0-0.2-0.8,0-1.8c0.2-1,0-1.6,0-1.6v-2.7c0-0.8-0.2-1.6-0.6-2.2c-0.3-0.5-0.3-1.1-1-1.4c-0.7-0.4-1.9-0.9-3.1-0.9L70.7,42
	l-2.5-0.1v-1c0,0,0.9-5,1.3-6.6c0.4-1.6,0.5-2.4,0.5-2.4l0.5-2.4c0.1-0.6-0.3-1.2-0.9-1.4c-0.1,0-0.2,0-0.2,0c0,0-1.5-0.2-4.2,0
	c-2.7,0.2-12.5,0-12.5,0s-8.4,0.2-9.8,0c-1.4-0.2-5.8,0-5.8,0c-0.6,0-1.2,0.5-1.2,1.2c0,0.1,0,0.2,0,0.2c0,0,0.2,1.8,0.8,3.8
	c0.6,2,0.7,3,0.9,4.5c0.2,1.7,0.6,3.7,0.6,3.7c-0.1-0.1,0.1,1,0.1,1.6c0,0.4-0.2,2.5-0.2,2.5v1.7l0.2,4.2l-0.2,2.1
	c0,0-0.1,1.8,0,2.8c0.1,1,0,2.2,0.2,3c0.3,1.2,0.5,0.9,1.1,0.9c0,0,5.3,0.2,7.2,0c1.9-0.2,5.4,0.1,6.6,0c1.2-0.1,12.1,0.1,10.6,0
	c-1.4-0.1,3,0,3,0c0.6,0,0.8-0.3,0.8-0.9c0,0,0.5-1.5,0.3-2.3c-0.2-0.9,0-2.9,0-3.7c-0.1-1.4-0.2-3-0.1-5c0.1-1.7,0.1-4.2,0.1-4.2
	l2.4-0.2l3.4,0.2c0.5,0,1.4,0.1,1.7,0.4c0.3,0.3,0.6,1.2,0.6,1.9c0,0-0.1,2,0,2.9c0.1,1,0,3.2,0,3.2c-0.9,0-1.9,0.1-2.6,0.5
	c-0.8,0.4-1.2,1-1.6,1.7c-0.7,1-1,2.2-1,3.5l0.1,3.9l-0.1,3c0,1.4,0.4,3,1.1,4c0.3,0.4,0.7,0.5,1.1,0.8c0.8,0.6,1.9,1,3.1,1h2.3
	c0.7,0,1.4-0.1,2-0.4c0.6-0.3,1.5-0.3,1.9-0.8c1-1.1,1.4-2.9,1.4-4.6L84,62L83.8,58.4z M44.4,55.6c-0.1,0-0.5-0.1-1.1,0
	c-0.6,0.1-1.5,0-1.5,0v-1.8c0,0,0-0.7,0-0.9c0-0.1,0.3,0,0.3,0h1.5c0,0,0.8-0.1,0.9,0s0,0.7,0,0.7S44.5,55.5,44.4,55.6z M44.4,50.3
	c-0.1,0-0.5-0.1-1.1,0c-0.6,0.1-1.5,0-1.5,0v-1.8c0,0,0-0.7,0-0.9c0-0.1,0.3,0,0.3,0h1.5c0,0,0.8-0.1,0.9,0s0,0.7,0,0.7
	S44.5,50.3,44.4,50.3z M49.4,55.6c-0.1,0-2.6,0-2.6,0V54c0,0-0.1-1,0-1c0.1-0.1,2.6,0,2.6,0s0,0.2,0,0.7
	C49.5,54,49.6,55.6,49.4,55.6z M49.4,50.3c-0.1,0-2.6,0-2.6,0v-1.6c0,0-0.1-1,0-1c0.1-0.1,2.6,0,2.6,0s0,0.2,0,0.7
	C49.5,48.7,49.6,50.3,49.4,50.3z M54.5,55.6c-0.1,0-0.9,0.1-1.7,0c-0.5,0-0.9,0-0.9,0v-2.6c0,0,0.5,0.1,0.9,0s1.7-0.1,1.8,0
	C54.5,53.1,54.6,55.6,54.5,55.6z M54.5,50.3c-0.1,0-0.9,0.1-1.7,0c-0.5,0-0.9,0-0.9,0v-2.6c0,0,0.5,0.1,0.9,0s1.7-0.1,1.8,0
	C54.5,47.8,54.6,50.3,54.5,50.3z M59.5,53.8c0,0.4,0,1.8,0,1.8s-1.3,0-1.7,0.1c-0.4,0.1-0.8,0.1-0.9-0.1c-0.1-0.2,0-2.6,0-2.6
	c0-0.1,0.9,0,0.9,0s1.7-0.1,1.8,0C59.6,53,59.5,53.4,59.5,53.8z M59.5,48.5c0,0.4,0,1.8,0,1.8s-1.3,0-1.7,0.1s-0.8,0.1-0.9-0.1
	c-0.1-0.2,0-2.6,0-2.6c0-0.1,0.9,0,0.9,0s1.7-0.1,1.8,0C59.6,47.8,59.5,48.1,59.5,48.5z M64.5,54.4v1.1c0,0-1.2-0.1-1.9,0
	c-0.6,0.1-0.7,0.1-0.8,0c0-0.1-0.2-2.6,0-2.6s2.5-0.1,2.6,0S64.5,54.4,64.5,54.4z M64.5,49.2v1.1c0,0-1.2-0.1-1.9,0
	c-0.6,0.1-0.7,0.1-0.8,0c0-0.1-0.2-2.6,0-2.6s2.5-0.1,2.6,0S64.5,49.2,64.5,49.2z M66.8,35.7c-0.4-0.4-0.7-0.8-0.7-0.8
	c-0.1,0-0.3,0.6-0.2,0.8c0,0.1,0.4,0.5,0.8,1c0,0.4-0.1,0.8-0.2,1.2c-0.5-0.6-1.3-1.6-1.3-1.6c-0.1,0-0.3,0.6-0.2,0.8
	c0.1,0.1,0.8,1,1.3,1.7c-0.1,0.5-0.2,1-0.3,1.4l0,0c-0.1-0.1-1.8-2.5-1.8-2.5c-0.1-0.1-0.4,0.5-0.2,0.8c0.1,0.3,1.5,2,1.9,2.6
	c-0.1,0.3-0.1,0.5-0.2,0.5c0,0-0.3,0.1-0.6,0.1c-0.6-0.9-1.7-2.4-1.7-2.4c-0.1,0-0.5,0.8-0.4,1c0.1,0.1,0.6,0.8,1.1,1.4
	c-0.4,0-0.8,0-1.3,0c-0.6-0.8-1.3-1.7-1.3-1.7c-0.1,0-0.3,0.6-0.1,0.8c0.1,0.1,0.3,0.5,0.7,0.9c-1.2,0-2.4,0-2.9-0.1
	c-1.1-0.1-7.5,0-7.5,0s-4.1-0.1-5.4,0s-4.4,0-4.4,0s-1.1,0.2-1.3,0c-0.2-0.2-0.4-2.4-0.4-2.4s-0.2-2-0.5-3.1
	c-0.3-1.1-0.7-3.9-0.7-3.9s-0.6-1.3-0.3-1.5s8.9,0,8.9,0h19.8C67.5,30.6,67,32.9,66.8,35.7z M78.4,57.5l-2.7-0.2h-2.2
	c0-1.1,0.6-1.8,1.6-2.2c0.7-0.3,1.6-0.4,2.5-0.4c0.8,0,1.4,0,1.9,0.2c1.3,0.4,1.8,1.3,1.8,2.4L78.4,57.5z M81.1,69.3
	c0-0.3-0.7-1-0.8-1.2c-0.1-0.2,0-1.1,0.1-1.1c0.1,0,1.3,1.7,1.3,1.7L81.1,69.3z M82.2,67.9c-0.1,0-1.5-1.5-1.5-2.1
	c0-0.2,0.1-0.8,0.1-0.8c0.1,0,1.3,2,1.3,2L82.2,67.9z M82.6,65.8c0-0.2-1.5-2.1-1.7-2.4c-0.1-0.3,0.1-1.2,0.2-1.1
	c0.1,0,1.4,2.1,1.5,2.1L82.6,65.8z M81,60.5c-0.1-0.2,0-1,0.1-1.1c0.1,0.1,1.5,1.8,1.5,1.8l0.2,1.7C82.1,62.4,81,60.6,81,60.5z
	 M34.8,54.4c0-2.2-0.1-3.8-0.1-4.8c0-2.8,0-4.4-0.1-5c0,0-0.1-0.1-0.2-0.2c-0.1-0.1-0.1-0.1-0.1-0.2s-0.1-0.1-0.2-0.1
	c-0.1,0-0.2-0.1-0.2-0.2c-0.1-0.3-0.3-0.6-0.5-0.7C33,43,32.1,43,30.9,43H28L27.9,43c-0.1,0-0.1,0.1-0.2,0.1c-0.6,0-1.6,0.1-2.9,0.1
	c-1.3,0-2.3,0.1-2.9,0.1l-2.7,0.4c-0.2,0-0.5,0-0.8,0c-0.3,0-0.5,0.1-0.7,0.1c0,0-0.1,0.1-0.1,0c0,0-0.1,0-0.2-0.1
	c-0.1,0-0.2,0-0.2,0c-0.1,0-0.3,0-0.6,0.1c-0.2,0.2-0.3,0.5-0.4,1.1c0,0.2,0,0.5-0.1,0.8c0,0.3-0.1,0.6-0.1,0.7c0,0.7,0,1.7-0.1,3
	C16,55.6,16,59.6,16.1,61.3c0,2.7,0.1,4.6,0.4,5.7c0.1,0.1,0.2,0.3,0.5,0.6c0.2,0.3,0.4,0.5,0.6,0.6c0.5,0.1,1.2,0.2,2.2,0.2
	s1.7,0.1,2,0.1h8.9c0.3,0,0.6,0,1.1,0c0.4,0,0.8,0.1,1.1,0.1c0.1,0.1,0.3,0.1,0.5,0c0.2-0.1,0.3-0.1,0.4-0.1c0.1,0,0.2-0.1,0.4-0.2
	c0.2-0.1,0.3-0.2,0.3-0.2c0.1-0.3,0.2-0.6,0.2-1c0-0.4,0.1-0.9,0-1.5c0-0.6,0-1,0-1.3c0.1-0.8,0.2-2.4,0.2-4.8
	C34.9,58.3,34.8,56.6,34.8,54.4z M29.5,63.4c-0.1,0.2-0.2,0.4-0.3,0.5c0,0-0.1,0.1-0.2,0.1c-0.1,0-0.2,0.1-0.2,0.2
	c-0.3,0-0.5,0-0.6,0.1c-0.2,0-0.6,0-1.3,0.1c-0.6,0.1-1.2,0.1-1.6,0.1c0,0-0.1,0-0.1,0c0,0-0.1,0-0.1,0h-2.5
	c-0.9,0.1-1.5-0.1-1.8-0.7v-0.8c0.2-0.2,0.2-0.3,0.2-0.4c0.1,0,0.2,0,0.3-0.1c0.2-0.1,1.1-0.2,2.8-0.2c0.4,0,0.9,0,1.7,0.1
	c0.8,0,1.3,0.1,1.6,0.1c0.1,0,0.3,0,0.6-0.1c0.3,0,0.5-0.1,0.6-0.1c0.1,0,0.3,0,0.5,0.1c0.2,0.1,0.3,0.2,0.5,0.3
	C29.5,62.9,29.5,63.1,29.5,63.4z M29.5,58.6c-0.2,0.2-0.2,0.3-0.2,0.4c-0.1,0-0.2,0-0.3,0.1c-0.2,0.1-1.1,0.2-2.8,0.2
	c-0.4,0-0.9,0-1.7-0.1c-0.8,0-1.3-0.1-1.6-0.1c-0.1,0-0.3,0-0.6,0.1c-0.3,0-0.5,0.1-0.6,0.1c-0.1,0-0.3,0-0.5-0.1
	c-0.2-0.1-0.3-0.2-0.5-0.3c-0.1-0.2-0.1-0.4,0-0.7s0.2-0.4,0.3-0.5c0,0,0.1-0.1,0.2-0.1c0.1,0,0.2-0.1,0.2-0.2c0.3,0,0.5,0,0.6-0.1
	c0.2,0,0.6,0,1.3-0.1c0.6-0.1,1.2-0.1,1.6-0.1c0,0,0.1,0,0.1,0c0,0,0.1,0,0.1,0h2.5c0.9-0.1,1.5,0.1,1.8,0.7V58.6z M29.2,54h-1.4
	c-0.7,0-1.8,0-3.2-0.1c-1.4,0-2.5,0-3.3,0c-0.6,0-1-0.3-1.1-1c0-0.6,0.4-1,1.1-1.1c0.2,0,0.6-0.1,1.1-0.1h0.5c0.2,0,0.4,0,0.5-0.1
	h3.8c0.6,0,1,0,1.3,0c0.3,0,0.6,0.1,0.9,0.4c0.3,0.2,0.5,0.5,0.5,0.9C29.8,53.2,29.6,53.6,29.2,54z M29.6,49
	c-0.2,0.2-0.8,0.3-1.7,0.2c-0.3,0-0.8,0-1.4,0c-0.6,0-1.1,0-1.4,0c-0.4,0-0.9,0-1.5,0c-0.6,0-1.1-0.1-1.4-0.1c-0.1,0-0.3,0-0.6,0
	c-0.3,0-0.5-0.1-0.6-0.1c-0.1,0-0.3-0.1-0.5-0.1c-0.2,0-0.3-0.1-0.4-0.2c-0.1-0.1-0.1-0.3-0.1-0.5c0-0.6,0.4-0.9,1.2-0.9
	c0.2,0,0.5,0,0.9-0.1s0.8,0,1.1,0c0.9-0.1,2.3-0.1,4.2-0.1h0.2c0,0,0-0.1,0.1-0.1c0.7,0,1.3,0,1.7,0.2c0.4,0.2,0.6,0.5,0.6,1.1
	C30,48.6,29.8,48.8,29.6,49z"/>
</svg>
