<?xml version="1.0" encoding="utf-8"?>
<!-- Generator: Adobe Illustrator 19.0.0, SVG Export Plug-In . SVG Version: 6.00 Build 0)  -->
<svg version="1.1" id="Layer_1" xmlns="http://www.w3.org/2000/svg" xmlns:xlink="http://www.w3.org/1999/xlink" x="0px" y="0px"
	 width="31.4px" height="31.9px" viewBox="0 0 31.4 31.9" enable-background="new 0 0 31.4 31.9" xml:space="preserve">
<g id="XMLID_1_">
	<g id="XMLID_2_">
		<g id="XMLID_10_">
			<path id="XMLID_11_" fill="#69a8a7" d="M7.9,31.9c-0.3,0-0.5-0.2-0.5-0.4c-0.1-0.3,0.1-0.5,0.4-0.6c0.1,0,0.5-0.1,0.8-0.9
				c0.4-1.1,1.7-2.4,1.7-2.5c0.2-0.2,0.5-0.2,0.7,0s0.2,0.5,0,0.7c0,0-1.1,1.1-1.5,2.1C9.1,31.4,8.4,31.8,7.9,31.9
				C8,31.9,7.9,31.9,7.9,31.9z"/>
		</g>
		<g id="XMLID_8_">
			<path id="XMLID_9_" fill="#69a8a7" d="M0.5,22.3c-0.1,0-0.3-0.1-0.4-0.2c-0.2-0.2-0.1-0.6,0.1-0.8c0.1-0.1,1.3-0.9,2.3-0.9
				c0.6,0.1,3-0.2,3.9-0.3c0.3,0,0.5,0.3,0.5,0.5c0,0.3-0.2,0.5-0.5,0.5c-0.3,0.1-3.3,0.3-4.1,0.3c-0.5-0.1-1.3,0.4-1.6,0.7
				C0.7,22.3,0.6,22.3,0.5,22.3z"/>
		</g>
		<g id="XMLID_6_">
			<path id="XMLID_7_" fill="#69a8a7" d="M5.2,11.7c-0.1,0-0.1,0-0.2-0.1c-0.1,0-1.3-0.7-2.1-1.1C2.2,10.1,1.1,9.9,1,9.9
				C0.7,9.8,0.5,9.6,0.6,9.3C0.7,9,0.9,8.8,1.2,8.8c0.1,0,1.3,0.3,2.2,0.7c0.7,0.4,2,1.1,2,1.1c0.3,0.1,0.3,0.4,0.2,0.7
				C5.6,11.5,5.4,11.7,5.2,11.7z"/>
		</g>
		<g id="XMLID_4_">
			<path id="XMLID_5_" fill="#69a8a7" d="M9.7,5.8c-0.1,0-0.3-0.1-0.4-0.1c-0.2-0.2-2-2.2-2.4-2.9C6.5,2,6.2,0.6,6.2,0.6
				C6.1,0.3,6.3,0.1,6.6,0s0.5,0.1,0.6,0.4s0.3,1.3,0.6,1.9c0.3,0.5,1.8,2.2,2.3,2.8c0.2,0.2,0.2,0.5-0.1,0.7
				C9.9,5.7,9.8,5.8,9.7,5.8z"/>
		</g>
		<path id="XMLID_3_" fill="#69a8a7" d="M11.3,19.3c0,0,3-0.1,3.5,0s6.1,0,6.1,0v5.5L31,15.7c0.4-0.4,0.5-0.9,0.1-1.3
			c-0.6-0.5-1.8-1.4-2.2-1.7C27.8,12,23,8.4,22.3,7.6C21.6,6.7,21,6.3,21,6.3v5h-9.2c0,0,0,6.3-0.2,6.7
			C11.2,18.3,11.3,19.3,11.3,19.3z"/>
	</g>
</g>
</svg>
