<?xml version="1.0" encoding="utf-8"?>
<!-- Generator: Adobe Illustrator 23.1.1, SVG Export Plug-In . SVG Version: 6.00 Build 0)  -->
<svg version="1.1" id="Layer_1" xmlns="http://www.w3.org/2000/svg" xmlns:xlink="http://www.w3.org/1999/xlink" x="0px" y="0px"
	 viewBox="0 0 100 100" style="enable-background:new 0 0 100 100;" xml:space="preserve">
<style type="text/css">
	.st0{fill:#83C7BD;}
</style>
<path class="st0" d="M99.7,44C97,25,83.4,8.9,64.8,3c-5.7-1.8-20.5-5.2-36.3,2.3C12.5,12.9,1.3,28.9,0.1,46.1
	c-1.7,24.1,16,39.2,19.5,41.9c8.6,6.8,20.1,10.9,31.4,11.4c0.7,0,1.5,0,2.2,0c8.6,0,20.2-2.1,30.5-10.9
	C103.3,71.7,99.8,45.2,99.7,44z M29.2,6.7c15.2-7.2,29.6-3.9,35.1-2.2C69,6,73.4,8.2,77.4,10.9c-1.9-1-3.8-1.8-5.6-2.5
	c-2.7-1-24.1-8-43.7-1.2C28.5,7.1,28.9,6.8,29.2,6.7z M1.7,46.2c0.7-9.4,4.4-18.5,10.4-25.9c-6.4,9.9-8.9,22-9.2,24.1
	c-1.1,10.7,1.5,21.9,7.3,31.3C5.4,68.7,0.8,58.7,1.7,46.2z M82.7,87.3C75,94,63.5,98.2,51.1,97.9c4.1,0,8.5-0.7,13.1-2.2
	c22.1-7.3,34.6-30.5,32.6-55.3c-0.1-1.3-0.3-2.5-0.5-3.7c0.8,2.5,1.3,5,1.7,7.6C98.2,45.4,101.6,71.1,82.7,87.3z"/>
<path d="M56.9,58.4c0-3.2,0-6.4,0-9.6c0-0.7,0-1.5-0.1-2.1c-0.2-0.6-0.5-1.1-0.8-1.6c-0.7-1.1-1.4-2.1-2.2-3.1
	c-0.9-1-1.7-2.1-2.6-3.2c-0.9-1.1-1.8-2.9-2.8-3.8c-0.5-0.5-1.1-1.1-1.6-1.8c0,0,0,0,0,0c-0.4-0.5-0.8-1-1.2-1.5
	c-0.3-0.5-0.7-1.1-1.1-1.6c-0.1-0.1-0.2-0.3-0.3-0.4c-0.5-0.6-1-1.1-1.6-1.7c-0.5-0.5-1.6-0.4-2.2-0.1c-1.2,0.6-2.2,1.4-3.1,2.5
	c-0.7,0.9-1.4,2-2,2.7c-3.2,3.8-6.6,7.5-10,11.1c-0.6,0.6-1,1.1-1.1,2c-0.1,1.4-0.1,2.9-0.1,4.3c0,0.8,0.1,0.1,0.1,0.9
	c0,1.1-0.1,4.6-0.1,4.6s0.1,1.9,0.1,3c0,1.2-0.1,4-0.1,4s0,1.9,0,2.8c0,0.6,0.2,2.1,0.2,2.1s-0.2,0.8-0.1,1.4
	c0.1,0.6,0.4,0.9,0.4,0.9s1.4,0.6,2.2,0.6c0.8,0,2.6-0.3,2.6-0.3s1.4,0.3,2.1,0.3c1,0,2.8-0.1,3.7-0.1c0.7,0,1.1-0.3,1.1-0.3
	s0.3-0.6,0.4-0.9c0.1-1.7,0.2-4.2,0.4-5.9c0.1-0.8,0.3-1.5,0.4-2.3c0-0.3,0.1-0.6,0.1-0.9c0.2,0,0.4,0,0.5,0c0.3,0,0.6,0.1,0.9,0.1
	c0.5,0,0.9-0.1,1.3-0.1c0.4,0,1-0.1,1.5-0.1c0.3,0,0.5,0.1,0.9,0.1l0.9,0c0,0.4,0.2,1,0.3,1.4c0,0.5-0.1,0.9-0.1,0.9
	s0.1,1.8,0.2,2.6c0.1,1.4,0.1,2.7,0.2,4.1c0,0.3,0,0.8,0.2,0.9c0.2,0.2,0.5,0,0.8,0c0.4,0.1,0.9,0.1,1.3,0.2c0.8,0.1,2.3,0,2.3,0
	s1.5,0.3,2.3,0.3c1.2,0,2.3,0,3.5,0.1c0.3,0,0.7-0.1,1.1-0.3c0.2,0.1,0.4,0.1,0.7,0.1c0.2,0,0.4,0,0.5,0c0-0.2,0.1-0.4,0-1
	C56.9,66.8,56.9,61.4,56.9,58.4z M53.6,69.5c-0.3-0.2-0.9-0.7-0.9-0.7s-0.2-0.3-0.6-0.6s-0.2-0.1-0.2-0.3c0.1-0.2,0.5-0.9,0.8-0.8
	c0.2,0.1,1.3,1.4,1.3,1.4S54,69.4,53.6,69.5z M54.3,66.9c-0.3-0.1-1-1.5-1-1.5s-0.5-1-0.9-1.2C51.9,64,52,63.9,52,63.6
	c0.1-0.2,0.4-0.2,0.7-0.1c0.8,0.4,2.1,2.1,2.1,2.1S54.7,66.8,54.3,66.9z M54.7,63c-0.3-0.1-1.3-1.1-1.3-1.1s-0.8-0.7-1.2-0.9
	c-0.4-0.2-0.1-0.6,0-0.8c0.1-0.2,0.2-0.5,0.5-0.4c0.8,0.4,2.2,2.4,2.2,2.4S55.2,62.9,54.7,63z M55.1,60.1c-0.3-0.1-1.1-1-1.1-1
	s-1-1.1-1.5-1.3c-0.5-0.2-0.4-0.3-0.4-0.6c0-0.2,0.6-0.5,0.9-0.4c0.4-0.4,2.5,1.9,2.4,2.1C55.4,58.9,55.5,60,55.1,60.1z M55.1,56.3
	c-0.3-0.1-0.9-0.6-0.9-0.6s-0.2-0.3-0.6-0.5s-0.2,0-0.1-0.2c0.1-0.2,0.5-0.6,0.7-0.5c0.2,0,1.2,1.2,1.2,1.2S55.5,56.2,55.1,56.3z
	 M78.8,58.1c0-0.9,0-2.8,0-2.8l0.2-2.5c0,0-0.2-2.4-0.2-3.7c0-0.4,0-0.7,0-1.1c0-0.3,0.1-0.2,0-0.5c-0.2-0.6,0-2.1-0.4-2.6
	c-0.2-0.3-0.3-0.9-0.7-1.5c-0.4-0.6-1-1.2-1.5-1.7c-0.4-0.5-0.6-1.1-0.9-1.6c-0.3-0.4-0.7-1-1-1.4c-0.4-0.5-0.5-1-0.9-1.5
	c-0.4-0.5-1.4-2-1.4-2l-1.4-1.4c0,0-0.5-0.7-0.8-1c-0.2-0.3-1.1-1.6-1.1-1.6s-0.9-0.9-1.2-1.3c-0.2-0.2-0.6-0.6-0.6-0.6
	s-0.7-0.6-1.2-1.3c-0.1-0.2-0.4-0.5-0.4-0.5s-0.9-0.9-1.4-0.3c-0.3,0.4-1.4,1.4-2,1.8c-0.5,0.3-1,1-1.2,1.3c0,0.1,0.1,0.1,0.1,0.2
	c0.9,1.2,1.3,2,2.4,3c1,1,2,2.6,2.9,3.7c0.4,0.6,0.7,1.2,1.2,1.8c0.4,0.5,0.7,1.1,1.2,1.7c0.5,0.6,1.7,2,2,2.8
	c0.1,0.2,0.6,1.3,0.6,1.3s0,0.4-0.1,1.4c0,0.4,0.1,1.1,0.1,1.5c0,0.7,0,2.6-0.1,3c-0.2,0.9-0.1,1.9-0.1,2.9c0,1.2,0.2,3.6,0.2,3.7
	c0,0.8-0.2,1.7-0.2,2.6c0,0.3,0,0.6,0,0.9v1c0,1.1,0,2.2,0,3.3c0,0.3,0,0.7,0.1,1c0.1,0.6,0.1,1.2,0.1,1.6c0,0.8-0.2,1.9-0.2,1.9
	s0.2,0.6,0.2,0.9c0,0.1,0,0.2,0,0.2c0.5,0,1.1,0,1.6,0c0.3,0,0.9-0.1,1.4-0.1c0.9,0,1.9,0.2,2.4,0.2c0.4,0,2-0.2,2-0.2s0.1,0,0.3,0
	c0-0.4,0.1-0.7,0-1.2C78.8,66.5,78.8,61,78.8,58.1z M68.3,52.8c0,0-0.2-2.4-0.2-3.7c0-0.4,0-0.7,0-1.1c0-0.3,0.1-0.2,0-0.5
	c-0.2-0.6,0-2.1-0.4-2.6c-0.4-0.6-1.3-2.2-2.2-3.2c-0.9-1-1.5-2.1-2.4-3.1c-0.5-0.5-1.5-1.7-1.5-1.7s-0.8-1.6-1.3-2.1
	c-0.7-0.6-2.2-2.5-2.2-2.5s-0.8-1.1-1.8-2.4c-0.3-0.3-0.5-0.6-0.7-0.8c-0.4-0.4-1.3-1-1.7-1.4c-0.4-0.4-1.4,0.2-1.4,0.2
	s-0.9,0.4-1.2,0.7c-0.8,0.9-1.7,1.8-2.6,2.6c0.2,0.3,0.3,0.7,0.3,0.7s1,1.7,1.9,2.5C51.5,34.7,52,35,52,35s1.4,1.8,2,2.6
	c0.4,0.6,0.9,1.2,1.3,1.7c0.2,0.2,0.5,0.7,0.5,0.7s0.4,0.9,0.5,1c0.5,0.5,1.1,1.7,1.7,2.3c0.5,0.4,0.8,1.1,1.1,1.7
	c0.1,0.3,0.4,0.6,0.4,0.6l0.1,0.8c0,0,0,0.4,0,0.6c0,0.6-0.2,1.3-0.2,1.7c0,0.7,0.2,1.8,0.1,2.2c-0.2,0.9,0,0.5,0,1
	c0.1,1.1,0,5.5,0,5.6c0,0.8-0.2,1.7-0.2,2.6c0,0.9,0,2.8,0,2.8s0,1.7,0,2.5c0,0.7,0.2,2,0.2,2.6c0,0.7,0.1,2.1,0.1,2.1
	s-0.1,0.3-0.1,0.6c0.8,0,1.6,0,2.5,0c0.9,0,1.8,0,2.7,0c0.4,0,0.8,0,1.2,0c0.1,0.1,0.2,0.1,0.6,0c0.1,0,0.3,0,0.4,0
	c0.4,0,0.7,0,0.9,0c0.1-0.4,0.1-0.8,0.1-1.4c0-2.9,0-8.4,0-11.4c0-0.9,0-2.8,0-2.8L68.3,52.8z"/>
</svg>
