<?xml version="1.0" encoding="utf-8"?>
<!-- Generator: Adobe Illustrator 23.1.1, SVG Export Plug-In . SVG Version: 6.00 Build 0)  -->
<svg version="1.1" id="Layer_1" xmlns="http://www.w3.org/2000/svg" xmlns:xlink="http://www.w3.org/1999/xlink" x="0px" y="0px"
	 viewBox="0 0 100 100" style="enable-background:new 0 0 100 100;" xml:space="preserve">
<style type="text/css">
	.st0{fill:#83C7BD;}
	.st1{fill:#060606;}
</style>
<path class="st0" d="M99.7,44C97,25,83.4,8.9,64.8,3c-5.7-1.8-20.5-5.2-36.3,2.3C12.5,12.9,1.3,28.9,0.1,46.1
	c-1.7,24.1,16,39.2,19.5,41.9c8.6,6.8,20.1,10.9,31.4,11.4c0.7,0,1.5,0,2.2,0c8.6,0,20.2-2.1,30.5-10.9
	C103.3,71.7,99.8,45.2,99.7,44z M29.2,6.7c15.2-7.2,29.6-3.9,35.1-2.2C69,6,73.4,8.2,77.4,10.9c-1.9-1-3.8-1.8-5.6-2.5
	c-2.7-1-24.1-8-43.7-1.2C28.5,7.1,28.9,6.8,29.2,6.7z M1.7,46.2c0.7-9.4,4.4-18.5,10.4-25.9c-6.4,9.9-8.9,22-9.2,24.1
	c-1.1,10.7,1.5,21.9,7.3,31.3C5.4,68.7,0.8,58.7,1.7,46.2z M82.8,87.3C75,94,63.5,98.2,51.1,97.9c4.1,0,8.5-0.7,13.1-2.2
	c22.1-7.3,34.6-30.5,32.6-55.3c-0.1-1.3-0.3-2.5-0.5-3.7c0.8,2.5,1.3,5,1.7,7.6C98.2,45.4,101.6,71.1,82.8,87.3z"/>
<path class="st1" d="M77.5,64l0-3.2c0-0.4,0-0.8,0-1.6c-0.1-1-0.3-1.4-0.4-1.8c-0.3-0.8-0.7-1.6-1.2-1.9c-0.5-0.3-1.1-0.6-1.8-0.9
	c-0.8-0.3-1.7-0.5-2.6-0.5c-0.1,0-0.2,0-0.4,0c-0.5,0-0.9,0-1.5,0.2c-0.6,0.2-1.4,0.7-1.8,0.9c-0.6,0.4-0.7,0.7-1.1,1.4l-0.6-2.6
	c0,0-0.7-3.3-1-4.3c-0.3-1-0.9-3.8-0.9-3.8c-0.2-0.9-0.8-2.1-1.5-2.4c-0.3-0.1-1.5-0.4-2.5-0.4c-0.7,0-1.3-0.1-1.3-0.1s0-0.9,0-1.3
	c0-0.4-0.2-0.8-0.1-1.2c0-0.2-0.1-1.2-0.2-1.9c0-0.4,0-0.7,0-0.7c0-0.3-0.2-1.1-0.2-1.6c0-0.4,0.1-0.2-0.1-0.5
	c-0.2-0.3-0.4-1.3-0.7-1.6C57.3,33.9,57.3,34,57,34c-0.4,0-1.5,0-1.9,0c-0.5,0-1.1-0.1-1.4-0.1c-0.3,0.1-0.6,0.5-1,0.9
	c-0.2,0.2-0.6,0.9-0.6,0.9l-0.7,0.4c0,0-0.5,0.5-0.7,0.8c-0.2,0.3-0.5,0.4-0.6,0.5c-0.2,0-0.6-0.3-0.6-0.3c0,0-0.3-0.2-0.5-0.5
	c-0.2-0.3-0.9-1-0.9-1L47.5,35c0,0-0.3-0.2-0.5-0.5c-0.2-0.3-0.3-0.5-0.6-0.6c-0.3-0.1-1.4,0-1.4,0c-0.9,0-2.1,0.4-2.4,0.7
	c-0.2,0.1-0.4-0.1-0.7,0.5c-0.4,0.6-0.7,1.8-0.7,2.5c0,0.5-0.1,1.9-0.1,2.4c0.1,0.6,0,2,0,2V43h-1.4c-0.6,0-1.2,0-1.6,0.3
	c-0.4,0.2-1.1,0.8-1.5,1.2c-0.4,0.4-0.5,1-0.8,1.6c-0.2,0.6-0.3,1.7-0.5,2.2s-0.6,2.6-0.7,3s-0.4,2-0.5,2.6
	c-0.1,0.5-0.7,2.8-0.7,2.8c-1.2-1.6-3.2-2.6-5.2-2.4c-3.2,0.3-5.7,3-5.7,6.2V64c0,0.6,0.5,1.2,1.1,1.2c0,0,0,0,0,0h7.7
	c0,0-0.5,0.8-0.4,1.7c0.1,0.6-0.1,1.3-0.3,2.2c0,0-0.4,1.3-0.8,2.8c-0.4,1.5-0.2,1.7,0.5,2.6c0.5,0.7,1.1,0.5,2,0.7
	c0.3,0.1,1.2,0.3,1.5,0.3l3.1,0.1l3.8,0.1v-1.5c0,0,0-0.8,0-1.4c0-0.6,0-2.3,0-2.3l0.7-4.1c0-0.9,0.6-1.1,0.9-1.7
	c0.3-0.6,1.1-0.8,2.4-0.8h2.3c0,0,3,0.1,4.1,0c1.1-0.1,3,0.2,3.9,0c0.4-0.1,1.9,0.2,2.7,1c0.4,0.4,0.8,0.2,0.8,1.3l0.6,5.2
	c0,0.8-0.1,1.2,0.1,2.8l-0.1,1.1h6.1c0.5,0,1.7,0.1,2.1,0c0.4-0.1,1.5-0.4,1.9-0.6c0.6-0.4,0.5-0.5,0.8-1.2c0.2-0.4,0-0.8,0-1.3
	c0-0.2,0-0.6-0.1-1.1c-0.1-0.4-0.4-1.6-0.4-1.8c0,0-0.4-1.4-0.6-2c-0.1-0.3-0.3-0.9-0.4-1.5c-0.1-0.4-0.1-0.8,0-0.9
	c0.1,0,0.3,0,0.7,0c0.5,0,1.4,0.1,2.3,0.1c1,0,2.1-0.1,2.9-0.1c0.9,0,1.7,0,2,0c0.3,0,0.5-0.1,0.6-0.2c0.2-0.2,0.2-0.3,0.2-0.6
	C77.3,64.3,77.5,64,77.5,64z M53.5,60.4c-0.9,0.7-2.1,1.3-3.3,1.3c-1.5,0-2.9-0.6-3.9-1.7c-0.9-0.9-1.4-2.2-1.4-3.5
	c0-1.3,0.3-2.4,1.1-3.3c1-1.1,2.3-1.6,3.9-1.6c2.9-0.1,5.6,2.1,5.6,5C55.5,58.1,54.7,59.4,53.5,60.4z M76.6,64.1
	c0-0.2-2.4-1.9-2.4-2.1s0-0.8,0.2-0.8s2.4,2.3,2.4,2.3L76.6,64.1z M76.7,62.1c-0.1-0.4-2.2-2.2-2.3-2.5c0-0.2,0.4-0.4,0.6-0.5
	c0.2,0,1.9,1.9,1.9,1.9L76.7,62.1z M76.7,59.7c0.1-0.2-1.6-1.9-1.7-2c-0.1-0.1,0-0.6,0.3-0.6c0.2,0,1.5,1.6,1.5,1.6L76.7,59.7z
	 M50.1,32.2c1.2,0,2.2-0.5,3-1.1c1.1-0.9,1.8-2.1,1.8-3.6c0-2.6-2.4-4.6-5.1-4.5c-1.5,0.1-2.7,0.5-3.5,1.5c-0.8,0.8-1,1.8-1,3
	c0,1.2,0.5,2.4,1.3,3.2C47.4,31.6,48.7,32.2,50.1,32.2z M53.5,26.8c0.2,0,0.6,0.6,0.6,0.6s0.2,0.3,0.1,0.5c-0.1,0.3-0.1,0.4-0.1,0.4
	c-0.1-0.2-0.8-1-0.8-1S53.3,26.8,53.5,26.8z M52.5,27.9c0.2,0.1,1,1.2,1,1.2s0.1,0.3,0,0.5c-0.1,0.3-0.2,0.4-0.2,0.4
	c-0.1-0.2-1.1-1.6-1.1-1.6S52.3,27.8,52.5,27.9z M51.6,29.1c0.2,0.1,0.9,1.1,0.9,1.1s0.1,0.2,0,0.5c-0.1,0.3-0.2,0.3-0.2,0.3
	c-0.1-0.2-0.9-1.3-0.9-1.3S51.4,29,51.6,29.1z M28.5,52.1c1.2,0,2.3-0.5,3.1-1.2c1.1-0.9,1.9-2.2,1.9-3.7c0-2.7-2.5-4.8-5.3-4.7
	c-1.5,0.1-2.8,0.5-3.7,1.5c-0.8,0.9-1,1.9-1,3.1c0,1.3,0.5,2.4,1.3,3.3C25.8,51.5,27.1,52.1,28.5,52.1z M31.8,47
	c0.2,0,0.6,0.6,0.6,0.6s0.2,0.3,0.1,0.5c-0.1,0.3-0.1,0.4-0.1,0.4c-0.1-0.2-0.8-1-0.8-1S31.6,46.9,31.8,47z M30.9,48.2
	c0.2,0.1,1,1.2,1,1.2s0.1,0.3,0,0.5s-0.2,0.4-0.2,0.4c-0.1-0.2-1.1-1.6-1.1-1.6S30.8,48.2,30.9,48.2z M29.7,49.2
	c0.2,0.1,0.9,1.1,0.9,1.1s0.1,0.2,0,0.5C30.5,51,30.3,51,30.3,51c-0.1-0.2-0.9-1.3-0.9-1.3S29.6,49.1,29.7,49.2z M71.6,52.1
	c1.2,0,2.3-0.5,3.1-1.2c1.1-0.9,1.9-2.2,1.9-3.7c0-2.7-2.5-4.8-5.3-4.7c-1.5,0.1-2.8,0.5-3.7,1.5c-0.8,0.9-1,1.9-1,3.1
	c0,1.3,0.5,2.4,1.3,3.3C68.8,51.5,70.1,52.1,71.6,52.1z M75,46.9c0.2,0.1,0.5,0.7,0.5,0.7s0.1,0.3,0,0.5s-0.2,0.4-0.2,0.4
	c-0.1-0.2-0.6-1.1-0.6-1.1S74.8,46.8,75,46.9z M74,47.8c0.2,0.1,1,1.2,1,1.2s0.1,0.3,0,0.5c-0.1,0.3-0.3,0.1-0.3,0.1
	c-0.1-0.2-1-1.4-1-1.4S73.8,47.7,74,47.8z M73.2,49.4c0.2,0.1,0.7,0.7,0.7,0.7s0.1,0.2,0,0.5c-0.1,0.3-0.2,0.3-0.2,0.3
	c-0.1-0.2-0.7-1-0.7-1S73.1,49.3,73.2,49.4z"/>
</svg>
