<?xml version="1.0" encoding="utf-8"?>
<!-- Generator: Adobe Illustrator 23.1.1, SVG Export Plug-In . SVG Version: 6.00 Build 0)  -->
<svg version="1.1" id="Layer_1" xmlns="http://www.w3.org/2000/svg" xmlns:xlink="http://www.w3.org/1999/xlink" x="0px" y="0px"
	 viewBox="0 0 100 100" style="enable-background:new 0 0 100 100;" xml:space="preserve">
<style type="text/css">
	.st0{fill:#FFFFFF;}
</style>
<path class="st0" d="M99.7,44C97,25,83.4,8.9,64.8,3c-5.7-1.8-20.5-5.2-36.3,2.3C12.5,12.9,1.3,28.9,0.1,46.1
	c-1.7,24.1,16,39.2,19.5,41.9c8.6,6.8,20.1,10.9,31.4,11.4c0.7,0,1.5,0,2.2,0c8.6,0,20.2-2.1,30.5-10.9
	C103.3,71.7,99.8,45.2,99.7,44z M29.2,6.7c15.2-7.2,29.6-3.9,35.1-2.2C69,6,73.4,8.2,77.4,10.9c-1.9-1-3.8-1.8-5.6-2.5
	c-2.7-1-24.1-8-43.7-1.2C28.5,7.1,28.9,6.8,29.2,6.7z M1.7,46.2c0.7-9.4,4.4-18.5,10.4-25.9c-6.4,9.9-8.9,22-9.2,24.1
	c-1.1,10.7,1.5,21.9,7.3,31.3C5.4,68.7,0.8,58.7,1.7,46.2z M82.8,87.3C75,94,63.5,98.2,51.1,97.9c4.1,0,8.5-0.7,13.1-2.2
	c22.1-7.3,34.6-30.5,32.6-55.3c-0.1-1.3-0.3-2.5-0.5-3.7c0.8,2.5,1.3,5,1.7,7.6C98.2,45.4,101.6,71.1,82.8,87.3z"/>
<path d="M38.8,36.5c-0.1,0.2,0,0.3,0.1,0.5l0.6,0.9c0.2,0.3,0.6,0.3,0.8,0.1c0.5-0.5,0.7-1.1,0.8-1.7c0.1-0.3,0.1-0.6,0.1-0.9
	c0.1-0.8,0.1-1.2,0.5-1.5c0.4-0.3,0.8-0.2,1.6,0.1c0.3,0.1,0.5,0.2,0.9,0.2c0.7,0.2,1.5,0.2,2.4-0.4s1.2-1.4,1.3-2.1
	c0.1-0.3,0.1-0.6,0.1-0.9c0.1-0.8,0.1-1.2,0.5-1.5c0.4-0.3,0.7-0.2,1.5,0.1c0.3,0.1,0.5,0.2,0.9,0.2c0.6,0.1,1.2,0.2,1.9-0.1
	c0.3-0.1,0.6-0.3,0.4-0.6l-0.8-1c-0.1-0.2-0.4-0.2-0.6-0.2c-0.3,0.1-0.6,0-1.2-0.2c-0.9-0.3-2-0.7-3.3,0.2c-1.2,0.8-1.3,2.1-1.4,3
	c-0.1,0.8-0.1,1.2-0.5,1.5c-0.4,0.3-0.7,0.2-1.6-0.1c-0.9-0.3-2-0.7-3.3,0.2c-1.2,0.8-1.3,2.1-1.4,3C39.1,35.8,38.9,36.3,38.8,36.5z
	 M41.8,52.9c0.1-0.2,0.3-0.4,0.3-0.7c0,0,0.1-0.9,0.1-1c0-0.2,0-0.7,0-0.7s0-1.6-0.1-1.8c0-0.1-0.1-0.3-0.2-0.4
	c-0.1-0.2-0.2-0.3-0.3-0.4c-0.3-0.4-0.7-0.7-1.1-1c-0.4-0.3-0.9-0.5-1.5-0.6c-0.1-0.1-0.3,0-0.4-0.1c-0.1,0-0.2,0-0.2,0
	c-0.1,0-0.2,0-0.3,0c-0.4,0-0.6-0.1-1,0c-0.4,0-0.7,0-1,0.1c-0.1,0.1-0.3,0.1-0.4,0.1c-0.1,0.1-0.2,0.1-0.4,0.2
	c-0.1,0.1-0.2,0.1-0.2,0.2c-0.1,0-0.1,0.1-0.3,0.2c-0.2,0.2-0.4,0.4-0.5,0.6c-0.3,0.5-0.6,1-0.8,1.6c-0.2,0.6-0.2,1.5-0.2,2.3
	c0,0,0,0,0,0.1c0,0.2,0,0.2,0,0.4c0.2,0.6,0.3,1.1,0.6,1.6c0.1,0.1,0.3,0.3,0.4,0.5c0.1,0,0.1,0.2,0.3,0.2c0.1,0.1,0.1,0.2,0.3,0.2
	c0.1,0.2,0.3,0.3,0.5,0.4c0.1,0.1,0.2,0.1,0.3,0.2c0.1,0.1,0.1,0.2,0.3,0.2c0.4,0.1,0.8,0.1,1.3,0.2c0.4,0.1,0.9,0.1,1.4,0.1
	c0-0.1,0.1,0,0.2,0c1-0.3,1.8-0.8,2.4-1.5c0-0.1,0.1-0.1,0.1-0.2c0.1,0,0-0.2,0.1-0.2C41.6,53,41.7,52.9,41.8,52.9z M51.9,40.7
	c-0.1,0-0.2,0-0.3,0c-0.1,0-0.3,0.1-0.3,0c-0.5,0.1-0.8,0-1.3,0c-0.4,0-0.8,0.1-1.3,0.2c-0.1,0.1-0.3,0.1-0.5,0.2
	c-0.1,0.1-0.3,0.2-0.5,0.2c-0.1,0.1-0.2,0.1-0.3,0.2c-0.1,0.1-0.2,0.2-0.3,0.2c-0.2,0.3-0.4,0.5-0.6,0.8c-0.4,0.7-0.7,1.3-0.9,2.1
	c-0.2,0.8-0.1,1.9,0,2.9c0,0,0,0,0,0.1c0,0.2,0.1,0.3,0.1,0.4c0.2,0.7,0.5,1.4,0.9,2c0.2,0.2,0.4,0.4,0.6,0.6c0.1,0,0.2,0.2,0.3,0.2
	c0.1,0.1,0.2,0.2,0.3,0.3c0.2,0.2,0.4,0.3,0.7,0.4c0.1,0.1,0.2,0.2,0.4,0.2c0.1,0.1,0.2,0.2,0.4,0.2c0.5,0.1,1.1,0.1,1.7,0.1
	c0.5,0.1,1.2,0,1.8,0c0-0.1,0.1,0,0.2-0.1c1.3-0.4,2.2-1.2,3-2.1c0-0.1,0.1-0.1,0.1-0.2c0.1,0,0-0.2,0.1-0.2
	c0.1-0.1,0.2-0.3,0.3-0.4c0.1-0.3,0.3-0.6,0.4-0.9c0,0,0.1-1.1,0.1-1.3c0-0.2,0-0.8,0-0.8s-0.2-2.1-0.2-2.2
	c-0.1-0.2-0.2-0.4-0.3-0.6c-0.1-0.2-0.3-0.3-0.4-0.6c-0.5-0.4-0.9-0.9-1.5-1.2c-0.6-0.3-1.2-0.6-2-0.7C52.3,40.7,52,40.8,51.9,40.7z
	 M72.2,25.3c-0.2,0-0.4,0.1-0.5,0.2l-1,1c-0.3,0.3-0.3,0.7,0,1c0.3,0.3,0.7,0.3,1,0l1-1c0.3-0.3,0.3-0.7,0-1
	C72.5,25.3,72.3,25.3,72.2,25.3z M74.9,27.5c0.3,0.3,0.8,0.3,1,0c0.1-0.1,0.2-0.3,0.2-0.5s-0.1-0.4-0.2-0.5l-1-1
	c-0.1-0.1-0.3-0.2-0.5-0.2s-0.4,0.1-0.5,0.2c-0.1,0.1-0.2,0.3-0.2,0.5s0.1,0.4,0.2,0.5L74.9,27.5z M59.6,51.6c0.3,1,0.8,1.8,1.5,2.4
	c0.1,0,0.1,0.1,0.2,0.1c0,0.1,0.2,0,0.2,0.1c0.1,0.1,0.2,0.1,0.3,0.2c0.2,0.1,0.4,0.3,0.7,0.3c0,0,0.9,0.1,1,0.1c0.2,0,0.7,0,0.7,0
	s1.6,0,1.8-0.1c0.1,0,0.3-0.1,0.4-0.2c0.2-0.1,0.3-0.2,0.4-0.3c0.4-0.3,0.7-0.7,1-1.1c0.3-0.4,0.5-0.9,0.6-1.5
	c0.1-0.1,0-0.3,0.1-0.4c0-0.1,0-0.2,0-0.2c0-0.1,0-0.2,0-0.3c0-0.4,0.1-0.6,0-1c0-0.4,0-0.7-0.1-1c-0.1-0.1-0.1-0.3-0.1-0.4
	c-0.1-0.1-0.1-0.2-0.2-0.4c-0.1-0.1-0.1-0.1-0.2-0.2c0-0.1-0.1-0.1-0.2-0.3c-0.2-0.2-0.4-0.4-0.6-0.5c-0.5-0.3-1-0.6-1.6-0.8
	c-0.6-0.2-1.5-0.2-2.3-0.2c0,0,0,0-0.1,0c-0.2,0-0.2,0-0.4,0c-0.6,0.2-1.1,0.3-1.6,0.6c-0.1,0.1-0.3,0.3-0.5,0.4
	c0,0.1-0.2,0.1-0.2,0.3c-0.1,0.1-0.2,0.1-0.2,0.3c-0.2,0.1-0.3,0.3-0.4,0.5C60,48.3,60,48.4,60,48.5c-0.1,0.1-0.2,0.1-0.2,0.3
	c-0.1,0.4-0.1,0.8-0.2,1.3c-0.1,0.4-0.1,0.9-0.1,1.4C59.6,51.5,59.6,51.6,59.6,51.6z M74.9,24.3l1-1c0.1-0.1,0.2-0.3,0.2-0.5
	s-0.1-0.4-0.2-0.5c-0.1-0.1-0.3-0.2-0.5-0.2s-0.4,0.1-0.5,0.2l-1,1c-0.1,0.1-0.2,0.3-0.2,0.5s0.1,0.4,0.2,0.5
	C74.1,24.6,74.6,24.6,74.9,24.3z M71.7,24.3c0.3,0.3,0.7,0.3,1,0c0.3-0.3,0.3-0.7,0-1l-1-1c-0.1-0.1-0.3-0.2-0.5-0.2
	s-0.4,0.1-0.5,0.2c-0.1,0.1-0.2,0.3-0.2,0.5s0.1,0.4,0.2,0.5L71.7,24.3z M62.7,59.7c0-0.6-0.4-1.6-0.6-2.2c-0.2-0.5-0.2-0.8-0.6-1.2
	c-0.6-0.7-1.9-1.5-2.9-1.5c-1.4-0.3-2-0.6-3.5-0.8c-1.2-0.1-3.4-0.2-4.5-0.2c-1.2,0-1.5,0.3-2.7,0.4c-1.5,0.1-2.8,0.3-4.3,0.6
	c-0.6,0.2-1.4,0.4-1.9,0.8c-0.5,0.4-1,1-1.3,1.6c-0.4,0.7-0.6,1.6-0.6,2.4c0.1,1.6,0.2,2.8,0.4,4.2c0,0.5,0.1,1.1,0.1,1.8
	c0,0.6,0.4,2,0.6,2.6c0.3,0.7,0.4,0.7,0.9,1.3c0.6,0.8,1.3,1.5,2.1,2c0.7,0.4,0.3,0.5,1,0.6c0.8,0.1,2,0.2,2.8,0.3
	c1,0.1,2.8,0.7,3.6,0.3c0.2-0.1,1.8,0,2.7,0c0.8-0.1,1.6-0.2,2.4-0.3c0.5-0.1,1.3-0.4,2-0.9c0.5-0.3,1.1-0.7,1.5-1.1
	c0.2-0.2,0.3-0.4,0.4-0.6c0.2-0.4,1.1-1.2,1.3-2.1c0.2-0.9,0.2-0.7,0.3-1.8c0.1-0.9,0.4-1.8,0.4-2.5C62.5,62.1,62.6,61,62.7,59.7z
	 M57,70.8c-0.3-0.4-0.6-0.7-0.6-0.8c-0.1-0.3,0.6-0.9,0.8-0.9c0.1,0,0.4,0.4,0.8,0.9C57.6,70.3,57.3,70.6,57,70.8z M58.8,69.2
	c-0.6-0.8-1.3-1.5-1.4-1.7c-0.2-0.3,0.4-0.8,0.6-0.8c0.2,0,0.9,0.9,1.5,1.8C59.3,68.6,59.1,68.9,58.8,69.2z M60.6,67.1
	c-0.8-0.9-1.6-1.8-1.7-1.9c-0.2-0.3,0.5-0.9,0.6-0.8c0.1,0,0.7,0.7,1.4,1.5C60.8,66.3,60.7,66.8,60.6,67.1z M61.3,64.2
	c-0.7-0.7-1.4-1.4-1.5-1.5c-0.2-0.3,0.3-0.8,0.5-0.8c0.1,0,0.6,0.6,1.2,1.2C61.5,63.4,61.4,63.8,61.3,64.2z M72.5,60.4
	c-0.3-1.7-0.3-1.4-1.1-2.1c-0.4-0.3-0.2-0.4-0.7-0.5c-0.9-0.2-2.5-0.3-3.3-0.4c-1.1-0.2-1.8-0.3-3-0.3L64,57.3l0.2,0.4l0.2,1
	c0.1,0.4,0,0.8,0,1.2c0,0.2-0.2,0.8-0.2,1l-0.1,0.5C64,62.5,64,65,63.9,66.1c0,0.6-0.3,1.2-0.4,1.9c-0.1,0.5-0.2,0.8-0.4,1.2
	s-0.7,0.5-1,0.9c-0.1,0.2-0.1,0.2,0,0.5c0.1,0.3,1.7-0.2,2.5-0.2c1.3,0,3.2-0.1,4.5-0.3c1-0.2,0.9,0,1.6-0.9c0.3-0.4,0.8-1.4,1-1.9
	c0.3-0.6,0.4-1.2,0.5-1.9c0.1-1,0.2-2.7,0.3-3.5C72.5,61.5,72.4,61.1,72.5,60.4z M68.3,69.5C68,69.2,67.9,69,67.8,69
	c-0.2-0.3,0.4-0.8,0.6-0.8c0.1,0,0.5,0.4,0.9,0.9C69,69.2,68.6,69.4,68.3,69.5z M70.5,68.2c-0.6-0.7-1.2-1.4-1.3-1.5
	c-0.2-0.3,0.5-0.9,0.6-0.8c0.1,0,0.5,0.6,1,1.2C70.8,67.5,70.7,68,70.5,68.2z M71.5,64.5c0,0.2-0.1,0.4-0.2,0.8
	c-0.5-0.6-1-1.1-1.1-1.2c-0.2-0.3,0.3-0.8,0.5-0.8c0.1,0,0.4,0.4,0.8,0.9C71.5,64.3,71.5,64.4,71.5,64.5z M39.2,69.3
	c-0.2-0.4-0.3-0.8-0.4-1.2c-0.1-0.7-0.3-1.3-0.4-1.9c-0.1-1.1-0.1-3.6-0.2-4.8l-0.1-0.5c0-0.2-0.2-0.8-0.2-1c0-0.4-0.1-0.8,0-1.2
	l0.2-1l0.2-0.4l-0.4-0.2c-1.1,0-1.9,0.1-3,0.3c-0.8,0.1-2.4,0.2-3.3,0.4c-0.5,0.1-0.3,0.1-0.7,0.5c-0.8,0.7-0.8,0.4-1.1,2.1
	c0.1,0.7-0.1,1.2,0,1.7c0.1,0.8-0.2,0.6-0.1,1.6c0,0.5,0.3,1.8,0.6,2.8c0.1,0.4,0.2,0.5,0.3,0.7c0.1,0.2,0.3,0.8,0.5,1.2
	c0.2,0.4,0.4,0.7,0.6,0.9c0.7,0.8,0.6,0.7,1.6,0.9c1.3,0.2,3.2,0.3,4.5,0.3c0.8,0,2.4,0.5,2.5,0.2c0.1-0.3,0.1-0.3,0-0.5
	C39.9,69.8,39.4,69.7,39.2,69.3z M76.4,40.5c-0.1-0.9-0.2-2.1-1.5-2.9c-1.3-0.8-2.4-0.4-3.3-0.1c-0.8,0.3-1.1,0.3-1.5,0.1
	c-0.4-0.3-0.5-0.6-0.6-1.4c-0.1-0.9-0.2-2.1-1.5-2.9c-1.3-0.8-2.4-0.4-3.3-0.1c-0.6,0.2-0.9,0.3-1.2,0.2c-0.3,0-0.5,0.1-0.7,0.3
	l-0.4,0.6c-0.2,0.3-0.1,0.8,0.3,0.9c0.6,0.2,1.2,0.2,1.7,0c0.3-0.1,0.6-0.2,0.9-0.2c0.8-0.3,1.1-0.3,1.6-0.1
	c0.4,0.3,0.5,0.6,0.6,1.4c0,0.3,0.1,0.6,0.1,0.9c0.1,0.7,0.5,1.5,1.3,2.1c0.9,0.6,1.7,0.5,2.4,0.4c0.3-0.1,0.6-0.2,0.8-0.3
	c0.8-0.3,1.1-0.3,1.5-0.1c0.4,0.3,0.5,0.6,0.6,1.4c0,0.3,0.1,0.6,0.1,0.9c0.1,0.7,0.5,1.5,1.3,2.1l1.1-1.7
	C76.6,41.7,76.5,41.3,76.4,40.5z M35.7,29.8c2,0,3.6-1.6,3.6-3.6c0-2-1.6-3.6-3.6-3.6s-3.6,1.6-3.6,3.6
	C32.1,28.2,33.7,29.8,35.7,29.8z M35.7,24.7c0.9,0,1.6,0.7,1.6,1.6s-0.7,1.6-1.6,1.6c-0.9,0-1.6-0.7-1.6-1.6
	C34.1,25.4,34.8,24.7,35.7,24.7z M28,31.2c-0.2,0-0.4,0.1-0.5,0.2l-1,1c-0.3,0.3-0.3,0.7,0,1c0.3,0.3,0.7,0.3,1,0l1-1
	c0.1-0.1,0.2-0.3,0.2-0.5s-0.1-0.4-0.2-0.5S28.2,31.2,28,31.2z M24.8,34.5c-0.2,0-0.4,0.1-0.5,0.2l-1,1c-0.3,0.3-0.3,0.7,0,1
	c0.3,0.3,0.7,0.3,1,0l1-1c0.3-0.3,0.3-0.7,0-1C25.1,34.6,25,34.5,24.8,34.5z M24.2,31.4c-0.1-0.1-0.3-0.2-0.5-0.2
	c-0.2,0-0.4,0.1-0.5,0.2c-0.3,0.3-0.3,0.7,0,1l1,1c0.3,0.3,0.7,0.3,1,0s0.3-0.7,0-1L24.2,31.4z M27.5,34.7c-0.1-0.1-0.3-0.2-0.5-0.2
	s-0.4,0.1-0.5,0.2c-0.3,0.3-0.3,0.7,0,1l1,1c0.3,0.3,0.8,0.3,1,0c0.1-0.1,0.2-0.3,0.2-0.5s-0.1-0.4-0.2-0.5L27.5,34.7z"/>
</svg>
