<?xml version="1.0" encoding="utf-8"?>
<!-- Generator: Adobe Illustrator 23.1.1, SVG Export Plug-In . SVG Version: 6.00 Build 0)  -->
<svg version="1.1" id="Layer_1" xmlns="http://www.w3.org/2000/svg" xmlns:xlink="http://www.w3.org/1999/xlink" x="0px" y="0px"
	 viewBox="0 0 100 100" style="enable-background:new 0 0 100 100;" xml:space="preserve">
<style type="text/css">
	.st0{fill:#83C7BD;}
</style>
<path class="st0" d="M99.7,44C97,25,83.4,8.9,64.8,3c-5.7-1.8-20.5-5.2-36.3,2.3C12.5,12.9,1.3,28.9,0.1,46.1
	c-1.7,24.1,16,39.2,19.5,41.9c8.6,6.8,20.1,10.9,31.4,11.4c0.7,0,1.5,0,2.2,0c8.6,0,20.2-2.1,30.5-10.9
	C103.3,71.7,99.8,45.2,99.7,44z M29.2,6.7c15.2-7.2,29.6-3.9,35.1-2.2C69,6,73.4,8.2,77.4,10.9c-1.9-1-3.8-1.8-5.6-2.5
	c-2.7-1-24.1-8-43.7-1.2C28.5,7.1,28.9,6.8,29.2,6.7z M1.7,46.2c0.7-9.4,4.4-18.5,10.4-25.9c-6.4,9.9-8.9,22-9.2,24.1
	c-1.1,10.7,1.5,21.9,7.3,31.3C5.4,68.7,0.8,58.7,1.7,46.2z M82.7,87.3C75,94,63.5,98.2,51.1,97.9c4.1,0,8.5-0.7,13.1-2.2
	c22.1-7.3,34.6-30.5,32.6-55.3c-0.1-1.3-0.3-2.5-0.5-3.7c0.8,2.5,1.3,5,1.7,7.6C98.2,45.4,101.6,71.1,82.7,87.3z"/>
<path d="M56.4,66.3c-1.2,0-2.5,0-3.7,0c-1.8,0-3.5,0-5.3,0.1c-2.5,0-5,0.1-7.5,0.1c-1.6,0-3.4,0.3-4.9,0.3c-0.3,0-0.7-0.2-1.1-0.3
	c0,0.8,0.1,1.6,0.2,2.4c0.2,1.4-0.3,2.1,0.4,2.7c0.2,0.1,0.4,0.3,0.8,0.4c1.2,0,1.8,0.7,3,0.7c0.4,0,3.4,0.3,4.7,0.3
	c3,0,4.9-0.5,7.8-0.4c2.5,0,6.5,0.1,7.2,0.2c0.8,0.1,1.7-0.2,2.6-0.2c0.8,0,1.6-0.1,2.5-0.1c0.1-0.8,0.3-1.2,0.4-2
	c0.1-0.6,0-1.5,0.1-2c0.1-0.7,0.1-1.5,0.2-2.2c-0.9-0.1-2.3-0.2-3-0.2C59.5,66,57.7,66.3,56.4,66.3z M72.6,38.4
	c-1.6-2.8-1.2-3.8-4-5.2c-2.2-1.1-5-1.7-7.2-0.5c-0.7-2.2-2.8-3.8-5-4.4c-2.2-0.6-4.6-0.3-6.9,0.3c-2.4,0.6-4.7,1.7-6.1,3.8
	c-2.3-0.9-4.8-0.8-7.1-0.5c-1.8,0.2-3.7,0.6-5.1,1.9c-0.6,0.6-1.4,1.2-1.7,2c-0.6,1.3-0.5,3-0.4,4.4c0.1,1.8,0.4,3.6,1.1,5.3
	c1,2.5,2.7,4.7,5,6l-0.6-0.3c-0.2,2.5-0.3,4.7-0.3,6.9c0,2.1-0.2,4.2-0.2,6.3c0.1,0,0.1,0,0.2,0c1.4,0,2.6,0.4,3.9,0.4
	c0.8,0,1.8-0.2,2.6-0.2c3.5,0,7.2,0.3,10.7,0c2.1-0.2,4.6-0.3,7.2-0.3c1,0,1.6,0.4,3,0c0.6-0.2,1.8-0.1,2.4-0.1
	c0.1-1.9,0.1-3.8,0.1-5.7c0-1.9-0.1-3.8-0.3-5.7c0-0.2,0-0.4,0.1-0.6c0.1-0.2,0.3-0.3,0.5-0.3c4.7-0.3,5.4-2.5,7.7-6.7
	c0.4-0.7,0.9-1.7,1-2.5C73.1,41,72.9,39,72.6,38.4z M59.9,62.3c-0.2-0.1-1.8-1.1-1.8-1.4c0-0.4,0.7-0.8,0.8-0.8
	c0.4,0.1,1.9,1.1,1.8,1.5C60.6,62,60.1,62.4,59.9,62.3z M62,58.8c-0.2,0.3-0.2,1.3-0.5,1.2c-0.4,0-3.4-2.5-3.1-2.7
	c0.4-0.2,0.6-0.3,1.1-0.4C59.5,57,62.2,58.6,62,58.8z M61.7,56.6c-0.2-0.1-0.9-0.5-0.9-0.8c0-0.4,0.7-0.8,0.8-0.8
	c0.4,0.1,0.8,0.3,0.7,0.7C62.3,56.1,62,56.9,61.7,56.6z M66,49.2c-0.2-0.1-1-0.3-1.1-0.6c-0.1-0.4,0.5-0.9,0.7-0.9
	c0.4,0,1.2,0.4,1.1,0.8S66.3,49.3,66,49.2z M68.5,47.1c-0.3,0.2-0.3,0.3-0.7,0.5c0,0-0.8-0.6-1.6-1.2c-0.7-0.5-0.7-0.8-0.6-0.9
	c0.2-0.3,0.1-0.7,0.4-0.6C66.3,44.9,68.9,46.9,68.5,47.1z M70.2,45.7c-0.4,0.1-0.5,0.5-1,0.5c0,0-0.6-1-1.2-1.7
	c-0.5-0.7-1.1-1.2-1-1.2c0.3-0.2,0.8-0.8,1-0.7C68.4,42.6,70.6,45.6,70.2,45.7z"/>
</svg>
