<?xml version="1.0" encoding="utf-8"?>
<svg version="1.1" id="Layer_1" xmlns="http://www.w3.org/2000/svg" xmlns:xlink="http://www.w3.org/1999/xlink" x="0px" y="0px"
	 viewBox="0 0 100 100" style="enable-background:new 0 0 100 100;" xml:space="preserve">
<path class="st1" d="M70.7,72c-0.2-0.5-0.5-1.2-1.1-1.7c-0.5-0.4-0.9-0.9-1.5-1.4c-0.6-0.6-1.1-1-2-1.6c-0.6-0.4-1.6-1-2.4-1.4
	c-0.7-0.4-1.3-0.8-2-1.2c-0.5-0.3-1.1-0.6-1.6-0.9c-0.5-0.3-1.2-0.5-1.7-0.7c-0.6-0.3-1.1-0.7-1.7-0.9l-0.1-1.2c0-0.7,0-1.6-0.2-3.1
	c-0.1-1.7-0.6-2.4-0.4-3.4c0.1-0.5,0.1-1,0.3-1.5c0.1-0.4,0.3-0.8,0.5-1.2c0.2-0.3,0.3-0.8,0.4-1.1c0.3-0.6,0.5-0.9,0.5-1.2
	c0-0.6-0.2-1.1-0.6-1.6c-0.4-0.5-0.9-0.9-1.6-1.3c-0.6-0.3-1-0.6-1.4-0.9c-0.4-0.3-0.6-0.5-0.9-0.8l-0.1-3.4l0.3-2.4
	c0-0.3,0-0.9-0.1-1.4c0-0.5-0.1-1.3-0.2-1.8c-0.1-1-0.1-1.8-0.3-3.3c-0.1-0.6-0.3-1.1-0.4-1.6c-0.1-0.5-0.1-1-0.1-1.3
	c-0.1-1.1-0.2-2.1-0.2-2.4c0-0.3,0.3-0.9,0.7-1.8c0.5-0.9,0.8-1.6,0.8-2.3c0-1.1-0.5-2.3-1.2-3.2c-0.3-0.5-0.7-0.9-1.5-1.6
	c-0.2-0.2-0.5-0.1-0.7,0c-0.5,0.4-0.9,0.9-1.1,1.3c-0.3,0.4-0.5,0.7-0.7,1.2c-0.2,0.5-0.5,1.2-0.5,1.7c0,0.3,0.1,0.7,0.2,1.1
	c0.1,0.4,0.3,0.8,0.5,1.3c0.4,0.9,1,1.6,1,1.8c0,0.3-0.3,1.1-0.5,2.3c-0.1,0.8-0.1,1.6-0.2,3c-0.2,1.4-0.2,2.6-0.3,3.5
	c-0.1,0.8-0.5,1.6-0.5,2.1l-1.9-1.2c-0.5-0.5-0.8-0.8-0.9-0.8c-0.9-0.4-1.9-0.3-3,0.2c-0.2,0.1-0.5,0.3-0.7,0.4
	c-0.6,0.4-1.2,0.8-1.6,1.3c-0.3,0.4-0.9,1.1-1,1.5c-0.5,1.2-0.3,2.3,0,3.5c-0.4,0.3-0.7,0.7-0.8,1.1c-0.3,0.7-0.6,1.3-0.5,2
	c0.1,0.5,0.6,1.2,0.9,1.7c0.7,1,0.8,1.8,0.5,2.5c-0.3,0.6-0.8,0.9-1.5,0.8c-0.4,0-0.5,0.2-0.5,0.5c0,0.4,0.2,0.5,0.5,0.5
	c1.2,0.1,2-0.4,2.5-1.4c0.2-0.4,0.5-0.9,0.7-1.4c0.3-0.7,0.4-1.4,0-2.2c-0.5-0.8-0.5-1-0.3-1.4c-0.2-0.2-0.3-0.5-0.5-0.9l0.7,0.5
	c-0.1,0.2-0.1,0.3-0.2,0.4c0.4,0.7,0.9,0.9,1.8,1.3c0.3,0.1,0.6,0.2,0.9,0.3c0.7,0.2,1.4,0.2,2.1,0l0.3-0.1
	c-0.2,0.5-0.3,1.2-0.3,1.9c0,1.5,0.9,3.5,2.8,5.9c1.7,2.2,2.6,3.9,2.6,4.9c0,0.9-0.9,1.8-3.1,2.6c-0.8,0.3-1.8,0.8-2.4,1.8
	c-0.5,0.8-0.7,1.3-0.6,2.6c0.4,1.5,0,2-1.9,2.8c-0.3,0.1-0.7,0.1-1,0.3l-2.3,0.7l-1,0.5c0.2-0.9,1.1-3.1,1.1-4.1
	c0-2.7,0.5-5.5,0.6-6.1c0-0.2,0.1-1.5,1-2.5l1.2,0.3c0.5-0.7,1-1.4,1.1-2.4l-0.2-5l0.1-1c0-0.3-0.1-0.5-0.3-0.5
	c-0.3-0.1-0.5,0-0.6,0.3c-1.3,2.5-2.6,5.1-4.3,9c-0.3,0.8-1,1.7-1.4,2.5c-0.4,0.7-0.6,1.6-0.9,2.3c-1.1,2.4-2.1,4.2-2.8,5.9
	c-1.2,2.8-1.8,4.7-1.8,5.5c0,0.4,0,0.7,0.1,1c0.2,0.7,0.5,1.3,1,1.6c0.4,0.3,0.9,0.5,1.5,0.6c0.4,0.1,0.9,0.1,1.5,0.1
	c0.3,0,1.1-0.2,1.7-0.2c0.4,0,0.8-0.1,1.3-0.2c0.4-0.1,1.1-0.3,1.5-0.4c1.2-0.3,2.3-0.5,3.4-0.8c1.1-0.4,1.9-1,3-1.5
	c0.8-0.4,1.6-0.7,2.3-1.1c0.6-0.4,0.6-0.5,1.2-0.9c0.2-0.1,1.4-0.9,1.8-1.2c0.8-0.4,1.5-0.6,2-1.1c0.8,0.2,1.5,0.6,2.5,0.9
	c0.7,0.2,1.4,0.2,2.5,0.3l1.6,0.2l1.3,0.1l2.6,0l-2.8,0.7l-1.7,0.4c0,0-0.6,0.2-0.6,0.2c-0.5,0.3-0.8,0.4-1.5,0.6
	c-0.6,0.2-1.3,0.5-1.8,0.7c-1,0.3-1.6,0.4-1.9,0.4L52,74.9c-0.4,0-0.7-0.1-1.1-0.1c-0.4,0.1-1.1,0.4-1.4,0.6
	c-0.3,0.3-0.8,0.5-1.3,0.9c0,0-1,0.6-1.3,0.7c-0.3,0.1-0.6,0.3-0.6,0.3s-0.8,0.5-1,0.5c-0.3,0.1-0.3,0.4-0.2,0.6
	c0.1,0.2,0.2,0.3,0.5,0.3h0c1.4-0.1,2.3-0.1,3.7-0.5c0.4-0.1,0.8,0,1.3-0.1c1,0,1.9,0.1,2.7,0.1c0.4,0,0.8,0,1.1,0
	c1.5-0.1,2.4-0.2,2.9-0.2l1.8,0l1.6-0.2l3.6-0.4c0.9-0.1,2.3-0.4,3-0.6c0.6-0.2,1.1-0.3,1.6-0.6c0.5-0.3,0.9-0.7,1.3-1
	c0.6-0.3,0.7-1.1,0.7-2C70.9,72.9,70.9,72.5,70.7,72z M55.2,53.2c0,0,0.2,0.1,0.4,0.3c0,0.1,0,0.1,0,0.2c0.1,0.3,0.1,0.7,0.1,1
	c-0.5-0.4-1.6-0.7-1.6-0.8C54,53.7,55.1,53.1,55.2,53.2z M55.8,56.8c-0.5-0.4-1.1-0.9-1.1-1c-0.1-0.2,0.5-0.6,0.6-0.5
	c0,0,0.2,0.1,0.3,0.3C55.7,55.7,55.7,56.2,55.8,56.8z M55.9,61.1c-0.7-0.6-2.2-1.8-2.3-1.9c0-0.1,0.4-0.6,0.6-0.6
	c0.2,0,1,0.6,1.9,1.3C56,60.4,56,60.8,55.9,61.1z M55.9,58.9c-0.7-0.4-1-0.8-1.1-0.9c-0.1-0.2,0.1-1,0.3-1c0.1,0,0.5,0.3,0.9,0.6
	c0.1,0.5,0.2,1.1,0.2,1.2C56.2,58.8,55.9,58.8,55.9,58.9z M63.9,76.9c-0.2-0.3-0.6-0.3-0.8-0.6c-0.1-0.2,0.4-0.7,0.6-0.7
	s0.9,1.2,0.9,1.2L63.9,76.9z M66.2,76.7c0-0.2-1-1.2-1.1-1.5s0.5-0.7,0.6-0.6c0.2,0,1.1,1.7,1.3,1.8L66.2,76.7z M68,75.9
	c0.1-0.1-0.9-1-1.1-1.2l0-0.3c-0.1-0.2,0.2-0.7,0.3-0.6c0.1,0.1,1.3,1.9,1.3,1.9L68,75.9z M69.4,75.5c0.1-0.2-0.7-1.2-0.8-1.4
	c-0.1-0.2,0.3-0.8,0.5-0.7c0.2,0,0.7,1.4,0.8,1.5L69.4,75.5z"/>
</svg>
