<?xml version="1.0" encoding="utf-8"?>
<svg version="1.1" id="Layer_1" xmlns="http://www.w3.org/2000/svg" xmlns:xlink="http://www.w3.org/1999/xlink" x="0px" y="0px"
	 viewBox="0 0 100 100" style="enable-background:new 0 0 100 100;" xml:space="preserve">
<path d="M43,59.4c2.5,0.2,3.3-0.9,3.3-2.7s-1.5-2.6-3.3-2.6c0,0-1-0.5-2.8-0.5c-3,0-4.8,0.5-6.6,0.5c-2.9,0-2.2,0-2.2,0
	c-1.8,0-3.5,0.9-3.3,2.6s1.5,2.7,3.3,2.7h5.1c0,0-0.5,2.3-0.5,3.9c0,1.7,0.2,4,0.2,4L29.6,71c-0.4,0.2-0.6,0.7-0.4,1.1
	c0.2,0.4,0.7,0.6,1.1,0.4l7.1-3.2l7.1,3.2c0.4,0.2,0.9,0,1.1-0.4s0-0.9-0.4-1.1l-6.6-4l-0.3-7.6h2.8C40.9,59.4,40.5,59.2,43,59.4z
	 M81.9,61.4c-0.1-0.8-0.2-3.2-0.1-7.4c0.1-4.3,0.1-7.4,0.1-7.4c0-0.4-0.3-0.7-0.7-0.7l-6.3,0c0-0.2,0.1-0.4,0.1-0.5
	c0-0.4-0.1-1.2-0.3-1.6c-0.2-0.3-0.4-0.3-0.7-0.6c-0.2-0.2-0.5-0.3-0.7-0.4c0,0,0.2-3.8,0-5.3c-0.2-1.5,0-2.8,0-2.8l0.1-2.1
	c0-0.5,0.1-1.3-0.9-1.3c0,0-2.2-0.1-4.5-0.1C65.8,31,63,31,62,31c-2,0-5.5,0.2-5.5,0.2h-1.4c-0.5,0-1.2,0-1.1,1.3s0.3,2.9,0.3,2.9
	s-0.2,1.9,0,3.6s0,3.8,0,3.8c-0.4,0.1-0.7,0-1,0.4c-0.4,0.4-0.6,1.1-0.6,1.6c0,0.1-0.1,0.7-0.1,0.8c0,0,0,0.1,0,0.1c0,0,0,0,0,0.1
	l-4.1,0c0-0.1,0-0.3,0.1-0.4c0-1-0.7-2.4-1.6-2.6c0,0,0.2-3.8,0-5.3c-0.2-1.5,0-2.8,0-2.8l0.1-2.1c0-0.5,0.1-1.3-0.9-1.3
	c0,0-2.2-0.1-4.5-0.1c-2.2-0.1-5-0.1-6-0.1c-2,0-5.5,0.2-5.5,0.2h-1.4c-0.5,0-1.2,0-1.1,1.3c0.1,1.2,0.3,2.9,0.3,2.9s-0.2,1.9,0,3.6
	c0.2,1.6,0,3.8,0,3.8c-1,0.2-1.7,1.5-1.7,2.5c0,0.1,0,0.2,0,0.3c0,0,0,0.1,0,0.1l-6.3-0.1c-1.1-0.4-1.9,1.2-1.9,1.9l0.2,1.7v3.8
	c0,0-0.1,3.7,0,5.1c0.1,1.4,0,3.9,0,3.9V67c0,0,0,0.7,0,1.6s0.1,1.7,0.1,1.7c0,0.5,0.3,0.8,0.8,0.8c0.2,0,0.8,0.1,1,0
	c0.3-0.2,0.8-0.1,0.8-0.4l0.1-2.5l-0.2-2.7V62l0.2-9.6l-0.2-2l0.5-1.4l2.2,0.1l6.5-0.2c0,0,9.2,0,11.2,0.2c2,0.3,36.3-0.2,37,0.2
	c0.7,0.4,1.1,0.4,1.1,0.4L79.3,52v1.9c0,0-0.1,7.3,0,8.3c0.1,0.5,0.2,0.9,0.2,3.3c0,2.5,0,4.9,0,4.9c0,0.3,0.4,0.5,0.8,0.7
	c0.2,0.1,0.3,0.1,0.5,0.1c0.5,0,1.2-0.4,1.2-0.8v-3.2C81.9,67.2,82.1,63,81.9,61.4z M44.1,33.8c0.1,0.1,1.7,1.9,1.7,2.1
	s-0.4,0.6-0.4,0.6s-2-2.2-2-2.3C43.5,34.2,44.1,33.8,44.1,33.8z M43.1,36.1c0.2-0.1,2.1,2.1,2,2.4c-0.2,0.3-0.3,0.5-0.4,0.5
	c-0.1-0.1-2.2-2.3-2-2.4C42.8,36.3,43,36,43.1,36.1z M42.4,38.8c0.2-0.1,0.4-0.2,0.7-0.2c0,0.1,1.4,1.9,1.2,2
	c-0.2,0.2-0.4,0.5-0.5,0.4C43.5,40.9,42.2,38.9,42.4,38.8z M42.6,40.9c0.2,0.1,0.8,0.9,0.7,1.1s-0.4,0.6-0.5,0.5
	c-0.1-0.1-0.7-0.8-0.7-1.1C42.1,41.2,42.6,40.9,42.6,40.9z M46.7,45.8H28c-0.2,0-0.4-0.3-0.3-0.5c0-0.2,0.3-0.9,0.5-0.8h18.3
	c0.2,0,0.5,0.6,0.5,0.8C47,45.5,46.9,45.7,46.7,45.8z M70.6,33.8c0.1,0.1,1.7,1.9,1.7,2.1s-0.4,0.6-0.4,0.6s-2-2.2-2-2.3
	C69.9,34.2,70.6,33.8,70.6,33.8z M69.6,36c0.2-0.1,2.1,2.1,2,2.4c-0.2,0.3-0.3,0.5-0.4,0.5c-0.1-0.1-2.2-2.3-2-2.4
	C69.2,36.3,69.5,36,69.6,36z M68.8,38.7c0.2-0.1,0.4-0.2,0.7-0.2c0,0.1,1.4,1.9,1.2,2c-0.2,0.2-0.4,0.5-0.5,0.4
	C70,40.9,68.6,38.8,68.8,38.7z M69.1,40.9c0.2,0.1,0.8,0.9,0.7,1.1c-0.1,0.3-0.4,0.6-0.5,0.5c-0.1-0.1-0.7-0.8-0.7-1.1
	C68.6,41.2,69,40.8,69.1,40.9z M73.1,45.7H54.5c-0.2,0-0.4-0.3-0.3-0.5c0-0.2,0.3-0.9,0.5-0.8h18.3c0.2,0,0.5,0.6,0.5,0.8
	C73.5,45.5,73.3,45.7,73.1,45.7z M70,59.4c2.5,0.2,3.3-0.9,3.3-2.7c0-0.8-0.5-1.7-0.8-1.9c-0.4-0.2-1.5-0.7-2.5-0.7
	c0,0-1.5-0.3-3.3-0.3c-3,0-4.3,0.3-6.1,0.3c-2.9,0-2.2,0-2.2,0c-1.8,0-3.5,0.9-3.3,2.6s1.5,2.7,3.3,2.7h5.1c0,0-0.5,2.3-0.5,3.9
	c0,1.7,0.2,4,0.2,4L56.6,71c-0.4,0.2-0.6,0.7-0.4,1.1c0.2,0.4,0.7,0.6,1.1,0.4l7.1-3.2l7.1,3.2c0.4,0.2,0.9,0,1.1-0.4s0-0.9-0.4-1.1
	l-6.6-4l-0.3-7.6H68C68,59.4,67.6,59.2,70,59.4z"/>
</svg>
