<?xml version="1.0" encoding="utf-8"?>
<svg version="1.1" id="Layer_1" xmlns="http://www.w3.org/2000/svg" xmlns:xlink="http://www.w3.org/1999/xlink" x="0px" y="0px"
	 viewBox="0 0 100 100" style="enable-background:new 0 0 100 100;" xml:space="preserve">
<path class="st1" d="M71.4,43.7c-0.4-0.4-1.5-2.2-1.8-2.5c-0.1-0.1,0-0.1-0.2-0.3c-0.2-0.3-0.5-0.5-0.8-0.8
	c-0.2-0.3-0.4-0.6-0.6-0.9c-0.6-0.4-2.7-1.9-3.2-2.4c-0.4-0.1-1.7-0.7-2-0.9c-0.7-0.2-4.6-1.1-5.9-1.2c-2.7,0.2-3.5-0.2-5.6,0.1
	c-2.1,0.3-5.8,1.3-6.4,1.4c-1.1,0.4-2,0.3-3.5,0.3c-0.4-0.3-1.4-0.7-1.7-1.1c-0.6-0.2-0.9-0.7-1.5-0.9c-0.7-0.9-3.5-4.5-4.1-5.6
	c-0.3-0.5-1.5-2.6-2.4-2.6c-0.2,0.1-0.4,0.2-0.4,0.5c-0.5,0.2-0.5,0.8-0.9,1.1c-0.9,4-1.6,8.3-1.5,13.4c0.3,4.7,0.2,8.1,3.6,11.7
	c1.7,3.2,2.8,6.4,5.4,8.7c2.6,2.3,4.9,3.9,9.3,4.4c0.9,0,3.6,0.5,4.5,0.5c1.7-0.6,2.3-1.3,4.1-1.8c0.4-0.3,1.7-0.4,2.3-0.5
	c0-0.1,0.5-0.3,1.3-0.7c0.4,1.8,0.6,3.8,0.9,5.7c0.3,0.3,0.2,1.1,0.6,1.3c0.2,0.4,0.3,1,0.7,1.1c0.1,0.6,0.7,0.5,0.8,1
	c0.4,0.2,1,0.3,1.4,0.5c1.5-0.4,2.3-1.4,3-2.5c-1.1-0.3-1.4-1.1-2-2.1c-1.3-2.4-1.6-6.1-2.7-8.8c-0.6-0.9-1.1-1.9-1.7-2.7
	c-0.2-0.5-0.6-0.8-0.9-1.3c-0.3-0.4-2.3-3.1-6-4.4c-0.7-0.5-1.8-0.7-2.8-1c-1-0.1-2.1-0.6-3.1-0.2C47.3,50,47,49.6,47,49
	c0,0,1.1-0.6,2.4-0.8s3.2-0.1,3.5-0.1l0.1,0c0,0,2.4,0.7,3,1.2c1.4,0.5,2.4,1.4,3.4,2.3c0.4,0.4,0.8,0.7,1.2,1.1l0.2,0.2l0.1,0.3
	c0.1,0.2,0.2,0.4,0.4,0.6c0.1,0.1,0.3,0.3,0.4,0.5l0.1,0.1l0,0.1c0.1,0.2,0.2,0.3,0.3,0.5c0.2,0.2,0.3,0.5,0.5,0.8
	c0.4,0.6,0.7,1.2,1,1.8c0.2,0.4,0.4,0.7,0.6,1l0.1,0.1l0,0.1c0.2,0.5,0.3,1.1,0.5,1.7c0.6-0.5,1.2-1.1,1.6-1.7
	c0.7-1,1.8-1.4,2.3-2.7c1.2-2.2,2.9-6.3,2.9-7.4C72.5,46.2,71.5,44.4,71.4,43.7z M67.1,43.3c0.1,0,1.4,0.2,2.6,0.4l-0.1,0.1
	c0,0,0.8,0.5,0.1,0.8c-0.7,0.3-2.4-0.3-2.5-0.3C67,44.1,67,43.4,67.1,43.3z M66.9,55.6c-0.8-0.5-1.8-1.1-1.8-1.1
	c0-0.1,0.3-0.7,0.5-0.7c0.1-0.1,1.2,0.6,2.2,1.2C67.5,55.1,67.3,55.3,66.9,55.6z M68.4,53.4c-1.1-0.6-2.6-1.2-2.7-1.3
	c-0.2-0.2,0.1-1.1,0.3-1.2l2.7,1.3C68.6,52.7,68.5,53,68.4,53.4z M68.9,50.3c-0.6,0-2.2-0.9-2.4-1c-0.2-0.2,0-0.9,0.1-1
	c0.2-0.1,2.3,1,2.7,1.2C69.8,49.8,69.5,50.3,68.9,50.3z M70,47.7c-1.3-0.5-2.9-1.1-3.1-1.3c-0.3-0.2,0-1,0.2-1
	c0.1,0,1.6,0.6,2.8,1.1C70.6,47,70,47.3,70,47.7z"/>
</svg>
