<?xml version="1.0" encoding="utf-8"?>
<!-- Generator: Adobe Illustrator 23.1.1, SVG Export Plug-In . SVG Version: 6.00 Build 0)  -->
<svg version="1.1" id="Layer_1" xmlns="http://www.w3.org/2000/svg" xmlns:xlink="http://www.w3.org/1999/xlink" x="0px" y="0px"
	 viewBox="0 0 100 98.8" style="enable-background:new 0 0 100 98.8;" xml:space="preserve">
<style type="text/css">
	.st0{fill:#83C7BD;}
</style>
<g>
	<path class="st0" d="M99.7,43.5C96.9,24.2,83.3,8.3,64.8,2.4c-5.7-1.8-20.5-5.2-36.3,2.2C12.5,12.3,1.3,28.3,0.1,45.5
		c-1.7,24.1,16,39.2,19.5,42c9.1,6.9,20.1,10.8,31.4,11.3c0.7,0,1.5,0,2.2,0c11.1,0.2,22-3.7,30.5-10.9
		C103.3,71.1,99.8,44.6,99.7,43.5z M29.2,6.1c15.2-7.2,29.6-3.9,35.1-2.2c4.6,1.5,9.1,3.7,13.1,6.5c-1.8-0.9-3.7-1.7-5.6-2.5
		c-2.7-1-24.1-8-43.7-1.2C28.5,6.5,28.9,6.3,29.2,6.1z M1.7,45.6C2.5,36.1,6.1,27,12.1,19.6C7.6,27,4.5,35.2,3,43.8
		c-1.1,10.9,1.5,21.9,7.3,31.3C4.1,66.5,1,56.1,1.7,45.6z M82.7,86.7C75,93.4,63.5,97.6,51.1,97.3c4.5,0,8.9-0.8,13.1-2.2
		c22.1-7.3,34.6-30.5,32.6-55.3c-0.1-1.3-0.3-2.5-0.4-3.8c0.8,2.5,1.3,5,1.7,7.6C98.2,44.8,101.6,70.5,82.7,86.7L82.7,86.7z"/>
	<path d="M82,56c0-2.2-0.1-5.5-0.2-8c0-2.3,0.2-4.6,0.2-6.6c0-1.5-0.1-2.4-1.3-2.5l-0.5-0.1h-0.4c-1.5,0-2.4,0.1-4,0.2
		c-3.5,0.1-7.3-0.3-10.9-0.3c-2.5,0-5.1,0.2-7.5,0.2h-2.5c0.1-1.7-0.2-3.3-0.8-4.9c-0.5-0.8-1.2-1.6-2-2.1c-0.7-0.5-1.5-0.8-2.4-1
		c-1.2-0.3-2.5-0.5-3.8-0.4c-0.8,0-1,2-0.2,2h0.7c0.7-0.1,1.4-0.1,2.1,0c0.4,0.1,1.9,0.8,2.3,0.9c1.5,0.6,1,1.5,1.5,2.9
		c0.4,1.1,0.5,2.3,0.4,3.4c0,2,0.3,4,0.3,6.1c0,2.8-0.2,5.4-0.2,8.2c0,1,0.1,2,0.2,3c-1.7,0-3.4,0.1-5.4,0.1h-3.3l1.1-2.6l0.4-1H46
		c0.5,0,1.1-0.2,1.5-0.5c0.4-0.5,0.3-0.9,0.1-0.9c-1-0.1-2-0.1-3-0.1c-0.2,0-0.5,0.1-0.7,0.1c-0.2,0-0.3,0.3-0.3,0.3
		c0,0-0.7,0.8-0.5,0.8c0.5,0,0.9,0,1.4,0.1l-0.9,2.3c-1.3-3.2-2.6-6.2-3.7-9c-0.8-2.1-1.3-3.7-2.3-5.9c0.9-0.1,2-0.2,2.8-0.3
		c0.6-0.1,0.7-0.8,0.4-1.2c-0.2-0.4-0.8-1.3-1.5-1.2c-0.4,0-1.3,0.1-1.7,0.2H36c-1,0-2,0-3-0.1c-0.5,0-1,0.9-0.8,1.5
		c0.2,0.5,0.2,1.1,0.8,1.1l0.7,0.2c0.6,0,1.3,0,1.9-0.1c0.8,2.2,1.7,4.3,2.5,6.4c-1.2,1.2-2.1,2.3-3.3,3.5l-0.3,0.3
		c-2-1.5-4.4-2.3-6.9-2.2c-2.8,0-5.5,1.1-7.4,3.1c-1.6,1.8-2.3,4.1-2.2,6.5c0,5.5,4.5,10,10,10c2.3,0,4.5-0.9,6.3-2.4
		c2.1-1.6,3.4-4,3.7-6.6h4c-0.4,1-0.8,2-1.2,3l-0.4,0.9h-0.7c-0.2,0-0.4,0.2-0.5,0.2c-0.2,0-0.5,0.3-0.7,0.5c-0.1,0.2-0.3,0.6,0,0.6
		l0.1,0.2c1.1,0,1.3,0.3,2.5,0.3c0.2,0,0.8-0.1,0.9-0.1c0.5-0.1,0.9-0.4,1.2-0.7c0-0.1,0-0.8-0.3-0.8s-0.8,0-1.2-0.1
		c0.5-1.3,1.1-2.7,1.6-4h3.2c4.2,0,8.7-0.2,12.8-0.2v0.4c0,3.8,0.8,5.4,3.3,7c1.3,0.8,3.3,2,5,2c4.3-0.6,6.8-2.1,8.1-4.6
		c1.2-2.2,1.2-2.6,1.2-4.4v-0.5c0.5-0.1,1-0.1,1.5-0.1c0.8,0,1.9,0.3,2.6-0.1C82.3,58.1,82,57.2,82,56z M28,66.2
		c-4.3-0.1-7.7-3.6-7.9-7.9c-0.1-1.8,0.5-3.5,1.7-4.9c1.4-1.8,3.6-2.8,5.8-2.7c1.9,0.1,3.7,0.7,5.2,1.7L29,56.3
		c-0.3-0.1-0.6-0.1-0.9-0.1c-1.2,0-2.1,1-2.2,2.1c-0.1,1.1,0.7,2.1,1.8,2.2c0.1,0,0.2,0,0.3,0c0.9,0,1.7-0.5,2-1.3
		c1.8,0.1,3.6,0.2,5.4,0.2C34.7,63.8,32.1,66.2,28,66.2z M28.9,58.1L28.9,58.1c0,0.5-0.3,1.2-0.9,1.2c-0.5,0-0.9-0.3-0.9-0.8
		c0-0.6,0.4-1,0.9-1.1C28.6,57.3,28.9,57.5,28.9,58.1z M30,57.1L30,57.1c0.7-0.8,1.5-1.4,2-2c0.6-0.6,1.2-1.2,1.9-1.7
		c1,1,1.5,2.4,1.6,3.8C33.7,57.2,31.8,57.2,30,57.1z M37.9,57.1L37.9,57.1c-0.3-1.9-1.1-3.6-2.5-5c0.3-0.3,0.6-0.6,0.8-0.9
		c0.7-0.8,1.5-1.6,2.3-2.4c1.2,2.8,2.3,5.5,3.5,8.3C40.7,57,39.2,57,37.9,57.1z M73.4,64.5L73.4,64.5c-1.5,1.2-3.3,1.8-5.2,1.9
		c-3.8,0-6.7-2.1-6.7-5.9c0-2,0.7-4.8,2.1-6c1.4-1,3-1.5,4.7-1.3c3.8,0,6.8,2.7,6.8,6.4C75.2,61.6,74.9,63.2,73.4,64.5z M77.8,43.7
		c0.2,0.1,1.7,2.1,1.7,2.1l0.1,1.1l0.1,0.2c-0.1-0.2-2.1-3-2.1-3S77.6,43.6,77.8,43.7z M77.5,45.8c0.2,0,2.1,2.9,2.2,3v1
		c-0.7-1.1-1.5-2.2-2.4-3.2C77.2,46.5,77.4,45.9,77.5,45.8z M79.5,57.2c-0.9-1.2-1.9-2.3-2.9-3.4c-0.1-0.3,0-0.6,0.2-0.8
		c0.1,0,2.8,3.4,2.8,3.4L79.5,57.2z M79.6,54.9c0-0.1-2.6-2.9-2.8-3.2c-0.1-0.3,0.2-0.9,0.3-0.8c0.1,0.1,2.4,2.9,2.6,2.9L79.6,54.9z
		 M77.4,49.3c-0.1-0.3,0-0.6,0.2-0.8c0.1,0.1,2.2,2.4,2.2,2.4l0.1,1.2C79.9,52,77.5,49.5,77.4,49.3z M68.2,57.4
		c-1.2,0-2.1,0.9-2.2,2.1c0,0,0,0,0,0.1c-0.1,1.1,0.7,2.1,1.8,2.1c0.1,0,0.2,0,0.3,0c1.1,0.1,2.1-0.8,2.2-2c0-0.1,0-0.1,0-0.2
		C70.5,58.3,69.9,57.4,68.2,57.4z M68.2,60.5c-0.5,0-0.9-0.7-0.9-1.2c0-0.5,0.4-0.7,1-0.7c0.6,0,1,0.4,1,1
		C69.2,60.3,68.7,60.5,68.2,60.5z"/>
</g>
</svg>
