<?xml version="1.0" encoding="utf-8"?>
<!-- Generator: Adobe Illustrator 24.3.0, SVG Export Plug-In . SVG Version: 6.00 Build 0)  -->
<svg version="1.1" id="Layer_1" xmlns="http://www.w3.org/2000/svg" xmlns:xlink="http://www.w3.org/1999/xlink" x="0px" y="0px"
	 viewBox="0 0 100 100" style="enable-background:new 0 0 100 100;" xml:space="preserve">
<style type="text/css">
	.st0{fill:#FFFFFF;}
</style>
<path class="st0" d="M99.7,44C97,25,83.4,8.9,64.8,3c-5.7-1.8-20.5-5.2-36.3,2.3C12.5,12.9,1.3,28.9,0.1,46.1
	c-1.7,24.1,16,39.2,19.5,41.9c8.6,6.8,20.1,10.9,31.4,11.4c0.7,0,1.5,0,2.2,0c8.6,0,20.2-2.1,30.5-10.9
	C103.3,71.7,99.8,45.2,99.7,44z M29.2,6.7c15.2-7.2,29.6-3.9,35.1-2.2C69,6,73.4,8.2,77.4,10.9c-1.9-1-3.8-1.8-5.6-2.5
	c-2.7-1-24.1-8-43.7-1.2C28.5,7.1,28.9,6.8,29.2,6.7z M1.7,46.2c0.7-9.4,4.4-18.5,10.4-25.9c-6.4,9.9-8.9,22-9.2,24.1
	c-1.1,10.7,1.5,21.9,7.3,31.3C5.4,68.7,0.8,58.7,1.7,46.2z M82.7,87.3C75,94,63.5,98.2,51.1,97.9c4.1,0,8.5-0.7,13.1-2.2
	c22.1-7.3,34.6-30.5,32.6-55.3c-0.1-1.3-0.3-2.5-0.5-3.7c0.8,2.5,1.3,5,1.7,7.6C98.2,45.4,101.6,71.1,82.7,87.3z"/>
<path d="M45.7,45.8c-0.5,0.3-1.2,0.4-1.4,1c0.5,0.6,0.2,2.1,1,2.4c0.6-0.9,1.8-1.1,1.9-2.4C47,46.2,46.2,46.1,45.7,45.8z M77.1,51.8
	c-0.6-0.4-1.1-1.1-1.9-1.4c-1-1.2-2.6-1.7-3.6-2.9c0.3-0.4,0.5-0.7,0.5-1.4c1-0.6,1.8-1.4,2.9-1.9c0.6-1.2,1.9-1.8,2.2-3.3
	c-0.4-0.1-0.2-0.8-0.7-0.9c-0.4-0.2-0.7-0.4-1-0.5c0.2-1-2.1-0.2-2.3-0.8h-2.2c-0.6-0.1-1.7,0.2-2.1-0.2c0.3-1.4,0.9-3.3,1.2-4.8
	c-0.1-1.8,1-3.6,0.4-4.8c-1.1-0.3-2,0.3-2.9,0.7c-1.1,0.1-1.8,0.6-2.9,0.7c-0.9,0.5-1.6,1.2-2.8,1.4l0,0c-0.5-2.2-1.4-4.1-2.1-6.2
	c0.1-0.8,0.5-1.9-0.2-2.4c-0.1,0-0.3,0-0.3-0.2c-1.6,0.3-2.3,1.5-3.6,2.1c-0.3,0.6-1,0.9-1.6,1.4c-0.6,0.4-1,0.9-1.7,1.2
	c-1.2-0.8-1.8-2.1-2.8-3.1c-0.3-0.7-0.9-1.1-1.2-1.7c-0.7-0.3-0.9-1.2-1.7-1.4h-0.3c-0.7,0.8-0.7,2.2-1.4,2.9
	c0.1,1.2-0.5,1.6-0.3,2.8c-0.5,0.6-0.4,1.8-0.9,2.4c-0.4-0.5-1.1-0.6-1.6-1c-0.5,0.1-0.7-0.2-1-0.3c-0.3-0.2-0.9-0.1-1-0.3
	c-1.8,0-2.3-1.4-4.3-1.2c-0.9,0.9-0.6,3-1,4.3c0,1.6-0.2,3.2-0.3,4.7c-0.5-0.2-0.9-0.5-1.6-0.5c-1.3,0-2.3-0.3-3.8-0.2
	c-0.5,0.2-1.3,0.2-2.1,0.2c-0.9,0.4-2.3,0.3-2.4,1.6c0,0-0.2,0-0.2,0c0.2,1.4,1.5,2.4,1.9,3.8c0.7,1.3,1.5,2.4,1.7,4.1
	c-2.2,0.4-3.8,1.5-5.7,2.2c0,0.5-0.4,0.6-0.7,0.9c0.2,1.1-0.6,1.6-0.2,2.4c0.2,0.6,1,0.5,1.4,0.9c1.1,1.2,2.3,2.3,3.3,3.6
	c-1.2,1.3-2.4,2.5-2.9,4.5c0.1,0.6,0.6,0.7,0.9,1.2c-0.5,0-0.6,0.4-0.7,0.9c0.5,0.6,1.6,0.6,2.8,0.5c1.4,0.5,4.1-0.3,5.6,0.1
	c-0.3,2-0.6,4.3-0.6,6.4c0.2,0.4,0.4,0.8,0.7,1c-0.1,0.7,0.1,1,0.3,1.4c2.2,0.6,3.1-1.1,5.2-1.2c0.1,2.3,1,3.7,1.4,5.7
	c0.7,0.6,1,1.7,2.2,1.7c0.4,0,0.7-0.3,0.7-0.7c0.5,0,0.6-0.4,1-0.5c0.5-0.5,1.4-0.6,1.7-1.2c1.3-0.7,2.2-1.8,3.6-2.4
	c0.3,0.7,1,1.1,1.4,1.6c0.1,0.2,0.2,0.5,0.3,0.7c0.2,0.3,0.7,0.7,0.9,0.9c0.1,0,0,0.3,0,0.3c0.3,0.4,0.9,0.6,0.9,1.2
	c1.1,0.5,1.5,1.7,2.9,1.9c0.8-0.2,1.1-1,1.4-1.7c0.4-0.2,0.9-0.3,0.9-0.9c0.8-1.2,0.9-3,1.7-4.1c1.8,1.3,3.3,2.8,6.2,2.9
	c0.6-0.8,0.6-2,1-2.9c0.1-2.4-0.1-4.5-0.3-6.6c0.7,0.5,1.6,0,2.2-0.2c0.8,0.4,2.2,0.1,3.3,0.2c1.3,0.2,2.1-0.2,2.6-0.9
	c0-2.1-1.5-2.8-2.1-4.3c-0.5-0.5-0.6-1.5-1.2-1.9c-0.2-0.5-0.3-1-0.7-1.3l0.5-0.3c2.4,0.2,3.4-0.8,5.3-1c0.3-0.3,0.7-0.4,1-0.7
	c0.7-0.3,1.8-0.1,1.9-1c0-0.1,0-0.2,0.2-0.2C78.3,52.8,77.8,52.3,77.1,51.8z M41.3,46.6c-1.8,0.7-3.5,1.5-5.7,1.7
	c0,0.8,0.3,1.3,0.5,1.9c1.2-0.3,4.2-1.3,4.7,0.3c0.2,1.2-0.9,1.1-1.6,1.4c-1,0-1.6,0.3-2.6,0.3c-0.1,1.8,1,3.9-0.3,5
	c-2.1,0-1.8-2.4-1.9-4.3c-0.4-1.2-0.3-2.8-0.7-4c0-1-0.1-2.3,0.2-3.1c0.4-0.4,0.9,0,1.2,0.2c1.6-0.8,3.2-1.6,5.5-1.7
	c0.2,0.3,0.3,0.5,0.7,0.5V46.6z M51,55.1c-0.9,0.1-1-0.6-1.6-0.9c-0.5-0.3-0.8-0.7-1.2-1c-0.8-0.7-1.7-1.4-2.8-1.9
	c-0.4,0.6,0.1,1.7,0.2,2.4c-0.1,1,0.3,2.3-0.5,2.6c-1.6,0.2-1.3-1.4-1.4-2.8c-0.2-1.6-0.5-3.1-0.5-4.8c-0.1-0.1-0.2-0.3-0.2-0.5
	c0.1-0.7-0.7-0.4-0.7-1c-0.1-0.8,0.6-0.8,0.5-1.6c0.8-0.4,1.5-0.9,2.4-1.2h2.1c0.8,0.7,1.7,1.1,2.1,2.2c0.1,1.6-0.7,2.2-1.4,3.1
	c0.7,0.8,1.1,1.4,2.1,1.8c0.5,0.8,1.9,1,2.2,1.9C52.3,54.4,51.9,55,51,55.1z M54.2,55.3c-0.2-0.4-0.5-0.6-0.9-0.9
	c-0.3-2.9-0.4-5.9-0.3-9.1c0.2,0,0.1-0.2,0.2-0.3c0.5-0.6,2.1-1.1,3.3-1c0.7,0.4,1.5,1.3,0.9,1.6c-0.5,0.6-1.5,0.9-2.6,0.9
	c-0.1,0.6,0.2,1.4,0.3,1.8c0,0.4,0.4,0.3,0.7,0.6c0.3,0,0.8-0.2,1.1-0.2c0.6,0,0.6,0,1.1,0c0.1,0.6,0.3,0.7,0.2,1.5
	c-0.6,0.5-1.6,1-2.8,0.9c0,0.6,0.3,1.3,0.3,1.9c1,0.1,2.3-0.2,2.8,0.3c0,0.2,0,0.3,0.2,0.3C58.6,55.7,56.2,55.3,54.2,55.3z
	 M65.5,54.8c-0.8,0.6-2.3,0.5-3.8,0.4c-1.2-1.3-0.4-4.3-0.9-6.1c0.1-1,0.1-1.9,0-2.8c0.1-0.7-0.9-0.6-0.6-1.6
	c0.5-1.6,3.9-1.5,4.7-0.2c0.1,0.6-0.2,0.8-0.3,1.2c-0.5,0.4-1.4,0.3-2.3,0.2c-0.2,0.8,0.2,1.1,0,1.9c1.4,0,2.5,0.2,2.5,1.4
	c-0.2,1-1.5,0.7-2.3,1c0.1,0.9,0.1,1.8,0.1,2.8c1,0.1,2,0.1,2.7,0.4C65.5,53.8,65.6,54.2,65.5,54.8z"/>
</svg>
