<?xml version="1.0" encoding="utf-8"?>
<!-- Generator: Adobe Illustrator 18.1.1, SVG Export Plug-In . SVG Version: 6.00 Build 0)  -->
<svg version="1.1" id="Layer_1" xmlns="http://www.w3.org/2000/svg" xmlns:xlink="http://www.w3.org/1999/xlink" x="0px" y="0px"
	 width="31.3px" height="32px" viewBox="1582.6 768 31.3 32" enable-background="new 1582.6 768 31.3 32" xml:space="preserve">
<g>
	<g>
		<path fill="#ba564d" d="M1590.5,800c-0.3,0-0.5-0.2-0.5-0.4c-0.1-0.3,0.1-0.5,0.4-0.6c0.1,0,0.5-0.1,0.8-0.9
			c0.4-1.1,1.7-2.4,1.7-2.5c0.2-0.2,0.5-0.2,0.7,0c0.2,0.2,0.2,0.5,0,0.7c0,0-1.1,1.1-1.5,2.1c-0.4,1.1-1.1,1.5-1.6,1.6
			C1590.6,800,1590.5,800,1590.5,800z"/>
	</g>
	<g>
		<path fill="#ba564d" d="M1583.1,790.4c-0.1,0-0.3-0.1-0.4-0.2c-0.2-0.2-0.1-0.6,0.1-0.8c0.1-0.1,1.3-0.9,2.3-0.9
			c0.6,0.1,3-0.2,3.9-0.3c0.3,0,0.5,0.3,0.5,0.5c0,0.3-0.2,0.5-0.5,0.5c-0.3,0.1-3.3,0.3-4.1,0.3c-0.5-0.1-1.3,0.4-1.6,0.7
			C1583.3,790.4,1583.2,790.4,1583.1,790.4z"/>
	</g>
	<g>
		<path fill="#ba564d" d="M1587.8,779.8c-0.1,0-0.1,0-0.2-0.1c-0.1,0-1.3-0.7-2.1-1.1c-0.7-0.4-1.8-0.6-1.9-0.6
			c-0.3-0.1-0.5-0.3-0.4-0.6c0.1-0.3,0.3-0.5,0.6-0.5c0.1,0,1.3,0.3,2.2,0.7c0.7,0.4,2,1.1,2,1.1c0.3,0.1,0.3,0.4,0.2,0.7
			C1588.2,779.6,1588,779.8,1587.8,779.8z"/>
	</g>
	<g>
		<path fill="#ba564d" d="M1592.3,773.9c-0.1,0-0.3-0.1-0.4-0.1c-0.2-0.2-2-2.2-2.4-2.9c-0.4-0.8-0.7-2.2-0.7-2.2
			c-0.1-0.3,0.1-0.5,0.4-0.6c0.3-0.1,0.5,0.1,0.6,0.4c0.1,0.3,0.3,1.3,0.6,1.9c0.3,0.5,1.8,2.2,2.3,2.8c0.2,0.2,0.2,0.5-0.1,0.7
			C1592.5,773.8,1592.4,773.9,1592.3,773.9z"/>
	</g>
	<path fill="#ba564d" d="M1593.9,787.4c0,0,3-0.1,3.5,0c0.5,0.1,6.1,0,6.1,0v5.5l10.1-9.1c0.4-0.4,0.5-0.9,0.1-1.3
		c-0.6-0.5-1.8-1.4-2.2-1.7c-1.1-0.7-5.9-4.3-6.6-5.1c-0.7-0.9-1.3-1.3-1.3-1.3v5h-9.2c0,0,0,6.3-0.2,6.7
		C1593.8,786.4,1593.9,787.4,1593.9,787.4z"/>
</g>
</svg>
