<?xml version="1.0" encoding="utf-8"?>
<!-- Generator: Adobe Illustrator 24.3.0, SVG Export Plug-In . SVG Version: 6.00 Build 0)  -->
<svg version="1.1" id="Layer_1" xmlns="http://www.w3.org/2000/svg" xmlns:xlink="http://www.w3.org/1999/xlink" x="0px" y="0px"
	 viewBox="0 0 100 100" style="enable-background:new 0 0 100 100;" xml:space="preserve">
<style type="text/css">
	.st0{fill:#83C7BD;}
</style>
<path class="st0" d="M99.7,44C97,25,83.4,8.9,64.8,3c-5.7-1.8-20.5-5.2-36.3,2.3C12.5,12.9,1.3,28.9,0.1,46.1
	c-1.7,24.1,16,39.2,19.5,41.9c8.6,6.8,20.1,10.9,31.4,11.4c0.7,0,1.5,0,2.2,0c8.6,0,20.2-2.1,30.5-10.9
	C103.3,71.7,99.8,45.2,99.7,44z M29.2,6.7c15.2-7.2,29.6-3.9,35.1-2.2C69,6,73.4,8.2,77.4,10.9c-1.9-1-3.8-1.8-5.6-2.5
	c-2.7-1-24.1-8-43.7-1.2C28.5,7.1,28.9,6.8,29.2,6.7z M1.7,46.2c0.7-9.4,4.4-18.5,10.4-25.9c-6.4,9.9-8.9,22-9.2,24.1
	c-1.1,10.7,1.5,21.9,7.3,31.3C5.4,68.7,0.8,58.7,1.7,46.2z M82.7,87.3C75,94,63.5,98.2,51.1,97.9c4.1,0,8.5-0.7,13.1-2.2
	c22.1-7.3,34.6-30.5,32.6-55.3c-0.1-1.3-0.3-2.5-0.5-3.7c0.8,2.5,1.3,5,1.7,7.6C98.2,45.4,101.6,71.1,82.7,87.3z"/>
<path d="M53,26.5h-5.8v3.2H53V26.5z M47.8,41.6c0.7,0,2.1-0.4,2.8-0.4c2.3,0,4,0.3,6.3,0.5c-0.3-2.4-0.9-4.8-1.7-7.1
	c-0.4-1-0.8-1.9-1.3-2.9c-0.8-0.2-1.6-0.1-2.3-0.4c-1.4-0.5-2.2-0.1-3.4,0.1c-0.6,0.1-1.3,0.2-2,0.3c-1,2-1.8,4-2.3,6.1
	c-0.3,1.2-0.5,2.5-0.7,3.8C44.9,41.6,46.2,41.6,47.8,41.6z M35.1,40c-0.4,1.3-1.5,2.6-1.9,3.9c2.6-0.9,5.3-1.5,8-1.9
	c0.4-3.2,1.2-6.4,2.5-9.4c-1,0.4-2,0.9-2.9,1.4c-1.2,0.7-2.3,1.4-3.2,2.2C36.4,37.4,35.7,38.4,35.1,40z M50.9,16.9h-1.6v8.4h1.6
	V16.9z M43,43.7c-0.2,1.7-0.3,3.4-0.3,5.3c0,1.8,0.1,3.6,0.3,5.3c2.3,0.3,4.7,0.4,7,0.4c2.3,0,4.7-0.1,7-0.4
	c0.2-1.7,0.3-3.4,0.3-5.3c0-1.9-0.1-3.6-0.3-5.3c-2.5-0.3-5-0.4-7.5-0.4C47.4,43.3,45.2,43.4,43,43.7z M59.3,48.9
	c0,1.7-0.1,3.4-0.2,5c2.9-0.4,5.7-1.1,8.3-2.2c0.3-1.8,0.3-3.7,0-5.6c-2.7-1.1-5.5-1.9-8.3-2.2C59.2,45.5,59.3,47.2,59.3,48.9z
	 M66.9,43.9c-0.5-1.7-1.4-2.7-2.1-4.3c-0.7-1.6-2.1-3.1-3.2-4c-1.6-1.4-3.3-2.2-5.2-2.9c1.3,3,2.1,6.2,2.5,9.4
	C61.6,42.3,64.3,43,66.9,43.9z M32.1,65.8c0,0,0.2-0.6,0.2-1.1c0-0.5,0.3-1.5,0.3-1.5l0.1-0.8c0,0-0.8,0.5-1.1,0.6
	c-0.1,0-0.6,0.3-1,0.5c-0.5,0.3-1,0.5-1,0.5s-1.5-0.9-1.9-1c-0.4-0.1-1.1-0.6-1.1-0.6l0.2,1l0.1,1.1l0.3,1.3c0,0,0.1,0.2-0.3,0.6
	c-0.2,0.2-1,0.6-1.1,0.8c-0.3,0.3-0.9,0.9-0.9,0.9s0.7,0.4,1.3,0.3c0.3,0,1,0,1,0l1,0.3c0,0,0.3,0.4,0.4,0.7c0,0.3,0.8,1.6,0.8,1.6
	l0.4,0.8l0.6-1.2c0,0,0.4-0.3,0.4-0.8c0-0.5,0.5-1,0.5-1s0.6-0.1,0.9-0.3c0.4-0.2,1.2-0.2,1.2-0.2l1.2-0.2l-1.2-1.2L32.1,65.8z
	 M56.9,56.1c-0.9,0.1-1.6,0.3-2.5,0.4c-0.7,0-1.6-0.1-2.3-0.1c-0.7,0-1.9-0.1-2.5-0.1c-1.4,0-2.4,0.1-3.8,0
	c-0.8-0.1-1.6-0.1-2.5-0.2c0.4,3.5,1.4,6.8,3,9.9c1.1,0.3,2.5,0.5,3.6,0.6c1.4,0,2.6-0.2,4-0.6c1-1.4,1.2-2.3,1.7-3.7
	c0.5-1.4,0.8-2.9,1.1-4.4C56.8,57.4,56.8,56.6,56.9,56.1z M66.8,54c-1,0.4-2.2,0.4-3.2,0.7c-1.2,0.3-2.3,0.8-3.5,1
	c-0.4,0.1-0.8,0.1-1.2,0.2c-0.2,2-0.4,4.2-1.3,6c-0.5,1.1-0.8,2.3-1.2,3.4c1.7-0.7,2.9-1,4.2-2.3c1.1-1.1,2.9-2.3,3.7-3.4
	c0.5-0.7,0.8-1.6,1.2-2.4C66,56.2,66.5,55.1,66.8,54z M33.3,54c0.4,1.2,0.7,2.2,1.3,3.3c0.6,1.1,1.7,2.1,2.5,3
	c0.7,0.8,1.3,1.6,2.1,2.3c0.8,0.6,1.7,1.4,2.6,1.9c0.7,0.4,1.3,0.5,2,0.8c-1.3-3-2.1-6.2-2.5-9.4C38.6,55.5,35.9,54.9,33.3,54z
	 M29.2,25.5l0.9,1.1c0,0,0.2,0.1,0,0.7c-0.1,0.3-0.6,1.1-0.7,1.3c-0.2,0.5-0.4,1.3-0.4,1.3s0.9,0,1.3-0.3c0.2-0.2,1-0.5,1-0.5
	l1.1-0.2c0,0,0.5,0.2,0.7,0.5c0.2,0.3,1.5,1.1,1.5,1.1l0.7,0.6l0-1.4c0,0,0.2-0.5,0-1s0-1.1,0-1.1s0.5-0.3,0.8-0.7
	c0.2-0.4,1.1-0.7,1.1-0.7l1.1-0.7l-1.7-0.6l-1.8-0.6c0,0-0.1-0.6-0.3-1.1c-0.3-0.5-0.5-1.6-0.5-1.6l-0.2-0.8c0,0-0.5,0.9-0.8,1.1
	c-0.1,0.1-0.4,0.5-0.7,0.9c-0.3,0.5-0.7,1-0.7,1s-1.9-0.2-2.3-0.1c-0.4,0.1-1.3,0-1.3,0l0.6,0.8L29.2,25.5z M77.7,68l-2.6-0.5
	c0,0-0.2-0.9-0.6-1.5s-0.9-2.1-0.9-2.1l-0.5-1.1c0,0-0.6,1.3-0.9,1.6c-0.1,0.1-0.5,0.8-0.9,1.4c-0.4,0.7-0.8,1.5-0.8,1.5
	s-2.7,0.1-3.3,0.3c-0.6,0.2-1.9,0.2-1.9,0.2l1,1.1l1.4,1.6l1.1,1.2c0,0,0.4,0.2,0.1,1.1c-0.1,0.4-0.7,1.6-0.8,1.9
	c-0.1,0.7-0.4,1.9-0.4,1.9s1.2-0.1,1.8-0.6c0.3-0.3,1.3-0.8,1.3-0.8l1.5-0.5c0,0,0.7,0.2,1,0.6c0.3,0.4,2.3,1.4,2.3,1.4l1.1,0.7
	l-0.2-2c0,0,0.2-0.8-0.1-1.4c-0.3-0.6-0.2-1.6-0.2-1.6s0.7-0.6,1-1.1c0.3-0.6,1.4-1.2,1.4-1.2l1.4-1.2L77.7,68z M32.8,46.1
	c-0.3,1.8-0.3,3.7,0,5.6c2.7,1.1,5.5,1.9,8.3,2.2c-0.2-1.6-0.2-3.3-0.2-5c0-1.7,0.1-3.4,0.2-5C38.2,44.3,35.4,45,32.8,46.1z"/>
</svg>
