<?xml version="1.0" encoding="utf-8"?>
<!-- Generator: Adobe Illustrator 23.1.1, SVG Export Plug-In . SVG Version: 6.00 Build 0)  -->
<svg version="1.1" id="Layer_1" xmlns="http://www.w3.org/2000/svg" xmlns:xlink="http://www.w3.org/1999/xlink" x="0px" y="0px"
	 viewBox="0 0 100 98.8" style="enable-background:new 0 0 100 98.8;" xml:space="preserve">
<style type="text/css">
	.st0{fill:#FFFFFF;}
</style>
<path class="st0" d="M99.7,43.5C96.9,24.2,83.3,8.3,64.8,2.4c-5.7-1.8-20.5-5.2-36.3,2.2C12.5,12.3,1.3,28.3,0.1,45.5
	c-1.7,24.1,16,39.2,19.5,42c9.1,6.9,20.1,10.8,31.4,11.3c0.7,0,1.5,0,2.2,0c11.1,0.2,22-3.7,30.5-10.9
	C103.3,71.1,99.8,44.6,99.7,43.5z M29.2,6.1c15.2-7.2,29.6-3.9,35.1-2.2c4.6,1.5,9.1,3.7,13.1,6.5c-1.8-0.9-3.7-1.7-5.6-2.5
	c-2.7-1-24.1-8-43.7-1.2C28.5,6.5,28.9,6.3,29.2,6.1z M1.7,45.6C2.5,36.1,6.1,27,12.1,19.6C7.6,27,4.5,35.2,3,43.8
	c-1.1,10.9,1.5,21.9,7.3,31.3C4.1,66.5,1,56.1,1.7,45.6z M82.7,86.7C75,93.4,63.5,97.6,51.1,97.3c4.5,0,8.9-0.8,13.1-2.2
	c22.1-7.3,34.6-30.5,32.6-55.3c-0.1-1.3-0.3-2.5-0.4-3.8c0.8,2.5,1.3,5,1.7,7.6C98.2,44.8,101.6,70.5,82.7,86.7L82.7,86.7z"/>
<path d="M57.3,68.3c0,0-3-0.1-4,0s-3,0.1-4.1,0.1s-7.8-0.3-7.8-0.3l-0.9,0.3c0,0,0.3,1.4,0.6,2.1s-0.3,2.1-0.3,2.5s1.8,0.4,3.2,0.5
	s4.5-0.1,5.3-0.1s6.7,0.1,7.4,0.1s0.9-0.5,1-0.9c0.3-0.7,0.6-1.5,0.8-2.3C58.7,69.7,57.3,68.3,57.3,68.3z M56.1,73.1
	c-0.4-0.4-0.7-0.8-1-1.2c-0.2-0.7,0.1-0.8,0.2-0.8c0.6,0.6,1.1,1.3,1.6,1.9C57.3,73.5,56.1,73.1,56.1,73.1z M57.4,71.8
	c0,0-1.4-1.6-1.4-1.8c-0.2-0.7,0.1-0.8,0.2-0.8s1.5,1.8,1.5,1.8L57.4,71.8z M56,45.7c-1.4-3.2-2.7-6.4-3.7-9.7
	c0-0.5-1.5-0.5-1.6,0.2c-0.1,3.2-0.1,6.4,0.2,9.5C51,46.8,51,49,51,50.9c0.5,0.1,1,0.2,1.5,0.5c0.7,0.5,0.4,1.5,1.1,3
	s-1.4,2.9-2.6,3.4s-2.3-0.2-3.6-0.9s-1.2-2.8-0.8-4.4c0.3-0.8,1-1.4,1.8-1.7c-0.1-1.5-0.2-3.4-0.2-4.7c0-2.6-0.2-9.7-0.2-10.1
	s-1.3,0-1.3,0s-2.4,9.5-3.7,11.2c-1.2,1.7-2,3.6-2.4,5.7c0,0.7-1.3,3.8-1.3,4.8s1.5,4,1.5,4.8c0.2,1.2,0.5,2.3,0.9,3.5
	c0,0,6-0.4,7.7-0.4s4.9,0.4,4.9,0.4l2.9,0.2c0,0,1.3-5.3,1.5-6.4s1.5-2.8,0.9-3.5S56.9,47.4,56,45.7z M57.4,53.7
	c0.1,0.1,1,0.8,1,0.8l0.4,1.7c-0.4-0.4-1.4-1.5-1.5-1.6h0C57.1,54.3,57.2,54,57.4,53.7L57.4,53.7z M57,65.7c0-0.2-2.2-2.6-2.3-2.9
	c-0.2-0.7,0.1-0.8,0.2-0.8c0.9,0.8,1.6,1.6,2.3,2.6L57,65.7z M57.6,63.2c0-0.2-1.8-1.9-1.9-2.2s0.1-0.9,0.2-0.8
	c0.1,0.4,1.7,2.2,1.8,1.9L57.6,63.2z M58,61c-0.4-0.5-0.8-0.9-1.3-1.3l-0.5-0.5c-0.1-0.2,0.2-0.9,0.3-0.9s1.8,1.7,1.8,1.7L58,61z
	 M58.4,58.9c-0.2-0.3-1.3-1.3-1.5-1.6h-0.2c0-0.4,0.1-0.8,0.3-1.1c0.1,0.1,1.7,1.7,1.7,1.7L58.4,58.9z M76.5,50.2
	c-0.2,0-1.8-0.2-2.1-0.2c-0.2-2.7-0.8-3.4-1.2-6.4c-0.6-1.2-1.5-3.1-2.2-4.3c-1-1.5-2.1-2.9-3.3-4.2c-0.3-0.2-1.7-1.3-2.7-2
	c-0.7-0.6-1.9-1-2.5-1.7c-0.4-0.2-1.1-0.3-1.3-0.7s-1,0-1-0.7c3.5-0.5,7.1-0.7,10.6-0.6c0.7,0.5,0.8,1.5,2,1.4c2.4,0.2,3.1-3,2-4.8
	c-0.7-0.6-1.5-0.8-2.4-0.8c-0.9,0.1-1,1.1-1.8,1.4l-3-0.1c-4.4,0.5-9.5,0.1-13.8,0.7c-0.2-0.6-0.2-1.5-0.7-1.9
	c-1.8-0.2-3.5,0-5.2,0.4c-0.2,0.4-0.8,0.2-0.9,0.7c-0.7-0.1-0.5,0.7-1.1,0.7L39.5,27c-2.8,0.8-7,0.1-10.3,0.5
	c-0.9-0.1-0.8-1.3-1.9-1.3c-0.6-0.1-1.2-0.1-1.7,0c-1.6,1.7-0.8,6.4,2.1,5.8c0.5-0.1,0.9-0.3,1.2-0.7c0.4,0.1,0.2-0.5,0.5-0.5
	c0-0.3-0.1-0.9,0.4-0.7c1,0.2,2.1,0.3,3.2,0.2c1.7-0.2,4.4,0.1,6.3-0.4c-0.7,0.7-4,2.6-4.7,3.2c-2.5,2.3-5,5.2-6.2,8.1
	c-1.5,3.2-2.2,6.7-2.2,10.3c-0.9-0.1-1.8-0.1-2.7,0.2c-0.8,1.6-0.3,4.2,0,5.7c0.2,0.4,0.6,0.6,1,0.5c0,0.5,0.4,0.8,0.9,0.9
	c0.1,0,0.3,0,0.4,0.2c1.6,0.1,3.3,0,4.9-0.2c0.3-0.6,1.3-0.4,1.4-1.2c0.4-0.2,0.1-1.1,0.2-1.6s0-1.2,0-1.7c0-1.2,0.1-2.4-0.5-3
	c-1-0.3-2-0.4-3-0.4c0.4-0.6,0.7-1.3,0.9-2c0-4,0.1-4,2.5-8c1-1.9,2.3-3.7,3.7-5.3c1.6-0.9,2.9-2,4.1-3.3c0.9-0.3,1.8-0.6,2.7-1.1
	c0.7-0.4,1.5-0.8,2.3-1.2c0.9,0.2,1.8-0.2,2.3,0c0,0.8,0.1,1.6,0.3,2.4c0.6,0.2,0.5,1.2,1.4,1.2c1.2,0.2,2.4,0,3.5-0.4
	c0.7,0,0.2-1.2,1.1-1c0.5-0.2,0.3-1.1,0.9-1.2c2.1,0.2,5.1,1.6,6.7,2.3c3.6,2.8,4.8,3.7,7.1,6.5c2.5,4,3.1,4.8,3.9,8.8
	c0,0,0.4,1.5-0.1,1.6c-1.2-0.1-2.5,0.1-3.5,0.8c-0.7,1.3-0.3,3.6-0.5,5.4c0.6,0.4,1.1,0.9,1.5,1.4l4.9,0.1c0.6-0.5,2-0.1,2.4-0.8
	C77,55.1,77.2,51.8,76.5,50.2L76.5,50.2z M29.5,53.4c0.2,0,0.3,0,0.4-0.2c0.4,0.6,0,1.9,0.1,2.8c-0.9-0.4-2.6-0.1-3.8-0.3
	c-0.1-0.8-0.2-1.6-0.3-2.4L29.5,53.4z M51.7,31.6c-0.7-0.4-1.7,0.2-2.6,0.1c-0.2-1.5-0.4-3-0.8-4.5l3.7,0.1
	C51.3,28.2,52,30,51.7,31.6z M74.8,55.9c-1.2-0.1-4.2,0.1-5-0.3c0-1.2,0.1-2.4,0.1-3.7c1.2,0.1,4-0.1,5,0.2
	C75,53.4,74.9,54.6,74.8,55.9z"/>
</svg>
