<?xml version="1.0" encoding="utf-8"?>
<svg version="1.1" id="Layer_1" xmlns="http://www.w3.org/2000/svg" xmlns:xlink="http://www.w3.org/1999/xlink" x="0px" y="0px"
	 viewBox="0 0 100 100" style="enable-background:new 0 0 100 100;" xml:space="preserve">
<path d="M47,61.2c-0.6-0.7-0.3-0.5-1-1C45.7,60,45,59.6,45,59.6L43.6,59c0,0-1.1-0.8-1.4-1c-0.4-0.2-0.4-0.2-0.8-0.5
	c-0.8-0.5-1.4-0.6-2.1-1.2c-0.5-0.5-1.6-1.7-2-2.1c-0.3-0.3-0.4-0.5-0.4-0.5l-0.8-1.1l-0.4-0.2c0,0-0.5-0.2-0.9,0
	c-0.3,0.2-0.5,0.8-0.5,0.8s0.3,1,0.7,1.7c0.3,0.4,0.4,0.8,0.4,0.8s1,1.1,1.3,1.4c0.6,0.7,1.2,1.2,1.4,1.3c0.3,0.2,0.7,0.6,1,1
	c0.4,0.6,0.8,1.2,0.8,1.2c-0.5-0.2-0.9-0.2-2.1-0.5c-0.4-0.1-1,0-1,0s-2.1-0.7-3-0.9c-1-0.2-1.9-0.6-2.7-1c-1.5-0.8-2.8-1.9-3.7-3
	c-0.9-1.1-1.4-2-1.3-2.6c0.1-0.9,0-1.9-0.5-2.3c-0.2-0.2-0.5-0.3-0.9-0.2c-0.2,0.1-0.8,0.5-0.8,0.5s0.3,0.4,0.3,1
	c0,0.6-0.1,2,0.1,2.7c0.1,0.6,0,1,0.2,1.6c0.3,1,0.5,0.7,0.5,0.7s1.4,2.7,1.5,2.9c0.3,0.4,0.2,0.6,0.5,0.9c0.2,0.3,0.2,0.4,0.4,0.7
	c0.5,0.6,1.1,1.1,1.6,1.5c1,0.8,2.7,1.8,3.8,2.2c0.9,0.4,0.8,0.6,1.8,0.7c1.1,0.2,3,0.5,3.8,0.9c0.3,0.2,0.9,0.5,0.9,0.5
	s0.4,0.3,0.6,0.4c0.2,0.1,0.4,0.2,0.4,0.2s0.6,0.6,0.7,0.8c0.1,0.1-0.1,1.2-0.1,1.2s0.2,0.1,0.2,0.4c0,0.5-0.4,1.5-0.5,2.1
	c-0.1,0.6,0.1,0.8-0.1,1.4c-0.2,0.9-0.3,1.7-0.5,2.4c0.8,0.3,1.2,0.7,2,0.9c0.9,0.2,2.1,0.3,3,0.4c0.7,0.1,1.2,0.3,1.9,0.4
	c0.2,0,0.3-0.3,0.4-0.3l0.1-0.4v-1l-0.2-0.5l0.2-2.9v-3.2c0,0,0.8-0.3,1.2-1.3c0.1-0.3,0.2-1.3,0.2-1.3l0.1-1.1c0,0-0.6-1.6-1-2.3
	C47.8,62.6,47.4,61.7,47,61.2z M75.8,50.1c-0.4-0.1-0.7,0-0.9,0.2c-0.5,0.4-0.6,1.3-0.5,2.3c0.1,0.6-0.4,1.6-1.3,2.6
	c-0.9,1.1-2.2,2.2-3.7,3c-0.8,0.4-1.7,0.8-2.7,1c-0.9,0.2-3,0.9-3,0.9s-0.6-0.1-1,0c-1.2,0.2-1.6,0.3-2.1,0.5c0,0,0.3-0.6,0.8-1.2
	c0.3-0.4,0.6-0.8,1-1c0.2-0.2,0.8-0.7,1.4-1.3c0.2-0.3,1.3-0.9,1.3-0.9s0.2-0.3,0.4-0.8c0.4-0.6,0.7-1.7,0.7-1.7s-0.1-0.7-0.5-0.8
	c-0.4-0.2-0.9,0-0.9,0l-0.4,0.2l-0.8,1.1c0,0-0.1,0.2-0.4,0.5c-0.4,0.4-1.5,1.1-2,1.6c-0.7,0.6-1.2,0.7-2.1,1.2
	c-0.4,0.2-0.4,0.2-0.8,0.5C58,58.2,57,59,57,59l-1.4,0.7c0,0-0.7,0.4-0.9,0.6c-0.7,0.5-0.4,0.3-1,1c-0.4,0.5-0.9,1.4-1.2,2
	c-0.4,0.7-1,2.3-1,2.3l0.1,1.1c0,0,0,1,0.2,1.3c0.4,1,1.2,1.3,1.2,1.3v3.2l0.2,2.9l-0.2,0.5v1l0.1,0.4c0.2,0,0.3,0.3,0.4,0.3
	c0.7-0.1,1.3-0.3,1.9-0.4c0.9-0.1,2.1-0.2,3-0.4c0.8-0.2,1.2-0.6,2-0.9c-0.2-0.7-0.3-1.6-0.5-2.4c-0.1-0.6,0-0.8-0.1-1.4
	c-0.1-0.6-0.4-1.6-0.5-2.1c0-0.3,0.2-0.4,0.2-0.4s-0.2-1.1-0.1-1.2c0.2-0.2,0.7-0.8,0.7-0.8s0.2,0,0.4-0.2c0.2-0.1,0.6-0.4,0.6-0.4
	s0.6-0.3,0.9-0.5c0.8-0.3,2.7-0.7,3.8-0.9c1-0.2,0.9-0.4,1.8-0.7c1.1-0.5,2.8-1.4,3.8-2.2c0.5-0.4,1.1-1,1.6-1.5
	c0.2-0.2,0.2-0.4,0.4-0.7c0.3-0.4,0.2-0.5,0.5-0.9c0.1-0.2,0.6-0.5,0.6-0.5s1.1-2.1,1.4-3.1c0.2-0.6,0.1-1,0.2-1.6
	c0.1-0.7,0.2-1.4,0.2-2c0-0.6,0.1-1.8,0.1-1.8S76,50.2,75.8,50.1z M58.3,49.2c-0.9-0.1-1.4-0.3-1.4-0.3c0.3,0.4,0.5,0.7,0.8,1.1
	c0.9,1,1.8,1.5,2.7,1.8s1.8,0.3,2.6,0.2c0.7-0.1,1.1-0.2,1.7-0.5c0.3-0.2,0.6-0.5,0.8-0.6c0.2-0.1,0.6-0.2,0.8-0.3
	c0.4-0.3,0.6-0.5,0.6-0.5c-0.3-0.3-0.8-0.5-1.1-0.7c-0.3-0.2-0.3-0.5-0.6-0.7c-0.4-0.3-0.9-0.8-1.3-1c-0.4-0.2-0.7-0.2-1.2-0.3
	c-1-0.3-2-0.4-2.8-0.3c-1.8,0.2-2.9,1-2.9,1c0.4,0,0.8,0,1.2,0.1c1.9,0.3,4.1,1.5,4.1,1.5c-0.3-0.1-0.5-0.1-1.3-0.4
	C60.3,49,59.1,49.3,58.3,49.2z M56.6,38.3c-0.6,0.7-1.1,1.4-1.5,2.1c-0.3,0.4-0.1,0.7-0.3,1.1c-0.7,1.5-1.3,2.8-1.3,2.8
	c0.3-0.3,0.1,0.2,0.5-0.1c0.4-0.3,1.2-1.2,1.7-1.5c0.1-0.1,0.7-0.6,0.9-0.7c0.7-0.4,1.1-0.7,1.9-1.1c0.7-0.3,1.2-0.7,1.9-0.9
	c2-0.8,3.9-1.2,3.9-1.2c-1.1,0.4-2,1.3-3.4,2.3c-0.5,0.3-1.9,1.2-2.4,1.5c-0.5,0.4-0.5,0.2-1,0.6c-0.4,0.3-0.9,0.9-1.2,1.1
	c-0.3,0.3-0.5,0.3-0.7,0.5c-0.5,0.5-0.8,0.8-0.8,0.8c0.6,0.1,1.2,0.3,1.8,0.3c1.2,0.2,2.2,0.2,3.2,0.2c1.5-0.1,2.8-0.4,4-0.8
	c0.8-0.3,2.4-1.4,2.5-1.5c0.5-0.6,1.3-1.4,1.9-1.9c0.7-0.7,0.3-0.2,0.8-1.2c0.2-0.4,1-1.2,1.1-1.6c0.3-0.7,1.2-2.2,1.4-2.9
	c0.4-1.1,0.2-1.1,0.3-1.8c0-0.2,0-0.6,0-0.8c0.1-0.7,0.1-1.1,0.1-1.1c-0.4,0-0.4,0.3-0.8,0.3c-0.4,0-0.7-0.1-1.1-0.1
	c-0.3,0-0.8-0.2-0.8-0.2s-0.8-0.1-1.3-0.1c-0.3,0-0.7,0-0.8,0c-1.3,0.2-1.9,0.6-3,0.9c-0.7,0.2-2.7,0.7-2.7,0.7s-0.4,0.3-0.9,0.6
	c-0.2,0.1-0.5,0.4-0.5,0.4l-0.9,0.4L59,35.8c0,0-0.7,0.9-0.9,1C57.5,37.3,57,37.8,56.6,38.3z M38.8,48c0.5-0.1,0.8-0.3,1.3-0.4
	c0.3-0.1,1-0.1,1.3-0.2c0.5-0.1,1.7-0.3,2.1-0.5c1.2-0.4,1.3-0.6,1.3-0.6c-0.4-0.3-0.9-0.2-1.2-0.4c-0.4-0.2-0.8-0.5-1.3-0.7
	c-0.6-0.2-1.5-0.6-2-0.7c-0.5-0.1-0.9-0.3-1.4-0.3s-1,0.1-1.4,0.2c-0.8,0.2-2.1,0.9-2.8,1.2c-1.1,0.6-1.4,1.7-2.1,2.5
	c-0.4,0.4-0.7,0.5-0.9,0.8c-0.5,0.6-0.7,1-0.7,1c0.3,0.1,0.7,0,0.9,0.1c0.2,0.1,0.6,0.3,0.9,0.4c0.3,0.1,0.7,0.4,1,0.5
	c0.5,0.1,1.3,0.4,1.8,0.5c0.5,0.1,0.6,0,1.1,0c0.5,0,1,0,1.5-0.1c0.7-0.1,1.1-0.1,1.6-0.3c0.6-0.2,2-0.6,2.4-0.8
	c0.5-0.3,0.7-0.3,1-0.7c0.8-0.8,1.8-2.1,1.8-2.1c-0.3,0.2-0.8,0.6-1.2,0.7c-0.4,0.2-1,0.2-1.5,0.3c-0.7,0.2-1.3,0.1-2,0.1
	c-0.4,0-0.8,0-1.2-0.1c-1.1-0.1-2.3-0.4-2.3-0.4C37.4,48.1,38.3,48.1,38.8,48z M28.6,31.8c0.3,0.6,0.8,1.1,1.1,1.7
	c0.3,0.5,0.4,1.5,0.7,2c0.4,0.7,1.1,1.7,1.6,2.3c1,1.3,2,2.4,3.1,3.2c0.6,0.5,1.9,0.8,2.4,1c0.1,0,0.6,0.5,1.5,0.8
	c0.4,0.1,1.1,0.6,1.4,0.7c1,0.3,2.3,0.4,3.1,0.4c0.6,0.1,0.7-0.1,1.2-0.1c1.1,0,1.9-0.4,1.9-0.4c-0.5-0.1-0.9,0-1.4-0.3
	c-0.4-0.2-1.4-0.4-1.8-0.7c-0.3-0.2-1-0.9-1.3-1.1c-0.6-0.5-0.6-0.3-1.2-0.8c-1.1-1-2.3-2.4-3-3.1c-0.8-0.9-1-1.4-1-1.4
	c0.6,0.6,1.5,1.1,2.5,1.7c0.6,0.4,1.2,1,1.9,1.4c0.7,0.4,1.9,0.8,2.6,1.2c0.5,0.3,0.5,0.5,1,0.8c0.3,0.2,1.1,0.3,1.4,0.5
	c0.5,0.3,0.7,0.4,0.7,0.5c-0.1-0.6-0.3-1.2-0.4-1.8c-0.1-0.4,0.1-0.6-0.1-1c-0.1-0.4-0.6-1.1-0.8-1.5c-0.3-0.7-0.3-0.9-0.7-1.4
	c-0.1-0.2-0.3-0.6-0.4-0.7c-0.2-0.3-2-2.1-2.8-2.7c-0.6-0.5-0.8-0.7-1.4-1c-0.6-0.3-1.2-0.7-1.2-0.7s-0.4,0-0.7-0.1
	c-0.2-0.1-0.6-0.3-1-0.3c-0.4-0.1-0.8,0-1-0.2c-0.1-0.1-0.8,0-1.1-0.1c-1.3-0.1-2.3-0.2-3.4-0.1c-0.5,0-0.9,0.3-1.3,0.4
	c-0.6,0.1-1.2,0-1.6,0.1c-0.8,0.2-1.2,0.3-1.2,0.3C28.2,31.6,28.5,31.5,28.6,31.8z M51.4,33.1c0,1.8,0,3.9,0.2,5.6
	c0,0.4,0.2,0.6,0.2,1c0.2,1.6,0.3,2.7,0.3,2.7c1.3-1.2,2.3-2.3,3.1-3.4c0.9-1.2,1.2-2.1,1.6-3.3c0.4-1.1,1-2.5,1.1-3.5
	c0.1-1.1-0.1-1.6-0.2-2.6c-0.1-0.6-0.1-1.8-0.3-2.4c-0.3-0.9-0.6-1.7-1-2.5c-0.4-0.7-0.8-1.4-1.2-2c-0.2-0.3-0.4-0.6-0.6-0.9
	c-0.5-0.7-0.9-0.7-1.3-1.2c-0.5-0.5-1-1.5-1.4-1.8c-0.5-0.5-0.8-0.7-0.8-0.7c-0.3,0.4-0.2,0.9-0.5,1.3c-0.2,0.4-0.6,1-0.8,1.4
	c-0.2,0.4-0.2,0.3-0.4,0.6c-0.3,0.6-0.7,0.6-0.9,1.1c-0.2,0.5-0.9,1.6-1.1,2.1c-0.4,0.9-0.6,1.7-0.9,2.6c-0.3,1.2-0.2,4-0.3,5
	c-0.1,1.8-0.3,1.8,0,3.2c0.4,1.8,1,3.4,1.6,4.6c1.1,2,2.1,3.1,2.1,3.1c-0.2-0.6-0.3-1.4-0.3-2.2c0-0.2-0.2-0.6-0.2-0.8
	c0-1.6,0.4-3.2,0.7-4.7c0.1-0.3,0.3-0.6,0.4-0.9c0.6-2.8,1.2-5,1.2-5C51.6,30.1,51.5,31.6,51.4,33.1z"/>
</svg>
