<?xml version="1.0" encoding="utf-8"?>
<!-- Generator: Adobe Illustrator 23.1.1, SVG Export Plug-In . SVG Version: 6.00 Build 0)  -->
<svg version="1.1" id="Layer_1" xmlns="http://www.w3.org/2000/svg" xmlns:xlink="http://www.w3.org/1999/xlink" x="0px" y="0px"
	 viewBox="0 0 100 100" style="enable-background:new 0 0 100 100;" xml:space="preserve">
<style type="text/css">
	.st0{fill:#83C7BD;}
</style>
<path class="st0" d="M99.7,44C97,25,83.4,8.9,64.8,3c-5.7-1.8-20.5-5.2-36.3,2.3C12.5,12.9,1.3,28.9,0.1,46.1
	c-1.7,24.1,16,39.2,19.5,41.9c8.6,6.8,20.1,10.9,31.4,11.4c0.7,0,1.5,0,2.2,0c8.6,0,20.2-2.1,30.5-10.9
	C103.3,71.7,99.8,45.2,99.7,44z M29.2,6.7c15.2-7.2,29.6-3.9,35.1-2.2C69,6,73.4,8.2,77.4,10.9c-1.9-1-3.8-1.8-5.6-2.5
	c-2.7-1-24.1-8-43.7-1.2C28.5,7.1,28.9,6.8,29.2,6.7z M1.7,46.2c0.7-9.4,4.4-18.5,10.4-25.9c-6.4,9.9-8.9,22-9.2,24.1
	c-1.1,10.7,1.5,21.9,7.3,31.3C5.4,68.7,0.8,58.7,1.7,46.2z M82.8,87.3C75,94,63.5,98.2,51.1,97.9c4.1,0,8.5-0.7,13.1-2.2
	c22.1-7.3,34.6-30.5,32.6-55.3c-0.1-1.3-0.3-2.5-0.5-3.7c0.8,2.5,1.3,5,1.7,7.6C98.2,45.4,101.6,71.1,82.8,87.3z"/>
<path d="M39.3,24.4c-0.3-0.2-0.6-0.1-0.9-0.3c-0.7,0.2-0.7,0.8-1.1,1.2c-0.2,0.5-0.5,1-0.7,1.5c-0.5,1-2.3,5.5-2.4,6
	c-0.5,1-0.9,2-1.3,3c-1.6,4-2.8,8.1-4.7,12.1c-0.4,0.5-0.6,1.1-0.9,1.6c0.8,0.3,2.2,0.8,3.2,1.1c1.1,0.4,5.5,2.1,7.5,3
	c0.1-0.2,0.2-0.3,0.3-0.4c0.6-1.8,0.9-3.6,1.4-5.4c0.2-1.9,0.4-3.7,0.6-5.6c-0.1-1.9,0.2-3.8,0.1-5.7c0.1-0.9-0.1-4.3-0.2-6
	C40.1,29,39.8,25,39.3,24.4z M37.7,51.3c-0.4,0-0.7-0.8-0.7-0.8s-0.8-0.9-1.2-1.2c-0.4-0.3-1.8-1.7-1.7-1.9c0.1-0.2,0.6-0.7,0.9-0.5
	c0.2,0.1,3,3.7,3,3.7S38.1,51.3,37.7,51.3z M38.5,49c-0.4,0-0.7-0.8-0.7-0.8S37,47.3,36.6,47c-0.4-0.3-1.8-1.7-1.7-1.9
	c0.1-0.2,0.6-0.7,0.8-0.6c0.2,0.1,3.1,3.9,3.1,3.9S38.9,49,38.5,49z M39.1,46.4c-0.4,0-0.7-0.8-0.7-0.8s-0.8-0.9-1.2-1.2
	c-0.4-0.3-1.8-1.7-1.7-1.9s0.5-0.8,0.7-0.7c0.2,0.1,3,3.4,3,3.4S39.6,46.4,39.1,46.4z M39.2,43.6c-0.4,0-0.6-0.9-0.6-0.9
	s-0.3-0.4-0.7-0.7c-0.4-0.3-1.8-1.7-1.7-1.9c0.1-0.2,0.6-0.3,0.8-0.1c0.2,0.1,2.7,3,2.7,3S39.6,43.6,39.2,43.6z M39.6,40.5
	c-0.4,0-0.7-0.8-0.7-0.8s-0.2-0.3-0.6-0.6C38,38.9,37,38,37.1,37.8c0.1-0.2,0.5-0.4,0.7-0.3c0.2,0.1,2.1,2.3,2.1,2.3
	S40.1,40.5,39.6,40.5z M57.3,32c-4.6,0.1-9.1,1.1-13.1,2.8c0,0.5-0.1,1.8-0.3,3.3c0.4-0.2,0.9-0.3,1.3-0.5c0.9-0.4,1.9-0.1,2.8,0.3
	c0.7,0.3,1.2,0.9,1.6,1.5c1,1.2,1.3,2.5,0.7,4c-0.3,0.7-0.7,1.1-1.4,1.5c-0.5,0.3-1,1.1-1.7,1.1c-0.8,0.1-1.3,0.2-2.7-0.6
	c-0.5-0.3-1-0.6-1.4-1c-0.1,0.9-0.1,1.5-0.2,1.9c-0.1,0.7-0.3,3.2-1.1,5.6c-0.4,1.2-0.6,2.4-0.8,3.4c1.9-0.2,3.5,1.2,3.2,4.3
	c-2.3,19.6,16.3,11,25.9,2.2C82.8,50.1,73.3,31.8,57.3,32z M64.6,40.4c0.3-0.7,0.9-1.2,1.6-1.5c0.8-0.3,1.6-0.2,2.4,0.1
	c0.9,0.4,1.6,0.6,2.1,2.4c0.3,0.7,0.4,1.5,0.3,2.1c-0.1,0.8-0.1,1.3-0.6,1.8c-0.3,0.3-0.7,0.6-1.1,0.7c-0.6,0.2-1.8,0.5-2.4,0.3
	c-0.9-0.2-1.3-0.8-1.9-1.7c-0.2-0.3-0.6-1-0.7-1.3C63.9,42.2,64.1,41.4,64.6,40.4z M59.9,61.3c-0.2,0.8-0.8,1.6-1.5,2.2
	c-0.4,0.4-1,0.5-1.6,0.8c-0.4,0.2-0.7,0.5-1.1,0.6c-1.3,0.3-2.3,0.1-3.2-0.4c-0.4-0.2-1.1-0.4-1.4-0.7c-0.2-0.2-0.2-0.5-0.3-0.8
	c-0.2-0.4-0.2-0.7-0.3-1.1c-0.1-1.3,0.6-2.7,1.9-3.7c0.2-0.1,0.6-0.3,0.8-0.4c0.2-0.1,0.6-0.3,0.9-0.4c1.2-0.5,2.4-0.6,3.5-0.3
	c1.1,0.3,1.7,1,2.2,2C60.1,59.7,60.1,60.5,59.9,61.3z M60,39.8c-0.4,0.3-0.8,0.5-1.2,0.7c-0.4,0.2-1.1,0.4-1.6,0.4
	c-0.6,0-0.8-0.5-1.3-0.8c-0.4-0.3-0.9-0.5-1.1-0.9c-0.2-0.4-0.6-1-0.6-1.5c0-0.5,0.3-1.2,0.5-1.6c0.2-0.5,0.6-0.6,1.1-0.9
	c0.5-0.3,1.1-0.5,1.7-0.5c0.5,0,1.2,0.1,1.6,0.3c0.4,0.2,0.6,0.6,0.9,0.9c0.4,0.5,0.6,1.1,0.6,1.8C60.5,38.4,60.7,39.2,60,39.8z
	 M63.3,65.6c-0.2-0.2-0.1-1.2-0.1-1.2s-0.1-0.3-0.4-0.7c-0.3-0.3-0.2-0.1-0.1-0.3c0.1-0.2,0.9-0.3,1.1-0.1c0.2,0.1,0.2,1.8,0.2,1.8
	S63.8,65.7,63.3,65.6z M65.1,64.1c-0.2-0.3-0.3-1.3-0.3-1.3s-0.1-0.4-0.3-0.8c-0.3-0.4-0.2-0.2,0-0.3s0.8-0.5,0.9-0.3
	c0.2,0.2,0.5,2,0.5,2S65.5,64.3,65.1,64.1z M67.6,62.5c-0.2-0.3-0.7-1.1-0.7-1.1s-0.6-1-0.9-1.4s0.1-0.7,0.2-0.8
	c0.1-0.2,0.7-0.2,0.9,0c0.2,0.1,0.8,2.9,0.8,2.9S68,62.6,67.6,62.5z M69,61.2c-0.2-0.3-0.5-1.6-0.5-1.6s-0.3-0.7-0.5-1.1
	s0-0.8,0.2-1c0.1-0.2,0.8,0,0.9,0.2c0.6,0.7,0.6,2.8,0.6,2.8S69.4,61.3,69,61.2z M70.9,59.3C70.7,59,70.5,58,70.5,58
	s-0.5-1.4-0.8-1.8c-0.3-0.4,0-0.7,0.1-0.9s0.4-0.1,0.7,0.2c0.2,0.1,1.2,3,1.2,3S71.3,59.4,70.9,59.3z M72.4,56.8
	c-0.2-0.3-0.4-1-0.4-1s0.1-0.6-0.2-1c-0.3-0.4,0.1-0.4,0.3-0.6s0.5-0.3,0.7,0c0.2,0.2,0.6,1.9,0.6,1.9S72.8,57,72.4,56.8z
	 M27.4,51.9c0,0.1,0,0.3,0,0.4c0.2,0.8,0.1,1.5,0.4,2.3c0.1,1.5,0.7,3.1,1.2,4.6c0,0.4-0.6-0.1-0.5,0.4c-0.1,0.2,0,0.5-0.4,0.7
	c-0.5,0.3-2.5,0.8-2.9,2.3c-0.3,1.1-0.3,2.3,0.8,3.4c1.1,1.1,2.9,3.6,3.2,5.5c0.1,2.7-1,3.6-1,4c0,0.1,0.1,0.1,0.1,0.2
	c0.1,0.1,0.3,0.1,0.4,0.2c0.2-0.1,0.5,0.1,0.7-0.1c0.2,0.1,0.5-0.4,0.7-0.3c1.6-1.1,3.3-2.7,3.7-3.4c2.7-4.8,1.8-8.1,1.3-9.3
	c-0.1-0.3-0.5-0.7-0.6-1.1c-0.3-0.4-0.7-0.7-1-1c0.5-0.3-0.1-0.7,0.4-0.9c0-0.3,0.6-0.6,0.7-0.9c0.6-0.6,0.9-1.2,1.5-1.8
	c0.4-0.6,0.7-1.1,1-1.7c-1.9-0.8-5.4-2.3-6.3-2.7C30.1,52.2,28.5,52,27.4,51.9z M30.3,62.7c-0.1,0.1-0.2,0.2-0.3,0.3
	c-0.1-0.2,0-0.3-0.1-0.5C30.1,62.4,30.2,62.5,30.3,62.7z M28.4,62c0.1,0.3-0.3,0.5-0.6,0.7c0-0.1,0-0.2-0.1-0.3
	C28,62.1,28.2,62.1,28.4,62z M31.8,63.8c0,0.1-0.2,0-0.2,0C31.7,63.7,31.8,63.7,31.8,63.8z M31.5,65.7c0.6-0.5,0.9-1,0.9-1.5
	c0.4-0.2,0.6,0.3,1,0.2c1,2.1,0.7,3.6-1.8,7.8c-0.9,1.4-0.3-0.6-0.4-0.6c-0.1-0.6-0.2-1.2-0.5-1.8c-1-1.5-2.1-2.7-3.2-3.3
	c-0.3-0.2,0.2-0.4,0.1-0.6c0-0.2,0.1-0.3,0.1-0.5c0-0.4,0.2-0.7,0.7-1c0.1,0.3,0.1,0.6,0.5,1c0.4,0.1,0.7,0.2,1.2-0.2
	C30.6,65.8,31,65.9,31.5,65.7z"/>
</svg>
