<?xml version="1.0" encoding="utf-8"?>
<!-- Generator: Adobe Illustrator 25.1.0, SVG Export Plug-In . SVG Version: 6.00 Build 0)  -->
<svg version="1.1" id="Layer_1" xmlns="http://www.w3.org/2000/svg" xmlns:xlink="http://www.w3.org/1999/xlink" x="0px" y="0px"
	 viewBox="0 0 100 100" style="enable-background:new 0 0 100 100;" xml:space="preserve">
<style type="text/css">
	.st0{fill:#FFFFFF;}
</style>
<path class="st0" d="M99.7,44C97,25,83.4,8.9,64.8,3c-5.7-1.8-20.5-5.2-36.3,2.3c-16,7.6-27.2,23.6-28.4,40.8
	c-1.7,24.1,16,39.2,19.5,41.9c8.6,6.8,20.1,10.9,31.4,11.4c0.7,0,1.5,0,2.2,0c8.6,0,20.2-2.1,30.5-10.9
	C103.3,71.7,99.8,45.2,99.7,44z M29.2,6.7c15.2-7.2,29.6-3.9,35.1-2.2C69,6,73.4,8.2,77.4,10.9c-1.9-1-3.8-1.8-5.6-2.5
	c-2.7-1-24.1-8-43.7-1.2C28.5,7.1,28.9,6.8,29.2,6.7z M1.7,46.2c0.7-9.4,4.4-18.5,10.4-25.9c-6.4,9.9-8.9,22-9.2,24.1
	c-1.1,10.7,1.5,21.9,7.3,31.3C5.4,68.7,0.8,58.7,1.7,46.2z M82.8,87.3C75,94,63.5,98.2,51.1,97.9c4.1,0,8.5-0.7,13.1-2.2
	c22.1-7.3,34.6-30.5,32.6-55.3c-0.1-1.3-0.3-2.5-0.5-3.7c0.8,2.5,1.3,5,1.7,7.6C98.2,45.4,101.6,71.1,82.8,87.3z"/>
<g id="XMLID_1_">
	<g>
		<path d="M55.9,39.3c-0.1-0.7-0.2-1.5-0.3-1.7c0-0.1-0.1-0.4-0.1-0.9C54.8,36.3,54,36,53.9,36c-0.7,0-0.7,1.1-0.4,1.5
			C53.6,37.5,54.9,38.4,55.9,39.3z M57.8,47.3l-0.4-1.6c-1.1-0.6-2.7-1.5-2.8-1.4c-0.2,0.1-0.5,1.1-0.3,1.3
			C54.4,45.7,57,46.8,57.8,47.3z M59.7,47.2c1.5,0.1,2.8-0.5,4.1,0c0.4,0.4,0.9,0.8,1.2,1.4c0,0.8,0.4,1.2,0.4,2
			c0.6,1,0.6,2.6,0.6,4.3c-0.3,0.2-0.3,0.6-0.4,1c-0.8,1.4-2.5,1.9-3.9,2.7c-2.5,0.3-4.9,0.5-7.7,0.4C53.9,61,53.7,72,53.3,75.6
			c-0.1,2.2,0.3,5.1-1.8,5.3c-1.8-0.3-1.7-2.2-2.1-3.9c-0.6-1.4-2.1-17.3-2.1-18.4c-0.3-0.4-1.5-0.1-2.2-0.2h-2.6
			c-1.7,0.4-4.4,0.6-6.2,0.2c-1.1-0.7-2.3-1.3-2.3-3.3c0-2,0-3,0-4.3c1-1.1,2.1-2.1,3.3-2.9c0.4-0.1,2.6,0.1,2.7-0.4
			c1.1,0.2,1-1,2.2-0.8c-0.1-5.6,1.3-9.7,2.3-14.2c-0.2-0.4-4.8-0.2-5.5-3.3c0-1-0.1-4.4,0.4-4.8c-0.1-0.7,1.8-1.1,2.1-1.4
			c2.9,0.1,4.6-0.3,7.5-0.2c1.9-0.5,4,0.4,5.7-0.3h2.9c0.9,0.6,1.8,1.2,2.5,2c0.8,1.5,0.8,4.4,0.2,6.1c-0.2,0-0.8,1.3-4,1.8
			C55.9,32.8,58.5,43.6,59.7,47.2z M53.5,39.7c-0.2,0-0.4,1-0.4,1.3c0.1,0.6,2.5,1.8,3.6,2.2l0-0.1l-0.5-1.8
			C55.2,40.7,53.6,39.7,53.5,39.7z"/>
	</g>
	<g>
	</g>
</g>
</svg>
