<svg xmlns="http://www.w3.org/2000/svg" xmlns:xlink="http://www.w3.org/1999/xlink" height="120" viewBox="4 4 120 120" width="120" xmlns:v="https://vecta.io/nano"><use xlink:href="#B"/><use xlink:href="#B"/><path style="fill:#69a8a7" d="M2392.982 3060.087c-.992-5.074-2.472-9.66-4.627-13.573-.478-2.604-2.248-3.919-3.084-6.168-1.024-.518-1.045-2.042-2.158-2.467-.201-1.343-1.605-1.48-1.851-2.773-6.118-6.225-13.602-11.075-24.677-12.342-4.04-.174-8.8.37-12.339-.306-.874-1.903.06-5.612-2.468-5.864-.304-.943-.819.357-1.233.312-1.562 1.462.327 4.76-.615 6.476-16.7 2.221-28.545 9.296-37.938 18.815-1.165 2.849-3.271 4.754-4.627 7.403l-4.01 8.021c.191 2.453-.536 3.986-.312 6.479-.071 1.307.289 2.184.619 3.084-.517 1.511-.957 3.336.309 4.315 1.758.221 2.525-1.08 3.396-1.848.941-.832 1.491-1.96 2.776-2.468l2.466-1.235c1.963-.401 4.411-.316 6.788-.312.999.751 2.182 1.315 3.392 1.853-.071.586.352.68.308 1.232.838-.22-.221 1.457.617 1.235-.06 1.191.487 1.773 1.542 1.852 2.25-.321 2.189-2.953 3.087-4.625 3.226-3.604 9.314-5.846 16.35-4.627.673.659 1.712.959 2.158 1.85.511.823 1.763.906 1.85 2.159-.196 1.14-.837 1.834-.619 3.393v28.688c.31.823.639 1.626.619 2.775 2.166 3.691 4.191 7.528 8.328 9.253 3.621.885 6.41 1.078 9.869.311 1.217-.842 2.271-1.84 3.394-2.777.577-1.48 2.236-1.875 3.083-3.084 1.177-3.041 2.438-5.995 2.163-10.487-.826-1.336-1.394-2.928-2.777-3.702-.549-1.373-2.751-2.498-4.629-1.543-2.088 3.338 2.179 4.789 2.468 7.711-.586 5.068-3.535 7.771-9.873 7.099-2.942-2.502-3.841-7.06-5.24-11.107-1.032-4.515-1.773-9.327-2.467-14.187-.096-4.001.049-7.768.312-11.415.09-.834 1.296-.55 1.539-1.232.351-.678 1.032-1.023 1.235-1.851 1.143-.912 2.211-1.902 3.394-2.776 2.679-.919 5.154-2.042 8.944-1.85 1.809.862 3.586 1.759 4.625 3.39 1.056 1.005.26 3.857 2.16 4.014 2.969-.426 3.104-3.681 5.861-4.318 1.857-1.223 5.28-.888 8.325-.927 1.175 1.093 2.864 1.66 3.702 3.086 1.501.862 1.352 3.377 4.012 3.084.114-2.687-1.387-3.756-2.466-5.243-1.673-1.008-2.396-2.953-4.32-3.701-1.593-.26-2.735-.969-4.632-.926-2.235-.077-3.718 1.17-5.549.616-.865-7.978-4.36-13.321-8.019-18.508-.79-1.782-1.855-3.287-2.469-5.241-.454-.271-.978-.464-.927-1.236a8.53 8.53 0 0 1-2.158-2.159c-.954-.691-2.042-1.245-2.777-2.157-.787-.036-1.079-.566-1.539-.927-.275-.181-1.763-.647-.925-.925h6.168c1.481.366 2.959.741 4.627.925.26.665 1.59.261 1.851.927.976-.053 1.031.818 2.159.615 2.329 1.374 4.341 3.064 6.785 4.32 3.011 3.057 5.718 6.414 8.021 10.18 2.487 3.678 3.998 8.341 5.551 12.953.024 2.135.921 3.396.927 5.55.68 1.48.762 3.556 3.081 3.396 2.716-.269 2.497-3.472 2.464-6.485zm-88.214-4.935c.162.158-.225.394-.307.31-.16-.164.225-.398.307-.31zm-2.776.618c-.008.302-.378.238-.618.309.008-.304.378-.24.618-.309zm12.647 8.019c-1.372-.171-2.128-.959-3.087-1.544-1.128.103-1.712-.342-2.466-.616-4.249-.033-8.287.146-10.486 2.16-.781-.602.174-2.071.307-2.775.864-.368 1.775-.695 2.773-.927.607-.522 1.911-.354 2.471-.925 2.162-.2 4.346-.384 4.937-2.16-.31-1.645-1.882-2.021-4.011-1.85 2.273-1.736 6.693-1.326 8.019-4.012-.19-1.351-1.774-1.309-3.39-1.23-1.562.285-2.836.861-4.32 1.23.919-1.756 3.168-2.181 4.936-3.084.324-1.352-1.043-1.012-.924-2.16a6.26 6.26 0 0 0 1.848-1.851c2.023-.139 4.803.482 5.557-.927.022-1.153-1.215-1.05-2.16-1.23.568-.461 1.466-.592 2.467-.617.57-.457 1.469-.592 2.469-.617 1.237-.714 2.93-.977 3.701-2.16-.193-1.141-1.734-.939-3.087-.926 2.225-1.988 5.53-2.9 8.021-4.625 1.854-.306 3.552-.77 4.935-1.543.79-.014.378.23.311.617-2.896 2.451-5.532 5.162-8.33 7.711-4.754 6.77-8.907 14.131-10.491 24.061zm26.22-1.233c-.606-.838-1.479-1.405-1.854-2.469-1.771-.491-3.131-1.392-4.935-1.851-4.472-.258-8.099.334-11.414 1.231-1.481.578-2.461 1.651-4.009 2.16 1.578-2.947 2.877-6.167 4.627-8.944.815-1.445 1.345-3.182 2.468-4.32.52-1.74 1.946-2.572 2.467-4.316a70.01 70.01 0 0 0 6.17-6.168c2.849-1.368 3.795-4.639 6.787-5.861-.697 9.584-.123 20.442-.307 30.538.444.265.976.46.92 1.233-.81.091-1.008-.429-.92-1.233zm26.525-3.702c.612.582.523 1.08.306 1.852-.682-.039-.129-1.31-.306-1.852zm-16.038-24.678c1.484 1.701 2.967 3.405 4.934 4.629 2.733 5.594 5.105 11.551 6.479 18.506-1.299-.551-2.251-1.452-3.704-1.849-2.466-.104-4.179.551-6.476.615-1.831.843-4.156 1.188-5.862 2.159-.779-1.276-.652-3.455-.925-5.244-.438-1.517-.178-3.729-.616-5.243V3031.4c.088-.496-.292-.529-.31-.926v-.925c.498-.089.532.291.926.312 1.778 1.512 3.399 3.175 5.554 4.315zm358.893 12.237c.956 1.213 1.551 3.426 3.025 4.535.042.03.246-.003.302 0 .353.018.135.194.305.302 1.647 1.068 3.076 1.128 4.841 0 .017-1.029-.896-1.126-1.517-1.512-.371-.637-.836-1.18-1.209-1.814-1.09-.928-1.436-2.6-1.812-4.233.484-.423.32-1.492.904-1.815.207-.701 1.007-.81 1.213-1.512 1.107-.708 2-1.63 3.022-2.418.947-1.876 2.671-2.977 3.024-5.446 1.183-1.643 1.492-4.155 1.816-6.653-.144-1.373-.545-2.48-.607-3.933-2.309-3.641-4.069-7.823-8.771-9.073-.124-.517-.392.063-.907 0-1.342-.029-2.266.357-2.418 1.513.105 1.504 1.427 1.8 2.418 2.419.843.772 1.812 1.416 2.724 2.119 1.767 2.566 3.539 5.131 3.022 9.979-1.268 5.283-5.547 7.562-8.469 11.19-.493 1.222-1.1 2.328-1.211 3.934-.061.97.539 1.276.305 2.418zm-4.232-5.446c1.433-2.019.257-5.359-1.211-6.353-1.024.083-2.452-.233-3.022.304v.906c1.479 1.648 1.564 4.687 4.233 5.143zm17.24 3.026c-.048.354.051.855-.303.905-.261 2.116-.181 4.521 2.421 4.535 1.346-.367 1.085-2.337 1.512-3.628 2.076-1.957 6.152-1.913 6.654-5.444-1.325-.729-2.691-.634-4.234-.302-.562.119-.906.528-1.211.604-.767.19-.81.398-1.209.604-.874.447-1.303.488-1.815.906-.753.618-1.124 1.44-1.815 1.82zm50.208 31.757c-.354-2.57-1.924-3.925-3.023-5.747-1.727-1.298-2.986-3.063-4.537-4.536-1.864-.658-3.363-1.679-5.748-1.813-3.238.187-6.299.555-8.168 2.116-.643-2.184-1.608-4.036-3.022-5.445-5.035-.855-10.44.414-16.03 0l-15.425-1.51c-6.173-.227-11.547.348-17.543.3-5.158-.726-12.662-1.718-17.542 0-.021.889-.691 1.125-1.21 1.512-1.31 3.188-.024 7.229-.304 11.193.688.319.117 1.898.304 2.721.255.754.394 1.622.303 2.723.595.414.163 1.853.606 2.42.021.982.152 1.861.603 2.42.623 3.408 1.765 6.304 3.327 8.772.364.474.444 1.156.604 1.511.049.104.532.182.607.303.088.148-.072.446 0 .604.047.106.531.176.604.304.357.651.324 1.22.605 1.513.242.252.357.648.604.906.657.686 1.275 1.543 1.512 2.42.723.487 1.335 1.086 2.117 1.51.53.561 2.262.918 1.517 1.817-3.047.384-6.035.823-9.68.604-1.796-.321-3.57-.663-5.446-.907-1.487-.932-3.741-1.098-5.143-2.114-2.228-.37-4.593-.253-5.141 1.812-.018.186-.044.358-.305.302.033 2.69 1.29 4.156 3.027 5.144 1.276 1.444 3.17 2.274 5.141 3.024 1.713 1.011 3.785 1.657 5.747 2.42 1.136.275 2.137.685 3.325.906.773.637 2.184.644 3.024 1.211 3.093.133 5.886.569 8.771.906 9.205-.071 18.979.431 26.618-1.21 7.711-.157 15.174.239 22.382-.907.678-.529 1.698-.719 2.418-1.209.499-.715 1.556-.861 2.118-1.514 2.266-.252 3.211-1.828 5.142-2.42 1.545-2.184 4.342-3.115 3.932-7.257-.819-.392-1.073-1.347-2.42-1.21-1.327-.019-2.499.121-3.327.602-2.248.373-4.645.6-6.959.91h-11.793c.389-.926 1.729-.889 2.118-1.814.89-.422 1.146-1.479 2.42-1.514 1.513-.102 1.67 1.153 3.327.908 2.284-1.143 3.213-3.641 5.744-4.536.74-.269 1.312-.706 2.421-.605.383-.728 2.384.167 2.721-.604 2.444.226 3.571-.869 5.748-.908 3.321-1.015 6.642-2.026 9.071-3.932.654-.759.957-1.869 1.816-2.419.35-1.667 1.166-2.87 1.21-4.841.696-1.324 1.452-2.586 1.212-4.842zm-75.615-13.309h.605c.062.851-2.263-.084-.605 0zm-11.796 11.495c-.155-.157.22-.388.303-.303.157.155-.218.385-.303.303zm3.933 8.769c-.157-.156.22-.384.303-.301.154.158-.219.386-.303.301zm59.584 21.173c.49.085.521-.286.906-.304h2.118c.571.137 1.822-.41 1.512.604-.347.108-.767.533-.303.605-.221.28-.55.457-.908.604-.339.567-1.171.645-1.51 1.21-1.185-.176-1.758.26-2.421.605-.107.8-1.539.272-1.816.906-2.483.34-5.389.256-7.559.907l-32.363.906c-1.111.201-2.302.322-3.328.606h-9.375c-1.431-.08-2.33-.694-3.935-.606-1.387-.121-2.737-.281-2.721-1.813-.118-2.135 2.715-1.316 4.235-1.812 1.473-.545 3.443-.588 5.142-.909 2.16.159 3.916.722 6.354.604 1.494-.016 2.666-.355 3.93-.604 8.32-.032 16.759-1.269 25.102-.302 5.507-1.147 11.599-.341 16.94-1.207zm-12.102-9.073c-3.059 2.385-8.098 2.787-12.094 4.234-2.555-.232-4.168.468-6.653.303.308-1.404 1.382-2.045 1.206-3.934-2.893-.174-3.197 2.246-4.232 3.934-.854-.254-1.865-.354-2.726-.607.367-2.254 1.864-3.377 2.422-5.442-1.012-1.229-2.729.218-3.325 1.211-.977.837-1.396 2.231-2.42 3.022-.93-.078-1.361-.654-2.117-.906 1.253-2.273 2.572-4.482 3.63-6.955-1.988-.992-2.931 1.44-4.234 2.114-.88 1.438-2.062 2.576-2.721 4.235-1.361-.054-2.195-.628-3.026-1.209.145-2.979 1.998-4.254 2.118-7.261-2.368.354-2.974 2.471-4.232 3.934-.65-.438-2.166-1.011-1.212-2.118.162-1.048.812-1.61.906-2.721.661-1.763 1.617-3.221 1.814-5.443-2.341-.327-2.396 1.632-3.628 2.418-.36 1.655-1.456 2.58-1.813 4.234-1.024-.688-1.843-1.586-2.423-2.723.494-1.723 1.054-3.383 1.517-5.143.308-1.412 1.897-3.357.603-4.535-1.505.308-1.62 2.007-2.721 2.723-.137.771-.427 1.389-.909 1.812-.103.703-.193 1.416-1.209 1.211-1.292.083-.021-1.326 0-1.814.004-.713-.521-.892-.303-1.814.532-3.021 2.951-5.688 2.118-9.074-1.661-.047-1.704 1.525-2.418 2.42-.828.787-.862 2.366-2.118 2.724-.482-2.277-1.537-5.474-1.212-7.562.14-.646-.435-.575-.906-.604.068-1.545 1.97-1.259 2.722-2.119-.189-.718-1.859.048-2.118-.604.041-.968 1.35-.666 1.815-1.209 3.305.527 6.846.818 9.98 1.512.923.218 1.103-.31 1.814-.303h3.327c.714-.25 1.392.427.3.303h-1.509c.131.677 1.488.122 2.118.302h2.418c14.041.578 27.17 2.065 42.041 1.815-2.291 11.117-4.508 22.309-10.59 29.639zm11.196-11.493c.86-2.871 1.491-5.967 2.418-8.772 1.975-1.866 5.784-.925 9.073-.906a2.73 2.73 0 0 0 1.209 1.209c.166.539.153 1.257.604 1.513-.351 1.666-1.205 2.827-2.116 3.932-2.702 2.033-7.527 1.948-11.188 3.024zm19.052-5.142c-.211 1.299-.388 2.636-.907 3.629-.042 1.367-1.241 1.582-1.207 3.023-2.327.804-4.541 1.714-7.564 1.815-.955.654-2.902.32-3.931.905-.806.003-1.729-.112-2.118.304-.532.174-1.774-.364-1.813.303-1.236.144-.044-.813.303-.907.265-.444.452-.959 1.211-.907.795-.716 2.026-.995 3.326-1.21 2.162-.76 4.891-.955 6.652-2.116 2.261-1.472 3.324-4.136 3.023-8.167-.16-.243-.313-.49-.303-.906-.544-1.371-1.719-2.111-2.722-3.024-2.815-.761-6.535-.741-9.377 0 .503-.607.813-1.406 1.815-1.513.132-.373.388-.623.908-.604.672.166.43-.579.907-.604.075-.327.603-.205.604-.604h4.838c1.481.332 2.49 1.137 3.934 1.51.422 1.193 1.466 1.763 2.118 2.726-.236 2.448.437 3.996.303 6.347zM38.615 25.979c-1.817-.031-3.127-.576-5.212-.345-.212.019-.408.05-.349.345h-.693c-.656-.078-.769.394-1.389.351-1.935 1.19-3.179 3.073-4.519 4.866-.036.888-.197 1.656-.694 2.084-.025 2.577-.081 5.176.347 7.297 1.52 1.955 2.834 4.117 5.562 4.867.21.017.408.049.348.347 7.249.53 11.48-1.96 13.203-6.95 1.649-6.765-2.508-10.687-6.604-12.862zM33.751 38.84c-.921-1.398-1.016-3.617-1.39-5.561 2.047-2.709 6.662-.679 6.604 2.78-.395 2.27-2.348 2.977-5.214 2.781zm70.201 52.821c.249-4.882-.572-8.691-.351-13.552.217-2.532-.604-4.028-.346-6.603-.216-.944.439-2.76-.347-3.13-.214-.943.442-2.76-.349-3.127-.938-8.332-5.099-13.44-9.035-18.767-3.303-1.562-6.572-3.155-10.772-3.823-3.328-.2-5.853.402-8.688.695-.866.871-2.491.985-3.478 1.736-.724.204-1.122.732-1.735 1.044-.004.46-.61.317-.694.694-.39-.036-.544.507-.696 0 .135-2.449.025-4.661-1.043-5.906-.986-.06-1.449-.638-2.434-.696-4.97.823-9.852 1.733-12.854 4.519.251 2.216-.124 4.067 0 6.95-.103 1.408-.6 2.414-.696 3.824-.406 8.281.813 14.937 1.39 22.239.879 6.999 1.756 13.996 3.472 20.157a26.31 26.31 0 0 0 3.825 3.82c5.4.604 13.368 1.21 14.248-3.82.177-2.723-1.438-3.658-1.737-5.908-1.176-5.66-1.157-12.508-2.087-18.418.252-3.709-.38-8.055 0-10.773.904-1.299 2.069-2.335 4.178-2.432 3.58.816 5.213 3.583 6.943 6.254 1.115 7.228 3.725 12.959 3.128 21.896.966 2.978.666 7.215 1.741 10.078.46.35 1.291.327 1.391 1.043.618.19 1.443.177 1.734.694 4.882-.33 11.376.948 14.25-1.391.326-1.189 1.087-2.152.347-3.475.002-1.503.807-2.204.695-3.822zm-6.257 2.087c-1.461.738-4.231.169-6.254.348-.559-1.412-.53-3.41-1.045-4.865.06-11.064-2.258-19.75-5.908-27.106-2.159-2.473-4.383-4.881-7.295-6.602-.493.029-.986.056-1.043-.349h-3.479c-1.007.378-2.454.325-3.128 1.042-1.461-.071-1.458 1.32-2.778 1.391-.707 1.146-1.27 2.438-2.086 3.475-.029.552.168 1.327-.346 1.391.01 3.256.103 6.588-.35 9.383.543 7.104.257 15.033 1.394 21.547-1.591-.248-3.529.393-4.175 0v-2.435c-.373-1.131-1.204-1.806-1.386-3.127.184-4.847 1.114-10.635.695-14.945-.489-.859-1.196-.612-2.088-.35 1.3-4.378 3.081-8.275 3.479-13.552-.493-.897-.814-1.968-2.083-2.087-2.067.022-2.691 1.479-2.781 3.478-.575-.889-.59-2.331-.346-3.127-.795-.596-.129-2.655-.351-3.825-.149-.661-.747-.873-.695-1.737-.757.062-1.103-.285-1.043-1.043v-3.127c1.798-1.505 6.017-2.385 7.649-.348 1.093 1.633-.775 2.631 0 4.169.461.349 1.046.573 1.388 1.044 1.949.211 2.812-.66 3.475-1.738.804.471 1.152 1.396 2.779 1.043 2.566-.906 4.354-2.597 7.299-3.128h6.602c2.387.513 4.059 1.737 6.258 2.433 3.264 4.847 6.569 9.646 7.297 17.029-.027 2-.074 4.011.348 5.561v4.518c.495 4.534.62 11.125-.003 15.639zM41.049 64.557c-.031-5.182.272-10.7-1.387-14.248-2.141-2.264-7.117-1.692-11.472-1.739-.499.195-.847.541-1.044 1.042-2.051 1.918-1.287 7.188-1.735 10.775-.677 3.374-.69 7.419-1.044 11.121-.611 7.492-.253 15.962-.347 23.978.755-.061.158 1.229.348 1.738.687.818 1.203 1.805 1.739 2.776.477 1.033 1.489 1.522 2.434 2.088 4.384-.019 7.667-1.139 11.468-1.737.647-.974 1.671-1.576 1.739-3.127.207-1.531 2.203-1.272 2.084-3.13-.213-4.913-.987-9.75-1.389-14.597l-1.394-14.94zM30.973 94.789c-1.223-12.713.669-25.262.695-37.88 1.06-.21 1.81-.736 2.781-1.041h.691c-.576 13.356.837 25.475 2.087 37.88-2.456-.023-4.182.684-6.254 1.041z"/><defs ><path id="B" d="M2576.223 2568.208c-.037-.726-.416-1.104-1.141-1.137-.49-.654-1.609.463-2.568.282-.537.8-1.271 1.391-1.43 2.566-.499.736-.113 2.355-1.139 2.566-.623.27-2.562-.173-3.994 0-1.393-.032-3.01.152-3.996-.281-2.824-.03-5.418-.293-7.701-.858-3.721.657-8.646.104-12.838.284-.936-.012-1.092-.811-2.283-.57-1.217.117-2.938-.274-3.709.286h-1.996c-.547-.132-1.229.878-1.145-.286-.402-.023-.807-.048-.855.286-1.211.218-2.496.354-3.705.572h-4.851c-1.085.161-3.3.683-4.28 0 1.584-2.979 3.232-5.898 4.564-9.132.602-1.68 1.36-3.203 2.282-4.564.259-.881.711-1.568 1.14-2.281.743-.214 1.168-1.602.568-2.281-2.271-.707-3.75 1.468-4.56 3.14-1.197 1.559-1.863 3.655-3.142 5.133-2.024 3.396-4.193 6.649-5.99 10.272-2.391-.012-4.312.441-6.562.567 1.134-3.337 2.709-6.228 4.28-9.129 1.002-1.188 1.368-3.003 2.565-3.993.328-1.542 2.275-2.779 1.428-4.565-2.111-.995-3.284 1.229-4.28 2.282-1.23 1.053-1.935 2.629-3.138 3.709-.709 1.572-1.664 2.9-2.565 4.279-.188.954-.889 1.396-1.144 2.282-.463.679-.641 1.642-1.14 2.282v1.999c.345-.091.981.823.284.854-1.752-.148-4.129.327-5.421-.284 1.567-1.379 2.159-3.735 2.854-5.99 1.03-1.819 1.598-4.105 2.565-5.991.682-2.265 1.803-4.093 2.568-6.277.323-1.101 1.229-1.623 1.424-2.852.572-.608 1.646-1.789.854-2.853-2.416-.846-3.817 1.657-4.848 3.135-1.371 1.486-2.371 3.336-3.139 5.423-1.969 3.641-3.508 7.715-4.852 11.98-.326.337-.322 1.011-.283 1.714-.273.531.854.951 0 1.143-1.201-1.084-1.648-2.917-1.711-5.138-.053-.621.231-.905.854-.857.039-.528.187-.95.568-1.137.437-2.42 1.445-4.265 1.998-6.563.914-1.844 1.334-4.183 2.283-5.991.705-2.052 1.071-4.444 2.28-5.988.201-2.218 2.397-3.83 1.431-6.278-1.609-.574-2.837 1.484-3.711 2.566-.771 1.512-1.843 2.723-2.283 4.564-1.879 2.588-2.742 6.199-4.277 9.131.306-.905-1.106-2.398.283-2.567.551-.593.902-1.384 1.428-1.999.979-3.965 2.271-7.62 3.425-11.41.737-1.734 1.35-3.596 1.996-5.42.446-.791.887-1.589 1.143-2.568.701-.256.771-1.996.283-2.568-.619-.477-2.568-.459-2.852.287-.853.021-1.187 2.025-1.714 1.425.576-1.419 1.058-2.938 1.427-4.563.606-1.158 1.747-2.992.571-4.279-3.158-.968-4.123 2.465-5.135 4.565-1.031 2.297-1.57 5.085-2.854 7.13.158-4.214 1.189-7.559.855-12.265-.139-.902.516-1.009.285-1.998.182-4.193-.367-9.119.284-12.841 4.218.223 7.5-.485 10.845-1.14 4.895.104 6.59-.462 10.84.285 2.43 2.419 3.25 6.448 4.563 9.983.656.577 1.449 1.022 1.996 1.713.838.3 1.892.393 2.57.855 12.469.119 24.617-.999 36.801-.284 3.125.775 6.554 1.245 9.129 2.564 1.181-.037 2.203.08 2.855.571 1.018.025 1.957.134 2.282.855.666 1.443 0 2.509 0 3.708.537.697.609 1.862.566 3.14.495.65.612 1.674.572 2.854 1.301-.257 1.615.477 2.565.569 1.437-2.692 1.416-8.226.855-11.979-.544-.787-1.164-1.5-1.711-2.283s-2.166-.498-2.566-1.43c-.643-4.255 1.673-8.312-.571-10.839-5.449-.635-12.209.035-17.404-.858-11.451.91-24.973-.247-35.375 1.713-.914-2.315-2.019-4.448-3.709-5.989-4.049-1.873-7.392-1.186-11.983-1.426-4.686.541-8.312 2.146-13.405 2.282-.845.394-1.157 1.315-2 1.71-.473.764-1.965.505-2.565 1.143-.488 1.605-1.403 2.777-1.713 4.563-.162 3.828.346 8.332-.284 11.695.649.396.104 1.987.284 2.854v8.845l1.713 12.838v7.418c.682 3.4.635 7.09.854 11.412.232 4.521 1.252 8.342 3.14 11.129.713-.049.894.437 1.139.854 1.74.547 3.495 1.073 5.424 1.427h10.841c8.75-1.237 20.086.114 28.53-1.427h13.406c.94.199 1.824.459 2.854.572 6.377.143 12.818 1.555 19.4.566 1.42-.859 2.076-2.486 3.137-3.709.185-1.431.756-2.476.855-3.992.407-.364.513-1.707-.268-1.712zm-51.355-58.77c5.741-.48 13.372-.461 19.114 0 7.323-.191 14.094.174 20.254 1.142h5.137c-.211 1.788-.387 3.604-.283 5.706-3.098-.991-6.097-2.082-9.701-2.566-7.748.416-15.762.184-23.395-.287-4.412.182-8.229-.072-13.122 0-.55-1.063-.901-2.327-1.143-3.707 1.179.035 1.789-.497 3.139-.288zm53.921 43.651c-.162-2.442.191-4.373.285-6.561-.586-1.259-2.017-1.411-2.853-2.283-.942-.679-2.182.233-2.854-.285.108-2.844-.266-6.159.288-8.559-.542-.79-.78-1.884-1.427-2.568-.92-.508-.978-1.877-2.283-1.998-.035-.631-1.21-.12-1.713-.284-.242-.425-.717-.613-1.426-.568-1.938.34-3.978.584-6.276.568-.899 1.003-2.153 1.653-3.138 2.566-.957 1.515-1.728 3.22-2.57 4.85.199 2.387-.479 3.895-.283 6.278-1.865.04-3.482.32-4.85.854-2.623 4.521-.299 11.021-1.144 16.832.039 1.104 1.156 1.127 1.427 2 .17 1.062.998 1.473 1.428 2.28 4.156 1.739 10.342 1.449 16.264 1.427 1.84-.632 3.377-1.567 5.135-2.282 1.217-1.733 3.174-2.72 3.99-4.851.83-.822-.553-.892-.283-1.997 1.31-1.253 1.723-3.411 2.283-5.419zm-17.404-18.831c1.2-1.129 3.478-.857 5.422-.566.285.378.269 1.059.857 1.141.393.174.041 1.098.568 1.143v7.986c-2.585.664-6.148.147-8.844 0-.111-4.013.768-7.033 1.997-9.704zm12.27 24.537c-.655.771-1.013 1.841-1.999 2.282-.543.787-1.113 1.551-1.996 1.998-2.127-.457-4.592.237-6.851.282-1.012.023-2.017-.176-3.134-.282-1.206-.118-2.612.03-3.425-.286-.117-.048.01-.27-.289-.284-.479-.026-.576-.827-1.142-.854-.516-.029-.458-.935-1.138-1.144.021-.405.046-.811-.288-.854-.21-2.303.465-3.723.288-5.991.069-.976.72-1.371.569-2.565.176-.775-.363-2.27.285-2.567.778.207.573-.568 1.141-.57l18.826.854c.404 1.902.068 4.062-.566 5.706.128 1.645-.116 2.918-.281 4.275zm-7.421-8.274c-1.361-.648-3.036-.037-4.279.284-.373.861-.92 1.55-.854 2.854.257 1.264 1.369 1.673 1.998 2.568-.444.414-.602 1.109-.571 1.994.633.509 1.156 1.123 2.565.855.812-.709.991-2.054.856-3.709.545-.783 1.091-1.57 1.142-2.852-.31-.635-.47-1.424-.857-1.994zm-33.951 20.541c.418-.174-.025-.345 0 0h0z"/></defs></svg>
