<?xml version="1.0" encoding="utf-8"?>
<!-- Generator: Adobe Illustrator 18.1.1, SVG Export Plug-In . SVG Version: 6.00 Build 0)  -->
<svg version="1.1" id="Layer_1" xmlns="http://www.w3.org/2000/svg" xmlns:xlink="http://www.w3.org/1999/xlink" x="0px" y="0px"
	 viewBox="1082.4 0 334.8 798.8" enable-background="new 1082.4 0 334.8 798.8" xml:space="preserve">
<g>
	<g>
		<g>
			<path fill="#F37064" d="M1355.7,606.9c-18.4,6.1-199.2,110.3-199.2,116.5c0,6.1,0,88.9,21.5,73.6
				c21.5-15.3,245.2-168.6,239.1-190C1417,600.8,1374.1,600.8,1355.7,606.9z M1315.9,370.9c-15.3-6.1-233-42.9-233-36.8
				c-3.1,3.1,6.1,82.8,27.6,82.8s110.3,6.1,128.7,12.3C1325.1,459.8,1331.2,377,1315.9,370.9z M1300.6,162.5
				c46,82.8,113.4,36.8,104.2,21.5C1395.6,168.6,1245.4,0,1242.3,0c-6.1,0-58.2,52.1-39.8,67.4
				C1220.9,82.8,1288.3,144.1,1300.6,162.5z"/>
		</g>
	</g>
</g>
</svg>
