<?xml version="1.0" encoding="utf-8"?>
<svg version="1.1" id="Layer_1" xmlns="http://www.w3.org/2000/svg" xmlns:xlink="http://www.w3.org/1999/xlink" x="0px" y="0px"
	 viewBox="0 0 100 100" style="enable-background:new 0 0 100 100;" xml:space="preserve">
<path d="M30.5,51.2h-0.6l-0.5,0.1l-0.8-0.1l-0.5,0.2l-0.8,0.1h-0.7l-0.4-0.1l-0.2,2.4l0.1,2.8L26.1,59l0.1,1.7l-0.1,0.9v7.8L26,71.5
	l0.7,0.5h0.6l0.9-0.1l0.4,0.1l0.9-0.1l0.4,0.1h0.6l0.4-0.2l0.2-2.4v-2.6l-0.1-2.9l-0.2-2.6l0.3-2.3l-0.1-3.1l-0.1-1l0.1-1.1v-1.4
	L31,51.5L30.5,51.2z M53.6,30.5c0.4,0.3,0.7,0.1,1,0.3c0.6,0.3,1.3,0.8,2.1,0.8c0.4,0,0.9-0.1,1.5-0.3c0.5-0.2,1-0.5,1.5-0.9
	c0.4-0.3,0.5-0.6,0.8-1c0.1-0.2,0.6-0.5,1-0.8c0.2-0.1,0.4-0.3,0.7-0.3c0.1,0,0.2,0,0.3,0c0.2,0,0.4-0.2,0.4-0.4v-1.5l-0.1-0.6
	l0.1-1.3v-1c0-0.1,0.1-0.3,0-0.3c-0.2-0.1-0.5-0.2-0.7-0.2c-0.4,0-0.7,0.3-1,0.6c-0.2,0.2-0.3,0.4-0.4,0.5c-0.6,0.8-1.4,1.3-2.2,1.6
	c-0.3,0.1-0.6,0.2-0.8,0.3c-0.4,0.1-0.7,0.2-1,0.2c-0.3,0.1-1,0.1-1.9-0.1c-0.3-0.1-0.7-0.5-1-0.6c-0.3-0.1-0.4,0.1-0.8-0.1v1.7
	l0.3,1.8L53,30.1C53.2,30.2,53.4,30.4,53.6,30.5z M65.9,58.9l0.1-0.9l-0.2-1v-5.5l-0.3-3.1l0.1-1.3l0.1-0.9l-0.1-1.3L64.5,44
	l-0.8-0.6l-1.4-0.9l-2.3-2l-1.4-1.1l-3.6-2.6l-2.2-1.2L52.3,35l-0.7-0.8v-4.4l-0.2-1.9l0.2-2.5c0-0.2,0-0.4-0.1-0.6
	s-0.2-0.2-0.3-0.3c-0.1-0.1-0.3-0.4-0.5-0.4s-0.4-0.5-0.6-0.5s-0.4,0.3-0.6,0.3c-0.2,0.1-0.2,0.4-0.4,0.5s-0.2,0.3-0.3,0.5
	s-0.1,0.4-0.1,0.6L48.5,27l0.2,2.7v4.4l-1.2,0.9L46.5,36l-1.4,0.8l-3.4,2.8l-2.6,1.9l-1.2,1l-2.1,1.3l-0.7,0.5
	c-0.4,0.3-0.6,0.8-0.6,1.2l0.1,3l-0.2,3l0.2,3.4l-0.2,3.4v9l0.2,2.7l-0.2,2h4.9l2.5,0.2l2.4-0.4l0-1.8l0-1.5l-0.2-2.4l-0.2-2.6
	l0.4-4.6v-4.4c0-0.8,0.2-1.5,0.4-2.1c0.3-0.7,0.5-1.4,1-1.9c0.5-0.5,1.3-0.8,1.9-1c0.7-0.3,1.4-0.4,2.1-0.4s1.6,0.3,2.2,0.6
	c0.7,0.3,1.1,0.5,1.6,1c0.5,0.5,0.9,1.1,1.2,1.7c0.3,0.7,0.4,1.4,0.4,2.1l0.2,4l-0.2,4.7v4.4l0.1,3l-0.1,0.8l1.1,0.7l4.2-0.2
	l2.5-0.2l2.7,0.2l-0.1-1.1l0.1-1l-0.2-1.7l0.1-1.2l0.1-2l-0.1-3l0-2.5L65.9,58.9z M61,62.4c-0.1-0.7,3.3-3.1,3.4-2.5
	c0.2,0,0.1,1.1,0.1,1.3c0.2,0.2-2.9,2.3-3,2.3S61,62.8,61,62.4z M64.4,68.9c-0.1,0.3-1,1-1.2,1.1c-0.2,0-0.5-0.6-0.5-1
	c0-0.4,1.2-1,1.5-1.1C64.3,67.9,64.5,68.6,64.4,68.9z M64.6,65.3c-0.1,0.3-1.9,1.4-2.2,1.3c-0.2,0-0.4-0.8-0.5-1.1
	c-0.1-0.2,2.4-1.8,2.4-1.9C64.6,63.7,64.7,64.9,64.6,65.3z M73.4,56.4l-0.1-4v-0.9l-0.5-0.2l-0.6,0.1l-0.7,0.1l-0.7-0.1h-1.3
	L69,51.5l-0.7-0.1l0.2,1.2l-0.2,1.2v7.8l0.2,2.9l-0.2,2.3v2.6l0.1,1l0.1,1.4L69,72l1.1-0.1l0.9,0.1h0.6l1-0.2l0.7-0.1l0.2-2.3
	l-0.2-1.9l0.2-3.3V59l-0.1-1.2L73.4,56.4z"/>
</svg>
