<?xml version="1.0" encoding="utf-8"?>
<!-- Generator: Adobe Illustrator 24.3.0, SVG Export Plug-In . SVG Version: 6.00 Build 0)  -->
<svg version="1.1" id="Layer_1" xmlns="http://www.w3.org/2000/svg" xmlns:xlink="http://www.w3.org/1999/xlink" x="0px" y="0px"
	 viewBox="0 0 100 100" style="enable-background:new 0 0 100 100;" xml:space="preserve">
<style type="text/css">
	.st0{fill:#FFFFFF;}
</style>
<path class="st0" d="M99.7,44C97,25,83.4,8.9,64.8,3c-5.7-1.8-20.5-5.2-36.3,2.3C12.5,12.9,1.3,28.9,0.1,46.1
	c-1.7,24.1,16,39.2,19.5,41.9c8.6,6.8,20.1,10.9,31.4,11.4c0.7,0,1.5,0,2.2,0c8.6,0,20.2-2.1,30.5-10.9
	C103.3,71.7,99.8,45.2,99.7,44z M29.2,6.7c15.2-7.2,29.6-3.9,35.1-2.2C69,6,73.4,8.2,77.4,10.9c-1.9-1-3.8-1.8-5.6-2.5
	c-2.7-1-24.1-8-43.7-1.2C28.5,7.1,28.9,6.8,29.2,6.7z M1.7,46.2c0.7-9.4,4.4-18.5,10.4-25.9c-6.4,9.9-8.9,22-9.2,24.1
	c-1.1,10.7,1.5,21.9,7.3,31.3C5.4,68.7,0.8,58.7,1.7,46.2z M82.7,87.3C75,94,63.5,98.2,51.1,97.9c4.1,0,8.5-0.7,13.1-2.2
	c22.1-7.3,34.6-30.5,32.6-55.3c-0.1-1.3-0.3-2.5-0.5-3.7c0.8,2.5,1.3,5,1.7,7.6C98.2,45.4,101.6,71.1,82.7,87.3z"/>
<path d="M43.5,34.2c0.1,3.9,1.7,7.7,4.4,10.6C47.7,40.9,46.2,37.1,43.5,34.2z M50,37.1c1.2-2.4,2.7-4.7,4.6-6.6
	c0.5-0.5,1-0.9,1.5-1.4c-0.2-1.3-0.4-2.9-0.9-4.1c-0.7-1.7-1.8-2.8-3-3.9c-0.7-0.7-1.5-1.3-2.3-1.7c-0.8,0.4-2.1,1.2-2.8,1.8
	s-0.7,1.3-1.2,2.2c-0.5,0.8-0.9,1.7-1.3,2.6c-0.4,0.9-0.6,2-0.8,3c0.5,0.5,1,0.9,1.5,1.4C47.3,32.4,48.8,34.7,50,37.1z M34.2,56.5
	c3.9-0.1,7.7-1.7,10.6-4.4h-0.2C40.8,52.3,37.1,53.9,34.2,56.5z M34.2,43.5c2.8,2.6,6.5,4.2,10.4,4.4h0.2
	C41.9,45.2,38.2,43.6,34.2,43.5z M56.5,34.2c-2.7,2.9-4.3,6.6-4.4,10.6C54.8,41.9,56.4,38.2,56.5,34.2z M55.2,47.8h0.2
	c3.9-0.2,7.6-1.7,10.4-4.4C61.8,43.6,58.1,45.2,55.2,47.8z M65.8,56.5c-2.8-2.6-6.5-4.2-10.4-4.4h-0.2
	C58.1,54.8,61.8,56.4,65.8,56.5z M67.1,39.5c0.7,0,1.4,0,2,0.1c0.8-1.2,2.1-1.9,2.5-3.2c0.6-1.6,0.4-3.9,0.3-5.4
	c0-0.9-0.1-1.8-0.4-2.6c-0.9-0.3-2.3-0.7-3.2-0.7c-1.5,0.1-2.7,0.3-4.1,0.8c-1.4,0.5-2.6,1.5-3.9,2.4c0.1,0.7,0.1,1.4,0.1,2
	c0,2.7-0.5,5.4-1.4,7.9C61.7,40,64.4,39.5,67.1,39.5z M71.4,63.1c-0.4-1-1.6-1.7-2.3-2.7c-0.7,0.1-2-0.3-2.7-0.3c-2.7,0-4.7,0-7.3-1
	c0.9,2.5,1.4,5.2,1.4,7.9c0,0.7,0,1.4-0.1,2c1.1,0.8,2.3,1.4,3.5,1.9c1.6,0.6,2.5,1.1,4.1,1.1c0.9,0,2.6-0.3,3.5-0.6
	c0.4-1.2,0.5-2.5,0.3-3.9C71.8,66.2,72,64.5,71.4,63.1z M50,62.9c-1.2,2.4-2.7,4.7-4.6,6.6c-0.5,0.5-1,0.9-1.5,1.4
	c0.2,1.1,0.5,2.1,0.9,3.1c0.5,1.3,0.8,3.1,1.6,4.2c1,1.4,2.5,1.8,3.7,2.4c0.9-0.5,2.1-1.2,2.9-2.1c0.6-0.7,1.5-1.9,2-2.8
	c0.9-1.5,0.9-2.8,1.3-4.7c-0.5-0.5-1-0.9-1.5-1.4C52.7,67.6,51.2,65.3,50,62.9z M56.5,65.8c-0.1-3.9-1.7-7.7-4.4-10.6
	C52.3,59.1,53.8,62.9,56.5,65.8z M76.6,45.5c-1.5-0.9-3.8-1.3-5.7-1.7c-0.5,0.5-0.9,1-1.4,1.5c-1.9,1.9-4.1,3.5-6.5,4.6
	c2.4,1.2,4.6,2.7,6.5,4.6c0.5,0.5,0.9,1,1.4,1.5c1.6-0.3,3-0.8,4.3-1.4c1.2-0.6,2.3-0.9,3.2-1.7c0.9-0.8,1.6-2.1,2.1-3
	C79.6,48.3,78.6,46.7,76.6,45.5z M32.9,60.5c-0.7,0-1.4,0-2-0.1c-2.6,3.8-3.5,8-2.5,11.2c0.9,0.3,1.8,0.4,2.8,0.4
	c3-0.1,6-1.1,8.4-2.9c-0.1-0.7-0.1-1.4-0.1-2c0-2.7,0.5-5.4,1.4-7.9C38.3,60,35.6,60.5,32.9,60.5z M30.5,54.6
	c1.9-1.9,4.1-3.5,6.5-4.6c-2.4-1.2-4.6-2.7-6.5-4.6c-0.5-0.5-0.9-1-1.4-1.5c-1.8,0.3-3.4,0.9-4.9,1.7c-1.1,0.6-2.1,1.2-2.9,2
	c-0.8,0.8-1.5,1.6-1.9,2.5c0.4,0.7,0.9,1.4,1.5,2.1c1.1,1.2,2.8,1.6,4.6,2.4c1.1,0.5,2.2,1.4,3.5,1.7C29.6,55.6,30.1,55.1,30.5,54.6
	z M43.5,65.8c2.7-2.9,4.2-6.6,4.4-10.6C45.2,58.1,43.6,61.8,43.5,65.8z M28.6,36c0.5,1.3,1.5,2.4,2.3,3.6c0.7-0.1,1.4-0.1,2-0.1
	c2.7,0,5.4,0.5,7.9,1.4c-0.9-2.5-1.4-5.2-1.4-7.9c0-0.7,0-1.4,0.1-2c-1.3-0.9-2-1.8-3.5-2.3c-1.3-0.4-3.4-0.7-4.8-0.8
	c-0.9,0-1.9,0.3-2.8,0.6c-0.4,1.3-0.5,2.7-0.3,4.3C28.3,33.7,28.2,34.9,28.6,36z"/>
</svg>
