<?xml version="1.0" encoding="utf-8"?>
<!-- Generator: Adobe Illustrator 23.1.1, SVG Export Plug-In . SVG Version: 6.00 Build 0)  -->
<svg version="1.1" id="Layer_1" xmlns="http://www.w3.org/2000/svg" xmlns:xlink="http://www.w3.org/1999/xlink" x="0px" y="0px"
	 viewBox="0 0 100 98.8" style="enable-background:new 0 0 100 98.8;" xml:space="preserve">
<style type="text/css">
	.st0{fill:#83C7BD;}
	.st1{fill:#030304;}
</style>
<g>
	<path class="st0" d="M99.7,43.5C96.9,24.2,83.3,8.3,64.8,2.4c-5.7-1.8-20.5-5.2-36.3,2.2C12.5,12.3,1.3,28.3,0.1,45.5
		c-1.7,24.1,16,39.2,19.5,42c9.1,6.9,20.1,10.8,31.4,11.3c0.7,0,1.5,0,2.2,0c11.1,0.2,22-3.7,30.5-10.9
		C103.3,71.1,99.8,44.6,99.7,43.5z M29.2,6.1c15.2-7.2,29.6-3.9,35.1-2.2c4.6,1.5,9.1,3.7,13.1,6.5c-1.8-0.9-3.7-1.7-5.6-2.5
		c-2.7-1-24.1-8-43.7-1.2C28.5,6.5,28.9,6.3,29.2,6.1z M1.7,45.6C2.5,36.1,6.1,27,12.1,19.6C7.6,27,4.5,35.2,3,43.8
		c-1.1,10.9,1.5,21.9,7.3,31.3C4.1,66.5,1,56.1,1.7,45.6z M82.7,86.7C75,93.4,63.5,97.6,51.1,97.3c4.5,0,8.9-0.8,13.1-2.2
		c22.1-7.3,34.6-30.5,32.6-55.3c-0.1-1.3-0.3-2.5-0.4-3.8c0.8,2.5,1.3,5,1.7,7.6C98.2,44.8,101.6,70.5,82.7,86.7L82.7,86.7z"/>
	<path class="st1" d="M78.2,61.7c0-0.9-3.1-9.1-3.3-9.5c-1.2-1-2.4-1.9-3.7-2.8c-0.3-0.2,0-0.8,0.2-2.4s0.6-1.9,0.9-3.8s0-2.6-1.2-4
		c-0.9-1-2-1.8-3.3-2.3c-0.7-0.3-1.5-0.3-2.1,0c-1.2,0.5-8.2,5.9-8.2,5.9s-7.9-4.7-8.8-5c-0.9-0.4-1.8-0.8-2.6-1.3l-7-3.9
		c0,0-0.2-1.2-0.3-2c0.1-1.3,0.5-2.6,1-3.9c0.5-0.8,0.5-1.7,0.2-2.6c-0.8-1.2-2.2-1.8-3.6-1.7c-1.6,0.2-3.6,1.2-5.8,4.3
		c-1.5,2.3-2.4,4.9-2.8,7.6c-1.4,0.5-3.3,3-3.8,4.7c-0.3,1.9-0.5,3.9-0.4,5.9c-0.6,0-2.8,1.6-2.6,3.4c0.1,2.2,1.2,4.2,3,5.4
		c3.5,2.5,7.1,4.7,10.9,6.6c4.7,2.6,9.3,5.4,13.6,8.6c3.9,2.8,2.7,1.9,9,5.2s6.8,2.7,7.5,2.5s1.2-0.9,2.3-2.1s6.3-6,8.8-8.8
		C78.7,63,78.3,62.6,78.2,61.7z M66.8,38.8c0.4-0.3,0.8-0.4,1.2-0.4c1.2,0.8,2.2,1.8,3,3c0.2,0.6,0.2,0.8-0.6,1.6s-7.2,5.4-8,6.2
		s-2.9,1.7-3.9,2.4c-0.1,0.1-0.5,0.1-1.2,1.2l2.3-2.9h0.1c0.5,0,1.3-0.3,1.2-0.6c-0.5-0.9-1.2-1.7-2-2.4c-1.2-0.9-2.1-1.2-2.1-1.3
		S66,39.2,66.8,38.8z M60.4,52.1c1-0.4,1.9-1.1,2.8-1.8c1.2-1.5,2.7-2.8,4.3-3.8c1.6-0.9,1.8-1.2,2-1.1s-0.7,3.2-0.3,5.5
		s0.7,2.2,0.4,2.8c-0.6,0.9-1.4,1.6-2.3,2.2C66.2,56.4,65.7,57,65,57c-1-0.5-1.6-1.7-1.5-2.8c0.1-0.8,0-1.5-0.1-2.3
		c0.3,0,0.4-0.5,0-0.5c-0.6,0.2-1,0.6-1.2,1.2c-0.1,0.4-0.3,3.1,0.1,3.9s0.7,1.1,0.5,1.1c-1.2-0.3-2.3-0.8-3.3-1.4
		c-1.3-0.9-2.7-1.3-2.8-1.8C57.8,53.6,59.1,52.8,60.4,52.1z M56,43.7c-0.1,0.2-0.6,0.7-0.8,0.5s-9.4-5.4-9.6-6.1
		C45.6,38.2,56.1,43.5,56,43.7z M48.9,47.8c-0.5-0.2-0.5-0.8-0.5-0.8s-1.1-3.6-1.4-3.9s-1.2-2.6-1.1-2.8s0.9-0.3,1.1,0
		s2.7,7.7,2.7,7.7C49.4,48,49.1,47.9,48.9,47.8L48.9,47.8z M46.3,46.2c-0.3,0-0.6-0.1-0.8-0.2c-0.3-0.2-0.3-0.8-0.3-0.8
		c-0.2-0.9-0.5-1.8-0.9-2.6c-0.2-0.4-1.2-2.6-1-2.8s0.9-0.3,1.1,0S46.3,46.2,46.3,46.2L46.3,46.2z M34.7,25.2
		c0.5-0.9,1.5-1.3,2.5-1.1c1.2,0.4,1.4,1.1,0.9,1.5S35.9,26,35.5,26S34.4,26.1,34.7,25.2L34.7,25.2z M27.9,36.6
		c0.4,1.3,1.3,2.3,2.5,3c1.6,1.2,3.5,1.9,5.5,2.2c1.2-0.1,2.4-0.5,3.5-1.2c0.8-0.4,1.3-1.2,1.2-2.1c-0.1-0.5-1.6-3.8-1.4-4.1
		s0.8,0.2,0.9,0.3s4.9,3,4.9,3s-3.6,1.8-4.8,3.3c-0.9,1.1-1.3,2.6-1.2,4c0.2,0.4,3,2.1,10.2,7.1s10.9,7.4,12.8,7.5
		c1.9,0.3,3.8-0.1,5.3-1.2c1.4-1,2.7-2.1,3.8-3.5c0.6-0.7,0.8-1.4,0.6-1.8c-0.2-0.4-0.2-0.9-0.2-1.3c0.5,0.3,1,0.8,1.4,1.3
		c0.1,0.4,0,1-1.6,3.1c-1.4,2.1-3.3,3.8-5.5,4.9c-2,1-2.2,1.5-4.3,0.5S48.5,54,44,51.3S32.3,45,29.5,43.6s-3.8-1.9-3.8-2.4
		S26.9,37.1,27.9,36.6z M59.4,64.4c0.2-0.2,0.9-0.3,1.1,0s2.7,7.7,2.7,7.7c-0.3,0-0.6-0.1-0.8-0.2c-0.4-0.2-0.4-0.8-0.4-0.8
		s-1.2-3.6-1.4-3.9C60,66.4,59.6,65.4,59.4,64.4z M59.8,70.3c-0.3,0-0.5-0.1-0.8-0.2c-0.4-0.2-0.4-0.8-0.4-0.8
		c-0.2-0.9-0.5-1.7-0.9-2.6c-0.3-0.4-1.2-2.6-1.1-2.8s0.9-0.3,1.1,0C57.9,64.3,59.8,70.3,59.8,70.3z M76,62.9
		c-0.2,0.3-6.5,7.2-8.6,9.3s-2.3,2.7-3.2,2.8s-3.8-1.7-6.2-3s-12.4-6.8-15.6-8.8c-3-2.1-6.1-3.9-9.4-5.5c-2.7-1.4-5.3-3-7.7-5
		c-2-1.8-3.2-4.3-1.2-5.9c0,0,0.7,3.2,2.9,4.7c2.1,1.3,13.1,8.2,19.6,12.6c4.5,3.2,9.4,6,14.4,8.2c1.9,0.6,2.8,0.9,3.7,0.2
		c0.9-0.7,3.4-3.3,6.3-6.3s4.4-4.1,4.7-4.1c0.3,0,0.5,0.3,0.4,0.6C76.1,62.8,76,62.9,76,62.9z"/>
</g>
</svg>
