<?xml version="1.0" encoding="utf-8"?>
<!-- Generator: Adobe Illustrator 25.1.0, SVG Export Plug-In . SVG Version: 6.00 Build 0)  -->
<svg version="1.1" id="Layer_1" xmlns="http://www.w3.org/2000/svg" xmlns:xlink="http://www.w3.org/1999/xlink" x="0px" y="0px"
	 viewBox="0 0 100 100" style="enable-background:new 0 0 100 100;" xml:space="preserve">
<style type="text/css">
	.st0{fill:#83C7BD;}
</style>
<path class="st0" d="M99.7,44C97,25,83.4,8.9,64.8,3c-5.7-1.8-20.5-5.2-36.3,2.3c-16,7.6-27.2,23.6-28.4,40.8
	c-1.7,24.1,16,39.2,19.5,41.9c8.6,6.8,20.1,10.9,31.4,11.4c0.7,0,1.5,0,2.2,0c8.6,0,20.2-2.1,30.5-10.9
	C103.3,71.7,99.8,45.2,99.7,44z M29.2,6.7c15.2-7.2,29.6-3.9,35.1-2.2C69,6,73.4,8.2,77.4,10.9c-1.9-1-3.8-1.8-5.6-2.5
	c-2.7-1-24.1-8-43.7-1.2C28.5,7.1,28.9,6.8,29.2,6.7z M1.7,46.2c0.7-9.4,4.4-18.5,10.4-25.9c-6.4,9.9-8.9,22-9.2,24.1
	c-1.1,10.7,1.5,21.9,7.3,31.3C5.4,68.7,0.8,58.7,1.7,46.2z M82.8,87.3C75,94,63.5,98.2,51.1,97.9c4.1,0,8.5-0.7,13.1-2.2
	c22.1-7.3,34.6-30.5,32.6-55.3c-0.1-1.3-0.3-2.5-0.5-3.7c0.8,2.5,1.3,5,1.7,7.6C98.2,45.4,101.6,71.1,82.8,87.3z"/>
<path d="M50.6,44.8c-1.4,0-3.4,1.4-3.4,1.4s-0.7,0-1.4,2.4c-0.3,1,0.3,3.4,1,3.7c0.7,0.3,2.4,1.4,3.4,1.7c1,0.3,3.4-1,4.1-2
	s0.7-2.7,0-4.4S52,44.8,50.6,44.8z M43.5,34.2c0.7,0.7,2.4,3.1,3.1,4.1c0.4,0.6,2.4,1.9,3,2.8c0.4,0.5,0.8,0.6,1.4,0.3
	c0.5-0.3,1.2-0.9,1.7-1.4c0.7-0.8,1.4-1.3,1.7-1.7c0.5-0.7,2.6-3.1,4.1-4.8c0.7-0.8,1.5-2.5,1.7-2.7c0.7-0.7,0-1,0-1l-1-0.3
	c0,0-1.4,0-2,0s-3.4,0-3.4,0s0.7-1.4,0.3-2.4c-0.3-1,0-6.5-0.3-6.5h-2C51.3,20.6,49,21,49,21s-0.7-0.3-1.4-0.3
	c-0.7,0-1.4-0.3-1.4,0.3s0.3,6.1,0.3,6.8s-0.3,2-0.3,2s-2-0.3-2.4-0.3c-0.3,0-1.7,0-2,0.3c-0.3,0.3-0.7,0.3-0.7,0.3l0.7,2.4
	C41.8,32.5,42.2,32.8,43.5,34.2z M40.8,51c0.5-0.4,1.3-1.2,0.9-1.7c-0.3-0.5-1.6-0.9-2-1.3c-0.8-0.7-1.9-1.8-2.4-2.1
	c-0.7-0.5-2.4-1.9-4.1-3.4c-0.8-0.7-2.5-1.5-2.7-1.7c-0.7-0.7-1,0-1,0l-0.3,1c0,0,0,1.4,0,2s0,1.7,0,1.7s-1.4,0-2.4,0.4
	c-1,0.3-6.5,0-6.5,0.3v3.1c0,0.3-0.3,2.4-0.3,2.4s0.3,1,0.3,1.7c0,0.7,0.3,1.3,1,1.3s5.4-0.3,6.1-0.3s2.7,0.3,2.7,0.3s0,1.7,0,2
	c0,0.3,0,1.7,0.3,2c0.1,0.1-0.1,0.7,0,0.9c0.2,0.4,0.7,0.5,1,0.3l1.3-0.9c0,0,0.3-0.4,1.7-1.7c0.7-0.7,2.4-2.4,3.4-3.1
	C38.7,53.9,40,51.6,40.8,51z M59.8,67.3c0,0-1.1-1-2.4-2.4c-0.7-0.7-2.8-2.7-3.5-3.7c-0.4-0.6-2.4-1.9-3-2.8
	c-0.4-0.5-0.8-0.6-1.4-0.3c-0.5,0.3-1.2,0.9-1.7,1.4c-0.7,0.8-1.4,1.3-1.7,1.7c-0.5,0.7-2.6,3.1-4.1,4.8c-0.7,0.8-1.5,2.5-1.7,2.7
	c-0.7,0.7,0,1,0,1l1,0.3c0,0,1.4,0,2,0s2.1,0,2.1,0s-0.1,1.4,0.3,2.4c0.3,1,0,6.8,0.3,6.8h2c0.3,0,3.4-0.3,3.4-0.3s0.3,0.3,1,0.3
	s1.4,0.3,1.4-0.3c0-0.7,0.1-4.4,0.1-5.1c0-0.7,0-3.4,0-3.4s2,0,2.3,0c0.3,0,2,0,2.4-0.3c0.3-0.3,1.1-0.3,1.1-0.3l0.2-1
	c0.1-0.2,0.1-0.5,0-0.7L59.8,67.3z M79.6,45.1c-0.7,0-5.1,0.7-5.8,0.7s-2.4-0.3-2.4-0.3s0.3-2,0.3-2.4s0-1.7-0.3-2
	c-0.3-0.3-1-0.7-1-0.7L68.7,41c0,0-0.7,0.3-1.4,1s-3.1,3.1-4.1,3.7c-0.6,0.4-2.6,1.4-3.5,2c-0.5,0.4-0.6,0.8-0.3,1.4
	c0.9,1.3,3,4,3.7,4.4c1,0.7,5.8,5.8,6.5,6.1c0.7,0.3,1.7,0,1.7,0v-1c0,0,0.3-0.3,0.3-1c0-0.7,0-3.1,0-3.1s1.7,0.7,2.7,0.3
	c1-0.3,5.4-0.7,5.4-1c0-0.3-0.3-1.4-0.3-1.4s0.3-2,0.3-2.4s-0.3-2.4-0.3-2.4s0.3-0.7,0.3-1.4S80.3,45.1,79.6,45.1z"/>
</svg>
