<?xml version="1.0" encoding="utf-8"?>
<!-- Generator: Adobe Illustrator 26.5.0, SVG Export Plug-In . SVG Version: 6.00 Build 0)  -->
<svg version="1.1" id="Layer_1" xmlns="http://www.w3.org/2000/svg" xmlns:xlink="http://www.w3.org/1999/xlink" x="0px" y="0px"
	 viewBox="0 0 100 100" style="enable-background:new 0 0 100 100;" xml:space="preserve">
<style type="text/css">
	.st0{fill:#83C7BD;}
</style>
<path class="st0" d="M99.7,44C97,25,83.4,8.9,64.8,3c-5.7-1.8-20.5-5.2-36.3,2.3c-16,7.6-27.2,23.6-28.4,40.8
	c-1.7,24.1,16,39.2,19.5,41.9c8.6,6.8,20.1,10.9,31.4,11.4c0.7,0,1.5,0,2.2,0c8.6,0,20.2-2.1,30.5-10.9
	C103.3,71.7,99.8,45.2,99.7,44z M29.2,6.7c15.2-7.2,29.6-3.9,35.1-2.2C69,6,73.4,8.2,77.4,10.9c-1.9-1-3.8-1.8-5.6-2.5
	c-2.7-1-24.1-8-43.7-1.2C28.5,7.1,28.9,6.8,29.2,6.7z M1.7,46.2c0.7-9.4,4.4-18.5,10.4-25.9c-6.4,9.9-8.9,22-9.2,24.1
	c-1.1,10.7,1.5,21.9,7.3,31.3C5.4,68.7,0.8,58.7,1.7,46.2z M82.7,87.3C75,94,63.5,98.2,51.1,97.9c4.1,0,8.5-0.7,13.1-2.2
	c22.1-7.3,34.6-30.5,32.6-55.3c-0.1-1.3-0.3-2.5-0.5-3.7c0.8,2.5,1.3,5,1.7,7.6C98.2,45.4,101.6,71.1,82.7,87.3z"/>
<g>
	<path d="M63.3,32.3C58,32.3,52.7,32,47.3,32l1.3-3c0.3-1,1.3-1.8,2.4-1.8l33.5,0c1.8,0,3.1,1.9,2.3,3.5c-3.2,7.4-6.4,14.8-9.7,22.3
		c-0.3,1-1.3,1.8-2.4,1.8H61.1v5.1h4.7c3.3,0,3.3,5.1,0,5.1H51.3c-1,0-1.7-0.4-2.1-1.1c1.6-1,2-2.4,2.7-4h4v-5.1h-1.8
		C57.7,46.8,60.2,41,63.3,32.3L63.3,32.3z M16.9,57h11.9l2.3-6.2H19.6L16.9,57z M34.2,57h10.7l2.7-6.2H36.5L34.2,57z M32.9,45.8
		l2.3-6.2H24.5l-2.7,6.2H32.9z M40.6,39.6l-2.3,6.2h11.5l2.7-6.2H40.6z M20.4,36.3c0.3-1,1.3-1.8,2.4-1.8l33.5,0
		c1.8,0,3.1,1.9,2.3,3.5c-3.2,7.4-6.4,14.8-9.7,22.3c-0.3,1-1.3,1.8-2.4,1.8H32.9v5.1h4.7c3.3,0,3.3,5.1,0,5.1H23.2
		c-3.3,0-3.3-5.1,0-5.1h4.7v-5.1H13c0-0.6-3.4-1-2.3-3.5C13.9,51.2,17.2,43.7,20.4,36.3L20.4,36.3z M62.4,49.7h10.7l2.7-6.2H64.6
		L62.4,49.7z M68.8,32.3l-2.3,6.2H78l2.7-6.2H68.8z"/>
</g>
</svg>
