<?xml version="1.0" encoding="utf-8"?>
<!-- Generator: Adobe Illustrator 23.1.1, SVG Export Plug-In . SVG Version: 6.00 Build 0)  -->
<svg version="1.1" id="Layer_1" xmlns="http://www.w3.org/2000/svg" xmlns:xlink="http://www.w3.org/1999/xlink" x="0px" y="0px"
	 viewBox="0 0 100 100" style="enable-background:new 0 0 100 100;" xml:space="preserve">
<style type="text/css">
	.st0{fill:#FFFFFF;}
</style>
<path class="st0" d="M99.7,44C97,25,83.4,8.9,64.8,3c-5.7-1.8-20.5-5.2-36.3,2.3C12.5,12.9,1.3,28.9,0.1,46.1
	c-1.7,24.1,16,39.2,19.5,41.9c8.6,6.8,20.1,10.9,31.4,11.4c0.7,0,1.5,0,2.2,0c8.6,0,20.2-2.1,30.5-10.9
	C103.3,71.7,99.8,45.2,99.7,44z M29.2,6.7c15.2-7.2,29.6-3.9,35.1-2.2C69,6,73.4,8.2,77.4,10.9c-1.9-1-3.8-1.8-5.6-2.5
	c-2.7-1-24.1-8-43.7-1.2C28.5,7.1,28.9,6.8,29.2,6.7z M1.7,46.2c0.7-9.4,4.4-18.5,10.4-25.9c-6.4,9.9-8.9,22-9.2,24.1
	c-1.1,10.7,1.5,21.9,7.3,31.3C5.4,68.7,0.8,58.7,1.7,46.2z M82.7,87.3C75,94,63.5,98.2,51.1,97.9c4.1,0,8.5-0.7,13.1-2.2
	c22.1-7.3,34.6-30.5,32.6-55.3c-0.1-1.3-0.3-2.5-0.5-3.7c0.8,2.5,1.3,5,1.7,7.6C98.2,45.4,101.6,71.1,82.7,87.3z"/>
<path d="M63.5,64.6c-0.2-0.8-0.8-1.7-0.8-2.7c-0.6-0.8-0.9-2-1.4-2.9c-0.5-1-1.3-1.9-1.8-2.9c-1.3-1.4-2.8-2.6-3.4-4.7v-2
	c0.4-0.6,0.5-1.3,1.1-1.7c0.4-0.5,0.8-1,1.3-1.5c0.4-0.5,0.8-1.1,1.1-1.7c0.5-0.5,0.6-1.3,1.1-1.7c0.5-1.4,1.4-2.3,1.8-3.8
	c0.6-1.2,1-3,1.3-4.6c0-2.4,0-4.8-0.3-6.8c-0.2-0.3-0.5-0.5-0.7-0.8c-0.2-0.1-0.3-0.1-0.4-0.3c-0.3,0.1,0.1-0.6-0.4-0.4
	c-2.9-0.1-5.1-0.8-7.4-1.4c-2.1-0.3-4.4,0-6.8,0c-1.3,0.4-3.3,0.2-5,0.3c-2.2,0.4-3.9,1.3-6.4,1.4c-0.3,0.2-0.5,0.4-0.7,0.7
	c-0.1,0.4-1,0-1,0.6c-0.1,1.7-0.5,3-0.6,4.7c0.1,0.3,0.2,0.6,0.6,0.7c0.2,0.2,0.7,0.1,0.7,0.6c0,1,0.3,1.7,0.4,2.7
	c0.3,0.3,0.3,1,0.6,1.4c0.2,0.5,0.5,0.9,0.6,1.5c0.6,0.8,0.9,1.8,1.4,2.7c1,1.8,2.3,3.2,3.2,5c1.2,0.6,2.6,1,3.2,2.2
	c0.2,0.6,0.4,1.1,0.4,1.8c-0.4,1.2-1.5,1.6-2.5,2.2c-1,1.9-2.8,3.1-4.2,4.6c-0.7,1.1-1.4,2.2-2,3.4c-0.4,1.9-0.9,3.7-1.3,5.6V69
	c-0.1,0.7-0.2,2.8,0,3.3c0.4,1,1.1,1.6,1.7,2.4C39,76.2,44,78,46,77.9c3.8,0.2,5.9,0.6,10.2-0.1c2.6-0.5,5.9-2.8,8.1-3.8
	c0.2-0.5,0.3-1.1,0.7-1.4C65,69.4,64.1,67.1,63.5,64.6z M58.7,28c0.6,0.2,0.9,0.7,1.4,1c-0.4,0.4-1-0.3-1.5-0.3
	C58.5,28.3,58.8,28.4,58.7,28z M51.9,27.5c2.1,0,4.3-0.4,5.9,0.1c-0.1,0.3-0.4,0.4-0.4,0.8c-1.5-0.5-3.9,0.2-5.6-0.1
	C51.7,28,52,27.9,51.9,27.5z M49.6,27.5v0.8c-0.2,0.2-0.6,0.1-1,0.1C48.7,27.8,48.8,27.3,49.6,27.5z M45.6,27.8
	c0.4,0.1,0.5-0.3,1-0.1c-0.1,0.7-0.4,1.1-1.3,1C45.4,28.3,45.5,28,45.6,27.8z M44.9,44.8c-0.9-0.8-1.8-1.7-2.7-2.7
	c-1-0.8-1.4-2.1-2.2-3.1c-0.6-1.8-1.6-3.3-2-5.3v-2.1c1.9,0.2,3.9,0.2,5.9,0.3c3.9-0.4,9.2-0.7,13.1-0.3c1.3,0.4,2.7,0.8,3.9,1.3
	c-0.2,2.2-0.9,4.2-1.7,5.7c-0.4,0.8-0.8,1.6-1.3,2.2c-0.4,0.8-0.8,1.5-1.4,2.1c-1.5,0.1-2.4-0.4-3.5-0.7c-1.6,0.3-3.9,0-5.4,0.3
	c-0.6,0.2-1.2,0.5-1.5,1C45.8,44.1,45.2,44.2,44.9,44.8z M58.3,74.8c-0.3-0.1-1.1-1.2-1.1-1.2s-0.5-1-0.9-1.2
	c-0.4-0.2-0.3-0.3-0.3-0.5c0.1-0.2,0.4-0.2,0.6-0.1c0.8,0.4,2,2,2,2S58.7,74.8,58.3,74.8z M59.4,72.2c-0.3-0.1-1.1-1-1.1-1
	s-1-1-1.5-1.3c-0.5-0.2-0.4-0.3-0.3-0.6c0-0.2,0.5-0.5,0.8-0.4c0.2,0,2.4,2.1,2.4,2.1S59.8,72.1,59.4,72.2z M59.6,69.3
	c-0.3-0.2-0.9-0.7-0.9-0.7s-0.2-0.3-0.6-0.5c-0.4-0.2-0.2-0.1-0.2-0.3c0.1-0.2,0.4-0.7,0.7-0.5c0.2,0.1,1.3,1.4,1.3,1.4
	S60,69.2,59.6,69.3z M59.1,64.8c-0.3-0.4-0.5-1-1-1.3c-0.6-0.2-0.7,0-1.4,0c-0.8-0.2-0.9-1.1-1.8-1.1c-0.3-0.4-0.5-0.8-1-1
	c-0.4-0.9-1.2-1.5-2.1-1.8c-0.7,0-1.1,0.4-1.5,0.7c-0.6-0.1-0.9-0.2-1.5,0c-0.8,0.4-1.2,1.2-1.8,1.8c-2.5-0.2-3.2,1.3-4.2,2.7
	c-2-0.2-3,0.5-3.9,1.4c-0.4-0.2,0.2-0.5,0-1c0.3-0.1,0-0.8,0.3-0.8c0-0.8,0.3-1.2,0.4-2c0.4-1.2,1.1-2.1,1.7-3.1
	c1.9-1.5,3.5-3.2,4.5-5.6c1.6-0.4,2.5-1.6,3.4-2.7c0.9,0,1.4-0.3,1.8,0.3c0.7,0.1,0.7-0.5,1.1,0c0.3,0.2,0,1,0.3,1.3
	c0.4,0.9,1.7,1.1,2.1,2c0.7,0.5,1.2,1.3,2,1.8c0.3,0.8,1.2,1.3,1.5,2.1c0.5,0.6,0.6,1.3,1,2c0.7,1.5,1.4,3.2,1.8,5
	C60.2,65.4,59.7,64.9,59.1,64.8z M50.6,56.3c-0.9-0.4-1.4,0.4-1.4,1.3c0.3,0,0.1,0.5,0.3,0.6c0.3,0,0.5,0.2,1,0.1
	c0.3-0.4,0.5-0.7,0.4-1.4C50.6,56.8,50.8,56.3,50.6,56.3z M50.3,51.4c0,0.2-0.2,0.2-0.3,0.3c-0.1,0.1,0,0.3-0.1,0.4
	c-0.1,0.2-0.5,0.4-0.6,0.6c-0.1,0.3-0.1,0.8-0.1,1.3c0.2,0.4,0.6,0.7,1.1,0.7c0.4-0.1,0.5-0.4,0.8-0.6c0.1-1.2-0.2-1.8-0.6-2.5
	C50.6,51.4,50.5,51.3,50.3,51.4z"/>
</svg>
