<?xml version="1.0" encoding="utf-8"?>
<!-- Generator: Adobe Illustrator 25.1.0, SVG Export Plug-In . SVG Version: 6.00 Build 0)  -->
<svg version="1.1" id="Layer_1" xmlns="http://www.w3.org/2000/svg" xmlns:xlink="http://www.w3.org/1999/xlink" x="0px" y="0px"
	 viewBox="0 0 100 100" style="enable-background:new 0 0 100 100;" xml:space="preserve">
<style type="text/css">
	.st0{fill:#83C7BD;}
</style>
<path class="st0" d="M99.7,44C97,25,83.4,8.9,64.8,3c-5.7-1.8-20.5-5.2-36.3,2.3c-16,7.6-27.2,23.6-28.4,40.8
	c-1.7,24.1,16,39.2,19.5,41.9c8.6,6.8,20.1,10.9,31.4,11.4c0.7,0,1.5,0,2.2,0c8.6,0,20.2-2.1,30.5-10.9
	C103.3,71.7,99.8,45.2,99.7,44z M29.2,6.7c15.2-7.2,29.6-3.9,35.1-2.2C69,6,73.4,8.2,77.4,10.9c-1.9-1-3.8-1.8-5.6-2.5
	c-2.7-1-24.1-8-43.7-1.2C28.5,7.1,28.9,6.8,29.2,6.7z M1.7,46.2c0.7-9.4,4.4-18.5,10.4-25.9c-6.4,9.9-8.9,22-9.2,24.1
	c-1.1,10.7,1.5,21.9,7.3,31.3C5.4,68.7,0.8,58.7,1.7,46.2z M82.8,87.3C75,94,63.5,98.2,51.1,97.9c4.1,0,8.5-0.7,13.1-2.2
	c22.1-7.3,34.6-30.5,32.6-55.3c-0.1-1.3-0.3-2.5-0.5-3.7c0.8,2.5,1.3,5,1.7,7.6C98.2,45.4,101.6,71.1,82.8,87.3z"/>
<path d="M66.1,67.6c-0.1-0.3,0.2-3.3-0.2-4.4c0-0.1,0-0.2,0-0.5c-1.6-0.1-3.2-0.1-4,0c-1.4,0.3-3,0-3.5,0.1
	c-1.4,0.2-2.5-0.3-4.1-0.2c-4.7-0.2-2.9,0.2-8.8,0c-1.8,0.2-1.2,0-3,0.3c-0.7-0.2-2.2-0.2-3.1-0.2c-0.5-0.4-0.7-1-1-1.5
	c0-0.5-0.2-2.7-0.2-3.2c0.1-0.4-0.1-7.1,0.1-7.3c0.2-4.9-0.2-0.9,0.1-5.6c0.1-0.8,0-3.2,0-5.3c0-1.3,0-1.8,0.1-3.1
	c0.2-1-0.3-2.9-0.1-4c-0.1-1.2,0-2.8,0.4-3.6c0.6-0.6,1.6-0.5,2-0.5l0.8-0.2c0,0,0,0,0,0h1.3c0,0,6.2-0.1,6.2,0
	c0.5-0.1,1.8,0.2,2.6,0.1c0,0,4.6,0,5.4,0c0.9,0,2.4,0.1,3.1,0.4c1,1.1,0.6,1.3,0.7,4.5c0.1,0.6,0.8,0.5,1.3,0.5
	c0.8-0.1,2.5-0.1,4.3,0c0-1.4-0.1-2.9-0.4-4.6c-0.1-4,0-4-1.4-5.4c-1.1-0.3-4.1-0.9-5.4-0.8c-1.2,0-6.6,0.1-6.6,0.1
	c-1.2,0.1-3.1-0.3-3.8-0.2c0-0.2-4.5,0-5.8,0c0-0.2-3.2,0-3.2,0H38c0,0,0,0,0,0l-1.1,0.2c-0.5,0.1-1.7,0.3-2.6,1
	c-0.6,1.1-1,2.6-0.9,4.2c-0.3,1.4,0.5,3.7,0.2,5c0,1.6-0.2,2.2-0.1,3.9c0,2.6,0.1,5.7-0.1,6.7c-0.5,6,0.1,10.3-0.2,16.5
	c-0.3,0.3,0,8.7-0.1,9.2c0,0.6,0.2,3.4,0.2,4c0.5,0.6,1.8,1.2,2.5,1.8c1.3-0.1,2.4,0.1,3.4,0.3c2.6-0.3,1.7-0.1,4.3-0.3
	c8.6,0.3,6.3,0.3,13.2,0.5c2.4,0,3.5,0.1,5.6-0.2c0.8-0.1,2.4-0.3,2.7-1.5c0.4-1.3,1.3-2.8,1.2-3.4C66,70.2,66.3,68.4,66.1,67.6z
	 M52.8,70.1c0,0-0.2,0.6-0.2,0.7s-0.5,0.9-0.7,1c-0.2,0.1-1.5,0.7-1.5,0.7s-0.9,0.2-1.7,0c-0.7-0.1-1.6-1-1.7-1.1
	c-0.1-0.1-0.6-1-0.6-1s-0.2-0.7-0.1-0.9c0.1-0.2-0.1-1.1,0.2-1.6c0.3-0.5,0.8-1.3,1.3-1.5c0.5-0.2,0.9-0.4,0.9-0.4
	c0.5,0,2.3,0.1,2.9,0.7c0.5,0.6,1.1,1,1.1,2.1C52.9,69.9,52.8,70.1,52.8,70.1z M72.3,40.1c-0.3-0.4-0.5-0.4-1-0.4c0,0-2.1-0.4-4-0.4
	c-2.4,0-5.1,0.2-5.8,0.3c-1.3,0.1-3.2,0-3.2,0s-2.6,0.2-3.5,0c-0.9-0.2-1.8,0-1.8,0l-0.5-1.6c-0.2-1-0.2-1.8-1-2.6
	c-0.4-0.4-1.3-0.8-1.7-1.1c-0.4-0.2-0.7-0.3-1.1-0.4L47,34c-0.8-0.1-1.9,0.5-2,1.3c-0.1,0.8,0.5,1.6,1.3,1.7l1.5,0.3
	c0.6,0.1,1.1,0.6,1.2,1.2l0.7,2.6c0,0,0.2,0.8,0.3,2.2c0.1,1.4,0.4,2.9,0.4,2.9l0.6,2.1l0.1,1.8c0.1,0.7,0.3,1.3,0.7,1.8
	c0.2,0.2,0.6,0.4,0.8,0.6c0.4,0.3,0.9,0.5,1.5,0.6c-0.9,0.6-1.5,1.6-1.5,2.8c0,1.9,1.5,3.4,3.4,3.4c1.9,0,3.4-1.5,3.4-3.4
	c0-1.1-0.6-2.1-1.4-2.7l1.8,0.1c0,0,0.8-0.2,1.4-0.1c0.7,0.1,2.9,0,2.9,0c-0.9,0.6-1.4,1.6-1.4,2.7c0,0.7,0.2,1.2,0.6,1.7
	c0.6,0.9,1.6,1.6,2.8,1.6c0.5,0,1.2-0.4,1.6-0.6c1.1-0.5,1.8-1.4,1.8-2.7c0-1.2-0.6-2.2-1.5-2.8c0.9-0.2,1.6-0.7,2.3-1
	c0.4-0.2,0.6-0.8,0.7-1.3c0,0,0.2-0.8,0.4-1.8c0.3-1.2,0.5-2.9,0.5-3.5c0-1,0.5-2.7,0.5-2.7l0.3-1.4C72.4,41,72.6,40.5,72.3,40.1z
	 M68,50.3c-0.2,0.2-0.3,1.1-0.6,1c-0.4,0.1-3.1-3.3-2.7-3.7c0.4-0.4,0.7-0.8,0.8-0.6S68.3,50.1,68,50.3z M69.8,47.6
	c-0.4,0.2-0.2,1.1-0.8,1.2c0-0.1-3.1-3.3-2.8-3.5c0.3-0.3,0.6-0.8,0.9-0.6C67.5,44.7,70.2,47.4,69.8,47.6z M70.3,44.5
	c-0.4-0.1-2.1-1.4-2-1.8s0.5-0.9,0.8-0.9c0.2,0.2,1.5,1.2,1.6,1.5C70.7,43.8,70.4,44.5,70.3,44.5z"/>
</svg>
