<?xml version="1.0" encoding="utf-8"?>
<!-- Generator: Adobe Illustrator 23.1.1, SVG Export Plug-In . SVG Version: 6.00 Build 0)  -->
<svg version="1.1" id="Layer_1" xmlns="http://www.w3.org/2000/svg" xmlns:xlink="http://www.w3.org/1999/xlink" x="0px" y="0px"
	 viewBox="0 0 100 100" style="enable-background:new 0 0 100 100;" xml:space="preserve">
<style type="text/css">
	.st0{fill:#FFFFFF;}
</style>
<path class="st0" d="M99.7,44C97,25,83.4,8.9,64.8,3c-5.7-1.8-20.5-5.2-36.3,2.3C12.5,12.9,1.3,28.9,0.1,46.1
	c-1.7,24.1,16,39.2,19.5,41.9c8.6,6.8,20.1,10.9,31.4,11.4c0.7,0,1.5,0,2.2,0c8.6,0,20.2-2.1,30.5-10.9
	C103.3,71.7,99.8,45.2,99.7,44z M29.2,6.7c15.2-7.2,29.6-3.9,35.1-2.2C69,6,73.4,8.2,77.4,10.9c-1.9-1-3.8-1.8-5.6-2.5
	c-2.7-1-24.1-8-43.7-1.2C28.5,7.1,28.9,6.8,29.2,6.7z M1.7,46.2c0.7-9.4,4.4-18.5,10.4-25.9c-6.4,9.9-8.9,22-9.2,24.1
	c-1.1,10.7,1.5,21.9,7.3,31.3C5.4,68.7,0.8,58.7,1.7,46.2z M82.8,87.3C75,94,63.5,98.2,51.1,97.9c4.1,0,8.5-0.7,13.1-2.2
	c22.1-7.3,34.6-30.5,32.6-55.3c-0.1-1.3-0.3-2.5-0.5-3.7c0.8,2.5,1.3,5,1.7,7.6C98.2,45.4,101.6,71.1,82.8,87.3z"/>
<path d="M57.7,59.5c3.1,0.2,4.1-1.1,4.1-3.4c0-2.3-1.8-3.2-4.1-3.2c0,0-1.3-0.6-3.5-0.6c-3.7,0-6,0.6-8.3,0.6c-3.6,0-2.7,0-2.7,0
	c-2.3,0-4.4,1.2-4.1,3.2c0.3,2.1,1.8,3.4,4.1,3.4h6.4c0,0-0.6,2.9-0.6,4.9c0,2.1,0.2,5,0.2,5L40.9,74c-0.5,0.2-0.8,0.8-0.5,1.4
	c0.2,0.5,0.8,0.8,1.4,0.5l8.9-4l8.9,3.9c0.5,0.2,1.1,0,1.4-0.5c0.2-0.5,0-1.1-0.5-1.4L52,69l-0.4-9.5h3.5
	C55.1,59.5,54.6,59.3,57.7,59.5z M73.5,62c-0.1-1-0.2-4.1-0.1-9.3c0.1-5.3,0.1-9.3,0.1-9.3c0-0.5-0.4-0.9-0.9-0.9l-8.1-0.1
	c0-0.2,0.1-0.3,0.1-0.5c0-1.2-0.8-3-2.1-3.2c0,0,0.2-4.8,0-6.7c-0.2-1.8,0-3.5,0-3.5l0.1-2.6c0-0.6,0.1-1.7-1.1-1.7
	c0,0-2.7-0.1-5.7-0.1C53.1,24,49.5,24,48.3,24c-2.5,0-6.9,0.3-6.9,0.3h-1.8c-0.6,0-1.5,0.1-1.4,1.6c0.2,1.5,0.3,3.7,0.3,3.7
	s-0.3,2.4,0,4.5c0.3,2,0,4.7,0,4.7c-1.2,0.2-2.1,1.9-2.1,3.1c0,0.1,0,0.3,0,0.4c0,0.1,0,0.1,0,0.2l-7.9-0.1
	c-1.4-0.5-2.3,1.5-2.3,2.3l0.3,2.1v4.8c0,0-0.2,4.6,0,6.4c0.2,1.7,0,4.9,0,4.9V69c0,0,0,0.9,0,2s0.2,2.1,0.2,2.1c0,0.6,0.4,1,1,1
	c0.2,0,1,0.1,1.3,0c0.4-0.2,0.9-0.1,0.9-0.4l0.1-3.1l-0.2-3.4v-4.5l0.2-12l-0.2-2.5l0.6-1.7l2.8,0.1l8.2-0.2c0,0,11.5,0,14,0.3
	c2.5,0.3,13.3-0.4,14.2,0.2c0.8,0.5,0.4,0.6,0.4,0.6l0.2,5.2c0,0-0.1,9.1,0,10.4c0.1,0.7,0.2,1.1,0.2,4.2c0,3.1-0.1,6.1-0.1,6.1
	c0,0.4,0.5,0.7,1,0.9c0.3,0.1,0.4,0.2,0.6,0.2c0.6,0,1.5-0.5,1.5-1v-4C73.5,69.3,73.8,64,73.5,62z M59.1,27.5
	c0.2,0.1,2.2,2.4,2.2,2.7c0,0.3-0.4,0.8-0.4,0.8s-2.5-2.7-2.5-2.9C58.3,28,59.1,27.5,59.1,27.5z M57.3,30.7c0.1-0.2,0.4-0.5,0.6-0.5
	c0.3-0.1,2.7,2.6,2.5,3c-0.2,0.3-0.4,0.7-0.5,0.6C59.7,33.7,57.1,30.9,57.3,30.7z M56.9,33.7c0.3-0.1,0.5-0.2,0.8-0.3
	c0,0.1,1.7,2.3,1.5,2.5c-0.2,0.2-0.5,0.6-0.7,0.5C58.3,36.3,56.6,33.8,56.9,33.7z M57.2,36.4c0.3,0.1,1,1.1,0.9,1.4
	c-0.1,0.3-0.5,0.7-0.7,0.6c-0.1-0.1-0.9-1-0.9-1.3C56.5,36.7,57.1,36.3,57.2,36.4z M62.2,42.4H38.9c-0.3-0.1-0.5-0.3-0.4-0.6
	c0.1-0.3,0.3-1.1,0.6-1H62c0.3-0.1,0.6,0.7,0.6,1C62.7,42.1,62.5,42.4,62.2,42.4z"/>
</svg>
