<?xml version="1.0" encoding="utf-8"?>
<!-- Generator: Adobe Illustrator 23.1.1, SVG Export Plug-In . SVG Version: 6.00 Build 0)  -->
<svg version="1.1" id="Layer_1" xmlns="http://www.w3.org/2000/svg" xmlns:xlink="http://www.w3.org/1999/xlink" x="0px" y="0px"
	 viewBox="0 0 100 98.8" style="enable-background:new 0 0 100 98.8;" xml:space="preserve">
<style type="text/css">
	.st0{fill:#FFFFFF;}
	.st1{fill-rule:evenodd;clip-rule:evenodd;}
</style>
<path class="st0" d="M99.7,43.5C96.9,24.2,83.3,8.3,64.8,2.4c-5.7-1.8-20.5-5.2-36.3,2.2C12.5,12.3,1.3,28.3,0.1,45.5
	c-1.7,24.1,16,39.2,19.5,42c9.1,6.9,20.1,10.8,31.4,11.3c0.7,0,1.5,0,2.2,0c11.1,0.2,22-3.7,30.5-10.9
	C103.3,71.1,99.8,44.6,99.7,43.5z M29.2,6.1c15.2-7.2,29.6-3.9,35.1-2.2c4.6,1.5,9.1,3.7,13.1,6.5c-1.8-0.9-3.7-1.7-5.6-2.5
	c-2.7-1-24.1-8-43.7-1.2C28.5,6.5,28.9,6.3,29.2,6.1z M1.7,45.6C2.5,36.1,6.1,27,12.1,19.6C7.6,27,4.5,35.2,3,43.8
	c-1.1,10.9,1.5,21.9,7.3,31.3C4.1,66.5,1,56.1,1.7,45.6z M82.7,86.7C75,93.4,63.5,97.6,51.1,97.3c4.5,0,8.9-0.8,13.1-2.2
	c22.1-7.3,34.6-30.5,32.6-55.3c-0.1-1.3-0.3-2.5-0.4-3.8c0.8,2.5,1.3,5,1.7,7.6C98.2,44.8,101.6,70.5,82.7,86.7L82.7,86.7z"/>
<path class="st1" d="M76,61.3c-0.1-1-0.3-1.6-0.4-2.7c-0.2-0.2,0-1.4-1.1-1.8s-3.8,0.3-4.6-0.5c0-1.1,0-2.3-0.1-3.4
	c-0.2-0.5,0.5-0.1,0.4-0.5C70,52.4,70,52,69.8,52c-0.1-0.3-0.5-0.2-0.6-0.5c-0.5-0.2-0.9-0.5-1.3-0.8c-1.7-0.8-3.5-1.2-5.4-1.4
	c0.4-0.4,0.8-0.8,1.3-1.1c0.3-0.2,0.8,0.2,2.5-2.2s-0.6-4.6-0.7-4.8s0.4-1,1-2.7s-0.7-3-1.8-4.2c-1.5-1.2-3.3-2.1-5.2-2.5
	c-0.5,0-0.1-0.3,2.4-4.3c2.5-4,3.2-4.7,3.5-5.6s-3-2.4-3.8-2.5s-2,2.2-3.8,5.6S55,30.6,55,30.6l-6.2-0.9c-3.7-0.2-7.4,0-11.1,0.6
	c-3.5,0.3-6.3,1.8-9.6,3.2c-1.2,0.6-2.4,3.2-2,4.1c0.3,1,0.5,2.1,0.6,3.1c-0.5,0.1-0.9,0.2-1.3,0.4c-1.6,0.8-2.6,2.5-2.4,4.3
	c0,2.5,3.9,3.5,3.9,3.5s-0.1,3.2-0.2,5.4c0,1,0.3,6.4,0.5,7.6s2.7,2.7,5.9,4.3c1.8,1,3.9,1.7,6,1.8c1.2,0.1,2.7,0.2,4.6,0.3
	c2.1,0.1,4.2,0,6.2-0.4c0,2.4,0.2,4.7,0.7,7.1c0.1,0.3,0.5,0.3,0.8,0.5c0.2,0.2,0.5,0.4,0.8,0.6c1.8,0.4,3.6,0.7,5.5,0.8
	c2,0.2,4,0.3,6.1,0.2c1.8-0.3,3.6-1,5.1-2.1c0.6-0.4,1-1,1.3-1.7c0-0.8,0.2-1.7,0.5-2.4c1.2,0,2.3-0.2,3.5-0.5
	c0.6-0.3,1.2-0.8,1.5-1.4c0-0.1,0.1-0.2,0.1-0.3C76,66.3,76.1,63.8,76,61.3z M26.7,44.9c0,0.9,0,1.8-0.4,1.8s-1-1.3-1.2-2.1
	s0.7-2.1,1.3-1.9S26.7,44,26.7,44.9z M68.6,58.2c0,0,0-0.1,0-0.1v-0.1C68.6,58,68.6,58.1,68.6,58.2z M63.6,50.7
	c0.9,0,1.8,0.3,2.6,0.7c0.8,0.1,1.6,0.6,2,1.3c0.1,0.5-0.4,0.6-0.4,1.1c-0.3,0.1-0.3,0.6-0.9,0.5c0-0.3,0.2-0.8,0-1.1
	c-0.7-0.7-2.2-0.6-3.4-0.8h-4c-2,0-2.6,0.4-4.7,0.3c-0.8,0.2-1.6,0.6-2.2,1.1c-0.6,0.6-0.1,0.6-0.3,0.8c-0.3-0.1-0.7-0.2-0.9-0.5
	c-0.3-0.1-0.5-0.5-0.5-0.8c0.4-0.2,0.9-0.4,1.3-0.6c2-1,4.1-1.6,6.2-1.9C61.2,50.6,62.9,50.8,63.6,50.7L63.6,50.7z M65.9,54.7
	C65.9,54.7,65.9,54.5,65.9,54.7C66,54.6,66,54.7,65.9,54.7L65.9,54.7z M65.2,54.8C65.1,54.8,65.3,54.7,65.2,54.8
	C65.3,54.8,65.3,54.9,65.2,54.8L65.2,54.8z M62.8,55c0.6-0.1,1.2-0.2,1.8-0.2c-1.2,0.6-2.5,0.7-3.8,0.5C61.5,55,62.2,54.9,62.8,55
	L62.8,55z M60.4,53.7c-0.1-0.3,0.5,0.1,0.4-0.2c0.5,0.1,1-0.3,1.5,0c-0.2,0.2-0.7,0.2-1,0.3C61,54,60.7,53.9,60.4,53.7L60.4,53.7z
	 M61.9,35.1c1.5,0.6,2.1,0.9,2.5,2.4c0.4,1.5-0.4,1.8-1.3,2.4s-0.6,0.2-0.5-0.4s0-1-0.9-1.9c-1.3-0.9-2.8-1.5-4.3-1.9
	c-0.6-0.2,0.4-1.5,0.9-1.5C59.4,34.3,60.6,34.6,61.9,35.1L61.9,35.1z M57,29.6c1.5-2.4,2.9-4.9,4.1-7.5c0.6-1.2,1.9-0.1,2.2,0.1
	s0.2,0.7,0,1l-1.8,3c-0.9,1.5-2.6,4-5.3,8.1s-3.4,5.8-4.1,6.8c-0.4,0.5-1,0.8-1.6,0.7c0,0,0-0.1,0-0.1c0.3-0.7-0.9,0.2-0.5-0.6
	c0.2-0.2,1.8-2.3,1.9-2.5C52.5,37.8,54.1,34.2,57,29.6z M30.7,34.2c2.9-1,5.9-1.9,8.9-2.5c3.7-0.3,6-0.5,8.6-0.5s5.8,0.5,5.7,0.9
	c-0.1,0.4-0.3,2.2-1,2.1c-1.3-0.7-2.9-0.5-4.3-0.5c-3.4,0-6.9,0.3-10.2,1c-3.4,0.7-8.3,2.7-8.7,3.4c-0.3,0.5-1.2-1.2-1.2-1.8
	C28.8,35.3,29.6,34.5,30.7,34.2z M35,40.4c0.4,0.2,1.2-1.3,1.5-1.6s0.7-0.9,0.9-0.9s0.2,0.3-0.3,1c-0.4,0.8-0.7,1.6-1,2.4
	c-0.2,0.4-0.3,0.2-0.6,0c-0.6-0.3-1.2-0.6-1.9-0.7c-0.7-0.3-0.2-0.6,0.2-1.2s0.6-1.2,0.9-1.2s0.2,0.7-0.2,1.3S34.4,40.3,35,40.4z
	 M38.2,38.8c0.7-1.2,1-1.6,1.2-1.6s0.3,0.6,0,0.9c-0.5,0.7-0.9,1.5-1.3,2.2c-0.7,1.3-0.4,1.2-0.9,1.2S37.5,39.8,38.2,38.8z
	 M40.3,38.6c0.9-1.2,1.3-1.8,1.5-1.8s0.3,0.6,0.2,0.9s-0.7,1.3-1.6,2.8s-0.9,1.5-1.6,1.3S39.3,39.8,40.3,38.6z M51.1,58.2L51.1,58.2
	c-0.3-0.2-1.1-0.5-1.8-0.8c0,2.9,0.2,5.8,0.5,8.6c-0.5,0.1-1.1,0.2-1.7,0.3c-2.9,0.6-5.9,0.5-8.8-0.1c-3.1-0.7-6.1-2-8.8-3.8
	c-1.3-1-1.6-0.8-1.8-2.3c-0.1-0.5-0.1-2.8-0.1-5.5c0-5,0.1-11.4,0.1-11.4c0.1-1-0.1-2.5,0.1-2.4c2.7,1.4,5.7,2.4,8.7,3
	c4.7,0.8,9.5,1,14.2,0.8c2.6-0.3,5.2-0.7,7.8-1.2c1-0.4,1.9-0.7,3-0.9c0.6,0,1.8,0.2,2.1,0.6s0.3,1.2-0.7,2.1s-0.7,1.2-2.2,1.5
	c-1.2,0.2-2.4-0.2-3.6,0.3c-0.9,0.3-0.6,0.7,0.2,1s1.8,0.6,1.7,1.2c-0.2,0-0.5,0-0.7,0.1c-2.9,0.4-4.7,0.5-6.7,1.5s-1.9,0.5-3.1,2.8
	c0,0.1,0,0.3-0.1,0.3c0,0.2,0,0.4,0,0.6c0.5,0.5,1.1,1,1.8,1.4c1.7,0.9,3.6,1.3,5.5,1.2c0.7,0,5,0.9,8.3-0.4
	c1.1-0.4,2.1-0.9,3.1-1.5h0.1c0.3-0.1,0.2,0.3,0.2,0.5s0.2,0.2,0.1,0.5c0.1,0.3,0,0.8,0.2,1c0,0.1,0,0.3,0,0.4c0,0-0.1,0-0.2,0h-0.1
	c-1,0.6-2.1,1-3.2,1.4c-3.3,1.1-7.7,0.3-8.5,0.3C54.8,59.3,52.9,59,51.1,58.2z M68.2,73.7c-0.8,0.6-1.6,1.2-2.6,1.6
	c-1.1,0.4-10.1,0.2-10.1,0.2s-3.8-0.8-3.3-1.5s-0.6-2-0.6-2c1.2,0.5,2.5,1,3.8,1.3c2.9,0.3,5.8,0.2,8.7-0.3c1.2-0.3,2.4-0.7,3.4-1.4
	c-0.1-0.2-0.3-0.5-0.5-0.7c-0.2-0.2-1.1-1.2-1-1.3s0.5-0.7,0.6-0.6c0.7,0.5,1.2,1.2,1.5,2.1c0.3-0.2,0.3-0.1,0.3-0.1l0.1,1.9
	C68.5,73.2,68.4,73.5,68.2,73.7z M68.8,69.7c-0.3-0.1-0.5-0.3-0.7-0.5c0,0-0.8-0.9-1-1.1c-0.4-0.5-0.7-1.1-0.9-1.8
	c0-0.1,0.4-0.3,0.6-0.2c0.8,0.9,1.6,1.8,2.2,2.8C68.9,69,69,69.8,68.8,69.7L68.8,69.7z M69.1,67.5c-0.2,0.2-0.6-0.4-0.6-0.4
	s-1.2-1.8-1.4-1.9s-1.1-1.2-1-1.3s0.4-0.6,0.6-0.5s2.6,3.8,2.6,3.8C69.3,67.3,69.2,67.5,69.1,67.5L69.1,67.5z M69.2,65.2
	c-0.2,0-0.7-0.6-0.7-0.6c-0.3-0.5-0.6-1-0.9-1.4c-0.4-0.4-0.7-0.9-0.9-1.5c0.1-0.1,0.4-0.3,0.6-0.2c0.8,1,1.4,2,2,3.1
	C69.3,64.8,69.5,65.3,69.2,65.2L69.2,65.2z M69,62.8c-0.2,0-0.4-0.5-0.4-0.5c-0.3-0.4-0.6-0.8-0.9-1.2c-0.4-0.5-0.7-1-0.9-1.6
	c0.1-0.1,0.4-0.3,0.6-0.2c0.8,1,1.5,2,2.1,3.1C69.4,62.5,69.3,62.8,69,62.8z M74.8,62.2c0,2.2-0.1,4.3-0.2,6.5
	c-0.6,0.4-1.3,0.6-2.1,0.6c-0.7,0.2-1.3,0.3-2,0.4c-0.3-0.6,0.1-0.7,0.2-1.3c0.8,0,2.4-0.6,2.3-1.1c0.2-0.2,0.3-0.4,0.4-0.7
	c0-0.2-0.2-4.6-0.2-6.8c-0.2-0.5-0.8-0.4-1.2-0.7c-0.2,0.2-0.6,0.1-0.9,0.1s-0.6,0.2-0.7,0.1c0.1-0.3-0.1-1-0.1-1.3c0.7,0,1.3,0,2,0
	c0.6,0,1.2,0,1.7,0.1C74.6,59.4,74.9,60.8,74.8,62.2L74.8,62.2z M72,66.3c-0.3,0.4-0.8,0.7-1.4,0.8c0-2.1,0-4.6,0-6.6
	c0.2-0.2,0.7,0,1-0.2s0.2,0.2,0.2,0.4v1.8C71.9,63.6,71.9,65.2,72,66.3z"/>
</svg>
