<?xml version="1.0" encoding="utf-8"?>
<!-- Generator: Adobe Illustrator 25.4.1, SVG Export Plug-In . SVG Version: 6.00 Build 0)  -->
<svg version="1.1" xmlns="http://www.w3.org/2000/svg" xmlns:xlink="http://www.w3.org/1999/xlink" x="0px" y="0px"
	 viewBox="0 0 100 100" style="enable-background:new 0 0 100 100;" xml:space="preserve">
<style type="text/css">
	.st0{fill:#83C7BD;}
</style>
<g id="Layer_1">
	<path class="st0" d="M99.7,44C97,25,83.4,8.9,64.8,3c-5.7-1.8-20.5-5.2-36.3,2.3c-16,7.6-27.2,23.6-28.4,40.8
		c-1.7,24.1,16,39.2,19.5,41.9c8.6,6.8,20.1,10.9,31.4,11.4c0.7,0,1.5,0,2.2,0c8.6,0,20.2-2.1,30.5-10.9
		C103.3,71.7,99.8,45.2,99.7,44z M29.2,6.7c15.2-7.2,29.6-3.9,35.1-2.2C69,6,73.4,8.2,77.4,10.9c-1.9-1-3.8-1.8-5.6-2.5
		c-2.7-1-24.1-8-43.7-1.2C28.5,7.1,28.9,6.8,29.2,6.7z M1.7,46.2c0.7-9.4,4.4-18.5,10.4-25.9c-6.4,9.9-8.9,22-9.2,24.1
		c-1.1,10.7,1.5,21.9,7.3,31.3C5.4,68.7,0.8,58.7,1.7,46.2z M82.7,87.3C75,94,63.5,98.2,51.1,97.9c4.1,0,8.5-0.7,13.1-2.2
		c22.1-7.3,34.6-30.5,32.6-55.3c-0.1-1.3-0.3-2.5-0.5-3.7c0.8,2.5,1.3,5,1.7,7.6C98.2,45.4,101.6,71.1,82.7,87.3z"/>
</g>
<g id="Ebene_2">
	<path d="M47.4,41c0.1,0.1,0.7,0.6,1,0.5c0.3-0.2,3.8-4.4,3.9-4.9s-0.3-1.8-0.5-2C51.7,34.5,47.2,40.7,47.4,41z M49.6,71.7l-0.3-2.2
		c-0.2-0.7-1.4-0.1-1.5,0.1s-1.5,2.2-1.6,2.4s-2.9-0.7-2.9-0.7c-0.2,0.1-0.3,0.6-0.2,0.8c0.1,0.2,2.2,2.5,2.3,2.6
		c0.1,0.1-0.9,3.4-1,3.6c-0.1,0.2,0.7,0.6,1.1,0.5s2.7-2,2.9-2.1s2.3,1.9,2.4,2c0.2,0.1,0.8-0.4,0.8-0.7c0.1-0.2-0.6-2.9-0.5-3
		c0-0.1,1.8-1.5,2.2-1.9s0.1-0.8-0.1-1S49.6,71.7,49.6,71.7z M50,74.8c0.1,0.3,0.3,2,0.1,1.9c-0.2,0-1.5-1-1.7-0.9
		c-0.2,0.1-2,1.3-2.1,1.1s0.7-2.2,0.5-2.4c-0.2-0.1-1.2-1.3-1.1-1.4c0.1-0.2,0.8,0.2,0.9,0.1s1.6-2.5,1.7-2.2
		c0.1,0.2,0.3,1.8,0.5,1.8c0.2,0,2.6,0,2.6,0.2C51.4,73.2,49.9,74.5,50,74.8z M72.3,43.8c1.5-2.4-1-3.3-1.4-3.4
		c-0.4-0.1-13-0.1-13.3-0.1s-2-9.2-2.3-10.1c-0.3-0.9-0.7-1.6-1.5-1.8s-1.7,0.2-2.1,0.6c-0.3,0.4-7.8,9.6-7.9,9.8
		c-0.2,0.1-13.1-0.3-15.2-0.3s-1.6,1.8-1.4,2.2c0.3,0.6,3,3.5,4,4.7c1,1.2,6,6,6.1,6.5c0,0.5-5,11.6-6,14c-1,2.4-1.3,4.9-0.2,5.9
		c1.1,1,2.9,0.3,4.1-0.3s14.2-9.4,14.5-9.4s12.9,11.7,14.4,12.2c1.5,0.6,2.7-0.5,2.9-2c0.1-1.4-3-18.5-2.8-19S70.9,46.2,72.3,43.8z
		 M64.9,71.8c-0.1,0.1-0.7-0.2-0.7-0.4c0-0.1-1.4-8.2-1.5-8.3c-0.2-0.1-1.3-0.6-1.3-0.4s1.5,7.8,1.3,7.7c-0.2,0-2.4-2-2.4-2.1
		c0-0.1-1-8.4-1.2-8.6c-0.2-0.2-1.2-0.4-1.2-0.4s1.6,8.3,1.3,8.2c-0.3-0.1-1.9-1.5-2-1.6s-1-7-1.1-7.3c-0.1-0.3-1.2-0.9-1.3-0.8
		s0.9,6.8,0.7,6.6c-0.2-0.1-2.1-2-2.2-2.2c0-0.2-0.6-5.8-0.7-5.9s-1.4-0.8-1.4-0.6c0,0.2,0.9,5.5,0.7,5.4s-1.4-1.4-1.4-1.5
		s-0.5-4.4-0.6-4.6s-1,0.1-1,0.1s0.9,4.4,0.7,4.6s-1.8,1.1-1.8,1c0-0.1-0.9-4.9-1-5.1s-1,0.3-1,0.5c0,0.2,1,5,0.8,5.2
		c-0.2,0.2-1.4,0.9-1.4,0.8s-0.8-5.1-0.9-5.2c-0.1-0.1-1,0.3-1,0.6S44,63,44,63l-1.3,1l-0.8-4.9c0,0-1.2,0.6-1.2,0.9s1,4.5,0.8,4.7
		s-0.8,0.6-0.8,0.6s-0.6-4.1-0.9-4.3c-0.3-0.1-1,0.2-1,0.5s0.8,4.4,0.7,4.5s-1.1,0.8-1.1,0.8s-0.3-4.2-0.6-4.4S37,62.8,37,63.1
		s0.8,4.1,0.6,4.3l-1.2,1c0,0-0.6-3.5-0.7-3.5s-0.8,0.1-0.8,0.6s0.5,3.5,0.3,3.6s-1.6,1.1-1.8,1.2c-0.3,0-1,0.2-0.8-1.5
		c0.2-1.8,7.2-16.8,7.1-17.3s-10.2-10.7-9.9-10.9c0.2-0.1,15,0.2,15.1,0.1c0.1-0.2,7.8-9.8,8.1-9.6s2.3,8.8,2.3,9.2s0.5,2.1,2.3,2.1
		s12.6,0,12.8,0.4c0.2,0.4-8.4,10.1-8.6,10.5S65,71.7,64.9,71.8z M64.1,33.7c0.2,0.1,0.3,3.1,0.6,3.5c0.3,0.5,1,0.4,1.4-0.1
		c0.4-0.5,1.4-2.7,1.5-2.9s3.7,1.1,3.8,1.1s0.8-0.4,0.9-0.8c0.1-0.5-2.5-3.5-2.6-3.7c0-0.2,1-1.2,1.6-1.9s-0.5-0.9-0.7-0.9
		s-4,0.6-4.1,0.6s-2-2.1-2.6-2.6c-0.6-0.4-0.8,0.4-0.8,0.6c0,0.2,0.2,2.9,0.2,3s-2.6,0.5-2.7,0.5c-0.7,0.1-0.3,1.2-0.1,1.4
		C60.8,31.7,63.9,33.6,64.1,33.7z M64.8,30.6c0-0.2-0.4-2.6-0.3-2.6s1.9,1.9,1.9,1.9s3-0.6,3-0.4c0,0.2-0.8,1.6-0.8,1.8
		c0.1,0.2,1.8,2.1,1.5,2.3c-0.3,0.1-2.6-0.5-2.8-0.4s-1.5,2.6-1.7,2.4c-0.2-0.2-0.3-2.4-0.5-2.5c-0.2-0.1-2.5-1.7-2.4-1.9
		C62.7,31,64.7,30.8,64.8,30.6z M30.8,28.3c0.2,0.1,2.2,1.3,2.3,1.4s-0.3,2.7-0.4,3.1c-0.1,0.4,0.3,0.6,0.8,0.6s1.9-2.9,2.1-3.1
		c0.2-0.1,4,2.6,4,2.6s0.6,0,0.8-0.5c0.2-0.4-0.4-4-0.5-4.2s1.6-2.9,1.8-3.3s-0.1-0.8-0.3-1s-3.8,0.6-4,0.6c-0.1,0-1-3-1.1-3.3
		s-0.7-0.1-0.9,0c-0.2,0.2-1.8,5.3-1.8,5.4s-2.7,0.6-3,0.7C30.2,27.5,30.5,28.2,30.8,28.3z M34.6,27.4c0.1-0.1,0.9-4.2,1.2-4.1
		c0.3,0.1,0.8,2.5,1,2.5c0.2,0,2.9-0.8,3-0.6s-1.1,2.3-1.1,2.7s0.3,2.9,0.1,2.8c-0.2,0-2.9-2.1-3.1-2.1s-1.8,2.4-1.8,2.1
		c0-0.3,0.2-1.7,0.2-1.8c0-0.1-0.9-1.1-0.9-1.1C33.4,28,34.5,27.5,34.6,27.4z"/>
</g>
</svg>
