<?xml version="1.0" encoding="utf-8"?>
<!-- Generator: Adobe Illustrator 23.1.1, SVG Export Plug-In . SVG Version: 6.00 Build 0)  -->
<svg version="1.1" id="Layer_1" xmlns="http://www.w3.org/2000/svg" xmlns:xlink="http://www.w3.org/1999/xlink" x="0px" y="0px"
	 viewBox="0 0 100 100" style="enable-background:new 0 0 100 100;" xml:space="preserve">
<style type="text/css">
	.st0{fill:#FFFFFF;}
</style>
<path class="st0" d="M99.7,44C97,25,83.4,8.9,64.8,3c-5.7-1.8-20.5-5.2-36.3,2.3C12.5,12.9,1.3,28.9,0.1,46.1
	c-1.7,24.1,16,39.2,19.5,41.9c8.6,6.8,20.1,10.9,31.4,11.4c0.7,0,1.5,0,2.2,0c8.6,0,20.2-2.1,30.5-10.9
	C103.3,71.7,99.8,45.2,99.7,44z M29.2,6.7c15.2-7.2,29.6-3.9,35.1-2.2C69,6,73.4,8.2,77.4,10.9c-1.9-1-3.8-1.8-5.6-2.5
	c-2.7-1-24.1-8-43.7-1.2C28.5,7.1,28.9,6.8,29.2,6.7z M1.7,46.2c0.7-9.4,4.4-18.5,10.4-25.9c-6.4,9.9-8.9,22-9.2,24.1
	c-1.1,10.7,1.5,21.9,7.3,31.3C5.4,68.7,0.8,58.7,1.7,46.2z M82.8,87.3C75,94,63.5,98.2,51.1,97.9c4.1,0,8.5-0.7,13.1-2.2
	c22.1-7.3,34.6-30.5,32.6-55.3c-0.1-1.3-0.3-2.5-0.5-3.7c0.8,2.5,1.3,5,1.7,7.6C98.2,45.4,101.6,71.1,82.8,87.3z"/>
<path d="M72.2,28.4c-0.6-0.6-1.3-1.1-2-1.5l-1.4,1c0,0-0.5,0.2-0.2,1.2c0.4,1,0.9,2.3,0.9,2.3l0.1,1.8c0,0.7,0.2,1.2-0.3,1.7
	c-0.5,0.5-1,0.8-1.9,1.4l-1.3,0.6l-1-0.1c-0.6,0-1.1-0.2-1.7-0.5c-0.4-0.2-0.7-0.8-1-1.1C62,34.9,62,34.9,62,34.4c0,0-0.3-0.7,0-1.7
	c0.3-1,0.4-2.6,0.4-2.6l-0.2-1.3l-0.9-1.3c-0.3-0.4-0.7-0.4-1.1-0.2c-0.5,0.3-0.9,0.6-1.3,1c-0.7,0.7-0.9,1.4-1.3,2.2
	c-0.2,0.4-0.9,1.2-1,1.7c-0.6,1.7-0.6,3.4-0.2,5c0.2,1,0.4,1.9,0.8,3c0.5,0.5,1,1.7,1.7,2.2c0.6,0.2,1.2,0.7,1.7,0.7
	c0.4,0.4,0.8,0.4,1.2,0.5c0,0,0,0.1,0,0.1c-0.2,0-0.6,5.9-0.4,6.7l0,0.4c-0.3,1.5-0.2,3-0.6,4.5c0.1,1.6-0.1,3.3-0.1,4.9
	c-0.2,1.6-0.3,3.2-0.5,4.8c0.1,0.8,0,1.6,0,2.4c0.2,0.4-0.1,1.1,0,1.3c0.3,0.3-0.1,1.2,0.5,1.5c0.5,0.6,1,1.5,1.5,1.5
	c0.2,0.2,0.5,0.4,0.8,0.5c0.5,0.4,1.2,0.8,1.5,0.6c0.4,0.1,0.7,0.1,1.1,0.1c0.2,0,0.4,0,0.7-0.1l0,0.1l0.3-0.1
	c0.6-0.1,1.2-0.4,1.7-0.7l0.6-0.2c0.7-0.5,1.7-1.7,1.8-2.3c0.3-0.6,0.5-1.7,0.3-2.3c-0.2-1.2,0.1-2-0.3-3.2l0-0.1
	c0-0.4,0.1-1.1,0-1.5c0-0.4,0.2-0.8-0.1-1.2c0-0.8,0-1.7,0-2.5c-0.1-0.4-0.2-0.9-0.3-1.3l-0.1-1.1c0-0.1,0-0.2,0-0.4
	c0-0.1,0-0.1-0.1-0.2l-0.3-4.5c0-1.3,0.1-2.2-0.2-2.4l-0.2-2.4c0.2-0.1,0.1-0.8-0.1-1.3l0-0.7c0,0,0-0.1,0-0.1l0.3,0
	c0.2,0.1,0.5-0.2,0.7-0.2c0.3,0.1,0.5-0.6,0.8-0.5c0.5-0.4,1-0.7,1.5-1c0.5-0.5,0.9-1,1.4-1.5c-0.1-0.1,0-0.2,0.2-0.4
	c0.4-1,0.5-2,0.7-3c0-0.4-0.1-0.7-0.1-1C75.4,34,74.6,30.8,72.2,28.4z M68.4,46.1c0,0,0.1,0,0.2,0.1c0.1,0.3,0.1,1.1,0.2,1.4
	c-0.4-0.3-1-0.5-1-0.5S67.9,46,68.4,46.1z M67.5,47.9c0.1,0,0.8,0.4,1.5,1c0,0,0.1,0.3,0.1,0.4c0,0.1,0,0.5,0,1
	c-0.9-0.6-1.7-1.1-1.8-1.1C67.2,48.9,67.3,48,67.5,47.9z M67.3,50.5c0.1,0,0.8,0.4,1.6,0.9c-0.1,0.5,0.1,1.3,0.1,1.3l0,0.1
	c-0.9-0.5-1.8-1.1-1.9-1.1C66.8,51.4,67.1,50.5,67.3,50.5z M69.1,55.6c-0.8-0.5-1.8-1.1-1.9-1.2c-0.2-0.3,0.1-1.3,0.3-1.3
	c0-0.2,0.7,0.4,1.2,0.8L69.1,55.6z M68.2,68.5c-0.1,0.3-0.5,0.8-0.8,1c-0.7,0.7-1.6,0.8-2.7,0.7c-0.4,0-0.9-0.5-1.3-0.8
	c-0.4-0.4-0.6-1.2-0.7-1.8c0-0.5,0.1-0.7,0.3-1.2c0.1-0.3,0.3-0.5,0.5-0.7c0.1-0.1,0.3-0.3,0.5-0.4c0.3-0.2,0.7-0.3,1.1-0.3
	c0.3,0,0.5,0,0.9,0.1c0.5,0.1,1.2,0.3,1.6,0.7C68.4,66.6,68.7,67.5,68.2,68.5z M69.5,58.4c-0.7-0.5-1.4-1-1.4-1.1
	c-0.1-0.2,0-1.1,0.3-1.2c0.1,0,0.4,0.1,0.9,0.5L69.5,58.4z M71.7,42.6c-0.2,0.1-0.3,0.2-0.5,0.2c-0.4-0.4-0.8-0.8-0.8-0.9
	c-0.1-0.2,0.6-0.8,0.7-0.7c0,0,0.5,0.5,1,0.9C71.9,42.2,71.7,42.6,71.7,42.6z M72.7,41.3c-1-0.3-1.5-1.5-1.5-1.6
	c0-0.1,0.4-0.6,0.6-0.6c0.1,0,0.8,0.6,1.5,1.2C73.2,40.6,72.9,41,72.7,41.3z M73.7,39.5c-0.4-0.4-0.9-0.7-0.9-0.8
	c-0.1-0.2,0.7-0.8,0.8-0.7c0,0,0.3,0.2,0.6,0.5C74,38.8,73.8,39.3,73.7,39.5z M51,33.5c-0.5-0.7-0.9-1.3-1.5-2l-2.3-1.8
	c-1.1-0.7-2-1.2-3-1.7c-0.5,0-1-0.2-1.5-0.2c-0.5-0.2-3.5-0.6-4.5-0.5c-1-0.3-1.2-0.1-2.1,0c-1,0-1.8,0.2-2.7,1
	c-0.4,0.5-0.5,0.5-0.8,1c-0.6,0-0.8,0.1-1.4,0.1c0.2-0.7,0-0.9-0.6-1.4c-0.5-0.5-1.6-0.3-2-0.4c-0.6-0.1-0.5-0.1-1.1-0.1
	c-1,0.2-1.3-0.2-2.2,0.9c-0.4,0.8,0.1,1.1-0.2,1.9c0.1,0.7,0,0.8,0,1.5c-0.1,0.6,0.2,2.4,0.1,2.5c-0.1,0.1,0,0.1,0,0.2
	c0,0.5-0.1,0.9,0.3,1.3c0.6,0.5,1,0.1,1.6,0.5c0.5,0,1.9-0.3,2.4-0.5c0.7-1.2,0.6-1.2,1.5-2.1c0.7-0.1,0.6,0.2,1.4,0.4
	c0.5,0.3-0.1,1.3,0.3,1.4c0.3,1.9-0.3,3.9,0,5.7c0.4,0.5,0.2,1.7,0.3,2.1c-0.4,1.7-1.3,6.6-1.2,6.7c-0.2,0.5-0.1,1-0.1,1.5
	c-0.4,1.9-0.3,5.7-0.1,7.5c-0.2,0.4,0,1.2-0.2,1.6c0.1,0.9,0,4.8,0.2,5.2c0,0.9-0.3,2.4-0.2,3.3c0.4,0.8,0.1,1.8,1,2.6
	c0.4,0.4,0.7,0,1.1-0.1c0.3,0.3,0.6,0.4,0.8,0.5c1.1-0.1,2.6,0.1,3.7-0.1c0.5-0.1,1.1,0.3,1.7,0c1.1-1.1,0.4-1.9,0.7-2.9
	c-0.2-0.9,0.3-2.6,0.2-3.5c-0.2-1.8,0.1-3.7,0-5.5c-0.2-0.9-0.3-1.8-0.4-2.7c0-1-0.2-1.9-0.1-2.8c-0.2-0.9,0-1.9-0.3-2.8
	c0.1-0.5,0.1-0.9,0-1.4c0.2-0.5-0.7-5.5-0.7-6.2c0-0.6,0.1-1.6-0.8-1.9c0-0.4,0-0.7,0-1c0,0,0,0,0,0c0.5,0.2,1,0.2,1.4-0.2
	c0.4-1-0.2-1.9-0.2-2.9c0.8-0.8,0.3-1.4,0.2-2.1c0-0.5,0-1,0.1-1.5c0.4-0.2,0.7-0.4,1.1-0.4c0.4,0.1,0.7-0.1,1.1-0.1
	c1.8,0.1,3.4,0.6,5.3,1.5c1.2,0.7,1.8,1.6,2.8,1.9c0.4-0.2,0.8-0.2,1.1-0.7c0.3-0.6,0.1-1.1,0-1.6C51.3,34.5,51,34,51,33.5z
	 M35,59.5c0-0.1,0.2-0.1,0.2,0C35.2,59.5,35,59.5,35,59.5z M37.6,35.6c0.1,0,0.5,0.2,0.9,0.5c0,0.6,0.1,1.1,0.2,1.6
	c-0.8-0.6-1.6-1.1-1.7-1.2C37,36.5,37.4,35.6,37.6,35.6z M36.7,51.6c-0.2-0.2,0.1-0.8,0.3-0.9c0.1,0,0.9,0.5,1.7,1
	c-0.1,0.5-0.1,0.9-0.1,0.9l0,0.4c-0.9-0.5-1.7-1-1.8-1.1L36.7,51.6z M39.1,58.4c-0.7-0.5-1.4-1-1.4-1.1c-0.1-0.2,0.2-0.9,0.4-1
	c0.1,0,0.4,0.2,0.9,0.5L39.1,58.4z M37.1,54.8c-0.2-0.3,0.2-1.2,0.4-1.1c0.1,0,0.6,0.3,1.2,0.6l0,0.3l0.2,1.4
	C38,55.4,37.2,54.9,37.1,54.8z M38.8,49.2c0,0.1,0,0.6,0,1.2c-0.8-0.4-1.6-0.8-1.7-0.8c-0.1-0.1,0.1-1.3,0.3-1.4
	c0.1,0,0.7,0.3,1.3,0.8C38.7,49.2,38.8,49.2,38.8,49.2z M38.5,46.6c0,0.1,0,0.2,0.1,0.4c0.1,0.3,0.1,0.6,0.1,0.9
	c-0.6-0.4-1.1-0.8-1.1-0.8s0.1-0.8,0.4-0.8C38,46.3,38.2,46.4,38.5,46.6z M37.6,38.9c-0.1-0.2,0.3-1,0.4-0.9c0,0,0.4,0.3,0.8,0.6
	c0,0.5,0,0.8,0,1.2C38.3,39.4,37.7,39.1,37.6,38.9z M38.8,34.9c-0.1,0.2-0.1,0.3-0.2,0.5c-0.4-0.3-0.7-0.6-0.7-0.6
	c-0.1-0.2,0.4-0.7,0.5-0.7c0,0,0.3,0.2,0.6,0.5C38.9,34.7,38.8,34.8,38.8,34.9z"/>
</svg>
