<?xml version="1.0" encoding="utf-8"?>
<!-- Generator: Adobe Illustrator 24.3.0, SVG Export Plug-In . SVG Version: 6.00 Build 0)  -->
<svg version="1.1" id="Layer_1" xmlns="http://www.w3.org/2000/svg" xmlns:xlink="http://www.w3.org/1999/xlink" x="0px" y="0px"
	 viewBox="0 0 100 100" style="enable-background:new 0 0 100 100;" xml:space="preserve">
<style type="text/css">
	.st0{fill:#FFFFFF;}
</style>
<path class="st0" d="M99.7,44C97,25,83.4,8.9,64.8,3c-5.7-1.8-20.5-5.2-36.3,2.3C12.5,12.9,1.3,28.9,0.1,46.1
	c-1.7,24.1,16,39.2,19.5,41.9c8.6,6.8,20.1,10.9,31.4,11.4c0.7,0,1.5,0,2.2,0c8.6,0,20.2-2.1,30.5-10.9
	C103.3,71.7,99.8,45.2,99.7,44z M29.2,6.7c15.2-7.2,29.6-3.9,35.1-2.2C69,6,73.4,8.2,77.4,10.9c-1.9-1-3.8-1.8-5.6-2.5
	c-2.7-1-24.1-8-43.7-1.2C28.5,7.1,28.9,6.8,29.2,6.7z M1.7,46.2c0.7-9.4,4.4-18.5,10.4-25.9c-6.4,9.9-8.9,22-9.2,24.1
	c-1.1,10.7,1.5,21.9,7.3,31.3C5.4,68.7,0.8,58.7,1.7,46.2z M82.7,87.3C75,94,63.5,98.2,51.1,97.9c4.1,0,8.5-0.7,13.1-2.2
	c22.1-7.3,34.6-30.5,32.6-55.3c-0.1-1.3-0.3-2.5-0.5-3.7c0.8,2.5,1.3,5,1.7,7.6C98.2,45.4,101.6,71.1,82.7,87.3z"/>
<path d="M55.4,57.2c0.7,0,1.4-0.2,2-0.6c1-0.6,1.6-1.7,1.6-3c0-2-1.6-3.6-3.6-3.6s-3.6,1.6-3.6,3.6c0,1.2,0.6,2.3,1.6,3
	C54,57,54.6,57.2,55.4,57.2z M50.9,59.3c-0.6,0.9-0.9,2.2-0.9,3.3v0.9h0.9l3.3,0.2l5.6-0.2h0.9l0-1.3c0-2.3-1.4-3.8-3.3-4.6
	c-0.6,0.3-1.3,0.5-2,0.5s-1.4-0.2-2-0.5C52.4,58,51.5,58.4,50.9,59.3z M75,36.3L70.9,29l-1.4-2.2c-0.2-0.3-0.6-0.5-1-0.5
	c0,0-0.8,0-2.4,0c-0.9,0-2.2-0.1-3.4-0.1c-4.6-0.1-10.6-0.1-12.6,0.1c-3.3,0.3-15.8,0-15.8,0h-2.6c-0.4,0-0.8,0.2-1,0.5
	c0,0-1.3,1.9-1.8,3.1c-0.5,1.3-1.7,3-1.7,3l-2,3.3c-0.1,0.2-0.2,0.4-0.2,0.6c0,0-0.2,1.2-0.3,2.1c0,0.9,0.3,2.5,0.3,2.5h0
	c0.1,0.9-0.1,1.8,0.3,2.5c0.4,0.8,1.3,1.3,1.9,1.9c0,0,0.6,0.8,2.2,1.3c0,0.9-0.1,2.1,0.1,3.4c0.2,2.2,0,6.8,0,6.8v7.6
	c0,0-0.2,2.1,0,3.4c0.1,0.8,0.1,2.4,0.1,3.7c0,0.9,0.7,1.6,1.6,1.6l1.2,0c1.5,0,2.8-1.3,2.8-2.8v-0.6l-0.5-5.4v-8.7
	c0,0,0-1.7,0.4-3.4c0.2-1.1-0.2-3.7-0.5-5.3c1.2-0.3,1.6-0.8,1.6-0.8c0.8-0.5,1.4-1.2,1.9-2c0.5,0.8,1,1.5,1.8,2.1
	c0.5,0.4,1.3,0.6,2,0.9c0.7,0.2,1.5,0.2,2.3,0.2c0.7,0,1.2,0.1,1.8-0.1c0.7-0.2,1.7-0.5,2.2-0.9c0.9-0.6,1.3-1.3,1.8-2.1
	c0.3,0.5,0.4,0.9,1,1.3s1.4,0.9,2,1.2c1,0.5,2,0.7,3.2,0.7c1,0,2.3-0.5,3.2-0.9c0.7-0.3,1.2-0.8,1.6-1.2c0.3-0.3,0.6-0.5,1-1.1
	c0.5,0.8,1.2,1.5,1.9,2c0,0,0.8,0.4,1.9,0.7c0,0.1,0,0.2-0.1,0.3c-0.4,1.5-0.3,2.6-0.3,2.6s-0.3,2.3-0.2,4.1c0.3,4,0.4,6.5,0.4,6.5
	l-0.3,3.8h-2.2l-12.2,0.5L48.7,65l-2.8,0c-1,0-1.2,0.6-1.2,1.5c0,0.6,0.4,1.2,0.9,1.5c0.3,0.2,0.6,0.2,0.9,0.2v5.3
	c0,0,1.5,0.3,3.5,0s10.5,0,10.5,0s5.5-0.2,6.7,0c1.3,0.2,3.3,0,3.3,0v0l-0.3-2.8l0.3-2.6h0.1v-3.3c0-0.9,0.1-2.5,0-4
	c-0.1-2.3,0-6.1,0-6.1s-0.2-2.4,0-5.1c0.1-1.1,0.1-1.9,0.1-2.6c1.3-0.5,2.3-1.4,2.3-1.4c1.2-1.2,2.1-2.8,2.2-4.6h0v-4.6
	C75.1,36.6,75.1,36.4,75,36.3z M40.5,33.2c0.2-1,0.8-2.5,0.8-2.5s0.2-0.4,0.3-1c0.1-0.5,0.4-1.2,0.4-1.2h1.2c0,0,1.9,0.2,3.2,0
	s2.6,0,2.6,0v0.9l-0.1,3.3l0.1,3.1h-6.9c0,0-2.4,0.1-2.4-0.2C39.8,35.3,40.3,34.2,40.5,33.2z M37.1,40.9c0,1.3-0.8,2.4-1.6,3.3
	c-0.9,0.9-1.8,1.5-3.2,1.5c-1.5,0-3.2-0.9-4-2c-0.7-0.8-0.8-1.7-0.8-2.9l0.1-1.2l-0.1-1.7h2.5l4.4,0.3l2.9-0.3V40.9z M37.9,34.3
	l-0.5,1.4L34,35.5l-1.8,0.2L30,35.6c0,0-1.8,0.1-1.9-0.1c-0.1-0.2,1.1-1.6,1.1-1.6l1.3-2.3c0,0,0.6-0.9,1-1.7s0.9-1.5,0.9-1.5h0.8
	c0,0,2.1,0.1,3.3,0c1.1-0.1,3.2,0,3.2,0l-0.3,1c0,0-0.9,1.7-0.9,2.2C38.5,32.3,37.9,34.3,37.9,34.3z M49,39.2v1.7
	c0,1.5-0.5,2.6-1.5,3.5c-0.9,0.8-1.9,1.3-3.4,1.4c-1.1,0.1-2.1-0.4-2.9-1c-0.5-0.4-1-0.6-1.3-1.4c-0.3-0.8-0.7-1.6-0.7-2.5
	c0,0-0.4-2.6,0-2.9c0.4-0.3,4.2,0,4.2,0s1.1-0.1,2.1,0c1.4,0.2,3.3-0.2,3.3,0S49,39.2,49,39.2z M51.2,34.7v-2.8c0,0,0.1-1.3,0-1.9
	c-0.1-0.7,0-1.5,0-1.5h3.1c0,0,0.7,0.1,1.9,0c1.2-0.1,2,0,2,0l0.5,1.5c0,0,0.7,1.8,0.9,2.7c0.1,0.9,1,3,1,3s-2.5-0.2-3.8,0
	c-1.3,0.2-3.5,0-3.5,0s-1.9,0.2-2.1,0S51.2,34.7,51.2,34.7z M61,40.9c0,1.3-0.8,2.4-1.6,3.3c-0.9,0.9-1.8,1.5-3.2,1.5
	c-1.5,0-3.2-0.9-4-2c-0.7-0.8-0.8-1.7-0.8-2.9l0.1-1.2l-0.1-1.7h2.5l4.4,0.3l2.9-0.3V40.9z M62.9,35.6c-0.2-0.3-0.5-1.2-0.5-1.2
	s0-0.5-0.4-1.2c-0.4-0.7-0.5-1.5-0.5-1.5l-0.3-1.4l-0.7-1.6l1.4,0.1l2.7-0.1c0,0-0.1,0,0.8,0c0.9,0,2.3,0,2.3,0l1.3,2.3
	c0,0,0.9,1.3,1.2,2c0.2,0.4,0.9,1.6,1.3,2.3c0.2,0.4,0.5,0.6,0.4,0.7c0,0.1-1,0-1.7,0c-0.7,0-3.4,0-3.4,0h-1.8
	C65.2,35.7,63.1,35.8,62.9,35.6z M72.9,39.8v1.1c0,0.9-0.3,1.8-0.7,2.6c-0.4,0.6-0.9,1-1.5,1.4c-0.8,0.5-1.7,0.7-2.6,0.7
	c-1.4,0-2.7-0.4-3.6-1.4c-0.8-0.9-1.1-2.1-1.1-3.4l-0.1-2.6l1.5-0.2c0,0,3,0,3.8,0c0.8,0,1.6,0,1.6,0s2.8-0.1,2.8,0.2
	S72.9,39.8,72.9,39.8z"/>
</svg>
