<?xml version="1.0" encoding="utf-8"?>
<svg version="1.1" id="Layer_1" xmlns="http://www.w3.org/2000/svg" xmlns:xlink="http://www.w3.org/1999/xlink" x="0px" y="0px"
	 viewBox="0 0 100 100" style="enable-background:new 0 0 100 100;" xml:space="preserve">
<path d="M70.7,47.1c-0.8,0.1-1.9,0.2-2.7,0.3c-1.3,0.1-7.5,0.5-8.9,0.6c-0.1,1.5,0,3,0,4.5c0.2,1.9,0.5,3.7,0.8,5.6
	c0.6,1.8,0.7,3.7,1.2,5.5c0.1,0.9,1.1,4.2,1.6,5.8c0.5,1.6,1.7,5.4,2.4,5.8c0.3,0.2,0.6,0,0.9,0.1c0.6-0.4,0.5-0.9,0.8-1.5
	c0-0.5,0.3-1.1,0.4-1.6c0.3-1.1,1-5.9,0.9-6.4c0.3-1.1,0.4-2.2,0.6-3.3c0.6-4.3,0.9-8.6,1.7-12.9c0.3-0.7,0.4-1.4,0.6-2.1
	C70.8,47.4,70.8,47.2,70.7,47.1z M67.8,61.7c0,0.2-0.4,0.9-0.7,0.8c-0.2,0-1.5-1.2-1.5-1.2s-0.3-0.9,0.1-1.1
	c0.4-0.1,0.7,0.2,0.7,0.2s0.4,0.6,0.9,0.7C67.8,61.2,67.8,61.5,67.8,61.7z M67.5,59.2c-0.2,0-2.6-1.8-2.6-1.8s-0.1-0.8,0.4-1
	c0.4-0.1,0.9,0.6,0.9,0.6s0.3,0.2,0.8,0.4c0.5,0.2,1.6,0.9,1.5,1.2C68.3,58.8,67.8,59.3,67.5,59.2z M68,56c-0.4,0.1-3.1-2.1-3-2.4
	c0,0-0.3-0.7,0.2-0.8c0.4-0.1,0.9,0.3,0.9,0.3s0.4,0.5,0.8,0.7c0.5,0.2,1.9,1.4,1.8,1.7S68.3,56.1,68,56z M55.1,34.7
	c-0.5-0.7-0.9-1.3-1.5-2L51.3,31c-1.1-0.7-2-1.2-3-1.7c-0.5,0-1-0.2-1.5-0.2c-0.5-0.2-3.5-0.6-4.5-0.5c-1-0.3-1.2-0.1-2.1,0
	c-1,0-1.8,0.2-2.7,1C37,30,36.8,30,36.5,30.5c-0.6,0-0.8,0.1-1.4,0.1c0.2-0.7,0-0.9-0.6-1.4c-0.5-0.5-1.6-0.3-2-0.4
	c-0.6-0.1-0.5-0.1-1.1-0.1c-1,0.2-1.3-0.2-2.2,0.9c-0.4,0.8,0.1,1.1-0.2,1.9c0.1,0.7,0,0.8,0,1.5c-0.1,0.6,0.2,2.4,0.1,2.5
	c-0.1,0.1,0,0.1,0,0.2c0,0.5-0.1,0.9,0.3,1.3c0.6,0.5,1,0.1,1.6,0.5c0.5,0,1.9-0.3,2.4-0.5c0.7-1.2,0.6-1.2,1.5-2.1
	c0.7-0.1,0.6,0.2,1.4,0.4c0.5,0.3-0.1,1.3,0.3,1.4c0.3,1.9-0.3,3.9,0,5.7c0.4,0.5,0.2,1.7,0.3,2.1c-0.4,1.7-1.3,6.6-1.2,6.7
	c-0.2,0.5-0.1,1-0.1,1.5c-0.4,1.9-0.3,5.7-0.1,7.5c-0.2,0.4,0,1.2-0.2,1.6c0.1,0.9,0,6.3,0.2,6.7c0,0.9-0.3,0.9-0.2,1.8
	c0.4,0.8,0.1,1.8,1,2.6c0.4,0.3,0.7,0,1.1-0.1c0.3,0.3,0.6,0.4,0.8,0.5c1.1-0.1,2.6,0.1,3.7-0.1c0.5-0.1,1.1,0.3,1.7,0
	c1.1-1.1,0.4-1.9,0.7-2.9c-0.2-0.9,0.3-2.6,0.2-3.5c-0.2-1.8,0.1-3.7,0-5.5c-0.2-0.9-0.3-1.8-0.4-2.7c0-1-0.2-1.9-0.1-2.8
	c-0.2-0.9,0-1.9-0.3-2.8c0.1-0.5,0.1-0.9,0-1.4c0.2-0.5-0.7-5.5-0.7-6.2c0-0.6,0.1-1.6-0.8-1.9c0-0.4,0-0.7,0-1c0,0,0,0,0,0
	c0.5,0.2,1,0.2,1.4-0.2c0.4-1-0.2-1.9-0.2-2.9c0.8-0.8,0.3-1.4,0.2-2.1c0-0.5,0-1,0.1-1.5c0.4-0.2,0.7-0.4,1.1-0.4
	c0.4,0.1,0.7-0.1,1.1-0.1c1.8,0.2,3.4,0.6,5.3,1.5c1.2,0.7,1.8,1.6,2.8,1.9c0.4-0.2,0.8-0.2,1.1-0.7c0.3-0.6,0.1-1.1,0-1.6
	C55.4,35.7,55.1,35.2,55.1,34.7z M42.7,54.7c-0.9-0.5-1.7-0.9-1.7-1l-0.1-0.7c-0.2-0.2,0.1-1.1,0.3-1.1c0.1,0,0.8,0.5,1.6,1
	c0,0.5-0.1,0.8-0.1,0.8L42.7,54.7z M43.3,60.3v1.6c-1-0.7-2.1-1.5-2.2-1.6c-0.1-0.2,0.1-1.2,0.4-1.3C41.5,59,42.4,59.7,43.3,60.3z
	 M40.6,56.7c-0.2-0.3,0.3-1.3,0.5-1.3c0.1,0,0.9,0.5,1.8,1.1l0.2,1.8C42,57.6,40.7,56.9,40.6,56.7z M42.8,50.1
	c0,0.2,0.1,0.3,0.1,0.3c0,0.1,0,0.6,0,1.2c-0.9-0.5-1.8-1-1.8-1c-0.1-0.1,0-1.3,0.2-1.4C41.3,49.3,42,49.7,42.8,50.1z M60.7,38
	c0.4,0.3,0.8,0.5,1.2,0.7c-0.4,0.4,0.2,0.6-0.1,1c0,0.3-0.5,0.7-0.4,1c-0.4,0.7-0.6,1.4-1,2.1c-0.4,1.2-0.5,2.3-1,3.5
	c1.8-0.1,6.4-0.3,7.5-0.3c0.7,0,2-0.4,3.1-0.7c-0.3-0.7-0.4-1.3-0.9-2c-0.5-1.4-1.4-2.8-2.3-4.2c-0.1-0.4,0.6-0.1,0.4-0.5
	c0.1-0.3-0.1-0.5,0.2-0.8c0.4-0.4,2.3-1.4,2.3-2.9c0-1.1-0.2-2.3-1.6-3.1c-1.4-0.8-3.7-2.8-4.4-4.6c-0.8-2.6,0.1-3.8,0-4.1
	c-0.1,0-0.1-0.1-0.2-0.1c-0.2-0.1-0.3,0-0.5-0.1c-0.2,0.1-0.5,0-0.7,0.3c-0.2-0.1-0.4,0.6-0.6,0.5c-1.3,1.4-2.6,3.4-2.8,4.2
	C57.5,33,59.2,36,59.9,37C60.1,37.4,60.6,37.6,60.7,38z M67.1,35.4c0,0.1,0.1,0.2,0.2,0.3c-0.2,0.3-0.4,0.3-0.6,0.5
	C66.6,35.9,66.9,35.6,67.1,35.4z M63,35.3c0-0.1,0.1-0.1,0.2,0C63.2,35.3,63,35.3,63,35.3z M64.7,35.9c0.1-0.1,0.2-0.2,0.3-0.3
	c0.1,0.1,0.1,0.3,0.2,0.4C65,36.2,64.9,36.1,64.7,35.9z M61.2,27c0.5-1.6,0.4,0.6,0.5,0.5c0.2,0.6,0.4,1.1,0.9,1.7
	c1.4,1.2,2.7,2.1,3.9,2.5c0.3,0.2-0.1,0.4,0.1,0.6c0,0.2-0.1,0.4,0,0.5c0.1,0.3-0.1,0.7-0.5,1.1c-0.2-0.3-0.2-0.6-0.7-0.8
	c-0.4-0.1-0.8,0-1.1,0.5c-0.5-0.5-1-0.5-1.5-0.2c-0.5,0.6-0.6,1.1-0.5,1.7c-0.3,0.2-0.7-0.2-1,0C59.8,33.2,59.8,31.7,61.2,27z"/>
</svg>
