<?xml version="1.0" encoding="utf-8"?>
<svg version="1.1" id="Layer_1" xmlns="http://www.w3.org/2000/svg" xmlns:xlink="http://www.w3.org/1999/xlink" x="0px" y="0px"
	 viewBox="0 0 100 100" style="enable-background:new 0 0 100 100;" xml:space="preserve">
<path d="M46.5,48.7c-0.4,0.4-0.4,0.8-0.6,1.2c0,1.3,0.2,2.1,1,2.4c0.4,0.4,0.2,0.9,0.4,1.3c0.2,0.6,0.4,1.2,0.6,1.5
	c0.5,1.3,1.5,2.2,2.3,2.8c0.8,0.6,1.6,0.9,2.5,0.6c0.9-0.2,1.6-0.8,2.1-1.8c0.4-0.5,0.6-1.4,0.8-2.6c0-0.8,0.3-1.4,0.8-2
	c1.4-1,1.5-2.2,0.2-3.5c-0.4-0.4-0.6-0.2-0.8-1.1c0-0.4-0.1-1.8-0.3-2.5c-0.4-1.6-1.7-2.3-3.7-2.3c-1.1-0.1-2.3,0.4-3.3,1.5
	c-0.9,1.3-1.3,2.4-1.5,3.3C47,48.1,47.1,48.3,46.5,48.7z M54.5,33.4c0.3,0.3,0.1,0.6,0.3,1c0.1,0.5,0.3,0.8,0.5,1.1
	c0.4,1,1.1,1.6,1.7,2c0.6,0.5,1.2,0.6,1.8,0.5c0.6-0.1,1.2-0.6,1.5-1.3c0.3-0.4,0.5-1,0.6-1.9c0-0.6,0.2-1,0.6-1.4
	c1-0.7,1.1-1.6,0.1-2.5c-0.3-0.3-0.5-0.1-0.6-0.8c0-0.3-0.1-1.3-0.2-1.8c-0.3-1.2-1.2-1.7-2.7-1.7c-0.8-0.1-1.7,0.3-2.4,1.1
	c-0.6,1-1,1.7-1.1,2.4c0,0.4,0.1,0.5-0.3,0.8c-0.3,0.3-0.3,0.6-0.5,0.8C53.8,32.6,53.9,33.1,54.5,33.4z M64.8,45.1
	c0.4,0.4,0.2,0.9,0.4,1.3c0.2,0.6,0.4,1.2,0.6,1.5c0.5,1.3,1.5,2.2,2.3,2.8c0.8,0.6,1.6,0.9,2.5,0.6c0.9-0.2,1.6-0.8,2.1-1.8
	c0.4-0.5,0.6-1.4,0.8-2.6c0-0.8,0.3-1.4,0.8-2c1.4-1,1.5-2.2,0.2-3.5c-0.4-0.4-0.6-0.2-0.8-1.1c0-0.4-0.1-1.8-0.3-2.5
	c-0.4-1.6-1.7-2.3-3.7-2.3c-1.1-0.1-2.3,0.4-3.3,1.5c-0.9,1.3-1.3,2.4-1.5,3.3c0,0.5,0.1,0.7-0.4,1.1c-0.4,0.4-0.4,0.8-0.6,1.2
	C63.9,43.9,64,44.7,64.8,45.1z M25.3,46.3c0.4,0.4,0.2,0.9,0.4,1.3c0.2,0.6,0.4,1.2,0.6,1.5c0.5,1.3,1.5,2.2,2.3,2.8
	c0.8,0.6,1.6,0.9,2.5,0.6c0.9-0.2,1.6-0.8,2.1-1.8c0.4-0.5,0.6-1.4,0.8-2.6c0-0.8,0.3-1.4,0.8-2c1.4-1,1.5-2.2,0.2-3.5
	c-0.4-0.4-0.6-0.2-0.8-1.1c0-0.4-0.1-1.8-0.3-2.5c-0.4-1.6-1.7-2.3-3.7-2.3c-1.1-0.1-2.3,0.4-3.3,1.5c-0.9,1.3-1.3,2.4-1.5,3.3
	c0,0.5,0.1,0.7-0.4,1.1c-0.4,0.4-0.4,0.8-0.6,1.2C24.3,45.1,24.5,45.9,25.3,46.3z M42.5,37.5c0.6,0.5,1.2,0.6,1.8,0.5
	c0.6-0.1,1.2-0.6,1.5-1.3c0.3-0.4,0.5-1,0.6-1.9c0-0.6,0.2-1,0.6-1.4c1-0.7,1.1-1.6,0.1-2.5c-0.3-0.3-0.5-0.1-0.6-0.8
	c0-0.3-0.1-1.3-0.2-1.8c-0.3-1.2-1.2-1.7-2.7-1.7c-0.8-0.1-1.7,0.3-2.4,1.1c-0.6,1-1,1.7-1.1,2.4c0,0.4,0.1,0.5-0.3,0.8
	c-0.3,0.3-0.3,0.6-0.5,0.8c0,0.9,0.1,1.5,0.7,1.7c0.3,0.3,0.1,0.6,0.3,1c0.1,0.5,0.3,0.8,0.5,1.1C41.2,36.4,42,37.1,42.5,37.5z
	 M57.8,59.8c-0.4-0.4-0.7-0.9-1.3-0.4c-0.1,0.1-0.5,0.4-0.7,0.7c-0.2,0.2-0.4,0.4-0.4,0.5c-0.4,0.5-0.4,0.4-1.3,1.2
	c-0.2,0.2-0.8,0.6-0.8,0.5c-1.1,0.8-1.2,0.8-2.7,0.4c-0.2-0.1-0.4-0.3-0.5-0.4c-0.2-0.2-0.9-0.4-0.9-0.6c-0.1-0.3-0.3-0.1-0.5-0.6
	s-0.4-0.9-0.6-1.2c0-0.1-0.1-0.4-0.3-0.7s-0.4-0.2-0.5-0.3l-2,0.5h-0.2c-1.1,0.4-1.7,1.1-2,1.9c-0.4,0.9-0.7,1.6-1,2.2
	c-0.3,0.5-0.4,2.3-0.6,5c0,1.5,0.1,2.7,0.2,3.4c-0.1,0.5,0.2,0.8,0.8,0.8c0.5,0,1.5-0.1,2.8-0.2c1.3-0.1,2.2-0.2,2.8-0.2l5.7,0.8
	l0.4-0.4l6.1-0.5c0.5,0,0.8-0.7,0.8-1.2l0.3-6.2c0-1.1-0.4-2.1-1.1-3C59.3,61,58.4,60.3,57.8,59.8z M58,71.3
	c-0.2-0.1-1.1-0.9-1.2-1.2c0-0.4,0.8-0.8,0.9-0.8c0.3,0.1,1.2,1,1.2,1.3C58.6,70.9,58.1,71.4,58,71.3z M59.2,69.1
	c-0.4,0.2-2.6-2-2.2-2.3c0.2-0.2,0.8-0.6,1.2-0.7c0,0.1,1.7,1.4,1.5,1.6C59.5,68.1,59.4,69.2,59.2,69.1z M60.2,65.2
	c-0.1,0.3-0.3,1.1-0.5,0.9c-0.2-0.1-0.9-0.7-1-1c0-0.4,0.6-0.9,0.7-0.9C59.7,64.3,60.3,64.8,60.2,65.2z M78.9,54.9
	c-1.1-1.1-2-1.8-2.5-2.2c-0.4-0.4-0.7-0.9-1.3-0.4c-0.1,0.1-0.5,0.4-0.7,0.7c-0.2,0.2-0.4,0.4-0.4,0.5c-0.4,0.5-0.4,0.4-1.3,1.2
	c-0.2,0.2-0.8,0.6-0.8,0.5c-1.1,0.8-1.2,0.8-2.7,0.4c-0.2-0.1-0.4-0.3-0.5-0.4c-0.2-0.2-0.9-0.4-0.9-0.6c-0.1-0.3-0.3-0.1-0.5-0.6
	s-0.4-0.9-0.6-1.2c0-0.1-0.1-0.4-0.3-0.7s-0.4-0.2-0.5-0.3l-2,0.5h-0.2c-1.1,0.4-1.7,1.1-2,1.9c-0.4,0.9-0.7,1.6-1,2.2
	c-0.2,0.4-0.4,1.6-0.5,3.3c0.3,0.4,0.6,0.8,0.9,1.1c0.6,0.8,1,1.5,1.4,1.9c1,1,0.5,1.1,0.5,1.1l0.2,1.8c0.2,0,0.4,0,0.7,0
	c1.3-0.1,2.2-0.2,2.8-0.2l5.7,0.8l0.4-0.4l6.1-0.5c0.5,0,0.8-0.7,0.8-1.2l0.3-6.2C80,56.8,79.6,55.8,78.9,54.9z M76.5,64.1
	c-0.2-0.1-1.1-0.9-1.2-1.2c0-0.4,0.8-0.8,0.9-0.8c0.3,0.1,1.2,1,1.2,1.3C77.2,63.7,76.7,64.2,76.5,64.1z M77.7,61.9
	c-0.4,0.2-2.6-2-2.2-2.3c0.2-0.2,0.8-0.6,1.2-0.7c0,0.1,1.7,1.4,1.5,1.6C78,60.9,77.9,62,77.7,61.9z M78.8,57.9
	c-0.1,0.3-0.3,1.1-0.5,0.9c-0.2-0.1-0.9-0.7-1-1c0-0.4,0.6-0.9,0.7-0.9C78.3,57.1,78.9,57.6,78.8,57.9z M36.3,53.8
	c-0.4-0.4-0.7-0.9-1.3-0.4c-0.1,0.1-0.5,0.4-0.7,0.7c-0.2,0.2-0.4,0.4-0.4,0.5c-0.4,0.5-0.4,0.4-1.3,1.2c-0.2,0.2-0.8,0.6-0.8,0.5
	c-1.1,0.8-1.2,0.8-2.7,0.4c-0.2-0.1-0.4-0.3-0.5-0.4c-0.2-0.2-0.9-0.4-0.9-0.6c-0.1-0.3-0.3-0.1-0.5-0.6s-0.4-0.9-0.6-1.2
	c0-0.1-0.1-0.4-0.3-0.7s-0.4-0.2-0.5-0.3l-2,0.5h-0.2c-1.1,0.4-1.7,1.1-2,1.9c-0.4,0.9-0.7,1.6-1,2.2s-0.4,2.3-0.6,5
	c0,1.5,0.1,2.7,0.2,3.4c-0.1,0.5,0.2,0.8,0.8,0.8c0.5,0,1.5-0.1,2.8-0.2c1.3-0.1,2.2-0.2,2.8-0.2l5.7,0.8l0.4-0.4l6.1-0.5
	c0.5,0,0.8-0.7,0.8-1.2l0.3-6.2c0-1.1-0.4-2.1-1.1-3C37.7,55,36.8,54.2,36.3,53.8z M36.4,65.3c-0.2-0.1-1.1-0.9-1.2-1.2
	c0-0.4,0.8-0.8,0.9-0.8c0.3,0.1,1.2,1,1.2,1.3C37,64.9,36.6,65.4,36.4,65.3z M37.6,63.1c-0.4,0.2-2.6-2-2.2-2.3
	c0.2-0.2,0.8-0.6,1.2-0.7c0,0.1,1.7,1.4,1.5,1.6C37.9,62,37.8,63.2,37.6,63.1z M38.7,59.1c-0.1,0.3-0.3,1.1-0.5,0.9
	c-0.2-0.1-0.9-0.7-1-1c0-0.4,0.6-0.9,0.7-0.9C38.1,58.3,38.7,58.8,38.7,59.1z"/>
</svg>
