<?xml version="1.0" encoding="utf-8"?>
<!-- Generator: Adobe Illustrator 18.1.1, SVG Export Plug-In . SVG Version: 6.00 Build 0)  -->
<svg version="1.1" id="Layer_1" xmlns="http://www.w3.org/2000/svg" xmlns:xlink="http://www.w3.org/1999/xlink" x="0px" y="0px"
	 width="11.7px" height="28px" viewBox="2326.5 386 11.7 28" enable-background="new 2326.5 386 11.7 28" xml:space="preserve">
<g>
	<g>
		<g>
			<path fill="#F37064" d="M2328.7,392.8c0.6-0.2,7-3.9,7-4.1c0-0.2,0-3.1-0.8-2.6c-0.8,0.5-8.6,5.9-8.4,6.7
				C2326.5,393,2328,393,2328.7,392.8z M2330.1,401c0.5,0.2,8.2,1.5,8.2,1.3c0.1-0.1-0.2-2.9-1-2.9s-3.9-0.2-4.5-0.4
				C2329.7,397.9,2329.5,400.8,2330.1,401z M2330.6,408.3c-1.6-2.9-4-1.3-3.7-0.8c0.3,0.5,5.6,6.4,5.7,6.4c0.2,0,2-1.8,1.4-2.4
				C2333.4,411.1,2331,409,2330.6,408.3z"/>
		</g>
	</g>
</g>
</svg>
