<?xml version="1.0" encoding="utf-8"?>
<!-- Generator: Adobe Illustrator 24.3.0, SVG Export Plug-In . SVG Version: 6.00 Build 0)  -->
<svg version="1.1" id="Layer_1" xmlns="http://www.w3.org/2000/svg" xmlns:xlink="http://www.w3.org/1999/xlink" x="0px" y="0px"
	 viewBox="0 0 100 100" style="enable-background:new 0 0 100 100;" xml:space="preserve">
<style type="text/css">
	.st0{fill:#83C7BD;}
</style>
<path class="st0" d="M99.7,44C97,25,83.4,8.9,64.8,3c-5.7-1.8-20.5-5.2-36.3,2.3C12.5,12.9,1.3,28.9,0.1,46.1
	c-1.7,24.1,16,39.2,19.5,41.9c8.6,6.8,20.1,10.9,31.4,11.4c0.7,0,1.5,0,2.2,0c8.6,0,20.2-2.1,30.5-10.9
	C103.3,71.7,99.8,45.2,99.7,44z M29.2,6.7c15.2-7.2,29.6-3.9,35.1-2.2C69,6,73.4,8.2,77.4,10.9c-1.9-1-3.8-1.8-5.6-2.5
	c-2.7-1-24.1-8-43.7-1.2C28.5,7.1,28.9,6.8,29.2,6.7z M1.7,46.2c0.7-9.4,4.4-18.5,10.4-25.9c-6.4,9.9-8.9,22-9.2,24.1
	c-1.1,10.7,1.5,21.9,7.3,31.3C5.4,68.7,0.8,58.7,1.7,46.2z M82.7,87.3C75,94,63.5,98.2,51.1,97.9c4.1,0,8.5-0.7,13.1-2.2
	c22.1-7.3,34.6-30.5,32.6-55.3c-0.1-1.3-0.3-2.5-0.5-3.7c0.8,2.5,1.3,5,1.7,7.6C98.2,45.4,101.6,71.1,82.7,87.3z"/>
<path d="M58.7,47.2c1.1,1.5,2.2,3.1,3.1,4.7c0.8-0.2,1.6-0.4,2.4-0.7c2.1-0.6,4.2-1.4,6-2.4c0-0.1,0-0.2,0-0.4
	C66.6,47.9,62.7,47.4,58.7,47.2z M36.3,37.3c0.3,0.1,0.6,0.2,0.9,0.3c0.1,0.1,0.3,0.2,0.4,0.3c0.3,0.2,0.6,0.2,0.9,0.4
	c0.1,0.1,0.2,0.1,0.3,0.2c0.4,0.2,1.1,0.9,1.2,1c0.3,0.2,2.4,1.2,2.7,1.4c0.1,0.1,1.6,1.3,1.9,1.5c0.2,0.1,0.9,0.7,1.1,0.9
	c0.2,0.1,0.3,0.3,0.5,0.4c0.2,0.2,0.4,0.4,0.6,0.5c0.2,0.1,0.3,0.3,0.5,0.4c0.2,0.2,1.1,0.8,1.2,1c0.2,0.2,0.7,0.7,0.9,0.9
	c0.1,0.1,1.1,0.9,1.3,1.1c0,0,1.3,1.5,1.4,1.6c0.3,0.4,0.7,1.4,1,1.8c0.4,0.5,0.1,0.3,0.5,0.8c0.1,0.2,0.3,0.4,0.4,0.6
	c0.2,0.3,0.4,0.6,0.6,0.9c1.6-0.2,3.3-0.4,4.9-0.7c0-0.1-0.1-0.1-0.1-0.2c-0.1-0.1-0.2-0.3-0.3-0.4c-0.2-0.4-0.5-0.7-0.7-1.1
	c-0.1-0.2-0.3-0.3-0.4-0.4c-0.2-0.4-0.4-0.8-0.7-1.1c-0.1-0.1-0.2-0.3-0.3-0.4c-0.4-0.5-0.7-1-1.1-1.5c-0.1-0.1-0.3-0.2-0.4-0.3
	l-0.1-0.3c0,0,0,0,0,0c-0.3-0.3-0.6-0.8-0.8-1.1c-2.2-2.9-2.9-3-4.5-4.4c0,0,0,0,0,0c-1.2-1-1.9-1.4-3.1-2.3c-1.1-0.8-2.7-2-3.9-2.7
	c-1.2-0.7-2.4-1.2-3.5-1.7c-0.1-0.1-0.3-0.1-0.4-0.2c0,0-0.1,0-0.1,0c-0.5,0.3-1,0.7-1.5,1c-0.7,0.5-1.3,1-1.9,1.6
	c0.1,0,0.2,0.1,0.3,0.1C36.1,37.1,36.1,37.2,36.3,37.3z M45.5,33.8c0.2,0,0.3,0,0.5,0c0.7-0.1,1.5-0.1,2.2-0.2c0.3,0,0.7,0,1-0.1
	c0.4,0,0.8,0,1.2-0.1c0.4,0,0.8,0,1.2,0c0.4,0,0.8,0,1.2,0c0.2,0,0.3,0,0.5,0c0.2,0,0.3,0,0.5,0c0.7,0,1.4,0,2.1,0
	c0.2,0,0.4,0,0.7,0c0.9,0,1.8,0.1,2.6,0.1c0.2,0,0.4,0,0.6,0c-2.9-1.6-6.3-2.5-9.9-2.5c-2.9,0-5.7,0.6-8.2,1.7
	c0.7,0.3,1.5,0.7,2.2,1.1C44.4,33.9,44.9,33.9,45.5,33.8z M68.4,42.8c-0.3-0.1-0.6-0.1-0.8-0.2c-0.4-0.1-0.7-0.1-1.1-0.2
	c-0.3,0-0.5-0.1-0.8-0.1c-0.4-0.1-0.8-0.1-1.2-0.2c-0.3,0-0.5-0.1-0.8-0.1c-0.4-0.1-0.9-0.1-1.3-0.1c-0.2,0-0.4,0-0.6-0.1
	c-0.7-0.1-1.3-0.1-2-0.2c0,0,0,0-0.1,0c-0.7,0-1.3-0.1-2-0.1c-0.2,0-0.5,0-0.7,0c-0.4,0-0.9,0-1.4,0c-0.3,0-0.6,0-0.8,0
	c-0.3,0-0.7,0-1,0c1.1,1.1,2.1,2.2,3.1,3.3c0.1,0,0.2,0,0.3,0c1,0,2.1,0.1,3.1,0.2c0.1,0,0.1,0,0.2,0c1,0.1,2.1,0.2,3.1,0.3
	c0.2,0,0.4,0,0.6,0.1c1,0.1,2,0.2,2.9,0.4c0.2,0,0.4,0.1,0.5,0.1c0.8,0.1,1.5,0.2,2.2,0.4C69.3,44.9,68.9,43.8,68.4,42.8L68.4,42.8z
	 M58.8,36c-0.6,0-1-0.1-1.6-0.2c-0.3,0-1.1-0.1-1.4-0.1c-0.9,0-1.3,0.1-2.2,0.1c-0.4,0-0.7,0-1.1,0c-0.4,0-0.6-0.1-1-0.1
	c-0.4,0-1.2,0.1-1.5,0.1c-0.4,0-0.6-0.1-1.1,0c-0.3,0-0.6,0.1-0.9,0.2c-0.2,0-0.5,0-0.7,0.1c1.4,0.9,2.7,1.9,4,3.1
	c0.7,0,1-0.2,1.7-0.2c0.7,0,0.9,0,1.6,0c0.2,0,1.1,0.1,1.4,0.2c0.5,0,0.7,0.2,1.2,0.2c0.3,0,0.5,0,0.8,0c0.4,0,0.9,0,1.3,0.1
	c0.3,0,1.2-0.2,1.4-0.1c0.4,0,0.9,0.1,1.3,0.1c0.2,0,0.7,0.1,0.9,0.1c0.5,0.1,0.5,0.2,1,0.3c0.1,0,0.7,0,0.9,0
	c0.6,0.1,0.6,0.1,1.3,0.2c0.2,0,0.3,0,0.5,0.1c0.1,0,0.2-0.1,0.3-0.1c-0.9-1.3-2.2-2.2-2.9-3.3c-0.5-0.1-0.7-0.2-1.2-0.3
	c-0.2,0-1-0.1-1.2-0.1c-0.6-0.1-0.9,0-1.6-0.1C59.4,36,59.1,36,58.8,36z M29.3,53.8c0.1,0.7,0.4,1.8,0.5,2.5c0,0,0,0,0.1,0
	c0.2,0.1,0.4,0.2,0.6,0.3c0.2,0.1,1,0.4,1.2,0.5c0.2,0.1,2.2,0.8,2.4,0.9c0.2,0.1,1.1,0.3,1.3,0.4c0.2,0.1,0.5,0.1,0.7,0.2
	c0.2,0.1,0.4,0.1,0.6,0.2c0.3,0.1,1.8,0.5,2.1,0.5c0.2,0,2.5,0.5,2.8,0.5c0.1,0,2.6,0.6,2.6,0.6c0.1,0,1.8-0.1,1.9-0.1
	c0.5,0,0.9,0.1,1.4,0.1c0,0,0,0,0,0c1,0,1.9,0,2.9,0c0.5,0,1.7-0.1,1.9-0.1c0.3,0,1.7-0.4,2-0.4c0.2,0,2.7-0.2,2.9-0.2
	c0.3,0,2.7-0.4,2.9-0.4c0.2,0,1.7-0.4,1.9-0.5c0.2-0.1,1.5-0.1,1.7-0.2c0.8-0.1,3.3-1.2,3.5-1.3c0.2-0.1,1.3-0.5,1.5-0.6
	c0.2-0.1,1.1-0.8,1.3-0.9c0,0,0.1,0,0.1-0.1c0.1-0.7,0-1.2,0.1-1.9c0.1-0.6,0.3-1.4,0.3-2c0-0.1,0-0.2,0-0.3c-0.2,0.1-2.4,1-2.6,1.1
	c-0.3,0.1-1.4,0.5-1.5,0.6c-0.4,0.1-2.4,1-2.8,1.1c-0.1,0-1.4,0.4-1.9,0.5c0,0,0,0,0,0c-1.2,0.3-2.4,0.3-3.7,0.5c0,0-0.1,0-0.1,0
	c-1.2,0.2-2.5,0.3-3.7,0.4c0,0,0,0,0,0c0,0,0,0,0,0c-0.6,0.1-1.2,0.1-1.8,0.1c-0.1,0-3.3,0.1-3.3,0.1c-0.5,0-1.1,0-1.6,0
	c-0.2,0-2.2-0.1-2.3-0.1c-0.6,0-2.7-0.1-3-0.1c-0.4,0-0.8-0.1-1.2-0.2c-0.4-0.1-0.5-0.3-1-0.4c-0.4-0.1-0.7-0.1-1.1-0.2
	c-0.3-0.1-3.1-0.7-3.3-0.7c-0.5-0.1-1-0.3-1.5-0.4c-0.2-0.1-1.6-0.5-2.1-0.7c-0.2-0.1-0.3-0.1-0.5-0.2c-0.6-0.2-1.1-0.4-1.7-0.7
	c-0.1,0-0.2-0.1-0.3-0.1C29.3,52.8,29.2,53.1,29.3,53.8z M30.8,50.1c0.4,0.2,0.9,0.4,1.3,0.5c0.2,0.1,0.4,0.1,0.6,0.2
	c0.3,0.1,0.5,0.2,0.8,0.3c0.3,0.1,0.5,0.2,0.8,0.2c0.2,0.1,0.2,0.2,0.4,0.2c0.3,0.1,0.8,0.1,1.1,0.2c0.2,0,0.4,0.1,0.5,0.1
	c0.6,0.1,0.7,0.3,1.3,0.4c1.6,0.5,4.7,0.7,5,0.7c0-0.1-0.1-0.1-0.1-0.2c-0.4-0.4-0.7-0.8-1.1-1.1c-0.1-0.1-0.5-0.3-0.6-0.4
	c-0.4-0.4-0.4-0.6-0.8-1c-0.1-0.1-0.8-0.4-0.8-0.5c-0.4-0.4-0.4-0.5-0.8-0.9c0,0-0.5-0.2-0.5-0.2c-0.4-0.4-0.6-0.5-1-0.8
	c-0.1-0.1-0.2-0.2-0.3-0.2c-0.4-0.3-0.6-0.6-1.1-1c-0.1-0.1-0.2-0.1-0.2-0.2c-0.4-0.3-0.3-0.4-0.7-0.6c-0.1-0.1-0.9-0.5-1-0.6
	c-0.5-0.3-0.7-0.3-1.1-0.6c-0.1-0.1-0.6-0.1-0.7-0.2c-0.4-0.2-0.5-0.3-0.9-0.5c-0.3,0.8-0.6,1.7-0.9,2.5c-0.2,0.9-0.2,1.6-0.3,2.6
	c0.3,0.2,0.5,0.4,0.8,0.6C30.6,50,30.7,50.1,30.8,50.1z M71.3,71.5l-1.7-1.3l-1-1.4l-1.7-1.7c-0.3,0.3-0.4,0.8-0.8,1.1
	c-0.2,0.2-1,0.7-1.2,0.9l1,0.8L67,71l1.8,1.6l2.3,2.5c0.2,0.2,0.8,0,1.1,0c0.3,0,0.7-0.5,0.9-0.8c0.5-0.5,0.6-0.8,0.1-1.3L71.3,71.5
	z M67.3,62.7c0.2-0.3,0.4-0.7,0.6-1c0.3-0.5,0.2-0.9,0.8-1.5c0.4-0.4,0.5-1.1,0.7-1.6c-0.4,0.2-0.8,0.3-1.2,0.5
	c-0.1,0-0.2,0.1-0.3,0.1c-0.7,0.3-1.3,0.5-2,0.7c-0.1,0-1.8,0.6-2.5,0.8c-0.1,0-1.7,0.5-2.5,0.6c0,0-0.1,0-0.1,0
	c-0.8,0.2-2.5,0.5-2.6,0.5c-0.7,0.1-1,0.5-1.8,0.5c-0.1,0-0.3,0-0.4,0c-0.8,0.1-1.5,0.2-2.3,0.2c-0.1,0-0.2,0-0.3,0
	c-0.8,0.1-2-0.1-2.9-0.1c-0.4,0-0.7,0-1.1,0c-0.5,0-1.7,0-1.7,0c-0.8,0-1.6-0.1-2.4-0.1c0,0-0.1,0-0.1,0c-0.8-0.1-2.6-0.3-2.6-0.3
	c-0.8-0.1-2.1-0.3-2.8-0.5c-0.1,0-2.2-0.5-2.3-0.5c-0.7-0.2-2.3-0.6-2.4-0.7c-0.7-0.2-1.4-0.4-2.1-0.7c-0.1,0-0.1-0.1-0.2-0.1
	c-0.6-0.2-1.2-0.5-1.8-0.7c0.2,0.6,1,1.4,1.3,2c0.4,0.7,0.3,1.2,0.8,1.9c0.5,0.2,1,0.4,1.5,0.6c0.1,0,1.5,0.6,2.2,0.8
	c0.1,0,1.5,0.5,2.2,0.7c0.1,0,1.6,0.4,2.3,0.5c0.1,0,1.6,0.3,2.3,0.4c0,0,0.1,0,0.1,0c0.7,0.1,1.5,0.2,2.2,0.3c0,0,2.4,0.1,2.4,0.1
	c0.8,0,1.6,0,2.4,0c0.8,0,1.6-0.1,2.3-0.1c0,0,0,0,0.1,0c0.8-0.1,2.2-0.5,2.2-0.5c0.7-0.1,2.3-0.4,2.3-0.4c0.7-0.1,1.6,0,2.3-0.2
	c0.1,0,1.5-0.4,2.2-0.6c0.1,0,2.3-0.8,2.4-0.8c0.6-0.2,1.3-0.5,1.9-0.8C66.3,63.2,67,62.9,67.3,62.7z M63.7,66.7
	c-0.5,0.2-0.9,0.3-1.4,0.4c-0.1,0-0.2,0.1-0.3,0.1c-0.5,0.2-1.1,0.3-1.6,0.4c-0.1,0-0.2,0.1-0.4,0.1c-0.5,0.1-1,0.2-1.5,0.3
	c-0.1,0-0.2,0-0.3,0.1c-0.6,0.1-1.1,0.2-1.7,0.3c-0.1,0-0.3,0-0.4,0.1c-0.5,0.1-1.1,0.1-1.6,0.2c-0.1,0-0.1,0-0.2,0
	c-0.6,0.1-1.1,0.1-1.7,0.1c-0.1,0-0.3,0-0.4,0c-0.6,0-1.2,0.3-1.8,0.3c-0.3,0-0.6,0-0.9,0c-0.1,0-0.3,0-0.4,0c-0.5,0-1-0.2-1.5-0.3
	c-0.3,0-0.6,0-0.8,0c-0.6,0-1.6,0-2.2-0.1c-0.2,0-0.4,0-0.5,0c-0.7-0.1-0.9-0.3-1.6-0.4c-0.3,0-0.5-0.1-0.8-0.1
	c-0.5-0.1-1-0.2-1.4-0.3c-0.3-0.1-0.5-0.1-0.8-0.2c-0.5-0.1-0.9-0.2-1.4-0.3c-0.3-0.1-0.5-0.1-0.7-0.2c-0.5-0.1-0.9-0.3-1.4-0.4
	c1.8,1.7,3.7,2.6,6.1,3.6c1,0.4,2.2,1.2,3.3,1.4c1.5,0.3,3,0.5,4.6,0.5c1.5,0,3.2-0.4,4.6-0.7c1.1-0.3,2.1-0.4,3.1-0.8
	c0.8-0.3,2.2-1.1,2.2-1.1s2.7-1.3,4.3-3.1c-0.1,0-0.2,0.1-0.2,0.1C63.9,66.7,63.8,66.7,63.7,66.7z M77.5,26.9
	c-0.3-0.9-1.3-1.4-2-2.1c-1.2-1.2-2.8-0.7-2.8-0.7s-1.1-0.1-1.6,0.1c-0.7,0.2-1.1,0.7-1.6,1.1c-0.9,0.8-1.2,2.1-1.2,3.4
	c0,0.9,0.2,1.7,0.6,2.3l-1.2,1.3l-0.7,1.1l-1.7,1.5c0.6,0.5,1.1,1.1,1.6,1.7l1-0.9l1.6-1.5l1.5-1.8c0.7,0.4-0.4,0.8,1.7,1
	c0.7,0.1,1.4,0.1,1.9-0.2c0.8-0.4,1.1-0.5,2-1.3c0.5-0.4,1.1-1.3,1.1-2.2C78,29.1,77.7,27.4,77.5,26.9z M34,38.7
	c-0.3,0.4-0.8,0.7-0.9,1.1c-0.1,0.8-0.9,1.3-1.3,2c0.5,0.3,0.8,0.3,1.3,0.6c0.1,0,0.4,0.3,0.5,0.3c0.6,0.3,0.8,0.4,1.3,0.7
	c0.1,0.1,0.5,0.4,0.6,0.5c0.6,0.4,1.1,0.7,1.6,1.1c0.1,0.1,0.2,0.1,0.3,0.2c0.5,0.4,0.8,0.6,1.3,1c0.1,0.1,0.7,0.4,0.7,0.5
	c0.5,0.4,0.9,0.8,1.4,1.3c0.1,0,0.3,0.2,0.4,0.2c0.5,0.5,0.9,0.9,1.4,1.4c0,0,0.5,0.4,0.5,0.4c0.5,0.5,0.8,0.8,1.3,1.3
	c0.1,0.1,0.2,0.3,0.3,0.4c0.5,0.5,0.6,0.8,1.1,1.4c0,0.1,0.1,0.1,0.1,0.2c0.1,0,0.3,0,0.4,0c0.4,0,0.9,0,1.3,0c0.2,0,0.4,0,0.5,0
	c0.6,0,1.2,0,1.8,0c0.5,0,1.1,0,1.6-0.1c0,0,0,0,0,0c0,0,0,0,0-0.1c-0.4-0.6-0.5-0.9-0.9-1.4c-0.3-0.4-0.9-1-1.2-1.4
	c-0.1-0.1-0.1-0.3-0.2-0.4c-0.2-0.2-0.4-0.4-0.6-0.6c-0.1-0.1-0.5-0.4-0.6-0.5c-0.2-0.2-0.9-0.9-1-1.1c-0.2-0.2-0.5-0.7-0.7-0.9
	c-0.2-0.2-1.2-1-1.4-1.1c-0.2-0.2-0.4-0.3-0.6-0.5c-0.2-0.1-0.3-0.3-0.4-0.4c-0.2-0.2-0.5-0.3-0.6-0.4c-0.2-0.1-0.3-0.3-0.5-0.4
	c-0.2-0.2-0.4-0.3-0.6-0.5c-0.2-0.1,0-0.1-0.1-0.3c-0.2-0.1-0.6-0.3-0.8-0.5c-0.2-0.1-0.9-0.8-1.1-1c-0.2-0.1-1.6-0.9-1.8-1
	c-0.2-0.1-0.2-0.2-0.4-0.3c-0.2-0.1-1.6-0.8-1.8-0.9c-0.2-0.1-0.5-0.2-0.7-0.3c-0.2-0.1-0.3-0.2-0.4-0.3c-0.2-0.1-0.5-0.3-0.7-0.3
	C34.3,38.8,34.1,38.8,34,38.7z M29,32.7l1.3,1.2l1.1,0.7l1.5,1.7c0.5-0.6,1.1-1.1,1.7-1.6l-1.2-1l-1.5-1.6L30.7,31
	c0.4-0.7,0.6-1.5,0.6-2.3c0-0.7-0.3-1.4-0.5-2c-0.4-0.8-0.5-1.5-1.7-2c-0.8-0.3-1.5-0.7-2.4-0.7c-0.6,0-1.3-0.2-1.8,0
	c-0.9,0.3-1.6,1.2-2.1,2c-0.5,0.7-0.9,1.9-0.7,2.8c0.3,1.2,0.4,2.3,1.2,3.2c0.8,0.9,2.1,1.2,3.4,1.2C27.6,33.3,28.4,33.1,29,32.7z
	 M31.6,68.4l-1.9,2.1L27,72.9c-0.5,0.5-0.6,1.4-0.1,1.9c0.2,0.2,1.5,0.1,1.8,0.1c0.3,0,0.8-0.3,1-0.6l0.7-0.8l1.1-1.4l1.7-1.4L35,69
	c-0.6-0.5-1.6-1.3-2.2-1.9L31.6,68.4z"/>
</svg>
