<?xml version="1.0" encoding="utf-8"?>
<!-- Generator: Adobe Illustrator 24.3.0, SVG Export Plug-In . SVG Version: 6.00 Build 0)  -->
<svg version="1.1" id="Layer_1" xmlns="http://www.w3.org/2000/svg" xmlns:xlink="http://www.w3.org/1999/xlink" x="0px" y="0px"
	 viewBox="0 0 100 100" style="enable-background:new 0 0 100 100;" xml:space="preserve">
<style type="text/css">
	.st0{fill:#FFFFFF;}
	.st1{fill-rule:evenodd;clip-rule:evenodd;}
</style>
<path class="st0" d="M99.7,44C97,25,83.4,8.9,64.8,3c-5.7-1.8-20.5-5.2-36.3,2.3C12.5,12.9,1.3,28.9,0.1,46.1
	c-1.7,24.1,16,39.2,19.5,41.9c8.6,6.8,20.1,10.9,31.4,11.4c0.7,0,1.5,0,2.2,0c8.6,0,20.2-2.1,30.5-10.9
	C103.3,71.7,99.8,45.2,99.7,44z M29.2,6.7c15.2-7.2,29.6-3.9,35.1-2.2C69,6,73.4,8.2,77.4,10.9c-1.9-1-3.8-1.8-5.6-2.5
	c-2.7-1-24.1-8-43.7-1.2C28.5,7.1,28.9,6.8,29.2,6.7z M1.7,46.2c0.7-9.4,4.4-18.5,10.4-25.9c-6.4,9.9-8.9,22-9.2,24.1
	c-1.1,10.7,1.5,21.9,7.3,31.3C5.4,68.7,0.8,58.7,1.7,46.2z M82.7,87.3C75,94,63.5,98.2,51.1,97.9c4.1,0,8.5-0.7,13.1-2.2
	c22.1-7.3,34.6-30.5,32.6-55.3c-0.1-1.3-0.3-2.5-0.5-3.7c0.8,2.5,1.3,5,1.7,7.6C98.2,45.4,101.6,71.1,82.7,87.3z"/>
<path class="st1" d="M77.6,51.8c-0.7-0.5-1.1-1.1-1.9-1.4c-1-1.2-2.7-1.8-3.7-3c0.3-0.4,0.5-0.8,0.5-1.4c1.1-0.6,1.8-1.5,3-1.9
	c0.6-1.3,1.9-1.8,2.3-3.3c-0.4-0.1-0.2-0.8-0.7-0.9c-0.4-0.2-0.7-0.4-1.1-0.5c0.2-1-0.7-1-0.9-1.6h-2.3c-0.6-0.1-1.7,0.2-2.1-0.2
	c0.3-1.4,0.3-3.1,0.5-4.6c-0.1-1.9,0.3-3.1-0.4-4.4c-1.1-0.3-2.1,0.3-3,0.7c-1.1,0.1-1.8,0.6-3,0.7c-0.9,0.5-1.6,1.2-2.8,1.4
	c-0.5-2.3-1.4-4.2-2.1-6.3c0.1-0.8,0.5-2-0.2-2.5c-0.1,0-0.3,0-0.4-0.2c-1.6,0.3-2.3,1.6-3.7,2.1c-0.4,0.6-1,1-1.6,1.4
	c-0.6,0.4-1,1-1.8,1.2c-1.2-0.8-1.8-2.2-2.8-3.2c-0.3-0.7-0.9-1.1-1.2-1.8c-0.7-0.3-0.9-1.2-1.8-1.4h-0.4c-0.7,0.8-0.7,2.2-1.4,3
	c0.1,1.2-0.5,1.6-0.4,2.8c-0.5,0.6-0.4,1.8-0.9,2.5c-0.4-0.5-1.1-0.6-1.6-1.1c-0.6,0.1-0.7-0.3-1.1-0.4c-0.3-0.2-0.9-0.1-1.1-0.4
	c-1.8,0-2.3-1.4-4.4-1.2c-0.9,0.9-0.6,3-1.1,4.4c0,1.7-0.2,3.2-0.4,4.7c-0.5-0.2-0.9-0.5-1.6-0.5c-1.4,0-2.4-0.3-3.9-0.2
	c-0.5,0.2-1.3,0.2-2.1,0.2c-0.9,0.4-2.3,0.4-2.5,1.6c0,0-0.2,0-0.2,0c0.2,1.5,1.5,2.4,1.9,3.9c0.7,1.3,1.5,2.5,1.8,4.2
	c-2.2,0.4-3.8,1.5-5.8,2.3c0,0.5-0.4,0.7-0.7,0.9c0.2,1.1-0.6,1.7-0.2,2.5c0.2,0.6,1,0.5,1.4,0.9c1.1,1.2,2.3,2.4,3.3,3.7
	c-1.2,1.3-2.5,2.6-3,4.6c0.1,0.6,0.6,0.8,0.9,1.2c-0.6,0-0.6,0.4-0.7,0.9c0.5,0.6,1.7,0.6,2.8,0.5c1.4,0.5,3.6,0.3,5.1,0.7
	c-0.3,2,0.1,3.8,0,6c0.2,0.4,0.4,0.8,0.7,1.1c-0.1,0.7,0.2,1,0.4,1.4c2.3,0.6,3.2-1.1,5.3-1.2c0.1,2.3,1.1,3.7,1.4,5.8
	c0.7,0.6,1,1.7,2.3,1.8c0.4,0,0.7-0.3,0.7-0.7c0.5,0,0.6-0.5,1.1-0.5c0.5-0.5,1.4-0.6,1.8-1.2c1.3-0.7,2.2-1.9,3.7-2.5
	c0.3,0.7,1.1,1.1,1.4,1.6c0.2,0.2,0.2,0.5,0.4,0.7c0.2,0.3,0.7,0.7,0.9,0.9c0.1,0,0,0.3,0,0.4c0.3,0.4,0.9,0.6,0.9,1.2
	c1.1,0.5,1.5,1.8,3,1.9c0.8-0.3,1.1-1,1.4-1.8c0.4-0.2,0.9-0.3,0.9-0.9c0.8-1.2,0.9-3.1,1.8-4.2c1.8,1.3,3.3,2.8,6.3,3
	c0.6-0.8,0.6-2,1.1-3c0.1-2.4-0.1-4.6-0.4-6.7c0.7,0.5,1.7,0,2.3-0.2c0.8,0.4,2.3,0.1,3.3,0.2c1.3,0.2,2.1-0.2,2.6-0.9
	c0-2.1-1.5-2.8-2.1-4.4c-0.5-0.5-0.6-1.5-1.2-1.9c-0.3-0.8-0.5-1.7-1.8-1.6c-1.4,0.5-0.3,2.3,0,3.2c0.6,0.2,0.4,1.2,0.9,1.4
	c0.1,0.7,0.7,0.9,0.7,1.6c-0.5-0.2-0.7-0.7-1.6-0.5c-0.9,0.3-1.6,0.4-2.5,0.5c-0.5,0.3-0.8,0.9-1.2,1.2c-0.4,0-0.8,0-1.1,0.2
	c-0.3,0.8-0.5,1.8-0.9,2.6v2.5c0.1,0.5-0.2,0.5-0.2,0.9c-0.2,0.6,0.4,1.2,0,1.4c-0.9-0.5-1.7-1.1-2.5-1.8c-0.5-0.2-1.2-0.2-1.6-0.5
	c-0.5-0.2-0.9-0.5-1.6-0.5c-1,0.6-1.4,1.8-1.9,2.8c-0.4,1.3-0.6,2.7-1.2,3.7c-0.9-1.2-1.6-2.5-2.6-3.5c-1.1-1-1.4-2.8-3-3.3h-0.9
	c-1.2,0.7-1.9,1.8-3.2,2.5c-0.5,0.4-1,0.8-1.6,1.2c-0.6,0.4-0.9,1.1-1.8,1.2c-0.2-1.2-0.7-2-0.9-3.2c-0.1-1.4,0.2-3.1-0.2-4.2
	c-0.5-0.3-0.8-0.7-1.6-0.7c-1,0.2-1.6,0.7-2.1,1.4c-0.8,0.4-1.5,1-2.5,1.2c-0.1-3,0.4-6.6-0.5-8.8C32.4,58,30,57.9,27.4,58
	c0.6-0.9,1.5-1.4,1.8-2.5c0-1.1-0.8-1.3-0.5-2.6c-0.6,0.1-0.7-0.2-1.1-0.4c-0.4-0.5-0.7-1.1-1.2-1.4c-0.1-0.8-1-0.8-1.1-1.6
	c2.3-1,4.2-2.3,5.6-4c-0.2-1.3,0-1.9-0.2-3.2c-0.4-0.5-0.8-1-1.1-1.6c-0.4-1.3-1.1-2.3-1.6-3.5c2.2-0.1,4.7,0.1,6.1-0.7
	c-0.1,1,0.5,1.5,1.4,1.6c0.8-0.1,1-0.6,1.4-1.1v-2.8c0.3-0.8,0-2.3,0.4-3.2c0.1-0.6-0.2-1.6,0.2-1.9c1,0.4,2.1,0.7,2.8,1.4
	c2.1,0.2,3.1,1.5,5.3,1.8c1-0.4,1-1.8,1.2-3c0.2-0.5,0-1.4,0.3-1.8c0-0.8,0.1-1.5,0.4-1.9c0.5,0.5,0.9,1.1,1.2,1.8
	c0.4,0.6,1,1,1.2,1.8c0.6,0.3,1,0.8,1.6,1.2c0.2,0.7,0.7,1.2,1.6,1.2c0.8-0.1,1-0.6,1.4-1.1c0.2-0.7,0.9-0.9,1.1-1.6
	c0.5-0.3,0.8-1,1.2-1.4c0.6-0.1,0.8-1.3,1.4-0.9c0.1,1.7,0.8,3,1.2,4.4c0.7,1.3,0.8,3.1,1.9,3.9c1,0,1.1-0.7,2.3-0.5
	c0.6-0.6,1.6-0.9,2.3-1.4c1-0.3,1.7-0.9,2.6-1.2c0.1,2.5-0.5,4.3-0.7,6.5c-0.1,0.6-0.6,0.9-0.5,1.8c0.7,0.1,1.1,0.4,1.8,0.5
	c1.5,0,4.3-0.7,5.1,0.5c-1.5,1.2-3.4,2-4.9,3.2c0,0.9-0.6,1.1-0.5,2.1c0.1,0.7,0.6,1.1,0.7,1.9c0.7,0.3,1.2,0.8,1.8,1.2
	c0.6,0.5,1.2,0.9,1.6,1.6c0.9,0.6,1.9,1.1,2.5,2.1c-1.8,0.5-3.9,0.7-5.3,1.6c-0.1,0.9,0.1,1.4,0.4,1.9c2.4,0.3,3.5-0.8,5.4-1.1
	c0.3-0.3,0.8-0.4,1.1-0.7c0.7-0.3,1.9-0.1,1.9-1.1c0-0.1,0-0.2,0.2-0.2C78.8,52.8,78.2,52.3,77.6,51.8z M61.8,54.8
	c1.5,0,3.1,0,3.9-0.7c0.1-0.6-0.1-1-0.2-1.4c-0.8-0.2-1.8-0.2-2.8-0.2c-0.1-1-0.2-1.9-0.4-2.8c0.8-0.4,2.2-0.2,2.3-1.2
	c-0.1-1.2-1.2-1.3-2.6-1.2c0.1-0.8-0.3-1.1-0.2-1.9c0.9,0,1.8,0.1,2.3-0.3c0.1-0.4,0.3-0.7,0.2-1.2c-0.9-1.3-4.3-1.1-4.7,0.5
	c-0.2,1,0.7,0.8,0.7,1.6c0.1,0.9,0.2,1.7,0.2,2.8C61.1,50.5,60.5,53.6,61.8,54.8z M41.1,43.9c-0.4,0-0.5-0.3-0.7-0.5
	c-2.4,0.1-4,0.9-5.6,1.8C34.4,45,34,44.6,33.6,45c-0.3,0.8-0.1,2.1-0.2,3.2c0.4,1.2,0.3,2.8,0.7,4c0.1,2-0.2,4.4,1.9,4.4
	c1.4-1.1,0.2-3.2,0.4-5.1c1,0,1.6-0.4,2.6-0.4c0.7-0.3,1.8-0.2,1.6-1.4c-0.5-1.6-3.5-0.6-4.7-0.4c-0.2-0.6-0.5-1.1-0.5-1.9
	c2.2-0.3,4-1,5.8-1.8V43.9z M57.2,45.5c0.1-1.2-0.7-1.4-1.4-1.8c-1.3-0.1-2.3,0.1-2.8,0.7c0,0.1,0,0.3-0.2,0.3
	c-0.1,3.3,0,6.4,0.4,9.3c0.4,0.2,0.7,0.5,0.9,0.9c2,0,4.5,0.4,4.4-1.8c-0.1,0-0.2-0.1-0.2-0.4c-0.5-0.6-1.8-0.3-2.8-0.4v-1.8
	c1.2,0.1,2-0.2,2.6-0.7c0.1-0.8-0.1-1.3-0.2-1.9c-0.6,0-0.8-0.4-1.4-0.4h-0.9c-0.4-0.2-0.7,0.5-0.7,0c-0.1-0.4-0.3-0.8-0.2-1.4
	C55.9,46.4,56.7,46.1,57.2,45.5z M48.5,52.9c0.5,0.3,0.8,0.8,1.2,1.1c0.5,0.3,0.6,1,1.6,0.9c0.9-0.1,1.3-0.7,1.4-1.6
	c-0.4-0.9-1.3-1.3-1.8-2.1c-1-0.5-1.9-1-2.6-1.8c0.6-0.9,1.5-1.5,1.4-3.2c-0.3-1.1-1.3-1.6-2.1-2.3h-2.1c-0.9,0.3-1.6,0.9-2.5,1.2
	c0.1,0.8-0.7,0.7-0.5,1.6c0,0.6,0.8,0.3,0.7,1.1c0,0.2,0.1,0.4,0.2,0.5c0,1.8,0.3,3.3,0.5,4.9c0,1.4-0.2,3,1.4,2.8
	c0.8-0.3,0.5-1.6,0.5-2.6c-0.1-0.7-0.6-1.9-0.2-2.5C46.7,51.5,47.6,52.2,48.5,52.9z M45.5,48.9c-0.9-0.3-0.5-1.8-1.1-2.5
	c0.2-0.6,0.9-0.7,1.4-1.1c0.5,0.3,1.3,0.4,1.6,1.1C47.3,47.8,46.1,48,45.5,48.9z"/>
</svg>
