<?xml version="1.0" encoding="utf-8"?>
<!-- Generator: Adobe Illustrator 23.1.1, SVG Export Plug-In . SVG Version: 6.00 Build 0)  -->
<svg version="1.1" id="Layer_1" xmlns="http://www.w3.org/2000/svg" xmlns:xlink="http://www.w3.org/1999/xlink" x="0px" y="0px"
	 viewBox="0 0 100 100" style="enable-background:new 0 0 100 100;" xml:space="preserve">
<style type="text/css">
	.st0{fill:#83C7BD;}
</style>
<path class="st0" d="M99.7,44C97,25,83.4,8.9,64.8,3c-5.7-1.8-20.5-5.2-36.3,2.3C12.5,12.9,1.3,28.9,0.1,46.1
	c-1.7,24.1,16,39.2,19.5,41.9c8.6,6.8,20.1,10.9,31.4,11.4c0.7,0,1.5,0,2.2,0c8.6,0,20.2-2.1,30.5-10.9
	C103.3,71.7,99.8,45.2,99.7,44z M29.2,6.7c15.2-7.2,29.6-3.9,35.1-2.2C69,6,73.4,8.2,77.4,10.9c-1.9-1-3.8-1.8-5.6-2.5
	c-2.7-1-24.1-8-43.7-1.2C28.5,7.1,28.9,6.8,29.2,6.7z M1.7,46.2c0.7-9.4,4.4-18.5,10.4-25.9c-6.4,9.9-8.9,22-9.2,24.1
	c-1.1,10.7,1.5,21.9,7.3,31.3C5.4,68.7,0.8,58.7,1.7,46.2z M82.8,87.3C75,94,63.5,98.2,51.1,97.9c4.1,0,8.5-0.7,13.1-2.2
	c22.1-7.3,34.6-30.5,32.6-55.3c-0.1-1.3-0.3-2.5-0.5-3.7c0.8,2.5,1.3,5,1.7,7.6C98.2,45.4,101.6,71.1,82.8,87.3z"/>
<path d="M30.1,39.4c-0.1,0.3-0.1,0.1,0,0.6c0.1,0.5,0.1,0.9,0.1,1.2c0.1,0.1,0.1,0.1,0.1,0.2c0,0.1-0.1,0.2-0.1,0.3
	c0,0.1-0.1,0.3-0.1,0.4c-0.1,0.2,0,0.5,0.2,1c0.3,0.3,0.9,0.5,1.9,0.6c0.3,0,0.8,0,1.3,0.1c0.5,0.1,1,0.1,1.2,0.1
	c1.2,0,1,0.2,3.2,0.2c0.3,0,0.5,0,0.6,0c-0.2,0-0.2-0.1,1.2-0.2c0,0,0.3-1.2,0.2-1.9c-0.2-0.7-0.4-1.4-0.4-1.4l-2,0h0.2
	c-5.6,0-2.3,0.1-4,0.2c-0.2-1-0.4,0.4-0.5-3.9c-0.1-1-0.2-0.8-0.2-2.8c0,0-0.5,0.1-1.5-0.1s-1.7,0.6-1.7,0.6c0,2.3,0.1,1.7,0.2,2.7
	L30.1,39.4z M38.6,44.3C38.7,44.3,39,44.3,38.6,44.3L38.6,44.3z M35.5,55.9c0.2,0,2.5-0.7,3-0.9c0.4-0.3,0.7-0.5,1-0.6
	c0.2-0.1,0.6-0.3,1.1-0.5c0.5-0.2,0.8-0.4,1.1-0.5c2.3-1.5,4-3.3,5.2-5.4c0.1-0.2,0.2-0.6,0.3-1.2c0.1-0.5,0.2-1,0.2-1.2
	c0-0.1,0.1-0.3,0.1-0.5c0-0.3,0.1-0.4,0.2-0.5c0-0.1,0.2-1.2,0.3-1.2c0-0.3,0-0.9,0.1-1.7c0-0.9,0-1.6,0-2.1c0-0.3-0.3-2.5-0.4-2.8
	c0-0.3-0.2-0.8-0.3-1.3c-0.2-0.5-0.3-1-0.3-1.2c-0.1-0.1-0.5-0.7-0.6-0.8c-0.2-0.3-0.4-0.5-0.6-0.7c-0.5-0.7-0.9-1.1-1.2-1.4
	c-0.1-0.1-0.9-1.1-2.4-2.9c-0.2,0-0.3-0.1-0.4-0.3c-0.1,0-0.5-0.3-1.2-0.8c-0.6-0.2-1-0.4-1.3-0.6c-0.4-0.1-0.9-0.3-1.5-0.6
	c-0.4-0.2-0.7-0.3-0.9-0.4c-0.2-0.1-0.5-0.2-0.7-0.2h-3.1c0,0.1-0.1,0.1-0.2,0.1c-0.1,0-0.6-0.2-0.7,0.5s0,1.5,0,1.5l0.3,1.3
	c0.7,0,1.2,0,1.4,0.1c0.5,0,2.4,0.2,2.7,0.3s0.6,0.2,0.8,0.2c0.1,0.1,0.4,0.3,0.7,0.5s0.5,0.4,0.6,0.5c0.7,0.6,1.1,0.9,1.2,1
	c0.1,0.2,0.3,0.4,0.5,0.6s0.5,0.5,0.5,0.6c0.4,0.3,0.7,0.7,1,1.2c0.4,0.4,1,1.4,1.7,2.8c0.1,0.4,0.3,1.1,0.4,2
	c0.2,0.9,0.2,1.5,0.3,1.8c0.1,3.2-0.4,5.3-1.4,6.2c0,0.4-0.2,1-0.6,1.9c-0.1,0-0.2,0.1-0.2,0.2c-0.1,0.2-0.9,0.5-0.9,0.5
	c-0.1,0.1-0.9,0.8-0.9,0.9c-0.3,0.1-0.7,0.4-1.1,0.8s-0.8,0.6-1,0.8c-0.1,0-0.3,0-0.5,0.1c-0.3,0-0.5,0-0.6,0
	c-0.3,0.1-0.9,0.3-1.8,0.6c-0.2,0-0.5,0-0.8,0c-0.3,0.1-0.5,0.1-0.6,0.1c-0.3,0-0.8-0.1-1.5-0.3s-1.2-0.2-1.5-0.3
	c-0.1,0-0.7-0.1-0.8-0.1c0-0.1-0.6-0.1-0.6-0.2c-0.3,0-0.5,0-0.8-0.1c-0.3-0.1-0.5-0.2-0.7-0.2c-1-0.9-1.7-1.5-2.3-1.7
	c-0.2-0.3-0.8-0.9-1.9-1.9c-0.3-0.7-0.5-1.2-0.8-1.4c-0.2-0.5-0.4-1-0.7-1.5c0-0.1-0.1-0.3-0.2-0.6S22,43.7,22,43.5
	c-0.1-0.3-0.2-0.7-0.2-1.3l1.8,0c0,0,0.7-0.1,1-0.1c0.2,0,0.2-1.2,0.2-1.2c-0.1-0.1-0.4-0.6-1-1.4c-0.6-0.8-0.6-0.9-0.8-1.5
	c-0.2-0.3-1-1.1-1.4-2c-0.4-0.9-1.1-1.5-1.5-1.8c0-0.1-0.1-0.1-0.3-0.1c-0.1,0.2-0.3,0.4-0.6,0.4c-0.1,0.3-0.3,0.8-0.7,1.3
	c-0.4,0.5-0.6,0.9-0.7,1.2c-0.1,0.3-0.5,0.7-0.7,1.3c-0.2,0.6-0.8,1-0.9,1.3c-0.1,0.1-0.2,0.3-0.3,0.6s-0.2,0.5-0.3,0.6
	c0,0.1,0,0.2-0.2,0.3c-0.1,0.1-0.2,0.3-0.2,0.4c0,0.1-0.1,0.4,0.1,0.5c0.2,0.2,1,0.1,1.7,0c0.7,0,1,0,1,0l0.3,0
	c0.2,2.1,0.4,3.3,0.4,3.8c0,0.1,0.2,0.4,0.4,0.8c0.2,0.4,0.4,0.8,0.5,1c0,0.1,0.2,0.4,0.4,0.7c0.2,0.4,0.4,0.7,0.5,0.9
	c0.2,0.4,0.6,1,1.2,1.7c0.5,0.7,0.9,1.1,1,1.3c0.1,0,0.1,0,0.1,0.1c0.2,0,0.4,0.2,0.7,0.4c0.3,0.2,0.9,0.6,1.2,0.7
	c0.3,0.1,0.5,0.3,0.7,0.4c1.2,0.6,2.2,1,2.9,1.1C30,55.8,32.4,56,35.5,55.9z M18.9,38.4c-0.2,0.3-0.2,0.5-0.2,0.5l0-0.9
	C19,38,19.1,38.1,18.9,38.4z M20.2,41.2c0-0.1,0.1-0.2,0.3-0.2C20.5,41.1,20.4,41.2,20.2,41.2z M77,39.5l-3.8-6.7l-1.3-2
	c-0.2-0.3-0.5-0.5-0.9-0.5c0,0-0.8,0-2.2,0c-0.8,0-2-0.1-3.1-0.1c-4.2-0.1-9.7-0.1-11.5,0.1c-0.8,0.1-2.1,0.1-3.7,0.1
	c0,0,0,0.1,0.1,0.1c0.1,0.1,0.2,0.3,0.4,0.5s0.2,0.4,0.4,0.5c0,0.2,0.1,0.4,0.2,0.7c0.9-0.1,1.7,0.1,1.7,0.1v0.8l-0.1,3l0.1,2.8
	h-0.5c0,0.5,0,1.2,0,2c0.3,0,0.5,0,0.5,0.1c0,0.2,0,1.2,0,1.2v1.5c0,1.3-0.4,2.3-1.4,3.2C51.9,47,51.8,47,51.7,47
	c-0.1,0.3-0.1,0.7-0.2,1.1c-0.2,0.7-0.3,1.2-0.4,1.5c0,0-0.1,0.1-0.1,0.1c0.6-0.2,1.2-0.4,1.6-0.7c0.8-0.5,1.2-1.2,1.7-2
	c0.3,0.4,0.4,0.8,0.9,1.2c0.6,0.3,1.3,0.8,1.9,1.1c0.9,0.5,1.8,0.7,2.9,0.7c0.9,0,2.1-0.5,2.9-0.9c0.7-0.3,1.1-0.7,1.5-1.1
	c0.3-0.3,0.6-0.4,0.9-1c0.5,0.7,1.1,1.4,1.8,1.9c0,0,0,2.2,0,3.7c0,0.7,0.2,2.3,0.2,3.7c0,1.5-0.2,2.9-0.2,3.7c0,1,0,3.1,0,4.7
	c0,0.9,0.2,1.6-0.1,1.8c-0.2,0.2-0.8,0.3-0.8,0.3h-1.8v-1.5c0,0,0.3-1.3,0-1.6s-0.9-0.1-0.9-0.1l-1.7-0.2c0,0-1.2,0-1.4,0.2
	c-0.2,0.2,0,1.1,0,1.1V67h-2v-2.2c0,0,0.3-0.6-0.2-0.9s-1.3,0-1.3,0H55c0,0-0.6-0.2-0.9,0.2s0.1,1,0.1,1V67h-3.1
	c0.3-0.6,0.3-1,0.6-2c0.3-1-0.1-1.1-0.3-1.6c-0.1-0.4-0.8-1.4-0.6-1c0.3,0.4-0.7-0.7-1.1-1v-2.1L48,59.2c0,0-0.9,0.1-1.7,0.1
	c-0.7,0.1-0.7,0-0.7,0v2.1c-0.6,0.4-1.1,0.9-1.5,1.5c-0.4,0.6-0.6,1.3-0.6,2.1c0,0.7,0.2,1.4,0.6,2c0,0-2,0.1-2.3-0.1
	s-0.2-1.2-0.2-2.7c0-2,0-4.7,0-5.8c0-0.1,0-0.2,0-0.4c0,0,0,0,0,0c-0.4,0.1-0.8,0.4-1.3,0.7c-0.6,0.2-1.1,0.4-1.5,0.6
	c-0.2,0.1-0.6,0.1-1.2,0.2c-0.6,0.1-1,0.2-1.2,0.2c-1,0-1.9,0-2.8,0c0.3,4.2,0.7,8.3,0.9,12.6c0.2,0,0.1,0.4,0.1,0.6
	c0.2,0.3,0.4,0.7,0.4,1.1c0.4,0.3,0.8,0.7,1.1,1.1c0.6,0.1,1,0.4,1.4,0.6c0.5,0.1,1.1,0.2,1.6,0.3h14.6c3.9-0.4,10-0.1,13.3-0.7h4.9
	c0.3-0.2,0.8-0.2,1.1-0.3c0.3-0.3,0.7-0.5,1-0.8c0.2-0.2,0.2-0.6,0.4-0.7c0.4-1.2,0.5-2.6,0.7-4V48.4c1.1-1.1,1.9-2.5,2-4.2h0V40
	C77.2,39.9,77.1,39.7,77,39.5z M47.7,67L47.7,67c-1.1,0-2-0.9-2-2c0-1.1,0.9-2,2-2s2,0.9,2,2C49.7,66.1,48.8,67,47.7,67z M55.3,38.1
	v-2.5c0,0,0.1-1.2,0-1.8c-0.1-0.6,0-1.3,0-1.3h2.8c0,0,0.6,0,1.7,0s1.8,0,1.8,0l0.5,1.4c0,0,0.7,1.6,0.8,2.5
	c0.1,0.9,0.9,2.7,0.9,2.7s-2.3-0.2-3.4,0c-1.2,0.2-3.2,0-3.2,0s-1.8,0.2-1.9,0C55.2,38.8,55.3,38.1,55.3,38.1z M64.2,43.7
	c0,1.2-0.7,2.2-1.5,3c-0.8,0.8-1.7,1.4-2.9,1.4c-1.4,0-2.9-0.8-3.7-1.8c-0.6-0.8-0.7-1.6-0.7-2.7l0.1-1.1l-0.1-1.6h2.3l4,0.3
	l2.6-0.3V43.7z M66,38.9c-0.2-0.3-0.5-1.1-0.5-1.1s0-0.5-0.4-1.1c-0.3-0.7-0.5-1.4-0.5-1.4l-0.3-1.3l-0.6-1.5l1.3,0.1l2.5-0.1
	c0,0-0.1,0,0.8,0c0.9,0,2.1,0,2.1,0l1.2,2.1c0,0,0.8,1.2,1.1,1.8c0.1,0.4,0.8,1.4,1.2,2.1c0.2,0.4,0.4,0.5,0.4,0.6
	c0,0.1-0.9,0-1.5,0c-0.6,0-3.1,0-3.1,0h-1.6C68.1,39,66.2,39.1,66,38.9z M72.7,74.2c0-0.2-2.5-2.9-2.7-3.1s0.1-0.9,0.2-1
	c0.1,0,2.8,3,2.8,3L72.7,74.2z M73.3,71.6c0-0.2-2.7-2.9-2.8-3.1s0.1-1,0.2-1c0.1,0,2.7,3,2.7,3L73.3,71.6z M73.7,69
	c0-0.1-2.4-2.4-2.5-2.7c-0.1-0.3,0.2-1,0.3-0.9c0.1,0,2.2,2.4,2.3,2.4L73.7,69z M74,66.5c0-0.1-2.3-2.4-2.4-2.6
	c-0.1-0.2,0.1-1.4,0.1-1.4c0.1,0.1,2.2,2.2,2.2,2.2L74,66.5z M72.4,60.2c0.1,0.1,1.3,1.5,1.3,1.5l0.1,1.2l0.1,0.3
	c-0.1-0.2-1.6-2.1-1.6-2.1S72.3,60.2,72.4,60.2z M72.4,58.6c0,0,0.1-0.8,0.2-0.8c0.1,0.1,1.1,1.1,1.1,1.1l0.2,1.2l-0.1,0.4
	C73.8,60.2,72.4,58.6,72.4,58.6z M75.1,42.7v1c0,0.9-0.2,1.7-0.7,2.3c-0.4,0.6-0.8,0.9-1.4,1.3c-0.7,0.4-1.5,0.6-2.4,0.6
	c-1.3,0-2.5-0.4-3.3-1.3c-0.7-0.8-1-2-1-3.1l-0.1-2.4l1.4-0.2c0,0,2.8,0,3.5,0c0.7,0,1.4,0,1.4,0s2.5-0.1,2.6,0.2
	C75.3,41.5,75.1,42.7,75.1,42.7z"/>
</svg>
