<?xml version="1.0" encoding="utf-8"?>
<!-- Generator: Adobe Illustrator 26.2.1, SVG Export Plug-In . SVG Version: 6.00 Build 0)  -->
<svg version="1.1" id="Layer_1" xmlns="http://www.w3.org/2000/svg" xmlns:xlink="http://www.w3.org/1999/xlink" x="0px" y="0px"
	 viewBox="0 0 100 100" style="enable-background:new 0 0 100 100;" xml:space="preserve">
<style type="text/css">
	.st0{fill:#FFFFFF;}
</style>
<path class="st0" d="M99.7,44C97,25,83.4,8.9,64.8,3c-5.7-1.8-20.5-5.2-36.3,2.3c-16,7.6-27.2,23.6-28.4,40.8
	c-1.7,24.1,16,39.2,19.5,41.9c8.6,6.8,20.1,10.9,31.4,11.4c0.7,0,1.5,0,2.2,0c8.6,0,20.2-2.1,30.5-10.9
	C103.3,71.7,99.8,45.2,99.7,44z M29.2,6.7c15.2-7.2,29.6-3.9,35.1-2.2C69,6,73.4,8.2,77.4,10.9c-1.9-1-3.8-1.8-5.6-2.5
	c-2.7-1-24.1-8-43.7-1.2C28.5,7.1,28.9,6.8,29.2,6.7z M1.7,46.2c0.7-9.4,4.4-18.5,10.4-25.9c-6.4,9.9-8.9,22-9.2,24.1
	c-1.1,10.7,1.5,21.9,7.3,31.3C5.4,68.7,0.8,58.7,1.7,46.2z M82.7,87.3C75,94,63.5,98.2,51.1,97.9c4.1,0,8.5-0.7,13.1-2.2
	c22.1-7.3,34.6-30.5,32.6-55.3c-0.1-1.3-0.3-2.5-0.5-3.7c0.8,2.5,1.3,5,1.7,7.6C98.2,45.4,101.6,71.1,82.7,87.3z"/>
<path d="M45.1,23.7c0.7,0.1,1.6,0.3,1.7,1c-0.3,1.1-1.1,1.6-1.6,2.3c-0.3,1.3-1,2.7-0.1,3.7c0.1,0,0.3,0,0.3,0.1
	c1.9,0.3,2-1.1,2.7-1.9c0.4-1,1.3-1.7,1.9-2.7c0.3-0.9,0.1-2.3,0-3.3c-0.4-0.4-1-1-1.4-1.6c-0.6,0-1-0.4-1.7-0.4
	c-0.4-0.4-1.3-0.4-1.6-0.9c0.3-1.3,1.6-1.6,2.1-2.4c0.6-0.9,2-1,1.9-2.7c-0.3-1-1.4-0.4-2.6-0.4c-1.3,0.9-2.6,1.9-3.7,2.9
	c-0.3,0.9-0.9,1.4-1,2.3c-0.1,1.6,0.6,2.4,1.3,3.2C43.6,23.2,44.8,23,45.1,23.7z M56.5,27.4c-0.3,0.3-0.4,1-0.7,1.3
	c-0.1,0.6-0.4,1-0.3,1.9c0.3,0.1,0.6,0.4,0.9,0.7c2-0.3,2.4-2.4,1.9-4.6c-0.4-0.9-1.4-1-1.7-2.1c0.4-0.6,1.1-0.9,1.3-1.7
	c-0.7-0.7-1.7,0.1-2.3,0.4c-0.3,0.6-0.7,1.3-0.6,2.4C55.4,26.4,56.4,26.5,56.5,27.4z M36,30c0.1,0.4,1.1,0.3,1.3,0.9
	c0.6,1.3-1,2.6-0.3,4c0.1,0,0.3,0,0.3,0.1c2.3-0.1,2.3-2.7,2.3-4.7c-0.1,0-0.1-0.1-0.1-0.4c-0.4-0.7-1.6-0.7-1.7-1.7
	c0.7-0.3,0.9-1.3,0.9-2.3c-2-0.4-3.3,1.3-3.7,3.2C35.3,29.3,35.3,30,36,30z M76.2,54.6c-0.3-1.9-1-3.2-1.1-5.2
	c-0.3-0.4-0.7-0.9-0.9-1.6c-0.4-0.4-1-0.6-1.4-1.1c-2.6-0.1-6,0.6-7.5-0.9c-0.3-1.9,0.3-4.2-0.1-6.2c-0.4-0.9,0.9-0.1,0.7-0.9
	c-0.4-0.1-0.4-0.7-0.9-0.9c-0.1-0.6-1-0.3-1.1-0.9c-0.9-0.3-1.4-1-2.1-1.4c-2.1-0.7-4.2-1.6-6.4-1.9c-3.3,0.1-5.7-0.6-9-0.4
	c-5.2,0.7-9.7,2-13.3,4.3c-0.6-0.1-1-0.3-1.7-0.3c-1,1-1.7,2.3-2.3,3.7c0,0.1,0,0.4-0.1,0.6c-0.1,8,0,15.6,1,22.6
	c0,5.4,0.3,10.6,1.4,14.9c0.1,0.6,0.9,0.6,1.3,1c0.4,0.3,1,0.7,1.4,1c3,0.9,6.3,1.1,9.7,1.4c3.4,0.1,7.2,0.4,10.9,0.3
	c3.6-0.6,6.4-2,9-3.9c0.7-1,1.4-2,2.3-2.9c0-1,0.3-1.7,0.9-2.1c0-0.7-0.4-1.7,0-2.3c1.9,0.1,2.9-0.3,4.2-0.7c1,0.1,1.7,0,2.4-0.1
	c1.1-0.7,2.3-1.4,2.9-2.7C75.6,63.8,76.3,59.2,76.2,54.6z M33.9,39.4c1.1-0.6,2.4-1.1,3.9-0.9c2.7-1.6,6-2.4,10.5-2.1
	c0.6-0.1,1.3-0.3,1.9-0.6c1.4,0.1,2.7,0.1,4-0.1c2,0,3.4,0.6,4.7,1.3c1.6,0.3,3,0.9,3.7,2.3c0,0.9-0.7,1-0.7,1.9
	c-0.6,0.1-0.6,1-1.6,0.9c0-0.6,0.4-1.4,0-1.9c-1.3-1.3-4-1.1-6.2-1.4h-7.2c-3.6,0-6.2,1.1-9.9,1c-0.6,0.1-0.9,0.6-1.4,0.7
	c-0.1,0.4-0.3,1-1,0.9c-0.1,0.6-0.3,1.1-0.6,1.4c-0.7-0.1-1.1-0.4-1.6-0.9c-0.4-0.3-0.9-0.7-0.9-1.4C32.5,40.3,33,39.7,33.9,39.4z
	 M58.1,42.9c0-0.1,0.1-0.1,0.1-0.1C58.4,42.7,58.3,42.9,58.1,42.9z M57,43.3c-0.1-0.1,0.1-0.3,0.1-0.3C57.2,43.2,57,43.3,57,43.3z
	 M49.1,41c0.9,0,1.9-0.6,2.6,0c-0.4,0.3-1.1,0.3-1.7,0.4c-0.6,0.3-1.1,0.1-1.6-0.1C48.2,40.9,49.2,41.4,49.1,41z M52.7,43.6
	c1.1-0.1,2-0.4,3.2-0.3c-1.6,0.9-4.3,1.3-6.7,0.9C49.8,43.4,51.4,43.6,52.7,43.6z M34.9,78.7c-0.4,0-0.6-0.3-1-0.4
	C34,78,35.2,78.1,34.9,78.7z M63.4,75.1c-0.3,0.1-0.4,0.3-0.4,0.6c-0.7,0.9-1.9,1.4-2.9,2.1c-2.9-0.4-6.3,0.1-9.9,0
	c-4.4-0.3-9-0.1-12.5-1.1c0.4-1,1.4-1.6,1.6-3.2c-0.3-0.6-0.7-0.4-1.4-0.3c-0.3,0.3-0.9,0.4-1,0.9c-0.4,0.3-0.6,0.7-0.9,1
	c-0.1,0.4-0.6,1.3-0.9,0.7c-1,0-0.1-1.1,0.1-1.4c0.3-0.4,0.6-1.1,1-1.6c0.6-1.1,1.7-1.7,1.9-3.3c-0.9-0.4-1.7,0.3-2.1,0.7
	c-1,0.4-1.1,1.7-2.1,2v-2.1c1-1.6,1.9-3.3,2.6-5c0.3-0.3,0.4-0.6,0.6-0.7c0.3-0.1,0.7-0.1,0.6-0.7c0-0.6-1-0.7-1.3-0.3
	c-0.6,0-0.9,0.3-1,0.9c-0.4,0.1-0.6,0.7-0.9,1c-0.3,0.1-0.6,1.1-0.7,0.7c0-0.7-0.4,0.1-0.6-0.6c0.3-0.1,0.6-0.3,0.6-0.7v-1.6
	c0.7-1,1.1-2.3,1.9-3.3c0.4-1.3,1.3-2,1.7-3.3c-0.6-0.6-1.6,0-2,0.6c-0.6,0.4-1.1,1-1.4,1.7c-0.6,0-0.1-1-0.6-1.3
	c-0.3,0.4-0.4,1-0.7,1.6c-0.4-0.6-0.3-1.9-0.3-2.9c0.6-1.7,1-3,0.9-5.2c-0.1-0.4-0.9,0-1,0.3c-0.4-0.4,0-1.4-0.4-1.9v-4.3
	c2.7,1.3,5.4,2.3,9.9,2.1c1.1-0.1,2.4-0.4,3.7-0.3c0.4,0,0.4,0.3,0.4,0.6c0.1,0.1,0.4,0.1,0.4,0.3c4.7,0.3,8.2-0.9,10.9-2.7
	c1,0,1.4-0.4,2.4-0.4c0.9-0.3,1.4-0.7,2.3-1H62c0.6-0.1,0.3,0.6,0.3,0.9c0,0.4,0.4,0.4,0.3,0.9c0.1,0.6,0,1.4,0.3,1.9
	c0,1.3,0.3,2.4,0.6,3.6c0,5.6-0.6,13-0.3,19.2c0.1,1.1,0.4,2.4,0.6,3.4C63.7,74.1,63.3,74.4,63.4,75.1z M70,68.8
	c-1.3,0.3-2.3,0.7-3.7,0.7c-0.4-1,0.4-2.1,0.4-3.3c1.4,0.1,2.3-0.4,3.4-0.4c0.3-0.4,0.7-0.6,0.6-1.4c0.3-0.4,0.4-0.9,0.7-1.3
	c-0.1-0.4,0-0.6,0.1-0.9c0.1-4.2-0.6-7.3-0.7-11.3c-0.3-0.9-1.6-0.7-2.1-1.1c-0.3,0.3-1,0.1-1.4,0.1C67,50,66.1,50.2,66,50
	c0.1-0.6-0.3-0.7-0.1-1.3c1.3,0,2.1,0.3,3.3,0.4s1.9-0.4,2.7,0c1,1.3,0.9,3.7,1.6,5.2c-0.1,5,0,9,0.3,13.6
	C72.9,68.8,71.3,68.7,70,68.8z M68.6,53.5v3.2c0.3,2,0.3,4,0.6,6c-0.6,0.6-1.3,1.1-2.4,1.3c0-3.7,0-7.3-0.1-10.7
	c0.3-0.3,1.3-0.1,1.7-0.4C68.7,52.6,68.6,53.2,68.6,53.5z"/>
</svg>
