<?xml version="1.0" encoding="utf-8"?>
<svg version="1.1" id="Layer_1" xmlns="http://www.w3.org/2000/svg" xmlns:xlink="http://www.w3.org/1999/xlink" x="0px" y="0px"
	 viewBox="0 0 100 100" style="enable-background:new 0 0 100 100;" xml:space="preserve">
<path d="M61.9,51.3l-8.6,3.1c-2.6,0.8-4.8,0.4-6,0L40.2,53l-2.9-1.7l-3.2-1l-1.3,10.3c0,1.7,0.4,2.3,4,3.3c3.1,0.9,8.9,2.7,13.4,2.7
	c2.7,0,5.2-0.4,7.5-0.8c2.6-0.4,4.9-1,6.6-1.8c2.2-1,3.5-2.2,3.5-3.5l-1.3-10.3L61.9,51.3z M64.1,63.3c-0.3,0-0.6-0.7-0.6-0.7
	s0,0.2-0.4-0.1s-0.4-0.3-0.3-0.5s0.4-0.4,0.7-0.3c0.2,0.1,0.9,1,0.9,1S64.6,63.3,64.1,63.3z M65.4,61.8c-0.3,0-0.6-0.7-0.6-0.7
	s0,0.2-0.4-0.1s-0.8-0.8-0.7-1c0.1-0.2,0.5-0.7,0.7-0.5c0.2,0.1,1.3,1.4,1.3,1.4S65.8,61.8,65.4,61.8z M66.3,59.5
	c-0.3,0-0.6-0.7-0.6-0.7s0,0.2-0.4-0.1s-1.7-1.6-1.6-1.8c0.1-0.2,0.4-0.4,0.7-0.3c0.2,0.1,2.2,2.2,2.2,2.2S66.7,59.5,66.3,59.5z
	 M66.5,57.1c-0.3,0-0.6-0.7-0.6-0.7s-0.3-0.4-0.6-0.7c-0.4-0.3-1.7-1.6-1.6-1.8s0.6-0.5,0.9-0.4c0.2,0.1,2.5,2.8,2.5,2.8
	S66.9,57,66.5,57.1z M77.8,39.7L70,37.3l-10.4-2.7l-7.1-2.7c-1.4-0.4-2.9-0.4-4.3,0c0,0-1.5,0.8-5.1,1.9c-1.9,0.6-5.5,1.2-7.2,1.9
	c-2,0.8-5.3,2.2-7.4,2.8c-3.6,1.1-6.3,2-6.3,2c-2.1,0.7-1.5,2.7,0.6,3.3l4.4,1.4c-1,1.2-1.6,2.7-1.6,4.3c-0.9,0.5-1.5,1.4-1.5,2.5
	c0,1,0.5,1.8,1.3,2.3l-0.4,5.1L23,64.7c-0.2,0.9,0.5,1.8,1.4,1.8l2,1.2l2-0.3c0.9,0,2.8-1.7,2.6-2.6l-1.1-5l-1.2-5.4
	c0.7-0.5,1.3-1.4,1.3-2.3c0-1.1-0.6-1.9-1.4-2.4c0.1-1.4,0.8-2.6,1.9-3.3l7.1,1.8l10.7,3.7c0.8,0.3,2.4,0.6,4.3,0l6.4-2.4l9.3-2.4
	l9.5-3.4C81.1,43.6,80,40.4,77.8,39.7z"/>
</svg>
