<svg xmlns="http://www.w3.org/2000/svg" viewBox="0 0 100 100"><path d="M99.2 43.6c-2.7-19-16.3-35.1-34.9-41C58.6.8 43.8-2.6 28 4.9 12 12.5.8 28.5-.4 45.7c-1.7 24.1 16 39.2 19.5 41.9 8.6 6.8 20.1 10.9 31.4 11.4h2.2c8.6 0 20.2-2.1 30.5-10.9 19.6-16.8 16.1-43.3 16-44.5zM28.7 6.3C43.9-.9 58.3 2.4 63.8 4.1c4.7 1.5 9.1 3.7 13.1 6.4-1.9-1-3.8-1.8-5.6-2.5-2.7-1-24.1-8-43.7-1.2.4-.1.8-.4 1.1-.5zM1.2 45.8c.7-9.4 4.4-18.5 10.4-25.9-6.4 9.9-8.9 22-9.2 24.1-1.1 10.7 1.5 21.9 7.3 31.3-4.8-7-9.4-17-8.5-29.5zm81 41.1C74.5 93.6 63 97.8 50.6 97.5c4.1 0 8.5-.7 13.1-2.2C85.8 88 98.3 64.8 96.3 40c-.1-1.3-.3-2.5-.5-3.7.8 2.5 1.3 5 1.7 7.6.2 1.1 3.6 26.8-15.3 43z" fill="#fff"/><path d="M74.8 70.3c-.6-4-3-7.6-6.6-9.7-3.5-2.1-7.5-3.7-9.5-4.5-.5-.2-1-.4-1.4-.5v-.4-1.5c2.7-2.2 4.4-5.7 4.4-9.5v-.1c1.2-.2 2.2-1.2 2.2-2.5 0-.8-.4-1.6-1-2h0c4-10.7-4.6-12.8-4.6-12.8 1.5-2.4.7-4.9.7-4.9-1.8 2.3-4.1 2.1-4.1 2.1 3-3.8 2.3-7.9 2.3-7.9-3.2 5.5-4.2 5-5.8 5.9 1.3-1.8 0-4.6 0-4.6-.4 1.9-1.2 2.9-9.6 7.4-8.1 4.3-5.6 12.9-4.9 14.7-.7.5-1.1 1.2-1.1 2.1 0 1.3.9 2.4 2.2 2.5v.5a12.01 12.01 0 0 0 4.4 9.3v1.4.4c-.3.1-.8.3-1.4.5l-4.3 1.7c-1.7.8-3.6 1.7-5.3 2.7-3.5 2.2-6 5.7-6.6 9.7 0 .3.1.6.3.7 8 5.5 16.1 8.3 24.3 8.3s16.5-2.8 24.8-8.3c.5-.1.6-.4.6-.7zM39.6 44.6v-5.7c.5-2.1 1.9-3.3 4.1-3.4.8 0 1.5-.1 2.3-.1 4.3-.2 8.5-.4 10.4-2.1 1 1.2 3.1 3.8 3.9 6.3v.1 4.6c0 5.8-4.4 10.5-9.8 10.7-5.9.3-10.9-4.4-10.9-10.4zm10.3 18.2c-3.1 0-6.6-1.7-7.6-5.5h.1c.5-.2 1.1-.4 1.2-.4.4-.1.6-.5.5-.9s-.1-1-.1-1.1c1.8 1 3.8 1.6 5.9 1.6h.6c1.9-.1 3.7-.7 5.3-1.6 0 .2 0 .8-.1 1.1-.1.4.2.8.6.9.1 0 .3.1 1.2.4-1 3.8-4.5 5.5-7.6 5.5zm1.5-16.7c.3-.3.3-.8 0-1.1s-.8-.3-1.1 0a.61.61 0 0 1-.8 0c-.3-.3-.8-.3-1.1 0s-.3.8 0 1.1a2.18 2.18 0 0 0 3 0z"/><path d="M44 41.2c.4-.6 1.4-.6 1.7 0 .2.4.7.5 1 .3.4-.2.5-.7.3-1-.9-1.7-3.4-1.7-4.3 0-.2.4-.1.8.3 1s.8.1 1-.3zm9 .3c.4.2.8.1 1-.3.4-.6 1.4-.6 1.7 0 .2.4.7.5 1 .3.4-.2.5-.7.3-1-.9-1.7-3.4-1.7-4.3 0-.2.3 0 .8.3 1zm-7.6 6.1h0c0 2.5 2 4.6 4.5 4.6a4.48 4.48 0 0 0 4.5-4.5h0c-3 1.5-6 1.5-9-.1z"/></svg>
