<?xml version="1.0" encoding="utf-8"?>
<!-- Generator: Adobe Illustrator 18.1.1, SVG Export Plug-In . SVG Version: 6.00 Build 0)  -->
<svg version="1.1" id="Layer_1" xmlns="http://www.w3.org/2000/svg" xmlns:xlink="http://www.w3.org/1999/xlink" x="0px" y="0px"
	 viewBox="0 0 120 120" style="enable-background:new 0 0 120 120;" xml:space="preserve">
	 <style type="text/css">
	 	.st0{fill:#aaaaaa;}
	 </style>
	 <path class="st0" d="M106.5,69.6c0-9.4-1.3-18.7-1.2-27.9c-0.1-3.1-0.3-6-0.6-8.9c-0.4-1.2-0.4-2.7-0.6-4.1
		 c-1-0.7-0.9-2.5-1.8-3.3c-1.7-0.9-4.7-0.4-6.8-0.9c-2.6-0.1-4.9-0.4-7.4-0.6c-7.6-0.4-15.5-0.3-23.4-0.3c-7.8,0-15.4-0.6-22.2-1.5
		 h-8.6c-0.4,0-0.4,0.4-0.9,0.3c-2.3,0.1-4.2,0.7-6.2,1.2c-0.8,0.5-1.6,0.9-2.7,1.2c-0.5,0.8-2,0.6-2.4,1.5c-0.7,0.8,0.7,1.8,0,2.4
		 v3.6c0.7,0.5,0.1,2.3,0.3,3.3v3.9c-0.1,5,0.5,9.4,0.3,14.5c1.8,10.8,1.5,25.5,0.3,36.8c0.6,2.3,1.4,4.3,1.8,6.8
		 c1,1.9,1.3,4.4,2.7,5.9c2,0.8,4.8,0.7,7.4,0.9c1.5,0.4,2.6,1.1,4.5,1.2c11.1-0.8,21.5-0.6,32.9-0.9c10.6,0.9,22.7,0.7,32.3-0.9
		 c0.8-0.5,0.5-2.1,0.9-3c-0.2-1.5,0.8-1.8,0.9-3C106.4,88.5,106.5,79.1,106.5,69.6z M55.8,45.3c3-0.6,5.8-1.3,9.5-1.2
		 c2.8,0.3,5,1.1,7.4,1.8c0.5,0.7-1,2.1,0.6,2.7v0.3c0.2,0.1,0.6,0,0.6,0.3c1.7,0.1,3.1,0.7,4.2,1.5c1.8,0.2,2.1,1.9,4.4,1.5
		 c-0.4,0.8-0.3,2-0.3,3.3c1.3,4.6,1.9,11,1.2,16.6c-0.6,0.6-0.8,1.7-1.2,2.7c-1.2,1.3-1.9,3.1-3.3,4.1c-0.4,0.9-1,1.6-1.8,2.1
		 c-0.5,0.8-0.8,1.8-1.8,2.1c-1.2,0.6-2.3,0-3.3-0.3c-1.7,0.6-3.5,1.2-4.7,2.4c-3.2-0.4-6.4-0.7-9.5-1.2c-0.9-0.5-1.9-1.1-3.3-1.2
		 c-0.9-0.8-1.9-1.4-3.3-1.8C51,80.4,50,80.4,49.6,80c-0.8-0.1-0.9-0.9-1.8-0.9c-0.5-1.6-1.7-2.4-2.1-4.1c-0.9-1.3-1.2-3.1-1.8-4.7
		 c-0.2-5.6,0.4-10.5,1.5-14.8c1.3-2.3,3-4.3,4.4-6.5c1,0.1,1.4-0.3,1.5-1.2c1.2,0.2,1.7-0.3,2.7-0.3C55,47.1,55.1,45.9,55.8,45.3z
			M49.3,34.7c-0.5-1-0.3-2.7-0.3-4.1c0-1.1,1.1-1.1,1.2-2.1c0-0.3-0.4-0.2-0.6-0.3c0.5-0.6,2.7-0.4,3.3,0c0.5,2.1-1.4,1.8-2.1,2.7
		 c0,0.7,1.3,0.1,1.8,0.3c0.1,3.3-0.2,5.8,0,8.6h-1.8c0,0.9,0.9,0.9,1.8,0.9c-0.2,1.1,0.4,1.4,0.3,2.4c-0.9,0.6-2.8,0.2-4.1,0.3
		 C48.3,40.9,49.6,37.9,49.3,34.7z M46.6,28.4c0.3,0,0.5,0.1,0.6,0.3c0.7,1,0,2.7-0.3,3.6C46.2,31.6,46.8,29.6,46.6,28.4z
			M47.2,35.5c-0.5-0.3-0.7-0.9-0.6-1.8C47.1,34,47.3,34.7,47.2,35.5z M47.2,40.9c-0.2,0.5-0.3-0.2-0.3-0.6
		 C47.1,39.7,47.2,40.5,47.2,40.9z M46.6,41.8c0.7-0.1,0.3,0.9,0.9,0.9c0,0.8-1.1,0.7-1.5,0.3C46.2,42.5,46.5,42.2,46.6,41.8z
			M37.4,37c0-0.4,0-0.8-0.3-0.9c-0.3-2.9,0.5-5.5,0-7.7c1-0.6,3-0.2,4.4-0.3v4.4c-0.3,0.3-0.8,0.4-1.5,0.3
		 c-0.2,1.1,1.3,0.5,1.5,1.2c0,3.3-0.2,6.9,0.6,9.5c-2.2-0.2-3.5,0.4-5.6,0.3c0.4-2.4-0.1-5.6,2.1-6.2C38.6,37.1,37.6,37.4,37.4,37z
			M35.3,37c-0.8,0.1-0.8-2.1-0.3-2.4C36.3,34.7,36,36.6,35.3,37z M34.8,40.9c0.3-1.2,0.1-1.2,0.3-2.7
		 C35.9,38.3,36.1,41.2,34.8,40.9z M35.6,32.9c-1,0.2-1.1-1-0.6-1.5C36.1,31.2,36.1,32.4,35.6,32.9z M35.6,28.4
		 c0.1,0.6-0.2,0.8-0.3,1.2c-0.7,0.1-0.3-0.9-0.9-0.9C34.5,28.3,35.2,28.5,35.6,28.4z M34.8,43c0.6-0.1,0.4,1.3-0.3,0.9
		 C34.6,43.6,34.8,43.4,34.8,43z M32.1,28.4c0.1,1-1.7,1.2-1.5,0H32.1z M28.2,28.7c-0.1,0.9-1.3,0.7-1.5,1.5
		 C25.9,29.5,27.1,28.4,28.2,28.7z M26.5,31.7c0.9-0.8,1.8-1.6,2.7-2.4c-0.1-0.5,0.3-0.5,0.3-0.9h0.9c0.4,1.5-1,1.2-1.2,2.1
		 c0.1,0.5-0.3,0.5-0.3,0.9c0.1,1.3,0.5,2.3,0.3,3.9c-1.1,0-1.1,1.1-2.4,0.9C26.8,34.5,26.2,33.5,26.5,31.7z M26.7,44.4v-6.2
		 c0.8-0.7,1.5-1.4,2.4-2.1c1.2,1.9,0.7,5.4,1.8,7.4C29.8,44.2,28,44,26.7,44.4z M97.9,87.7c-0.4,3.7-0.6,7.7-1.5,11
		 c-11.3,0.5-23.5,0-34.7,0.6c-0.8,0.2-1.1-0.1-0.9-0.9c-1,0-1,1-2.1,0.9c0.8-1.3,1.7-3.5,0.6-5c-3.1,0-3.1,3.2-4.4,5
		 c-2.7-0.2-4.4,0.5-7.1,0.3c0.7-2.8,2.9-4,3.6-6.8c-1.5-2.1-3.9,0.5-4.7,1.8c-0.8,1.9-2.2,3.2-3,5h-3.9c0.9-1.8,1.9-3.6,3-5.3
		 c0.7-2,2.4-2.9,2.7-5.3c-0.6-1.1-1.6-0.1-2.7,0c-0.5,0.7-1.1,1.3-1.5,2.1c-0.9,1.5-2,2.8-2.7,4.4c-0.7,0.8-1.3,0-2.1,0.9
		 c-1.5,1.1-2.3,2.9-3.9,3.9c-0.7-0.2,0.2-1.4,0.6-1.5c0.2-0.7-0.4-2.1,0.3-2.4c0.2-1.4,0.8-2.5,1.5-3.6c0.5-2.9,2-4.7,2.7-7.4
		 c-2.2,0.4-2.6,2.5-3.9,3.9c-0.8,1.7-2.1,3-2.7,5c-0.7-0.5-0.1-2.3-0.3-3.3c0.5-2.3,1.2-4.4,1.5-6.8c0.5-0.9,0.7-2.1,0.9-3.3
		 c0.7-0.8,0.2-2.4-0.3-3c-0.9,0.1-1.5,0.5-1.8,1.2c-0.7-0.1-0.8,2-1.2,1.2c-0.2-10.1-1.8-18.8-1.8-29c0.1-1.3-0.7-1.7-0.9-2.7
		 c6.4,0.1,12.2,0.4,18.7,0.9c-0.3,0.5-0.8,1-1.2,1.5c-0.6,0.3-0.9,0.7-1.5,1.2c-2.4,6.5-3.8,15.6-2.4,24c0.9,2.3,2.3,4,3.9,5.6
		 c3.5,1.9,6.4,4.5,9.8,6.5c6.6,1.4,15,1.4,21.6,0c0.9-0.5,1.9-0.9,2.7-1.5c5.3-4.9,10.8-9.6,11.6-19v-5.3
		 c-0.8-6.2-2.7-11.3-6.8-14.2c1.3-0.9,4.3,0.2,6.5,0.3c0.9,0.1,1.7,0.1,2.7,0c1.6-0.1,3.6-0.2,5.6,0c0.6,0.7,0.4,2.1,0.9,3
		 c-0.2,6.6-0.8,12.9-0.6,19.9c0.4,1.8,0.5,3.9,0.9,5.6C99.3,80.8,98.8,84.4,97.9,87.7z M99.4,44.1c-2.5-0.5-4.8-1.1-7.4-1.5
		 c0.3-1.3,3.1,0,3.9-0.9c1.5-0.9,1.2-3.6,1.2-5.9c0.1-1.4,0.4-2.5,0.3-4.2c-1.6-3.7-7-1.6-11.3-1.8c-0.9,2.8-1.8,7-1.2,10.4
		 c0.7,1.9,4,1.1,5.9,1.8c-0.5,1.3-2.7,0.2-3.9,0.3c-1.2-0.3-2.8-0.2-3.9-0.6c-8.9,0.3-16.7,0-25.5,0.6c0.5-4.9,0.2-9.6-0.3-14.2
		 h12.2c-1.3,1.4-3.6,2-5,3.3c-1.7,1-3.4,2-4.4,3.6c1,0.5,2.1-1,3-1.5c1.4-0.3,1.9-1.5,3.3-1.8c1.7-1.7,4.3-2.4,6.5-3.6
		 c1.5-0.1,2.7,0,3.9,0.3c5,0,9.6,0.5,14.8,0.3c2.4,0.6,5.7,0.3,7.7,1.2c0.4,1.2,0.9,2.3,1.2,3.6C100.3,37.4,99.7,40.6,99.4,44.1z
			M76.6,29.6C77,29.4,76.5,29.3,76.6,29.6L76.6,29.6z M76.6,29.6c-2.1,0.6-4,1.4-5.3,2.7C73.1,31.5,75.3,31.1,76.6,29.6z M80.7,32
		 C81.1,31.8,80.7,31.6,80.7,32L80.7,32z M73.9,35.5c2.8-0.6,4.6-2.3,6.8-3.6c-1.7,0.1-2.3,1.2-3.9,1.5C76,34.3,74.5,34.5,73.9,35.5
		 z M71.2,32.3C70.8,32.5,71.2,32.6,71.2,32.3L71.2,32.3z M68.5,34.7C69,34.5,68.5,34.3,68.5,34.7L68.5,34.7z M68.3,34.9
		 c0.2,0.1,0.3-0.1,0.3-0.3C68.3,34.6,68.3,34.8,68.3,34.9z M68,35.2c0.3,0.1,0.3-0.1,0.3-0.3C68,34.9,68,35.1,68,35.2z M64.7,37.6
		 c1.4-0.5,2.4-1.4,3.3-2.4C66.6,35.8,65.6,36.6,64.7,37.6z M73.6,41.5c2.1-0.2,2.9-1.6,4.7-2.1c1.1-1.2,3.1-1.5,3.9-3
		 c-2.2,0.1-3,1.6-4.7,2.1C76.3,39.7,74.5,40.1,73.6,41.5z M64.7,37.6C63.5,37.3,64.6,38.5,64.7,37.6L64.7,37.6z M62.6,39.1
		 c0.1,0.1,0.5-0.1,0.3-0.3C62.8,38.7,62.5,38.9,62.6,39.1z M73.6,41.5C73.2,41.7,73.6,41.8,73.6,41.5L73.6,41.5z M69.1,48.6
		 c-0.9-0.9-2.6-0.9-3.9-1.5c-2.7-0.2-4.8,0.4-6.8,0.9c-1.2,0.6-2.4,1.2-3.6,1.8c-1,0.6-1.7,1.6-3,2.1c-0.8,0.9-1.4,2-2.7,2.4
		 c0,0.9-0.7,1.1-1.2,1.5c-0.3,0.4-0.4,1.2-0.9,1.5c0,0.5,0.1,1.1-0.3,1.2c0.4,5.9,1.1,11.5,2.7,16.3c1.1,2.4,3.8,3.3,5.6,5
		 c2.3,1.2,5.2,1.7,8.3,2.1c1.1-0.2,2.2-0.4,3.6-0.3c4.7-0.8,8.2-2.9,11-5.6c0.4-1.1,1-2,1.8-2.7c-1-2.6,1.1-4.3,1.8-6.2
		 c0-5.2-0.8-9.7-2.4-13.3c-1-2.3-3.6-2.9-5.3-4.4c-0.2-0.1-0.6,0-0.6-0.3C72.2,48.4,70.4,48,69.1,48.6z M55.8,65.5
		 c-0.4-0.2-0.4-1-0.6-1.5C56.2,63.7,55.7,64.9,55.8,65.5z M56.1,66.7c0.2-0.5,0.3,0,0.3,0.3C56.2,67.4,56.1,67,56.1,66.7z
			M57.9,58.7c0.1-0.3,0.3-0.2,0.3,0C58.1,59,57.9,58.8,57.9,58.7z M64.4,50.4c-0.8,1,0.2,2.3,0.3,3.3
		 C63.5,53.5,62.5,50.2,64.4,50.4z M65.9,65.8c-0.2-0.2,0.2-0.4,0.3-0.3C66.3,65.6,66,65.9,65.9,65.8z M68.8,77c0.1-0.4,0.3,0,0.6,0
		 C69.4,77.4,68.8,77.3,68.8,77z M77.4,67c-0.9-0.2-0.6,0.8-1.5,0.6c0.3-0.6,0.5-1.3,0.9-1.8C77.4,65.9,77.5,66.3,77.4,67z M73,52.1
		 c0.8,0.5,1.7,0.8,2.4,1.5c0.3,0.9,0.9,1.4,1.5,2.1c0.2,3,0.7,5.8,0.6,9.2c-1,0.4-1.7,1.1-2.7,1.5c-3,0-5.3-0.8-7.4-1.8
		 c-0.7-1-1.4-2-2.1-3v-4.2c0.7-0.7,1.2-1.5,1.8-2.4c0.9-0.5,2-0.8,1.8-2.4c-0.2-0.2-0.3-0.5-0.3-0.9c0.6,0.2,1,0.6,1.5,0.9
		 C71.3,52.8,71.6,52,73,52.1z"/>
</svg>
