<svg id="O_" data-name="O " xmlns="http://www.w3.org/2000/svg" width="61.125" height="60.219" viewBox="0 0 61.125 60.219">
  <defs>
    <style>
      .cls-1 {
        fill: #daefec;
      }

      .cls-1, .cls-2 {
        fill-rule: evenodd;
      }

      .cls-2 {
        fill: none;
        stroke: #afdcd6;
        stroke-width: 1px;
        stroke-dasharray: 2 1;
        opacity: 0.97;
      }
    </style>
  </defs>
  <path id="Shape_1_copy" data-name="Shape 1 copy" class="cls-1" d="M515,513.245a19.546,19.546,0,0,0-10.411,12.31c-2.123,7.145,1.375,18.317,2.906,21.535,1.1,2.315,1.634,6.83,6.49,9.078,3.647,1.689,19.069,5.812,30.974-.937,4.976-2.822,10.19-8.827,10.6-14.875s0.036-13.21-2.9-18.889-9.262-11.012-14.445-11.1C538.683,510.379,522.914,509.48,515,513.245Z" transform="translate(-499.219 -505.031)"/>
  <path id="Shape_1_copy_4" data-name="Shape 1 copy 4" class="cls-2" d="M516.9,507.958c-8.144,2.219-10.47,5.189-12.577,9.369-2.763,5.481-3.429,8.758-3.464,15.519-0.021,4.183.072,10.421,0.61,12.393,0.792,2.906,2.825,11.775,7.972,15.385,3.866,2.712,18.19,6.861,33.361,1.534,6.341-2.226,13.24-7.723,14.971-14.631s3.172-15.047.96-22.224-8.418-14.662-14.393-15.837C544.881,509.572,526.834,505.251,516.9,507.958Z" transform="translate(-499.219 -505.031)"/>
  <path id="Shape_1_copy_2" data-name="Shape 1 copy 2" class="cls-2" d="M507.279,515.637c-6.423,5.947-7.312,9.733-7.515,14.492-0.266,6.242.315,9.494,3.019,15.55a53.258,53.258,0,0,0,5.855,9.866c1.887,2.211,2.579,5.43,8.667,6.149,4.572,0.541,23.94,2.414,35.422-9.73,4.8-5.076,8.078-10.731,6.839-17.745s-2.773-18.12-7.664-23.454-16.891-6.182-22.738-4.322C529.693,506.275,515.114,508.383,507.279,515.637Z" transform="translate(-499.219 -505.031)"/>
</svg>
