<?xml version="1.0" encoding="utf-8"?>
<!-- Generator: Adobe Illustrator 22.0.0, SVG Export Plug-In . SVG Version: 6.00 Build 0)  -->
<svg version="1.1" id="Layer_1" xmlns="http://www.w3.org/2000/svg" xmlns:xlink="http://www.w3.org/1999/xlink" x="0px" y="0px"
	 viewBox="0 0 154.9 163" style="enable-background:new 0 0 154.9 163;" xml:space="preserve">
<style type="text/css">
	.st0{fill:#ba564d;}
	.st1{opacity:1.0;fill:#ba564d;}
</style>
<g>
	<path class="st0" d="M153.5,66.9c-0.1-1.1-0.2-2.1-0.3-3.1l1.2-0.1c0.1,1,0.2,2.1,0.3,3.1L153.5,66.9 M154.8,72.2h-1.3
		c0-0.4,0-0.8,0-1.2c0-0.7,0-1.3,0-1.9h1.3c0,0.6,0,1.2,0,1.8v0.3C154.8,71.5,154.8,71.8,154.8,72.2 M154.6,77.5l-1.2-0.1
		c0.1-1,0.1-2.1,0.2-3.1l1.3,0.1C154.7,75.4,154.7,76.4,154.6,77.5 M154,82.8l-1.2-0.2c0.1-1,0.3-2.1,0.4-3.1l1.2,0.1
		C154.3,80.7,154.1,81.7,154,82.8 M153.1,88l-1.2-0.2c0.2-1,0.4-2,0.5-3l1.2,0.2C153.5,86,153.3,87,153.1,88 M152,93.2l-1.2-0.3
		c0.2-1,0.5-2,0.7-3l1.2,0.3C152.5,91.2,152.2,92.2,152,93.2 M150.6,98.4l-1.2-0.4c0.3-1,0.6-2,0.8-3l1.2,0.3
		C151.2,96.3,150.9,97.3,150.6,98.4 M149,103.4l-1.2-0.4v-0.1c0.3-0.9,0.6-1.9,0.9-2.8l1.2,0.4C149.7,101.4,149.4,102.4,149,103.4
		 M147.2,108.4l-0.8-0.3c0.2-0.5,0.3-1,0.5-1.5l-0.3-0.1c0.2-0.5,0.4-1,0.5-1.5l1.2,0.4C147.9,106.5,147.6,107.4,147.2,108.4
		 M145.2,113.3l-0.6-0.3c0.2-0.5,0.4-0.9,0.6-1.4l-0.5-0.2c0.2-0.5,0.4-1,0.6-1.5l1.2,0.5C146,111.4,145.6,112.4,145.2,113.3
		 M142.9,118.1l-0.6-0.3c0.2-0.4,0.5-0.9,0.7-1.4l-0.5-0.3c0.2-0.5,0.5-0.9,0.7-1.4l1.1,0.5C143.8,116.2,143.4,117.2,142.9,118.1
		 M140.4,122.8l-0.8-0.5c0.3-0.4,0.5-0.8,0.8-1.3l-0.3-0.2c0.3-0.5,0.5-0.9,0.7-1.4l1.1,0.6C141.4,121,140.9,121.9,140.4,122.8
		 M137.8,127.4l-1.1-0.7c0.3-0.4,0.5-0.8,0.7-1.2l0,0l0,0c0.3-0.5,0.6-0.9,0.8-1.4l1.1,0.6C138.8,125.6,138.3,126.5,137.8,127.4
		 M134.9,131.9l-1-0.7c0.6-0.9,1.1-1.7,1.7-2.6l1.1,0.7C136,130.1,135.5,131,134.9,131.9"/>
	<path class="st0" d="M128.4,140.3l-0.9-0.8c0.7-0.8,1.3-1.5,2-2.4l1,0.8C129.8,138.7,129.1,139.5,128.4,140.3 M124.8,144.2
		l-0.9-0.9c0.7-0.7,1.4-1.4,2.1-2.2l0.9,0.9C126.3,142.7,125.6,143.4,124.8,144.2 M120.9,147.7l-0.8-1c0.8-0.7,1.5-1.3,2.3-2
		l0.9,0.9C122.5,146.4,121.7,147.1,120.9,147.7 M116.7,151l-0.7-1c0.8-0.6,1.6-1.2,2.4-1.8l0.8,1C118.4,149.8,117.6,150.4,116.7,151
		 M112.3,153.9l-0.6-1.1c0.9-0.5,1.7-1.1,2.6-1.6l0.7,1C114.1,152.8,113.2,153.4,112.3,153.9 M107.6,156.4l-0.5-1.1
		c0.9-0.4,1.8-0.9,2.7-1.4l0.6,1.1C109.5,155.5,108.6,156,107.6,156.4 M100.3,158.1L100.3,158.1 M102.8,158.5l-0.4-1.2
		c0.9-0.4,1.9-0.8,2.8-1.2l0.5,1.1C104.7,157.8,103.7,158.2,102.8,158.5 M97.7,160.2l-0.3-1.2c1-0.3,2-0.6,2.9-0.9l0.4,1.2
		C99.7,159.6,98.7,159.9,97.7,160.2 M92.6,161.5l-0.3-1.2c1-0.2,2-0.4,3-0.7l0.3,1.2C94.6,161.1,93.6,161.3,92.6,161.5 M64.1,162.1
		c-1-0.1-2.1-0.3-3.1-0.5l0.2-1.2c1,0.2,2,0.3,3,0.5L64.1,162.1 M87.4,162.4l-0.2-1.2c1-0.1,2-0.3,3-0.5l0.2,1.2
		C89.4,162.1,88.4,162.2,87.4,162.4 M69.4,162.7c-1-0.1-2.1-0.2-3.1-0.3l0.2-1.2c1,0.1,2,0.2,3.1,0.3L69.4,162.7 M82.1,162.9
		l-0.1-1.3c1-0.1,2-0.1,3.1-0.2l0.1,1.2C84.2,162.7,83.1,162.8,82.1,162.9 M74.6,163c-1,0-2.1-0.1-3.1-0.1l0.1-1.3
		c1,0.1,2,0.1,3.1,0.1L74.6,163 M77.7,163H77h-0.1v-1.3h0.5c0.9,0,1.7,0,2.6,0v1.3C79.2,163,78.4,163,77.7,163"/>
	<path class="st0" d="M3,124.9c-0.4-1-0.7-2-1-3l1.2-0.4c0.3,1,0.6,1.9,1,2.9L3,124.9 M5.3,129.8c-0.5-0.9-1-1.9-1.4-2.8l1.1-0.5
		c0.4,0.9,0.9,1.8,1.4,2.7L5.3,129.8 M8.2,134.3c-0.6-0.9-1.2-1.7-1.8-2.6l1.1-0.7c0.5,0.9,1.1,1.7,1.7,2.5L8.2,134.3 M11.6,138.5
		c-0.7-0.8-1.4-1.6-2.1-2.4l1-0.8c0.6,0.8,1.3,1.6,2,2.3L11.6,138.5 M15.4,142.2c-0.8-0.7-1.6-1.4-2.3-2.2l0.9-0.9
		c0.7,0.7,1.5,1.4,2.2,2.1L15.4,142.2 M19.6,145.6c-0.9-0.6-1.7-1.3-2.5-1.9l0.8-1c0.8,0.6,1.6,1.3,2.4,1.9L19.6,145.6 M24,148.6
		c-0.9-0.6-1.8-1.1-2.6-1.7l0.7-1c0.8,0.6,1.7,1.1,2.6,1.7L24,148.6 M28.7,151.2c-0.9-0.5-1.9-1-2.8-1.5l0.6-1.1
		c0.9,0.5,1.8,1,2.7,1.5L28.7,151.2 M33.5,153.5c-1-0.4-1.9-0.9-2.9-1.3l0.5-1.1c0.9,0.4,1.8,0.9,2.8,1.3L33.5,153.5 M38.4,155.5
		c-1-0.4-2-0.8-2.9-1.2l0.5-1.2c0.9,0.4,1.9,0.8,2.9,1.1L38.4,155.5 M43.4,157.3c-1-0.3-2-0.7-3-1l0.4-1.2c1,0.3,1.9,0.7,2.9,1
		L43.4,157.3 M48.6,158.8c-1-0.3-2-0.6-3-0.9l0.4-1.2c1,0.3,2,0.6,3,0.9L48.6,158.8 M53.7,160.1c-1-0.2-2-0.5-3-0.7l0.3-1.2
		c1,0.3,2,0.5,3,0.7L53.7,160.1"/>
	<path class="st0" d="M44.6,17.7l-0.5-1.1c0.9-0.5,1.9-0.9,2.9-1.3l0.5,1.2C46.5,16.8,45.5,17.2,44.6,17.7 M40,20.2l-0.7-1.1
		c0.9-0.6,1.8-1.1,2.7-1.6l0.6,1.1C41.8,19.2,40.9,19.7,40,20.2 M35.7,23.3l-0.8-1c0.8-0.7,1.7-1.3,2.6-1.9l0.7,1
		C37.4,22,36.6,22.6,35.7,23.3 M31.8,26.7l-0.9-0.9c0.8-0.7,1.6-1.4,2.4-2.1l0.8,1C33.3,25.3,32.5,26,31.8,26.7 M31.8,26.7
		L31.8,26.7 M28.1,30.5l-0.9-0.8c0.7-0.8,1.4-1.6,2.2-2.3l0.9,0.9C29.5,29,28.8,29.7,28.1,30.5 M24.7,34.5l-1-0.8
		c0.6-0.8,1.3-1.7,2-2.5l1,0.8C26,32.9,25.3,33.7,24.7,34.5 M24.7,34.5L24.7,34.5 M21.6,38.8l-1-0.7c0.6-0.9,1.2-1.7,1.8-2.6l1,0.7
		C22.8,37.1,22.2,38,21.6,38.8 M18.8,43.3l-1.1-0.6c0.5-0.9,1.1-1.8,1.7-2.7l1.1,0.7C19.9,41.5,19.3,42.4,18.8,43.3 M16.2,47.9
		l-1.1-0.6c0.5-0.9,1-1.9,1.5-2.8l1.1,0.6C17.2,46.1,16.7,47,16.2,47.9 M13.8,52.6l-1.1-0.5c0.4-1,0.9-1.9,1.4-2.8l1.1,0.6
		C14.7,50.8,14.3,51.7,13.8,52.6 M11.7,57.5L10.5,57c0.4-1,0.8-1.9,1.2-2.9l1.1,0.5C12.5,55.6,12.1,56.5,11.7,57.5 M9.8,62.4L8.6,62
		c0.4-1,0.7-2,1.1-2.9l1.2,0.5C10.5,60.5,10.1,61.5,9.8,62.4 M8,67.4L8,67.4L6.8,67c0.3-1,0.7-2,1-3L9,64.5
		C8.7,65.5,8.3,66.4,8,67.4 M6.5,72.5l-1.2-0.3c0.3-1,0.6-2,0.9-3l1.2,0.4C7.1,70.5,6.8,71.5,6.5,72.5 M5.1,77.6l-1.2-0.3
		c0.1-0.6,0.3-1.2,0.5-1.8h0.9c0-0.4,0-0.7,0-1.1L6,74.6C5.6,75.6,5.4,76.6,5.1,77.6 M4,82.8l-1.2-0.3c0.2-1,0.4-2,0.7-3.1l0.8,0.2
		c0,0.4,0.1,0.8,0.1,1.2h0.1C4.2,81.5,4.1,82.2,4,82.8 M3,88l-1.2-0.2c0.2-1,0.4-2.1,0.6-3.1l1.2,0.2C3.3,86,3.1,87,3,88 M2.2,93.3
		L1,93.1c0.1-1,0.3-2.1,0.4-3.1l1.2,0.2C2.5,91.2,2.3,92.2,2.2,93.3 M1.6,98.5l-1.2-0.1c0.1-1,0.2-2.1,0.3-3.1l1.2,0.1
		C1.8,96.5,1.7,97.5,1.6,98.5 M1.3,103.8L1.3,103.8H0c0-1,0.1-2.1,0.2-3.1l1.3,0.1C1.4,101.8,1.3,102.8,1.3,103.8 M0,109.1
		c0-0.6,0-1.3,0-1.9v-0.5c0-0.3,0-0.5,0-0.8h1.3c0,0.3,0,0.7,0,1c0,0.7,0,1.4,0,2.1L0,109.1 M0.4,114.5c-0.1-1-0.2-2.1-0.3-3.2
		l1.3-0.1c0.1,1.1,0.2,2.1,0.3,3.1L0.4,114.5"/>
	<path class="st0" d="M75.7,11V9.7c0.8,0,1.5,0,2.3,0c0.3,0,0.6,0,0.9,0V11c-0.3,0-0.6,0-0.9,0C77.1,10.9,76.4,11,75.7,11
		 M84.1,11.2c-1-0.1-2.1-0.1-3.1-0.2V9.7c1.1,0,2.1,0.1,3.2,0.2L84.1,11.2 M70.3,11.3L70.2,10c1.1-0.1,2.1-0.2,3.2-0.2l0.1,1.3
		C72.4,11.1,71.4,11.2,70.3,11.3 M89.5,11.7c-1-0.1-2.1-0.3-3.1-0.4l0.1-1.2c1.1,0.1,2.1,0.2,3.2,0.4L89.5,11.7 M65,11.9l-0.2-1.2
		c1.1-0.2,2.1-0.3,3.2-0.4l0.1,1.2C67.1,11.6,66,11.8,65,11.9 M94.7,12.6c-1-0.2-2-0.4-3.1-0.6l0.2-1.2c1.1,0.2,2.1,0.4,3.1,0.6
		L94.7,12.6 M59.7,12.9l-0.3-1.2c1-0.2,2.1-0.4,3.1-0.6l0.2,1.2C61.8,12.4,60.8,12.6,59.7,12.9 M96.9,13.1L96.9,13.1 M99.9,13.9
		c-1-0.3-2-0.5-3-0.8l0.3-1.2c1,0.2,2.1,0.5,3.1,0.8L99.9,13.9 M54.5,14.1l-0.3-1.2c1-0.3,2.1-0.5,3.1-0.8l0.3,1.2
		C56.6,13.6,55.5,13.8,54.5,14.1 M105.1,15.4c-1-0.3-2-0.7-3-1l0.4-1.2c1,0.3,2,0.6,3,1L105.1,15.4 M110.1,17.3
		c-1-0.4-1.9-0.8-2.9-1.1l0.4-1.2c1,0.4,2,0.8,3,1.2L110.1,17.3 M115,19.5c-0.9-0.5-1.9-0.9-2.9-1.3l0.5-1.1c1,0.4,1.9,0.9,2.9,1.3
		L115,19.5 M119.7,22c-0.9-0.5-1.8-1-2.8-1.5l0.6-1.1c0.9,0.5,1.9,1,2.8,1.5L119.7,22 M124.3,24.7c-0.9-0.6-1.8-1.1-2.7-1.7l0.6-1.1
		c0.9,0.5,1.8,1.1,2.7,1.7L124.3,24.7 M128.7,27.8c-0.8-0.6-1.7-1.2-2.6-1.8l0.7-1c0.9,0.6,1.7,1.2,2.6,1.9L128.7,27.8 M132.9,31.1
		c-0.8-0.7-1.6-1.3-2.4-2l0.8-1c0.8,0.7,1.7,1.3,2.5,2L132.9,31.1 M136.8,34.7c-0.7-0.7-1.5-1.4-2.3-2.1l0.8-0.9
		c0.8,0.7,1.6,1.4,2.3,2.2L136.8,34.7 M140.6,38.5c-0.7-0.8-1.4-1.5-2.1-2.3l0.9-0.9c0.5,0.5,0.9,1,1.4,1.5c0.1,0.1,0.1,0.3,0.2,0.4
		l0.2-0.1c0.2,0.2,0.3,0.4,0.5,0.5L140.6,38.5 M142,40.2L142,40.2L142,40.2L142,40.2 M144,42.7c-0.2-0.2-0.4-0.5-0.6-0.7l0.5-0.2
		c-0.3-0.7-0.5-1.4-0.8-2.2c0.6,0.8,1.3,1.5,1.8,2.3L144,42.7 M147,47c-0.5-0.9-1.1-1.7-1.7-2.6l1-0.7c0.6,0.9,1.2,1.8,1.8,2.7
		L147,47 M149.6,51.7c-0.4-0.9-0.9-1.8-1.5-2.8l1.1-0.6c0.5,0.9,1.1,1.9,1.5,2.8L149.6,51.7 M151.7,56.6c-0.3-1-0.7-1.9-1.1-2.9
		l1.2-0.5c0.4,1,0.8,2,1.1,3L151.7,56.6"/>
	<path class="st0" d="M49.4,15.7L49,14.5c0.5-0.2,1-0.3,1.5-0.5l0,0c0.5-0.2,1-0.3,1.5-0.5l0.4,1.2c-0.5,0.2-1,0.3-1.5,0.5
		C50.4,15.3,49.9,15.5,49.4,15.7 M152.9,61.7c-0.1-0.5-0.2-1-0.3-1.5l0,0c-0.1-0.5-0.2-1-0.3-1.5l1.2-0.3c0.1,0.5,0.3,1.1,0.4,1.6
		l0,0c0.1,0.5,0.2,1,0.3,1.6L152.9,61.7 M1,118.3L1,118.3 M1.3,119.8c-0.1-0.5-0.2-1-0.4-1.5c-0.1-0.5-0.2-1-0.3-1.6l1.2-0.2
		c0.1,0.5,0.2,1,0.3,1.5l0,0c0.1,0.5,0.2,1,0.3,1.5L1.3,119.8 M131.8,136.2l-1-0.8c0.3-0.4,0.6-0.8,0.9-1.2c0.3-0.4,0.6-0.8,0.9-1.3
		l1,0.7c-0.3,0.4-0.6,0.8-0.9,1.3l0,0C132.4,135.4,132.1,135.8,131.8,136.2 M58.9,161.2c-0.5-0.1-1-0.2-1.5-0.3s-1-0.2-1.5-0.3
		l0.3-1.2c0.5,0.1,1,0.2,1.5,0.3l0,0c0.5,0.1,1,0.2,1.5,0.3L58.9,161.2"/>
	<path class="st0" d="M142,40.2c-0.1-0.3-0.2-0.6-0.4-1l1.2-0.4c0.1,0.3,0.2,0.5,0.3,0.8c-0.1-0.1-0.1-0.1-0.2-0.2L142,40.2
		 M142.7,42.2c-0.2-0.6-0.5-1.3-0.7-1.9c0.5,0.6,0.9,1.1,1.4,1.7L142.7,42.2 M144.3,47.2c-0.3-1-0.6-2-0.9-3l1.2-0.4
		c0.3,1,0.6,2,0.9,3L144.3,47.2 M145.7,52.2c-0.2-1-0.5-2-0.8-3l1.2-0.3c0.3,1,0.5,2,0.8,3L145.7,52.2 M146.8,57.4
		c-0.2-1-0.4-2-0.6-3l1.2-0.3c0.2,1,0.4,2,0.6,3.1L146.8,57.4 M147.7,62.6c-0.2-1-0.3-2-0.5-3.1l1.2-0.2c0.2,1,0.4,2,0.5,3.1
		L147.7,62.6 M148.4,67.8c-0.1-1-0.2-2.1-0.4-3.1l1.2-0.2c0.1,1,0.3,2.1,0.4,3.1L148.4,67.8 M148.8,73c-0.1-1-0.1-2.1-0.2-3.1
		l1.3-0.1c0.1,1,0.2,2.1,0.2,3.1L148.8,73 M149,78.3c0-1-0.1-2.1-0.1-3.1l1.3-0.1c0,1,0.1,2.1,0.1,3.1L149,78.3 M150.3,83.5H149
		c0-1,0-2.1,0-3.1h1.3C150.3,81.5,150.3,82.5,150.3,83.5 M150,88.9l-1.3-0.1c0.1-1,0.1-2.1,0.2-3.1l1.3,0.1
		C150.2,86.8,150.1,87.8,150,88.9"/>
	<path class="st0" d="M143.4,41.9c-0.4-0.6-0.9-1.1-1.4-1.7l0,0l1-0.8c0.1,0.1,0.1,0.1,0.2,0.2c0.3,0.7,0.5,1.4,0.8,2.2L143.4,41.9"
		/>
	<path class="st0" d="M141,37.2c-0.1-0.1-0.2-0.2-0.3-0.3c-0.3-0.8-0.7-1.6-1-2.4l1.1-0.5c0.4,0.9,0.8,1.9,1.2,2.9L141,37.2"/>
	<path class="st0" d="M140.9,37.2c-0.1-0.1-0.1-0.3-0.2-0.4c0.1,0.1,0.2,0.2,0.3,0.3L140.9,37.2"/>
	<path class="st0" d="M133.6,23.3c-0.6-0.9-1.2-1.7-1.8-2.5l1-0.7c0.6,0.8,1.2,1.7,1.8,2.6L133.6,23.3 M136.4,27.8
		c-0.5-0.9-1-1.8-1.6-2.7l1.1-0.7c0.5,0.9,1.1,1.8,1.6,2.7L136.4,27.8 M138.8,32.4c-0.4-0.9-0.9-1.9-1.4-2.8l1.1-0.6
		c0.5,0.9,0.9,1.8,1.4,2.8L138.8,32.4"/>
	<path class="st0" d="M135.5,128l-1-0.8c0.6-0.8,1.3-1.6,1.9-2.4l1,0.7l0,0C136.8,126.4,136.2,127.2,135.5,128 M132,132l-0.9-0.9
		c0.7-0.7,1.4-1.5,2.1-2.3l0.9,0.8C133.5,130.4,132.8,131.2,132,132 M129.6,132.6L129.6,132.6 M128.2,135.6l-0.8-0.9
		c0.8-0.7,1.5-1.4,2.2-2.1l0.9,0.9C129.7,134.2,129,135,128.2,135.6 M124.1,139l-0.8-1c0.8-0.6,1.6-1.3,2.4-1.9l0.8,1
		C125.8,137.7,124.9,138.4,124.1,139 M119.8,142.1l-0.7-1c0.9-0.6,1.7-1.1,2.5-1.7l0.7,1C121.5,140.9,120.7,141.5,119.8,142.1
		 M115.3,144.8l-0.6-1.1c0.9-0.5,1.8-1,2.6-1.6l0.7,1.1C117.1,143.8,116.2,144.3,115.3,144.8 M110.6,147.3l-0.6-1.1
		c0.9-0.5,1.8-0.9,2.7-1.4l0.6,1.1C112.5,146.4,111.5,146.9,110.6,147.3 M105.8,149.5l-0.5-1.2c0.9-0.4,1.9-0.8,2.8-1.3l0.5,1.1
		C107.7,148.7,106.8,149.1,105.8,149.5 M100.9,151.5l-0.4-1.2c1-0.4,1.9-0.7,2.9-1.1l0.5,1.2C102.8,150.8,101.9,151.1,100.9,151.5"
		/>
	<path class="st0" d="M137.4,125.5L137.4,125.5L137.4,125.5L137.4,125.5"/>
	<path class="st0" d="M138.7,123.7l-1-0.7c0.6-0.8,1.1-1.7,1.7-2.6l0.7,0.4c-0.2,0.4-0.5,0.9-0.7,1.3l0.3,0.1
		C139.3,122.8,139,123.3,138.7,123.7"/>
	<path class="st0" d="M139.6,122.4l-0.3-0.1c0.2-0.4,0.5-0.9,0.7-1.3l0.3,0.2C140.1,121.5,139.9,121.9,139.6,122.4"/>
	<path class="st0" d="M141.5,119.2l-1.1-0.6c0.5-0.9,1-1.8,1.4-2.7l0.6,0.3c-0.2,0.5-0.4,0.9-0.7,1.4l0.5,0.2
		C142,118.3,141.7,118.7,141.5,119.2"/>
	<path class="st0" d="M142.3,117.8l-0.5-0.2c0.2-0.5,0.4-0.9,0.7-1.4l0.5,0.3C142.7,116.9,142.5,117.4,142.3,117.8"/>
	<path class="st0" d="M143.9,114.5l-1.1-0.5c0.4-0.9,0.8-1.9,1.2-2.8l0.7,0.3c-0.2,0.5-0.4,0.9-0.6,1.4l0.5,0.2
		C144.3,113.5,144.1,114,143.9,114.5"/>
	<path class="st0" d="M144.5,113l-0.5-0.2c0.2-0.5,0.4-0.9,0.6-1.4l0.5,0.2C144.9,112.1,144.7,112.6,144.5,113"/>
	<path class="st0" d="M145.9,109.6l-1.2-0.4c0.3-1,0.7-1.9,1-2.9l0,0l0.9,0.3c-0.2,0.5-0.4,1-0.6,1.4l0.4,0.1
		C146.2,108.6,146,109.1,145.9,109.6"/>
	<path class="st0" d="M146.4,108.1l-0.3-0.1c0.2-0.5,0.4-1,0.5-1.4l0.3,0.1C146.7,107.1,146.5,107.6,146.4,108.1"/>
	<path class="st0" d="M147.5,104.5l-1.2-0.3c0.3-1,0.5-2,0.7-3l1.2,0.3c-0.1,0.5-0.2,0.9-0.3,1.4v0.1l0,0
		C147.7,103.5,147.6,104,147.5,104.5"/>
	<path class="st0" d="M147.8,103L147.8,103L147.8,103C147.9,102.9,147.9,103,147.8,103"/>
	<path class="st0" d="M148.7,99.4l-1.2-0.2c0.2-1,0.4-2,0.5-3l1.2,0.2C149,97.3,148.9,98.3,148.7,99.4"/>
	<path class="st0" d="M32.3,148.8c-0.8-0.7-1.6-1.4-2.4-2.1l0.9-0.9c0.7,0.7,1.5,1.4,2.3,2L32.3,148.8 M36.7,151.8
		c-0.9-0.6-1.8-1.1-2.6-1.7l0.7-1c0.8,0.6,1.7,1.2,2.6,1.7L36.7,151.8 M41.5,154.3c-1-0.4-1.9-0.9-2.8-1.4l0.6-1.1
		c0.9,0.5,1.8,0.9,2.8,1.3L41.5,154.3 M90.8,154.7l-0.3-1.2c1-0.3,2-0.6,3-0.9l0.4,1.2C92.8,154.2,91.8,154.5,90.8,154.7
		 M85.7,156.1l-0.3-1.2c1-0.2,2-0.5,3-0.8l0.3,1.2C87.7,155.6,86.7,155.8,85.7,156.1 M46.5,156.2c-1-0.3-2-0.7-3-1L44,154
		c0.9,0.4,1.9,0.7,2.9,1L46.5,156.2 M80.5,157.2l-0.2-1.2c1-0.2,2-0.4,3-0.6l0.3,1.2C82.5,156.8,81.5,157,80.5,157.2 M51.7,157.6
		c-1-0.2-2.1-0.5-3.1-0.7l0.3-1.2c1,0.3,2,0.5,3,0.7L51.7,157.6 M75.2,158l-0.2-1.2c1-0.1,2-0.3,3.1-0.5l0.2,1.2
		C77.2,157.7,76.2,157.9,75.2,158 M57,158.4c-1.1-0.1-2.1-0.3-3.1-0.4l0.2-1.2c1,0.2,2,0.3,3.1,0.4L57,158.4 M69.9,158.6l-0.1-1.3
		c1-0.1,2-0.2,3.1-0.3l0.1,1.2C71.9,158.4,70.9,158.5,69.9,158.6 M62.3,158.7c-1.1,0-2.1-0.1-3.1-0.2l0.1-1.3c1,0.1,2,0.1,3.1,0.2
		L62.3,158.7 M64.5,158.8v-1.3c1,0,2,0,3.1-0.1l0.1,1.3C66.6,158.7,65.6,158.8,64.5,158.8"/>
	<path class="st0" d="M4.4,80.9c0.1-0.4,0.2-0.7,0.3-1.1l-0.4-0.1c0-0.6-0.1-1.3-0.1-1.9l1.3-0.1c0.1,1,0.1,2.1,0.2,3.1L4.4,80.9
		 M4.9,86.2c-0.1-1-0.3-2.1-0.4-3.1L5.7,83c0.2,1,0.3,2,0.4,3L4.9,86.2 M5.7,91.5c-0.2-1-0.3-2.1-0.5-3.1l1.2-0.2
		c0.2,1,0.3,2.1,0.5,3.1L5.7,91.5 M6.7,96.7c-0.2-1-0.4-2-0.6-3.1l1.2-0.2c0.2,1,0.4,2,0.6,3.1L6.7,96.7 M7.9,101.9
		c-0.3-1-0.5-2-0.7-3.1l1.2-0.3c0.2,1,0.5,2,0.7,3L7.9,101.9 M9.3,107.1c-0.3-1-0.6-2-0.8-3l1.2-0.3c0.3,1,0.5,2,0.8,3L9.3,107.1
		 M10.9,112.2c-0.3-1-0.6-2-1-3l1.2-0.4c0.3,1,0.6,2,0.9,3L10.9,112.2 M12.7,117.3c-0.4-1-0.7-2-1.1-3l1.2-0.4c0.3,1,0.7,2,1.1,2.9
		L12.7,117.3 M14.6,122.2c-0.4-1-0.8-1.9-1.2-2.9l1.2-0.5c0.4,1,0.8,1.9,1.2,2.9L14.6,122.2 M16.8,127.1c-0.4-0.9-0.9-1.9-1.3-2.9
		l1.1-0.5c0.4,1,0.9,1.9,1.3,2.8L16.8,127.1 M19.2,131.9c-0.5-0.9-1-1.8-1.4-2.8l1.1-0.6c0.5,0.9,0.9,1.9,1.4,2.8L19.2,131.9
		 M21.9,136.6c-0.5-0.9-1.1-1.8-1.6-2.7l1.1-0.6c0.5,0.9,1,1.8,1.6,2.7L21.9,136.6 M24.8,141c-0.6-0.8-1.2-1.7-1.8-2.6l1-0.7
		c0.6,0.9,1.2,1.7,1.8,2.5L24.8,141"/>
	<path class="st0" d="M4.3,80.9c0-0.4-0.1-0.8-0.1-1.2l0.4,0.1C4.5,80.1,4.4,80.5,4.3,80.9L4.3,80.9"/>
	<path class="st0" d="M4,75.5c0-1.1-0.1-2.1-0.1-3.2h1.3c0,0.7,0,1.4,0,2l-0.5-0.1c-0.1,0.4-0.2,0.8-0.3,1.2L4,75.5"/>
	<path class="st0" d="M4.4,75.5c0.1-0.4,0.2-0.8,0.3-1.2l0.5,0.1c0,0.4,0,0.7,0,1.1H4.4"/>
	<path class="st0" d="M14.7,35.1l-1-0.7c0.6-0.9,1.2-1.7,1.9-2.6l1,0.8C15.9,33.4,15.3,34.2,14.7,35.1 M12.1,39.6L10.9,39
		c0.5-0.9,1-1.9,1.6-2.8l1.1,0.7C13,37.8,12.5,38.7,12.1,39.6 M9.9,44.4l-1.2-0.5c0.4-1,0.8-2,1.3-2.9l1.1,0.5
		C10.7,42.5,10.2,43.4,9.9,44.4 M8.1,49.3L6.9,49c0.3-1,0.6-2,1-3l1.2,0.4C8.7,47.4,8.4,48.3,8.1,49.3 M6.8,54.4l-1.2-0.3
		c0.2-1,0.5-2.1,0.7-3.1l1.2,0.3C7.3,52.4,7,53.4,6.8,54.4 M5.9,59.7L5.9,59.7l-1.2-0.2c0.1-1,0.3-2.1,0.5-3.1l1.2,0.2
		C6.2,57.6,6.1,58.6,5.9,59.7 M5.4,64.9l-1.3-0.1c0.1-1.1,0.2-2.1,0.3-3.1l1.2,0.1C5.6,62.8,5.5,63.9,5.4,64.9 M5.2,70.2H3.9
		c0-1.1,0-2.1,0.1-3.2l1.3,0.1C5.2,68.1,5.2,69.1,5.2,70.2"/>
	<path class="st0" d="M78.8,1.3L78.7,0c1.1,0,2.1,0,3.2,0v1.3C80.9,1.3,79.8,1.3,78.8,1.3 M87.3,1.4c-1-0.1-2.1-0.1-3.1-0.1V0
		c1.1,0,2.1,0.1,3.2,0.1L87.3,1.4 M73.4,1.8l-0.1-1.2c1.1-0.1,2.1-0.2,3.2-0.3l0.1,1.3C75.5,1.6,74.5,1.6,73.4,1.8 M92.6,1.8
		c-1-0.1-2.1-0.2-3.1-0.3l0.1-1.3c1.1,0.1,2.1,0.2,3.2,0.3L92.6,1.8 M68.1,2.5l-0.2-1.2C69,1.1,70,0.9,71.1,0.8L71.2,2
		C70.2,2.2,69.2,2.3,68.1,2.5 M97.9,2.6c-1-0.2-2.1-0.4-3.1-0.5L95,0.8c1,0.2,2.1,0.4,3.1,0.5L97.9,2.6 M62.9,3.6l-0.3-1.2
		c1-0.2,2.1-0.5,3.1-0.7L66,2.9C64.9,3.1,63.9,3.3,62.9,3.6 M103.1,3.7c-1-0.3-2-0.5-3.1-0.7l0.3-1.2c1.1,0.2,2.1,0.5,3.1,0.7
		L103.1,3.7 M105.3,4.3L105.3,4.3 M57.7,5l-0.4-1.2c1-0.3,2-0.6,3.1-0.9l0.3,1.2C59.7,4.4,58.7,4.7,57.7,5 M108.3,5.2
		c-1-0.3-2-0.6-3-0.9l0.3-1.2c1,0.3,2.1,0.6,3.1,0.9L108.3,5.2 M52.7,6.7l-0.4-1.2c1-0.4,2-0.7,3-1.1l0.4,1.2
		C54.6,6,53.7,6.3,52.7,6.7 M113.3,7c-0.9-0.4-1.9-0.8-2.9-1.1l0.4-1.2c1,0.4,2,0.8,3,1.2L113.3,7 M47.7,8.8l-0.5-1.1
		c1-0.4,2-0.9,2.9-1.3l0.5,1.2C49.6,7.9,48.7,8.3,47.7,8.8 M118.1,9.3c-0.9-0.5-1.8-0.9-2.8-1.4l0.5-1.1c1,0.5,1.9,0.9,2.9,1.4
		L118.1,9.3 M42.9,11.1L42.9,11.1L42.3,10c0.9-0.5,1.9-1,2.8-1.4l0.5,1.1C44.8,10.1,43.9,10.6,42.9,11.1 M122.7,12
		c-0.8-0.6-1.7-1.1-2.7-1.6l0.6-1.1c0.9,0.5,1.9,1.1,2.7,1.7L122.7,12 M38.3,13.8l-0.7-1.1c0.9-0.6,1.8-1.1,2.7-1.6l0.6,1.1
		C40.1,12.7,39.2,13.2,38.3,13.8 M38.3,13.8L38.3,13.8 M126.9,15.2c-0.8-0.7-1.6-1.3-2.4-2l0.7-1c0.9,0.7,1.7,1.3,2.5,2L126.9,15.2
		 M33.8,16.7l-0.7-1c0.9-0.6,1.8-1.2,2.6-1.8l0.7,1.1C35.5,15.5,34.7,16.1,33.8,16.7 M29.5,19.9l-0.8-1c0.8-0.7,1.7-1.3,2.5-1.9
		l0.7,1C31.2,18.6,30.3,19.2,29.5,19.9 M25.4,23.4L25.4,23.4l-0.8-0.9c0.8-0.7,1.6-1.4,2.4-2.1l0.8,1C27,22,26.2,22.6,25.4,23.4
		 M21.5,27l-0.9-0.9c0.8-0.8,1.5-1.5,2.3-2.2l0.9,0.9C23,25.6,22.3,26.3,21.5,27"/>
	<path class="st0" d="M130.6,19.1c-0.3-0.4-0.7-0.8-1-1.2l0,0c-0.3-0.4-0.7-0.8-1-1.1l0.9-0.9c0.4,0.4,0.7,0.8,1.1,1.2
		c0.3,0.4,0.7,0.8,1,1.2L130.6,19.1 M17.9,30.9l-1-0.8c0.3-0.4,0.7-0.8,1.1-1.2l0,0c0.4-0.4,0.7-0.8,1.1-1.2l0.9,0.9
		c-0.4,0.4-0.7,0.8-1.1,1.2l0,0C18.6,30.1,18.2,30.5,17.9,30.9 M149.5,94.1l-1.2-0.2c0.1-0.5,0.1-1,0.2-1.5l0,0
		c0.1-0.5,0.1-1,0.2-1.5l1.2,0.1c0,0.5-0.1,1-0.2,1.6l0,0C149.6,93.1,149.6,93.6,149.5,94.1 M28.3,145.2c-0.4-0.4-0.7-0.8-1.1-1.2
		c-0.3-0.4-0.7-0.8-1-1.2l1-0.8c0.3,0.4,0.7,0.8,1,1.2l0,0c0.3,0.4,0.7,0.8,1,1.1L28.3,145.2 M95.9,153.2l-0.4-1.2
		c0.5-0.2,1-0.3,1.5-0.5s1-0.3,1.5-0.5l0.4,1.2c-0.5,0.2-1,0.3-1.5,0.5l0,0l0,0C96.9,152.9,96.4,153,95.9,153.2"/>
</g>
<circle class="st1" cx="78.3" cy="82.9" r="64.3"/>
</svg>
