<?xml version="1.0" encoding="utf-8"?>
<!-- Generator: Adobe Illustrator 25.4.1, SVG Export Plug-In . SVG Version: 6.00 Build 0)  -->
<svg version="1.1" id="Layer_1" xmlns="http://www.w3.org/2000/svg" xmlns:xlink="http://www.w3.org/1999/xlink" x="0px" y="0px"
	 viewBox="0 0 546.3 96.8" style="enable-background:new 0 0 546.3 96.8;" xml:space="preserve">
<style type="text/css">
	.st0{fill:#999999;}
</style>
<path d="M539.3,14.3c-4.6-4.5-29-3.8-51.7-3c-5.2,0.2-51.5-0.6-104-0.6c-17.6,0-45,2-60.8,2c-11.3,0-20.8-0.4-28.7-0.7
	c-11-8.6-27.7-11.5-30.1-11.8c-12.2-1.2-25.9,2.5-36.6,10.4C155.7,9.6,50,8,41,8.8c-13.9,1.3-32,2-35.6,4.1c-5,3-4.2,22-5.2,29.3
	c-1,7.3,2.2,21.8,4,30c1.8,8.2,12.4,9.9,21.4,9.1c2.8-0.3,67.4,0.9,101.9,0.8c19.2,0,59.4-1.8,76.6-2c4.4,0,9.7,0,15.7,0.1
	c11.5,13.8,30.6,17.9,49.5,16.3c9.3-0.8,16.6-3.1,21.8-7.9c2.6-2.5,5-4.9,6.9-7.2c8.7,0.1,17.7,0.1,26.8,0
	c62.9-0.3,129.3-2.7,131.8-3.1c8.6-1.6,64.8,5.3,68.7,4c3.9-1.3,10,0.5,15-5c3.4-3.8,5.9-26.8,6-31
	C546.4,43.5,543.9,18.7,539.3,14.3z M30.8,66.7c-2,0-2.3-1.2-2.3-1.9v-8.1c-0.5-0.3-1.5-0.1-2.7-0.3c-1.3-0.3-2.5-0.4-3.6-0.5
	c-0.4,0.8-0.7,2.4-1,4.7c-0.3,2.6-0.7,4.4-1.3,5.4L19.7,66h-0.2c-2.2,0-3.3-0.5-3.6-1.5l0-0.2l0.1-0.1c0.6-0.9,2-5.9,5.4-24.9
	c1.1-6,1.7-9.6,1.9-10.6c1.1-5.5,2.4-8,3.9-8c0.8,0,1.5,0.2,2,0.6l0.1,0.1c0.8,5.6,1.6,13,2.5,21.9c0.9,9,1.3,16,1.3,20.9
	C33.1,65.8,32.3,66.7,30.8,66.7z M56.7,48.4c-0.1,8.7-0.5,14-1,16.3l-0.1,0.2L55.4,65c-0.1,0-0.2,0.1-0.5,0.2
	c-0.3,0.1-0.5,0.2-0.6,0.2c-0.5,0.1-0.9,0.2-1.2,0.2c-0.6,0-1-0.1-1.2-0.4c-0.3-0.4-0.6-0.9-0.7-1.6c-0.1-0.6-0.3-1.1-0.5-1.7
	c-0.2-0.6-0.9-3.2-2.1-8c-2.3-9.2-4-15.7-5-19.2l0.1,6.2l0.7,15.5l0.2,6.8c0,0.6-0.1,1.1-0.5,1.6c-0.3,0.5-0.8,0.7-1.4,0.7
	c-1.6,0-2.4-1.3-2.4-4l-0.6-21.1l0.1-11.2c-0.1-2.9,0.8-4.4,2.5-4.5c1.1,0,1.8,0.7,2.3,2.2c0.6,2.6,1.7,6.3,3.1,11.1
	c1.5,4.8,2.5,8.5,3.1,11c0.4,1.2,0.9,3,1.6,5.4c0.3,1,0.5,1.9,0.7,2.8c-0.1-8.1-0.2-17.8-0.5-28.8l-0.1-1.6c0-0.6,0.1-1.1,0.3-1.5
	c0.2-0.3,0.6-0.7,1.3-0.7c0.6,0,1.1,0.1,1.4,0.4c0.7,0.5,1.1,1.3,1.1,2.3C56.8,32.7,56.8,39.9,56.7,48.4z M74.5,57.2
	c-0.2,1.1-0.5,2.1-1,3.1c-0.5,1-1,1.9-1.7,2.6c-1.5,1.6-3.5,2.4-6,2.4c-1.3,0-1.8-0.8-2-1.4c-0.2-0.6-0.3-1.3-0.3-2.2L64,49l0.3-19
	c0-1.4,0-2.4-0.1-3.1l0-0.6c0-2.4,1.1-2.9,2.1-2.9c0.9,0,2.1,0.3,3.8,0.8c4.9,1.4,4.3,9.1,4.3,10c0,2.8-0.2,4.7-0.6,6
	c-0.4,1.1-0.9,2.3-1.7,3.4c1.1,1.1,1.8,2.5,2.1,4.2c0.4,1.7,0.5,3.4,0.5,5.2C74.8,54.7,74.7,56.1,74.5,57.2z M92.2,63.4
	C91.9,63.8,91.5,64,91,64l-4.9,0.1l-2.6,0.1h0c-1.3,0-2.1-0.4-2.6-1.3l0-0.2c0-0.6,0.1-1.1,0.3-1.5c0.1-0.3,0.5-0.7,1.3-0.7h1.4
	l0.1-0.5l-0.4-12.7L83.8,34c0-2.1-0.1-4.1-0.3-6h-2c-0.8,0-1.4-0.1-1.8-0.4c-0.4-0.3-0.7-0.8-0.7-1.6c0-0.4,0.1-0.7,0.4-1
	c0.5-0.5,1.6-0.8,3.2-0.8H83c5.5,0,8.1,0.8,8.1,2.4c0,0.3-0.1,0.7-0.4,1.3l-0.1,0.2h-2.9c0.1,1.4,0.2,3,0.2,4.8l-0.3,11.5L88,57.1
	v1.8c0,0.3,0,0.7-0.1,1.2h2.1c2.3,0,2.8,1,2.8,1.9C92.8,62.6,92.6,63,92.2,63.4z M101.9,30.7l-0.3,8.6c0,0,0,0.2,0.1,0.5l1.8-0.1
	c0,0,0,0,0,0c2.7,0,3.3,1.1,3.3,2c0,0.7-0.2,1.3-0.6,1.8c-0.4,0.5-3,0.6-3.5,0.3h-1c0.1,1.4,0.1,2.7,0.1,4l-0.3,10.9
	c0,3,1.3,3,1.8,3l2.4-0.1h0c2.2,0,2.7,1,2.7,1.8c0,0.7-0.3,1.3-1,1.7c-0.6,0.3-1.2,0.5-2,0.5h-5.7c-0.6,0-1.1-0.2-1.6-0.6
	c-0.4-0.4-0.7-1-0.7-1.6c0-0.6,0-1.3,0.1-2.1c0.1-0.8,0.2-1.4,0.2-1.9l-0.3-7.7L98,34l-0.3-5c0-3.1,1-4.6,2.9-4.6
	c0.5,0,4.4,0,4.7,0.1c0.5,0.1,1,0.2,1.5,0.3c1.3,0.4,2,1,2,2c0,1-0.6,1.6-0.6,1.6s-0.3,0.5-1.7,0.6c-1.3,0.1-4.4-0.4-4.6-0.4
	C101.9,29.3,101.9,30,101.9,30.7z M125.1,27.9c-0.5,0.3-1,0.5-1.6,0.5l-3-0.4l0,0.3c0,3.7-0.6,9.4,0.1,16.9c0.7,7.5,1,13.3,1,17.1
	c0,0.6-0.2,1.1-0.7,1.5c-0.4,0.4-0.9,0.6-1.5,0.6h-1.7l-0.1-5.8l0.1-2c-0.1-0.5-0.3-2.7-1-13.6c-0.5-8,0.2-13.1,0.1-15.3
	c-0.8,0-1.4,0-2,0.1c-1.1,0.1-1.7,0.1-2.2-0.2c-0.7-0.4-1-0.9-1-1.4c0-0.4,0.1-0.9,0.8-1.3c0.5-0.3,1-0.4,1.4-0.4l8.7,0l1,0
	c2,0,2.5,1,2.5,1.7C126.1,27,125.6,27.6,125.1,27.9z M134.3,30.7l-0.3,8.6c0,0,0,0.2,0.1,0.5l1.8-0.1c0,0,0,0,0,0
	c2.7,0,3.3,1.1,3.3,2c0,0.7-0.2,1.3-0.6,1.8c-0.4,0.5-3,0.6-3.5,0.3h-1c0.1,1.4,0.1,2.7,0.1,4L134,58.7c0,3,1.3,3,1.8,3l2.4-0.1h0
	c2.2,0,2.7,1,2.7,1.8c0,0.7-0.3,1.3-1,1.7c-0.6,0.3-1.2,0.5-2,0.5h-5.7c-0.6,0-1.1-0.2-1.6-0.6c-0.4-0.4-0.7-1-0.7-1.6
	c0-0.6,0-1.3,0.1-2.1c0.1-0.8,0.2-1.4,0.2-1.9l-0.3-7.7l0.4-17.5l-0.3-5c0-3.1,1-4.6,2.9-4.6c0.5,0,4.4,0,4.7,0.1
	c0.5,0.1,1,0.2,1.5,0.3c1.3,0.4,2,1,2,2c0,1-0.6,1.6-0.6,1.6s-0.3,0.5-1.7,0.6c-1.3,0.1-4.4-0.4-4.6-0.4
	C134.3,29.3,134.3,30,134.3,30.7z M159.8,65.8c-0.3,0.4-0.8,0.6-1.3,0.6c-1.6,0-2.8-2.2-4-6.9c-0.5-1.9-1.7-4.2-2.1-6.2
	c-0.7-3.7-2.1-5.6-2.4-6.9c0,0.2-0.1,0.5-0.2,0.7c-0.3,1.1-0.4,2.1-0.4,3c0,0.9,0.1,3,0.4,6.1c0.2,3.1-0.1,5.2-0.1,6.1
	c0,1-0.2,1.7-0.6,2.3c-0.4,0.6-0.9,0.9-1.4,0.9c-0.5,0-1.3-0.3-1.5-1.5c0-1.6,0.1-3.4,0.1-5.6c0-2.2,0.3-7,0-14.4
	c-0.3-7.4-0.5-13-0.5-16.6c0-2.7,1.3-3.3,2.4-3.3c2.2,0,4.4,0.4,6.1,1.2c2.2,1,2.9,3.3,2.9,6.1c0,2.8-0.4,4.7-1.3,6.7
	c-0.6,1.5-1.8,2.8-3,5.1c0.2,1,1.2,3,2,5.7c1.8,6.1,3.2,10.8,4.7,13.5c0.4,0.9,0.7,1.5,0.7,2C160.3,65,160.1,65.4,159.8,65.8z
	 M194.8,46.3c-0.2,1.3-1.1,1.5-3.6,1.5l-1.3,0.1c0,1,0.2,4.1-0.8,7.3c-0.7,2.4-1.3,3.9-1.7,4.8c1.1,1,2.2,1.6,3.4,1.6
	c0,0,2-0.4,3-0.3c0.9,0.1,1,1.2,1,1.2v0.2c0,1.2-0.6,1.7-1,1.9c-0.6,0.3-1.4,0.4-2.4,0.4c-1.9,0-3.8-0.7-5.8-2.2
	c-2.1,1.5-4.1,2.2-6,2.2c-1.9,0-3.5-0.5-4.9-1.6c-1.3-1.1-2.7-2.2-3.5-3.7c-0.7-1.5-1-3.1-1-4.7c0-1.6-0.1-3.3,0.1-4.7
	c0.2-1.4,0.7-2.8,1.2-4.3c0.7-2,2.5-4.9,4.3-8.6l-0.4-8.1l0.1-4.7c0.1-3.2,3.6-5.9,6.4-5.3c3.9,0.9,4,5.5,3.7,7.2
	c-0.6,2.8-3,7.3-3.8,8.5c-0.3,0.5-1.3,1.9-1.6,2.3c-0.8,1.1-0.9,1.3-0.9,1.3s0.7,5.3,2.2,10.2c1.3,4.3,2.4,7.2,3.4,8.6
	c1-2.7,1.5-6,1.5-9.8c-0.6-0.1-1.5-0.5-1.8-1.2l0.3-2h0.4c1,0,2.3-0.1,3.9-0.2c1.6-0.1,2.7-0.3,3.3-0.5l0.1,0l0.1,0
	C194.2,44,195,44.7,194.8,46.3z M298.4,68.3c-0.2,0.4-1.3,3-3,5.9c0,0-1.9,2.6-2.8,3.7c0,0,0,0,0,0c-0.9,1.1-2.8,3.3-2.8,3.3
	c-1.1,1.2-2.3,2.4-3.5,3.6c-5,4.7-11.8,7.6-20.8,8.3c-16.2,1.3-31.6-3-42.2-13c-1.9-1.8-3.7-3.8-5.3-6c-0.1-0.1-0.1-0.2-0.2-0.2
	c-0.5-0.6-0.9-1.3-1.3-2c-0.1-0.1-1.9-3.3-2.7-4.9c-0.1-0.2-0.8-1.8-1.1-2.5c-0.1-0.2-0.2-0.5-0.3-0.7c-0.3-0.8-0.6-1.7-0.9-2.5
	c-0.2-0.7-0.4-1.4-0.6-2c-0.1-0.2-0.8-3.7-0.9-4.1c0-0.2-0.3-1.7-0.3-2.3c0-0.1,0-0.1,0-0.2c-0.1-1.4-0.2-2.7-0.2-4c0-0.1,0-1.4,0-2
	c0-0.1,0.1-1.5,0.1-2.1c0.3-3.4,0.9-6.6,1.6-9.4c0,0,0,0,0,0c1.8-6.7,4.4-11.2,5-12.2c0.5-0.9,1.1-1.7,1.7-2.6
	c0.1-0.2,1.6-2.1,2.2-2.9c0.1-0.2,2.4-2.6,2.6-2.8c0.6-0.6,1.3-1.2,2-1.8c0.2-0.2,2.9-2.4,3-2.4c9.8-7.2,22.2-10.2,33.9-9.1
	c2.2,0.2,15.8,2.4,26.1,10.2c0.5,0.4,1.1,0.8,1.6,1.2c0.1,0.1,2.7,2.5,3.2,3c0,0,1.5,1.8,1.6,1.9c0.4,0.5,1.3,1.8,1.4,2
	c0.3,0.4,1,1.7,1.1,1.9c0.2,0.4,0.8,1.7,0.9,1.9c0.3,0.6,0.5,1.3,0.8,2C305.4,46.1,299.5,65.5,298.4,68.3z M334.7,67.1
	c-0.4,0.3-0.6,0.4-0.9,0.4c-0.1,0-0.1,0-0.1,0c0,0-0.1,0-0.1,0c-0.5,0.1-0.9,0.1-1.2-0.1c-0.2-0.1-0.4-0.3-0.5-0.7
	c0-0.3-0.1-0.6-0.1-0.9l0-1c-0.1-3-0.1-5.4-0.1-7.1c0-1.7,0-4.1,0-7.1c0-2.5,0-7,0-13.3c-0.2,0.9-0.4,2-0.6,3.2
	c-0.7,3.4-1.2,6-1.4,7.5c-0.3,1.6-0.5,2.9-0.6,3.9c-0.2,1.1-0.3,2-0.5,2.8c-0.1,0.8-0.3,1.7-0.5,2.6c-0.5,2-1,2.7-2,2.7
	c-1.9,0.1-1.7-1.4-2.5-5.7c-0.2-1.8-0.9-5.7-1.9-11.4c-0.6-3.1-1-5.7-1.4-7.8c0,1.7,0,3.1,0,4.2l0.5,25c0,1-0.3,1.8-1,2.5l-0.1,0.1
	h-0.2c-1.1,0-1.9-0.4-2.4-1.2c-0.4-0.7-0.6-1.7-0.6-2.9l0.2-10l-0.2-23.2c0-2.6,0-5.2,0.1-7.8c0,0-0.1-0.6,0.4-1.1
	c0.5-0.4,1.7-0.2,1.7-0.2c0.9,0.1,2.2,1.4,4,10.8c1.1,5.4,2,10.5,2.7,15.1c0.3,2.2,0.6,4,0.8,5.2c2.5-14.1,4.6-30.1,4.6-30.1
	c0.1-0.7,0.4-1.2,0.9-1.5c1-0.7,2.1-0.6,2.7-0.2c0.6,0.4,1.1,1.5,1.1,2.1c0,4.7-0.1,11.3,0.2,20.8c0.3,9.4,0.4,16.6,0.4,21.3
	C336.1,65.3,335.6,66.4,334.7,67.1z M356.5,65.9L356.5,65.9l-0.1,0c-0.9,0-1.6-0.1-2.2-0.4c-0.6-0.3-0.9-1.1-1-2.4
	c0-1-0.4-3.2-1-6.4l-1.6-0.1l-2,0.1l-0.1,0c-0.3-0.1-0.8-0.2-1.9-0.2c0,0.1,0,0.3,0,0.4l-0.1,1.2c0,0.3-0.1,0.7-0.1,1.3
	c-0.1,0.6-0.1,1.1-0.2,1.5c-0.1,0.4-0.2,0.9-0.3,1.4c-0.1,0.6-0.2,1-0.4,1.4c-0.1,0.4-0.3,0.7-0.5,1.1c-0.4,0.8-0.9,1.3-1.6,1.3
	c-0.6,0-1.1-0.1-1.6-0.5c-0.5-0.4-0.8-0.8-0.8-1.4l0-0.1c0.9-4,1.7-8.3,2.3-12.8c0.6-4.5,1-7.1,1.1-7.9s0.4-2.5,0.9-4.9
	c0.5-2.4,0.7-4,0.8-4.8c0.1-0.8,0.2-1.8,0.2-3.1c0.1-2.9,0.4-4.7,1-5.6l0.1-0.2l2.2-0.1c2-0.1,2.5,0.8,2.5,1.5
	c0.2,7.7,1.2,15.3,2.9,22.9c0.1,0.4,0.3,1.1,0.5,1.8c0.5,1.7,0.8,3.2,0.8,4.2l0,0.1l-0.3,1.2c0,0.5,0.2,1.7,0.6,3.4
	c0.4,1.9,0.6,3.2,0.6,3.8C357.6,65.2,357,65.7,356.5,65.9z M371.7,66.3c-0.9,0-1.9-0.1-2.9-0.4c-1-0.3-1.8-0.6-2.3-0.9
	c-2.8-1.8-4.2-6.5-4.2-14.4l0-3.5c0-11.7,1.4-18.5,4.4-20.7c1.5-1.1,3.6-1.7,6.3-1.7c0.5,0,1,0.2,1.4,0.6c0.4,0.4,0.7,0.8,0.7,1.4
	l0,0.4c-0.4,1.1-0.2,1.6-1.9,1.6l-2.4-0.1c-0.5,0-1,0.3-1.4,0.9c-0.5,0.7-0.9,1.5-1.1,2.5c-0.3,1-0.5,2.1-0.7,3.4
	c-0.3,1.9-0.4,3.8-0.4,5.5v0.3l-0.4,11.6c0,2.4,0.1,4.1,0.4,5c0.3,0.9,0.5,1.7,0.8,2.2c0.3,0.5,0.6,1,0.9,1.3
	c0.8,0.8,1.9,1.2,3.2,1.2c0.4,0,0.7-0.1,1-0.4l0.1-0.1h0.1c1.9,0,2.2,1.1,2.2,1.7C375.4,64.8,374.8,66.3,371.7,66.3z M393.1,65.1
	c-0.4,0.2-0.8,0.4-1.4,0.4c-0.5,0-1-0.1-1.5-0.4c-0.7-0.4-0.8-0.9-0.8-1.3c-0.2-4-0.3-8.9-0.3-14.7l0-2.1c-0.3,0-0.6,0-1,0l-3.4-0.5
	l-0.2,6.5l0.5,9.9c0,0.7-0.2,1.3-0.5,1.7c-0.4,0.5-0.9,0.8-1.6,0.8c-1,0-1.7-0.8-2-2.5c-0.3-1.5-0.5-3.5-0.5-6l0.2-12.6l0.1-3.5
	l-0.4-13.5c0-0.6,0.2-1.1,0.6-1.5c0.4-0.4,0.9-0.7,1.5-0.7c1.5,0,2.3,1.3,2.3,3.9v0l-0.2,14.7c0.7,0.1,1.6,0.2,2.8,0.2h1.9v-0.9
	c0-1.8-0.1-4.6-0.4-8.2c-0.3-3.7-0.4-6.5-0.4-8.3c0-0.6,0.2-1,0.6-1.4c0.4-0.4,0.8-0.5,1.2-0.5c0.2,0,0.5,0,0.6,0c0.2,0,0.4,0,0.6,0
	c0.2,0,0.4,0.1,0.6,0.2c0.4,0.2,0.6,0.8,0.6,1.7c0,4.2,0.2,10.5,0.6,18.9c0.4,8.3,0.6,14.7,0.6,18.9
	C393.7,64.4,393.5,64.8,393.1,65.1z M403.2,31.3l-0.3,8.6c0,0,0,0.2,0.1,0.5l1.8-0.1c0,0,0,0,0,0c2.7,0,3.3,1.1,3.3,2
	c0,0.7-0.2,1.3-0.6,1.8c-0.4,0.5-3,0.6-3.5,0.3h-1c0.1,1.4,0.1,2.7,0.1,4l-0.3,10.9c0,3,1.3,3,1.8,3l2.4-0.1h0c2.2,0,2.7,1,2.7,1.8
	c0,0.7-0.3,1.3-1,1.7c-0.6,0.3-1.2,0.5-2,0.5h-5.7c-0.6,0-1.1-0.2-1.6-0.6c-0.4-0.4-0.7-1-0.7-1.6c0-0.6,0-1.3,0.1-2.1
	c0.1-0.8,0.2-1.4,0.2-1.9l-0.3-7.7l0.4-17.5l-0.3-5c0-3.1,1-4.6,2.9-4.6c0.5,0,4.4,0,4.7,0.1c0.5,0.1,1,0.2,1.5,0.3c1.3,0.4,2,1,2,2
	c0,1-0.6,1.6-0.6,1.6s-0.3,0.5-1.7,0.6c-1.3,0.1-4.4-0.4-4.6-0.4C403.2,29.9,403.2,30.6,403.2,31.3z M428.7,66.5
	c-0.3,0.4-0.8,0.6-1.3,0.6c-1.6,0-2.8-2.2-4-6.9c-0.5-1.9-1.7-4.2-2.1-6.2c-0.7-3.7-2.1-5.6-2.4-6.9c0,0.2-0.1,0.5-0.2,0.7
	c-0.3,1.1-0.4,2.1-0.4,3c0,0.9,0.1,3,0.4,6.1c0.2,3.1-0.1,5.2-0.1,6.1c0,1-0.2,1.7-0.6,2.3c-0.4,0.6-0.9,0.9-1.4,0.9
	c-0.5,0-1.3-0.3-1.5-1.5c0-1.6,0.1-3.4,0.1-5.6c0-2.2,0.3-7,0-14.4c-0.3-7.4-0.5-13-0.5-16.6c0-2.7,1.3-3.3,2.4-3.3
	c2.2,0,4.4,0.4,6.1,1.2c2.2,1,2.9,3.3,2.9,6.1c0,2.8-0.4,4.7-1.3,6.7c-0.6,1.5-1.8,2.8-3,5.1c0.2,1,1.2,3,2,5.7
	c1.8,6.1,3.2,10.8,4.7,13.5c0.4,0.9,0.7,1.5,0.7,2C429.1,65.6,429,66.1,428.7,66.5z M444.8,64.1c-0.4,0.4-0.8,0.6-1.2,0.6l-4.9,0.1
	l-2.6,0.1h0c-1.3,0-2.1-0.4-2.6-1.3l0-0.2c0-0.6,0.1-1.1,0.3-1.5c0.1-0.3,0.5-0.7,1.3-0.7h1.4l0.1-0.5l-0.4-12.7l0.3-13.4
	c0-2.1-0.1-4.1-0.3-6h-2c-0.8,0-1.4-0.1-1.8-0.4c-0.4-0.3-0.7-0.8-0.7-1.6c0-0.4,0.1-0.7,0.4-1c0.5-0.5,1.6-0.8,3.2-0.8h0.2
	c5.5,0,8.2,0.1,8.2,1.8c0,0.3-0.2,1.3-0.5,1.9l-0.1,0.2h-2.9c0.1,1.4,0.2,3,0.2,4.8l-0.3,11.5l0.4,12.7v1.8c0,0.3,0,0.7-0.1,1.2h2.1
	c2.3,0,2.8,1,2.8,1.9C445.3,63.3,445.2,63.7,444.8,64.1z M466.9,49.2c-0.3,8.7-0.8,14-1.4,16.2l-0.1,0.2l-0.2,0.1
	c-0.1,0-0.2,0.1-0.5,0.2c-0.3,0.1-0.5,0.2-0.6,0.2c-0.5,0.1-0.9,0.2-1.2,0.2c-0.6,0-1-0.1-1.2-0.4c-0.3-0.4-0.6-0.9-0.7-1.6
	c-0.1-0.6-0.3-1.1-0.4-1.7c-0.2-0.6-0.8-3.2-1.9-8c-2.1-9.3-3.6-15.8-4.6-19.3v6.2l0.4,15.5v6.8c0,0.6-0.2,1.1-0.5,1.6
	c-0.3,0.5-0.8,0.7-1.4,0.7c-1.6,0-2.3-1.4-2.3-4l-0.1-21.2l0.4-11.2c0-2.9,0.9-4.4,2.6-4.4c1.1,0,1.8,0.8,2.3,2.3
	c0.5,2.6,1.5,6.3,2.9,11.1c1.4,4.8,2.3,8.5,2.8,11.1c0.4,1.2,0.8,3,1.4,5.4c0.2,1,0.5,2,0.7,2.8c0.1-8.1,0.2-17.8,0.2-28.8l-0.1-1.6
	c0-0.6,0.1-1.1,0.4-1.5c0.2-0.3,0.6-0.7,1.4-0.7c0.6,0,1,0.1,1.4,0.4c0.7,0.5,1.1,1.3,1.1,2.3C467.4,33.5,467.2,40.6,466.9,49.2z
	 M490.3,49.2c-0.3,8.7-0.8,14-1.4,16.2l-0.1,0.2l-0.2,0.1c-0.1,0-0.2,0.1-0.5,0.2c-0.3,0.1-0.5,0.2-0.6,0.2
	c-0.5,0.1-0.9,0.2-1.2,0.2c-0.6,0-1-0.1-1.2-0.4c-0.3-0.4-0.6-0.9-0.7-1.6c-0.1-0.6-0.3-1.1-0.4-1.7c-0.2-0.6-0.8-3.2-1.9-8
	c-2.1-9.3-3.6-15.8-4.6-19.3v6.2l0.4,15.5v6.8c0,0.6-0.2,1.1-0.5,1.6c-0.3,0.5-0.8,0.7-1.4,0.7c-1.6,0-2.3-1.4-2.3-4l-0.1-21.2
	l0.4-11.2c0-2.9,0.9-4.4,2.6-4.4c1.1,0,1.8,0.8,2.3,2.3c0.5,2.6,1.5,6.3,2.9,11.1c1.4,4.8,2.3,8.5,2.8,11.1c0.4,1.2,0.8,3,1.4,5.4
	c0.2,1,0.5,2,0.7,2.8c0.1-8.1,0.2-17.8,0.2-28.8l-0.1-1.6c0-0.6,0.1-1.1,0.4-1.5c0.2-0.3,0.6-0.7,1.4-0.7c0.6,0,1,0.1,1.4,0.4
	c0.7,0.5,1.1,1.3,1.1,2.3C490.8,33.5,490.7,40.6,490.3,49.2z M506.9,65.7c-0.6,0.3-1.2,0.5-2,0.5h-5.7c-0.6,0-1.1-0.2-1.6-0.6
	c-0.4-0.4-0.7-1-0.7-1.6c0-0.6,0-1.3,0.1-2.1c0.1-0.8,0.2-1.4,0.2-1.9l-0.3-7.7l0.4-17.5l-0.3-5c0-3.1,1-4.6,2.9-4.6
	c0.5,0,2-0.1,2.5-0.1c0.6,0,2.6,0.1,3.1,0.2c1.3,0.4,2,1,2,2c0,1-0.2,1.6-1.5,2.1h-0.6c0,0-3.1,0.1-4.2,0c0,0.7,0.1,1.4,0.1,2.1
	l-0.3,8.6c0,0,0,0.2,0.1,0.5l1.8-0.1c0,0,0,0,0,0c2.7,0,3.9,0.9,3.9,1.9c0.1,1.5,0.3,2.3-1.1,2.5c-0.7,0.1-3.1,0.1-3.6-0.2h-1
	c0.1,1.4,0.1,2.7,0.1,4l-0.3,10.9c0,3,1.3,3,1.8,3l2.4-0.1h0c2.2,0,2.7,1,2.7,1.8C507.9,64.8,507.6,65.4,506.9,65.7z M529.8,49.2
	c-0.3,8.7-0.8,14-1.4,16.2l-0.1,0.2l-0.2,0.1c-0.1,0-0.2,0.1-0.5,0.2c-0.3,0.1-0.5,0.2-0.6,0.2c-0.5,0.1-0.9,0.2-1.2,0.2
	c-0.6,0-1-0.1-1.2-0.4c-0.3-0.4-0.6-0.9-0.7-1.6c-0.1-0.6-0.3-1.1-0.4-1.7c-0.2-0.6-0.8-3.2-1.9-8c-2.1-9.3-3.6-15.8-4.6-19.3v6.2
	l0.4,15.5v6.8c0,0.6-0.2,1.1-0.5,1.6c-0.3,0.5-0.8,0.7-1.4,0.7c-1.6,0-2.3-1.4-2.3-4L513,40.7l0.4-11.2c0-2.9,0.9-4.4,2.6-4.4
	c1.1,0,1.8,0.8,2.3,2.3c0.5,2.6,1.5,6.3,2.9,11.1c1.4,4.8,2.3,8.5,2.8,11.1c0.4,1.2,0.8,3,1.4,5.4c0.2,1,0.5,2,0.7,2.8
	c0.1-8.1,0.2-17.8,0.2-28.8l-0.1-1.6c0-0.6,0.1-1.1,0.4-1.5c0.2-0.3,0.6-0.7,1.4-0.7c0.6,0,1,0.1,1.4,0.4c0.7,0.5,1.1,1.3,1.1,2.3
	C530.3,33.5,530.1,40.6,529.8,49.2z M70.5,51c-0.1-0.9-0.3-1.7-0.5-2.4c-0.5-1.4-1.1-2.2-1.9-2.6c-0.1,2.1-0.2,4.4-0.2,6.7
	c0,3.1,0.1,4.1,0.2,4.4l0,0.1l-0.1,0.1c-0.2,0.4-0.3,1-0.3,1.8v2.2c1-0.4,1.7-1,2.2-2.1c0.6-1.2,1-2.4,1-3.4c0-1.1,0-2,0-2.6
	C70.7,52.7,70.6,51.9,70.5,51z M70.3,34.7c0-1.2-0.1-2.5-0.4-3.9c-0.5-2-1.1-3.3-1.8-3.7v14.5C69.5,41.2,70.3,38.9,70.3,34.7z
	 M26.6,32.6c-0.2,1.2-0.5,3-1,5.6c-0.9,5.5-1.4,8.3-1.5,8.8c-0.1,0.5-0.3,1.1-0.6,2c-0.5,1.5-0.7,2.7-0.8,3.5c2.7,0.7,4.7,0.1,5.7,0
	c-0.1-0.9-0.3-2.5-0.6-5.6C27.1,39.5,26.7,34.8,26.6,32.6z M180,56.1c-0.7-1.4-1.3-3-1.8-4.9c-0.6-2.2-1.1-4.9-1.7-8.1
	c-1.7,3.1-2.5,6.6-2.5,10.6c0,2.9,0.8,5.2,2.3,6.8c0.9,0.9,1.9,1.3,3.1,1.3c0.6,0,1.3-0.2,2.1-0.5c0.7-0.2,1.2-0.5,1.6-0.8
	c-0.2-0.2-0.5-0.6-1-1.1C181.5,58.6,180.7,57.5,180,56.1z M281.1,23.4l-1.6-2.4c-0.2-0.3-0.7-0.6-1.2-0.6c0,0-0.9,0-2.8,0
	c-1,0-2.5-0.1-3.9-0.1c-5.2-0.1-12.1-0.2-14.4,0c-3.8,0.3-18.2,0-18.2,0h-2.9c-0.5,0-0.9,0.2-1.2,0.6c0,0-1.5,2.1-2.1,3.6
	c-0.6,1.5-2,3.4-2,3.4l-2.3,3.8c-0.1,0.2-0.2,0.5-0.2,0.7c0,0-0.2,1.4-0.3,2.4c0,1,0.3,2.9,0.3,2.9c0.1,1-0.1,2.1,0.3,2.9
	c0.5,0.9,1.4,1.5,2.2,2.2v9.5c0.3,5.7,0.9,11.1,1.3,16.9c0.3,0,0.1,0.5,0.1,0.7c0.3,0.3,0.5,0.8,0.6,1.4c0.6,0.5,1,0.9,1.4,1.4
	c0.7,0.1,1.2,0.5,1.9,0.7c0.7,0.1,1.4,0.2,2.1,0.3h18.3c4.9-0.5,12.6-0.2,16.7-0.8h6.1c0.3-0.2,0.9-0.2,1.4-0.5
	c0.5-0.3,0.8-0.6,1.3-0.9c0.2-0.2,0.2-0.7,0.6-0.8c0.5-1.5,0.7-3.2,0.8-5V43c1.4-1.4,2.3-3.2,2.5-5.3v-5.3c0.1-0.1,0-0.3-0.1-0.6
	L281.1,23.4z M270.9,22.9l3.1-0.1h0.9c1,0,2.7,0,2.7,0l1.5,2.5c0,0,1,1.5,1.4,2.3c0.2,0.5,0.9,1.9,1.5,2.7c0.2,0.5,0.6,0.7,0.5,0.8
	c0,0.1-1.2,0-2,0c-0.8,0-3.9,0-3.9,0h-2.1c0,0-2.4,0.1-2.7-0.2c-0.2-0.3-0.6-1.4-0.6-1.4s0-0.6-0.5-1.4c-0.5-0.8-0.6-1.7-0.6-1.7
	l-0.1-1.7l-0.8-1.9L270.9,22.9z M258.5,33.7h2.9l5.1,0.3l3.4-0.3v3.4c0,1.5-0.9,2.8-1.9,3.8c-1,1-2.1,1.7-3.7,1.7
	c-1.7,0-3.6-1-4.6-2.2c-0.8-0.9-0.9-2-0.9-3.4l0.1-1.4L258.5,33.7z M258.5,22.8h3.6c0,0,0.8,0.1,2.1,0c1.3-0.1,2.3,0,2.3,0l0.6,1.7
	c0,0,0.8,2.1,1,3.1c0.1,1,1.2,3.5,1.2,3.5s-2.9-0.2-4.3,0c-1.5,0.2-3.9,0-3.9,0s-2.2,0.2-2.4,0c-0.1-0.2,0-1.2,0-1.2v-3.2
	c-0.1,0,0.1-1.5-0.1-2.2C258.4,23.7,258.5,22.8,258.5,22.8z M247.1,25.3c0,0,0.2-0.5,0.3-1.2c0.1-0.6,0.5-1.4,0.5-1.4h1.4
	c0,0,2.2,0.2,3.7,0c1.5-0.2,2.9,0,2.9,0v1l-0.1,3.7l0.1,3.6h-8c0,0-2.8,0.1-2.8-0.2c0.2-0.2,0.7-1.5,1.1-2.6
	C246.5,27.1,247.1,25.3,247.1,25.3z M255.9,35.2v2c0,1.6-0.6,2.9-1.7,3.9c-1,0.8-2.2,1.5-3.9,1.6c-1.3,0.1-2.4-0.5-3.4-1.2
	c-0.6-0.5-1.2-0.7-1.5-1.6c-0.3-0.9-0.8-1.9-0.8-2.9c0,0-0.5-3,0-3.4c0.5-0.3,4.9,0,4.9,0s1.2-0.1,2.4,0c1.6,0.2,3.8-0.2,3.8,0
	C255.9,33.9,255.9,35.2,255.9,35.2z M233.2,29.1l1.5-2.5c0,0,0.7-1,1.2-2c0.5-0.9,1-1.7,1-1.7h0.9c0,0,2.4,0.1,3.7,0
	c1.3-0.1,3.7,0,3.7,0l-0.3,1.2c0,0-1,1.9-1,2.5c0,0.6-0.7,2.9-0.7,2.9l-0.6,1.6l-3.9-0.2l-2.1,0.2l-2.4-0.1c0,0-2.1,0.1-2.1-0.1
	C231.8,30.7,233.2,29.1,233.2,29.1z M236.6,42.6c-1.7,0-3.6-1-4.6-2.2c-0.8-0.9-0.9-2-0.9-3.4l0.1-1.4l-0.1-2h2.9L239,34l3.4-0.3V37
	c0,1.5-0.9,2.8-1.9,3.8C239.3,41.9,238.2,42.6,236.6,42.6z M273.1,60.8c-0.3,0.2-0.9,0.3-0.9,0.3h-2c-0.6,0.2-1.2,0.4-1.7,0.5
	c-1.2,0.3-9.2,0-10.4-0.1c-0.9-0.1-2.8-0.3-3.7-0.4h-1.2c0,0,0,0,0,0c-0.9,0.1-2.5,0.2-3.7,0.2c-1.2,0-4,0-5.4,0
	c-0.7,0-2.3,0.1-2.5-0.1c-0.3-0.2-0.3-0.5-0.2-2.5v-7.3c0-0.4,0-0.6,0-0.6c0-0.1-0.1-0.3-0.1-0.5c-0.3-2,0.1-4,0.1-4v-2.4
	c0.9-0.6,1.6-1.4,2.2-2.3c0.6,0.9,1.2,1.7,2.1,2.4c0.6,0.5,1.5,0.7,2.3,0.9c0.8,0.2,1.7,0.2,2.7,0.2c0.8,0,1.4,0.1,2.1-0.1
	c0.8-0.2,1.9-0.6,2.5-1c1-0.7,1.5-1.5,2.1-2.4c0.3,0.6,0.5,1,1.2,1.5c0.7,0.5,1.6,1,2.3,1.4c1.2,0.6,2.3,0.8,3.6,0.8
	c1.2,0,2.7-0.6,3.6-1c0.8-0.3,1.4-0.9,1.9-1.4c0.3-0.3,0.7-0.6,1.2-1.2c0.6,0.9,1.4,1.7,2.2,2.3c0,0,0,3.8,0,5.6v4.1
	c0,1.3,0.1,2.8,0,4.9C273.2,59.7,273.6,60.5,273.1,60.8z M280.4,71.6c-0.2-0.3-3.5-3.5-3.4-3.9c-0.2-0.2,0.1-1.5,0.2-1.5
	c0.1,0,3.6,3.8,3.6,3.8L280.4,71.6z M281.2,67.9c-0.1,0.3-3.5-3.2-3.6-3.9c0-0.3,0.2-1.4,0.4-1.5c0.1,0,3.4,3.8,3.4,3.8L281.2,67.9z
	 M281.7,63.8c-0.1,0.3-3.1-2.4-3.1-3.4c-0.1-0.3,0.2-1.4,0.3-1.4c0.1,0,2.8,3,2.9,3L281.7,63.8z M282,60c0,0.1-3-2.6-3-3.2
	c-0.1-0.2,0.1-1.2,0.2-1.2c0.1,0.1,2.8,2.8,2.8,2.8V60z M280,53.9c0,0,0-1.3,0.2-1.2c0.3-0.4,1.6,1.5,1.5,1.8l0.1,1.6l0.1,0.2
	C281.9,56.2,280,53.9,280,53.9z M283.5,35.8v1.3c0,1-0.3,2.1-0.8,2.9c-0.5,0.7-1,1.2-1.7,1.6c-0.8,0.6-2,0.8-3,0.8
	c-1.6,0-3.1-0.5-4.2-1.6c-0.9-1-1.3-2.4-1.3-3.9l-0.1-2.9l1.7-0.2c0,0,3.5,0,4.4,0s1.9,0,1.9,0s3.1-0.1,3.2,0.2
	C283.6,34.3,283.5,35.8,283.5,35.8z M241.3,50.7C241.5,51.4,241.4,50.7,241.3,50.7L241.3,50.7z M351.1,46.6c-0.2-1.8-0.5-4-0.9-6.5
	c-0.2-1.2-0.4-2.3-0.5-3.2c-0.2,1-0.5,2.2-0.8,3.6c-1.2,5.4-1.8,9.6-1.8,12.5c0.5,0.2,1.8,0.5,4.5,0.6c-0.1-0.6-0.1-1.4-0.2-2.4
	C351.4,50.1,351.3,48.5,351.1,46.6z M421.6,29.9c-0.6-0.9-2-2-3.1-2.1l-0.1,0.5c0,1.6,0.1,4,0.1,7.1c0.1,2.6,0.1,4.7,0.1,6.1
	c0.6-0.6,1.2-1.5,2.1-2.8C422.1,36.8,424.4,34.5,421.6,29.9z M180.4,29.8c1.1-2.2,1.3-3,1.5-3.9c0.4-3.1-1.6-2.9-2.5-2.8
	c-0.1,0.2-0.5,0.1-0.7,1.1c0,0.1-0.2,0.7-0.2,0.8c-0.1,0.7-0.1,2.2-0.1,2.2l0.1,6.3C178.7,32.7,180.1,30.6,180.4,29.8z M152.7,29.2
	c-0.6-0.9-2-2-3.1-2.1l-0.1,0.5c0,1.6,0.1,4,0.1,7.1c0.1,2.6,0.1,4.7,0.1,6.1c0.6-0.6,1.2-1.5,2.1-2.8
	C153.2,36.2,155.6,33.8,152.7,29.2z"/>
<path class="st0" d="M326.3,51.6c0.2-1,0.4-2.1,0.5-3.1c0-0.2-0.1-0.4-0.1-0.6c-0.7-4.6-1.6-9.7-2.7-15.1
	c-1.8-9.3-3.5-11.9-4.8-12.2c0.9,0.6,2,2.7,3.6,10.7c1.1,5.4,2,10.5,2.7,15.1C325.8,48.6,326.1,50.4,326.3,51.6z M501.2,40.6l0.7,0
	c0.2-2.5,0.6-9.3,0.5-9.9c1.1,0.2,2.6,0,2.6,0c1.5,0.1,2.3,0.2,2.8-1.6c0.2-0.8,0.6-2-0.5-2.7c0.2,0.3,0.2,0.6,0.2,0.9
	c0,1-0.2,1.6-1.5,2.1h-0.6c0,0-3.1,0.1-4.2,0c0,0.7,0.1,1.4,0.1,2.1l-0.3,8.6C501.1,40.1,501.1,40.2,501.2,40.6z M320.3,35
	c0,1.7,0,3.1,0,4.2l0.5,25c0,1-0.3,1.8-1,2.5l-0.1,0.1h-0.2c-1.1,0-1.8-0.4-2.3-1.1c0,0.1,0,0.1,0.1,0.2c0.4,0.8,0.5,1.6,1,2
	c0.5,0.4,1.3,0.5,2.8,0.2c0.7-0.1,0.9-1.5,0.9-2.5l-0.5-23.8C321.1,39.2,320.7,36.9,320.3,35z M502.2,62.3c0-0.4-0.1-0.8-0.1-1.3
	l0-10.7c0-1.2-0.1-2.9-0.2-4.3c0,0,2.2,0.2,2.8,0.2c0.7,0,2.1-0.2,2.5-0.8c0.4-0.5,0.3-1.9,0.3-2.6c0-0.5-0.4-1-1.3-1.5
	c0.3,0.3,0.5,0.6,0.5,0.9c0.1,1.5,0.3,2.3-1.1,2.5c-0.7,0.1-3.1,0.1-3.6-0.2h-1c0.1,1.4,0.1,2.7,0.1,4l-0.3,10.9
	C501.1,61.4,501.7,62.1,502.2,62.3z M350.6,56.7l-2,0.1l-0.1,0c-0.3-0.1-0.8-0.2-1.9-0.2c0,0.1,0,0.3,0,0.4l-0.1,1.2
	c0,0.3-0.1,0.7-0.1,1.3c-0.1,0.6-0.1,1.1-0.2,1.5c-0.1,0.4-0.2,0.9-0.3,1.4c-0.1,0.6-0.2,1-0.4,1.4c-0.1,0.4-0.3,0.7-0.5,1.1
	c-0.4,0.8-0.9,1.3-1.6,1.3c-0.6,0-1.1-0.1-1.6-0.5c-0.2-0.1-0.3-0.3-0.5-0.5c0,0,0,0.1,0,0.1c0.4,0.4,1.3,1.5,1.8,1.9
	c0.5,0.3,1,0.5,1.6,0.5c0.7,0,1.2-0.4,1.6-1.3c0.2-0.3,0.3-0.7,0.5-1.1c0.1-0.4,0.3-0.9,0.4-1.4c0.1-0.5,0.2-1,0.3-1.4
	c0.1-0.4,0.1-0.9,0.2-1.5c0.1-0.6,0.1-1,0.1-1.3l0.1-1.2c0-0.2,0-0.3,0-0.4c1.1,0,1.6,0.1,1.9,0.2l0.1,0l2-0.1l0.6,0
	c-0.1-0.5-0.2-0.9-0.3-1.4L350.6,56.7z M506.5,62.4C506.5,62.4,506.5,62.4,506.5,62.4L506.5,62.4C506.5,62.4,506.5,62.4,506.5,62.4z
	 M336.5,22.9c0-0.7-0.5-1.3-0.9-1.9c-0.3-0.4-0.7-1.1-1.3-1.3c0,0,0.1,0,0.1,0.1c0.6,0.4,1.1,1.5,1.1,2.1c0,4.7-0.1,11.3,0.2,20.8
	c0.3,9.4,0.4,16.6,0.4,21.3c0,1.3-0.4,2.3-1.3,3.1c-0.4,0.3-0.6,0.4-0.9,0.4c-0.1,0-0.1,0-0.1,0c0,0-0.1,0-0.1,0
	c-0.5,0.1-0.9,0.1-1.2-0.1c-0.1-0.1-0.2-0.1-0.3-0.2c0,0,0,0.1,0,0.1c0.1,0.4,0.8,1.7,2.2,1.7c0.5,0,1.2,0,1.6-0.3
	c0.9-0.8,1.3-1.8,1.3-3.1c0-4.7,0.2-12,0-21.4C337,34.7,336.5,27.6,336.5,22.9z M331.2,40.3c-0.7,3.4-1.2,6-1.4,7.5
	c-0.3,1.6-0.5,2.9-0.6,3.9c-0.2,1.1-0.3,2-0.5,2.8c-0.1,0.8-0.3,1.7-0.5,2.6c-0.5,2-1,2.7-2,2.7c-0.6,0-1-0.1-1.3-0.5
	c0.5,1.3,1.5,1.8,2.4,1.8c1,0,1.6-0.5,2.1-2.6c0.2-0.9,0.8-4.3,1-5.4c0.2-1.1,0.4-2.4,0.6-3.9c0.2-1.1,0.5-2.6,0.8-4.6
	c0-2.1,0-4.7,0-7.6C331.7,38,331.5,39.1,331.2,40.3z M384.8,28.9L384.8,28.9l-0.2,14.7c0.3,0.1,0.8,0.1,1.3,0.2l0.2-13.3v0
	c0-2.5-1.1-5-2.5-5.2C384.3,25.7,384.8,27,384.8,28.9z M367.8,59.8c0.3,0.5,0.6,1,0.9,1.3c0.1,0.1,0.2,0.2,0.4,0.3
	c0,0,0-0.1-0.1-0.1c-0.3-0.6-0.5-1.3-0.8-2.2c-0.3-0.9-0.4-2.6-0.4-5c0,0,0.5-15.4,0.8-17.4c0.2-1.2,1.3-5.2,1.8-5.8
	c0.4-0.6,0.9-0.9,1.4-0.9l1.1,0.1c1.7,0,2.7-1.1,2.7-1.1c0.5-0.9,0.5-2.3,0.1-2.6c-0.4-0.4-1.2-1.4-1.8-1.4c0,0,0,0,0,0
	c0.1,0.1,0.3,0.2,0.4,0.3c0.4,0.4,0.7,0.8,0.7,1.4l0,0.4c-0.4,1.1-0.2,1.6-1.9,1.6l-2.4-0.1c-0.5,0-1,0.3-1.4,0.9
	c-0.5,0.7-0.9,1.5-1.1,2.5c-0.3,1-0.5,2.1-0.7,3.4c-0.3,1.9-0.4,3.8-0.4,5.5v0.3l-0.4,11.6c0,2.4,0.1,4.1,0.4,5
	C367.3,58.5,367.6,59.3,367.8,59.8z M349.6,42.1c0.2-0.9,0.4-1.6,0.5-2.4c-0.2-1-0.3-2-0.4-2.7c-0.2,1-0.5,2.2-0.8,3.6
	c-1.2,5.4-1.8,9.6-1.8,12.5c0.2,0.1,0.4,0.1,0.7,0.2C348,50.5,348.5,46.8,349.6,42.1z M404.6,62.3c-0.2-0.3-0.3-0.8-0.3-1.5
	l0.3-10.9c0-1.2,0-2.6-0.1-4c0,0,2.8-0.3,3.4-0.3c0.7,0,1.9-0.9,1.9-1.6c0-0.8-0.4-2.7-2.4-3.1c0.6,0.4,0.8,1,0.8,1.5
	c0,0.7-0.2,1.3-0.6,1.8c-0.4,0.5-3,0.6-3.5,0.3h-1c0.1,1.4,0.1,2.7,0.1,4l-0.3,10.9C402.9,62.2,404.1,62.3,404.6,62.3z M357,52.6
	c-0.2-0.8-3.2-17-3.4-24.7c0-0.7-1.3-3.1-3.3-3.1l0,0c1.6,0.1,2,0.8,2.1,1.5c0.2,7.7,1.2,15.3,2.9,22.9c0.1,0.4,0.3,1.1,0.5,1.8
	c0.5,1.7,0.8,3.2,0.8,4.2l0,0.1l-0.3,1.2c0,0.5,0.2,1.7,0.6,3.4c0.4,1.9,0.6,3.2,0.6,3.8c0,1.4-0.6,1.9-1.1,2.1l-0.1,0l-0.1,0
	c-0.9,0-1.6-0.1-2.2-0.4c-0.3-0.2-0.6-0.5-0.7-1c0.2,1.1,1.4,2.2,2,2.5c0.5,0.3,1.2,0.4,2.2,0.4l0.1,0l0.1,0
	c0.5-0.2,1.1-0.8,1.1-2.1c0-0.6-1-8.4-1-8.4S357.5,54.4,357,52.6z M418.7,41.5c0.3-0.3,0.6-0.7,1-1.2c0-1,0-2.2-0.1-3.5
	c-0.1-3.1,0.1-5,0.1-6.6v-2c-0.4-0.2-0.8-0.3-1.1-0.4l-0.1,0.5c0,1.6,0.1,4,0.1,7.1C418.6,38.1,418.7,40.1,418.7,41.5z M484.4,49.8
	c-0.1-0.3-0.2-0.7-0.2-1.1c0.1,0.3,0.1,0.6,0.2,0.8C484.4,49.7,484.4,49.8,484.4,49.8z M479,28.9C479,28.9,479,28.9,479,28.9
	c0,0.1,0,0.2,0.1,0.3C479.1,29.1,479.1,29,479,28.9z M440.5,57.8v1.8c0,0.3,0,0.7-0.1,1.2h1.2v-1.5l-0.4-12.7l0.3-11.5
	c0-1.8,0-3.7-0.1-5.1l2.5-0.3c0.9-0.5,0.8-2.4,0.8-2.6c0-0.8-0.4-1.2-1.5-1.4c0.3,0.2,0.5,0.5,0.5,0.9c0,0.3-0.2,1.3-0.5,1.9
	l-0.1,0.2h-2.9c0.1,1.4,0.2,3,0.2,4.8l-0.3,11.5L440.5,57.8z M530,26.6C530,26.6,529.9,26.6,530,26.6c0.2,0.4,0.3,0.9,0.3,1.4
	c0,5.5-0.2,12.6-0.5,21.2c-0.3,8.7-0.8,14-1.4,16.2l-0.1,0.2l-0.2,0.1c-0.1,0-0.2,0.1-0.5,0.2c-0.3,0.1-0.5,0.2-0.6,0.2
	c-0.5,0.1-0.9,0.2-1.2,0.2c-0.6,0-1-0.1-1.2-0.4c-0.1-0.1-0.2-0.3-0.2-0.4c0,0.1,0.1,0.2,0.1,0.3c0.1,0.6,0.4,1.2,0.7,1.6
	c0.2,0.3,3.5,0,4-0.3c0.5-0.3,1.4-7.4,1.8-16.2c0.3-8.6,0.4-15.7,0.4-21.2C531.3,28.6,530.7,27.1,530,26.6z M445.3,62.7
	c0,0.5-0.2,1-0.5,1.4c-0.4,0.4-0.8,0.6-1.2,0.6l-4.9,0.1l-2.6,0.1h0c-0.8,0-1.5-0.2-1.9-0.6c0.7,0.9,2,2.1,3,2.1h0l7.5-0.2
	c0.5,0,1-0.4,1.4-0.8c0.3-0.3,0.4-2.3-0.9-3.5C445.3,62.1,445.3,62.4,445.3,62.7z M463,57.8c0-0.2,0-0.4,0-0.6
	c-0.1-0.2-0.1-0.4-0.2-0.6c-0.6-2.4-1.1-4.3-1.4-5.4c-0.5-2.5-1.5-6.2-2.8-11.1c-1.3-4.8-2.3-8.5-2.9-11.1c-0.1-0.4-0.3-0.8-0.5-1.1
	c0.6,2.6,1.5,6.2,2.8,10.7c1.4,4.8,2.3,8.5,2.8,11.1c0.4,1.2,0.8,3,1.4,5.4C462.6,56.1,462.8,57,463,57.8z M467.1,26.6
	C467.1,26.6,467,26.6,467.1,26.6c0.2,0.4,0.3,0.9,0.3,1.4c0,5.5-0.2,12.6-0.5,21.2c-0.3,8.7-0.8,14-1.4,16.2l-0.1,0.2l-0.2,0.1
	c-0.1,0-0.2,0.1-0.5,0.2c-0.3,0.1-0.5,0.2-0.6,0.2c-0.5,0.1-0.9,0.2-1.2,0.2c-0.6,0-1-0.1-1.2-0.4c-0.1-0.1-0.2-0.3-0.3-0.4
	c0,0.1,0.1,0.2,0.1,0.4c0.1,0.6,0.4,1.2,0.7,1.6c0.2,0.3,3.3,0,3.8-0.3s1.4-7.4,1.8-16.2c0.3-8.6,0.4-15.7,0.4-21.2
	C468.2,28.6,467.8,27.1,467.1,26.6z M454.7,37.5c-0.2-0.9-0.4-1.7-0.6-2.4v6.2l0.4,15.5v6.8c0,0.6-0.2,1.1-0.5,1.6
	c-0.3,0.5-0.8,0.7-1.4,0.7c-0.6,0-1.1-0.2-1.5-0.7c0.5,1.3,1.5,1.8,2.6,1.8c1.9,0,2-1.6,2-2.2v-6.6L455,42.6L454.7,37.5z
	 M375.1,62.5c0.3,0.3,0.3,0.7,0.3,1c0,1.3-0.6,2.7-3.7,2.7c-0.9,0-1.9-0.1-2.9-0.4c-1-0.3-1.8-0.6-2.3-0.9c-0.2-0.2-0.5-0.3-0.7-0.5
	c0.5,0.9,1.2,1.5,1.9,2c0.5,0.3,1.3,0.6,2.3,0.9c1,0.3,2,0.4,2.9,0.4c3.1,0,3.6-1.8,3.6-3.1C376.6,64,376.4,63.1,375.1,62.5z
	 M517.6,37.6c-0.2-0.9-0.4-1.7-0.6-2.4v6.2l0.4,15.5v6.8c0,0.6-0.2,1.1-0.5,1.6c-0.3,0.5-0.8,0.7-1.4,0.7c-1.1,0-1.8-0.7-2.1-2
	c0.3,2.1,1.9,3.1,3.2,2.9c2-0.3,2-1.4,2-2v-6.6l-0.7-15.7L517.6,37.6z M490.6,26.8c0.1,0.3,0.2,0.7,0.2,1.2c0,5.5-0.2,12.6-0.5,21.2
	c-0.3,8.7-0.8,14-1.4,16.2l-0.1,0.2l-0.2,0.1c-0.1,0-0.2,0.1-0.5,0.2c-0.3,0.1-0.5,0.2-0.6,0.2c-0.5,0.1-0.9,0.2-1.2,0.2
	c-0.6,0-1-0.1-1.2-0.4c-0.3-0.4-0.6-0.9-0.7-1.6c-0.1-0.6-0.3-1.1-0.4-1.7c-0.1-0.5-0.6-2.5-1.4-6c1,4.5,1.6,7,1.8,7.5
	c0.2,0.5,0.3,1.1,0.4,1.7c0.1,0.6,0.4,1.2,0.7,1.6c0.2,0.3,3.3,0,3.8-0.3s1.8-3.8,2.4-16.3c0.4-9.1,0.3-15.2,0.3-20.7
	C492,29,491.3,27.6,490.6,26.8z M507.6,63c0.3,0.3,0.4,0.7,0.4,1.1c0,0.7-0.3,1.3-1,1.7c-0.6,0.3-1.2,0.5-2,0.5h-5.7
	c-0.6,0-1.1-0.2-1.6-0.6c-0.2-0.2-0.3-0.4-0.4-0.6c0.2,0.7,0.7,1.6,1,1.9c0.4,0.4,0.7,0.8,1.3,0.8l4.7,0c0.7,0,2-0.1,2.6-0.4
	c0.6-0.3,1.3-0.7,1.4-2.8C508.3,63.9,508,63.4,507.6,63z M482.1,54.5c-2.1-9.3-3.6-15.8-4.6-19.3v6.2l0.4,15.5v6.8
	c0,0.6-0.2,1.1-0.5,1.6c-0.3,0.5-0.8,0.7-1.4,0.7c-0.9,0-1.5-0.4-1.9-1.2c0.4,1.7,1.5,2.4,2.8,2.4c1.9,0,2-1.6,2-2.2v-6.6l-0.7-15.7
	l-0.4-5.9c0.9,3.5,2.4,9.9,4.5,19.1C482.3,55.3,482.2,54.9,482.1,54.5z M393.9,27.7c0-0.9-0.2-1.1-0.7-2c-0.1-0.2-0.8-1-0.9-1
	c0,0-0.1,0-0.2,0c0.4,0.2,0.6,0.8,0.6,1.6c0,4.2,0.2,10.5,0.6,18.9c0.4,8.3,0.6,14.7,0.6,18.9c0,0.5-0.2,0.9-0.6,1.1
	c-0.4,0.2-0.8,0.4-1.4,0.4c-0.5,0-1-0.1-1.5-0.4c-0.1,0-0.1-0.1-0.2-0.1c0.4,0.6,1,1.4,1.4,1.6c0.5,0.3,2.5,0.3,2.9,0.1
	c0.4-0.3,0.6-0.7,0.6-1.1c0-4.2-0.2-10.5-0.6-18.9C394,38.2,393.9,31.9,393.9,27.7z M408.9,62.6c0.7,0.4,0.9,1,0.9,1.5
	c0,0.7-0.3,1.3-1,1.7c-0.6,0.3-1.2,0.5-2,0.5h-5.7c-0.6,0-1.1-0.2-1.6-0.6c-0.1-0.1-0.2-0.2-0.3-0.3c0.2,0.6,0.6,1.1,0.9,1.4
	c0.4,0.4,1.7,1,2.3,1h5.7c0.7,0,1.4-0.2,2-0.5c0.6-0.3,0.5-1.7,0.4-2.4C410.4,63.4,409.7,62.8,408.9,62.6z M389.1,48.4l0-1.5
	c-0.3,0-0.6,0-1,0l-3.4-0.5l-0.2,6.5l0.5,9.9c0,0.7-0.2,1.3-0.5,1.7c-0.4,0.5-0.9,0.8-1.6,0.8c-1,0-1.6-0.8-2-2.4
	c0,0.2,0.1,0.5,0.1,0.7c0.3,1.6,1.1,2.9,2.1,3.1c1,0.2,2.4-0.1,2.8-0.7c0.3-0.5,0.3-1.1,0.3-1.8l-0.5-9.9l0.2-6.5L389.1,48.4z
	 M436.2,30.2c0-0.5-0.1-1-0.1-1.5h-2c-0.8,0-1.4-0.1-1.8-0.4c-0.1-0.1-0.3-0.2-0.4-0.4c0.2,0.7,1.2,1.6,1.6,1.8
	c0.4,0.3,0.8,0.5,1.6,0.5H436.2z M426.6,55.4l-1.7-5.2c-1.1-3.1-1.8-4.3-2-5.3c1.2-2.3,2.7-3.8,3.5-5.2c0.8-1.4,1-3.5,1-6.3
	c0-1.7-0.9-3.7-2-5.1c0.5,1.1,0.6,2.3,0.6,3.7c0,2.8-0.4,4.7-1.3,6.7c-0.6,1.5-1.8,2.8-3,5.1c0.2,1,1.2,3,2,5.7
	c1.8,6.1,3.2,10.8,4.7,13.5c0.4,0.9,0.7,1.5,0.7,2c0,0.5-0.2,1-0.5,1.4c-0.3,0.4-0.8,0.6-1.3,0.6c-0.5,0-1-0.3-1.5-0.8
	c0.5,1,1.1,1.5,1.9,1.5c0.5,0,1.4-0.2,1.7-0.6c0.3-0.4,0.8-1.1,0.8-1.6c0-0.5-0.1-1.4-0.6-2.3C428.4,60.6,428.7,61.3,426.6,55.4z
	 M410,27.4c0,1-0.6,1.6-0.6,1.6s-0.3,0.5-1.7,0.6s-4.4-0.4-4.6-0.4c0,0.7,0.1,1.4,0.1,2.2l-0.3,8.6c0,0,0,0.2,0.1,0.5l1.3-0.1
	l0.2-7.6c0-0.7,0-1.4-0.1-2.1c1.1,0.2,4.3,0.4,4.3,0.4c1.3-0.5,2-1.2,2-2.2c0-0.7-0.3-1.8-1-2.4C409.9,26.8,410,27.1,410,27.4z
	 M419.3,52.2c0-0.9,0.1-1.9,0.4-3c-0.4-0.9-0.7-1.5-0.8-2.1c0,0.2-0.1,0.5-0.2,0.7c-0.3,1.1-0.4,2.1-0.4,3c0,0.9,0.1,3,0.4,6.1
	c0.2,3.1-0.1,5.2-0.1,6.1c0,1-0.2,1.7-0.6,2.3c-0.4,0.6-0.9,0.9-1.4,0.9c-0.5,0-1.1-0.2-1.4-1.1c0,0.1,0,0.1,0,0.2
	c0.2,1.3,1.5,1.8,2.1,1.8c0.5,0,1.9-0.7,2.3-1.3c0.4-0.5,0.4-4.5,0.2-7.6C419.4,55.2,419.3,53.1,419.3,52.2z M135.7,61.7
	c-0.2-0.3-0.3-0.8-0.3-1.5l0.3-10.9c0-1.2,0-2.6-0.1-4c0,0,2.8-0.3,3.4-0.3c0.7,0,1.9-0.9,1.9-1.6c0-0.8-0.4-2.7-2.4-3.1
	c0.6,0.4,0.8,1,0.8,1.5c0,0.7-0.2,1.3-0.6,1.8c-0.4,0.5-3,0.6-3.5,0.3h-1c0.1,1.4,0.1,2.7,0.1,4L134,58.7
	C134,61.5,135.2,61.7,135.7,61.7z M149.8,40.9c0.3-0.3,0.6-0.7,1-1.2c0-1,0-2.2-0.1-3.5c-0.1-3.1,0.1-5,0.1-6.6v-2
	c-0.4-0.2-0.8-0.3-1.1-0.4l-0.1,0.5c0,1.6,0.1,4,0.1,7.1C149.7,37.4,149.8,39.5,149.8,40.9z M103.3,61.7c-0.2-0.3-0.3-0.8-0.3-1.5
	l0.3-10.9c0-1.2,0-2.6-0.1-4c0,0,2.8-0.3,3.4-0.3c0.7,0,1.9-0.9,1.9-1.6c0-0.8-0.4-2.7-2.4-3.1c0.6,0.4,0.8,1,0.8,1.5
	c0,0.7-0.2,1.3-0.6,1.8c-0.4,0.5-3,0.6-3.5,0.3h-1c0.1,1.4,0.1,2.7,0.1,4l-0.3,10.9C101.6,61.5,102.8,61.7,103.3,61.7z M73.8,40.2
	c-0.4,1.1-0.9,2.3-1.7,3.4c0.3,0.3,0.6,0.7,0.8,1c0.6-1,1.1-2,1.4-3c0.4-1.3,0.8-2.9,1.1-5.7c0.5-5.5-1.2-8.7-2.8-10.2
	c2.2,2.7,1.9,7.6,1.9,8.3C74.4,37,74.2,39,73.8,40.2z M180,56.1c-0.3-0.7-0.7-1.4-1-2.2c0.4,1.4,0.9,2.6,1.5,3.7
	c0.7,1.4,1.4,2.4,2.1,3.2c0.2-0.1,0.4-0.2,0.6-0.4c-0.2-0.2-0.5-0.6-1-1.1C181.5,58.6,180.7,57.5,180,56.1z M175,55
	c0-3.8,0.4-7,1.9-10c-0.1-0.6-0.2-1.2-0.3-1.9c-1.7,3.1-2.5,6.6-2.5,10.6c0,2.3,0.5,4.1,1.4,5.6C175.1,58.1,175,56.6,175,55z
	 M189.8,57c1-3.2,1.1-6.5,1.1-7.6l1.4,0c2.4,0,3.1-0.7,3.1-2c0-0.5-0.1-1.6-0.7-2.4c0.1,0.3,0.2,0.8,0.1,1.3
	c-0.2,1.3-1.1,1.5-3.6,1.5l-1.3,0.1c0,1,0.2,4.1-0.8,7.3c-0.7,2.4-1.3,3.9-1.7,4.8c0.4,0.4,0.7,0.6,1.1,0.9
	C188.8,59.9,189.3,58.6,189.8,57z M185.5,26.5c-0.6,2.8-3,7.3-3.8,8.5c-0.3,0.5-1.3,1.9-1.6,2.3c-0.8,1.1-0.9,1.3-0.9,1.3
	s0.1,0.9,0.4,2.3c0.4-0.7,2-3.1,3-4.8c2.9-5,2.9-7.1,3.2-9.7c0.1-1.2-0.1-2.4-0.5-3.5C185.7,24.2,185.7,25.7,185.5,26.5z
	 M179.3,31.8l-0.1-3.4c0-0.1-0.6-4.7,1.3-4.6c0.7,0.2,1.2,0.7,1.4,1.2c0-2.2-1.7-2.1-2.5-1.9c-0.1,0.2-0.5,0.1-0.7,1.1
	c0,0.1-0.2,0.7-0.2,0.8c-0.1,0.7-0.1,2.2-0.1,2.2l0.1,6.3C178.6,33.1,178.9,32.5,179.3,31.8z M90.4,29.6l0.1-0.2
	c0.3-0.6,0.7-2.4,0.7-2.7c0-0.3-0.1-0.6-0.3-0.7c0.1,0.2,0.2,0.4,0.2,0.6c0,0.3-0.1,0.7-0.4,1.3l-0.1,0.2h-2.9c0,0.5,0.1,1,0.1,1.5
	H90.4z M125.1,27.9c-0.5,0.3-1,0.5-1.6,0.5l-3-0.4l0,0.3c0,3.7-0.6,9.4,0.1,16.9c0.7,7.5,1,13.3,1,17.1c0,0.6-0.2,1.1-0.7,1.5
	c-0.4,0.4-0.9,0.6-1.5,0.6h-1.6l0,1.5l1.4,0c0.6,0,1.6-0.1,2.1-0.5c0.4-0.4,1.1-1.4,1.1-2c0-3.8-0.2-8.9-0.8-16.4
	c-0.7-7.5-0.3-12.6-0.3-16.3l-0.1-0.8l1.4-0.1c0.6,0,1.7,0.1,2.2-0.2c0.5-0.4,1.4-2.7,1.4-3.3c0,0,0,0,0-0.1
	C126.1,27,125.6,27.6,125.1,27.9z M117.5,58.3l0,0.5l0.1-2c-0.1-0.2-0.1-0.8-0.2-2.3C117.5,57.1,117.4,58,117.5,58.3z M107.6,61.9
	c0.7,0.4,0.9,1,0.9,1.5c0,0.7-0.3,1.3-1,1.7c-0.6,0.3-1.2,0.5-2,0.5h-5.7c-0.6,0-1.1-0.2-1.6-0.6c-0.1-0.1-0.2-0.2-0.3-0.3
	c0.2,0.6,0.6,1.1,0.9,1.4c0.4,0.4,1.7,1,2.3,1h5.7c0.7,0,1.4-0.2,2-0.5c0.6-0.3,0.5-1.7,0.4-2.4C109.1,62.8,108.4,62.2,107.6,61.9z
	 M68.5,28.6c0.4,0.2,0.8,0.7,1.1,1.3c-0.4-1.5-1-2.5-1.6-2.8v14.5c0.2,0,0.4-0.1,0.5-0.2V28.6z M108.7,26.7c0,1-0.6,1.6-0.6,1.6
	s-0.3,0.5-1.7,0.6c-1.3,0.1-4.4-0.4-4.6-0.4c0,0.7,0.1,1.4,0.1,2.2l-0.3,8.6c0,0,0,0.2,0.1,0.5l1.3-0.1l0.2-7.6c0-0.7,0-1.4-0.1-2.1
	c1.1,0.2,4.3,0.4,4.3,0.4c1.3-0.5,2-1.2,2-2.2c0-0.7-0.3-1.8-1-2.4C108.6,26.1,108.7,26.4,108.7,26.7z M112.6,27.8
	c-0.4-0.3-0.7-0.6-0.9-1c0,0,0,0.1,0,0.1c0,0.5,0.1,1.9,0.7,2.3c0.4,0.3,1.1,0.2,2.2,0.2c0.6,0,1.2-0.1,2-0.1c0,0.6,0,1.4,0,2.5
	c0.1-1.8,0.2-3.1,0.1-4c-0.8,0-1.4,0-2,0.1C113.8,28.1,113.1,28.1,112.6,27.8z M194.7,62.4C194.7,62.4,194.7,62.4,194.7,62.4l0,0.2
	c0,1.2-0.6,1.7-1,1.9c-0.6,0.3-1.4,0.4-2.4,0.4c-1.9,0-3.8-0.7-5.8-2.2c-2.1,1.5-4.1,2.2-6,2.2c-1.9,0-3.5-0.5-4.9-1.6
	c-0.7-0.6-1.5-1.2-2.2-1.9c0.7,1.4,1.7,2.7,2.9,3.7c1.3,1.1,3,1.6,4.9,1.6c1.8,0,3.8-0.7,6-2.2c2,1.4,3.9,2.2,5.8,2.2
	c1,0,1.8-0.1,2.4-0.4c0.5-0.2,1-0.7,1-1.9L194.7,62.4L194.7,62.4z M141.1,26.7c0,1-0.6,1.6-0.6,1.6s-0.3,0.5-1.7,0.6
	c-1.3,0.1-4.4-0.4-4.6-0.4c0,0.7,0.1,1.4,0.1,2.2l-0.3,8.6c0,0,0,0.2,0.1,0.5l1.3-0.1l0.2-7.6c0-0.7,0-1.4-0.1-2.1
	c1.1,0.2,4.3,0.4,4.3,0.4c1.3-0.5,2-1.2,2-2.2c0-0.7-0.3-1.8-1-2.4C141,26.1,141.1,26.4,141.1,26.7z M157.7,54.7l-1.7-5.2
	c-1.1-3.1-1.8-4.3-2-5.3c1.2-2.3,2.7-3.8,3.5-5.2c0.8-1.4,1-3.5,1-6.3c0-1.7-0.9-3.7-2-5.1c0.5,1.1,0.6,2.3,0.6,3.7
	c0,2.8-0.4,4.7-1.3,6.7c-0.6,1.5-1.8,2.8-3,5.1c0.2,1,1.2,3,2,5.7c1.8,6.1,3.2,10.8,4.7,13.5c0.4,0.9,0.7,1.5,0.7,2
	c0,0.5-0.2,1-0.5,1.4c-0.3,0.4-0.8,0.6-1.3,0.6c-0.6,0-1.1-0.3-1.6-0.9c0.6,1.4,1.2,2,2,2c0.5,0,1.4-0.5,1.8-0.9
	c0.3-0.4,0.8-1.1,0.8-1.6c0-0.5-0.1-1.4-0.6-2.3C159.5,59.9,159.8,60.7,157.7,54.7z M150.4,51.5c0-0.9,0.1-1.9,0.4-3
	c-0.4-0.9-0.7-1.5-0.8-2.1c0,0.2-0.1,0.5-0.2,0.7c-0.3,1.1-0.4,2.1-0.4,3c0,0.9,0.1,3,0.4,6.1c0.2,3.1-0.1,5.2-0.1,6.1
	c0,1-0.2,1.7-0.6,2.3c-0.4,0.6-0.9,0.9-1.4,0.9c-0.5,0-1.1-0.2-1.4-1.1c0,0.1,0,0.1,0,0.2c0.2,1.3,1.5,1.8,2.1,1.8
	c0.5,0,1.9-0.7,2.3-1.3c0.4-0.5,0.4-4.5,0.2-7.6C150.6,54.5,150.4,52.5,150.4,51.5z M140,61.9c0.7,0.4,0.9,1,0.9,1.5
	c0,0.7-0.3,1.3-1,1.7c-0.6,0.3-1.2,0.5-2,0.5h-5.7c-0.6,0-1.1-0.2-1.6-0.6c-0.1-0.1-0.2-0.2-0.3-0.3c0.2,0.6,0.6,1.1,0.9,1.4
	c0.4,0.4,1.7,1,2.3,1h5.7c0.7,0,1.4-0.2,2-0.5c0.6-0.3,0.5-1.7,0.4-2.4C141.6,62.8,140.8,62.2,140,61.9z M22.1,55.8
	c-0.4,0.8-0.7,2.4-1,4.7c-0.3,2.6-0.7,4.4-1.3,5.4L19.7,66h-0.2c-2.2,0-3.3-0.5-3.6-1.5l0,0l-0.1,0.1l0.6,1.4c0.2,1,1.4,1.5,3.6,1.5
	h0.2l0.1-0.2c0.6-1,1.1-2.8,1.3-5.4c0.2-2.3,0.6-3.8,1-4.7c1.1,0.1,2.3,0.3,3.6,0.5c0.9,0.2,1.6,0.1,2.2,0.2v-1.3
	c-0.5-0.3-1.5-0.1-2.7-0.3C24.4,56.1,23.2,55.9,22.1,55.8z M44.3,42.4l-0.1-5.6c-0.2-0.8-0.4-1.5-0.6-2.1l0.1,6.2l0.7,15.5l0.2,6.8
	c0,0.6-0.1,1.1-0.5,1.6c-0.3,0.5-0.8,0.7-1.4,0.7c-0.7,0-1.3-0.3-1.7-0.9c0.3,1.6,1.1,2.4,2.3,2.4c0.6,0,1.1-0.3,1.4-0.7
	c0.3-0.4,0.5-1,0.5-1.6L45,57.9L44.3,42.4z M30.5,22.3c-0.1-0.4-1.2-0.9-1.2-0.9l0,0l0.1,0.1c0.8,5.6,1.6,13,2.5,21.9
	c0.9,9,1.3,16,1.3,20.9c0,1.5-0.8,2.4-2.3,2.4c-1.7,0-2.2-0.8-2.3-1.5l0,0.3c0,0.7,0.8,2.7,2.9,2.7c1.5,0,2.8-1,2.8-2.5
	c0-4.9-0.3-11.2-1.2-20.1C32.1,36.6,30.6,22.7,30.5,22.3z M68.1,60.7c0-0.8,0.1-1.4,0.3-1.8l0.1-0.1l0-0.1c-0.1-0.3-0.2-1.3-0.2-4.4
	c0-2.3,0.1-4.6,0.2-6.7c0.6,0.3,1.1,0.8,1.6,1.6c-0.1-0.2-0.1-0.4-0.2-0.6c-0.5-1.4-1.1-2.2-1.9-2.6c-0.1,2.1-0.2,4.4-0.2,6.7
	c0,3.1,0.1,4.1,0.2,4.4l0,0.1l-0.1,0.1c-0.2,0.4-0.3,1-0.3,1.8v2.2c0.2-0.1,0.4-0.2,0.5-0.3V60.7z M24.1,50.4c0.3-0.8,0.4-1.5,0.6-2
	c0.1-0.5,0.6-3.4,1.5-8.8c0.3-1.6,0.5-2.9,0.7-3.9c-0.1-1.3-0.2-2.4-0.2-3.1c-0.2,1.2-0.5,3-1,5.6c-0.9,5.5-1.4,8.3-1.5,8.8
	c-0.1,0.5-0.3,1.1-0.6,2c-0.5,1.5-0.7,2.7-0.8,3.5c0.3,0.1,0.5,0.1,0.8,0.2C23.6,52,23.8,51.3,24.1,50.4z M92.2,63.4
	C91.9,63.8,91.5,64,91,64l-4.9,0.1l-2.6,0.1h0c-1.3,0-2.1-0.4-2.6-1.3l0,0c-0.1,0.4-0.2,0.8-0.2,1.3l0,0.2c0.4,0.9,1.3,1.3,2.6,1.3
	h0l2.6-0.1l4.9-0.1c0.5,0,0.9-0.2,1.2-0.6c0.3-0.4,0.5-0.9,0.5-1.4c0-0.2,0-0.3-0.1-0.5C92.5,63.1,92.4,63.3,92.2,63.4z M74,46.8
	c0.1,0.3,0.2,0.6,0.3,1c0.4,1.7,0.5,3.4,0.5,5.2c0,1.7-0.1,3.1-0.3,4.2c-0.2,1.1-0.5,2.1-1,3.1c-0.5,1-1,1.9-1.7,2.6
	c-1.5,1.6-3.5,2.4-6,2.4c-1.3,0-1.8-0.8-2-1.4c-0.2-0.5-0.2-1.1-0.3-1.8l0,0.1c0,0.9,0.1,2.2,0.3,2.8c0.2,0.6,1.7,1.7,3,1.7
	c2.5,0,4-0.8,5.5-2.4c0.7-0.7,1.2-1.6,1.7-2.6c0.5-1,1-1.9,1.2-3c0.2-1.1,0.4-2.6,0.4-4.3c0-1.7-0.2-3.4-0.5-5.1
	C74.9,48.5,74.5,47.6,74,46.8z M53.1,57.2c0-0.2,0-0.4,0-0.6c-0.1-0.2-0.1-0.4-0.2-0.6c-0.6-2.4-1.2-4.2-1.6-5.4
	c-0.6-2.5-1.6-6.2-3.1-11c-1.5-4.8-2.5-8.5-3.1-11.1c-0.1-0.4-0.3-0.8-0.5-1.1c0.6,2.6,1.6,6.1,3,10.7c1.5,4.8,2.5,8.5,3.1,11
	c0.4,1.2,0.9,3,1.6,5.4C52.6,55.5,52.8,56.4,53.1,57.2z M83.4,29.5c0.2,1.9,0.3,3.9,0.3,6l-0.3,13.4l0.4,11.6h0.1l0.1-0.5l-0.4-12.7
	L83.8,34c0-2.1-0.1-4.1-0.3-6h-2c-0.8,0-1.4-0.1-1.8-0.4c-0.4-0.3-0.7-0.8-0.7-1.6c0,0,0-0.1,0-0.1C79.1,25.9,79,26,79,26.1
	c0,0.8,0.2,2.7,0.6,2.9c0.4,0.3,1,0.4,1.8,0.4H83.4z M56.2,25.7c0.3,0.4,0.5,1,0.5,1.6c0.1,5.5,0.1,12.6,0,21.2
	c-0.1,8.7-0.5,14-1,16.3l-0.1,0.2L55.4,65c-0.1,0-0.2,0.1-0.5,0.2c-0.3,0.1-0.5,0.2-0.6,0.2c-0.5,0.1-0.9,0.2-1.2,0.2
	c-0.6,0-1-0.1-1.2-0.4c-0.1-0.1-0.2-0.3-0.3-0.4c0,0.1,0.1,0.2,0.1,0.4c0.2,0.6,0.4,1.2,0.7,1.6c0.3,0.3,0.7,0.4,1.2,0.4
	c0.3,0,2.8-0.2,3.4-1.3c0.6-1,0.3-7.1,0.5-15.8c0.1-8.6,0-16-0.1-21.4C57.4,27.6,56.9,26.3,56.2,25.7z"/>
</svg>
