<svg>
<g>
	<path fill-rule="evenodd" clip-rule="evenodd" fill="#93CFC6" d="M8.9,10.5c5.2-3,15.5-4.4,25.2-1.4C44.7,12.3,48.8,20.7,50,29.2
		c1.6,11.8-2,18.6-7.1,21.6c-6.9,4.1-29,6.9-37.2-4.1C-5.3,31.8,1.8,14.5,8.9,10.5z"/>
	<path fill-rule="evenodd" clip-rule="evenodd" fill="#FFFFFF" d="M17.2,11.9c0.6,0,1.8-0.3,2.9-0.4c0.1,0,0.2,0,0.3-0.1
		c0.7-0.1,1.3-0.2,1.3-0.2l0,0c0,0,0.1-0.1,0.1-0.1c2.2-0.4,4.4-0.7,6.6-1.1c0.2,0,1-0.3,1.2-0.3c0.5-0.3,2.1-0.6,3.9-1
		c-0.3-0.1-0.6-0.2-0.8-0.2c-0.1,0-0.1,0-0.2,0.1c-0.1,0-0.3,0-0.4,0c0-0.1,0-0.1,0-0.2c-0.2,0-0.3-0.1-0.5-0.1c0,0.1,0,0.3,0,0.4
		c-1.9,0.4-3.9,0.9-5.8,1.3c-0.1-0.9-0.1-1.7-0.1-2.6c-0.2,0-0.5,0-0.7-0.1c-0.1,0.5-0.1,0.9-0.1,1.4c0,0.4,0,0.8,0.1,1.4
		c-0.3,0-0.6,0.1-0.9,0.1c0.1-0.3,0.1-1.5,0.2-2.9c-0.2,0-0.4,0-0.6,0c0,1,0,2,0,2.7c0,0.4-0.2,0.2,0.2,0.2
		c-0.8,0.1-1.6,0.2-2.5,0.4c-0.1-1.1-0.2-2.2-0.3-3.3c-0.2,0-0.5,0-0.7,0c0.1,1.1,0.2,2.1,0.4,3.2c-0.4,0.2-0.9,0.1-1.5,0.3
		c-0.1-0.7-0.2-1.1-0.2-1.7c0-0.6,0-1.2,0-1.7c-0.2,0-0.4,0-0.7,0.1c0,0.6,0,1.2,0,1.8c0,0.5,0.2,1,0.3,1.6
		c-1.9,0.2-3.5,0.6-5.7,0.8l-0.1-3c-0.2,0.1-0.4,0.1-0.5,0.2c0,0.7,0,1.4,0.1,2.2c0,0.2,0,0.4-0.1,0.6c-0.1,0-0.5,0.3-0.6,0.3
		c-0.1-0.9-0.2-1.8-0.3-2.7c-0.2,0.1-0.4,0.1-0.5,0.2c0,0.1,0,0.1,0,0.2c0,0.5,0.3,2.3,0.3,2.3s-0.5,0.2-1.4,0.3c-0.3,0-0.5,0-1,0
		c0-0.5-0.1-0.9-0.1-1.4c0-0.1,0-0.2,0-0.3c-0.2,0.1-0.5,0.3-0.7,0.5v1.4c-0.3,0-0.6,0.1-1,0.1c0-0.2,0-0.4,0-0.6
		c-0.5,0.5-1,1-1.5,1.6c2.6-0.4,5-0.9,6.8-1.1C12.1,12.6,16.2,12,17.2,11.9z M42.3,39.6c0.2,0.1,0.6,0.2,0.7,0.3
		c2.2,0.9,4.1,2,6.1,3.2c0.1-0.3,0.2-0.5,0.3-0.8c-0.9-0.5-1.7-1-2.6-1.6c-1.3-0.8-2.9-1.3-4.4-1.9c-0.4-0.2-1.1-0.2-1.6-0.3
		c0-0.5,0.1-1.2,0.1-1.7c0-5.6,0-11.3,0-16.9c0-0.5-0.1-0.9-0.2-1.6c-0.1-0.4,0-1.2,0-1.9c0.1-1.3,0.2-2.6,0.3-3.8c0,0,0-0.2,0-0.3
		c-0.5-0.3-0.9-0.6-1.4-0.9c0,0.3-0.1,0.6,0,0.7c0.5,0.7,0.4,1.4,0.3,2.1c0,1.1,0,2.1,0,3.2c0,1.5,0,3.1,0,4.6
		c0,1.8-0.2,3.5-0.2,5.2c0,3.3,0.2,6.5,0.2,9.8c0,0.5-0.1,1.1-0.1,1.7c0,0,0,0,0,0c-1.5,0.1-1.9,0.2-3.2,0.3c0,0,0,0,0,0
		c-0.2-1.2-1-1.8-1-1.9c-0.1-0.5-0.1-1-0.1-1.6c0.1-4.3-0.3-8.9-0.2-13.2c0-0.9,0.2-1.6,0.3-2.5c0,0,0,0,0,0c0.3-0.6,0.6-1.3,1.1-2
		c0.1-0.1,0-0.3-0.2-0.4c-2.6-0.5-4.9-1-7.5-1.5c0,0,0,0,0,0c-2,1.1-3.9,2.2-5.9,3.3c0,0,0,0,0,0c0.5,0.8,1.1,0.1,1.5-0.1
		c1.2-0.6,1.7-0.7,2.6-1.3c0.8-0.5,2-1.2,2-1.2c0,0,0,0,0,0c0.1,0,0.9,0.2,1.4,0.4c1.5,0.4,3.1,0.6,4.8,1c0,0,0,0,0,0
		c-0.4,0.4-0.4,0.6-0.6,0.8c0,0,0,0,0,0c-2-0.5-3.7-0.7-5.4-1.3c0,0,0,0,0,0c-0.8,0.5-1.8,0.7-2.6,1.3c-0.6,0.5-2.3,1.5-2.3,1.5
		s-0.1,0-0.1,0.1c-0.1,0.1-0.1,0.4-0.1,0.5l0,0.1c0.7-0.1,1.4-0.1,1.9-0.2c1.4-0.2,2.9-0.6,4.2-0.9c1.9-0.3,2.9-0.3,4.3-0.3
		c0,0,0,0,0,0c-0.1,0.5-0.2,0.7-0.2,1.1c0,0,0,0,0,0c-3.5,0.6-6.8,1.1-10.2,1.6c0,0,0,0,0,0c-0.3,0.9,0,14.8,0.3,16.8c0,0,0,0,0,0
		l2.4-0.4c0,0,0,0,0,0c-0.2-0.2-2.1-0.1-2.2-0.3C24.6,38.4,25,38.2,25,38c-0.3-4.8-0.2-8.6-0.2-13.1c0-0.2,0-1.1,0-1.3c0,0,0,0,0,0
		l0.8-0.1c0,0,0,0,0,0c0,0.2,0,0.4,0,0.5c0,0.8,0,2.1,0,2.9c0,0.6,0.1,1.2,0.1,1.8c0,0.3,0,2,0,2.3c-0.1,1.4-0.1,1.3-0.1,2.6
		c0,1.7,0.2,1.8,0.4,3.5c0,0.2,0.1,0.6,0.5,0.6c0-1.3,0-1.3-0.2-1.8c-0.1-0.5,0-0.9-0.1-0.9c0,0,0,0,0,0c0.2-4.1,0-7.6,0.2-11.8
		c0,0,0,0,0,0c2.1-0.4,4.2-0.7,6.6-1.1c0,0,0,0,0,0c0,0.5,0.3,0.8,0.2,1.2C33,24.7,33,25.2,33,26.6c0,1.2,0,2.1,0,2.8
		c-0.1,2,0.1,1.8,0,3.8c0,0.4,0.2,1.1,0.1,1.6c0,0,0,0,0,0c0,0,0,1.6,0,2.4c0,0,0,0,0,0c-1.1,0.3-3.7,1.2-3.6,1.2
		c1.8-0.1,2.5-0.3,4.4-0.5c0,0,0,0,0,0c0-0.3,0.1-0.6,0.1-1c0.1-2.6-0.3-4.7-0.2-7.3c0.1-2.3,0-7.2,0-7.5c0,0,0,0,0,0l0.7-0.1
		c0,0,0,0,0,0c0,0.4,0.3,10.2,0.1,14.1c0,0.6,0,1.4,0,1.7c0,0.1,0.5,0.2,0.6,0.2c0.2,0.3,0.2,0.7,0.3,1c0,0,0,0,0,0
		c-0.7,0.2-2.5,0.3-3.1,0.4c-1,0.2-2.3,0.3-3.3,0.4c-2.1,0.2-4.3,0.5-6.4,0.7c-0.4,0-0.9,0-1.4,0.1c0,0,0,0,0,0
		c0.4-1.1-0.3-1.4-0.3-1.4c0,0,0,0,0,0c0-0.1-0.2-1.5-0.2-2.1c0-2,0-4,0-5.9c0.1-2.4-0.1-4.9,0.1-7.3c0-0.7-0.2-1,0-1.9c0,0,0,0,0,0
		c0.2-0.1,0.8-1,0.8-1c0,0,0,0,0,0c-1.9-1-4.3-1.4-6.3-2.4c-0.1,0-0.8,0.3-1.1,0.5c-1.5,0.9-2.7,1.6-4.2,2.4c0,0-0.1,0-0.1,0.1
		l0.1,0.5c0.1-0.1,0.3-0.1,0.4-0.2c0.7-0.4,1.5-0.7,2.2-1c0.8-0.4,2.5-1.4,2.6-1.4c0,0,0,0,0,0c0.1,0,3.6,1.1,5.1,1.6c0,0,0,0,0,0
		c-0.2,0.2-0.5,0.4-0.5,0.5c0,0,0,0,0,0c-0.1,0-1.8-0.3-2.9-0.7c-0.4-0.1-1.5-0.5-1.6-0.5c0,0,0,0,0,0c-0.1,0-1.4,0.7-1.8,0.9
		c-0.4,0.2-3.4,1.6-3.8,1.8c0,0,0,0,0,0c0.1,0.4,0,1,0,1c0,0.1,0,0.6,0.2,0.9c0.2,0.3,0.4,0.4,0.4,0.6c0,4.6,0.3,9.2,0.3,13.9
		c0,0.3,0,0.9,0.1,1.2c0,0,0,0,0,0c0.1,0,0.3,0.1,0.4,0.1c0,0,0,0,0,0c0.1-0.2,0.5-0.7,0.6-0.9c0.1-0.5-0.5-0.8-0.5-1.3
		c0-3.9,0-7.7,0-11.6l0-1.4c0,0,0,0,0,0c0.4,0,0.6,0,0.8,0c0,0,0,0,0,0c0,1.6,0.1,3.2,0.1,4.6c0,1.8,0.2,3.7,0.1,5.5
		c0,1.3-0.2,2.6-0.2,3.8c0,0.3,0.1,0.4,0.1,0.8c0,0,0,0,0,0c0.2,0,1.5-0.1,1.5-0.1c0.2,0-1-0.6-0.8-0.5c-0.1-0.2-0.5-1.4,0-2
		c0.1-0.2,0-1.2,0-1.4c0-3.6-0.1-5.4-0.1-9c0-0.6,0-1.2,0.1-2c0,0,0,0,0,0c1.9-0.3,3.6-0.5,5.6-0.9c0,0,0,0,0,0
		c-0.1,0.8,0,1.5,0,2.3c0,2.8,0,5.7-0.1,8.5c0,1.4,0.1,2.5,0,4c0,0,0,0,0,0c-1.4,0.3-0.6,0-1.9,0.3c0,0,0,0,0,0
		c0,0.1-0.2,0.2-1.5,0.6c1.6-0.2,3.4-0.3,5.1-0.4c0.6-0.1,0.1,0,0.5,0.8c0,0,0,0,0,0c-0.1,0.2-0.3,0.5-0.3,0.5c0,0,0,0,0,0
		c-0.1,0-1.1,0.1-1.5,0.2c-1.8,0.3-3.2,0.3-5,0.5c-1.6,0.2-5.3,0.4-7.1,0.6c0,0,0,0,0,0c-0.2-5.8-0.2-11.4-0.1-17
		c0-0.6-0.1-1.1,0-1.6c0,0,0,0,0,0c0.2-0.2,0.7-0.7,1-1c0.1-0.1,0-0.4,0-0.5c0,0,0,0,0,0l-0.7-0.2c-0.5,0,0,0,0,0
		c-1.6-0.4-3.1-0.8-4.6-1.3c-0.2-0.1-0.5-0.1-0.7-0.1c-0.1,0.2-0.2,0.4-0.2,0.6c1.8,0.4,4.2,0.9,6,1.4c0,0-0.8,0-0.8,0
		c-0.4,0.3-0.5,0.5-0.8,0.7c0,0,0,0,0,0c-1.5-0.5-3.1-0.8-4.6-1.3c-0.2,0.8-0.4,1.5-0.6,2.3c0.4,0,0.7-0.1,1.1-0.1
		c1.2-0.1,2.4-0.1,3.6-0.3c0.4-0.1,0.5,0,0.7,0.1c0,0,0,0,0,0c0,0.2,0.1,0.6-0.1,0.6c-0.1,0.1-0.6,0.2-0.9,0.2
		C3.5,24.6,2,24.8,0.4,25c-0.1,0.4-0.1,0.7-0.2,1.1c1.4-0.1,3-0.3,4.4-0.4c0,1.4-0.1,2.4-0.1,3.3c0,1.1,0.1,1.3,0.1,2.3
		c0,1-0.1,2.1-0.1,3.1c0,1,0,2,0,3c0,0.9,0,1.9,0,2.9c-0.8,0.1-1.6,0.2-2.3,0.3c0.1,0.1,0.1,0.3,0.2,0.4c0.8-0.1,1.7-0.2,2.6-0.2
		c0,0,0,0,0,0c0.1-0.2,0.3-0.5,0.3-0.7c0-4.5,0.1-8.8,0-13.3c0-0.2-0.2-0.9,0-1.1c0,0,0.5,0,0.6-0.1c0,0,0,0,0,0c0,0.4,0,1.1,0,1.5
		c0,2.5,0,4.9,0,7.4c0,2,0.2,4,0.3,6c0,0.5-0.1,1,0,1.7c0,0,0,0,0,0c-0.7,0.1-1,0-1.6,0.1c-0.6,0.1-1.1,0.1-1.6,0.2
		c0.1,0.3,0.3,0.6,0.4,0.8c0.7-0.1,1.4-0.1,2-0.2c1.5-0.1,3.1-0.2,4.6-0.3c1.3-0.1,2.6-0.3,3.9-0.4c0.9-0.1,1.8-0.2,2.7-0.3
		c3.2-0.4,6.4-0.5,9.6-0.9c1.2-0.1,2.4-0.3,3.6-0.3c1.6,0,3.2-0.3,4.7-0.6c2.2-0.4,3.4-0.6,5.6-0.7c0.5,0.1,0.9,0,0.8,0.2
		c-0.3,0.2-0.4,0.6-0.8,0.7c-0.6,0.1-1.1,0.2-1.7,0.2c-2.1,0.3-4,0.5-6.2,0.7c-1.2,0.1-2.4,0.2-3.6,0.3c-1.1,0.1-2.1,0.2-3.1,0.4
		c-0.9,0.1-1.9,0.2-2.8,0.3c-2.8,0.3-5.6,0.5-8.4,0.8c-2.1,0.2-4.2,0.3-6.4,0.5c-1.3,0.1-2.7,0.2-4,0.3c0.2,0.4,0.5,0.8,0.7,1.1
		c0.5,0,1-0.1,1.4-0.1c2.6-0.3,5.1-0.6,7.7-0.8c1.9-0.1,3.7-0.3,5.6-0.5c2.3-0.2,4.6-0.5,6.8-0.8c1.4-0.1,2.8-0.1,4.2-0.3
		c2-0.2,3.9-0.4,5.9-0.6c1.3-0.1,2.8-0.3,4.2-0.4c0,0.6,0,1,0,1.4c-1,0.7-2.4,0.5-3.5,0.6c-2.6,0.3-4.9,0.3-7.6,0.5
		c-2.6,0.2-5.3,0.5-7.9,0.8c-3.4,0.4-6.8,0.5-10.2,0.5c-1.1,0-2.3,0.3-3.4,0.4c-0.2,0-0.3,0.1-0.5,0.1C6.7,45.9,6,46,5.3,46
		c0.2,0.2,0.3,0.4,0.5,0.7c0.1,0.1,0.1,0.2,0.2,0.3c1.7-0.1,3.5-0.2,5.2-0.2c0.1,0,0.2,0,0.3,0c1.8-0.2,3.6-0.4,5.5-0.5
		c1.9-0.1,3.8-0.2,5.6-0.3c0.1,0,0.2,0,0.3,0c1.8-0.2,3.6-0.4,5.3-0.5c1.7-0.1,3.5-0.1,5.2-0.3c1.4-0.1,2.8-0.4,4.2-0.5
		c0.8-0.1,1.6,0,2.7,0C40,45,40,45,40,46.4c0,1.9,0,3.8,0,5.8c0.3-0.1,0.6-0.2,0.8-0.3c0-1.3,0-2.7,0-4c0-0.5,0.2-1.7,0.1-1.7
		c0-0.7,0.1-1.6,0.1-2.3c0.3,0,0.8,0.2,1.1,0.3c1.8,0.7,3.3,1.3,5,2.1c0.1,0,0.2,0.1,0.3,0.2c0.2-0.3,0.3-0.5,0.5-0.8
		c-0.2-0.1-0.5-0.2-0.7-0.3c-1.9-0.8-3.8-1.6-5.8-2.5c0-0.8-0.2-0.8,0-1.6c2.5,1,4.8,2.2,7.1,3.3c0.1-0.2,0.2-0.4,0.3-0.6
		c-2-1-3.9-2-5.9-3c-0.2-0.1-0.7-0.3-0.9-0.5c-0.1-0.2,0.1-0.5,0.1-0.6C42.1,39.6,42.2,39.5,42.3,39.6z M10.8,24.2
		c0,0-0.1,0.1-0.2,0.1c-0.2-0.7-0.1-0.9-0.2-1.2c0.7-0.1,1.2-0.2,1.9-0.3c1.8-0.3,3.6-0.5,5.4-0.8c0.4-0.1,1.8-0.1,2.3-0.1
		c0.1,0,0,0.5,0.1,1C16.9,23.4,10.8,24.2,10.8,24.2z M20,38.7h-0.7c0-0.2-0.1-0.5-0.1-0.7c0.1-4.5,0.1-8.5,0.1-13c0-0.3-0.1-1-0.1-1
		s0.8,0,1.1-0.1C20.2,29,20.1,33.6,20,38.7z M9.5,14.6c1.1-0.1,2.2-0.5,3.3-0.7c1.8-0.3,3.7-0.5,5.5-0.8c1.5-0.2,2.9-0.7,4.3-0.9
		c4.2-0.6,8.3-1.6,12.4-2.4c0.3-0.1,0.6-0.1,0.9-0.2c-0.4-0.2-0.8-0.3-1.2-0.4c-2.4,0.5-5,1-5.5,1.1c-0.8,0.2-1.6,0.3-2.3,0.5
		c-1.6,0.3-3.1,0.6-4.7,0.9c-0.2,0-1.5,0.3-1.8,0.4c-0.7,0.1-1.9,0.4-2.6,0.5l-3.2,0.4l-0.8,0.1c-1,0.2-2,0.4-2.5,0.4
		c-2.3,0.3-4.5,0.7-6.8,1c-0.2,0.2-0.3,0.5-0.5,0.7c0.2,0,0.5-0.1,0.7-0.1C6.3,14.8,7.9,14.8,9.5,14.6z M19.8,48.8
		c0-0.1,0-0.2,0-0.4c-0.1-0.2-0.3-0.6-2.6-0.2c-0.4,0.1-1.2,0.1-1.4,0.1c-0.6,0.1-1.3,0-2,0c0-0.2,0-0.3,0-0.3l-0.4,0.1
		c0,0,0,0.1,0,0.2c-0.1,0-0.2,0-0.2,0l0,0.4c0,0,0.1,0,0.2,0c0,0.8,0.1,2.2,0.1,3.6c0.2,0.1,0.4,0.2,0.6,0.2
		c-0.1-1.3-0.1-2.7-0.1-3.5c0.6,0,1.5,0,2.1,0c0.3,0,0.7,0.1,1.1,0c0.7-0.1,1.5-0.2,1.8-0.2c0,0,0,0.2,0,0.3c0,0.2,0.2,0.8,0.2,1.2
		c0,0.3,0.1,1.8,0.1,3.6c0.2,0,0.4,0.1,0.6,0.1c0-2.2-0.1-4.2-0.1-4.5C19.8,49.1,19.8,48.9,19.8,48.8z M6.2,16.6
		c0.3,0.4,0.5,0.6,0.9,1.2c0,0,0,0,0,0c0.6-0.6,0.7-0.9,1.3-1.5c0,0,0,0,0,0c0.4-0.1,1.4-0.2,2.1-0.3c0,0,0,0,0,0
		c0.3,0.4,0.5,0.9,0.8,1.3c0,0,0,0,0,0c0.4-0.5,0.7-1.1,1.1-1.7c0,0,0,0,0,0c2.8,0.1,4.4-0.8,6.7-1c0,0,0,0,0,0
		c0.3,0.5,0.6,0.9,1,1.5c0,0,0,0,0,0c0.4-0.6,1.1-1.9,1.1-2c0,0,0,0,0,0c0.1,0,0.8-0.1,1.6-0.3c0,0,0,0,0,0c0.3,0.7,0.5,1,1,1.7
		c0,0,0,0,0,0c0.6-0.8,1.1-1.5,1.6-2c0,0,0,0,0,0c2.6-0.2,4.6-0.6,6.8-0.9c0,0,0,0,0,0c0.3,0.3,0.5,0.7,0.8,1c0,0,0,0,0,0
		c1-0.7,1.5-1.6,1.6-1.7c0,0,0,0,0,0c0.1,0,2.7-0.4,4.1-0.7c-0.3-0.2-0.7-0.4-1-0.5c-1.3,0.2-2.3,0.4-3.8,0.7
		c-1.8,0.3-4.4,0.8-6.3,1.2c-0.7,0.1-1.3,0.2-1.8,0.2c-1.9,0-2.9,0.5-4.8,0.9c-2.2,0.4-4.5,0.8-6.7,1.2c-1.6,0.3-3.2,0.5-4.8,0.8
		C8.4,15.7,7,16,5.6,16.2c-0.8,0.1-1.5,0.3-2.3,0.4C3.2,16.8,3.1,17,3,17.2C4.1,17,5.2,16.8,6.2,16.6C6.2,16.6,6.2,16.6,6.2,16.6z
		 M43.6,23.5c0,0.1,0,6.4,0,6.6c0,0.2-0.2,6.7-0.2,6.7l1.7,0.6l0.6,0.1c0.3,0,0.3-0.2,0.3-0.5l0-0.9l0-11.6c0.2,0,0.4,0,0.6,0
		c0.2,0,0-0.3-0.2-0.4c-0.2-0.1-2.9-1.5-2.9-1.5l0-1c0,0,2.8,1.5,3.1,1.7c0.3,0.2,0.4-0.6,0.4-0.6s-0.6-1.2-1-2.5
		c-0.1-0.4-0.7-1.5-0.7-1.5s-0.5,0.4-0.8,0.5c-0.2,0.1-0.8,0.6-0.8,0.6s-0.1-0.2-0.3-0.2c-0.2,0-0.3,0.4-0.3,0.4s0,0.4,0.1,0.4
		c0.2,0,0.6,0,0.9-0.2c0.3-0.2,1-0.7,1-0.7s0.3,0.6,0.3,0.7c0,0.1,0.5,1.4,0.6,1.8c0.1,0.3,0.4,0.6,0.4,0.6s-2.2-1.3-2.5-1.5
		c-0.3-0.1-0.5-0.2-0.6-0.2S43,21.5,43,21.5l0,1.7L43.6,23.5z M45.4,24.4l-0.1,12.3l-1-0.4l0-12.4L45.4,24.4z M32.8,47.2l0-0.2
		l-7,0.5l-0.1,6.8c0.2,0,0.4,0,0.6,0l0.1-6.1l5.6-0.6c0,0.4,0,2.1,0,3c0,0.3,0.1,1.6,0.1,3.2c0.2,0,0.4-0.1,0.6-0.1
		c0-1.6-0.1-2.9-0.1-3.3C32.7,49.7,32.8,47.3,32.8,47.2z M44.4,47.2C44.4,47.2,44.4,47.2,44.4,47.2c-0.3-0.2-0.8-0.4-0.8-0.4
		s-0.6,0.6-0.2,0.9c0,1,0,1.9,0,2.8c0.3-0.2,0.6-0.4,0.8-0.6v-1.1l0,0c0,0,0-0.6,0-0.6l0-0.1c0.3,0.1,1.1,0.2,1.1,0.2
		c0,0.2,0,0.3,0,0.4c0.3-0.3,0.5-0.5,0.7-0.8c0-0.1,0-0.1,0-0.1S45.1,47.7,44.4,47.2z"/>
	<g>
		<path fill="#000001" d="M133.7,48.5c-1.6,0.2-3.2,0.7-4.7,1c-1.7,0.4-3.5,0.7-5.2,1.1c0.2-1.9,0.8-3.5,1.7-5.1
			c0.9-1.7,2.1-3.3,3.2-4.9c1-1.5,2-3.1,2.6-4.9c0.4-1.1,0.8-2.7,0.5-3.8c-0.4-1.5-2.4-0.9-3.5-0.6c-2,0.5-3.9,1.2-5.9,1.7
			c-1.8,0.5-3.8,1.1-5.7,0.9c-1.3-0.1-0.4,1.9,0,2.3c0.2,0.2,0.5,0.5,0.8,0.7c0.4,0.2,0.9,0,1.3-0.1c1.1-0.2,2.2-0.4,3.3-0.7
			c2.1-0.6,4.2-1.2,6.4-1.9c-0.1,0.6-0.6,1.4-0.8,1.9c-0.5,0.9-0.9,1.8-1.4,2.8c-0.9,1.8-1.9,3.5-2.8,5.3c-0.9,1.8-1.7,3.7-2.4,5.6
			c-0.4,1.3-0.8,2.6-0.7,4c0,0.1,0,0.2,0,0.2c0,0,0,0,0,0c0,0,0,0,0,0c4.6-0.4,9.2-1.4,13.8-2c1-0.1,1.8-0.3,1.8-1.5
			C136.1,49.5,134.9,48.4,133.7,48.5z"/>
		<g>
			<path fill="#000001" d="M108.2,30.1c-0.3,0.2-2.5,0.6-2.7,0.6c-0.2,0.1-0.5,0.1-0.8,0c-0.2,0-0.3-0.1-0.5-0.3
				c-0.1-0.2-0.2-0.5-0.3-0.8c-0.1-0.3-0.1-0.6-0.2-0.9c0-0.3,0-0.5,0-0.7l4.8-1.9l0.3-10.3c0.1-0.4,0.3-0.6,0.7-0.5
				c0.4,0.1,0.9,0.2,1.4,0.3c0.1,0,0.2,0,0.3,0.1c0.1,0,0.2,0.1,0.3,0.1c-0.1,0.8-0.1,1.7-0.2,2.7c-0.1,1-0.1,1.9-0.2,2.9
				c-0.1,1-0.1,1.9-0.1,2.8c0,0.9,0,0.4,0.1,1.1l7-1.9c0.1,0,0.2,0.1,0.3,0.3c0.1,0.2,0.2,0.4,0.2,0.7c0.1,0.3,0.1,0.7,0.2,1.2
				l-8,3.3c0,0.3,0,0.9,0.1,2c0,1,0.1,3.6,0.2,5.1c0.1,1.4,0.1,3,0.2,4.6c0.1,1.6,0.1,3.2,0.2,4.6c0.1,1.4,0.2,4.1,0.2,5.2
				c0,1.1,0,1.7,0,2c-0.1,0.9-0.3,1.4-0.8,1.4c-0.5,0-1-0.2-1.6-0.7L108.2,30.1z"/>
		</g>
		<path fill="#000001" d="M145.1,14.4c-0.2-1.4-1.9-0.9-2.7-0.5c-0.1,0-0.1,0.3-0.1,0.3c0.4,4.6,0.1,9.3-0.2,13.8
			c-0.3,5-0.8,10.1-1.4,15.1c-0.3,2.6-0.7,5.2-1.4,7.7c0,0,0,0,0,0l0,0c0,0,0,0,0,0c0,0,0,0.1,0,0.2c0,1.1,0.9,1.9,2,1.9
			c0.3,0,1,0,1.2-0.3c0.2-0.4,0.2-1,0.2-1.4c0.4-3.4,0.6-6.8,0.9-10.1c0.6-7.1,1.2-14.1,1.4-21.2c0-0.9,0.1-1.9,0.1-2.8
			C145.1,16.3,145.2,15.4,145.1,14.4z"/>
		<g>
			<g>
				<path fill="#000001" d="M98.8,52.5c-0.2-0.8-0.3-1.7-0.4-2.8c-0.1-1.1-0.2-2.2-0.4-3.3c-0.1-1.1-0.3-2.2-0.5-3.2
					c-0.2-1-0.4-1.8-0.8-2.4c-1.6,3.1-3,5.6-4.3,7.3c-1.2,1.8-2.3,3.1-3.3,3.8c-0.9,0.8-1.7,1.1-2.4,1.1c-0.6,0-1.2-0.3-1.6-0.8
					c-0.4-0.5-0.7-1.2-0.9-2c-0.2-0.8-0.3-1.5-0.4-2.2c0-0.7,0.2-1.6,0.5-2.8c0.3-1.2,0.7-2.5,1.3-3.9c0.5-1.4,1.2-2.9,1.9-4.3
					c0.7-1.5,1.5-2.8,2.4-4c0.9-1.2,1.7-2.2,2.7-3c0.9-0.8,1.8-1.2,2.8-1.2c1.4-0.2,2.4,0.1,3,0.8c0.6,0.8,0.8,2,0.4,3.8
					c0,2,0.1,3.7,0.3,5.1c0.2,1.4,0.4,2.8,0.6,4c0.2,1.3,0.4,2.6,0.6,4c0.2,1.4,0.3,3.1,0.3,5.1c0,0.4,0,0.7-0.1,0.9
					c-0.1,0.3-0.5,0.4-1.2,0.4c-0.1,0-0.2-0.1-0.4-0.2C98.9,52.7,98.8,52.6,98.8,52.5z M96.3,32.5c-0.3-0.5-0.8-0.5-1.4-0.1
					c-0.6,0.4-1.2,1-1.9,1.9c-0.7,0.9-1.3,2-2,3.2c-0.7,1.3-1.3,2.5-1.9,3.8c-0.6,1.3-1.1,2.5-1.6,3.7c-0.4,1.2-0.7,2.1-0.9,2.8
					c0,1.1,0.2,1.7,0.5,1.8c0.3,0.1,0.8,0,1.3-0.5c0.5-0.5,1.1-1.2,1.7-2.1c0.6-0.9,1.3-1.9,1.9-2.9c0.6-1,1.2-2,1.8-3
					c0.6-1,1-1.7,1.3-2.3c0.3-0.6,0.5-1.2,0.7-1.8c0.2-0.5,0.3-1.1,0.4-1.5c0.1-0.5,0.2-1,0.2-1.5C96.3,33.6,96.3,33,96.3,32.5z"/>
			</g>
			<g>
				<g>
					<path fill="#000001" d="M90.5,22.1c0.4-0.5,0.8-0.8,1.1-0.9c0.3-0.2,0.7-0.3,1.2-0.3c0.8,0,1.3,0.4,1.3,1.2
						c0,0.2-0.1,0.4-0.2,0.6c-0.1,0.2-0.3,0.4-0.4,0.6c-0.2,0.2-0.4,0.4-0.6,0.5c-0.2,0.1-0.4,0.1-0.6,0C92.1,24,91.9,24,91.7,24
						c-0.2-0.1-0.4-0.2-0.6-0.4c-0.2-0.2-0.3-0.4-0.4-0.7C90.5,22.7,90.5,22.4,90.5,22.1z"/>
				</g>
				<g>
					<path fill="#000001" d="M96.7,22.1c0.5-0.5,0.9-0.8,1.2-0.9c0.3-0.2,0.7-0.3,1.2-0.3c0.8,0,1.3,0.4,1.3,1.2
						c0,0.2-0.1,0.4-0.2,0.6c-0.1,0.2-0.3,0.4-0.4,0.6c-0.2,0.2-0.4,0.4-0.6,0.5c-0.2,0.1-0.4,0.1-0.6,0C98.3,24,98.1,24,97.9,24
						c-0.3-0.1-0.5-0.2-0.7-0.4c-0.2-0.2-0.3-0.4-0.4-0.7C96.7,22.7,96.7,22.4,96.7,22.1z"/>
				</g>
			</g>
		</g>
		<g>
			<path fill="#000001" d="M69.2,32.1v-0.4c0-0.3,0.1-0.5,0.4-0.6C69.8,31,70,31,70.3,31c0.2,0,0.5,0,0.7,0.1c0.2,0,0.4,0.2,0.5,0.5
				c0.1,0.5,0.2,1.1,0.3,1.9c0.1,0.8,0.2,1.7,0.3,2.7c0.1,1,0.3,2,0.4,3.1c0.1,1.1,0.3,2.1,0.4,3.1c0.1,1,0.3-1.3,0.5-3.5
				c0.3-2.2,0.8-3.9,1.6-5.3c0.8-1.4,1.9-2.3,3.3-2.8c1.4-0.5,3.1-0.6,5.2-0.3c1,0,1.5,0.5,1.5,1.5c0,0.4-0.3,0.7-0.8,0.8
				c-0.5,0.1-6.5,0.5-7.4,4.2c-0.3,1.3-1,7.9-1.1,10c-0.1,2.1,0.1,4.2-0.3,6.4c0,0.3-0.1,0.5-0.4,0.7c-0.3,0.2-0.6,0.2-0.9,0.2
				c-0.4,0-0.7-0.1-1-0.2c-0.3-0.2-0.6-0.4-0.8-0.7L69.2,32.1z"/>
		</g>
		<path fill="#000001" d="M64.4,5.9c0.9,0.6,1.2,1.2,1,1.9C65.2,8.6,64.1,9,62,9c-3.9,1.6-7,6.9-9.3,16c-2.7,11-2.6,19.3,0.2,25
			c0.7,0.9,1.3,1.5,1.8,1.6c2.4,0.6,4.7-2.6,7-9.4l0.7-2.1c0.3-1.6,0.3-2.4,0-2.5c-1.3,0.2-3.4,0.7-6.2,1.6l-1-0.1
			c-0.6-0.1-1-0.7-1.1-1.8c0.2-0.8,1.6-1.4,4.2-1.8c2.3-0.8,4-1.1,5-0.8c2,0.5,2.7,2.2,2.3,5.2l-0.1,0.3c-2.1,8.5-5.3,13.3-9.6,14.5
			c-1-0.2-1.6-0.2-1.6-0.1c-5-1.2-7.1-7.8-6.5-19.8c0.3-3.6,0.9-6.8,1.6-9.8l0.3-1c2.5-10,6.3-16,11.4-17.9
			C62.8,5.8,63.9,5.8,64.4,5.9z"/>
	</g>
	<g>
		<path fill="#869998" d="M117.5,62.3c0.3,0.1,0.5,0.3,0.5,0.5c-0.3,3-0.4,5.2-0.3,6.6l0.1,4.1l0.2,0.7l-0.1,0.4
			c0.1,1,0.2,1.4,0.4,1.4c0.7-1.5,1.4-3.5,2.8-7.8l0-0.9l-0.3-0.4c0.2-0.6,0.5-0.9,0.8-0.9c0.5,0,0.8,0.3,1,0.9l-0.1,0.9
			c0.5,5.5,1.2,8.2,2,8.2c0.5,0,0.7-1.6,0.8-4.8l-0.1-2.3c0-1.3-0.2-3.4-0.6-6.4l0.5-0.9c0.4,0.1,0.5,0.3,0.5,0.8l0.5,8.2
			c-0.2,4.5-0.7,6.8-1.6,6.8c-1,0-1.9-2.5-2.6-7.6c-0.2,0.2-0.8,0.6-1.6,3.7c-0.9,3-1.6,4.5-2.1,4.5l-0.3,0c-0.2,0-0.5-0.2-0.6-0.5
			l-0.1,0l-0.3-5.1l0-1.6c-0.2-5.7,0.2-8.6,0.6-8.6L117.5,62.3z"/>
		<path fill="#869998" d="M129,64.4c0.3,0,0.7,0.1,1,0.5c0,0.3-0.3,0.6-0.9,1c-0.2,0-0.5-0.2-0.7-0.6
			C128.6,64.8,128.8,64.5,129,64.4z M129.3,67.9l0.4,0.5c-0.3,0.4-0.4,1.4-0.3,2.9c0.2,1.7,0.5,3.3,1.1,4.8l0,0.3l-0.4,0.4l-0.4,0
			c-0.4,0-1.1-2-1.6-6.1c-0.1-1.8,0.2-2.8,0.8-2.8L129.3,67.9z"/>
		<path fill="#869998" d="M134,65.2c1.5,0.2,2.2,0.8,2.4,1.8l0.1,0.4c0.3,2-0.4,3.4-2.1,4.4l-0.9,0.1l0,0.3c0.2,1.6,0.8,2.6,1.6,3.1
			l0.4-0.1c0.5-0.1,1.1-0.9,1.8-2.4l0.1,0.1l0.1,0c-0.3,2.1-1.1,3.2-2.2,3.4c-1,0.1-2.1-1.5-3.3-5c-0.1,0-0.3-0.2-0.3-0.6
			c0.3-0.3-0.1-1.4,0.5-3.5C132.8,66,133.4,65.3,134,65.2z M133.1,70.3c0.1,0.4,0.3,0.6,0.5,0.6l0.8-0.1c1-0.6,1.4-1.7,1.1-3.2
			l0-0.1c-0.3-0.8-0.7-1.2-1.4-1.1C133.1,66.4,132.8,67.7,133.1,70.3z"/>
		<path fill="#869998" d="M140.6,62.8l0.1,0c1-0.3,2.1,0.5,3.6,4.4l0.8,2.3l0.7,1.5c0,0,0,0.1,0,0.1l0,0.4c0,0.1,0,0.1,0,0.2
			l0.4,0.8c0.1,0.2,0,0.3-0.1,0.5l0,0c-0.1,0.1-0.2,0.2-0.4,0.1c-0.3-0.1-0.7-0.5-0.8-0.9l-1.4-4.1c-1-2.9-1.8-3.8-2.4-3.9l-0.4,0.2
			c-0.7,0.8-0.7,2.2,0.1,5.5l1.1,3.1l0.3,0.5c0,0.6-0.1,0.9-0.3,0.9c-0.4,0.1-0.7,0.1-0.9-0.3l-0.9-3l-2.3-5.5l-0.2-0.7l0.3-0.7
			c0.4,0,0.6,0.1,0.6,0.2l0.5,1.9l0.2,0.1C139.2,66.3,138.8,64.1,140.6,62.8z"/>
	</g>
	<g>
		<g>
			<path fill="#000001" d="M71.3,0.5c0-0.2,0.1-0.3,0.2-0.4C71.6,0,71.8,0,71.9,0c0.3,0,0.5,0.1,0.6,0.4c0.1,0.2,0.1,0.5,0.1,0.8
				c-0.1,0.2-0.2,0.3-0.4,0.4c-0.2,0.1-0.3,0.1-0.5,0c-0.2,0-0.3-0.2-0.4-0.3C71.3,1,71.2,0.8,71.3,0.5z M70.9,17.7
				c0.1-1.1,0.1-2.2,0.1-3.4c0-1.2,0-2.4,0.1-3.7c0-1.2,0.1-2.4,0.1-3.6c0.1-1.2,0.2-2.3,0.4-3.3c0,0,0.1,0,0.2,0c0.1,0,0.2,0,0.3,0
				c0.2,0,0.4,0.1,0.6,0.1c0.1,0.1,0.2,0.2,0.2,0.5c0,1-0.1,2.1-0.2,3.2c-0.1,1.2-0.1,2.3-0.2,3.5c-0.1,1.2-0.1,2.4-0.2,3.5
				c-0.1,1.2-0.1,2.2-0.1,3.2c0,0.3-0.1,0.5-0.2,0.6c-0.1,0.1-0.3,0.1-0.5,0.1c-0.2,0-0.4-0.1-0.5-0.2C70.9,18.1,70.9,18,70.9,17.7z
				"/>
		</g>
		<g>
			<path fill="#000001" d="M74.4,17.6c0-0.5,0.1-0.9,0.1-1.7c0-0.8,0.1-1.3,0.1-2.2c0-0.9,0.1-1.9,0.1-3c0-1,0.1-2,0.1-2.9
				c0-1.2-0.1-1.9-0.1-2.4c0-0.3,0.1-0.5,0.3-0.6c0.2,0,0.3-0.1,0.6,0c0,0,0.1,0,0.2,0c0.1,0,0.2,0,0.2,0c0.1,0.5,0.2,1.2,0.1,2
				c0,0.8-0.2,2.5-0.2,3.5s-0.1,2-0.1,2.9c0.3-1.3,0.6-2.4,0.8-3.2c0.2-0.9,0.4-1.5,0.6-2.1c0.2-0.5,0.3-0.9,0.5-1.1
				c0.1-0.2,0.3-0.4,0.5-0.5c0.2-0.1,0.3-0.1,0.5-0.1c0.2,0,0.4,0,0.7,0.1c0.3,0,0.5,0.2,0.7,0.4c0.2,0.2,0.3,0.6,0.4,0.9
				c0.1,0.4,0.1,0.8,0.2,1.2c0,0.4,0,0.9,0.1,1.3c0,0.4,0,0.8,0.1,1.1c0,0.3,0.1,0.6,0.2,0.7c0.5-1.2,0.9-2.2,1.3-2.9
				c0.4-0.8,0.7-1.4,0.9-1.8c0.3-0.4,0.5-0.8,0.7-0.9c0.2-0.2,0.3-0.3,0.5-0.3c0.1,0,0.3,0,0.4,0c0.1,0,0.2,0.1,0.3,0.1
				c0.5,0,0.8,0.3,1,0.8c0.2,0.8,0.3,1.5,0.4,2.2s0.1,1.3,0,2c0,0.6-0.1,1.2-0.1,1.8c-0.1,0.6-0.1,1.1-0.1,1.7
				c0,0.5,0.1,1.1,0.2,1.6c0.1,0.5,0.3,1.1,0.6,1.6c-0.2,0.3-0.3,0.4-0.4,0.5c-0.1,0.1-0.3,0.1-0.6,0.1c-0.2,0-0.4-0.1-0.5-0.3
				c-0.1-0.2-0.3-0.3-0.3-0.6c-0.1-0.2-0.1-0.4-0.2-0.7c0-0.2-0.1-0.4-0.1-0.6c0.1-2.4,0.1-4.2,0.1-5.5c0-1.3-0.2-2-0.5-2.1
				c-0.3-0.1-0.7,0.4-1.2,1.6c-0.5,1.1-1.2,2.9-2.1,5.4c-0.1,0.1-0.1,0.1-0.2,0.1c-0.1,0-0.2,0-0.3,0c-0.1,0-0.2,0.1-0.3,0
				c-0.1,0-0.3-0.1-0.4-0.1c-0.2-2.5-0.4-4.3-0.6-5.4S79.1,8.8,78.8,9c-0.3,0.2-0.7,1.1-1.2,2.6c-0.5,1.5-1.1,3.3-1.8,6
				c0,0-0.4,0.3-0.8,0.3C74.6,17.9,74.4,17.6,74.4,17.6z"/>
		</g>
	</g>
</g>
</svg>
