<?xml version="1.0" encoding="utf-8"?>
<!-- Generator: Adobe Illustrator 19.0.1, SVG Export Plug-In . SVG Version: 6.00 Build 0)  -->
<svg version="1.1" id="Layer_1" xmlns="http://www.w3.org/2000/svg" xmlns:xlink="http://www.w3.org/1999/xlink" x="0px" y="0px"
	 width="202.8px" height="34.7px" viewBox="-378 263.3 202.8 34.7" style="enable-background:new -378 263.3 202.8 34.7;"
	 xml:space="preserve">
<style type="text/css">
	.st0{fill:#FFFFFF;}
	.st1{fill:#DEEAE6;}
</style>
<g>
	<path id="XMLID_1_" class="st0" d="M-378.5,263c4.2,10,9.6,20.1,13.4,25.7c3.5,5.1,11.3,9.3,19.8,9.3h137.4
		c8.5,0,16.4-4.2,19.8-9.3c3.8-5.6,9.2-15.7,13.4-25.7"/>
	<path class="st1" d="M-207.9,298h-137.4c-8.1,0-16.4-3.9-20.2-9.5c-3.5-5.2-7.8-13.7-12.4-24.8l0.9-0.4c4.6,11,8.9,19.5,12.4,24.6
		c3.7,5.3,11.6,9.1,19.4,9.1h137.4c7.8,0,15.8-3.7,19.4-9.1c3.5-5.1,7.7-13.6,12.4-24.6l0.9,0.4c-4.6,11.1-9,19.6-12.4,24.8
		C-191.4,294.1-199.7,298-207.9,298z"/>
</g>
</svg>
