<?xml version="1.0" encoding="utf-8"?>
<!-- Generator: Adobe Illustrator 18.1.1, SVG Export Plug-In . SVG Version: 6.00 Build 0)  -->
<svg version="1.1" id="Layer_1" xmlns="http://www.w3.org/2000/svg" xmlns:xlink="http://www.w3.org/1999/xlink" x="0px" y="0px"
	 viewBox="0 0 121.9 65.1" enable-background="new 0 0 121.9 65.1" xml:space="preserve">
<g>
	<path fill-rule="evenodd" clip-rule="evenodd" fill="#93CFC6" d="M7.4,8.7c4.4-2.5,12.9-3.7,21-1.2c8.9,2.7,12.3,9.7,13.2,16.8
		c1.3,9.9-1.6,15.5-5.9,18c-5.7,3.4-24.2,5.7-31-3.4C-4.4,26.5,1.5,12.1,7.4,8.7z"/>
	<path fill-rule="evenodd" clip-rule="evenodd" fill="#FFFFFF" d="M14.4,10c0.5,0,1.5-0.2,2.4-0.4c0.1,0,0.2,0,0.3,0
		c0.6-0.1,1-0.2,1-0.2l0,0c0,0,0.1,0,0.1,0C20,9,21.8,8.7,23.6,8.4c0.2,0,0.8-0.2,1-0.2C25,8,26.4,7.7,27.9,7.4
		c-0.2-0.1-0.5-0.1-0.7-0.2c-0.1,0-0.1,0-0.2,0.1c-0.1,0-0.2,0-0.4,0c0-0.1,0-0.1,0-0.2C26.5,7,26.4,7,26.2,7c0,0.1,0,0.2,0,0.3
		c-1.6,0.3-3.3,0.7-4.8,1.1c0-0.7-0.1-1.4-0.1-2.2c-0.2,0-0.4,0-0.6,0c0,0.4-0.1,0.8-0.1,1.1c0,0.4,0,0.7,0.1,1.1
		c-0.2,0-0.5,0.1-0.7,0.1c0.1-0.3,0.1-1.2,0.1-2.4c-0.2,0-0.3,0-0.5,0c0,0.8,0,1.6,0,2.3c0,0.3-0.2,0.2,0.2,0.2
		c-0.7,0.1-1.4,0.2-2.1,0.3c-0.1-0.9-0.2-1.8-0.3-2.7c-0.2,0-0.4,0-0.6,0C17,7.1,17.1,8,17.2,8.9C16.8,9,16.4,9,16,9.2
		c-0.1-0.6-0.2-0.9-0.2-1.4c0-0.5,0-1,0-1.4c-0.2,0-0.4,0-0.6,0.1c0,0.5,0,1,0,1.5c0,0.4,0.1,0.9,0.2,1.4c-1.5,0.2-2.9,0.5-4.7,0.6
		l0-2.5c-0.1,0-0.3,0.1-0.5,0.1c0,0.6,0,1.2,0,1.8c0,0.2,0,0.3-0.1,0.5c-0.1,0-0.4,0.2-0.5,0.2C9.6,9.3,9.5,8.5,9.4,7.8
		C9.3,7.8,9.1,7.9,9,7.9C9,8,9,8.1,9,8.1C9,8.5,9.2,10,9.2,10s-0.4,0.2-1.2,0.2c-0.3,0-0.5,0-0.9,0c0-0.4-0.1-0.8-0.1-1.2
		c0-0.1,0-0.1,0-0.2C7,9,6.8,9.1,6.6,9.2v1.1c-0.2,0-0.5,0.1-0.9,0.1c0-0.2,0-0.3,0-0.5c-0.4,0.4-0.8,0.9-1.2,1.4
		c2.1-0.4,4.2-0.7,5.7-0.9C10.1,10.5,13.5,10,14.4,10z M35.2,33c0.1,0,0.5,0.2,0.5,0.2c1.8,0.8,3.4,1.7,5.1,2.6
		c0.1-0.2,0.1-0.4,0.2-0.7c-0.7-0.4-1.4-0.8-2.2-1.3c-1.1-0.7-2.4-1.1-3.6-1.6c-0.3-0.1-0.9-0.1-1.3-0.3c0-0.4,0.1-1,0.1-1.4
		c0-4.7,0-9.4,0-14.1c0-0.4-0.1-0.8-0.2-1.3c-0.1-0.3,0-1,0-1.6c0-1.1,0.1-2.1,0.2-3.2c0,0,0-0.1,0-0.3c-0.4-0.3-0.8-0.5-1.2-0.8
		c0,0.3-0.1,0.5,0,0.6c0.5,0.5,0.3,1.2,0.3,1.7c0,0.9,0,1.8,0,2.7c0,1.3,0,2.6,0,3.9c0,1.5-0.2,2.9-0.2,4.4c0,2.7,0.1,5.4,0.2,8.1
		c0,0.4-0.1,0.9-0.1,1.4c0,0,0,0,0,0c-1.3,0.1-1.6,0.2-2.7,0.3c0,0,0,0,0,0c-0.1-1-0.9-1.5-0.9-1.5c-0.1-0.4-0.1-0.9-0.1-1.3
		c0.1-3.6-0.2-7.4-0.1-11c0-0.7,0.2-1.3,0.3-2.1c0,0,0,0,0,0c0.2-0.5,0.5-1.1,0.9-1.7c0.1-0.1,0-0.3-0.1-0.3
		c-2.2-0.4-4.1-0.8-6.2-1.3c0,0,0,0,0,0c-1.6,0.9-3.3,1.8-4.9,2.7c0,0,0,0,0,0c0.4,0.7,0.9,0.1,1.2,0c1-0.5,1.4-0.6,2.2-1.1
		c0.6-0.4,1.6-1,1.7-1c0,0,0,0,0,0c0,0,0.8,0.2,1.2,0.3c1.3,0.3,2.6,0.5,4,0.8c0,0,0,0,0,0c-0.3,0.3-0.3,0.5-0.5,0.7c0,0,0,0,0,0
		c-1.7-0.4-3-0.6-4.5-1.1c0,0,0,0,0,0c-0.7,0.4-1.5,0.6-2.2,1.1c-0.5,0.4-1.9,1.3-1.9,1.3s0,0-0.1,0.1c-0.1,0.1-0.1,0.4-0.1,0.5
		l0,0.1c0.6-0.1,1.2-0.1,1.6-0.2c1.2-0.2,2.4-0.5,3.5-0.7c1.6-0.3,2.4-0.2,3.6-0.3c0,0,0,0,0,0c-0.1,0.4-0.2,0.6-0.2,0.9
		c0,0,0,0,0,0c-2.9,0.5-5.7,0.9-8.5,1.4c0,0,0,0,0,0c-0.2,0.7,0,12.3,0.3,14c0,0,0,0,0,0l2-0.3c0,0,0,0,0,0
		c-0.1-0.2-1.8-0.1-1.8-0.2c-0.1-0.2,0.3-0.3,0.3-0.5c-0.2-4-0.2-7.2-0.2-10.9c0-0.1,0-0.9,0-1.1c0,0,0,0,0,0l0.7-0.1c0,0,0,0,0,0
		c0,0.1,0,0.3,0,0.4c0,0.7,0,1.8,0,2.4c0,0.5,0.1,1,0.1,1.5c0,0.3,0,1.7,0,1.9c-0.1,1.1-0.1,1-0.1,2.2c0,1.5,0.2,1.5,0.3,3
		c0,0.2,0.1,0.5,0.4,0.5c0-1.1,0-1.1-0.1-1.5c-0.1-0.4,0-0.7-0.1-0.8c0,0,0,0,0,0c0.1-3.4,0-6.4,0.1-9.8c0,0,0,0,0,0
		c1.7-0.3,3.5-0.5,5.5-0.9c0,0,0,0,0,0c0,0.4,0.2,0.6,0.2,1c-0.1,1.1-0.1,1.5-0.1,2.7c0,1,0,1.8,0,2.3c-0.1,1.7,0.1,1.5,0,3.1
		c0,0.3,0.2,0.9,0.1,1.3c0,0,0,0,0,0c0,0,0,1.3,0,2c0,0,0,0,0,0c-0.9,0.3-3.1,1-3,1c1.5-0.1,2-0.2,3.6-0.4c0,0,0,0,0,0
		c0-0.2,0.1-0.5,0.1-0.8c0.1-2.1-0.2-3.9-0.1-6c0.1-1.9,0-6,0-6.2c0,0,0,0,0,0l0.6-0.1c0,0,0,0,0,0c0,0.4,0.2,8.5,0.1,11.7
		c0,0.5,0,1.2,0,1.4c0,0.1,0.4,0.1,0.5,0.2c0.2,0.2,0.2,0.5,0.3,0.9c0,0,0,0,0,0c-0.6,0.2-2,0.2-2.6,0.3c-0.8,0.1-1.9,0.2-2.7,0.3
		c-1.7,0.1-3.6,0.4-5.3,0.6c-0.4,0-0.7,0-1.2,0.1c0,0,0,0,0,0c0.3-0.9-0.2-1.2-0.3-1.2c0,0,0,0,0,0c0-0.1-0.2-1.3-0.2-1.8
		c0-1.6,0-3.3,0-4.9c0-2-0.1-4.1,0-6.1c0-0.6-0.2-0.8,0-1.6c0,0,0,0,0,0c0.2-0.1,0.7-0.8,0.7-0.8c0,0,0,0,0,0
		c-1.6-0.9-3.6-1.1-5.3-2c-0.1,0-0.6,0.2-0.9,0.4c-1.2,0.7-2.2,1.3-3.5,2c0,0-0.1,0-0.1,0.1l0.1,0.4c0.1-0.1,0.2-0.1,0.3-0.2
		c0.6-0.3,1.2-0.6,1.8-0.8c0.7-0.3,2.1-1.2,2.2-1.2c0,0,0,0,0,0c0.1,0,3,1,4.3,1.4c0,0,0,0,0,0c-0.2,0.2-0.4,0.4-0.4,0.4
		c0,0,0,0,0,0c-0.1,0-1.5-0.3-2.4-0.6c-0.3-0.1-1.3-0.4-1.3-0.5c0,0,0,0,0,0c-0.1,0-1.1,0.6-1.5,0.8C11,17.7,8.5,18.9,8.1,19
		c0,0,0,0,0,0c0.1,0.4,0,0.8,0,0.9c0,0.1,0,0.5,0.2,0.7c0.2,0.3,0.4,0.3,0.4,0.5c0,3.8,0.2,7.7,0.2,11.6c0,0.3,0,0.8,0.1,1
		c0,0,0,0,0,0c0.1,0,0.3,0.1,0.3,0.1c0,0,0,0,0,0c0.1-0.2,0.4-0.6,0.5-0.8c0-0.4-0.4-0.7-0.4-1.1c0-3.2,0-6.4,0-9.7l0-1.2
		c0,0,0,0,0,0c0.3,0,0.5,0,0.7,0c0,0,0,0,0,0c0,1.3,0.1,2.6,0.1,3.9c0,1.5,0.2,3.1,0.1,4.6c0,1.1-0.1,2.1-0.2,3.2
		c0,0.3,0.1,0.3,0.1,0.7c0,0,0,0,0,0c0.2,0,1.3-0.1,1.3-0.1c0.2,0-0.9-0.5-0.7-0.5c-0.1-0.1-0.4-1.1,0-1.7c0.1-0.1,0-1,0-1.2
		c0-3-0.1-4.5-0.1-7.5c0-0.5,0-1,0.1-1.7c0,0,0,0,0,0c1.6-0.3,3-0.4,4.7-0.7c0,0,0,0,0,0c-0.1,0.7,0,1.3,0,1.9c0,2.4,0,4.7,0,7.1
		c0,1.2,0.1,2.1,0,3.3c0,0,0,0,0,0c-1.2,0.3-0.5,0-1.6,0.2c0,0,0,0,0,0c0,0-0.2,0.1-1.3,0.5c1.4-0.2,2.9-0.2,4.2-0.4
		c0.5,0,0.1,0,0.4,0.7c0,0,0,0,0,0c0,0.2-0.2,0.4-0.2,0.4c0,0,0,0,0,0c-0.1,0-0.9,0.1-1.3,0.2c-1.5,0.3-2.6,0.3-4.2,0.4
		c-1.3,0.1-4.4,0.4-5.9,0.5c0,0,0,0,0,0c-0.2-4.9-0.2-9.5-0.1-14.2c0-0.5-0.1-0.9,0-1.3c0,0,0,0,0,0c0.1-0.2,0.6-0.6,0.8-0.9
		c0.1-0.1,0-0.3,0-0.4c0,0,0,0,0,0l-0.6-0.2c-0.4,0,0,0,0,0c-1.3-0.3-2.5-0.7-3.8-1.1c-0.2-0.1-0.4-0.1-0.6-0.1
		c-0.1,0.2-0.1,0.4-0.2,0.5c1.5,0.4,3.5,0.7,5,1.2c0,0-0.7,0-0.7,0c-0.3,0.2-0.4,0.4-0.6,0.6c0,0,0,0,0,0c-1.3-0.4-2.6-0.7-3.9-1.1
		c-0.2,0.6-0.4,1.3-0.5,1.9c0.3,0,0.6,0,0.9-0.1c1-0.1,2-0.1,3-0.2c0.4-0.1,0.4,0,0.6,0.1c0,0,0,0,0,0c0,0.2,0,0.5-0.1,0.5
		c-0.1,0.1-0.5,0.1-0.8,0.2c-1.3,0.1-2.6,0.3-3.8,0.4c-0.1,0.3-0.1,0.6-0.1,0.9c1.2-0.1,2.5-0.2,3.6-0.3c0,1.2-0.1,2-0.1,2.7
		c0,1,0.1,1.1,0.1,1.9c0,0.9-0.1,1.7-0.1,2.6c0,0.8,0,1.6,0,2.5c0,0.8,0,1.6,0,2.4c-0.7,0.1-1.3,0.1-2,0.2c0,0.1,0.1,0.2,0.1,0.3
		c0.7-0.1,1.4-0.2,2.2-0.2c0,0,0,0,0,0c0.1-0.1,0.2-0.4,0.2-0.6c0-3.8,0.1-7.4,0-11.1c0-0.2-0.2-0.7,0-0.9c0,0,0.4,0,0.5-0.1
		c0,0,0,0,0,0c0,0.3,0,0.9,0,1.2c0,2,0,4.1,0,6.1c0,1.7,0.1,3.3,0.2,5c0,0.4-0.1,0.9,0,1.4c0,0,0,0,0,0c-0.6,0.1-0.8,0-1.3,0.1
		c-0.5,0.1-0.9,0.1-1.3,0.2c0.1,0.2,0.2,0.5,0.4,0.7c0.6-0.1,1.1-0.1,1.7-0.2c1.3-0.1,2.5-0.1,3.8-0.2c1.1-0.1,2.2-0.2,3.3-0.4
		c0.7-0.1,1.5-0.2,2.2-0.3c2.7-0.3,5.3-0.4,8-0.7c1-0.1,2-0.2,3-0.2c1.4,0,2.6-0.3,4-0.5c1.8-0.3,2.8-0.5,4.7-0.6
		c0.4,0.1,0.7,0,0.6,0.2c-0.2,0.2-0.3,0.5-0.7,0.6c-0.5,0.1-0.9,0.1-1.4,0.2c-1.8,0.2-3.3,0.4-5.1,0.6c-1,0.1-2,0.1-3,0.2
		c-0.9,0.1-1.7,0.2-2.6,0.3c-0.8,0.1-1.5,0.2-2.3,0.3c-2.3,0.2-4.7,0.4-7,0.7c-1.8,0.2-3.5,0.3-5.3,0.4c-1.1,0.1-2.2,0.2-3.4,0.3
		c0.2,0.3,0.4,0.6,0.6,0.9c0.4,0,0.8-0.1,1.2-0.1c2.1-0.3,4.3-0.5,6.5-0.6c1.6-0.1,3.1-0.3,4.7-0.4c1.9-0.2,3.8-0.4,5.7-0.6
		c1.2-0.1,2.3-0.1,3.5-0.2c1.7-0.2,3.2-0.3,4.9-0.5c1.1-0.1,2.3-0.3,3.5-0.3c0,0.5,0,0.9,0,1.2c-0.8,0.6-2,0.4-2.9,0.5
		c-2.2,0.2-4.1,0.2-6.3,0.4c-2.2,0.2-4.4,0.4-6.6,0.6c-2.8,0.3-5.7,0.4-8.5,0.4c-0.9,0-1.9,0.2-2.8,0.3c-0.1,0-0.3,0.1-0.4,0.1
		c-0.6,0-1.2,0.1-1.8,0.1c0.1,0.2,0.2,0.4,0.4,0.5c0.1,0.1,0.1,0.1,0.2,0.2c1.5-0.1,2.9-0.1,4.4-0.2c0.1,0,0.1,0,0.2,0
		c1.5-0.1,3-0.3,4.6-0.4c1.6-0.1,3.1-0.2,4.7-0.2c0.1,0,0.1,0,0.2,0c1.5-0.1,3-0.3,4.4-0.4c1.5-0.1,2.9-0.1,4.4-0.2
		c1.2-0.1,2.3-0.3,3.5-0.4c0.7-0.1,1.3,0,2.2,0c-0.2,0.3-0.1,0.3-0.2,1.4c0,1.6,0,3.2,0,4.8c0.2-0.1,0.5-0.2,0.7-0.3
		c0-1.1,0-2.2,0-3.3c0-0.4,0.1-1.4,0.1-1.4c0-0.6,0.1-1.3,0.1-1.9c0.2,0,0.7,0.2,0.9,0.2c1.5,0.6,2.8,1.1,4.2,1.8
		c0.1,0,0.2,0.1,0.3,0.1c0.1-0.2,0.3-0.5,0.4-0.7c-0.2-0.1-0.4-0.2-0.6-0.3c-1.6-0.7-3.1-1.4-4.9-2.1c0-0.7-0.1-0.7,0-1.4
		c2,0.9,4,1.8,5.9,2.8c0.1-0.2,0.1-0.3,0.2-0.5c-1.6-0.8-3.3-1.7-4.9-2.5c-0.1-0.1-0.6-0.3-0.7-0.4c-0.1-0.2,0.1-0.4,0.1-0.5
		C35.1,33,35.1,32.9,35.2,33z M9,20.1c0,0-0.1,0-0.1,0.1c-0.2-0.6-0.1-0.7-0.1-1c0.6-0.1,1-0.2,1.6-0.3c1.5-0.2,3-0.4,4.5-0.6
		c0.3,0,1.5-0.1,1.9-0.1c0.1,0,0,0.4,0,0.8C14.1,19.5,9,20.1,9,20.1z M16.7,32.2h-0.6c0-0.2-0.1-0.4-0.1-0.6c0.1-3.7,0-7.1,0.1-10.8
		c0-0.3-0.1-0.8-0.1-0.8s0.6,0,0.9-0.1C16.8,24.2,16.8,28,16.7,32.2z M7.9,12.2c0.9-0.1,1.8-0.4,2.7-0.6c1.5-0.2,3.1-0.4,4.6-0.7
		c1.2-0.2,2.4-0.6,3.6-0.7c3.5-0.5,6.9-1.4,10.3-2c0.3,0,0.5-0.1,0.8-0.1c-0.3-0.1-0.7-0.2-1-0.3c-2,0.4-4.2,0.9-4.6,0.9
		c-0.6,0.2-1.3,0.3-1.9,0.4c-1.3,0.3-2.6,0.5-3.9,0.8c-0.2,0-1.2,0.3-1.5,0.3c-0.6,0.1-1.6,0.4-2.2,0.4l-2.7,0.4L11.5,11
		c-0.8,0.2-1.7,0.3-2,0.4c-1.9,0.3-3.8,0.6-5.6,0.8c-0.1,0.2-0.3,0.4-0.4,0.6c0.2,0,0.4-0.1,0.6-0.1C5.2,12.4,6.6,12.4,7.9,12.2z
		 M16.5,40.7c0-0.1,0-0.2,0-0.3c-0.1-0.2-0.2-0.5-2.2-0.2c-0.4,0.1-1,0.1-1.2,0.1c-0.5,0.1-1.1,0-1.6,0c0-0.1,0-0.2,0-0.3l-0.3,0
		c0,0,0,0.1,0,0.2c-0.1,0-0.2,0-0.2,0l0,0.3c0,0,0.1,0,0.2,0c0,0.7,0,1.8,0.1,3c0.2,0.1,0.3,0.1,0.5,0.2c0-1.1-0.1-2.2-0.1-2.9
		c0.5,0,1.3,0,1.8,0c0.2,0,0.6,0.1,1,0c0.6-0.1,1.2-0.2,1.5-0.2c0,0,0,0.2,0,0.2c0,0.1,0.1,0.6,0.2,1c0,0.2,0.1,1.5,0.1,3
		c0.2,0,0.3,0,0.5,0.1c0-1.9-0.1-3.5-0.1-3.7C16.5,40.9,16.5,40.8,16.5,40.7z M5.2,13.8c0.2,0.3,0.4,0.5,0.7,1c0,0,0,0,0,0
		C6.4,14.3,6.6,14,7,13.5c0,0,0,0,0,0c0.4-0.1,1.2-0.1,1.8-0.3c0,0,0,0,0,0C9,13.6,9.2,14,9.4,14.4c0,0,0,0,0,0
		c0.3-0.4,0.6-1,0.9-1.4c0,0,0,0,0,0c2.3,0,3.7-0.7,5.6-0.9c0,0,0,0,0,0c0.2,0.4,0.5,0.8,0.8,1.3c0,0,0,0,0,0c0.3-0.5,0.9-1.6,1-1.6
		c0,0,0,0,0,0c0.1,0,0.7-0.1,1.3-0.3c0,0,0,0,0,0c0.3,0.5,0.4,0.9,0.8,1.4c0,0,0,0,0,0c0.5-0.7,1-1.2,1.3-1.7c0,0,0,0,0,0
		c2.2-0.2,3.8-0.5,5.7-0.8c0,0,0,0,0,0c0.2,0.3,0.4,0.6,0.7,0.9c0,0,0,0,0,0c0.8-0.6,1.3-1.3,1.3-1.4c0,0,0,0,0,0
		c0.1,0,2.3-0.4,3.5-0.5c-0.3-0.2-0.5-0.3-0.8-0.5c-1.1,0.2-1.9,0.4-3.1,0.5c-1.5,0.2-3.6,0.7-5.3,1c-0.5,0.1-1.1,0.2-1.5,0.2
		c-1.6,0-2.4,0.4-4,0.7c-1.9,0.4-3.7,0.7-5.6,1c-1.3,0.2-2.6,0.4-4,0.7c-1.1,0.2-2.3,0.4-3.4,0.6c-0.6,0.1-1.3,0.2-1.9,0.3
		c-0.1,0.2-0.2,0.3-0.3,0.5C3.4,14.2,4.3,14,5.2,13.8C5.2,13.8,5.2,13.8,5.2,13.8z M36.3,19.6c0,0.1,0,5.4,0,5.5
		c0,0.1-0.1,5.6-0.1,5.6l1.4,0.5l0.5,0.1c0.2,0,0.2-0.2,0.2-0.4l0-0.8l0-9.7c0.2,0,0.4,0,0.5,0c0.1,0,0-0.3-0.2-0.3
		c-0.2-0.1-2.4-1.2-2.4-1.2l0-0.8c0,0,2.4,1.3,2.6,1.4c0.2,0.1,0.4-0.5,0.4-0.5s-0.5-1-0.8-2.1c-0.1-0.3-0.6-1.3-0.6-1.3
		s-0.4,0.3-0.7,0.4c-0.2,0.1-0.6,0.5-0.6,0.5s-0.1-0.1-0.3-0.1c-0.2,0-0.2,0.3-0.2,0.3s0,0.4,0.1,0.4c0.2,0,0.5,0,0.7-0.2
		c0.2-0.2,0.8-0.6,0.8-0.6s0.2,0.5,0.2,0.6c0,0.1,0.4,1.2,0.5,1.5c0.1,0.3,0.3,0.5,0.3,0.5s-1.9-1.1-2.1-1.2
		c-0.2-0.1-0.4-0.2-0.5-0.1s-0.3,0.3-0.3,0.3l0,1.4L36.3,19.6z M37.9,20.3l0,10.2l-0.9-0.4l0-10.4L37.9,20.3z M27.3,39.4l0-0.2
		l-5.8,0.5l-0.1,5.7c0.2,0,0.3,0,0.5,0l0.1-5l4.7-0.5c0,0.4,0,1.8,0,2.5c0,0.3,0.1,1.4,0.1,2.7c0.2,0,0.4,0,0.5-0.1
		c0-1.3-0.1-2.4-0.1-2.7C27.3,41.4,27.3,39.4,27.3,39.4z M37,39.4C37,39.4,37,39.4,37,39.4c-0.2-0.1-0.6-0.3-0.6-0.3
		s-0.5,0.5-0.2,0.7c0,0.8,0,1.6,0,2.3c0.2-0.2,0.5-0.3,0.7-0.5v-0.9l0,0c0,0,0-0.5,0-0.5l0-0.1c0.3,0.1,0.9,0.2,0.9,0.2
		c0,0.1,0,0.2,0,0.4c0.2-0.2,0.4-0.4,0.6-0.7c0-0.1,0-0.1,0-0.1S37.6,39.7,37,39.4z"/>
	<g>
		<path fill="#000001" d="M111.4,40.4c-1.3,0.2-2.6,0.6-3.9,0.8c-1.4,0.3-2.9,0.6-4.3,0.9c0.1-1.5,0.6-2.9,1.4-4.3
			c0.8-1.4,1.8-2.7,2.7-4.1c0.9-1.3,1.7-2.6,2.2-4.1c0.3-0.9,0.7-2.2,0.4-3.2c-0.4-1.3-2-0.7-2.9-0.5c-1.6,0.4-3.2,1-4.9,1.4
			c-1.5,0.4-3.2,0.9-4.7,0.7c-1.1-0.1-0.3,1.6,0,1.9c0.2,0.2,0.4,0.4,0.7,0.6c0.3,0.1,0.8,0,1.1-0.1c0.9-0.2,1.8-0.4,2.7-0.6
			c1.8-0.5,3.5-1,5.3-1.6c-0.1,0.5-0.5,1.2-0.7,1.6c-0.4,0.8-0.8,1.5-1.2,2.3c-0.8,1.5-1.6,2.9-2.3,4.4c-0.8,1.5-1.4,3.1-2,4.7
			c-0.4,1.1-0.7,2.2-0.6,3.3c0,0.1,0,0.2,0,0.2c0,0,0,0,0,0c0,0,0,0,0,0c3.9-0.3,7.7-1.2,11.5-1.6c0.8-0.1,1.5-0.3,1.5-1.2
			C113.4,41.2,112.5,40.3,111.4,40.4z"/>
		<g>
			<path fill="#000001" d="M90.2,25.1c-0.3,0.1-2,0.5-2.3,0.5c-0.2,0.1-0.4,0.1-0.7,0c-0.2,0-0.3-0.1-0.4-0.3
				c-0.1-0.2-0.2-0.4-0.3-0.7c-0.1-0.2-0.1-0.5-0.1-0.7c0-0.2,0-0.4,0-0.6l4-1.6l0.2-8.6c0.1-0.3,0.3-0.5,0.6-0.4
				c0.4,0.1,0.7,0.1,1.1,0.2c0.1,0,0.1,0,0.3,0.1c0.1,0,0.2,0.1,0.3,0.1c-0.1,0.7-0.1,1.4-0.2,2.2c-0.1,0.8-0.1,1.6-0.2,2.4
				c-0.1,0.8-0.1,1.6-0.1,2.4c0,0.8,0,0.3,0.1,0.9l5.9-1.6c0.1,0,0.2,0,0.3,0.2c0.1,0.2,0.1,0.4,0.2,0.6c0.1,0.2,0.1,0.6,0.2,1
				l-6.6,2.8c0,0.2,0,0.8,0.1,1.6c0,0.9,0.1,3,0.1,4.2c0.1,1.2,0.1,2.5,0.2,3.8c0.1,1.4,0.1,2.6,0.2,3.8c0.1,1.2,0.2,3.4,0.2,4.3
				c0,0.9,0,1.4,0,1.7c-0.1,0.8-0.3,1.1-0.7,1.1c-0.4,0-0.8-0.2-1.3-0.6L90.2,25.1z"/>
		</g>
		<path fill="#000001" d="M120.9,12c-0.1-1.2-1.6-0.7-2.3-0.4c-0.1,0-0.1,0.2,0,0.3c0.3,3.8,0.1,7.7-0.2,11.5
			c-0.3,4.2-0.6,8.4-1.2,12.6c-0.3,2.2-0.6,4.3-1.2,6.5c0,0,0,0,0,0l0,0c0,0,0,0,0,0c0,0,0,0.1,0,0.1c0,0.9,0.8,1.6,1.7,1.6
			c0.2,0,0.9,0,1-0.2c0.2-0.3,0.1-0.9,0.2-1.2c0.3-2.8,0.5-5.6,0.8-8.4c0.5-5.9,1-11.8,1.2-17.7c0-0.8,0-1.6,0.1-2.3
			C120.9,13.6,121,12.8,120.9,12z"/>
		<g>
			<g>
				<path fill="#000001" d="M82.4,43.8c-0.1-0.6-0.2-1.4-0.3-2.3c-0.1-0.9-0.2-1.8-0.3-2.8c-0.1-0.9-0.2-1.8-0.4-2.6
					c-0.1-0.8-0.4-1.5-0.7-2c-1.3,2.6-2.5,4.6-3.6,6.1c-1,1.5-1.9,2.5-2.7,3.2c-0.8,0.6-1.4,0.9-2,0.9c-0.5,0-1-0.2-1.3-0.7
					c-0.3-0.4-0.6-1-0.7-1.6c-0.1-0.7-0.2-1.3-0.3-1.9c0-0.5,0.1-1.3,0.4-2.3c0.3-1,0.6-2.1,1.1-3.3c0.4-1.2,1-2.4,1.6-3.6
					c0.6-1.2,1.3-2.3,2-3.3c0.7-1,1.5-1.8,2.2-2.5c0.8-0.6,1.5-1,2.3-1c1.1-0.2,2,0.1,2.5,0.7c0.5,0.6,0.6,1.7,0.3,3.2
					c0,1.6,0.1,3.1,0.2,4.2c0.1,1.2,0.3,2.3,0.5,3.4c0.2,1.1,0.3,2.2,0.5,3.4c0.1,1.2,0.2,2.6,0.2,4.2c0,0.3,0,0.6-0.1,0.8
					c-0.1,0.2-0.4,0.3-1,0.3c-0.1,0-0.2-0.1-0.3-0.2C82.4,44,82.4,43.9,82.4,43.8z M80.2,27.1c-0.3-0.4-0.7-0.4-1.2-0.1
					c-0.5,0.3-1,0.9-1.6,1.6s-1.1,1.6-1.7,2.7c-0.6,1-1.1,2.1-1.6,3.2c-0.5,1.1-0.9,2.1-1.3,3c-0.4,1-0.6,1.8-0.8,2.4
					c0,0.9,0.1,1.4,0.4,1.5c0.3,0.1,0.6,0,1.1-0.4c0.4-0.4,0.9-1,1.4-1.7c0.5-0.7,1.1-1.5,1.6-2.4c0.5-0.8,1-1.7,1.5-2.5
					c0.5-0.8,0.8-1.4,1.1-1.9c0.2-0.5,0.4-1,0.6-1.5c0.1-0.4,0.2-0.9,0.3-1.3c0.1-0.4,0.1-0.8,0.2-1.3C80.2,28,80.2,27.5,80.2,27.1z
					"/>
			</g>
			<g>
				<g>
					<path fill="#000001" d="M75.4,18.4c0.4-0.4,0.7-0.6,0.9-0.8c0.3-0.1,0.6-0.2,1-0.2c0.7,0,1.1,0.3,1.1,1c0,0.2,0,0.3-0.1,0.5
						c-0.1,0.2-0.2,0.4-0.4,0.5c-0.1,0.2-0.3,0.3-0.5,0.4c-0.2,0.1-0.4,0.1-0.5,0C76.8,20,76.6,20,76.4,20c-0.2-0.1-0.4-0.2-0.5-0.3
						c-0.2-0.2-0.3-0.3-0.4-0.6C75.4,18.9,75.4,18.7,75.4,18.4z"/>
				</g>
				<g>
					<path fill="#000001" d="M80.6,18.4c0.4-0.4,0.7-0.6,1-0.8c0.3-0.1,0.6-0.2,1-0.2c0.7,0,1.1,0.3,1.1,1c0,0.2,0,0.3-0.1,0.5
						c-0.1,0.2-0.2,0.4-0.4,0.5c-0.2,0.2-0.3,0.3-0.5,0.4c-0.2,0.1-0.4,0.1-0.5,0C82,20,81.8,20,81.6,20c-0.2-0.1-0.4-0.2-0.5-0.3
						c-0.2-0.2-0.3-0.3-0.4-0.6C80.6,18.9,80.6,18.7,80.6,18.4z"/>
				</g>
			</g>
		</g>
		<g>
			<path fill="#000001" d="M57.6,26.8v-0.3c0-0.3,0.1-0.4,0.3-0.5c0.2-0.1,0.4-0.2,0.7-0.2c0.2,0,0.4,0,0.6,0.1
				c0.2,0,0.3,0.2,0.4,0.4c0.1,0.4,0.2,0.9,0.2,1.6c0.1,0.7,0.2,1.4,0.3,2.2c0.1,0.8,0.2,1.7,0.3,2.6c0.1,0.9,0.2,1.8,0.4,2.6
				s0.2-1.1,0.5-2.9c0.2-1.8,0.7-3.3,1.3-4.4c0.7-1.1,1.6-1.9,2.7-2.4c1.2-0.4,2.6-0.5,4.4-0.3c0.8,0,1.2,0.4,1.2,1.3
				c0,0.3-0.2,0.6-0.7,0.7c-0.4,0.1-5.4,0.4-6.1,3.5c-0.3,1.1-0.9,6.6-0.9,8.3c-0.1,1.7,0.1,3.5-0.2,5.3c0,0.3-0.1,0.4-0.3,0.6
				c-0.2,0.1-0.5,0.2-0.8,0.2c-0.3,0-0.6-0.1-0.9-0.2c-0.3-0.1-0.5-0.3-0.6-0.6L57.6,26.8z"/>
		</g>
		<path fill="#000001" d="M53.7,4.9c0.7,0.5,1,1,0.9,1.6c-0.2,0.6-1.1,1-2.8,1c-3.3,1.3-5.9,5.8-7.7,13.4
			c-2.3,9.2-2.2,16.1,0.2,20.8c0.6,0.8,1.1,1.2,1.5,1.3c2,0.5,3.9-2.1,5.8-7.8l0.6-1.8c0.2-1.3,0.2-2,0-2.1
			c-1.1,0.2-2.8,0.6-5.1,1.3l-0.8-0.1c-0.5-0.1-0.8-0.6-0.9-1.5c0.2-0.7,1.3-1.2,3.5-1.5c1.9-0.7,3.3-0.9,4.2-0.7
			c1.6,0.4,2.3,1.8,1.9,4.4l-0.1,0.2c-1.7,7.1-4.4,11.1-8,12.1c-0.9-0.1-1.3-0.2-1.3-0.1c-4.1-1-6-6.5-5.4-16.5
			c0.3-3,0.7-5.7,1.3-8.2l0.2-0.9c2.1-8.3,5.2-13.3,9.5-14.9C52.4,4.9,53.3,4.8,53.7,4.9z"/>
	</g>
	<g>
		<path fill="#869998" d="M97.9,51.9c0.3,0.1,0.4,0.2,0.5,0.4c-0.2,2.5-0.3,4.3-0.3,5.5l0.1,3.4l0.2,0.6l-0.1,0.3
			c0.1,0.8,0.2,1.2,0.4,1.2c0.6-1.3,1.1-2.9,2.3-6.5l0-0.8l-0.2-0.3c0.2-0.5,0.4-0.8,0.6-0.8c0.4,0,0.7,0.2,0.8,0.7l-0.1,0.8
			c0.5,4.5,1,6.8,1.6,6.8c0.4,0,0.6-1.3,0.7-4l-0.1-1.9c0-1.1-0.2-2.8-0.5-5.3l0.4-0.8c0.3,0.1,0.4,0.3,0.5,0.6l0.4,6.8
			c-0.2,3.8-0.6,5.6-1.4,5.7c-0.9,0-1.6-2.1-2.2-6.3c-0.2,0.1-0.6,0.5-1.3,3.1c-0.8,2.5-1.3,3.7-1.7,3.8l-0.2,0
			c-0.2,0-0.4-0.1-0.5-0.4l-0.1,0l-0.3-4.2l0-1.3c-0.1-4.8,0.1-7.2,0.5-7.2L97.9,51.9z"/>
		<path fill="#869998" d="M107.5,53.7c0.3,0,0.6,0.1,0.8,0.4c0,0.2-0.2,0.5-0.7,0.8c-0.2,0-0.4-0.1-0.6-0.5
			C107.1,54,107.3,53.7,107.5,53.7z M107.7,56.5l0.4,0.4c-0.3,0.3-0.4,1.1-0.3,2.4c0.1,1.4,0.4,2.7,0.9,4l0,0.2l-0.3,0.4l-0.3,0
			c-0.3,0-0.9-1.7-1.3-5.1c-0.1-1.5,0.2-2.3,0.6-2.3L107.7,56.5z"/>
		<path fill="#869998" d="M111.7,54.3c1.2,0.2,1.9,0.7,2,1.5l0,0.3c0.2,1.6-0.3,2.9-1.7,3.7l-0.7,0.1l0,0.2c0.2,1.3,0.6,2.2,1.4,2.6
			l0.3,0c0.4-0.1,0.9-0.7,1.5-2l0.1,0.1l0.1,0c-0.3,1.8-0.9,2.7-1.8,2.8c-0.9,0.1-1.8-1.3-2.7-4.2c-0.1,0-0.2-0.2-0.3-0.5
			c0.3-0.3-0.1-1.2,0.4-2.9C110.7,55,111.2,54.4,111.7,54.3z M110.9,58.6c0.1,0.3,0.3,0.5,0.4,0.5L112,59c0.8-0.5,1.1-1.4,1-2.7
			l0-0.1c-0.2-0.7-0.6-1-1.2-0.9C110.9,55.3,110.6,56.5,110.9,58.6z"/>
		<path fill="#869998" d="M117.1,52.4L117.1,52.4c0.9-0.3,1.9,0.4,3.1,3.7l0.6,1.9l0.6,1.2c0,0,0,0.1,0,0.1l0,0.3c0,0,0,0.1,0,0.1
			l0.3,0.6c0.1,0.1,0,0.3-0.1,0.4v0c-0.1,0.1-0.2,0.1-0.3,0.1c-0.3,0-0.6-0.4-0.7-0.7l-1.1-3.5c-0.8-2.4-1.5-3.2-2-3.2l-0.4,0.2
			c-0.6,0.6-0.6,1.8,0.1,4.6l0.9,2.6l0.3,0.4c0,0.5-0.1,0.7-0.2,0.8c-0.3,0.1-0.6,0-0.8-0.2l-0.7-2.5l-1.9-4.6l-0.2-0.6l0.3-0.6
			c0.3,0,0.5,0.1,0.5,0.2l0.4,1.6l0.1,0.1C116,55.3,115.7,53.4,117.1,52.4z"/>
	</g>
	<g>
		<g>
			<path fill="#000001" d="M59.4,0.4c0-0.2,0.1-0.3,0.2-0.3C59.7,0,59.8,0,59.9,0c0.3,0,0.4,0.1,0.5,0.3c0.1,0.2,0.1,0.4,0.1,0.6
				c-0.1,0.1-0.2,0.3-0.3,0.3c-0.1,0.1-0.3,0.1-0.4,0c-0.1,0-0.2-0.1-0.3-0.3C59.4,0.8,59.4,0.6,59.4,0.4z M59.1,14.7
				c0-0.9,0.1-1.9,0.1-2.9c0-1,0-2,0-3c0-1,0.1-2,0.1-3c0.1-1,0.2-1.9,0.3-2.8c0,0,0.1,0,0.2,0c0.1,0,0.2,0,0.2,0
				c0.2,0,0.4,0,0.5,0.1c0.1,0.1,0.2,0.2,0.2,0.4c0,0.8-0.1,1.7-0.1,2.7c-0.1,1-0.1,2-0.2,2.9c-0.1,1-0.1,2-0.2,3
				c0,1-0.1,1.9-0.1,2.7c0,0.2-0.1,0.4-0.2,0.5c-0.1,0.1-0.2,0.1-0.4,0.1c-0.2,0-0.3-0.1-0.4-0.1C59.1,15.1,59.1,15,59.1,14.7z"/>
		</g>
		<g>
			<path fill="#000001" d="M62,14.7c0-0.4,0.1-0.7,0.1-1.4c0-0.7,0-1.1,0.1-1.9c0-0.8,0.1-1.6,0.1-2.5c0-0.9,0-1.7,0.1-2.4
				c0-1,0-1.6-0.1-2c0-0.3,0.1-0.4,0.2-0.5c0.1,0,0.3-0.1,0.5,0c0,0,0.1,0,0.2,0c0.1,0,0.2,0,0.2,0c0.1,0.4,0.1,1,0.1,1.6
				c0,0.7-0.2,2.1-0.2,2.9c0,0.8-0.1,1.6,0,2.4c0.3-1.1,0.5-2,0.7-2.7c0.2-0.7,0.4-1.3,0.5-1.7c0.2-0.4,0.3-0.7,0.4-1
				c0.1-0.2,0.2-0.3,0.4-0.4c0.1-0.1,0.3-0.1,0.4-0.1c0.2,0,0.4,0,0.6,0.1c0.3,0,0.4,0.1,0.6,0.3c0.1,0.2,0.3,0.5,0.3,0.8
				c0.1,0.3,0.1,0.7,0.1,1c0,0.4,0,0.7,0.1,1.1c0,0.3,0,0.7,0.1,0.9c0,0.3,0.1,0.5,0.2,0.6c0.4-1,0.8-1.8,1.1-2.5
				C69,7,69.3,6.5,69.5,6.1c0.2-0.4,0.4-0.6,0.5-0.8C70.2,5.1,70.3,5,70.4,5c0.1,0,0.2,0,0.3,0c0.1,0,0.2,0.1,0.3,0.1
				c0.4,0,0.6,0.2,0.8,0.6C72,6.4,72.1,7,72.1,7.6s0,1.1,0,1.6c0,0.5-0.1,1-0.1,1.5c0,0.5-0.1,0.9-0.1,1.4c0,0.4,0,0.9,0.1,1.3
				c0.1,0.4,0.3,0.9,0.5,1.3c-0.1,0.2-0.3,0.4-0.4,0.4c-0.1,0.1-0.3,0.1-0.5,0.1c-0.2,0-0.3-0.1-0.4-0.2c-0.1-0.1-0.2-0.3-0.3-0.5
				C71,14.4,71,14.2,70.9,14c0-0.2-0.1-0.3-0.1-0.5c0.1-2,0.1-3.5,0.1-4.6c0-1.1-0.2-1.6-0.4-1.7c-0.2-0.1-0.6,0.4-1,1.3
				c-0.4,1-1,2.5-1.7,4.5c0,0.1-0.1,0.1-0.2,0.1c-0.1,0-0.2,0-0.3,0c-0.1,0-0.1,0-0.2,0c-0.1,0-0.2-0.1-0.3-0.1
				c-0.2-2.1-0.4-3.6-0.5-4.5c-0.2-0.9-0.4-1.3-0.6-1.1c-0.3,0.2-0.6,0.9-1,2.2c-0.4,1.3-0.9,2.7-1.5,5c0,0-0.3,0.3-0.6,0.2
				C62.2,14.9,62,14.7,62,14.7z"/>
		</g>
	</g>
</g>
</svg>
