<?xml version="1.0" encoding="utf-8"?>
<!-- Generator: Adobe Illustrator 24.3.0, SVG Export Plug-In . SVG Version: 6.00 Build 0)  -->
<svg version="1.1" id="Layer_1" xmlns="http://www.w3.org/2000/svg" xmlns:xlink="http://www.w3.org/1999/xlink" x="0px" y="0px"
	 viewBox="0 0 468.6 96.8" style="enable-background:new 0 0 468.6 96.8;" xml:space="preserve">
<style type="text/css">
	.st0{display:none;fill:#999999;}
	.st1{fill:#999999;}
</style>
<path d="M338.1,31c-0.6-0.9-1.9-1.9-3-2l-0.1,0.5c0,1.5,0,3.9,0.1,7c0.1,2.6,0.1,4.6,0.1,6c0.6-0.6,1.2-1.5,2.1-2.8
	C338.5,37.9,340.8,35.5,338.1,31z M413.8,31.6c-0.6-1.4-1.5-2.1-2.7-2.1H411c-1.8,0-2.8,2.2-2.8,6.5l0.1,3.5l0,5.8
	c0,0.5,0,1.1,0,1.7l0.1,2.6c0,1.1,0.1,2.1,0.2,3.2c0.1,1.1,0.2,2.2,0.3,3.4c0.1,1.2,0.3,2.3,0.5,3.2s0.4,1.9,0.6,2.7
	c0.3,1.1,0.9,2.4,1.7,2.4c1,0,1.7-1,2.3-3c0.9-3.2,1.3-7.1,1.3-11.8l0.1-6.2c0-4.3-0.2-7.2-0.6-8.7
	C414.4,33.5,414.1,32.4,413.8,31.6z M320.3,31.7c-0.6-1.4-1.4-2.1-2.6-2.1l-0.1,0c-1.8,0-3.5,2.2-3.6,6.5l0,3.5l-0.2,5.8
	c0,0.5,0,1.1,0,1.7l0,2.6c0,1.1,0,2.2,0.1,3.2c0.1,1.1,0.1,2.2,0.2,3.4c0.1,1.2,0.2,2.3,0.4,3.3c0.2,1,0.4,1.9,0.6,2.7
	c0.3,1.1,0.8,2.4,1.7,2.4c1,0,1.7-1,2.3-2.9c1-3.2,2.2-7.1,2.3-11.8l0.2-6.2c0.1-4.3,0-7.2-0.4-8.7
	C320.9,33.6,320.6,32.5,320.3,31.7z M147,58c-0.7-1.4-1.3-3-1.8-4.9c-0.6-2.2-1.1-4.9-1.7-8.1c-1.7,3.1-2.5,6.6-2.5,10.6
	c0,2.9,0.8,5.2,2.3,6.8c0.9,0.9,1.9,1.3,3.1,1.3c0.6,0,1.3-0.2,2.1-0.5c0.7-0.2,1.2-0.5,1.6-0.8c-0.2-0.2-0.5-0.6-1-1.1
	C148.4,60.5,147.7,59.4,147,58z M461.6,14.3c-4.6-4.5-33-3.8-55.7-3c-8.6,0.3-100.6,0.5-146.1,0.1c-11-8.2-27-11-29.3-11.2
	c-12.1-1.2-25.8,2.4-36.4,10.2C130.6,9.4,49.6,8,41,8.8c-13.9,1.3-32,2-35.6,4.1c-5,3-4.2,22-5.2,29.3c-1,7.3,2.2,21.8,4,30
	c1.8,8.2,12.4,9.9,21.4,9.1c2.8-0.3,39.7,0.9,74.2,0.8c19.2,0,59.4-1.8,76.6-2c3,0,6.2-0.1,9.7-0.1c11.5,13.9,30.6,18.1,49.6,16.4
	c9.3-0.8,16.6-3.1,21.8-7.9c3.3-3.2,6.2-6.1,8.4-9c53.1-0.3,106.3-0.8,109-1.2c8.6-1.6,68.8,5.3,72.7,4c3.9-1.3,10,0.5,15-5
	c3.4-3.8,5.9-26.8,6-31C468.6,43.5,466.2,18.7,461.6,14.3z M30.6,65c-0.3,0.6-0.8,1.1-1.6,1.4c-0.8,0.4-2.6,0.5-2.8,0.5
	c-0.5,0-1.2,0.1-2,0.1h-1.9c-1.7,0-2.7-0.3-3.1-1.1c-0.2-0.3-0.3-0.8-0.3-1.3V21.1l5.5-0.6c0.5,0,2.8,0.2,3.6,0.6
	c0.7,0.4,1.1,1,1.1,1.7c0,1.6-2.8,2.2-4.6,2.2L22.8,25c-0.1,0-0.2,0-0.2,0l0.5,9.5c0,0.8,0,2-0.1,3.5c-0.1,1.2-0.1,2.2-0.1,2.9
	c0.1,0,0.3-0.1,0.4-0.1c0.9-0.2,1.5-0.3,2-0.3c0.2,0,2,0.1,2.5,0.6c0.4,0.4,0.7,0.9,0.7,1.5c0,0.6-0.2,1.1-0.5,1.5
	c-0.5,0.6-2.1,0.7-2.4,0.7h0l-1.5-0.1c-0.3,0-0.5,0.1-0.7,0.2v18c2.7-0.2,2.8-0.2,2.8-0.2c2.2,0,4.7,0.5,4.7,2L30.6,65z M49.4,35.3
	c-0.9,3.4-1.5,5.7-1.7,7c-0.2,1.2-0.4,3.1-0.7,5.5c-0.2,2.4-0.4,4.2-0.6,5.1c-0.1,1-0.4,2.2-0.8,3.6c-0.4,1.4-0.6,2.4-0.7,2.8
	c-0.1,0.5-0.2,1.1-0.2,1.8c0,0.8-0.1,1.4-0.2,2c-0.1,0.6-0.2,1.2-0.4,1.9c-0.6,1.9-1.9,2.3-2.8,2.3h-0.1l-1.6-1.1v-0.2
	c0-4.8-0.5-9.8-1.4-14.8c-0.9-5-1.8-9.3-2.7-12.7c-0.9-3.4-1.5-5.6-1.8-6.5c-1-3-1.1-3.8-1.1-4.2c0-0.6,0.2-1.1,0.6-1.5
	c0.8-0.7,1.9-0.7,2.7,0.1c0.4,0.4,0.7,0.9,0.9,1.6c0.2,0.6,0.4,1.2,0.5,1.7c0.1,0.5,0.2,1.1,0.3,1.8c0.1,0.7,0.2,1.1,0.2,1.3
	c1.8,8.3,3.3,16.3,4.5,23.8c0.2-1.4,0.4-3.3,0.7-5.4c0.4-3.6,1.2-8.5,2.3-14.4c1.1-5.9,1.8-9.6,2.1-11l0.1-0.3h1.7
	c1.5,0,1.8,0.7,1.8,1.2C50.8,29,50.3,31.9,49.4,35.3z M60.5,32.7l-0.3,8.6c0,0,0,0.2,0.1,0.5l1.8-0.1c0,0,0,0,0,0
	c2.7,0,3.3,1.1,3.3,2c0,0.7-0.2,1.3-0.6,1.8c-0.4,0.5-3,0.6-3.5,0.3h-1c0.1,1.4,0.1,2.7,0.1,4l-0.3,10.9c0,3,1.3,3,1.8,3l2.4-0.1h0
	c2.2,0,2.7,1,2.7,1.8c0,0.7-0.3,1.3-1,1.7c-0.6,0.3-1.2,0.5-2,0.5h-5.7c-0.6,0-1.1-0.2-1.6-0.6c-0.4-0.4-0.7-1-0.7-1.6
	c0-0.6,0-1.3,0.1-2.1c0.1-0.8,0.2-1.4,0.2-1.9l-0.3-7.7L56.6,36l-0.3-5c0-3.1,1-4.6,2.9-4.6c0.5,0,4.4,0,4.7,0.1
	c0.5,0.1,1,0.2,1.5,0.3c1.3,0.4,2,1,2,2c0,1-2.1,2.3-2.1,2.3l-0.1,0c-1.2-0.4-4.4-0.4-4.6-0.4C60.5,31.3,60.5,32,60.5,32.7z
	 M89,50.5c-0.3,8.7-0.8,14-1.4,16.2l-0.1,0.2L87.3,67c-0.1,0-0.2,0.1-0.5,0.2c-0.3,0.1-0.5,0.2-0.6,0.2c-0.5,0.1-0.9,0.2-1.2,0.2
	c-0.6,0-1-0.1-1.2-0.4c-0.3-0.4-0.6-0.9-0.7-1.6c-0.1-0.6-0.3-1.1-0.4-1.7c-0.2-0.6-0.8-3.2-1.9-8c-2.1-9.3-3.6-15.8-4.6-19.3v6.2
	l0.4,15.5V65c0,0.6-0.2,1.1-0.5,1.6c-0.3,0.5-0.8,0.7-1.4,0.7c-1.6,0-2.3-1.4-2.3-4L72.2,42l0.4-11.2c0-2.9,0.9-4.4,2.6-4.4
	c1.1,0,1.8,0.8,2.3,2.3c0.5,2.6,1.5,6.3,2.9,11.1c1.4,4.8,2.3,8.5,2.8,11.1c0.4,1.2,0.8,3,1.4,5.4c0.2,1,0.5,2,0.7,2.8
	c0.1-8.1,0.2-17.8,0.2-28.8l-0.1-1.6c0-0.6,0.1-1.1,0.4-1.5c0.2-0.3,0.6-0.7,1.4-0.7c0.6,0,1,0.1,1.4,0.4c0.7,0.5,1.1,1.3,1.1,2.3
	C89.5,34.8,89.3,41.9,89,50.5z M108.1,30.4c-0.5,0.3-1,0.5-1.6,0.5l-3-0.4l0,0.3c0,3.7-0.2,8.9,0.5,16.4c0.7,7.5,0,13.3,0,17.1
	c0,0.6-0.2,1.1-0.7,1.5c-0.4,0.4-0.9,0.6-1.5,0.6H100l-0.1-5.8l0.1-2c-0.1-0.5,0.7-2.7,0-13.6c-0.5-8-0.2-12.6-0.3-14.8
	c-2.9-0.1-4.4,0.1-4.8-0.2c-0.7-0.4-1-1.4-1-1.9c0-0.4,0.1-0.9,0.8-1.3c0.5-0.3,1-0.4,1.4-0.4l9.4,0.1l0.9,0c2,0,2.3,1.1,2.3,1.8
	C108.8,29.1,108.6,30.1,108.1,30.4z M122.8,31.3c-0.5,0-2.6-2.8-4.3-1.8c-1.7,0.9-1.7,1.4-2.1,3.9c-0.1,0.6-0.1,1.3-0.1,2.1
	c0,0.8,0.2,1.7,0.5,2.9c0.3,1.2,0.8,2.2,1.3,3.1c0.5,0.9,1.1,2,1.7,3.1c0.6,1.1,1.2,2.2,1.7,3.3c1.3,2.5,1.9,5.4,1.9,8.6
	c0,2.5-0.5,4.9-1.5,7.1c-0.6,1.1-1.3,2.1-2.4,2.8c-0.9,0.7-2,1-3.2,1.1v0.2l-0.4-0.1c-0.8-0.1-2-0.4-2.7-0.8
	c-0.7-0.5-1.1-1.1-1.2-1.8l0-1.5c0,0,0.7-3.1,2.3-1.2c1.7,1.9,2.9,1.4,3.4,0.8c0.5-0.6,0.9-1.4,1.2-2.3c0.5-1.9,0.8-3.5,0.8-5
	c0-1.4-0.2-2.9-0.7-4.3c-0.5-1.4-1.1-2.8-1.8-4c-0.7-1.2-1.4-2.5-2.1-3.8c-1.7-3.1-2.6-6.1-2.6-9.1c0-1.8,0.3-3.5,0.9-4.9
	c1.2-2.7,2.9-3.7,4.9-4.1c2.3-0.4,3.9,0.3,4.6,0.8c0.7,0.5,2.3,2.6,2.3,3.3C125.2,30.7,124,31.3,122.8,31.3z M161.6,64.5
	c0,1.2-0.6,1.7-1,1.9c-0.6,0.3-1.4,0.4-2.4,0.4c-1.9,0-3.8-0.7-5.8-2.2c-2.1,1.5-4.1,2.2-6,2.2c-1.9,0-3.5-0.5-4.9-1.6
	c-1.3-1.1-2.7-2.2-3.5-3.7c-0.7-1.5-1-3.1-1-4.7c0-1.6-0.1-3.3,0.1-4.7c0.2-1.4,0.7-2.8,1.2-4.3c0.7-2,2.5-4.9,4.3-8.6l-0.4-8.1v-5
	c-0.4-3.7,3.7-5.6,6.5-5c3.9,0.9,2.6,6.7,2.6,6.7c0,0.4-3.2,8.8-3.5,9.4c-0.3,0.5-0.6,1-0.8,1.4c-0.8,1.1-0.9,1.6-0.9,1.8
	c0,1.9,0.7,5.3,2.2,10.2c1.3,4.3,2.4,7.2,3.4,8.6c1-2.7,1.5-6,1.5-9.8c-0.6-0.1-1.1-0.5-1.5-1.2l0-0.2v-1.9h0.4c1,0,2.3-0.1,3.9-0.2
	c1.6-0.1,2.7-0.3,3.3-0.5l0.1,0l0.1,0c1.7,0.3,2,1.2,2,1.9c0,1.3-1.2,2-3.7,2h-1.1c0,1-0.1,2.2-0.1,3.4c0,0,0,0,0,0
	c0.2,0.3,0.4,0.8-0.6,4.1c-0.7,2.4-1.3,3.9-1.7,4.8c1.1,1,2.2,1.6,3.4,1.6l2.6-0.2l1.4,1.1V64.5z M264.8,68.3
	c-1.9,5-5.5,10.3-11.2,15.7c-5,4.7-12.9,7.3-22,8c-24.2,2-46.4-7.3-53.7-30.5c-6.1-19.4,3.5-36.3,4.7-38.3
	c9.8-16,28.4-23.3,45.5-21.6c3.1,0.3,30.1,4.7,36.7,24.1C271.8,46.1,265.9,65.5,264.8,68.3z M305.5,24.9c-0.6,3-1.1,5.9-1.5,12.5
	c-0.5,6.5-0.9,11.1-1.3,13.7c-0.4,2.6-0.7,4.4-0.8,5.3c-0.5,3.3-0.8,6.2-0.8,8.6c0,0.7-0.2,1.3-0.5,1.7c-0.4,0.5-0.9,0.7-1.6,0.7
	c-0.7,0-1.2-0.4-1.7-1.2c-0.4-0.7-0.7-1.6-0.9-2.7c-0.2-1.1-0.3-2.1-0.5-3.1c-0.1-1-0.2-2-0.3-3c-0.1-1-0.2-2.1-0.3-3.3
	c-0.1-1.1-0.6-3.6-1.4-7.4c-0.4-1.8-0.7-3.3-0.9-4.4c-1.3,10-1.9,17.8-1.9,23c0,0.5-0.2,1-0.7,1.4c-0.4,0.4-0.9,0.6-1.4,0.6
	c-1.7,0-2.6-1.7-2.6-4.9c0-1.8-0.8-8.7-2.5-20.5c-1.6-11.7-2.7-18.2-3.1-19.3l-0.1-0.2l0.1-0.2c0.6-1.1,1.4-1.6,2.4-1.6
	c1.4,0,2.3,1.6,2.9,4.8c0.2,1.4,0.4,3.2,0.4,5.3c0.1,2.1,0.1,3.5,0.2,4.3c0.1,0.8,0.2,2,0.4,3.5c0.2,1.6,0.4,2.9,0.5,4.1
	c0.3,1.8,0.6,3.8,0.9,5.9c1.2-10.1,1.9-16.9,1.9-20.1v-1.1c0-0.5,0.2-1,0.6-1.5c0.4-0.5,0.9-0.7,1.4-0.7c2.3,0,2.8,1.2,2.8,2.1v0.9
	c0,3.8,0.8,9.5,2.4,16.7c0.4,2,0.8,3.7,1.1,5.1c0.2-1.9,0.5-4.2,0.9-7c1.2-9,1.8-16.1,1.8-21c0-1,0.2-1.7,0.5-2.1
	c0.4-0.5,1-0.8,1.7-0.8c0.8,0,1.4,0.2,1.8,0.6c0.5,0.4,0.7,0.9,0.7,1.5C306.2,21.4,306,24.1,305.5,24.9z M325.6,43.2l-0.2,7.2
	c-0.3,11.7-3.6,17.6-8.5,17.5c-4.6-0.1-7-5.6-7.3-16.9c0-1,0-2.1,0-3.1l0.1-4.8c0.2-8.7,1.6-13.8,4.2-15.9c0.7-0.5,1.4-0.8,2.3-0.8
	l0.1,0l0.1,0c0.5,0.2,5-0.3,7.1,3.9c0.7,1.5,1.4,3.4,1.8,5.8C325.5,38.5,325.7,40.9,325.6,43.2z M345,67.1c-0.3,0.4-0.8,0.6-1.3,0.6
	c-1.5,0-2.8-2.2-4-6.8c-0.5-1.9-1.7-4.2-2.1-6.1c-0.7-3.7-2.1-5.5-2.4-6.8c0,0.2-0.1,0.5-0.2,0.7c-0.3,1.1-0.4,2.1-0.4,3
	c0,0.9,0.1,3,0.4,6c0.2,3.1-0.1,5.1-0.1,6c0,1-0.2,1.7-0.5,2.3c-0.4,0.6-0.9,0.9-1.4,0.9c-0.5,0-1.2-0.3-1.5-1.5
	c0-1.6,0.1-3.4,0.1-5.5c0-2.1,0.3-6.9,0-14.2c-0.3-7.3-0.5-12.8-0.5-16.4c0-2.7,1.3-3.2,2.4-3.2c2.2,0,4.4,0.4,6.1,1.2
	c2.2,1,2.9,3.3,2.9,6c0,2.8-0.4,4.6-1.2,6.6c-0.6,1.5-1.8,2.8-3,5.1c0.2,1,1.2,3,2,5.6c1.8,6,3.2,10.6,4.6,13.3
	c0.4,0.8,0.7,1.5,0.7,2C345.5,66.3,345.3,66.8,345,67.1z M366,67.1c-0.4,0.4-0.9,0.6-1.4,0.6c-1.1,0-2.2-1-3.4-3.1
	c-1.1-2-2.1-4.4-3-7.2c-1.4-4.5-2.5-8.5-3.3-11.9c-0.4,0.6-0.7,1.2-0.9,2c-0.4,1.4-0.5,2-0.4,2.3l0.6,16.4c0,1.1-0.5,1.8-1.6,1.8
	c-0.7,0-1.3-0.2-1.7-0.6c-0.5-0.4-0.7-0.9-0.7-1.6l-0.7-18.2c-0.1-2.2,0-5.5,0.2-9.8c0.2-4.3,0.3-7.5,0.2-9.7l0-0.2
	c0.5-1.1,1.3-1.4,1.8-1.4c1.4-0.1,2.2,0.8,2.3,2.3l0,0L354,39.9l0.1,1.4c0.3-0.7,0.7-1.8,1.4-3.3c4.8-11.4,5.7-11.4,6.3-11.4
	c0.6,0,1.3,0.1,1.8,0.4c0.6,0.3,0.9,0.8,1,1.5c0,0.2,0,0.2-2.9,5.4c-1.8,3.2-2.9,5.2-3.1,5.8l0,3.5c0.1,1.7,0.9,4.8,2.4,9.4
	c1.5,4.6,2.8,7.7,3.7,9.1c0.1,0.2,0.4,0.5,0.8,1c0.4,0.6,0.8,1,1,1.5c0.2,0.4,0.3,0.9,0.4,1.4C366.6,66.3,366.4,66.7,366,67.1z
	 M379.5,31.3c-0.5,0-2.6-2.8-4.3-1.8c-1.7,0.9-1.7,1.4-2.1,3.9c-0.1,0.6-0.1,1.3-0.1,2.1c0,0.8,0.2,1.7,0.5,2.9
	c0.3,1.2,0.8,2.2,1.3,3.1c0.5,0.9,1.1,2,1.7,3.1c0.6,1.1,1.2,2.2,1.7,3.3c1.3,2.5,1.9,5.4,1.9,8.6c0,2.5-0.5,4.9-1.5,7.1
	c-0.6,1.1-1.3,2.1-2.4,2.8c-0.9,0.7-2,1-3.2,1.1v0.2l-0.4-0.1c-0.8-0.1-2-0.4-2.7-0.8c-0.7-0.5-1.1-1.1-1.2-1.8l0-1.5
	c0,0,0.7-3.1,2.3-1.2c1.7,1.9,2.9,1.4,3.4,0.8c0.5-0.6,0.9-1.4,1.2-2.3c0.5-1.9,0.8-3.5,0.8-5c0-1.4-0.2-2.9-0.7-4.3
	c-0.5-1.4-1.1-2.8-1.8-4c-0.7-1.2-1.4-2.5-2.1-3.8c-1.7-3.1-2.6-6.1-2.6-9.1c0-1.8,0.3-3.5,0.9-4.9c1.2-2.7,2.9-3.7,4.9-4.1
	c2.3-0.4,3.9,0.3,4.6,0.8c0.7,0.5,2.3,2.6,2.3,3.3C381.9,30.7,380.7,31.3,379.5,31.3z M398.1,66.4c-0.4,0.2-0.8,0.4-1.4,0.4
	c-0.5,0-1-0.1-1.5-0.4c-0.7-0.4-0.8-0.9-0.8-1.3c-0.2-4-0.3-8.9-0.3-14.7l0-2.1c-0.3,0-0.6,0-1,0l-3.4-0.1l-0.2,6.1l0.5,9.9
	c0,0.7-0.2,1.3-0.5,1.7c-0.4,0.5-0.9,0.8-1.6,0.8c-1,0-1.7-0.8-2-2.5c-0.3-1.5-0.5-3.5-0.5-6l0.2-12.6l0.1-3.5l-0.4-13.5
	c0-0.6,0.2-1.1,0.6-1.5c0.4-0.4,0.9-0.7,1.5-0.7c1.5,0,2.3,1.3,2.3,3.9v0l-0.2,15c0.7,0.1,1.6-0.1,2.8-0.1h1.9v-0.9
	c0-1.8,0.2-13.1,0.1-14.9c0-0.6-0.2-2.7,0.2-3.1c0.4-0.4,0.8-0.5,1.2-0.5c0.2,0,0.5,0,0.6,0c0.2,0,0.4,0,0.6,0
	c0.2,0,0.4,0.1,0.6,0.2c0.4,0.2,0.6,0.8,0.6,1.7c0,4.2-0.3,10.6,0.1,18.9c0.4,8.3,0.6,14.7,0.6,18.9
	C398.8,65.7,398.5,66.1,398.1,66.4z M419.3,50.2c0,11.7-2.5,17.6-7.4,17.6c-4.6,0-7.1-5.5-7.7-16.7c0-1-0.1-2.1-0.1-3.1l0-4.8
	c0-8.7,1.3-13.9,3.9-16c0.7-0.5,1.4-0.8,2.2-0.9l0.1,0l0.1,0c0.5,0.2,1.2,0.4,2,0.5c0.9,0.2,1.5,0.3,1.9,0.5
	c0.8,0.4,1.6,1.3,2.5,2.7c0.9,1.4,1.5,3.4,1.9,5.7c0.4,2.3,0.6,4.7,0.6,7.1V50.2z M436.5,42.8c-1.5,2.2-3.2,3.5-3.6,3.8
	c-1,0.6-2.1,1.2-3.4,1.6v6.1l0.5,11.4c0,0.6-0.2,1.1-0.6,1.5c-0.4,0.4-0.9,0.6-1.5,0.6H426l-0.1-0.3c-0.2-1.1-0.4-2.8-0.4-5
	l-0.1-15.3l0.2-6.8l0.1-5.7c0-2.3-0.2-4.2-0.5-5.5l0-0.1l0-0.1c0.1-0.6,0.3-1.1,0.6-1.6c0.4-0.7,1-0.8,1.4-0.8h2.6
	c2.4,0,4.3,1,5.9,2.6c1.6,1.6,2.1,3.9,2.1,6.2C438,38.2,437.5,41.4,436.5,42.8z M452.3,31.3c-0.5,0-2.6-2.8-4.3-1.8
	c-1.7,0.9-1.7,1.4-2.1,3.9c-0.1,0.6-0.1,1.3-0.1,2.1c0,0.8,0.2,1.7,0.5,2.9c0.3,1.2,0.8,2.2,1.3,3.1c0.5,0.9,1.1,2,1.7,3.1
	c0.6,1.1,1.2,2.2,1.7,3.3c1.3,2.5,1.9,5.4,1.9,8.6c0,2.5-0.5,4.9-1.5,7.1c-0.6,1.1-1.3,2.1-2.4,2.8c-0.9,0.7-2,1-3.2,1.1v0.2
	l-0.4-0.1c-0.8-0.1-2-0.4-2.7-0.8c-0.7-0.5-1.1-1.1-1.2-1.8l0-1.5c0,0,0.7-3.1,2.3-1.2c1.7,1.9,2.9,1.4,3.4,0.8
	c0.5-0.6,0.9-1.4,1.2-2.3c0.5-1.9,0.8-3.5,0.8-5c0-1.4-0.2-2.9-0.7-4.3c-0.5-1.4-1.1-2.8-1.8-4c-0.7-1.2-1.4-2.5-2.1-3.8
	c-1.7-3.1-2.6-6.1-2.6-9.1c0-1.8,0.3-3.5,0.9-4.9c1.2-2.7,2.9-3.7,4.9-4.1c2.3-0.4,3.9,0.3,4.6,0.8c0.7,0.5,2.3,2.6,2.3,3.3
	C454.7,30.7,453.5,31.3,452.3,31.3z M430.9,31.1c-0.3-0.2-0.7-0.3-1.2-0.4v2.9l-0.4,10.4c1.9-0.7,4.2-2.5,4.2-8.3
	C433.6,33.6,431.9,31.7,430.9,31.1z M146.8,31.3c0.5-1.5,0.9-3.6,0.9-4.5c0-1.5-0.7-1.7-1.3-1.8c-0.2,0.2-0.4,0.5-0.7,1.2l-0.4,2.9
	l0.1,6.3C145.7,34.6,146.6,32.2,146.8,31.3z M217.2,65c-1.1-0.4-2.3-0.5-3.3-0.4c-0.4,0.1-0.8,0.4-0.9,0.8c0,0.7,0.1,1.3,0.5,2
	c1.1,0.5,3.1,0.9,3.9,0c0-0.4,0.4-0.4,0.3-0.9C217.5,65.9,217.3,65.5,217.2,65z M234.7,59.8c0.4-1.1,0.4-2.1-0.1-3.1
	c-1.1-0.3-2.1-0.3-3.2-0.3c-0.7,0.5-1.1,1.3-1.1,2.3c0.5,0.4,1.2,0.8,1.9,0.9C233,59.6,233.8,60.3,234.7,59.8z M233.4,63.9
	c-0.8-0.1-1.6,0.1-2.4,0.7c-0.4,0.7-0.4,1.5,0,2.1c0.5,0.5,0.4,0.5,1.3,0.7c0.8,0,1.7-0.1,2.5-0.4c0.3-0.3,0.9-0.1,0.9-0.7
	c0.4-0.1,0.4-0.7,0.4-1.2C235.8,64.3,234.3,64.3,233.4,63.9z M231.7,51.7c0.9-0.1,1.7-0.3,2.5-0.5c0.3-0.3,0.9-0.1,0.9-0.7
	c0.4-0.1,0.4-0.7,0.4-1.2c-0.4-0.8-1.9-0.8-2.8-1.2c-0.8-0.1-1.6,0.1-2.4,0.7c-0.4,0.7-0.4,1.5,0,2.3
	C230.9,51.6,230.7,51.6,231.7,51.7z M244.5,59.1c0.1-0.8-0.1-1.6-0.8-2.1c-1.6-0.3-4-0.3-4.1,1.5C239.7,60.3,243.7,60.6,244.5,59.1z
	 M249.1,28.2c-0.3-0.5-1.7-0.3-2-0.7c-0.5-0.3-4.4-0.3-4.7-0.9c0.4-0.3-0.1-6.6-0.8-6.6c-0.3-0.4-4.3-2-4.8,2.5c0,1.2,0,2.4-0.3,3.6
	c-1.5-0.1-4.3,0.1-5.4-0.4c0.3-1.7,0.3-3.6-0.3-5.4c-0.4-0.3-0.7-0.9-1.6-0.8s-0.9-0.4-2-0.1c-0.1,0-0.4,0.1-0.5,0.3
	c-0.8,0.5-0.3,4.8-0.5,6.2h-2.3c-0.7,0-1.5,0.3-1.7-0.1c-0.4-1.7,0-3.9-0.5-5.4c-1.5-1.1-3.3-0.9-4.7,0.3c-0.4,1.6-0.5,3.2-0.4,5
	c-0.8,0-1.3,0.4-2.1,0.4c-0.8,0-2.8,0-3.1-0.3c0-1.1-1.1-5.1-2.3-5.8c-1.1-0.4-2.4-0.3-3.3,0.4c-0.3,0.5-0.7,0.9-0.9,1.3
	c-0.4,1.7,0.1,2.8,0.3,4.7c-3.2,0.4-6.2,1.9-8.6,4.3c-0.1,0.1-0.3,0.3-0.3,0.5c-0.4,0.7-0.7,1.3-0.8,2.1c-0.4,0.9-0.5,1.9-0.7,2.8
	c-0.3,3.6-0.1,7.9-0.1,11.9c0.4,7.6,1.3,14.7,1.6,22.5c0.4,0,0.1,0.5,0.1,0.8c0.4,0.5,0.5,1.1,0.7,1.6c0.7,0.4,1.2,1.1,1.6,1.6
	c0.8,0.1,1.5,0.4,2.1,0.8c0.8,0.3,1.7,0.3,2.7,0.5c7.2-0.1,12.6,0.5,19.4,0.1c5.4-0.8,11.8-0.5,17.1-1.5h7.2
	c0.4-0.3,1.1-0.3,1.6-0.5c0.5-0.3,1.1-0.8,1.5-1.1c0.3-0.3,0.3-0.8,0.7-0.9c0.8-3.1,1.2-6.2,1.2-9.4V33.5c-0.3-1.3-0.5-2.5-0.9-3.7
	C250.7,29.1,249.9,28.5,249.1,28.2z M242.9,36.3c0.2-0.2,0.4-0.8,0.8-0.8c0.3,0,1.5,2.4,1.7,3.1c0.3,0.7,0.7,1.3,1.1,2
	c0,0,0.8,0.7,0.7,1.2c-0.1,0.5-1.1,0-1.1,0C245.7,41.9,242.5,36.7,242.9,36.3z M240.8,22.7c0.1,0.1-0.1,0.3-0.1,0.1
	S240.8,22.6,240.8,22.7z M239.5,35.8c0.3,0,1.5,2.4,1.7,3.1c0.3,0.7,0.7,1.3,1.1,2c0,0,0.8,0.7,0.7,1.2c-0.1,0.5-0.9,0.3-0.9,0.3
	c-0.3,0.2-3.4-5-3.2-5.6C239,36.4,239.3,35.8,239.5,35.8z M235.4,35.7l0.6,0.1c0.3,0,0.9,2.3,1.2,3c0.3,0.7,0.7,1.3,1.1,2
	c0,0,0.8,0.7,0.7,1.2c-0.1,0.5-0.8,0.3-0.8,0.3c-0.3,0.1-3.4-5.1-3.2-5.6C235,36.3,235.1,35.7,235.4,35.7z M230.9,38.4
	c0.2-0.3,0.7-0.9,1.1-0.9c0.3,0,0.7,1.3,0.9,2c0.1,0.4,0.3,0.7,0.5,0.9c0.3,0.4,0.7,0.8,0.9,1.3c-0.1,0.5-0.9,0.3-0.9,0.3
	C233.3,42.2,230.6,38.9,230.9,38.4z M228.7,39.2l0.4,0.2c0.9,0.9,1.1,1.3,0.8,2.3c-0.1,0.5-0.7,0.1-0.7,0.1c-0.5-0.8-0.9-1.2-1.3-2
	C227.7,39.6,228.5,38.9,228.7,39.2z M248.5,69.9c-0.5,0.5-1.1,0.9-1.6,1.3c-0.8,0.5-11.6,0.7-13.9,0.5s-19.3,0.7-21.8,0.7
	c-2.5,0-7.9-0.5-7.9-0.5c-1.1-0.7-1.9-1.6-2.4-2.5c-0.8-1.5-1.7-25.4-1.7-25.4c1.7,0.4,3.6,0.5,5.4,0.3c1.7-0.5,8.2,0,10.7,0
	c2.5,0,13.6-0.1,15.1-0.3c1.5-0.1,17.7,0,17.7,0s0.1,8.2,0.7,13.2C249.5,66.5,248.4,69.9,248.5,69.9z M206.6,52.5
	c0.7-0.5,0.9-1.3,1.1-2.1c-0.5-0.8-1.3-1.3-2.4-1.3c-0.4-0.1-0.5-0.1-1.1-0.1c-0.5,0.7-1.6,0.7-1.5,1.9c-0.1,0.3,0.1,0.5,0.3,0.8
	c0.4,0.5,1.1,0.9,1.9,0.9C205.4,52.7,206.1,52.7,206.6,52.5z M243.3,63.4c-0.8,0.1-1.6,0.3-2.4,0.7c0,0.1,0,0.3-0.1,0.3
	c-0.1,2,0.4,3.3,2.1,2.9c0.8,0.3,1.6,0,2-0.8c0.1-0.3,0.1-0.4,0.1-0.7C244.9,64.3,244.2,63.2,243.3,63.4z M225.5,64.9
	c-0.5,0-0.9,0-1.5,0.1c-1.3-0.1-2.5-0.1-2.5,1.1c0.3,0.9,1.2,1.2,1.9,1.7c0.8,0,0.9,0.1,1.7,0.1c0.3,0,0.7-0.1,0.9-0.3
	c0.4,0,0.4-0.5,0.7-0.8C226.7,65.7,226.4,65.3,225.5,64.9z M242.1,51.5c0.8,0.3,1.6,0,2-0.8c0.1-0.3,0.1-0.5,0.1-0.7
	c0-1.5-0.7-2.5-1.6-2.4c-0.8,0.1-1.6,0.3-2.4,0.7c0,0.1,0,0.3-0.1,0.3C240,50.5,240.4,51.9,242.1,51.5z M206.1,64.7
	c-0.4-0.1-0.5-0.1-1.1,0c-0.5,0.5-1.6,0.7-1.5,1.9c-0.1,0.3,0.1,0.5,0.3,0.8c0.4,0.5,1.1,0.9,1.9,1.1c0.5,0.1,1.2,0.1,1.7,0
	c0.7-0.5,0.9-1.3,1.1-2.1C207.8,65.4,207,64.9,206.1,64.7z M222.4,57.1c-0.4,0.1-0.8,0.4-0.9,0.8c0,0.7,0.1,1.5,0.4,2
	c1.1,0.5,3.2,0.8,3.9,0c0-0.4,0.4-0.5,0.4-0.9c-0.1-0.5-0.3-0.9-0.4-1.5C224.7,57.1,223.6,57,222.4,57.1z M205.4,60.8
	c0.8,0.3,1.6,0,2-0.8c0.1-0.3,0.1-0.4,0.1-0.7c0-1.5-0.7-2.5-1.6-2.4c-0.8,0.1-1.6,0.3-2.4,0.7c0,0.1,0,0.3-0.1,0.3
	C203.3,59.8,203.8,61.1,205.4,60.8z M224.4,52.1c0.3,0,0.7-0.1,0.9-0.3c0.4,0,0.4-0.5,0.7-0.8c0-1.2-0.3-1.6-1.2-2
	c-0.5,0-0.9,0-1.5,0.1c-1.2-0.1-2.5-0.1-2.5,1.1c0.3,0.9,1.2,1.2,1.9,1.7C223.5,52,223.5,52.1,224.4,52.1z M215.2,60.4
	c0.3,0,0.7-0.1,0.9-0.3c0.4,0,0.4-0.5,0.7-0.8c0-1.2-0.3-1.6-1.2-2c-0.5,0-0.9,0-1.5,0.1c-1.2-0.1-2.5-0.1-2.5,1.1
	c0.3,0.9,1.2,1.2,1.9,1.7C214.3,60.3,214.3,60.3,215.2,60.4z M216.5,51.6c0-0.4,0.4-0.4,0.4-0.9c-0.1-0.5-0.3-0.9-0.4-1.5
	c-1.1-0.4-2.1-0.5-3.3-0.4c-0.4,0.1-0.8,0.4-0.9,0.8c0,0.7,0.1,1.5,0.4,2C213.6,52.1,215.7,52.5,216.5,51.6z"/>
<g>
	<path class="st0" d="M379.3,49.1c-0.5-1.1-1.1-2.1-1.7-3.3c-0.6-1.1-1.2-2.2-1.7-3.1c-0.5-0.9-1-1.9-1.3-3.1
		c-0.3-1.2-0.5-2.1-0.5-2.9c0-0.8,0-1.5,0.1-2.1c0.4-2.5,1.1-3.8,2.1-3.9c0.4,0.2,0.9,0.3,1.3,0.3c1.2,0,1.8-0.6,1.8-1.8
		c0-0.7-0.4-1.2-1.1-1.8c-0.7-0.5-1.4-0.7-2.2-0.7c-2,0-3.7,1.4-4.9,4.1c-0.6,1.4-0.9,3.1-0.9,4.9c0,3,0.9,6.1,2.6,9.1
		c0.7,1.3,1.4,2.6,2.1,3.8c0.7,1.2,1.3,2.5,1.8,4c0.5,1.4,0.7,2.8,0.7,4.3c0,1.4-0.3,3.1-0.8,5c-0.3,0.9-0.7,1.7-1.2,2.3
		c-0.5,0.6-1.1,0.9-1.7,0.9l-3.6-0.5l0,1.5c0.1,0.8,0.5,1.4,1.2,1.8c0.6,0.4,1.4,0.7,2.2,0.8l0.4,0.1v-0.2c1.2-0.1,2.3-0.5,3.2-1.1
		c1-0.7,1.8-1.7,2.4-2.8c1-2.2,1.5-4.6,1.5-7.1C381.2,54.5,380.5,51.6,379.3,49.1z"/>
</g>
<path class="st1" d="M305,19.6C305,19.6,305,19.6,305,19.6c0.1,0.1,0.3,0.2,0.4,0.3c0.5,0.4,0.7,0.9,0.7,1.5c0,0-0.1,2.8-0.7,3.6
	c-0.6,3-1.1,5.9-1.5,12.5c-0.5,6.5-0.9,11.1-1.3,13.7c-0.4,2.6-0.7,4.4-0.8,5.3c-0.5,3.3-0.8,6.2-0.8,8.6c0,0.7-0.2,1.3-0.5,1.7
	c-0.4,0.5-0.9,0.7-1.6,0.7c-0.7,0-1.2-0.4-1.7-1.2c0,0,0-0.1,0-0.1c0.1,0.3,0.2,0.5,0.4,0.8c0.4,0.8,1.2,1.7,1.9,1.8
	c2.4,0.4,3.4-1,3.4-1.7c0-2.5,0.4-6.1,0.9-9.4c0.1-1,0.3-3.8,0.7-6.4c0.4-2.6,0.3-6.2,0.7-12.7c0.5-6.4,0.8-7.5,1.4-10.8
	c0.4-0.5,0.5-3.8,0.5-4.4c0-0.6-0.2-2.7-0.7-3.1C306,20.2,305.8,19.6,305,19.6z M287.7,42.9c0.3,1.8,0.6,3.8,0.9,5.9
	c0.2-1.5,0.4-2.9,0.5-4.3c0-0.1,0-0.2,0-0.3c-0.2-1.1-0.4-2.5-0.5-4.1c-0.2-1.6-0.3-2.8-0.4-3.5c-0.1-0.8-0.1-2.2-0.2-4.3
	c-0.1-2.1-0.3-3.9-0.4-5.3c-0.6-4.6-2.2-6.3-3.6-6.3c-0.1,0-0.3,0-0.4,0.1c1.2,0.2,2.1,1.8,2.6,4.8c0.2,1.4,0.4,3.2,0.4,5.3
	c0.1,2.1,0.1,3.5,0.2,4.3c0.1,0.8,0.2,2,0.4,3.5C287.4,40.4,287.6,41.8,287.7,42.9z M297.6,45.1c0.4,2,0.8,3.7,1.1,5.1
	c0.2-1.3,0.3-2.8,0.6-4.5c0,0,0,0,0,0c-1.6-7.3-2.6-12.1-2.6-15.9v-0.9c0-0.8-0.5-2.3-2-2.8c0.5,0.4,0.6,1,0.6,1.5v0.9
	C295.2,32.2,296,37.8,297.6,45.1z M293.1,42.5c-1.3,10-1.9,17.8-1.9,23c0,0.5-0.2,1-0.7,1.4c-0.4,0.4-0.9,0.6-1.4,0.6
	c-1,0-1.6-0.5-2.1-1.6c0.3,2.4,1.9,2.9,3.4,2.9c0.5,0,1-0.2,1.4-0.6c0.4-0.4,0.7-1.7,0.7-2.2c0-4.6,0.7-9.7,1.7-17.7
	c-0.1-0.5-0.2-1-0.3-1.5C293.6,45.1,293.3,43.6,293.1,42.5z M324.4,31c-0.9-1.5-2.2-3-3-3.4c-0.1-0.1-0.2,0-0.3,0.1
	c0.9,0.6,1.7,1.4,2.3,2.6c0.7,1.5,1.4,3.4,1.8,5.8c0.4,2.4,0.5,4.7,0.5,7.1l-0.2,7.2c-0.3,11.7-3.6,17.6-8.5,17.5
	c-1.5,0-2.7-0.6-3.7-1.8c1.2,2.1,2.7,3.1,4.7,3.1c4.9,0.1,8.8-5.8,9-17.5l0.2-7.2c0.1-2.4-0.1-4.7-0.5-7.1
	C326.3,35.1,325.2,32.5,324.4,31z M313.8,49.7c0,1.1,0,2.2,0.1,3.2c0.1,1.1,0.1,2.2,0.2,3.4c0.1,1.2,0.2,2.3,0.4,3.3
	c0.2,1,0.4,1.9,0.6,2.7c0.2,0.9,0.7,2,1.3,2.3c-0.1-0.3-0.2-0.6-0.3-0.9c-0.2-0.8-0.4-1.7-0.6-2.7c-0.2-1-0.3-2.1-0.4-3.3
	c-0.1-1.2-0.2-2.3-0.2-3.4c-0.1-1.1-0.1-2.1-0.1-3.2l0-2.6c0-0.7,0-1.2,0-1.7l0.2-5.8l0-3.5c0.1-4.3,1.8-6.6,3.6-6.5l0.1,0
	c0.6,0,1.1,0.2,1.6,0.6c-0.6-1.3-1.4-1.9-2.5-1.9l-0.1,0c-1.8,0-3.5,2.2-3.6,6.5l0,3.5l-0.2,5.8c0,0.5,0,1.1,0,1.7L313.8,49.7z
	 M335.8,53c0-0.9,0.1-1.9,0.4-3c-0.4-0.9-0.7-1.5-0.8-2.1c0,0.2-0.1,0.5-0.2,0.7c-0.3,1.1-0.4,2.1-0.4,3c0,0.9,0.1,3,0.4,6
	c0.2,3.1-0.1,5.1-0.1,6c0,1-0.2,1.7-0.5,2.3c-0.4,0.6-0.9,0.9-1.4,0.9c-0.5,0-1-0.2-1.4-1c0,0.1,0,0.1,0,0.2
	c0.2,1.2,1.5,1.8,2.1,1.8c0.5,0,1.8-0.7,2.2-1.2c0.4-0.5,0.4-4.5,0.2-7.5C335.9,56,335.8,54,335.8,53z M343,56.2l-1.7-5.1
	c-1.1-3.1-1.8-4.2-2-5.2c1.2-2.2,2.7-3.8,3.5-5.1c0.8-1.4,1-3.4,1-6.2c0-1.6-0.9-3.7-2-5.1c0.4,1,0.6,2.3,0.6,3.7
	c0,2.8-0.4,4.6-1.2,6.6c-0.6,1.5-1.8,2.8-3,5.1c0.2,1,1.2,3,2,5.6c1.8,6,3.2,10.6,4.6,13.3c0.4,0.8,0.7,1.5,0.7,2
	c0,0.5-0.2,1-0.4,1.3c-0.3,0.4-0.8,0.6-1.3,0.6c-0.6,0-1.1-0.3-1.6-0.9c0.6,1.4,1.1,1.9,2,1.9c0.5,0,1.4-0.5,1.7-0.9
	c0.3-0.4,0.8-1,0.8-1.6c0-0.5-0.1-1.4-0.6-2.2C344.7,61.3,345.1,62.1,343,56.2z M335.1,42.5c0.3-0.3,0.6-0.7,1-1.2
	c0-1,0-2.2-0.1-3.5c-0.1-3.1,0.1-5,0.1-6.5v-2c-0.4-0.2-0.8-0.3-1.1-0.4l-0.1,0.5c0,1.5,0,3.9,0.1,7
	C335.1,39.1,335.1,41.1,335.1,42.5z M376.5,30.9c0.4,0.2,2.2,2,2.6,2.2c2.1,1.1,2.9-1.5,2.9-2.6c0-0.2-0.1-0.4-0.1-0.6
	c-0.2,0.9-1.3,1.4-2.4,1.4c-0.5,0-2.6-2.8-4.3-1.8c-1.7,0.9-1.7,1.4-2.1,3.9c-0.1,0.6-0.1,1.3-0.1,2.1c0,0.8,0.2,1.7,0.5,2.9
	c0.3,1.2,0.8,2.2,1.3,3.1c0.5,0.9,1.1,2,1.7,3.1c0.6,1.1,1.2,2.2,1.7,3.3c1.3,2.5,1.9,5.4,1.9,8.6c0,2.5-0.5,4.9-1.5,7.1
	c-0.6,1.1-1.3,2.1-2.4,2.8c-0.9,0.7-2,1-3.2,1.1v0.2l-0.4-0.1c-0.8-0.1-2-0.4-2.7-0.8c-0.5-0.3-0.8-0.7-1-1.1l0,0
	c0.9,2.2,1.5,3.4,5.5,3.3c1.2-0.1,2.1-0.7,3.2-1.1c3-1.1,4.1-7.4,4.1-9.9c0-4.4-0.4-6.7-1.7-9.1c-0.5-1.1-4.3-7.9-4.6-9
	c-0.3-1.2-1.6-4-1.5-4.6C374.3,32.5,374.2,30.8,376.5,30.9z M355.1,48.8c0.1-0.4,0.2-0.7,0.4-1.1c-0.2-0.8-0.4-1.6-0.5-2.3
	c-0.4,0.6-0.7,1.2-0.9,2c-0.4,1.4-0.5,2-0.4,2.3l0.6,16.4c0,1.1-0.5,1.8-1.6,1.8c-0.7,0-1.3-0.2-1.7-0.6c-0.5-0.4-0.7-0.9-0.7-1.6
	l0-0.2l0,1.2c0,0.7,1.3,1.6,1.8,2c0.4,0.4,1.5,0.5,2.2,0.4c1.1,0,1.7-1.1,1.7-2.2l-1-16C354.7,50.8,354.7,50.2,355.1,48.8z
	 M366.3,64.1c-0.4-0.5-0.7-0.9-0.8-1c-1-1.5-1.6-4.6-3.1-9.2c-1.5-4.6-2.6-7.1-2.6-8.8l-0.1-3.3c0.3-0.6,1.3-2.7,3.1-5.9
	c2.9-5.2,2.7-5.8,2.7-5.9c0-0.7-0.6-2-1.2-2.3c-0.1,0-0.2-0.1-0.3-0.1c0.3,0.3,0.4,0.7,0.4,1.1c0,0.2,0,0.2-2.9,5.4
	c-1.8,3.2-2.9,5.2-3.1,5.8l0,3.5c0.1,1.7,0.9,4.8,2.4,9.4c1.5,4.6,2.8,7.7,3.7,9.1c0.1,0.2,0.4,0.5,0.8,1c0.4,0.6,0.8,1,1,1.5
	c0.2,0.4,0.3,0.9,0.4,1.4c0,0.6-0.2,1-0.6,1.4c-0.4,0.4-0.9,0.6-1.4,0.6c-0.6,0-1.3-0.3-1.9-1c0.9,1.6,1.2,2.4,2.2,2.4
	c0.5,0,1.8-0.3,2.2-0.7c0.4-0.4,0.6-0.9,0.6-1.4c0-0.5-0.1-1-0.4-1.4C367.1,65.2,366.8,64.7,366.3,64.1z M354.1,28.9L354.1,28.9
	l-0.1,11l0.1,1.4c0.2-0.6,0.6-1.4,1-2.4l0.1-8.6c-0.1-1.5-0.8-3.6-2.2-3.5c0,0-0.1,0-0.1,0C353.6,27.1,354,27.8,354.1,28.9z
	 M389.8,30.2L389.8,30.2l-0.2,15c0.3,0.1,0.7,0,1.2,0l0.2-13.7c0-2.6-0.5-5.3-2.7-5.3c-0.1,0-0.1,0-0.1,0
	C389.2,26.7,389.8,28,389.8,30.2z M399.3,47.7c-0.4-8.3,0.2-15.3,0.2-19.5c0-0.9-0.7-2.3-2.3-2.5c0,0,0,0-0.1,0
	c0.1,0,0.2,0.1,0.3,0.1c0.4,0.2,0.6,0.8,0.6,1.7c0,4.2-0.3,10.6,0.1,18.9c0.4,8.3,0.6,14.7,0.6,18.9c0,0.5-0.2,0.9-0.6,1.1
	c-0.4,0.2-0.8,0.4-1.4,0.4c-0.5,0-1-0.1-1.5-0.4c-0.3-0.2-0.5-0.4-0.6-0.6c0,0.1,0,0.1,0,0.2c0,0.4,1.1,1.4,1.8,1.8
	c0.5,0.3,1,0.4,1.6,0.4c0.5,0,1.5-0.5,1.8-0.7c0.4-0.3,0.1-1.4,0.1-1.8C399.9,61.3,399.7,56,399.3,47.7z M394.1,49.5l0-1.4
	c-0.3,0-0.6,0-1,0l-3.4-0.1l-0.2,6.1l0.5,9.9c0,0.7-0.2,1.3-0.5,1.7c-0.4,0.5-0.9,0.8-1.6,0.8c-0.6,0-1.2-0.3-1.5-1c0,0,0,0.1,0,0.1
	c0.3,1.6,1.7,2.2,2.7,2.3c2.4,0.1,2-1.9,2-2.6l-0.5-9.9l0.2-6.1L394.1,49.5z M408.3,45.3c0,0.5,0,1.1,0,1.7l0.1,2.6
	c0,1.1,0.1,2.1,0.2,3.2c0.1,1.1,0.2,2.2,0.3,3.4c0.1,1.2,0.3,2.3,0.5,3.2s0.4,1.9,0.6,2.7c0.3,0.9,0.7,2,1.3,2.3
	c-0.1-0.3-0.2-0.6-0.3-0.9c-0.2-0.8-0.4-1.7-0.6-2.7s-0.3-2.1-0.5-3.2c-0.1-1.2-0.2-2.3-0.3-3.4c-0.1-1.1-0.1-2.1-0.2-3.2l-0.1-2.6
	c0-0.7,0-1.2,0-1.7l0-5.8l-0.1-3.5c0-4.3,0.9-6.5,2.8-6.5h0.1c0.6,0,1.1,0.2,1.6,0.5c-0.6-1.3-1.4-1.9-2.6-1.9H411
	c-1.8,0-2.8,2.2-2.8,6.5l0.1,3.5L408.3,45.3z M417.8,31.5c-0.4-0.7-0.9-1.3-1.3-1.8c0.1,0.1,0.2,0.3,0.3,0.4
	c0.9,1.4,1.5,3.4,1.9,5.7c0.4,2.3,0.6,4.7,0.6,7.1v7.2c0,11.7-2.5,17.6-7.4,17.6c-1.5,0-2.7-0.6-3.8-1.7c1.2,2,2.8,3,4.8,3
	c4.9,0,7.4-5.9,7.4-17.6v-7.2c0-2.4-0.2-4.7-0.6-7.1C419.3,34.9,418.7,32.9,417.8,31.5z M431.1,35v-2.9c0.5,0,0.9,0.2,1.2,0.4
	c0,0,0.1,0.1,0.2,0.1c-0.5-0.7-1-1.2-1.5-1.5c-0.3-0.2-0.7-0.3-1.2-0.4v2.9l-0.4,10.4c0.5-0.2,1-0.4,1.5-0.8L431.1,35z M434.5,28.1
	c0.5,0.3,0.9,0.7,1.3,1.1c1.6,1.6,2.1,3.9,2.1,6.2c0,2.8-0.4,6-1.4,7.4c-1.5,2.2-3.2,3.5-3.6,3.8c-1,0.6-2.1,1.2-3.4,1.6v6.1
	l0.5,11.4c0,0.6-0.2,1.1-0.6,1.5c-0.4,0.4-0.9,0.6-1.5,0.6H426l-0.1-0.3c0-0.1,0-0.2,0-0.2c0,0.2,0,0.3,0,0.5l1.1,1.4h1.8
	c0.6,0,1.1-0.2,1.5-0.6c0.4-0.4,1-0.9,1-1.5l-0.5-11.4v-6.1c1.3-0.4,1.8-0.7,2.8-1.3c0.5-0.3,2.5-1.7,2.8-2
	c2.2-2.3,2.8-7.2,2.8-10.1c0-2.3-1-3.7-1.8-5.4C436.9,29.7,435.8,28.7,434.5,28.1z M452.3,49.1c-0.5-1.1-1.1-2.1-1.7-3.3
	c-0.6-1.1-2.7-5-3-6.2c-0.3-1.2-0.5-2.1-0.5-2.9c0-0.8,0-1.5,0.1-2.1c0.4-2.5,1.1-3.8,2.1-3.9c0.4,0.2,3.2,1.7,3.6,1.7
	c1.2,0,1.9-1.6,1.9-2.7c0-0.1-0.1-0.2-0.2-0.3c0,0,0,0.1,0,0.1c0,1.1-1.2,1.7-2.4,1.7c-0.5,0-2.6-2.8-4.3-1.8
	c-1.7,0.9-1.7,1.4-2.1,3.9c-0.1,0.6-0.1,1.3-0.1,2.1c0,0.8,0.2,1.7,0.5,2.9c0.3,1.2,0.8,2.2,1.3,3.1c0.5,0.9,1.1,2,1.7,3.1
	c0.6,1.1,1.2,2.2,1.7,3.3c1.3,2.5,1.9,5.4,1.9,8.6c0,2.5-0.5,4.9-1.5,7.1c-0.6,1.1-1.3,2.1-2.4,2.8c-0.9,0.7-2,1-3.2,1.1v0.2
	l-0.4-0.1c-0.8-0.1-2-0.4-2.7-0.8c-0.4-0.3-0.7-0.6-0.9-1c0.1,0.5,0.2,1.1,0.5,1.6c1.1,1.7,4.8,1.4,4.8,1.4c1.2-0.1,2.3-0.5,3.2-1.1
	c1-0.7,1.8-1.7,2.4-2.8c1-2.2,1.5-4.6,1.5-7.1C454.2,54.5,453.6,51.6,452.3,49.1L452.3,49.1z M142,56.9c0-3.8,0.4-7,1.9-10
	c-0.1-0.6-0.2-1.2-0.3-1.9c-1.7,3.1-2.5,6.6-2.5,10.6c0,2.3,0.5,4.1,1.4,5.6C142.1,60,142,58.5,142,56.9z M146.3,33l0-5.4
	c0.3-0.6,0.5-1,0.7-1.2c0.4,0.1,0.6,0.5,0.8,1.1c0-0.3,0.1-0.6,0.1-0.8c0-1.5-0.7-1.7-1.3-1.8c-0.2,0.2-0.4,0.5-0.7,1.2l-0.4,2.9
	l0.1,6.3C145.6,34.9,145.9,33.9,146.3,33z M48.8,25.6l-0.5-0.1l0,0.1H48.8z M62,63.7c-0.2-0.3-0.3-0.8-0.3-1.5l0.3-10.9
	c0-1.2,0-2.6-0.1-4c0,0,2.8-0.3,3.4-0.3c0.7,0,1.9-0.9,1.9-1.6c0-0.8-0.4-2.7-2.4-3.1c0.6,0.4,0.8,1,0.8,1.5c0,0.7-0.2,1.3-0.6,1.8
	c-0.4,0.5-3,0.6-3.5,0.3h-1c0.1,1.4,0.1,2.7,0.1,4l-0.3,10.9C60.3,63.5,61.5,63.7,62,63.7z M146,55.8c0.4,1.4,0.9,2.6,1.5,3.7
	c0.7,1.4,1.4,2.4,2.1,3.2c0.2-0.1,0.4-0.2,0.6-0.4c-0.2-0.2-0.5-0.6-1-1.1c-0.7-0.8-1.5-1.9-2.2-3.2C146.6,57.4,146.3,56.6,146,55.8
	z M156.8,58.9c1-3.2,0.9-3.8,0.6-4.1c0,0,0,0,0,0c0.1-1.3,0.1-2.4,0.1-3.4l1.7,0c2.4,0,3.1-0.7,3.1-2c0-0.6,0.2-1.9-0.9-2.5
	c0.1,0.2,0.1,0.5,0.1,0.7c0,1.3-1.2,2-3.7,2h-1.1c0,1-0.1,2.2-0.1,3.4c0,0,0,0,0,0c0.2,0.3,0.4,0.8-0.6,4.1
	c-0.7,2.4-1.3,3.9-1.7,4.8c0.4,0.4,0.7,0.6,1.1,0.9C155.8,61.8,156.2,60.5,156.8,58.9z M22.8,38c-0.1,1.2-0.1,2.2-0.1,2.9
	c0.1,0,0.3-0.1,0.4-0.1c0.4-0.1,0.8-0.2,1.2-0.3c0-0.3,0-0.6,0.1-1c0.1-1.5,0.1-2.7,0.1-3.5l-0.1-9.5c0.1,0,2.8,0,2.8,0
	c2.6,0,3.1-1.2,3.1-2.2c0-0.7-0.5-2-1.2-2.4c-0.1,0-0.1-0.1-0.2-0.1c0.2,0.3,0.3,0.6,0.3,1c0,1.6-2.8,2.2-4.6,2.2L22.8,25
	c-0.1,0-0.2,0-0.2,0l0.5,9.5C23,35.3,22.9,36.5,22.8,38z M147.9,37.3c-0.3,0.5-0.6,1-0.8,1.4c-0.8,1.1-0.9,1.6-0.9,1.8
	c0,1.9,0.7,5.3,2.2,10.2c0.9,3,1.7,5.3,2.5,6.9c-0.5-1.4-1.1-3.1-1.7-5.1c-1.5-4.9-2.2-8.3-2.2-10.2c0-0.2,0.1-0.3,0.9-1.4
	c0.3-0.4,1-2.2,1.3-2.7c2.7-5.1,3.3-7.3,3.7-10c0.3-2.2-0.6-4.5-2.1-5.8c1.5,2,0.7,5.4,0.7,5.4C151.5,28.2,148.2,36.7,147.9,37.3z
	 M100,66.3L100,66.3l0-0.1L100,66.3z M95,30.2c-0.4-0.2-0.6-0.6-0.8-1c-0.1,0.1-0.1,0.1-0.1,0.2c0,0.5-0.1,3,5.7,3.2
	c0-0.9,0-1.6,0-2.1C96.8,30.3,95.4,30.5,95,30.2z M85.2,59.1c0-1.9,0.1-3.8,0.1-5.9c0-0.3-0.1-0.6-0.2-0.9c-0.5-2.5-2.1-6.2-3.5-11
	c-1.3-4.8-2.3-8.5-2.9-11.1c-0.4-1.5-1.5-3.6-2.6-3.6c-0.1,0-0.1,0-0.2,0c0.6,0.3,1.1,1,1.4,2.1c0.5,2.6,1.5,6.3,2.9,11.1
	c1.4,4.8,2.3,8.5,2.8,11.1c0.4,1.2,0.8,3,1.4,5.4C84.7,57.4,84.9,58.3,85.2,59.1z M88.5,26.7c-0.1-0.1-0.3,0-0.5,0.1
	c0.1,0.1,0.3,0.1,0.4,0.2c0.7,0.5,1.1,1.3,1.1,2.3c0,5.5-0.2,12.6-0.5,21.2c-0.3,8.7-0.8,14-1.4,16.2l-0.1,0.2L87.3,67
	c-0.1,0-0.2,0.1-0.5,0.2c-0.3,0.1-0.5,0.2-0.6,0.2c-0.5,0.1-0.9,0.2-1.2,0.2c-0.6,0-1-0.1-1.2-0.4c-0.1-0.1-0.1-0.2-0.2-0.3
	c0,0,0,0,0,0.1c0.1,0.6,1.1,1.3,1.5,1.7c1.6,1.5,4.2,0.1,4.2,0.1l0.2-1.8c0.6-2.2,1.2-6.4,1.5-15.1c0.3-8.6,0.3-15.1,0.3-20.6
	C91.4,30.2,89.2,27.3,88.5,26.7z M25.3,44.7L25.3,44.7l-1.5-0.1c-0.3,0-0.5,0.1-0.7,0.2v18c0.6,0,1.1-0.1,1.5-0.1V46.4
	c0.2-0.1,0-0.2,0.3-0.2l2.5,0.1c0.6,0,1.1-0.2,1.4-0.7c0.3-0.4,0.5-0.9,0.5-1.5c0-0.6-0.7-2.1-1.1-2.5c-0.1-0.1-0.2-0.1-0.3-0.1
	c0.2,0.3,0.3,0.7,0.3,1.1c0,0.6-0.2,1.1-0.5,1.5C27.3,44.6,25.6,44.7,25.3,44.7z M119.8,30.9c0.4,0.2,2.2,2,2.6,2.2
	c2.1,1.1,2.9-1.5,2.9-2.6c0-0.2-0.1-0.4-0.1-0.6c-0.2,0.9-1.3,1.4-2.4,1.4c-0.5,0-2.6-2.8-4.3-1.8c-1.7,0.9-1.7,1.4-2.1,3.9
	c-0.1,0.6-0.1,1.3-0.1,2.1c0,0.8,0.2,1.7,0.5,2.9c0.3,1.2,0.8,2.2,1.3,3.1c0.5,0.9,1.1,2,1.7,3.1c0.6,1.1,1.2,2.2,1.7,3.3
	c1.3,2.5,1.9,5.4,1.9,8.6c0,2.5-0.5,4.9-1.5,7.1c-0.6,1.1-1.3,2.1-2.4,2.8c-0.9,0.7-2,1-3.2,1.1v0.2l-0.4-0.1
	c-0.8-0.1-2-0.4-2.7-0.8c-0.5-0.3-0.8-0.7-1-1.1l0,0c0.9,2.2,1.5,3.4,5.5,3.3c1.2-0.1,2.1-0.7,3.2-1.1c3-1.1,4.1-7.4,4.1-9.9
	c0-4.4-0.4-6.7-1.7-9.1c-0.5-1.1-4.3-7.9-4.6-9c-0.3-1.2-1.6-4-1.5-4.6C117.6,32.5,117.5,30.8,119.8,30.9z M161.6,64.3L161.6,64.3
	l0,0.2c0,1.2-0.6,1.7-1,1.9c-0.6,0.3-1.4,0.4-2.4,0.4c-1.9,0-3.8-0.7-5.8-2.2c-2.1,1.5-4.1,2.2-6,2.2c-1.9,0-3.5-0.5-4.9-1.6
	c-0.7-0.6-1.5-1.2-2.2-1.9c0.7,1.4,1.7,2.7,2.9,3.7c1.3,1.1,3,1.6,4.9,1.6c1.8,0,3.8-0.7,6-2.2c2,1.4,3.9,2.2,5.8,2.2
	c1,0,1.8-0.1,2.4-0.4c0.5-0.2,1-0.7,1-1.9l-0.7-2.1L161.6,64.3z M108.2,27.1c0.5,0.4,0.6,1,0.6,1.4c0,0.6-0.3,1.6-0.8,2
	c-0.5,0.3-1,0.5-1.6,0.5l-3-0.4l0,0.3c0,3.7-0.2,8.9,0.5,16.4c0.7,7.5,0,13.3,0,17.1c0,0.6-0.2,1.1-0.7,1.5
	c-0.4,0.4-0.9,0.6-1.5,0.6h-1.5l1.2,1.5h1.7c0.6,0,1.1-0.2,1.5-0.6c0.4-0.4,0.7-0.9,0.7-1.5c0-3.8,0.3-11.6-0.1-19.2
	c-0.2-4.7-0.4-7.1-0.4-10.8l0.4-3l3.1-0.4c0.6,0,0.7-0.7,1.1-1c0.5-0.4,0.8-0.9,0.8-1.5C110.2,29.4,109.6,27.5,108.2,27.1z
	 M42.7,52.7c-0.8-5.6-1.7-11.3-3.1-17.6c0-0.2-0.2-1.5-0.3-2.2c-0.1-0.7-0.6-1.1-0.8-1.6c-0.1-0.5-0.3-1.1-0.5-1.7
	c-0.2-0.7-0.7-1.9-1.1-2.3c-0.5-0.5-1.4-1.2-2.1-1.3c0.3,0.1,0.6,0.3,0.9,0.5c0.4,0.4,0.7,0.9,0.9,1.6c0.2,0.6,0.4,1.2,0.5,1.7
	c0.1,0.5,0.2,1.1,0.3,1.8c0.1,0.7,0.2,1.1,0.2,1.3c1.8,8.3,3.3,16.3,4.5,23.8C42.4,55.6,42.6,54.2,42.7,52.7z M50.9,25.9l-0.9-0.1
	c0.6,0.2,0.7,0.7,0.7,1c0,2.3-0.5,5.2-1.4,8.6c-0.9,3.4-1.5,5.7-1.7,7c-0.2,1.2-0.4,3.1-0.7,5.5c-0.2,2.4-0.4,4.2-0.6,5.1
	c-0.1,1-0.4,2.2-0.8,3.6c-0.4,1.4-0.6,2.4-0.7,2.8c-0.1,0.5-0.2,1.1-0.2,1.8c0,0.8-0.1,1.4-0.2,2c-0.1,0.6-0.2,1.2-0.4,1.9
	c-0.6,1.9-1.9,2.3-2.8,2.3h-0.1l-1.6-1.1v-0.2c0-0.6,0-1.2,0-1.8c0,0.6,0,1.2,0,1.9l0.7,1.3l1.7,1.4l0.8,0.1c1,0,2.3-0.6,3.3-2.3
	c1-1.7,1.8-11.2,1.9-12.2c0.1-1,0.5-2,0.7-4.5c0.2-2.4,0.7-4.6,0.9-5.8c0.2-1.2,0.4-3.9,1.4-7.3c1-3.4,1.5-6.5,1.5-8.8
	C52.4,27.6,52.5,25.9,50.9,25.9z M30.3,63.8c0.2,0.2,0.4,0.5,0.4,0.8l0,0.4c-0.3,0.6-0.8,1.1-1.6,1.4c-0.8,0.4-2.6,0.5-2.8,0.5
	c-0.5,0-1.2,0.1-2,0.1h-1.9c-1.6,0-2.6-0.3-3.1-1c0,0.1,0,0.2,0,0.3c0.4,0.7,2.5,2.2,4.2,2.2c0,0,4.3,0,4.8-0.1c0.5,0,2.4,0.1,3.4-2
	l0-0.4C31.7,64.8,31.1,64.1,30.3,63.8z M67.4,28.7c0,1-2.1,2.3-2.1,2.3l-0.1,0c-1.2-0.4-4.4-0.4-4.6-0.4c0,0.7,0.1,1.4,0.1,2.2
	l-0.3,8.6c0,0,0,0.2,0.1,0.5l1.3-0.1l0.2-7.6c0-0.7,0-1.4-0.1-2.1c1.1,0.2,4.3,0.4,4.3,0.4c1.3-0.5,2-1.2,2-2.2c0-0.7-0.3-1.8-1-2.4
	C67.3,28.1,67.4,28.4,67.4,28.7z M66.3,63.9c0.7,0.4,0.9,1,0.9,1.5c0,0.7-0.3,1.3-1,1.7c-0.6,0.3-1.2,0.5-2,0.5h-5.7
	c-0.6,0-1.1-0.2-1.6-0.6c-0.1-0.1-0.2-0.2-0.3-0.3c0.2,0.6,0.6,1.1,0.9,1.4c0.4,0.4,1.7,1,2.3,1h5.7c0.7,0,1.4-0.2,2-0.5
	c0.6-0.3,0.5-1.7,0.4-2.4C67.8,64.8,67.1,64.2,66.3,63.9z M77.6,41.9c-0.5-2.3-1-4.1-1.3-5.5v6.2l0.4,15.5V65c0,0.6-0.2,1.1-0.5,1.6
	c-0.3,0.5-0.8,0.7-1.4,0.7c-0.7,0-1.2-0.3-1.6-0.8c0.6,1.5,1.9,2.3,3,2.3c0.6,0,1.1-0.2,1.4-0.7c0.3-0.4,0.5-1,0.5-1.6v-6.8
	l-0.4-15.5V41.9z"/>
</svg>
