<?xml version="1.0" encoding="utf-8"?>
<!-- Generator: Adobe Illustrator 19.0.0, SVG Export Plug-In . SVG Version: 6.00 Build 0)  -->
<svg version="1.1" id="Layer_1" xmlns="http://www.w3.org/2000/svg" xmlns:xlink="http://www.w3.org/1999/xlink" x="0px" y="0px"
	 width="62.3px" height="96.7px" viewBox="-896.1 464.6 62.3 96.7" style="enable-background:new -896.1 464.6 62.3 96.7;"
	 xml:space="preserve">
<style type="text/css">
	.st0{fill:#FFFFFF;stroke:#BFBFBF;stroke-width:2;stroke-miterlimit:10;}
	.st1{fill:none;}
	.st2{fill:#8ECEC5;}
</style>
<path class="st0" d="M-884.5,559L-884.5,559c-4.7,0-8.5-3.8-8.5-8.5l0,0c0-4.7,3.8-8.5,8.5-8.5l0,0c4.7,0,8.5,3.8,8.5,8.5l0,0
	C-876,555.1-879.8,559-884.5,559z"/>
<g>
	<path class="st1" d="M-849.4,496c-1.1,0.4-1.7,1.1-1.8,2.1c-0.1,1.2,0.6,2.5,1.7,3.2c1,0.7,2.2,0.8,3.5,0.3c-0.8-2-1.8-3.9-2.8-5.9
		C-849.1,495.9-849.2,496-849.4,496z"/>
	<path class="st1" d="M-865.1,549.1c10.5-5.6,20-16.6,22.2-28c0.7-3.4,0.4-7.2-0.5-11.1c-4.6,1.5-10.5,1.8-16.5,2.1
		c-7.2,0.4-14.6,0.8-20.9,3c-6.3,2.4-10.6,6.4-12.4,11.9c-2.1,6.5-0.3,14.4,4.9,21.8c2.8,4,6.3,4.6,10.2,4.1"/>
	<path class="st1" d="M-838.8,494.6c-2-0.5-4.9-0.4-8.1,0.6c1,1.8,1.9,3.7,2.7,5.6C-842.7,499.8-840.2,497.8-838.8,494.6z"/>
	<path class="st1" d="M-837,495.5L-837,495.5c-1.7,3.8-4.7,6.1-6.5,7.2c0.6,1.6,1.1,3.1,1.6,4.7c3.3-1.5,5.6-4,6.1-8.1
		C-835.6,497.6-836,496.3-837,495.5z"/>
	<path class="st2" d="M-835.8,493.9c-0.2-0.1-0.4-0.3-0.5-0.4c0.2-0.6,0.3-1.2,0.4-1.8c0.9-6.4-2.3-13.4-9.6-21l-1.5,1.4
		c6.8,7.1,9.9,13.6,9,19.3c-0.1,0.5-0.2,0.9-0.3,1.3c-2.8-0.8-6.4-0.3-9.7,0.7c-8.2-15-20.4-27.9-21.2-28.8l-1.4,1.4
		c0.2,0.2,12.5,13.2,20.8,28.1c-0.1,0-0.2,0.1-0.2,0.1c-1.8,0.7-2.9,2.1-3.1,3.8c-0.2,1.9,0.8,4,2.5,5.1c1.6,1,3.4,1.2,5.3,0.5
		c0.6,1.5,1.1,3,1.5,4.5c-4.3,1.4-10,1.7-16.1,2.1c-7.3,0.4-14.9,0.8-21.5,3.1c-7,2.5-11.7,7-13.7,13c-2.3,7.1-0.4,15.7,5.2,23.5
		c2.4,3.3,5.1,5.1,9.8,5.1c0.7,0,1.3,0,2-0.1v-2c-3.9,0.4-7.4-0.2-10.2-4.1c-5.2-7.3-7-15.3-4.9-21.8c1.7-5.4,6-9.5,12.4-11.7
		c6.3-2.2,13.7-2.6,20.9-3c6-0.3,11.9-0.7,16.5-2.1c0.9,3.9,1.2,7.7,0.5,11.1c-2.2,11.4-11.7,22.4-22.2,27.9v2.3
		c11.3-5.6,21.7-17.2,24.2-29.8c0.8-3.8,0.5-8-0.5-12.2c4.1-1.7,6.9-4.7,7.6-9.8C-833.4,496.5-834.7,494.8-835.8,493.9z
		 M-849.6,501.4c-1.1-0.7-1.8-2.1-1.7-3.2c0.1-1,0.7-1.7,1.8-2.1c0.2-0.1,0.3-0.1,0.5-0.2c1,1.9,2,3.9,2.8,5.9
		C-847.4,502.1-848.6,502-849.6,501.4z M-844.3,500.8c-0.8-1.9-1.7-3.8-2.7-5.6c3.2-0.9,6.1-1.1,8.1-0.6
		C-840.2,497.8-842.7,499.8-844.3,500.8z M-835.8,499.3c-0.5,4.1-2.8,6.5-6.1,8.1c-0.4-1.6-1-3.1-1.6-4.7c1.8-1.1,4.8-3.4,6.5-7.2
		l0,0C-836,496.3-835.6,497.6-835.8,499.3z"/>
</g>
</svg>
