<?xml version="1.0" encoding="utf-8"?>
<!-- Generator: Adobe Illustrator 19.0.0, SVG Export Plug-In . SVG Version: 6.00 Build 0)  -->
<svg version="1.1" id="Layer_1" xmlns="http://www.w3.org/2000/svg" xmlns:xlink="http://www.w3.org/1999/xlink" x="0px" y="0px"
	 width="63.3px" height="98.4px" viewBox="0 0 63.3 98.4" style="enable-background:new 0 0 63.3 98.4;" xml:space="preserve">
<style type="text/css">
	.st0{fill:none;stroke:#BFBFBF;stroke-width:2;stroke-miterlimit:10;}
	.st1{fill:none;}
	.st2{fill:#8ECEC5;}
</style>
<path id="XMLID_14_" class="st0" d="M10.9,97.4L10.9,97.4C5.4,97.4,1,93,1,87.5l0,0c0-5.5,4.4-9.9,9.9-9.9l0,0
	c5.5,0,9.9,4.4,9.9,9.9l0,0C20.8,92.9,16.3,97.4,10.9,97.4z"/>
<g>
	<path class="st1" d="M47.7,31.4c-1.1,0.4-1.7,1.1-1.8,2.1c-0.1,1.2,0.6,2.5,1.7,3.2c1,0.7,2.2,0.8,3.5,0.3c-0.8-2-1.8-3.9-2.8-5.9
		C48,31.3,47.9,31.4,47.7,31.4z"/>
	<path class="st1" d="M32,84.5c10.5-5.6,20-16.6,22.2-28c0.7-3.4,0.4-7.2-0.5-11.1c-4.6,1.5-10.5,1.8-16.5,2.1
		c-7.2,0.4-14.6,0.8-20.9,3C10,52.9,5.7,56.9,3.9,62.4c-2.1,6.5-0.3,14.4,4.9,21.8c2.8,4,6.3,4.6,10.2,4.1"/>
	<path class="st1" d="M58.3,30c-2-0.5-4.9-0.4-8.1,0.6c1,1.8,1.9,3.7,2.7,5.6C54.4,35.2,56.9,33.2,58.3,30z"/>
	<path class="st1" d="M60.1,30.9L60.1,30.9c-1.7,3.8-4.7,6.1-6.5,7.2c0.6,1.6,1.1,3.1,1.6,4.7c3.3-1.5,5.6-4,6.1-8.1
		C61.5,33,61.1,31.7,60.1,30.9z"/>
	<path class="st2" d="M61.3,29.3c-0.2-0.1-0.4-0.3-0.5-0.4c0.2-0.6,0.3-1.2,0.4-1.8c0.9-6.4-2.3-13.4-9.6-21l-1.5,1.4
		c6.8,7.1,9.9,13.6,9,19.3c-0.1,0.5-0.2,0.9-0.3,1.3c-2.8-0.8-6.4-0.3-9.7,0.7C40.9,13.8,28.7,0.9,27.9,0l-1.4,1.4
		C26.7,1.6,39,14.6,47.3,29.5c-0.1,0-0.2,0.1-0.2,0.1c-1.8,0.7-2.9,2.1-3.1,3.8c-0.2,1.9,0.8,4,2.5,5.1c1.6,1,3.4,1.2,5.3,0.5
		c0.6,1.5,1.1,3,1.5,4.5c-4.3,1.4-10,1.7-16.1,2.1c-7.3,0.4-14.9,0.8-21.5,3.1c-7,2.5-11.7,7-13.7,13c-2.3,7.1-0.4,15.7,5.2,23.5
		c2.4,3.3,5.1,5.1,9.8,5.1c0.7,0,1.3,0,2-0.1v-2c-3.9,0.4-7.4-0.2-10.2-4.1c-5.2-7.3-7-15.3-4.9-21.8c1.7-5.4,6-9.5,12.4-11.7
		c6.3-2.2,13.7-2.6,20.9-3c6-0.3,11.9-0.7,16.5-2.1c0.9,3.9,1.2,7.7,0.5,11.1C52,68,42.5,79,32,84.5v2.3
		C43.3,81.2,53.7,69.6,56.2,57c0.8-3.8,0.5-8-0.5-12.2c4.1-1.7,6.9-4.7,7.6-9.8C63.7,31.9,62.4,30.2,61.3,29.3z M47.5,36.8
		c-1.1-0.7-1.8-2.1-1.7-3.2c0.1-1,0.7-1.7,1.8-2.1c0.2-0.1,0.3-0.1,0.5-0.2c1,1.9,2,3.9,2.8,5.9C49.7,37.5,48.5,37.4,47.5,36.8z
		 M52.8,36.2c-0.8-1.9-1.7-3.8-2.7-5.6c3.2-0.9,6.1-1.1,8.1-0.6C56.9,33.2,54.4,35.2,52.8,36.2z M61.3,34.7
		c-0.5,4.1-2.8,6.5-6.1,8.1c-0.4-1.6-1-3.1-1.6-4.7c1.8-1.1,4.8-3.4,6.5-7.2l0,0C61.1,31.7,61.5,33,61.3,34.7z"/>
</g>
</svg>
