<?xml version="1.0" encoding="utf-8"?>
<!-- Generator: Adobe Illustrator 19.0.0, SVG Export Plug-In . SVG Version: 6.00 Build 0)  -->
<svg version="1.1" id="Layer_1" xmlns="http://www.w3.org/2000/svg" xmlns:xlink="http://www.w3.org/1999/xlink" x="0px" y="0px"
	 width="62.3px" height="97.7px" viewBox="-448.1 232.3 62.3 97.7" style="enable-background:new -448.1 232.3 62.3 97.7;"
	 xml:space="preserve">
<style type="text/css">
	.st0{fill:#8E8E8E;}
	.st1{fill:none;}
	.st2{fill:#8ECEC5;}
</style>
<path class="st0" d="M-437.3,307.7c-5.9,0-10.7,4.8-10.7,10.6c0,5.9,4.8,10.7,10.7,10.7s10.6-4.8,10.6-10.7
	C-426.7,312.5-431.5,307.7-437.3,307.7z M-438.4,327.6c-4.5,0-8.2-3.7-8.2-8.2s3.7-8.2,8.2-8.2s8.2,3.7,8.2,8.2
	S-433.9,327.6-438.4,327.6z"/>
<g>
	<path class="st1" d="M-401.4,263.7c-1.1,0.4-1.7,1.1-1.8,2.1c-0.1,1.2,0.6,2.5,1.7,3.2c1,0.7,2.2,0.8,3.5,0.3
		c-0.8-2-1.8-3.9-2.8-5.9C-401.1,263.6-401.2,263.7-401.4,263.7z"/>
	<path class="st1" d="M-417.1,316.8c10.5-5.6,20-16.6,22.2-28c0.7-3.4,0.4-7.2-0.5-11.1c-4.6,1.5-10.5,1.8-16.5,2.1
		c-7.2,0.4-14.6,0.8-20.9,3c-6.3,2.4-10.6,6.4-12.4,11.9c-2.1,6.5-0.3,14.4,4.9,21.8c2.8,4,6.3,4.6,10.2,4.1"/>
	<path class="st1" d="M-390.8,262.3c-2-0.5-4.9-0.4-8.1,0.6c1,1.8,1.9,3.7,2.7,5.6C-394.7,267.5-392.2,265.5-390.8,262.3z"/>
	<path class="st1" d="M-389,263.2L-389,263.2c-1.7,3.8-4.7,6.1-6.5,7.2c0.6,1.6,1.1,3.1,1.6,4.7c3.3-1.5,5.6-4,6.1-8.1
		C-387.6,265.3-388,264-389,263.2z"/>
	<path class="st2" d="M-387.8,261.6c-0.2-0.1-0.4-0.3-0.5-0.4c0.2-0.6,0.3-1.2,0.4-1.8c0.9-6.4-2.3-13.4-9.6-21l-1.5,1.4
		c6.8,7.1,9.9,13.6,9,19.3c-0.1,0.5-0.2,0.9-0.3,1.3c-2.8-0.8-6.4-0.3-9.7,0.7c-8.2-15-20.4-27.9-21.2-28.8l-1.4,1.4
		c0.2,0.2,12.5,13.2,20.8,28.1c-0.1,0-0.2,0.1-0.2,0.1c-1.8,0.7-2.9,2.1-3.1,3.8c-0.2,1.9,0.8,4,2.5,5.1c1.6,1,3.4,1.2,5.3,0.5
		c0.6,1.5,1.1,3,1.5,4.5c-4.3,1.4-10,1.7-16.1,2.1c-7.3,0.4-14.9,0.8-21.5,3.1c-7,2.5-11.7,7-13.7,13c-2.3,7.1-0.4,15.7,5.2,23.5
		c2.4,3.3,5.1,5.1,9.8,5.1c0.7,0,1.3,0,2-0.1v-2c-3.9,0.4-7.4-0.2-10.2-4.1c-5.2-7.3-7-15.3-4.9-21.8c1.7-5.4,6-9.5,12.4-11.7
		c6.3-2.2,13.7-2.6,20.9-3c6-0.3,11.9-0.7,16.5-2.1c0.9,3.9,1.2,7.7,0.5,11.1c-2.2,11.4-11.7,22.4-22.2,27.9v2.3
		c11.3-5.6,21.7-17.2,24.2-29.8c0.8-3.8,0.5-8-0.5-12.2c4.1-1.7,6.9-4.7,7.6-9.8C-385.4,264.2-386.7,262.5-387.8,261.6z
		 M-401.6,269.1c-1.1-0.7-1.8-2.1-1.7-3.2c0.1-1,0.7-1.7,1.8-2.1c0.2-0.1,0.3-0.1,0.5-0.2c1,1.9,2,3.9,2.8,5.9
		C-399.4,269.8-400.6,269.7-401.6,269.1z M-396.3,268.5c-0.8-1.9-1.7-3.8-2.7-5.6c3.2-0.9,6.1-1.1,8.1-0.6
		C-392.2,265.5-394.7,267.5-396.3,268.5z M-387.8,267c-0.5,4.1-2.8,6.5-6.1,8.1c-0.4-1.6-1-3.1-1.6-4.7c1.8-1.1,4.8-3.4,6.5-7.2l0,0
		C-388,264-387.6,265.3-387.8,267z"/>
</g>
</svg>
