<?xml version="1.0" encoding="utf-8"?>
<!-- Generator: Adobe Illustrator 24.2.3, SVG Export Plug-In . SVG Version: 6.00 Build 0)  -->
<svg version="1.1" id="Layer_1" xmlns="http://www.w3.org/2000/svg" xmlns:xlink="http://www.w3.org/1999/xlink" x="0px" y="0px"
	 viewBox="0 0 342.9 96.6" style="enable-background:new 0 0 342.9 96.6;" xml:space="preserve">
<style type="text/css">
	.st0{fill:#999999;}
</style>
<g>
	<path d="M22.6,28.6c-0.4-1.4-1.9-2.8-3.2-3l-0.1,0.6c0,1.1,0,2.3,0.1,3.9c0,0.9,0.1,2,0.1,3.2c0.1,3,0.1,5.4,0.1,7
		c0.9-0.7,2.6-2.5,3.9-6.2C24,32.5,23.3,30.5,22.6,28.6z M44.7,47.1c-0.1-0.9-0.3-1.9-0.5-2.9c-0.2-1.1-0.5-2.1-0.6-3.4
		c-0.2-1.4-0.5-2.7-0.7-3.7l0-0.1c-0.2,1-0.6,2.7-1.1,4.5c-0.3,2.4-0.5,3.9-0.7,5c-0.2,1.5-0.4,2.3-0.4,3.9c0.4,0.1,1.2,0.1,2.1,0.1
		c0.7,0,1.5,0,2.4,0.1c-0.1-0.6-0.1-1.4-0.1-2.4C44.8,48,44.7,47.7,44.7,47.1z M258.6,10.6c-7.9,0.3-33.9,0.4-65.3,0.2
		C183.5,3.4,170.3,0,163.8,0c-7.5,0.1-15.5,1.3-23,3.9c7.2-2,14.7-2.2,21.9-1.5c7.5,0.7,29.3,5.3,35.9,24.7
		c7,20.5,0.6,38.3-0.4,41.1c-1.9,5-6.4,11.2-12.2,16.6c-5,4.7-11.8,7.6-20.8,8.3c-24.2,2-45-8.1-52.7-31.2
		c-5.7-17.2,0.9-34.6,4.2-39.9c3.4-5.3,7.3-9.3,11.7-12.3c-40-1.2-75.5-2.7-83.8-2C30.7,8.9,9,10.1,5.4,12.2c-5,3-4.2,22-5.2,29.3
		c-1,7.3,2.2,21.8,4,30c1.8,8.2,12.4,9.9,21.4,9.1c4.3-0.4,43.9,1.4,92,1c1.1,0,2.3,0,3.4,0c11.6,12.5,29.9,16.3,48.1,14.7
		c9.3-0.8,18-3.6,23.2-8.5c3.2-3,5.8-5.7,8-8.4c15.2-0.7,25.6-1.4,27.4-1.7c8.6-1.6,66.8,5.3,70.7,4c3.9-1.3,10,0.5,15-5
		c3.4-3.8,5.9-26.8,6-31c0-2.8-2.4-27.6-7-32C307.7,9.2,281.2,9.9,258.6,10.6z M30.2,66.1c-0.3,0.4-0.8,0.7-1.4,0.7
		c-1.7,0-3-2.5-4.3-7.8c-0.3-1.3-0.6-2.2-1-3.3c-0.3-0.7-0.6-1.6-1-2.8c-0.8-4.4-2-6-2.7-6.9c0,0.1-0.1,0.3-0.1,0.5l-0.2,0.7
		c-0.2,1-0.2,1.9-0.2,2.7l0,0.6c0,0.2,0,0.4,0,0.7c0,0.8,0,1.8,0.2,4.6c0.3,3.5,0.4,5.9,0.4,6.9c0,1.1-0.2,2-0.6,2.6
		c-0.4,0.6-0.9,1-1.5,1c-0.6,0-1.3-0.3-1.6-1.7c0-0.9,0-1.8-0.1-2.8c-0.1-1-0.2-2.2-0.2-3.5c0-0.5,0-1,0-1.5c0-2.4,0.1-6.1-0.2-12.9
		c-0.4-8.8-0.6-14.3-0.6-18.2c0-3,1.4-3.6,2.5-3.6c1.8,0,4.4,0.3,6.3,1.8c2.5,2.1,3.9,4.3,4.1,6.8c0.2,3.1,0.2,4.3-1,6.6
		c-0.4,0.9-2,3.7-4.2,5.7c0.1,0.5,0.4,1.3,0.8,2.2c0.4,1.1,1,2.5,1.5,4.1c2.2,6.9,3.3,9.9,4.9,13.1c0.5,1,0.7,1.7,0.7,2.3
		C30.7,65.2,30.5,65.7,30.2,66.1z M49.5,66.3c0,0-0.1,0-0.1,0c-0.9,0-1.6-0.2-2.2-0.5c-0.6-0.3-0.9-1.1-0.9-2.4c0-1-0.5-6.9-1.1-9.9
		c-0.9,0.1-3.7,0.2-5.2,0c-0.2,2-0.8,9.9-0.9,10.2c-0.2,0.4-0.3,0.7-0.5,1.1c-0.4,0.8-1,1.2-1.6,1.2c-0.6,0-1.1-0.2-1.6-0.5
		c-0.5-0.4-0.7-0.9-0.7-1.5c0,0,0-0.1,0-0.1c0.8-3.2,1.4-6.6,2-10.1c0.1-0.8,0.3-1.7,0.4-2.6c0.4-2.6,0.7-5.5,1-8.1
		c0.2-1.8,0.3-3.4,0.5-4.4c0.3-1.9,0.6-2.9,0.8-3.6c0.1-0.4,0.2-0.7,0.2-1c0.1-0.7,0.2-1.6,0.3-2.9c0.2-2.9,0.6-4.7,1.1-5.5
		c0-0.1,0.1-0.1,0.2-0.1L43,25c0,0,0.1,0,0.1,0c1.3,0,2.1,0.2,2.1,1.4c0,6.1,1.3,12.5,2.6,18.6c0.3,1.5,0.6,3.1,0.9,4.6
		c0.1,0.4,0.2,1.1,0.4,1.8c0.5,1.8,0.7,3.2,0.7,4.2c0,0,0,0.1,0,0.1l-0.3,1.2c0,0.5,0.2,1.7,0.5,3.5c0.4,1.9,0.5,3.2,0.5,3.8
		C50.7,65.6,50.1,66.1,49.5,66.3z M71.5,40.1c0,0,0,0.1,0,0.1c-0.2,1.1-0.2,2.5-0.2,4.8l0,1.8c0,3.4-0.1,6.2-0.3,8.3
		c-0.2,2.2-0.6,4.2-1,5.6c-0.3,1.4-1.1,2.8-2.2,4.2c-1,1.2-2.1,1.8-3.4,1.8c-0.1,0-0.2,0-0.2,0c-1.1,0-2.1-0.2-2.8-0.6
		c-0.8-0.4-1.5-1.1-2-1.9c-0.5-0.8-0.9-1.7-1.3-2.6c-0.3-0.9-0.6-2-0.8-3.2c-0.3-2.1-0.5-4.3-0.6-6.7l-0.2-15.6c0-1.3,0-2.5,0.1-3.6
		c0.1-1.8,0.1-3.3-0.2-4.7c0-0.1,0-0.1,0-0.2l0.4-1.4c0-0.2,0.2-0.3,0.4-0.3c0.9,0,2,0.1,2.7,1c0.5,0.6,0.5,1.5,0.4,2.2
		c0,0.2,0,0.5,0,0.7l0.6,28.5c0,1.5,0.2,1.8,1,3.1c0.7,1.1,1.4,1.3,2.9,1.2c1.9-0.1,2.7-3.5,3-13l0-0.2l0-0.4
		c0.3-9.9,0.2-16,0.1-20.7l-0.1-1c0-0.6,0.1-1,0.4-1.3c0.3-0.3,0.8-0.5,1.5-0.5c0.7,0,1.3,0.2,1.6,0.6c0.4,0.4,0.6,0.8,0.6,1.2
		c0.1,0.4,0.1,0.8,0.1,1.4l-0.5,10.7L71.5,40.1z M98.9,65.2c-0.5,0.8-1.1,1-1.6,1c-1.5,0-2.2-1.4-2.2-4.1c0-0.1,0-12.9,0-16
		c0-1.2,0.1-3.6,0.1-7.2c0-0.2-0.1-0.2-0.2-0.2c-0.1,0-0.2,0-0.2,0.2c-0.4,2.4-0.9,5.2-1.4,8.2c-1,6.2-2.1,10.8-2.2,11.2
		c-0.1,0.4-0.3,0.7-0.4,0.9c-0.4,0.6-1,1-1.7,1c-1.3,0-1.6-1.1-1.9-2.4c0-0.2-0.1-0.4-0.2-0.6c-0.1-0.4-0.2-0.9-0.3-1.3
		c-0.6-2.2-1.2-4.5-2-9.6c-0.5-3-0.9-5.6-1.3-7.6c0,0,0-0.1-0.1-0.1c-0.1,0-0.1,0-0.1,0.1c-0.2,11.4-0.4,18.5-0.4,23l0.1,1.8
		c0,0.7-0.2,1.3-0.5,1.7c-0.3,0.4-0.9,0.7-1.6,0.7c-0.7,0-1.2-0.2-1.7-0.5c-0.5-0.4-0.7-0.9-0.7-1.5c0-0.2,0-0.7,0.1-1.7
		c0.1-2.1,0.3-6.2,0.6-12.6c0.4-9.4,0.7-16.6,0.7-21.4c0.1-1.1,0.2-1.9,0.5-2.3c0.3-0.4,0.8-0.7,1.4-0.7c0.6,0,0.9,0,1.1,0.1
		c0.2,0.1,0.4,0.3,0.6,0.5c0.1,0.2,0.2,0.4,0.3,0.5c0.1,0.2,0.5,1.5,0.5,1.5c0,0,0.1,0.3,0.1,0.7c0.2,1.1,0.7,3.5,1.1,5.3
		c0.5,2.4,1.1,5.6,1.7,9.4c0.2,1.2,0.5,2.4,0.8,3.8c0.4,1.8,0.9,3.9,1.2,6.1c0,0.3,0.2,0.4,0.2,0.4c0,0,0.1-0.1,0.1-0.2
		c0.4-2.7,0.8-5.3,1.1-7.8c0.3-2.2,0.5-4.3,0.8-6.4c0.7-4.6,1.3-7.2,1.5-8.2c0.1-0.3,0.1-0.5,0.1-0.5c0-0.4,0.4-2.3,0.5-2.5
		c0.1-0.2,0.6-1.2,0.9-1.4c0.8-0.8,2.1-0.8,3.2-0.1c0.6,0.4,0.9,0.9,0.9,1.5c0,8.2,0.3,13.6,0.4,17.2L99,46c0.2,3.5,0.2,5.7,0.2,6.4
		L99.1,62c0.2,0.5,0.3,0.9,0.3,1.4C99.4,64,99.2,64.6,98.9,65.2z M221.5,29.1c-0.5,0.3-1,0.5-1.6,0.5l-2.8,0l-0.1,0.3
		c0,0.8,0,1.8,0,3c-0.1,3.7-0.2,8.7,0.3,14.5c0.5,5.6,0.4,10.2,0.3,13.8c0,1.2-0.1,2.4-0.1,3.3c0,0.6-0.2,1.1-0.7,1.5
		c-0.4,0.4-0.9,0.6-1.5,0.6h-1.7l-0.1-5.8l0.1-2c-0.1-0.3-0.1-0.9-0.1-2.4c0-2.2-0.1-6-0.4-11.2c-0.4-6.3-0.2-10.9-0.1-13.6
		c0-0.8,0-1.4,0-1.8c-0.7,0-1.4,0-2,0c-1.3,0-2.2,0.1-2.6-0.2c-0.7-0.4-1-0.9-1-1.4c0,0,0.1-2.2,0.8-2.6c0.5-0.3,1-0.4,1.4-0.4
		l10.7-0.2c0,0,0,0,0,0c0.7,0,1.9,0.3,1.9,2.6C222.3,28.2,222,28.7,221.5,29.1z M237.2,66.4c-0.6,0.3-1.2,0.5-2,0.5h-6.2
		c-0.6,0-1.1-0.2-1.6-0.6c-0.4-0.4-0.7-1-0.7-1.6c0-0.6,0-1.3,0.1-2.1c0.1-0.8,0.2-1.4,0.2-1.9l-0.3-7.7l0.4-17.5l-0.3-5
		c0-3.1,1-4.6,2.9-4.6c0.5,0,3.6,0.3,4.1,0.3c0.2,0,0.3,0,0.5,0c0.3,0,0.6-0.1,1,0c1.3,0.4,2,1,2,2c0,1-0.7,1.7-2,2.2l-0.1,0l-0.1,0
		c-1.2-0.4-2.2-0.4-3.2-0.4c-0.3,0-0.6,0-0.9,0c0,0.7,0.1,1.5,0.1,2.2l-0.3,8.6c0,0,0,0.2,0.1,0.5l1.8-0.1c0,0,0,0,0,0
		c2.3,0,3.7,0.8,3.7,2c0,0.7-0.2,1.3-0.6,1.8c-0.4,0.5-0.8,0.5-1.2,0.5c-0.2,0-0.5,0-0.8,0c-0.6,0-1.4,0.1-1.8-0.2h-1
		c0.1,1.4,0.1,2.7,0.1,4l-0.3,10.9c0,3,1.3,3,1.8,3l2.9-0.1c0,0,0,0,0,0c2.2,0,2.7,1,2.7,1.8C238.2,65.5,237.8,66.1,237.2,66.4z
		 M254.3,64.8c-0.4,0.4-0.8,0.6-1.2,0.6l-4.9,0.1l-2.6,0.1h0c-1.3,0-1.9-0.5-2.3-1.3l0-0.2c0-0.6,0.1-1.1,0.3-1.5
		c0.1-0.3,0.5-0.7,1.3-0.7h1.1l0.1-0.5l-0.4-12.7l0.3-13.4c0-2.1-0.1-4.1-0.3-6h-1.7c-0.8,0-1.4-0.1-1.8-0.4
		c-0.4-0.3-0.7-0.8-0.7-1.6c0-0.4,0.1-0.8,0.4-1.1c0.5-0.5,1.4-0.7,2.9-0.7h0.2c5.6,0,8.8,0.1,8.8,1.8c0,0.2-0.1,1.3-0.4,1.9
		l-0.1,0.2l-3.6,0c0.1,1.4,0.2,3,0.2,4.8l-0.3,11.5l0.4,12.7v1.8c0,0.3,0,0.7-0.1,1.2h2.1c2.3,0,2.8,1,2.8,1.9
		C254.8,63.9,254.7,64.4,254.3,64.8z M270.5,66.4c-0.4,0.3-0.9,0.5-1.4,0.6l-0.1,0l-0.1,0c-1.4-0.4-3.1-0.7-5.1-0.7
		c-1.4,0.8-2.9,0.7-3.6-0.2c-0.4-0.5-0.6-1-0.6-1.6l0.6-27.2c-0.1-1.2-0.2-3.1-0.2-5.6c0-4.1,0.8-6.1,2.5-6.1c0.5,0,1,0.2,1.3,0.5
		c0.4,0.4,0.6,0.8,0.6,1.3l-0.4,4.6l0.2,14.5l0,0.1c-0.1,0.4-0.3,1.2-0.3,3.1l-0.2,9.6c0,2.5,0.6,3.7,1.6,3.7l2.5-0.1c0,0,0,0,0,0
		c2.4,0,3.6,0.7,3.6,2.1C271.2,65.6,270.9,66.1,270.5,66.4z M286.1,66.8c-0.2,0.1-0.5,0.2-0.8,0.2c-0.3,0-0.6,0-0.8-0.1
		c-0.2,0-0.5-0.1-0.7-0.1h-5.7c-0.6,0-1.1-0.2-1.6-0.6c-0.4-0.4-0.7-1-0.7-1.6c0-0.2,0-0.4-0.1-0.6c-0.1-0.4-0.2-1-0.1-1.6
		c0.1-0.8,0.2-1.4,0.2-1.9l0-7.7l0.4-17.5l-0.3-5c0-3.1,1-4.6,2.9-4.6c0.1,0,0.2,0,0.4,0c0.5,0,1.1-0.1,1.5,0.1c1-0.1,3.1-0.2,3.8,0
		l0.4,0.1c0.9,0.2,1.6,0.4,1.6,1.3c0,1.6-0.5,2.7-1.6,3l-0.1,0l-0.1,0c-1.2-0.4-2.5-0.4-3.6-0.4c-0.4,0-0.7,0-1,0
		c0,0.7,0.1,1.5,0.1,2.2l-0.3,8.6c0,0,0,0.2,0.1,0.5l1.8-0.1c1.3,0,3.5,0,3.5,1.7c0,0.1,0,0.3,0,0.4c0,0.4,0.1,1-0.3,1.4
		c-0.4,0.5-1.1,0.8-1.9,0.8c-0.2,0-0.4,0-0.6,0.1c-0.5,0.1-1.1,0.2-1.5-0.1h-0.9c0.1,1,0.1,1.9,0,2.8c0,0.3,0,0.6,0,1l-0.3,10.9
		c0,3,1.3,3,1.8,3l2.4-0.1c2.4,0.1,2.8,0.8,2.8,2.1C286.9,65.4,286.9,66.4,286.1,66.8z M305.4,66.1c-0.3,0.4-0.8,0.6-1.3,0.6
		c-1.5,0-2.8-2.2-4-6.8c-0.3-1.1-0.6-1.9-1-2.9c-0.3-0.7-0.5-1.4-0.9-2.4c-0.8-3.8-1.9-6.1-2.5-7.3c0,0.1,0,0.1,0,0.2l-0.1,0.6
		c-0.2,0.9-0.2,2.8-0.2,3.9l0,0.6c0,0.2,0,0.4,0,0.6c0,0.7,0,1.5,0.2,4c0.2,3.1,0.4,5.1,0.4,6c0,1-0.2,1.7-0.5,2.3
		c-0.4,0.6-0.9,0.9-1.4,0.9c-0.5,0-1.2-0.3-1.5-1.5c0-0.8,0-1.6-0.1-2.5c-0.1-0.9-0.1-1.9-0.1-3.1c0-0.4,0-0.8,0-1.4
		c0-2.5,0.1-6.8-0.2-12.8c-0.3-7.3-0.5-12.8-0.5-16.4c0-2.7,1.3-3.2,2.4-3.2c2.2,0,4,0.6,5.5,1.7c1.3,1,3.3,2.6,3.6,5.9
		c0.2,2.7-0.2,4.5-0.7,6.2c-0.4,1.6-1.9,3.6-3.7,5.1c0.1,0.4,0.4,1.1,0.7,1.9c0.4,1,0.9,2.2,1.4,3.6c0.7,2.1,1.3,4,1.8,5.7
		c1,3.1,1.7,5.5,2.6,7.3c0.4,0.8,0.7,1.5,0.7,2C305.8,65.3,305.7,65.7,305.4,66.1z M298.3,31.2c-0.3-1.1-1.7-2.6-2.9-2.8l-0.1,0.5
		c0,1.5,0,3.9,0.1,7c0.1,2.6,0.1,4.6,0.1,6.1c1-0.8,2.3-2.6,3.3-5.5C299.3,35.1,299.1,33.1,298.3,31.2z M340.9,43.6
		c-1.2-0.5-2.4-1.1-4-1.3c-4,0-8.8-0.7-9.2,3c0.6,0.3,0.5,1.2,1.3,1.3c0.1,0.9,1.7,0.3,2,1c2.1,0.1,4.7-0.3,6.3,0.3
		c0.8-0.3,1.8-0.4,3-0.3c0.8-0.3,2.8,0.6,2.6-0.7v-0.3C342.4,45.4,341.6,44.6,340.9,43.6z M331.4,31.8c1.7-1.2,3.2-2.6,4.9-3.6
		c0.1-1.3,1.2-1.6,1-3.3v-0.7c-0.8-0.7-2.1-0.8-3.6-0.7c-2.9,1.3-4.9,3.4-7.2,5.3c-0.5,1.4-2.1,3.1-1,4.9
		C328,34.7,329.8,32.9,331.4,31.8z M333.7,57.6c-1-0.6-2.2-1.5-2.9-2.1c-0.6-0.4-1.1-1-1.5-1.2c-1.5-0.7-2.7-1.9-4.8-0.6
		c0.5,4.8,5,5,7.2,7.8c1.6,0.5,2.8,2.1,4.3,2.9c1.5,0.8,2.8,2,4.9,1.7C339.5,61.1,336.2,60.3,333.7,57.6z M127.1,63.5
		c-0.4,0.8-0.6,1.4-0.8,1.9c-0.3,0.7-0.3,1.8-0.4,4.3c0,1.4-0.1,1.2,0,1.9c-0.1,0.5,0.2,0.7,0.7,0.7c0.5,0,1.2,0.4,2.3,0.3
		c1.2-0.1,3.3,0.3,5.1,0.3c1.7,0,2.8-0.3,2.8-0.3s1.7-0.2,1.9-0.1c1.4,0.5,3.9,0.1,3.9,0.1c0.5,0,0.4-0.3,0.3-0.7l-0.1-2.5l0.2-1.2
		l0-1.3c0-1-0.2-1.9-0.8-2.6c-1-0.9-1.7-1.6-2.2-2c-0.3-0.3-0.6-0.8-1.1-0.4c-0.1,0.1-0.5,0.4-0.6,0.6c-0.1,0.2-0.3,0.4-0.3,0.5
		c-0.4,0.5-0.4,0.3-1.1,1c-0.2,0.2-0.7,0.6-0.7,0.5c-0.9,0.8-1,0.7-2.4,0.4c-0.2-0.1-0.4-0.2-0.5-0.4c-0.1-0.1-0.8-0.3-0.8-0.6
		c-0.1-0.2-0.3-0.1-0.5-0.5s-0.4-0.8-0.5-1c0-0.1-0.1-0.3-0.2-0.7c-0.2-0.3-0.3-0.2-0.5-0.2l-1.7,0.5l-0.1,0
		C127.9,62.2,127.3,62.8,127.1,63.5z M130.1,55.9c0.3,0.3,0.2,0.6,0.3,1c0.2,0.6,0.4,0.7,0.6,1c0.5,1.2,1.3,2,2.1,2.5
		c0.7,0.6,1.4,0.8,2.3,0.6s1.4-0.7,1.8-1.6c0.3-0.5,0.5-1,0.7-2c0-0.7,0.2-1.1,0.7-1.5c1.3-0.9,1.3-1.9,0.1-3.1
		c-0.4-0.3-0.6,0-0.7-0.8c0-0.4-0.1-1.7-0.3-2.3c-0.4-1.5-1.5-2.1-3.3-2.1c-1-0.1-2.1,0.1-3,1.1c-0.8,1.2-1.2,2.4-1.3,3.2
		c0,0.5,0.1,0.5-0.4,0.8c-0.4,0.4-0.4,0.7-0.5,1C129.3,54.9,129.4,55.7,130.1,55.9z M174.1,52.3c-0.4,0.4-0.4,0.7-0.5,1
		c0,1.2,0.1,1.7,0.8,2c0.3,0.3,0.2,0.8,0.3,1.2c0.2,0.6,0.4,1,0.6,1.3c0.5,1.2,1,1.7,1.8,2.2c0.7,0.6,1.4,0.8,2.3,0.6
		c0.8-0.2,1.7-0.7,2.1-1.6c0.3-0.5,0.5-1,0.7-2c0-0.7,0.2-1.1,0.7-1.5c1.3-0.9,1.3-1.9,0.1-3.1c-0.4-0.3-0.6-0.2-0.7-1
		c0-0.4-0.1-1.6-0.3-2.2c-0.4-1.5-1.5-1.9-3.3-1.9c-1-0.1-2.1,0.1-3,1.1c-0.8,1.2-1.2,2.1-1.3,2.9C174.6,51.9,174.6,52,174.1,52.3z
		 M173,61.3c-1,0.4-1.5,0.9-1.7,1.6c-0.4,0.8-0.7,1.4-0.8,1.9c-0.3,0.7-0.5,1.6-0.7,4.1c0,1.4,0.1,2.1,0.2,2.8
		c-0.1,0.5,0.2,0.7,0.7,0.7c0.5,0,0.8,0.3,2,0.2c1.2-0.1,3,0.3,3.5,0.3l4.5,0.2l0.4-0.3l5.4-0.6c0.5,0,0.7-0.7,0.7-1l0.2-4.9
		c0-1-0.3-1.8-0.9-2.6c-1-1-1.7-1.6-2.2-2c-0.3-0.3-0.6-0.8-1.1-0.4c-0.1,0.1-0.5,0.4-0.6,0.6c-0.1,0.2-0.3,0.4-0.3,0.5
		c-0.4,0.5-0.4,0.3-1.1,1c-0.2,0.2-0.7,0.5-0.7,0.4c-0.9,0.7-1,0.7-2.4,0.4c-0.2-0.1-0.4-0.2-0.5-0.4c-0.1-0.1-0.8-0.3-0.8-0.6
		c-0.1-0.2-0.3-0.1-0.5-0.5s-0.4-0.8-0.5-1c0-0.1-0.1-0.3-0.2-0.7c-0.2-0.3-0.3-0.2-0.5-0.2l-1.7,0.5L173,61.3z M151.8,24.6
		c-1,0.4-1.6,0.9-1.7,1.6c-0.4,0.8-0.7,1.4-0.9,1.9c-0.3,0.7-0.5,1-0.7,3.5c0,1.4,0,2.2,0.1,2.9c-0.1,0.5,0.1,0.7,0.7,0.7
		c0.5,0,1.3,0.4,2.5,0.3s2,0.3,2.5,0.3h5.4l5.7-0.4c0.5,0,0.7-0.2,0.7-0.6v-4.8c0-1-0.3-1.8-0.9-2.6c-1-1-1.7-1.7-2.2-2
		c-0.3-0.3-0.6-0.8-1.1-0.4c-0.1,0.1-0.5,0.4-0.6,0.6s-0.4,0.4-0.4,0.4c-0.4,0.5-0.4,0.3-1.1,1c-0.2,0.2-0.7,0.5-0.7,0.4
		c-1,0.7-1.1,0.7-2.4,0.3c-0.2-0.1-0.4-0.2-0.5-0.4c-0.1-0.1-0.8-0.3-0.8-0.6s-0.3-0.1-0.5-0.5c-0.2-0.5-0.4-0.8-0.5-1
		c0-0.1-0.1-0.3-0.2-0.7c-0.1-0.3-0.3-0.2-0.5-0.3l-1.7,0.4H151.8z M152.8,15.2c-0.4,0.4-0.4,0.7-0.5,1c0,1.2,0.1,1.9,0.8,2.2
		c0.3,0.3,0.2,0.6,0.3,1c0.2,0.6,0.4,1,0.6,1.3c0.5,1.2,1.3,2,2.1,2.5c0.7,0.6,1.4,0.8,2.3,0.6c0.8-0.2,1.4-0.7,1.8-1.6
		c0.3-0.5,0.5-1.3,0.7-2.3c0-0.7,0.2-1.1,0.7-1.5c1.3-0.9,1.3-1.9,0.1-3.1c-0.4-0.3-0.6-0.2-0.7-1c0-0.4-0.1-1.2-0.3-1.8
		c-0.3-1.2-1.6-1.9-3.3-1.9c-1-0.1-2.1,0.1-3,1.1c-0.8,1.2-1.2,1.7-1.3,2.5C153.2,14.8,153.3,14.9,152.8,15.2z M146.2,55.4
		c-0.1,0.1-0.2,0.2-0.4,0.3l-0.6,0.3c-0.8,0.6-0.9,1.3-0.4,2.2c0.6,1,1.4,1.4,2.3,1.2c0.1,0,0.3,0,0.5-0.1c0.2,0,0.4-0.1,0.5-0.1
		c1.2-0.4,2-0.7,2.5-0.9c0.7-0.4,1.7-0.8,3.1-1.2s2.3-0.8,2.9-1.2c0.6-0.5,1.4-0.6,2.3-0.3c1.2,0.5,1.9,0.9,2.3,1.2
		c0.1,0,0.2,0.1,0.4,0.2c0.2,0.1,0.4,0.3,0.6,0.4c0.7,0.4,1.6,1,2.8,1.7c0.1,0.1,0.2,0.2,0.4,0.3c0.2,0.1,0.3,0.2,0.4,0.3
		c0.1,0,0.2,0,0.3,0.1c0.1,0,0.2,0.1,0.3,0.1c2-0.4,2.9-1.5,2.6-3.4c-0.1-0.1-0.2-0.3-0.4-0.6l-3.1-2.2c-1.7-0.9-3.5-1.6-5.2-2.2
		c-0.6-0.2-0.9-0.6-0.9-1.2v-8.2c0-0.7-0.1-1.3-0.4-1.9c-0.3-0.5-0.8-0.8-1.7-0.9s-1.4,0-1.8,0.4c-0.1,0.1-0.2,0.3-0.4,0.7
		c-0.3,0.8-0.3,1.7-0.1,2.6c0.6,2,0.7,4.7,0.3,7.9c0,0.2-0.2,0.4-0.6,0.6c-0.4,0.2-1.4,0.6-3,1.2c-1.6,0.6-2.8,1.1-3.7,1.5
		C147.2,54.6,146.6,54.9,146.2,55.4z"/>
	<path class="st0" d="M101.2,53.4c0-0.7-0.1-2.9-0.2-6.4c0-0.8-0.1-1.6-0.1-2.3c-0.2-2.6-0.3-5.6-0.3-12.6c0-0.3-0.5-4-1.2-4.4
		c-0.1-0.1-0.2-0.2-0.4-0.4c-0.2-0.2-0.3-0.3-0.6-0.4c0.1,0.2,0.2,0.5,0.2,0.7c0,8.2,0.3,13.6,0.4,17.2L99,46
		c0.2,3.5,0.2,5.7,0.2,6.4L99.1,62c0.2,0.5,0.3,0.9,0.3,1.4c0,0.5-0.2,1.1-0.5,1.7c-0.5,0.8-1.1,1-1.6,1c-1.3,0-2-1-2.2-3
		c0,0.1,0,0.2,0,0.2c0,2.8,2.9,3.7,4.2,3.7c0.4,0,1.1-0.2,1.6-1c0.3-0.6,0.5-1.2,0.5-1.7c0-0.5-0.1-1-0.3-1.4L101.2,53.4z M43,47.5
		c0.2-1.1,0.4-2.6,0.7-5c0-0.1,0-0.2,0.1-0.3c-0.1-0.5-0.2-0.9-0.2-1.5c-0.2-1.4-0.5-2.7-0.7-3.7l0-0.1c-0.2,1-0.6,2.7-1.1,4.5
		c-0.3,2.4-0.5,3.9-0.7,5c-0.2,1.5-0.4,2.3-0.4,3.9c0.4,0.1,1.1,0.1,2,0.1C42.7,49.5,42.8,48.7,43,47.5z M95.1,38.8
		c0-0.2-0.1-0.2-0.2-0.2c-0.1,0-0.2,0-0.2,0.2c-0.4,2.4-0.9,5.2-1.4,8.2c-1,6.2-2.1,10.8-2.2,11.2c-0.1,0.4-0.3,0.7-0.4,0.9
		c-0.4,0.6-1,1-1.7,1c-0.3,0-0.5-0.1-0.7-0.2c0.8,0.8,1.9,1.2,2.7,1.2c0.7,0,1.3-0.3,1.7-1c0.2-0.2,0.3-0.5,0.4-0.9
		c0.1-0.4,1-4.2,1.9-9.6c0-1.5,0-2.8,0-3.5C95.1,44.9,95.1,42.5,95.1,38.8z M73.5,29.7c0-0.6-0.1-1.1-0.1-1.4
		c-0.1-0.4-0.3-0.8-0.6-1.2c-0.1-0.2-1.5-1.5-2.3-1.5h0c-0.1,0-0.1,0-0.2,0c0.4,0.1,0.7,0.2,0.9,0.5c0.4,0.4,0.6,0.8,0.6,1.2
		c0.1,0.4,0.1,0.8,0.1,1.4l-0.5,10.7l0.1,0.8c0,0,0,0.1,0,0.1c-0.2,1.1-0.2,2.5-0.2,4.8l0,1.8c0,3.4-0.1,6.2-0.3,8.3
		c-0.2,2.2-0.6,4.2-1,5.6c-0.3,1.4-1.1,2.8-2.2,4.2c-1,1.2-2.1,1.8-3.4,1.8c-0.1,0-0.2,0-0.2,0c-1.1,0-2.1-0.2-2.8-0.6
		c-0.3-0.2-0.6-0.4-0.8-0.6c0.7,0.6,1.6,1.3,2.3,1.6c0.8,0.4,2.2,0.6,3.3,0.6c0.1,0,0.2,0,0.3,0c1.3,0,2.4-0.6,3.4-1.8
		c1.1-1.3,1.9-2.7,2.2-4.2c0.3-1.5,0.8-3.4,1-5.6c0.2-2.1,0.3-4.9,0.3-8.3l0-1.8c0-2.3,0-3.7,0.2-4.8c0,0,0-0.1,0-0.1l-0.1-1
		l0.2-4.6L73.5,29.7z M84.6,46.1c-0.5-3-0.9-5.6-1.3-7.6c0,0,0-0.1-0.1-0.1c-0.1,0-0.1,0-0.1,0.1c-0.2,11.4-0.4,18.5-0.4,23l0.1,1.8
		c0,0.7-0.2,1.3-0.5,1.7c-0.3,0.4-0.9,0.7-1.6,0.7c-0.7,0-1.2-0.2-1.7-0.5C79.1,65.1,79,65,79,65c0.2,0.5,1,1.1,2.3,1.6
		c0.4,0.2,0.7,0.1,1.1,0.1c0.1,0,0.3,0,0.5,0c0.7,0,1.2-0.2,1.6-0.7c0.3-0.4,0.5-1,0.5-1.7l-0.1-1.8c0-3.3,0.1-7.9,0.2-14.6
		C84.8,47.3,84.7,46.7,84.6,46.1z M89.3,53.3c0,0,0.1-0.1,0.1-0.2c0.3-1.8,0.5-3.5,0.7-5.2c-0.1-0.4-0.1-0.8-0.2-1.1
		c-0.2-1.1-0.3-2.1-0.4-2.8c-0.4-2.5-1-4.7-1.5-6.7c-0.3-1-0.5-1.9-0.7-2.7c-0.4-2-1.2-4.6-1.5-5.6c-0.1-0.2-0.1-0.3-0.1-0.4
		c0-0.1-0.6-1.8-0.8-2.1c-0.1-0.2-1.3-1.4-2.6-1.7l0,0c0,0,0,0,0,0c0,0-0.1,0-0.1,0c0.3,0,0.4,0,0.6,0.1c0.2,0.1,0.4,0.3,0.6,0.5
		c0.1,0.2,0.2,0.4,0.3,0.5c0.1,0.2,0.5,1.5,0.5,1.5c0,0,0.1,0.3,0.1,0.7c0.2,1.1,0.7,3.5,1.1,5.3c0.5,2.4,1.1,5.6,1.7,9.4
		c0.2,1.2,0.5,2.4,0.8,3.8c0.4,1.8,0.9,3.9,1.2,6.1C89.1,53.2,89.3,53.3,89.3,53.3z M87,57.1c0.1,0.3,0.1,0.7,0.3,1
		c0-0.2-0.1-0.3-0.1-0.5C87.1,57.4,87,57.2,87,57.1z M19.4,33.3c0.1,3,0.1,5.4,0.1,7c0.5-0.4,1.2-1.1,2-2.2c0-1.1,0-2.4-0.1-3.9
		c0-1.3-0.1-2.3-0.1-3.2c0-1.6-0.1-2.8-0.1-3.9l0.1-0.5c-0.6-0.6-1.3-1-2-1.1l-0.1,0.6c0,1.1,0,2.3,0.1,3.9
		C19.3,31,19.3,32.1,19.4,33.3z M40,53.5c-0.2,2-0.8,9.9-0.9,10.2c-0.2,0.4-0.3,0.7-0.5,1.1c-0.4,0.8-1,1.2-1.6,1.2
		c-0.6,0-1.1-0.2-1.6-0.5c-0.2-0.1-0.3-0.3-0.4-0.5c0.1,0.4,0.3,0.7,0.7,1c0.5,0.4,2.8,1,3.3,1c0.7,0,1.2-0.4,1.6-1.2
		c0.2-0.3,0.3-0.7,0.5-1.1c0.2-0.4,0.6-7.6,0.8-9.4c1,0.2,2.6,0.2,3.7,0.1c-0.1-0.7-0.2-1.3-0.3-1.9C44.3,53.6,41.6,53.8,40,53.5z
		 M60.1,29.9l0.6,28.5c0,1.5,0.2,1.8,1,3.1c0.6,0.9,1.2,1.2,2.2,1.2c-0.1-0.1-0.1-0.1-0.2-0.2c-0.8-1.2-1-1.6-1-3.1l-0.6-28.5
		c0-1.1-0.6-2-1.2-2.7l-0.2-0.3c-0.3-0.5-0.7-0.9-1.2-1.2c0.1,0.1,0.2,0.2,0.3,0.3c0.5,0.6,0.5,1.5,0.4,2.2
		C60.2,29.4,60.1,29.7,60.1,29.9z M27.1,50.3c-0.5-1.6-1-3-1.5-4.1c-0.4-0.9-0.6-1.7-0.8-2.2c2.1-1.9,3.6-4.6,4.2-5.7
		c1.2-2.4,1.2-4.1,0.6-7.1c-0.8-4-3.1-6-4.4-7c-1-0.8-2-1.3-3.3-1.5c0.7,0.3,1.4,0.6,2,1.1c2.5,2.1,3.9,4.3,4.1,6.8
		c0.2,3.1,0.2,4.3-1,6.6c-0.4,0.9-2,3.7-4.2,5.7c0.1,0.5,0.4,1.3,0.8,2.2c0.4,1.1,1,2.5,1.5,4.1c2.2,6.9,3.3,9.9,4.9,13.1
		c0.5,1,0.7,1.7,0.7,2.3c0,0.6-0.2,1.1-0.5,1.5c-0.3,0.4-0.6,0.6-1.1,0.6c0.5,0.7,1.1,1,1.7,1c0.6,0,1-0.2,1.4-0.7
		c0.3-0.4,0.5-0.9,0.5-1.5c0-0.6-0.2-1.3-0.7-2.3C30.4,60.2,29.3,57.2,27.1,50.3z M52.6,64c0-0.1,0-0.1-0.1-0.2
		c-0.1-0.7-0.2-1.5-0.4-2.4c-0.3-1.8-0.5-3-0.5-3.5l0.3-1.2c0,0,0-0.1,0-0.1c0-1-0.2-2.5-0.7-4.2c-0.2-0.8-0.4-1.4-0.4-1.8
		c-0.4-1.8-0.7-3.5-1.1-5.2c-1.2-5.5-2.3-10.8-2.7-17.3c-0.1-1.2-0.9-2.7-2.8-3.1c-0.1,0-0.2,0-0.2,0.1c0.8,0.1,1.3,0.5,1.3,1.4
		c0,6.1,1.3,12.5,2.6,18.6c0.3,1.5,0.6,3.1,0.9,4.6c0.1,0.4,0.2,1.1,0.4,1.8c0.5,1.8,0.7,3.2,0.7,4.2c0,0,0,0.1,0,0.1l-0.3,1.2
		c0,0.5,0.2,1.7,0.5,3.5c0.4,1.9,0.5,3.2,0.5,3.8c0,1.4-0.6,1.9-1.1,2.1c0,0-0.1,0-0.1,0c-0.9,0-1.6-0.2-2.2-0.5
		c-0.1-0.1-0.2-0.2-0.3-0.3c0.1,0.6,0.4,1.1,0.8,1.3c0.5,0.3,1.7,0.8,3,0.8c0.2,0,0.5,0,0.7-0.1c0.6-0.1,0.9-0.9,1-1.7
		c0.2,0,0.3-0.2,0.3-0.4c0-0.2,0-0.4,0-0.7L52.6,64z M21.3,52.2c0-0.2,0-0.4,0-0.7l0-0.6c0-0.7,0-1.4,0.1-2.1
		c-0.6-1.5-1.2-2.3-1.6-2.8c0,0.1-0.1,0.3-0.1,0.5l-0.2,0.7c-0.2,1-0.2,1.9-0.2,2.7l0,0.6c0,0.2,0,0.4,0,0.7c0,0.8,0,1.8,0.2,4.6
		c0.3,3.5,0.4,5.9,0.4,6.9c0,1.1-0.2,2-0.6,2.6c-0.3,0.4-0.6,0.7-0.9,0.8c0.3,0.9,0.9,1.1,1.4,1.1c0.6,0,1.1-0.3,1.5-1
		c0.4-0.6,0.6-1.5,0.6-2.6c0-1-0.1-3.4-0.4-6.9C21.3,54,21.3,53.1,21.3,52.2z M60.1,65.2C60.1,65.2,60.1,65.2,60.1,65.2
		C60.1,65.2,60.1,65.2,60.1,65.2C60.1,65.2,60.1,65.2,60.1,65.2z M264.3,27.5l-0.4,4.6l0.2,14.5l0,0.1c-0.1,0.4-0.3,1.2-0.3,3.1
		l-0.2,9.6c0,2.5,0.6,3.7,1.6,3.7l0.1,0c-0.1-0.5-0.1-1.3-0.1-2.5l0.2-9.6c0-1.9,0-2.8,0.1-3.1l0-0.1l-0.2-14.5l0.4-4.6
		c0-0.5-0.3-1.6-0.6-2c-0.4-0.7-1.5-1-2-1c0,0-0.1,0-0.1,0c0.3,0.1,0.5,0.2,0.7,0.4C264.1,26.5,264.3,27,264.3,27.5z M232.6,63.1
		l0.1,0c-0.1-0.4-0.2-1-0.2-1.7l0.3-10.7c0-1.2,0-2.3-0.1-3.7l0.5-0.1c0.5,0.4,1.1,0.3,1.8,0.3c0.7,0,1.3-0.3,1.7-0.8
		c0.4-0.5,0.6-1.2,0.6-1.9c0-0.9,0.4-1.8-1.5-2.6c0,0-0.3-0.1-0.7-0.1c0.8,0.3,1.3,0.9,1.3,1.6c0,0.7-0.2,1.3-0.6,1.8
		c-0.4,0.5-0.8,0.5-1.2,0.5c-0.2,0-0.5,0-0.8,0c-0.6,0-1.4,0.1-1.8-0.2h-1c0.1,1.4,0.1,2.7,0.1,4l-0.3,10.9
		C230.9,63,232.2,63.1,232.6,63.1z M280,41.2l1.4-0.1l0.3-7.3c0-0.7,0-1.9-0.1-2.6c1.1,0.2,1.6-0.1,3.2,0.4l1.2,0.1
		c1.7-0.3,1.8-1.4,1.9-2.4c0.3-2.1-1.1-3-2.4-3.4c0,0-0.1,0-0.1,0c0.6,0.2,1.1,0.5,1.1,1.2c0,1.6-0.5,2.7-1.6,3l-0.1,0l-0.1,0
		c-1.2-0.4-2.5-0.4-3.6-0.4c-0.4,0-0.7,0-1,0c0,0.7,0.1,1.5,0.1,2.2l-0.3,8.6C279.9,40.7,280,40.9,280,41.2z M295.5,41.9
		c0.5-0.4,1.1-1.1,1.7-2.1c0-0.4,0-1-0.1-2.3c-0.1-3.1,0-3.4,0-4.9l-0.1-1.8c0.5,0.1,1,0.6,1.5,1.3c-0.1-0.3-0.2-0.6-0.3-0.9
		c-0.3-1.1-1.7-2.6-2.9-2.8l-0.1,0.5c0,1.5,0,3.9,0.1,7C295.5,38.5,295.5,40.5,295.5,41.9z M250,58.5v1.8c0,0.3,0,0.7-0.1,1.2h1.5
		c0,0,0,0,0,0v-1.8L250.9,47l0.3-11.5c0-1.8,0.1-3.1,0-4.5l2.1-0.1l1-0.3c0.3-0.6,0.1-2.3,0.1-2.5c0-0.9-0.4-1.5-1.5-1.8
		c0.6,0.3,0.9,0.6,0.9,1.2c0,0.2-0.1,1.3-0.4,1.9l-0.1,0.2l-3.6,0c0.1,1.4,0.2,3,0.2,4.8l-0.3,11.5L250,58.5z M281.6,63.1
		c-0.1-0.4-0.2-0.9-0.2-1.8l0.4-10.5c0-1.2,0-2.1-0.1-3.4l0.8-0.1c0.5,0.4,1.4-0.2,2.1-0.2c0.7,0,1,0.2,1.4-0.4
		c0.4-0.5,0.4-1.8,0.4-2.5c0-0.8,0.2-2.3-2.2-2.8c0.6,0.2,1.1,0.6,1.1,1.4c0,0.1,0,0.3,0,0.4c0,0.4,0.1,1-0.3,1.4
		c-0.4,0.5-1.1,0.8-1.9,0.8c-0.2,0-0.4,0-0.6,0.1c-0.5,0.1-1.1,0.2-1.5-0.1h-0.9c0.1,1,0.1,1.9,0,2.8c0,0.3,0,0.6,0,1l-0.3,10.9
		C279.9,62.9,281.1,63,281.6,63.1z M231,41.2l1.4-0.1l0.5-7.9c0-0.7-0.1-1.2-0.1-1.9c1.1,0.2,3.2,0.8,3.9,0.8c0.7,0,2-1.2,2-2.2
		c0-0.9,0.3-2-1-2.9c-0.4-0.3-1.4-0.7-1.9-0.9c1.1,0.4,1.6,1,1.6,1.9c0,1-0.7,1.7-2,2.2l-0.1,0l-0.1,0c-1.2-0.4-2.2-0.4-3.2-0.4
		c-0.3,0-0.6,0-0.9,0c0,0.7,0.1,1.5,0.1,2.2l-0.3,8.6C230.9,40.7,230.9,40.9,231,41.2z M296.9,52.7c0-0.6,0.1-1.2,0.2-1.8
		c-0.5-1.7-0.9-2.9-1.3-3.6c0,0.1,0,0.1,0,0.2l-0.1,0.6c-0.2,0.9-0.2,2.8-0.2,3.9l0,0.6c0,0.2,0,0.4,0,0.6c0,0.7,0,1.5,0.2,4
		c0.2,3.1,0.4,5.1,0.4,6c0,1-0.2,1.7-0.5,2.3c-0.4,0.6-0.9,0.9-1.4,0.9c-0.4,0-1-0.2-1.3-0.9c0,0.1,0,0.1,0,0.2
		c0.2,1.2,2.5,2.4,3.1,2.4c0.5,0,1.4-0.4,1.8-1c0.4-0.5,0.6-1.3,0.6-2.3c0-0.9-0.6-2.8-0.8-5.9C297,55.6,296.9,53.6,296.9,52.7z
		 M271.2,63.5c-0.4-0.1-0.9-0.2-1.4-0.2c0.9,0.3,1.4,0.9,1.4,1.8c0,0.6-0.2,1-0.7,1.4c-0.4,0.3-0.9,0.5-1.4,0.6l-0.1,0l-0.1,0
		c-1.4-0.4-3.1-0.7-5.1-0.7c-1.4,0.8-2.9,0.7-3.6-0.2c-0.1-0.1-0.2-0.2-0.3-0.4c0.1,0.4,0.5,0.8,1.2,1.4c0.9,0.8,2.9,1.5,4.4,0.7
		c2,0,3.4-0.1,4.8,0.4l0.1,0l0.1,0c0.5-0.1,1-0.3,1.4-0.6c0.5-0.4,0.7-0.8,0.7-1.4C272.5,64.9,272.7,63.9,271.2,63.5z M285.6,63.2
		c1,0.3,1.3,0.9,1.3,1.9c0,0.4,0,1.4-0.8,1.8c-0.2,0.1-0.5,0.2-0.8,0.2c-0.3,0-0.6,0-0.8-0.1c-0.2,0-0.5-0.1-0.7-0.1h-5.7
		c-0.6,0-1.1-0.2-1.6-0.6c-0.1-0.1-0.2-0.3-0.3-0.4c0.3,0.6,1.3,1.3,1.7,1.7c0.4,0.4,1,0.6,1.6,0.6l5.1,0.1c0.7,0,2,0.1,2.6-0.2
		c0.6-0.3,1-0.9,1-1.7c0-0.4,0.3-1.5-0.1-2.1C287.6,63.7,286.6,63.2,285.6,63.2z M307.1,63.6c-1.4-2.7-3.6-6-5.2-12
		c-0.8-2.8-2.2-5.4-2.4-6.4c1.5-0.8,3.2-3,4.1-4.2c1.1-1.5,1.5-3.5,1.5-6.3c0-2.1-2.4-5.7-3.9-6.9c-1-0.7-2.2-1.4-3.5-1.7
		c0.6,0.3,1.2,0.6,1.8,1c1.3,1,3.3,2.6,3.6,5.9c0.2,2.7-0.2,4.5-0.7,6.2c-0.4,1.6-1.9,3.6-3.7,5.1c0.1,0.4,0.4,1.1,0.7,1.9
		c0.4,1,0.9,2.2,1.4,3.6c0.7,2.1,1.3,4,1.8,5.7c1,3.1,1.7,5.5,2.6,7.3c0.4,0.8,0.7,1.5,0.7,2c0,0.5-0.2,1-0.4,1.3
		c-0.3,0.4-0.8,0.6-1.3,0.6c-0.8,0-1.6-0.6-2.3-1.8c1.1,2.5,2.5,3.5,3.7,3.5c0.5,0,1.4-0.4,1.7-0.8c0.3-0.4-0.4-0.5,0.4-1.1
		C307.9,66.1,307.7,64.9,307.1,63.6z M245.7,30.6c0-0.4,0-0.8-0.1-1.2h-1.7c-0.8,0-1.4-0.1-1.8-0.4c-0.2-0.1-0.3-0.2-0.4-0.4
		c0.2,0.7,1.3,1.4,1.7,1.6c0.4,0.3,0.7,0.4,1.5,0.4H245.7z M220.9,24.9L220.9,24.9c0.6,0.2,1.4,0.7,1.4,2.7c0,0.6-0.3,1.1-0.8,1.5
		c-0.5,0.3-1,0.5-1.6,0.5l-2.8,0l-0.1,0.3c0,0.8,0,1.8,0,3c-0.1,3.7-0.2,8.7,0.3,14.5c0.5,5.6,0.4,10.2,0.3,13.8
		c0,1.2-0.1,2.4-0.1,3.3c0,0.6-0.2,1.1-0.7,1.5c-0.4,0.4-0.9,0.6-1.5,0.6h-1.7l0,1.2h3.5c0.6,0,1.2-0.1,1.6-0.6
		c0.4-0.4,0.9-1.7,0.9-2.3c0-3.8,0.1-9.6-0.6-17.1c-0.7-7.5-0.6-13.1-0.6-16.7l0.4-0.5l2.5-0.3c0.6,0,1.1-0.2,1.6-0.5
		c0.5-0.4,0.8-1,0.8-1.7C223.8,27.5,223.3,25.2,220.9,24.9z M237.6,63.5c0.4,0.4,0.5,0.8,0.5,1.3c0,0.7-0.3,1.3-1,1.7
		c-0.6,0.3-1.2,0.5-2,0.5h-6.2c-0.6,0-1.1-0.2-1.6-0.6c-0.2-0.2-0.3-0.4-0.4-0.6c0,0,0,0,0,0.1c0,0.6,1.4,1.4,1.8,1.8
		c0.4,0.4,1,0.6,1.6,0.6h5.7c0.7,0,1.4-0.2,2-0.5c0.6-0.3,1-0.9,1-1.7C239,65.1,239.3,65.3,237.6,63.5
		C237.7,63.5,237.7,63.5,237.6,63.5z M208.5,29.6c-0.1-0.1-0.2-0.2-0.3-0.2c0.1,0.2,0.2,0.3,0.4,0.4c0.3,0.2,1.6,1,4.5,1
		c0-0.4,0-0.7,0-1c-0.7,0-1.4,0-2,0C209.8,29.9,208.9,29.9,208.5,29.6z M253.6,61.7c1,0.3,1.2,1,1.2,1.6c0,0.5-0.2,1-0.5,1.4
		c-0.4,0.4-0.8,0.6-1.2,0.6l-4.9,0.1l-2.6,0.1h0c-1,0-1.6-0.3-2-0.8l0,0.1c0.4,0.9,2,1.9,3.3,1.9h0l2.6-0.1l4.9-0.1
		c0.5,0,0.9-0.2,1.2-0.6c0.3-0.4,0.5-0.9,0.5-1.4C256.2,63.8,255.7,61.9,253.6,61.7z"/>
</g>
</svg>
