<svg xmlns="http://www.w3.org/2000/svg" width="589" height="111" viewBox="0 0 589 111">
  <g fill="none" fill-rule="evenodd" transform="translate(0 -7)">
    <path stroke="#F5776A" stroke-dasharray="6 5" stroke-width="2" d="M0.46550483,53.1522129 C56.2427034,56.4901017 112.17284,74.940922 168.255915,108.504674 C230.818636,125.20522 270.010519,114.953587 285.831565,77.7497722 C285.831565,12.0004131 208.390048,77.7497722 255.426052,92.0767265 C310.083077,107.586953 427.094689,92.9558585 586.113102,9"/>
    <path fill="#F5776A" d="M585.480428,16.6603334 C584.899847,16.7208107 584.654817,16.4461271 584.144077,16.4379334 C584.820251,16.0750701 585.32943,15.5448215 585.701658,14.8795722 C586.031356,14.9962347 586.089882,15.3828986 586.258828,15.6587528 C586.115634,16.1086252 585.743797,16.3310253 585.480428,16.6603334 Z M581.917735,15.9919627 C581.453036,15.9006616 581.022282,15.7746349 580.471354,15.7699528 C580.734333,15.5139976 581.469813,15.7297647 581.917735,15.6587528 C582.102288,15.4722489 582.570499,15.5697927 582.920096,15.5467724 C583.032076,15.7687823 583.111672,16.0227866 583.364116,16.1035529 C582.988377,16.3996962 582.448374,15.910416 581.917735,15.9919627 Z M577.688232,17.8847044 L575.01709,17.8847044 C574.522738,18.059503 573.711563,17.9163086 573.235158,18.1074946 C573.169999,17.7087352 573.563686,17.7692124 573.903139,17.7738945 L574.90511,17.7738945 C576.515754,17.6166538 578.122497,17.3287042 579.802203,17.5507141 C579.299267,17.8628545 578.288322,17.6708882 577.688232,17.8847044 Z M577.353851,11.2060692 C577.533722,11.1748552 577.545428,11.3110264 577.688232,11.3176594 C577.731932,11.5326462 577.181004,11.4795823 577.353851,11.2060692 Z M579.135003,7.86616637 C579.356232,7.64298595 579.665642,7.90128217 579.913793,7.97775658 C579.887652,8.13850892 578.998441,8.23644298 579.135003,7.86616637 Z M579.913793,5.52901473 C580.312163,5.94806329 580.556412,6.51889014 580.803784,7.08737594 C580.349619,7.06045383 580.177162,6.7494839 579.691393,6.75260531 C579.880628,6.45997363 579.702318,5.79979658 579.913793,5.52901473 Z M581.027354,11.3176594 C580.850605,12.0152933 579.982074,11.4050588 579.357793,11.5396693 C579.003124,11.4468075 579.555222,11.3929633 579.691393,11.4288595 C579.871264,11.4600735 579.882969,11.3231219 580.025774,11.3176594 L581.027354,11.3176594 Z M581.694164,8.75654701 C582.013718,9.06946782 582.248604,9.46510584 582.362925,9.98169829 C582.1733,9.9399495 582.153011,10.0679271 582.140135,10.2037082 C581.503759,10.1346471 581.007846,9.92746389 580.248174,9.98169829 C580.147899,9.62234659 580.611427,9.82445754 580.692584,9.64731783 C581.016039,9.33985948 581.425724,9.11823976 581.694164,8.75654701 Z M582.920096,13.0980305 L582.920096,13.6548111 C582.542796,13.623597 582.280988,13.4776714 581.806145,13.5432209 C581.628615,13.1054439 582.287231,13.5045935 582.252115,13.2096207 C582.591568,13.2899969 582.578692,13.0176544 582.920096,13.0980305 Z M589.381463,19.3322557 C589.287607,19.0876156 589.10567,18.9623693 589.051955,18.663885 C588.867708,18.1699227 588.5356,17.8780714 588.39265,17.3287042 C587.793413,16.6525299 587.414233,15.6809928 586.827124,14.9907722 C586.376902,14.003628 585.926969,13.0157035 585.426209,12.0964499 C584.983495,11.0628748 584.405051,10.2115117 583.943566,9.20212751 C583.705893,9.15257521 583.748922,8.72299192 583.531175,8.64573715 C583.554279,8.20678964 583.179719,8.30511388 583.202534,7.86616637 C582.845013,7.53217609 582.702929,6.90828536 582.460635,6.41939538 C582.182242,5.97927734 582.050843,5.33977958 581.719024,4.97262438 C581.497523,4.40101717 581.363814,3.75878819 580.812227,3.74708293 C580.808761,3.67958255 580.800098,3.61598394 580.729922,3.63666324 C580.624803,3.64290605 580.616717,3.77907732 580.483874,3.74708293 C580.238981,3.93670825 580.003329,4.13842902 579.659092,4.1930536 C579.393984,4.90980611 578.962244,5.40376838 578.588263,5.97381488 C578.540901,6.42953994 578.208505,6.50055189 578.176738,6.97617591 C577.937043,7.20833037 577.849252,7.64688771 577.681754,7.97775658 C577.362931,8.62271679 577.037177,9.25870297 576.69294,9.87010808 C576.360544,10.5334065 576.091104,11.283324 575.704704,11.8736596 C575.17391,13.3454018 574.611638,14.7753953 573.892553,15.9919627 C573.345876,17.2986607 572.063364,18.1909922 572.326162,20.2222462 C572.368902,20.6108611 572.864753,20.3857298 573.150654,20.4454266 C573.38775,20.5691123 573.661811,20.6455867 573.97428,20.6678267 C576.739724,20.5453116 579.400915,20.2807725 582.213431,20.2222462 C582.494712,20.324082 582.723721,20.49732 583.036769,20.5558463 C583.407285,20.5020021 583.653911,20.6128119 583.943566,20.6678267 C585.753696,20.5897916 587.843662,20.8906169 589.299158,20.3334462 C589.242845,19.886305 589.378287,19.6982404 589.381463,19.3322557 Z" transform="rotate(63 580.836 12.157)"/>
  </g>
</svg>
