<svg xmlns="http://www.w3.org/2000/svg" width="44" height="262" viewBox="0 0 44 262">
  <g fill="none" fill-rule="evenodd" transform="translate(-6)">
    <path stroke="#F5776A" stroke-dasharray="6 5" stroke-width="2" d="M11.5039062,0.770087175 C60.4002593,93.9059882 60.4002593,179.036011 11.5039062,256.160156"/>
    <path fill="#F5776A" d="M16.6492882,259.505709 C16.0687069,259.566186 15.8236767,259.291503 15.3129369,259.283309 C15.9891111,258.920446 16.4982902,258.390197 16.8705177,257.724948 C17.2002161,257.84161 17.2587424,258.228274 17.4276884,258.504128 C17.284494,258.954001 16.9126567,259.176401 16.6492882,259.505709 Z M13.0865951,258.837338 C12.621896,258.746037 12.1911422,258.62001 11.6402143,258.615328 C11.9031926,258.359373 12.6386735,258.57514 13.0865951,258.504128 C13.2711481,258.317624 13.7393588,258.415168 14.0889561,258.392148 C14.2009365,258.614158 14.2805323,258.868162 14.5329759,258.948928 C14.1572368,259.245072 13.6172339,258.755792 13.0865951,258.837338 Z M8.85709196,260.73008 L6.18595004,260.73008 C5.6915976,260.904879 4.88042259,260.761684 4.40401823,260.95287 C4.33885891,260.554111 4.73254606,260.614588 5.0719988,260.61927 L6.07396965,260.61927 C7.68461439,260.462029 9.29135737,260.17408 10.9710632,260.39609 C10.4681269,260.70823 9.45718198,260.516264 8.85709196,260.73008 Z M8.5227115,254.051445 C8.70258244,254.020231 8.7142877,254.156402 8.85709196,254.163035 C8.90079162,254.378022 8.34986373,254.324958 8.5227115,254.051445 Z M10.303863,250.711542 C10.5250925,250.488362 10.8345017,250.746658 11.0826534,250.823132 C11.0565116,250.983884 10.1673015,251.081819 10.303863,250.711542 Z M11.0826534,248.37439 C11.4810226,248.793439 11.7252725,249.364266 11.9726439,249.932752 C11.5184795,249.905829 11.3460219,249.594859 10.8602533,249.597981 C11.0494885,249.305349 10.8711782,248.645172 11.0826534,248.37439 Z M12.1962145,254.163035 C12.0194649,254.860669 11.1509341,254.250434 10.5266532,254.385045 C10.1719836,254.292183 10.724082,254.238339 10.8602533,254.274235 C11.0401243,254.305449 11.0518295,254.168497 11.1946338,254.163035 L12.1962145,254.163035 Z M12.8630245,251.601923 C13.1825783,251.914843 13.417464,252.310481 13.5317854,252.827074 C13.3421601,252.785325 13.321871,252.913303 13.3089952,253.049084 C12.6726188,252.980023 12.1767057,252.772839 11.4170338,252.827074 C11.3167587,252.467722 11.7802873,252.669833 11.8614438,252.492693 C12.1848994,252.185235 12.5945837,251.963615 12.8630245,251.601923 Z M14.0889561,255.943406 L14.0889561,256.500187 C13.7116563,256.468973 13.4498485,256.323047 12.9750049,256.388596 C12.797475,255.950819 13.4560914,256.349969 13.4209756,256.054996 C13.7604283,256.135372 13.7475525,255.86303 14.0889561,255.943406 Z M20.5503234,262.177631 C20.456467,261.932991 20.2745299,261.807745 20.2208151,261.509261 C20.0365678,261.015298 19.7044604,260.723447 19.5615098,260.17408 C18.9622726,259.497906 18.5830926,258.526368 17.9959846,257.836148 C17.5457625,256.849004 17.0958292,255.861079 16.595069,254.941825 C16.1523555,253.90825 15.5739111,253.056887 15.1124262,252.047503 C14.8747529,251.997951 14.9177824,251.568367 14.7000355,251.491113 C14.7231386,251.052165 14.3485793,251.150489 14.3713936,250.711542 C14.0138728,250.377552 13.8717886,249.753661 13.6294946,249.264771 C13.351102,248.824653 13.219703,248.185155 12.8878844,247.818 C12.6663833,247.246393 12.5326739,246.604164 11.9810869,246.592458 C11.9776215,246.524958 11.9689578,246.46136 11.8987821,246.482039 C11.7936629,246.488282 11.7855768,246.624453 11.6527338,246.592458 C11.4078407,246.782084 11.1721889,246.983805 10.8279524,247.038429 C10.5628441,247.755182 10.1311045,248.249144 9.7571227,248.81919 C9.70976131,249.274916 9.37736515,249.345927 9.34559836,249.821551 C9.10590347,250.053706 9.01811161,250.492263 8.85061398,250.823132 C8.53179091,251.468092 8.2060369,252.104079 7.86180039,252.715484 C7.52940423,253.378782 7.25996408,254.1287 6.87356437,254.719035 C6.34277016,256.190777 5.78049794,257.620771 5.06141329,258.837338 C4.51473568,260.144036 3.23222366,261.036368 3.49502167,263.067622 C3.53776244,263.456237 4.03361318,263.231105 4.31951431,263.290802 C4.55661009,263.414488 4.83067087,263.490962 5.14314058,263.513202 C7.90858421,263.390687 10.569775,263.126148 13.3822912,263.067622 C13.6635717,263.169458 13.8925814,263.342696 14.2056287,263.401222 C14.576145,263.347378 14.8227708,263.458187 15.1124262,263.513202 C16.9225558,263.435167 19.0125219,263.735992 20.4680185,263.178822 C20.4117047,262.731681 20.5471467,262.543616 20.5503234,262.177631 Z" transform="rotate(-141 12.005 255.002)"/>
  </g>
</svg>
