<?xml version="1.0" encoding="utf-8"?>
<!-- Generator: Adobe Illustrator 26.3.1, SVG Export Plug-In . SVG Version: 6.00 Build 0)  -->
<svg version="1.1" id="Layer_1" xmlns="http://www.w3.org/2000/svg" xmlns:xlink="http://www.w3.org/1999/xlink" x="0px" y="0px"
	 viewBox="0 0 196 210.6" style="enable-background:new 0 0 196 210.6;" xml:space="preserve">
<style type="text/css">
	.st0{fill:#FFFFFF;}
</style>
<g>
	<path d="M193.9,72.9c-6.8-30.5-29-48.6-41.6-56.8c-2-1.3-48.8-30.7-95.2-6.9c-8.8,4.5-16.6,10.5-23.4,17.7
		C14.4,43.3,1.8,66.8,0.2,91.6c-1.3,20.3,3.9,36.5,11.2,49.1c4.8,12.3,13,24.3,26.5,33.8c2.9,2,13.9,8.5,18.2,9.4
		c0.3,0.1,0.5-0.1,0.6-0.4c0.1-0.3-0.1-0.5-0.4-0.6c-4.1-0.8-15.1-7.3-17.8-9.2c-11.2-7.8-18.6-17.4-23.5-27.5
		c6.7,9.7,14.4,16.8,20.5,21.5l0.3,0.3c5.3,4.1,13.8,8.8,20.8,11.3c0.1,0,0.2,0,0.2,0c0.8,0.4,1.7,0.6,2.4,0.6c2.1,0,4.7-1.9,7-3.6
		c0.4-0.3,0.8-0.6,1.1-0.8c3.6-2.6,6.2-4.8,6.2-4.8l10-8.5c0.4-0.3,0.9-0.5,1.4-0.5c0.5,0,1,0.3,1.3,0.7c0.6,0.8,0.5,2-0.3,2.7
		l-5.2,4.5c-0.6,0.5-0.8,1.3-0.5,2c0.3,0.7,0.9,1.2,1.7,1.2h21.7c0.7,0,1.3,0.6,1.3,1.3s-0.6,1.3-1.3,1.3H91.2
		c-1.2,0-2.1,0.9-2.1,2.1s0.9,2.1,2.1,2.1h15.6c0.7,0,1.3,0.5,1.3,1.1c0,0.4-0.1,0.7-0.3,1c-0.2,0.3-0.6,0.4-0.9,0.4H86.5
		c-0.2,0-0.4,0-0.6,0.1c-0.3,0-0.5,0.2-0.7,0.4c-0.4,0.4-0.7,0.9-0.7,1.5c0,1.1,0.9,1.9,1.9,1.9h17.9c0.4,0,0.7,0.1,0.9,0.4
		c0.2,0.3,0.4,0.6,0.3,1c-0.1,0.6-0.6,1.1-1.3,1.1H83.9c-1.1,0-1.9,0.9-1.9,1.9v0.3c0,1.1,0.9,1.9,1.9,1.9h15.3
		c0.4,0,0.7,0.1,0.9,0.4c0.2,0.3,0.4,0.6,0.3,1c0,0.1-0.1,0.2-0.1,0.3c-0.3,0.3-0.7,0.4-1.1,0.4l-12.2,0c-0.7,0-1.4,0.5-1.5,1.2
		c-0.3,0.4-0.5,0.9-0.5,1.5c0,1.2,1,2.3,2.3,2.3h21.7c0.5,0,0.7,0.4,0.7,0.5s0.2,0.5-0.2,0.9l-5.2,4.5c-1.2,1-1.4,2.9-0.4,4.1
		c0.5,0.6,1.2,1,2,1c0.1,0,0.2,0,0.3,0c0.7,0,1.4-0.2,1.9-0.7l10.1-8.8c0,0,0,0,0,0l18.8-12c17.1-7,26.9-14.8,28-15.9
		c18.2-18.7,25.3-39.8,27.9-56.4C196.6,102.1,197.1,87.2,193.9,72.9z M57.5,10.1c45.9-23.5,92.3,5.6,94.2,6.9
		c12.5,8,34.5,26,41.2,56.1c2.5,11.1,2.7,22.5,0.8,34c0.6-9.7-0.2-16.5-0.5-18.3c-1.2-8.2-3.4-16.1-6.6-23.6
		c-2.6-10.7-7.3-19.6-14.2-27c-4.8-5.2-9.9-9.1-14.9-12.2c-9.5-8-20.5-14.2-32.3-18c-3.6-1.2-35.7-10.8-70.3,5.4
		c-5,2.3-9.8,5.1-14.3,8.3C45.8,17.1,51.4,13.3,57.5,10.1z M48.9,17.6c-1.2,0.8-2.4,1.7-3.5,2.6c-13.5,8-22.4,23-27.6,34.8
		c-2.1,4.6-3.8,9.2-5.2,13.4c-0.8,1.9-1.5,3.6-2.1,5.3c4.6-18.3,12.8-34,24-46C38.9,23.9,43.7,20.5,48.9,17.6z M150.1,21.8
		c-4.4-2.5-8.7-4.5-12.4-6.2c-7.4-3.4-35.9-15.9-69.8-6.2c29.1-9,53.9-1.5,57-0.5c9.6,3.1,18.6,7.8,26.7,13.7
		C151.1,22.3,150.6,22.1,150.1,21.8z M38.5,26.5c-8,8.4-14.7,19-19.9,29c0,0,0,0,0-0.1C22.8,46.1,29.2,34.7,38.5,26.5z M188.6,104.5
		c0.9-8.1,1-16.6,0.3-25.2c-0.2-2.8-0.6-5.5-1-8c2,5.8,3.5,11.7,4.4,17.8c0.3,2.3,1.7,13.1-0.5,27.5c-1.4,5.1-3.1,10.2-5.3,15.2
		c-3.3,7.5-7.4,14.5-12.2,21C182.7,138.7,187.2,122.4,188.6,104.5z M1.2,91.6c1.4-21.9,11.5-42.8,27.2-58.5
		c-10.1,13-17.2,29.4-20.7,48.2c-0.8,2.5-1.2,4.3-1.3,5.2C6.2,88.6,6,90.7,6,92.8c-1.2,11.1-1.3,26.5,3.4,41.8
		C3.7,123.1,0.1,108.8,1.2,91.6z M36,167c-7.1-5.4-16.4-14.2-23.7-26.7c-5-12.8-6.2-26.1-6-37.1c1.4,15,6.6,29.9,15,43
		c7.1,11.6,16.6,21.6,28.2,29.1c-4.9-2.4-9.7-5.3-13.1-8L36,167z M84.9,160.8c-0.8-0.1-1.5,0.2-2.1,0.7l-10,8.5c0,0-2.6,2.2-6.1,4.8
		c-0.4,0.3-0.8,0.6-1.1,0.8c-2.1,1.6-4.6,3.4-6.4,3.4c-0.3,0-0.6-0.1-0.9-0.2c-1.1-0.5-2-1-2.8-1.4c1.6,0.6,3.1,1.1,3.3,1.1
		c2.3,0,24-17.6,24-17.6c0.9-0.8,2.5-1,3.7,0.4C86,161.1,85.5,160.9,84.9,160.8z M103.5,171.8H81.8c-0.5,0-0.6-0.3-0.7-0.5
		c0.1,0,0.2,0,0.2,0l22.6,0.1c1,0,1.8,0.8,1.8,1.8c0,0,0.1,0.5,0,1.1c0-0.1,0-0.2,0-0.3C105.8,172.8,104.8,171.8,103.5,171.8z
		 M106.8,178.6H91.2c-0.6,0-1.1-0.5-1.1-1.1c0-0.1,0-0.2,0-0.2c0.2,0.8,0.8,0.9,1.5,0.9l15.6,0c0.8,0,1.5,0.5,1.7,1.2
		c0.1,0.5,0.2,0.8,0.1,1.2C109,179.4,108,178.6,106.8,178.6z M104.4,184.9H86.5c-0.4,0-0.7-0.3-0.9-0.6c0.2,0.1,0.4,0.2,0.7,0.2
		h18.1c0.7,0,1.2,0.4,1.5,1C105.5,185.1,104.9,184.9,104.4,184.9z M99.2,191.5H83.9c-0.3,0-0.6-0.2-0.7-0.4h16.1
		c0.7,0,1.3,0.5,1.6,1.1C100.4,191.8,99.8,191.5,99.2,191.5z M108.9,198.5H87.2c-0.6,0-1-0.4-1.2-0.9c0.3,0.3,0.7,0.5,1.2,0.5
		l22.3-0.2c1,0,1.6,1.1,1.1,1.9c0-0.1,0-0.1,0-0.2C110.3,199,109.7,198.5,108.9,198.5z M164.2,172.4c-1.1,1.1-10.9,8.8-27.9,15.8
		c-0.1,0-0.2,0.1-0.2,0.2l-18.4,11.8c-0.1,0-0.1,0.1-0.2,0.1l-10.2,8.8c-0.4,0.3-0.9,0.5-1.4,0.5c-0.3,0-0.5-0.1-0.8-0.3
		c0.2-0.1,0.4-0.2,0.7-0.4c6.6-5.6,13.6-10.9,13.6-10.9s15.8-10.9,16.1-11.1c13.1-6.2,23.6-14.4,31.6-24.2
		c8.2-8.8,15.2-19.3,20.2-30.7c1-2.2,1.9-4.5,2.7-6.8C186.5,140,179.2,157.1,164.2,172.4z"/>
	<path class="st0" d="M41.9,92.9c-4.7-0.1-11.5,1.4-10.6,14.2c0.4,6.4,7,11.6,6.9,16.3c0,2.1-0.8,4.2-2.7,4.2c-2.3,0-2-3.4-3.9-3.4
		c-1,0-1.6,1.4-1.6,2.4c0,1.8,1.7,5,5.3,5.2c5.7,0.4,10.6-3.6,9.4-9.3c-1.2-5.4-2.5-7.2-4.2-10.2c-1.2-2.2-2-4.5-2.4-8.8
		c-0.4-5.1,1.5-6.8,4.2-6.8c1.6,0,2,2.4,2.9,2.4c1.1,0,1.5-1.2,1.5-1.7S45.4,93,41.9,92.9z M110.1,105.3c1.9,0.3,2.8-1.9,2.8-3.4
		c0-0.6-0.4-1-0.9-1.3c-3.4-1.3-4.3,1.1-4.2,2.9C107.9,104.7,108.6,105.1,110.1,105.3z M171.9,113.5c-0.5,0-0.9,0.7-1,0.8
		c-1.9,2.8-6.7,4.6-11.2,6.8c-2.2-4.1-5.2-7.7-5.1-10.7c0-2.4,1.8-2.8,2.9-2.8c0.5,0,0.8,0,1,0c0.3,0,0.8,0.1,0.9-0.6
		c0.1-1-2.8-1.4-2.8-1.4c-2,0-7.9-0.1-7.9,5.4c0,1.6,0.7,3.4,1.6,5.2c-1.3,3.2-3.3,9.1-5.8,9c-3.5-0.2-4.2-3.2-5-7.4
		c1.9-2.8,3.5-4.5,3.5-7.7c0-1.3-0.5-3.8-3.7-3.8c-3.2,0-4.5,4.1-4.6,7.2c0,0.9,0,2.7,0.3,4.8c-3.2,3.6-7.4,6.7-10.4,6.7
		c-1.3,0-2.6-0.9-2.6-3.8c0-2,0.5-4.2,1.3-6.2c1-2.9,1.9-4.4,3.5-4.7c1.6-0.3,2.1,0.6,2.8,0.9c0.2,0,0.5-0.2,0.5-0.5
		c0-0.7-0.7-3.5-5.2-3.2c-3.6,0.2-6,4.7-7.3,8.6c0,0.1-0.1,0.1-0.1,0.2c-0.7,1-7.3,8-8.3,8c-1.2,0,0.4-7.3,0.7-8.9
		c0.2-1.6,0.8-5.2,0.8-5.2c0-1.4-0.4-2-1.5-2c-1.3,0-2.7,0.8-2.9,1.9c0,0-1,2.4-1.9,5.6c-0.8,0.6-1.9,1.4-3.3,1.4
		c-1.5,0-3.3-1.2-3.3-3.2c0-0.2,0-0.5,0.1-0.8c0.9-2.1,1.2-2.9,1.2-3.9c0-0.9-0.7-2.6-2.9-2.7c-2.2,0-3.4,1.1-3.9,3
		c-0.1,0.5-0.2,1.2-0.2,1.7c0.1,1.3,0.7,3,1.2,3.7c-0.3,0.5-4.4,10.6-5.7,10.6c0.1-0.7,0.1-4.4,0.1-8c0.1-4.4,0-8.6-3.1-8.5
		c-1.4,0.1-1.8,3.3-2,5.3c-0.1,0.4-0.1,0.7-0.2,1.1c-0.3,2.5-1.3,3.6-2.1,4.7c-0.4,0.6-3.2,4.2-5.2,4.2c-0.7,0,0.1-9-3.6-10.6
		c-0.9-0.3-2.5-0.9-4.1-0.9c0,0,0,0,0-0.1c0-0.3,0.3-1.3,0.3-2.3c0-1.3-0.5-2.7-3-2.7c-0.8,0-1.6,2.2-1.6,3.9c0,1.1,0.4,2.5,1.3,3.4
		c-1.2,3.1-2.3,5.6-3.2,7.3c-2.1,3.2-3.6,3.9-6.6,3.7c-2.2-0.2-2.6-1.5-3-4.7c-0.1-1.1-0.2-0.9,0.1-2.3c0-0.1,0.8-0.2,0.9-0.2
		c2-0.2,6.8-2.4,6.7-8.3c-0.1-2.9-3.6-3.4-5-3.2c-5.8,0.6-7.2,8.8-7.3,12.9c-0.1,9.3,5.7,9.8,7.4,9.8c1.4,0,2.7-0.4,3.8-0.9
		c1.8-0.7,5.9-3.4,9.9-12.9c1.6,0.8,1.8,2.8,1.8,4.6l0,1.9c-0.1,5.4,1.5,7.6,3.4,7.6c3,0,6.8-5.7,9.2-9.7c0,5.4,0.4,11.4,3.5,11.6
		c3.1,0.1,9.2-14,9.3-14.2c1.1,1.6,3.5,2.8,5.6,2.8c0.5,0,1.1-0.1,1.6-0.2c0.3-0.1,0.6-0.2,0.9-0.4c-0.1,0.6-0.1,1.3-0.2,1.9
		c-0.2,4.2,0.3,8.1,3,8c3.4-0.1,7.4-4.4,10.2-8c0,1.7,0.8,7.4,6.4,7.5c4.9,0.1,9.5-4,12.5-7.9c1,4.1,3,8.2,7.5,8.3
		c4.7,0.1,7.8-6,8.9-10.7c1,1.7,2.2,3.4,3.1,5c-2.1,1.7-3.7,4.5-3.7,7.3c-0.1,5.8,2.5,6.1,4.5,6.2c1.6,0,6.3-1.6,6.4-8.6
		c0-1.8-0.5-3.5-1.2-5.2c4.2-2.4,8.5-4.3,10.2-6.9c0.9-1.4,1.3-2.3,1.3-2.7S172.2,113.5,171.9,113.5z M54.8,110.3
		c0.5-0.2,1.6-0.2,1.6,0.8c0,3.3-4,4.9-4.3,5C52.3,114.6,53.2,110.8,54.8,110.3z M138.3,114.3C138.3,114.3,138.2,114.3,138.3,114.3
		c-0.2-1.3-0.4-2.5-0.4-3.4c0-1.6,1-2.2,1.4-2.3c0.5-0.2,1.3,0.4,1.2,1.4C140.4,111.2,139.6,112.6,138.3,114.3z M155.8,133.2
		c-1.5,0.1-1.8-1.8-1.8-2.9c0-1.7,1-3.1,2.2-4.4c0.4,0.6,2.2,3,2,4.7C158.1,132,157.6,133.1,155.8,133.2z"/>
	<path class="st0" d="M158.1,60.8c0-0.5-0.6-0.7-1-1c-0.5-0.3-1.2-0.2-1.5,0.2c-1,1.5-2,5.4-2.8,8.5c-0.3,1.2-1.1,0.5-1.2,0
		c-1.4-4-2.1-8.6-3.2-8.6c0,0-2.1,0-2.5,1c-0.4,1,0.4,1.7,2.1,6.7c1.1,3,2.4,6.5,3,7.5c0,1,0.4,2.7,0.3,3.7c0,5-0.3,5.9-0.4,6.1
		l-0.2,0.3c0.6,1.7,2.1,2,3.2,1.2c0.5-0.5,0.8-1.4,0.8-2.9l0-8.8c0-0.7,0-1.6,0.3-2.6c0.9-2.3,2.1-5.1,2.7-7.5
		C157.8,63.4,158.1,61.7,158.1,60.8z M66.7,83.4c0,0-1.6,0.1-1.6,0.1c-0.2,0-0.7,0-0.7-1.4c0-1.5,0.1-8.4,0.1-8.4s2.1,0,2.9-0.1
		c0.8-0.1,1-1.2,0.9-2c0-0.5-0.5-1.3-1-1.3c-0.7,0-1.7-0.2-3-0.1c0-0.5,0.2-6.4,0.2-6.7c0.6,0.1,2.1-0.3,2.9,0
		c1.3-0.3,1.3-1.4,1.3-2c0-0.4,0.1-0.9-0.2-1.2c-0.9-0.7-3.2-0.5-4.3-0.6c-2.4-0.1-3.5,0-3.5,3.5c0,0,0.2,3.1,0.2,3.1
		c-0.1,3.4-0.4,12.8-0.1,16c-0.2,1.7-0.7,4.4,1.8,4.5c1.1-0.1,4.4,0.3,5.3-0.3C69.5,85.8,69.5,83.3,66.7,83.4z M80,83.4
		c-1.1,0.1-2.8,0.3-3.6-0.2c-0.5-0.3-0.4-0.8-0.3-1.7c0,0-0.2-6.6-0.2-6.6c0.3-1.6,0.2-12.6,0.1-14.4c0-1.4,0.9-4.8-1.6-4.7
		c-3.3,0.7-1.8,6.8-2,8.6c0,0-0.4,20.6-0.4,20.6c0,1.7,1.8,2.4,3.4,1.6c1.5,0,4.5,0.1,5.6,0.3C83.7,86.4,83.8,83.2,80,83.4z
		 M57.9,56c-1.6-1.1-3.3-0.3-3.3,2c0,2.9-1.1,8.2-1.9,13.4c0,0.2-0.3,0.2-0.4,0c-0.9-4.4-1.4-7.8-1.4-10.5c0-0.6-0.2-1.9-2.4-1.9
		c-0.3,0-0.8,0.1-1.3,0.6c-0.5,0.6-0.6,1.3-0.5,2c0,1.6-0.8,4.9-1.4,9.4c0,0.2-0.3,0.2-0.4,0c-0.6-3.2-1.1-8.2-1.5-11.2
		c-0.2-0.9-0.4-3.6-2.2-3.6c-0.6-0.1-1.7,0.5-2.2,1.5c0,0.1,0,0.1,0,0.2c0.4,1.1,0.8,2.4,2.3,12.4c1.1,7.4,1.5,11.3,1.7,12.5
		c0.5,3,1.1,4.1,2.1,4.1c0.9,0.1,2.4-1,2.3-1.8c0-2.6,0.6-6.5,1.2-10.9c0-0.3,0.5-0.3,0.6,0c0.6,2.7,0.5,3.6,1,5.9
		c0.4,2.2,1.2,8.5,4.2,6.2c0,0,0.1,0.2,0.3-0.1c0.3-0.4,0.5-0.8,0.5-1.4c0-1.5,0.2-3.3,0.5-5.4c0,0,0-0.6,0-0.6
		c0.8-5.1,1.5-15.2,2.5-20.3C58.9,57.7,58.7,56.7,57.9,56z M132.6,83.3c-1.1,0.1-2.5,0.3-3.3-0.2c-0.5-0.3-0.4-0.8-0.3-1.7
		c0,0-0.2-6.6-0.2-6.6c0.3-1.6,0.2-8.8,0.1-10.6c0-1.4,1.1-4.8-1.4-4.7c-3.3,0.7-1.8,5.9-2,7.7c0,0-0.4,17.6-0.4,17.6
		c0,1.7,1.8,2.4,3.4,1.6c1.5,0,4.1,0.1,5.2,0.3C136.3,86.3,136.4,83.2,132.6,83.3z M144.8,83.3c-1.1,0.1-2.5,0.3-3.3-0.2
		c-0.5-0.3-0.4-0.8-0.3-1.7c0,0-0.2-6.6-0.2-6.6c0.3-1.6,0.2-8.8,0.1-10.6c0-1.4,1.1-4.8-1.4-4.7c-3.3,0.7-1.8,5.9-2,7.7
		c0,0-0.4,17.6-0.4,17.6c0,1.7,1.8,2.4,3.4,1.6c1.5,0,4.1,0.1,5.2,0.3C148.5,86.3,148.6,83.2,144.8,83.3z M88.5,59.5
		c-5.1,0.2-5.3,8.7-5.2,14.5c-0.1,6.7,2,13.5,6,13.1c3.6,0,5.8-4,5.8-11.8c0-4,0.2-9.5-1.9-12.9C92,60.2,90.6,59.4,88.5,59.5z
		 M89.8,83.1c-0.3,0.4-0.9,0.3-1.1-0.1c-0.5-1.1-1-2.7-1.1-3.9c-0.3-3.4-0.3-7-0.2-10.4c0-1.6-0.1-5.9,1.8-5.9
		c0.4,0,0.9,0.1,1.3,1.1c0.9,2.3,1.5,4.5,1.4,8.4C92.1,76.3,91.4,80.8,89.8,83.1z M122,80.3c-0.7-6.7-3.3-12.7-3.4-19.5
		c0-0.5-1.2-0.8-1.8-0.9c-0.8-0.1-0.9,0.1-1.7,0.2c-0.2,0.6-0.3,1.2-0.5,1.7c-1.9,7.4-2.6,15.3-4.8,23c0.1,1.6,2.6,2.4,3.5,0.7
		c0.9-1.5,1-3.5,1.2-5.2c1.2,0.2,2.7-0.1,3.8,0c0.6,2,0.2,4.1,0.6,5.2c0.3,0.7,0.9,0.8,2.3,0.8c0.7-0.1,1.5-0.6,1.4-1.3
		C122.5,83.4,122,81.1,122,80.3z M115,77.4c0-1.6,0.4-5.7,1.1-8.4c0.1-0.3,0.7-0.3,0.7,0c0.3,2.5,1,5.8,1,8.3
		C116.6,77.2,115.4,77.5,115,77.4z M106.2,82.8l-0.3,0c-0.1,0.1-0.4,0.4-0.6,0.3c-2.8-0.1-3-2.5-3.2-5.5c0.1-2.6,0-8.2,0.3-10.7
		c0.2-1.3,0.4-3.3,1.6-3.9c1.4,0.2,3.1,0.1,3.4-1.1c0.1-3.2-5.1-2.2-6.4-1.2c-2.1,1.5-3,5.7-2.9,13.3c-0.1,4.8,0.6,10.5,3.3,11.8
		c2.2,1.2,6.9,1.3,6.7-1.5C108.2,84,108,82.8,106.2,82.8z"/>
</g>
</svg>
