<?xml version="1.0" encoding="utf-8"?>
<!-- Generator: Adobe Illustrator 26.3.1, SVG Export Plug-In . SVG Version: 6.00 Build 0)  -->
<svg version="1.1" id="Layer_1" xmlns="http://www.w3.org/2000/svg" xmlns:xlink="http://www.w3.org/1999/xlink" x="0px" y="0px"
	 viewBox="0 0 196 210.6" style="enable-background:new 0 0 196 210.6;" xml:space="preserve">
<path d="M103.2,66.2c0.4-1.9,0-3.7-0.4-4.1c-0.6-0.7-1.5-1-1.9-1.1c0,1.1,0,2.7,0.1,4.8c0,1.2,0.1,1.9,0.1,2.7
	C101.2,68.1,102.9,68.2,103.2,66.2z M117.6,77.6c0-2.5-0.8-6.3-1.1-8.9c0-0.3-0.5-0.4-0.6,0c-0.7,2.9-1.3,7.3-1.3,8.9
	C114.9,77.7,116.2,77.5,117.6,77.6z M193.9,72.9c-6.8-30.5-29-48.6-41.6-56.8c-2-1.3-48.8-30.7-95.2-6.9
	c-8.8,4.5-16.6,10.5-23.4,17.7C14.4,43.3,1.8,66.8,0.2,91.6c-1.3,20.3,3.9,36.5,11.2,49.1c4.8,12.3,13,24.3,26.5,33.8
	c2.9,2,13.9,8.5,18.2,9.4c0.3,0.1,0.5-0.1,0.6-0.4c0.1-0.3-0.1-0.5-0.4-0.6c-4.1-0.8-15.1-7.3-17.8-9.2
	c-11.2-7.8-18.6-17.4-23.5-27.5c6.7,9.7,14.4,16.8,20.5,21.5l0.3,0.3c5.3,4.1,13.8,8.8,20.8,11.3c0.1,0,0.2,0,0.2,0
	c0.8,0.4,1.7,0.6,2.4,0.6c2.1,0,4.7-1.9,7-3.6c0.4-0.3,0.8-0.6,1.1-0.8c3.6-2.6,6.2-4.8,6.2-4.8l10-8.5c0.4-0.3,0.9-0.5,1.4-0.5
	c0.5,0,1,0.3,1.3,0.7c0.6,0.8,0.5,2-0.3,2.7l-5.2,4.5c-0.6,0.5-0.8,1.3-0.5,2c0.3,0.7,0.9,1.2,1.7,1.2h21.7c0.7,0,1.3,0.6,1.3,1.3
	s-0.6,1.3-1.3,1.3H91.2c-1.2,0-2.1,0.9-2.1,2.1s0.9,2.1,2.1,2.1h15.6c0.7,0,1.3,0.5,1.3,1.1c0,0.4-0.1,0.7-0.3,1
	c-0.2,0.3-0.6,0.4-0.9,0.4H86.5c-0.2,0-0.4,0-0.6,0.1c-0.3,0-0.5,0.2-0.7,0.4c-0.4,0.4-0.7,0.9-0.7,1.5c0,1.1,0.9,1.9,1.9,1.9h17.9
	c0.4,0,0.7,0.1,0.9,0.4c0.2,0.3,0.4,0.6,0.3,1c-0.1,0.6-0.6,1.1-1.3,1.1H83.9c-1.1,0-1.9,0.9-1.9,1.9v0.3c0,1.1,0.9,1.9,1.9,1.9
	h15.3c0.4,0,0.7,0.1,0.9,0.4c0.2,0.3,0.4,0.6,0.3,1c0,0.1-0.1,0.2-0.1,0.3c-0.3,0.3-0.7,0.4-1.1,0.4l-12.2,0c-0.7,0-1.4,0.5-1.5,1.2
	c-0.3,0.4-0.5,0.9-0.5,1.5c0,1.2,1,2.3,2.3,2.3h21.7c0.5,0,0.7,0.4,0.7,0.5s0.2,0.5-0.2,0.9l-5.2,4.5c-1.2,1-1.4,2.9-0.4,4.1
	c0.5,0.6,1.2,1,2,1c0.1,0,0.2,0,0.3,0c0.7,0,1.4-0.2,1.9-0.7l10.1-8.8c0,0,0,0,0,0l18.8-12c17.1-7,26.9-14.8,28-15.9
	c18.2-18.7,25.3-39.8,27.9-56.4C196.6,102.1,197.1,87.2,193.9,72.9z M34.4,27.6c4.5-3.8,9.3-7.1,14.4-10c-1.2,0.8-2.4,1.7-3.5,2.6
	c-13.5,8-22.4,23-27.6,34.8c-2.1,4.6-3.8,9.2-5.2,13.4c-0.8,1.9-1.5,3.6-2.1,5.3C15,55.3,23.2,39.7,34.4,27.6z M53.6,83.2l1.3,0.2
	c1.1,0,1.2,0.4,1.6,0.3c0.4-0.1,0.6,1.6,0,2.4c-0.3,0.4-0.5,0.4-1,0.4c-1.2,0-4.2,0-5.3,0.1c-1,0-2.4,0.2-2.7-0.3
	c-0.3-0.5-0.2-1.7,0-2.1c0.3-0.6,1.6-0.9,2.6-0.7c-0.5-6.1,0.1-15.3-0.2-21.4c-0.9,0.2-2,0-2.8,0c-0.2,0-0.6-1.6,0-2.6
	c1.9-1,6.5-0.8,8.7-0.5c1.2,0.1,1.5,1.7,0.6,2.9l-2.8,0.3C53.5,68.1,53.3,77.3,53.6,83.2z M38.2,103.5c0.4,4.4,1.1,6.7,2.4,8.8
	c1.7,3,3.1,4.8,4.2,10.2c1.2,5.7-3.7,9.7-9.4,9.3c-3.7-0.3-5.3-3.4-5.3-5.2c0-1,0.6-2.4,1.6-2.4c1.9,0,1.6,3.4,3.9,3.4
	c1.9,0,2.7-2,2.7-4.2c0.1-4.7-6.5-9.9-6.9-16.3C30.5,94.4,37.2,92.8,41.9,93c3.5,0.1,4.9,4,4.9,4.4S46.4,99,45.3,99
	c-0.9,0-1.2-2.4-2.9-2.4C39.7,96.6,37.8,98.4,38.2,103.5z M18.6,55.5C18.6,55.4,18.6,55.4,18.6,55.5c4.2-9.4,10.7-20.7,19.9-29
	C30.4,34.9,23.7,45.5,18.6,55.5z M1.2,91.6c1.4-21.9,11.5-42.8,27.2-58.5c-10.1,13-17.2,29.4-20.7,48.2c-0.8,2.5-1.2,4.3-1.3,5.2
	C6.2,88.6,6,90.7,6,92.8c-1.2,11.1-1.3,26.5,3.4,41.8C3.7,123.1,0.1,108.8,1.2,91.6z M36.3,167.2L36,167
	c-7.1-5.4-16.4-14.2-23.7-26.7c-5-12.8-6.2-26.1-6-37.1c1.4,15,6.6,29.9,15,43c7.1,11.6,16.6,21.6,28.2,29.1
	C44.6,172.8,39.8,169.9,36.3,167.2z M84.9,160.8c-0.8-0.1-1.5,0.2-2.1,0.7l-10,8.5c0,0-2.6,2.2-6.1,4.8c-0.4,0.3-0.8,0.6-1.1,0.8
	c-2.1,1.6-4.6,3.4-6.4,3.4c-0.3,0-0.6-0.1-0.9-0.2c-1.1-0.5-2-1-2.8-1.4c1.6,0.6,3.1,1.1,3.3,1.1c2.3,0,24-17.6,24-17.6
	c0.9-0.8,2.5-1,3.7,0.4C86,161.1,85.5,160.9,84.9,160.8z M86.3,132.1c-3.1-0.1-3.6-6.2-3.5-11.6c-2.4,4-6.2,9.7-9.2,9.7
	c-1.9,0-3.5-2.2-3.4-7.6l0-1.9c0-1.8-0.2-3.8-1.8-4.6c-4,9.5-8.1,12.2-9.9,12.9c-1.1,0.5-2.4,0.8-3.8,0.9c-1.7,0-7.6-0.5-7.4-9.8
	c0-4,1.5-12.3,7.3-12.9c1.4-0.1,4.9,0.4,5,3.2c0.1,5.9-4.6,8.2-6.7,8.3c-0.1,0-0.8,0.1-0.9,0.2c-0.2,1.4-0.2,1.2-0.1,2.3
	c0.4,3.3,0.8,4.5,3,4.7c3,0.3,4.5-0.4,6.6-3.7c0.9-1.7,2.1-4.3,3.2-7.3c-0.9-0.8-1.3-2.3-1.3-3.4c0-1.7,0.8-3.9,1.6-3.9
	c2.5,0,3,1.4,3,2.7c0,1-0.3,2-0.3,2.3c0,0.1,0,0.1,0,0.1c1.6,0,3.2,0.5,4.1,0.9c3.7,1.5,2.9,10.6,3.6,10.6c2.1,0,4.8-3.6,5.2-4.2
	c0.8-1.1,1.8-2.2,2.1-4.7c0-0.3,0.1-0.7,0.2-1.1c0.1-2,0.5-5.3,2-5.3c3.1-0.1,3.1,4,3.1,8.5c0,3.7,0,7.3-0.1,8
	c1.3,0,5.5-10,5.7-10.6c-0.5-0.7-1.2-2.4-1.2-3.7c0-0.5,0.1-1.2,0.2-1.7c0.4-1.9,1.7-3,3.9-3c2.2,0,2.9,1.8,2.9,2.7
	c0,1-0.4,1.8-1.2,3.9c0,0.3-0.1,0.5-0.1,0.8c0,2,1.8,3.2,3.3,3.2c1.4,0,2.5-0.8,3.3-1.4c0.9-3.2,1.9-5.6,1.9-5.6
	c0.1-1.1,1.6-1.9,2.9-1.9c1,0,1.5,0.6,1.5,2c0,0-0.5,3.6-0.8,5.2c-0.2,1.6-1.8,8.9-0.7,8.9c1,0,7.6-7,8.3-8c0-0.1,0.1-0.1,0.1-0.2
	c1.3-4,3.7-8.4,7.3-8.6c4.5-0.3,5.2,2.5,5.2,3.2c0,0.2-0.3,0.5-0.5,0.5c-0.7-0.2-1.2-1.2-2.8-0.9c-1.6,0.3-2.5,1.8-3.5,4.7
	c-0.7,2-1.2,4.2-1.3,6.2c0,2.9,1.3,3.8,2.6,3.8c3,0,7.1-3.1,10.4-6.7c-0.3-2.1-0.3-3.9-0.3-4.8c0-3.2,1.4-7.2,4.6-7.2
	c3.2,0,3.7,2.5,3.7,3.8c0,3.2-1.6,4.8-3.5,7.7c0.7,4.2,1.5,7.2,5,7.4c2.6,0.1,4.5-5.8,5.8-9c-1-1.9-1.7-3.6-1.6-5.2
	c0.1-5.4,6-5.4,7.9-5.4c0,0,2.9,0.4,2.8,1.4c-0.1,0.7-0.6,0.6-0.9,0.6c-0.2,0-0.5,0-1,0c-1.1,0-2.8,0.3-2.9,2.8
	c0,3,2.9,6.6,5.1,10.7c4.5-2.2,9.3-4,11.2-6.8c0.1-0.1,0.4-0.8,1-0.8c0.3,0,0.6,0.1,0.6,0.5c0,0.4-0.4,1.3-1.3,2.7
	c-1.7,2.6-6,4.6-10.2,6.9c0.7,1.7,1.2,3.5,1.2,5.2c-0.1,7-4.8,8.6-6.4,8.6c-2,0-4.6-0.4-4.5-6.2c0-2.9,1.6-5.6,3.7-7.3
	c-0.9-1.6-2.1-3.3-3.1-5c-1,4.7-4.2,10.8-8.9,10.7c-4.4-0.1-6.5-4.2-7.5-8.3c-3,3.9-7.6,8-12.5,7.9c-5.7-0.1-6.4-5.8-6.4-7.5
	c-2.8,3.6-6.7,7.9-10.2,8c-2.7,0.1-3.2-3.8-3-8c0-0.6,0.1-1.2,0.2-1.9c-0.3,0.2-0.6,0.3-0.9,0.4c-0.5,0.2-1,0.2-1.6,0.2
	c-2.1,0-4.6-1.2-5.6-2.8C95.5,118.1,89.4,132.2,86.3,132.1z M61.2,61c-0.3-2.3,2.5-3.3,3.4-1.4c1.5,5.5,2.5,11.1,3.5,17.6
	c1.5-5.8,1.6-13.8,3.8-17.8c1-1,2.9-1.2,3.1,1.1c0.8,8.3,0.5,12.2,0.7,17.2c0.1,2.4,0.3,6.6,0.2,8.2c-0.1,1-2.6,1.4-3.1,0.4
	c-0.3-0.5-0.3-1.1-0.3-2.2c0.1-2.4,0.1-4.1,0.2-6.4c0.1-2.1,0.2-7.6-0.2-7.6c-0.3,0-1.9,13.7-4.3,13.6c-1.6-0.1-2.8-3.7-3.5-7.9
	c-0.4-2.2-0.6-5.6-0.9-5.7c-0.3-0.1-0.2,10.3,0.2,14.7c0.1,1-0.8,1.8-1.6,1.7c-1.1-0.1-2.1,0-2.1-1.3C60.4,83.2,61.3,63.7,61.2,61z
	 M154,75.3c0,0,0.2,6.6,0.2,6.6c-0.1,0.9-0.2,1.4,0.3,1.7c0.8,0.5,2.7,0.3,3.7,0.2c3.8-0.1,3.7,3,1.1,3.5c-1.1-0.2-4.1-0.4-5.6-0.3
	c-1.6,0.9-3.4,0.1-3.4-1.6c0,0,0.4-18.5,0.4-18.5c0.2-1.8-1.3-7.6,2-8.3c2.5-0.1,1.4,3.4,1.4,4.7C154.2,65.1,154.3,73.6,154,75.3z
	 M150.1,21.8c-4.4-2.5-8.7-4.5-12.4-6.2c-7.4-3.4-35.9-15.9-69.8-6.2c29.1-9,53.9-1.5,57-0.5c9.6,3.1,18.6,7.8,26.7,13.7
	C151.1,22.3,150.6,22.1,150.1,21.8z M145.9,84c0.3,0.5,0.8,1.4-0.1,2.2c-0.8,0.6-4.9,0.1-5.8,0.2c-5.3,2.2-2.3-5.4-1.5-7.8
	c0.8-4.9,4.2-12.1,4.8-16.7c-3,0.6-4.7-0.1-4.8-1.2c0-0.6,0-1.8,1.2-2.2c0.8-0.3,2.9-0.1,4.5,0.1c4.2-0.2,3,2.8,2,5.8
	c-1.6,6.2-4.2,12.6-5.1,19C142.5,83,145.3,83.1,145.9,84z M131.7,84.7c-0.1,1.8-2.2,1.8-3.5,1.6c0.3-3.7-0.1-17.5-0.1-23.6
	c0-0.3,0-0.6,0-0.8c-1.5-0.1-3.4-0.1-4-0.7c-0.5-0.5-1.1-2-0.1-2.8c1.3-0.7,8.5-0.1,9.9-0.2c2.4,0.2,3,2.1,1.8,2.9
	c-0.7,0.6-3.5,0.9-4.3,0.7C131.1,66.4,132,80.3,131.7,84.7z M101.2,76.1c0,0.6,0,2.4,0.1,4.5c0.2,2.2,0.1,3.3,0.1,3.9
	c0,0.8-0.1,1.3-0.4,1.8c-0.4,0.6-0.9,0.7-1.3,0.7c-0.3,0-1.1-0.1-1.4-1.3l0-0.1l0-0.1c0-1,0-2.3,0-3.7c0-1.5,0.2-4.9,0-9.9
	c-0.2-5-0.4-8.8-0.4-11.3c0-2.2,1.2-2.6,2-2.6c1.6,0,2.9,0.4,4,1.3c1.1,0.9,2.3,3.5,2.3,5.1c0,2-0.7,5.4-2.9,7.4
	c0.2,0.7,0.6,2.4,1.3,4.3c1.3,4,1.7,5.6,2.7,7.4c0.4,0.6,0.5,1.1,0.6,1.5c0,0.4-0.1,0.8-0.3,1.2c-0.3,0.4-0.7,0.6-1.1,0.6
	c-1.3,0.1-2.3-1.4-3.3-4.8c-0.4-1.3-0.7-2.1-1-3.4c-0.3-1.4-0.6-4-0.8-4C101.1,74.6,101.2,75.9,101.2,76.1z M112,100.8
	c0.6,0.2,0.9,0.6,0.9,1.3c0,1.5-0.9,3.6-2.8,3.4c-1.6-0.2-2.3-0.6-2.3-1.7C107.7,101.9,108.6,99.4,112,100.8z M112.9,85.9
	c-0.9,1.8-3.4,0.9-3.4-0.7c2.3-8.1,3-17.1,5-24.8c0.2-0.6,0.3-1.2,0.5-1.8c0.8-0.1,0.7-0.4,1.6-0.2c0.6,0.1,1.6,0.4,1.7,0.9
	c0.1,7.1,2.8,14.1,3.5,21.1c0,1.3,1.9,6.2-0.5,6.4c-3.8-0.2-2-3.1-3.1-6.4c-1.2-0.1-2.6,0.4-3.9,0.1
	C113.9,82.2,113.8,84.3,112.9,85.9z M111.6,54c3-2.6,5.4,3.2,1.3,3.4C111,57.5,110.5,55.2,111.6,54z M118.4,54
	c1.9-2,4.9,1.2,2.8,2.9C119.3,58.7,116.5,55.9,118.4,54z M90.7,83c0-2.2,0-4-0.2-4c-0.9,0-1.8,0.2-2.6,0.1c-0.6-0.1-0.5-1.6-0.4-2.2
	c0-0.5,0.3-0.8,0.6-1c0.7-0.4,1.9-0.3,2.5-0.3c0.8-0.1,1.8,0,2.4,0.1c0.4,0,0.7,0.3,0.8,0.6c0.2,0.5,0.4,1.2,0.4,1.7
	c0,2.4,1.6,12.3-3.5,8.8c-9.1,4.2-10.9-8.6-10.3-15.1c0.2-8.3,0.2-17.7,8.2-17.9c1.2,0.1,2.5,0.3,2.8,0.8c0.4,0.6,0.1,1.4-0.4,1.9
	c-0.6,0.5-2.3,1.3-3.2,0.8c-3.7,1.3-2.8,6.8-3.3,9.9C84,72,82.8,85.7,90.7,83z M103.5,171.8H81.8c-0.5,0-0.6-0.3-0.7-0.5
	c0.1,0,0.2,0,0.2,0l22.6,0.1c1,0,1.8,0.8,1.8,1.8c0,0,0.1,0.4,0,0.8C105.8,172.8,104.8,171.8,103.5,171.8z M106.8,178.6H91.2
	c-0.6,0-1.1-0.5-1.1-1.1c0-0.1,0-0.2,0-0.2c0.2,0.8,0.8,0.9,1.5,0.9l15.6,0c0.8,0,1.5,0.5,1.7,1.2c0.1,0.5,0.2,0.8,0.1,1.2
	C109,179.4,108,178.6,106.8,178.6z M104.4,184.9H86.5c-0.4,0-0.7-0.3-0.9-0.6c0.2,0.1,0.4,0.2,0.7,0.2h18.1c0.7,0,1.2,0.4,1.5,1
	C105.5,185.1,104.9,184.9,104.4,184.9z M99.2,191.5H83.9c-0.3,0-0.6-0.2-0.7-0.4h16.1c0.7,0,1.3,0.5,1.6,1.1
	C100.4,191.8,99.8,191.5,99.2,191.5z M108.9,198.5H87.2c-0.6,0-1-0.4-1.2-0.9c0.3,0.3,0.7,0.5,1.2,0.5l22.3-0.2c1,0,1.6,1.1,1.1,1.9
	c0-0.1,0-0.1,0-0.2C110.3,199,109.7,198.5,108.9,198.5z M164.2,172.4c-1.1,1.1-10.9,8.8-27.9,15.8c-0.1,0-0.2,0.1-0.2,0.2
	l-18.4,11.8c-0.1,0-0.1,0.1-0.2,0.1l-10.2,8.8c-0.4,0.3-0.9,0.5-1.4,0.5c-0.3,0-0.5-0.1-0.8-0.3c0.2-0.1,0.4-0.2,0.7-0.4
	c6.6-5.6,13.6-10.9,13.6-10.9s15.8-10.9,16.1-11.1c13.1-6.2,23.6-14.4,31.6-24.2c8.2-8.8,15.2-19.3,20.2-30.7c1-2.2,1.9-4.5,2.7-6.8
	C186.5,140,179.2,157.1,164.2,172.4z M191.8,116.5c-1.4,5.1-3.1,10.2-5.3,15.2c-3.3,7.5-7.4,14.5-12.2,21
	c8.4-13.9,13-30.3,14.3-48.2c0.9-8.1,1-16.6,0.3-25.2c-0.2-2.8-0.6-5.5-1-8c2,5.8,3.5,11.7,4.4,17.8
	C192.6,91.3,193.9,102.1,191.8,116.5z M193.3,88.8c-1.2-8.2-3.4-16.1-6.6-23.6c-2.6-10.7-7.3-19.6-14.2-27
	c-4.8-5.2-9.9-9.1-14.9-12.2c-9.5-8-20.5-14.2-32.3-18c-3.6-1.2-35.7-10.8-70.3,5.4c-5,2.3-9.8,5.1-14.3,8.3
	c5.1-4.5,10.8-8.3,16.9-11.5c45.9-23.5,92.3,5.6,94.2,6.9c12.5,8,34.5,26,41.2,56.1c2.5,11.1,2.7,22.5,0.8,34
	C194.4,97.5,193.5,90.6,193.3,88.8z M56.4,111.2c0-1-1.1-1-1.6-0.8c-1.5,0.6-2.5,4.3-2.6,5.8C52.5,116.1,56.5,114.5,56.4,111.2z
	 M138.3,114.4c1.3-1.7,2.1-3.1,2.2-4.4c0.1-1-0.7-1.5-1.2-1.4c-0.4,0.1-1.4,0.7-1.4,2.3C137.9,111.9,138,113.1,138.3,114.4
	C138.2,114.4,138.3,114.4,138.3,114.4z M155.8,133.3c1.8-0.1,2.3-1.2,2.4-2.6c0.2-1.7-1.6-4.1-2-4.7c-1.2,1.3-2.2,2.6-2.2,4.4
	C154,131.5,154.3,133.3,155.8,133.3z"/>
</svg>
