<svg width="480px" height="480px" viewBox="0 0 480 480" xmlns="http://www.w3.org/2000/svg">
    <g stroke="none" stroke-width="1" fill="none" fill-rule="evenodd">
        <rect fill="#DEEAE6" x="0" y="0" width="480" height="480"></rect>
        <g transform="translate(120.000000, 120.000000)" fill="#aaaaaa" fill-rule="nonzero">
            <path d="M175.983871,111.290323 L90.8225806,59.516129 C83.1774194,55.2580645 73.5483871,60.7258065 73.5483871,69.6774194 L73.5483871,170.322581 C73.5483871,179.225806 83.1290323,184.741935 90.8225806,180.483871 L175.983871,131.612903 C183.919355,127.209677 183.919355,115.741935 175.983871,111.290323 Z M240,120 C240,53.7096774 186.290323,0 120,0 C53.7096774,0 0,53.7096774 0,120 C0,186.290323 53.7096774,240 120,240 C186.290323,240 240,186.290323 240,120 Z M23.2258065,120 C23.2258065,66.5322581 66.5322581,23.2258065 120,23.2258065 C173.467742,23.2258065 216.774194,66.5322581 216.774194,120 C216.774194,173.467742 173.467742,216.774194 120,216.774194 C66.5322581,216.774194 23.2258065,173.467742 23.2258065,120 Z"></path>
        </g>
    </g>
</svg>
