<?xml version="1.0" encoding="utf-8"?>
<!-- Generator: Adobe Illustrator 25.4.1, SVG Export Plug-In . SVG Version: 6.00 Build 0)  -->
<svg version="1.1" id="speech-bubble-flip" xmlns="http://www.w3.org/2000/svg" xmlns:xlink="http://www.w3.org/1999/xlink" x="0px" y="0px"
	 viewBox="0 0 166 153.7" style="enable-background:new 0 0 166 153.7;" xml:space="preserve">
<style type="text/css">
	.st0{
    fill:#F37064;
    }
  #speech-bubble-flip {transform: scaleX(-1);}
</style>
<path class="st0" d="M165.7,11.3c-0.1-7.2-2.6-9.9-11.5-10.8c0,0-52.5-0.7-72.2,0.2c-35.6,1.6-67,4-67,4C7.6,5.1-0.1,10.6,0.3,18
	c0,0,1.3,62.8,1.7,70.8c0.5,11.4,1.6,25.6,1.6,25.6c1,7.4,1.3,11.2,8.6,13.2c0,0,6.4,3,27.2,2c0.3,0,3.1-0.2,5.2-0.1
	c3.5,3,4.3,7.4,8.1,12.9c4.3,6.1,7.9,9.6,16.3,11.3l0,0c-9.7-10.7-6.4-19-1.4-24.3c0.8,0,1.5,0,2.1-0.1c13.9-0.7,27.7-2.6,48.3-3.5
	c19.8-0.9,32.2-4.9,32.2-4.9c8.5-2.2,9.9-8.6,10.1-16.4L165.7,11.3z"/>
</svg>
