<?xml version="1.0" encoding="utf-8"?>
<!-- Generator: Adobe Illustrator 26.0.2, SVG Export Plug-In . SVG Version: 6.00 Build 0)  -->
<svg version="1.1" id="Layer_1" xmlns="http://www.w3.org/2000/svg" xmlns:xlink="http://www.w3.org/1999/xlink" x="0px" y="0px"
	viewBox="0 0 421.6 249.9" style="enable-background:new 0 0 421.6 249.9;" xml:space="preserve" preserveAspectRatio="none">
<style type="text/css">
	.st0{fill-rule:evenodd;clip-rule:evenodd;fill:#F37064;}
</style>
<path id="bubble" class="st0" d="M14.8,86.2c1.5-15.9,6.5-24.9,21.6-25.5c23.9-3.4,48-5.4,72.1-6.2c48.7-1.6,49.4-2.2,107.3-4.1
	c22.1-0.8,44.9-3.6,66.9-4.5c1.3-0.1,2.8-0.1,4.4-0.1c10.4-10.8,16.2-22.6-3.2-44.8c17.1,3.6,24.4,11,33.1,23.6
	c8.7,11.3,8,14.8,12,20.1c2.7,0,5.1,0,7.2-0.1c42.5-1.4,63.5,3.9,63.5,3.9c15.1,3,13.7,12.9,16.3,29.1c1.5,9.5,2.6,25.5,3.3,47.9
	c0.4,16.4,2.1,91.6,2.1,91.6c0.5,15.2-13.4,22.3-30.2,25.1c0,0-33.1,5.9-123,6.6c-71.5,0.6-116.6,0.9-171.8-1.6
	c-24.8-1.2-73.5-5.2-73.5-5.2c-18.2-2-23.3-4.6-23.2-19.3L14.8,86.2z"/>
</svg>
