<?xml version="1.0" encoding="utf-8"?>
<!-- Generator: Adobe Illustrator 23.1.1, SVG Export Plug-In . SVG Version: 6.00 Build 0)  -->
<svg version="1.1" id="Layer_1" xmlns="http://www.w3.org/2000/svg" xmlns:xlink="http://www.w3.org/1999/xlink" x="0px" y="0px"
	 viewBox="0 0 339.9 93.1" style="enable-background:new 0 0 339.9 93.1;" xml:space="preserve">
<style type="text/css">
	.st0{fill:#999999;}
</style>
<path d="M72.8,29.1c-0.3-1.2-1.4-2-2.7-2.1H70c-1.8,0-2.8,2.2-2.8,6.5l0.1,3.5v7.5l0.1,2.6c0,1.1,0.1,2.1,0.2,3.2
	c0.1,1.1,0.2,2.2,0.3,3.4c0.1,1.2,0.3,2.3,0.5,3.2s0.4,1.9,0.6,2.7c0.3,1.1,0.8,2.4,1.7,2.4c1,0,1.7-1,2.3-3c1-3.9,1.4-7.8,1.3-11.8
	l0.1-6.2c0.1-2.9-0.1-5.8-0.6-8.7C73.6,31.3,73.2,30.2,72.8,29.1z M328.4,29.9L328.4,29.9c1.7-1.2,3.2-2.6,4.9-3.6
	c0.1-1.4,1.2-1.6,1-3.3v-0.7c-0.8-0.7-2.1-0.8-3.6-0.7c-2.9,1.3-5,3.4-7.2,5.3c-0.5,1.4-2.1,3-1,4.9C325,32.8,326.8,31,328.4,29.9z
	 M157.8,6.2L156.1,0h-2.2l1.6,6C156.3,6,157,6.1,157.8,6.2z M118,41.9c2.1-0.7,11.1-7.3,11.1-7.3l8.9-7.8c0.9-0.8,2.2-0.7,2.9,0.2
	l0.1,0.1c0.7,0.9,0.6,2.2-0.3,3l-4.3,3.8l-0.2,0.2c-0.5,0.4-0.5,1.1-0.1,1.6c0.2,0.3,0.5,0.4,0.9,0.4h18.9c0.8,0.1,1.5,0.8,1.4,1.7
	c-0.1,0.8-0.7,1.4-1.4,1.4H145c-0.8,0-1.4,0.6-1.4,1.4s0.6,1.4,1.4,1.4h13.6c0.8,0,1.5,0.6,1.6,1.4c0.1,0.8-0.5,1.6-1.4,1.7h-0.1
	H141c-0.7,0-1.2,0.6-1.2,1.2c0,0.7,0.6,1.2,1.2,1.2h15.5c0.8,0,1.5,0.7,1.5,1.6v0.1c-0.1,0.8-0.8,1.4-1.6,1.4h-17.8
	c-0.7,0-1.2,0.6-1.2,1.2V52c0,0.7,0.6,1.2,1.2,1.2H152c0.9,0,1.5,0.7,1.5,1.6v0.1c-0.1,0.8-0.8,1.4-1.6,1.4h-10
	c-0.5,0.1-0.8,0.5-0.9,1c0,0.5,0.4,0.9,0.9,0.9h18.5c1.2,0,2.1,1,2.1,2.1c0,0.6-0.3,1.2-0.7,1.6l-0.2,0.2l-4.3,3.8
	c-0.5,0.4-0.6,1-0.3,1.5c0.2,0.3,0.4,0.4,0.8,0.5c0.3,0,0.6,0,0.8-0.2l8.8-7.7c0.1-0.1,0.1-0.1,0.2-0.2c5.2-3.7,11.7-8,13.1-8
	l1.5-0.2c0.4-2.1,0.6-4,0.6-6.1c0.1-18-14.5-32.6-32.4-32.6C133.8,12.9,119.8,25.4,118,41.9z M52.3,29.1c-0.3-1.2-1.4-2-2.7-2.1
	h-0.1c-1.8,0-2.8,2.2-2.8,6.5l0.1,3.5v7.5l0.1,2.6c0,1.1,0.1,2.1,0.2,3.2c0.1,1.1,0.2,2.2,0.3,3.4s0.3,2.3,0.5,3.2s0.4,1.9,0.6,2.7
	c0.3,1.1,0.8,2.4,1.7,2.4c1,0,1.7-1,2.3-3c1-3.9,1.4-7.8,1.3-11.8V41c0.1-2.9-0.1-5.8-0.6-8.7C53.1,31.3,52.7,30.2,52.3,29.1z
	 M141.5,6.6l-3.3-4.4l-1.3,0.5l3.3,4.3C140.6,6.9,141,6.7,141.5,6.6z M292,26.4l-0.1,0.5c0,1.5,0,3.9,0.1,7c0.1,2.6,0.1,4.4,0.1,5.8
	c0.9-0.9,1.6-1.9,2.1-3l0,0c1-2.7,1.1-5.6,0.3-8.4C294.1,27.3,293.1,26.6,292,26.4z M174.4,77.3c-1.2,1.1-2.6,2-4.1,2.7l0.7,7.4
	l-4.8,1.9l1.2,1.5l6-2.4l-0.6-7.4c1.4-0.6,2.7-1.4,3.8-2.4L174.4,77.3z M255.6,8.8c-9.3,0.3-43.8,0.5-82.4,0l0.4-4l-2.4-1l-0.8,7.4
	c0,0,3,1.1,4.1,2.8l6.6-3.6l4.4,4.8l-3.4,6.2c1.1,1.4,2.1,2.8,2.9,4.3l7.2-0.8l2.3,6.2l-5.6,4.4c0.5,1.6,0.8,3.3,0.9,5.1l7.1,2.1
	v6.4l-7.1,2.1c0,1.7-0.3,3.3-0.9,4.9l5.6,5l-2.5,5.6l-7.3-0.8c-0.8,1.5-1.7,2.8-2.8,4.1l3.5,6.5l-4.4,4.4l2.2,1.3l4.1-4
	c20.5-0.8,35.1-1.7,37.3-2.1c8.6-1.6,66.8,5.3,70.7,4s10,0.5,15-5c3.4-3.8,5.9-26.8,6-31c0-2.8-2.4-27.6-7-32
	C304.7,7.3,278.2,8,255.6,8.8z M217.9,26.4c-0.5,0.3-1,0.5-1.6,0.5l-3.3,0.5l-0.1,0.3c0,3.7-0.1,9.2,0.6,16.7
	c0.7,7.5,0.6,13.3,0.6,17.1c0,0.6-0.2,1.1-0.7,1.5c-0.4,0.4-0.9,0.6-1.5,0.5h-1.7l-0.1-5.8l0.1-2c-0.1-0.5,0.1-2.7-0.5-13.6
	c-0.5-8-0.3-13-0.4-15.1c-2.9-0.1-4.6-0.4-5-0.7c-0.6-0.3-1-0.9-1-1.6c0-0.5,0.3-1,0.8-1.3c0.4-0.3,0.9-0.4,1.5-0.4l9-0.3h1.8
	c2,0,2.3,1.2,2.3,1.8C218.6,25.3,218.4,26,217.9,26.4z M232.7,64c-0.6,0.3-1.3,0.5-2,0.5h-5.6c-0.6,0-1.2-0.2-1.6-0.6
	c-0.4-0.4-0.7-1-0.7-1.6c0-0.7,0-1.4,0.1-2.1c0.1-0.6,0.1-1.3,0.2-1.9l-0.3-7.7l0.4-17.5l-0.3-5c0-3.1,1-4.6,2.9-4.6
	c0.5,0,1,0.2,1.5,0.4l1,0.1c0.6,0,1.1,0.1,1.6,0.2s1,0.2,1.5,0.3c1.3,0.4,2,1,2,2s-0.7,1.7-2,2.2h-0.2c-1.3-0.5-2.6-0.8-4-1.1
	c0.1,0.7,0.1,1.4,0.1,2.2l-0.3,8.6c0,0,0,0.2,0.1,0.5l1.8-0.1c2.7,0,3.3,1.1,3.3,2c0,0.6-0.2,1.3-0.6,1.8c-0.4,0.5-1.1,0.9-1.8,0.8
	c-0.6,0-1.2-0.2-1.8-0.5h-1c0.1,1.4,0.1,2.8,0.1,4l-0.3,10.9c0,3,1.3,3,1.8,3l2.4-0.1c2.2,0,2.7,1,2.7,1.8
	C233.8,63.1,233.4,63.7,232.7,64z M250.5,62.5c-0.3,0.4-0.7,0.6-1.2,0.6l-4.9,0.1l-2.6,0.1c-1,0.1-2.1-0.4-2.6-1.3v-0.2
	c0-0.5,0.1-1,0.3-1.5s0.7-0.8,1.3-0.7h1.4l0.1-0.5l-0.4-12.7l0.3-13.4c0-2.1-0.1-4.1-0.3-6h-2c-0.6,0-1.2-0.1-1.8-0.4
	c-0.5-0.4-0.7-1-0.7-1.6c0-0.4,0.1-0.7,0.4-1c0.5-0.5,1.6-0.8,3.2-0.8h0.2c5.5,0,8.1,0.8,8.1,2.4c0,0.4-0.2,0.9-0.4,1.3l-0.1,0.2
	h-2.9c0.1,1.4,0.2,3,0.2,4.8l-0.3,11.4l0.4,12.7v2c0,0.4-0.1,0.8-0.1,1.2h2.1c2.3,0,2.8,1,2.8,1.9C251,61.6,250.8,62.1,250.5,62.5z
	 M266.6,64.1c-0.4,0.3-0.9,0.5-1.4,0.6H265c-1.7-0.5-3.4-0.7-5.2-0.7c-1.4,0.8-2.9,0.7-3.6-0.2c-0.4-0.4-0.6-1-0.6-1.6l0.6-27.2
	c-0.1-1.2-0.2-3.1-0.2-5.6c0-4.1,0.8-6.1,2.5-6.1c0.5,0,1,0.2,1.3,0.5c0.4,0.3,0.6,0.8,0.6,1.3l-0.4,4.6l0.2,14.5v0.1
	c-0.3,1-0.4,2.1-0.3,3.1l-0.2,9.6c0,2.5,0.6,3.8,1.7,3.8l2.5-0.1c2.4,0,3.6,0.7,3.6,2.1C267.3,63.3,267.1,63.8,266.6,64.1z M282,64
	c-0.6,0.3-1.3,0.5-2,0.5h-5.7c-0.6,0-1.2-0.2-1.6-0.6s-0.7-1-0.7-1.6c0-0.7,0-1.4,0.1-2.1c0.1-0.6,0.1-1.3,0.2-1.9l-0.3-7.7
	l0.4-17.5l-0.3-5c0-3.1,1-4.6,2.9-4.6c0.5,0,1,0.2,1.5,0.4l1,0.1c0.6,0,1.1,0.1,1.6,0.2s0.9,0.2,1.5,0.3c1.3,0.4,2,1,2,2
	s-0.7,1.7-2,2.2h-0.2c-1.3-0.5-2.6-0.8-4-1.1c0.1,0.7,0.1,1.4,0.1,2.2l-0.3,8.6c0,0,0,0.2,0.1,0.5l1.8-0.1c2.7,0,3.3,1.1,3.3,2
	c0,0.6-0.2,1.3-0.6,1.8s-1.1,0.9-1.8,0.8c-0.6,0-1.2-0.2-1.8-0.5h-1c0.1,1.4,0.2,2.8,0.2,4l-0.3,10.9c0,3,1.3,3,1.8,3l2.4-0.1
	c2.2,0,2.7,1,2.8,1.8C283,63.1,282.6,63.7,282,64z M300.4,64.7c-0.3,0.4-0.8,0.6-1.3,0.6c-1.6,0-2.8-2.2-4-6.8
	c-0.5-1.9-0.9-3.8-1.3-5.8c-0.7-3.7-1.2-5.9-1.5-7.2l-0.2,0.7c-0.3,1-0.4,2-0.4,3c0,0.9,0.1,2.9,0.4,6c0.2,3.1,0.4,5.1,0.4,6
	c0,0.8-0.1,1.6-0.5,2.3c-0.3,0.5-0.8,0.8-1.4,0.9c-0.5,0-1.2-0.3-1.5-1.5c0.1-1.5,0.1-3.4,0.1-5.5s-0.2-6.9-0.5-14.2
	s-0.5-12.8-0.5-16.4c0-2.7,1.3-3.2,2.4-3.2c2-0.1,3.9,0.5,5.5,1.7c1.5,1.2,2.4,3.1,2.3,5c0.1,2.2-0.2,4.4-0.7,6.5
	c-0.6,2-1.4,3.9-2.4,5.7c0.2,1,0.6,2.9,1.1,5.6c1.1,6.1,2.4,10.6,3.9,13.3c0.4,0.6,0.6,1.3,0.7,2C300.9,63.8,300.7,64.3,300.4,64.7z
	 M330.7,55.8L330.7,55.8c-1-0.6-2.2-1.5-2.9-2c-0.5-0.4-1-0.8-1.5-1.2c-1.5-0.7-2.7-1.9-4.8-0.6c0.5,4.8,5,5,7.2,7.8
	c1.6,0.5,2.8,2.1,4.3,2.9s2.8,2,4.9,1.7C336.5,59.2,333.2,58.4,330.7,55.8z M337.9,41.7c-1.3-0.6-2.6-1.1-4-1.3c-4,0-8.8-0.7-9.2,3
	c0.6,0.3,0.5,1.2,1.3,1.3c0.1,0.9,1.7,0.3,2,1c2.1,0.1,4.7-0.3,6.3,0.3c1-0.3,2-0.4,3-0.3c0.8-0.3,2.8,0.6,2.6-0.7v-0.3
	C339.3,43.7,338.7,42.6,337.9,41.7z M139.9,84.1l-4.5,5.6l2.4,1.1l4.5-5.6c1,0.3,2,0.5,3,0.7l-0.2-0.7
	C143.4,85,141.6,84.6,139.9,84.1z M150.3,78.1L150.3,78.1c14.8,0,27.7-9.9,31.4-24.2h-1c-0.9,0.2-6.9,4.1-12,7.7l0,0l-8.7,7.7
	c-0.6,0.5-1.3,0.8-2,0.8h-0.4c-0.9-0.1-1.7-0.6-2.2-1.3c-0.9-1.3-0.6-3.1,0.6-4.2l4.5-3.9v-0.1c0-0.1-0.1-0.1-0.1-0.1H142
	c-1.6,0-2.9-1.2-3-2.8v-0.1c0-0.3,0.1-0.7,0.2-1c-1.2,0.1-3.6,0.2-7.5,0.2c-4.5,0-8.8,0-12-0.1C124.3,69.4,136.6,78.1,150.3,78.1z
	 M126.2,77.1l-5.5,2.9l1.5,1.5l3.8-2h3.5C128.3,78.9,127.2,78.1,126.2,77.1L126.2,77.1z M118.5,69.8c-1.1-1.3-2-2.7-2.6-4.2
	l-7.4,0.6l-2.1-5.9l5.4-4.6c-0.6-1.6-0.9-3.2-0.9-4.9l-7.2-2.3v-6.2l7-2.2c0.2-1.6,0.6-3.2,1-4.8l-5.6-4.7l2.7-6l7.3,0.8
	c0.7-1.5,1.6-2.9,2.7-4.1l-3.6-6.3l4.6-4.8c0,0,6,3.2,6.6,3.5c1.1-1.1,2.4-2,3.8-2.6L130,7.9C88.1,6.7,50.2,5,41.6,5.8
	C27.7,7.1,9.9,7.9,6.2,9.6c-3.7,1.8-5,22.7-6,30s2.2,21.8,4,30s12.4,9.9,21.4,9.1c4.3-0.4,40.9,1.4,89,1h4.3l-3.7-3.8L118.5,69.8z
	 M38.1,21.6c-0.4,0.3-1,0.5-1.5,0.5L34.4,22h-0.2c0.3,2.3,0.4,4.7,0.4,7l-0.1,7.7c-0.1,3.1,0.3,6.1,0.9,9.1v0.1
	c-0.3,1.5-0.4,3-0.4,4.6l0.5,10.7c0,2.8-1.1,3.3-2.1,3.3c-0.8,0-1.5-0.4-1.8-1.1c-0.3-0.7-0.5-1.5-0.5-2.2l0.5-9.6
	c0-2-0.1-5.1-0.4-9.3s-0.4-7.3-0.4-9.4l0.1-5.2c0.1-1.7-0.1-3.5-0.4-5.2l-3,0.3c-0.6,0-1.2-0.2-1.6-0.5c-0.5-0.3-0.8-0.9-0.8-1.5
	c0-1,1.3-1.4,1.7-1.6c1.2-0.4,2.4-0.6,3.6-0.8c2-0.2,4.1-0.4,6.1-0.4c0.6,0,1.2,0.2,1.6,0.6c0.5,0.4,0.8,1,0.7,1.6
	C38.7,20.7,38.5,21.3,38.1,21.6z M57.9,47.7c0,11.7-2.5,17.6-7.4,17.6c-4.6,0-7.1-5.5-7.7-16.7c-0.1-1-0.1-2.1-0.1-3.1v-4.8
	c0-8.7,1.3-13.9,3.9-16c0.2-0.1,0.3-0.3,0.5-0.5c0.4-0.5,1-0.9,1.7-1h0.1c0.7,0.2,1.3,0.4,2,0.5s1.3,0.3,1.9,0.5
	c0.8,0.4,1.6,1.7,2.5,3.2l0.1,0.2l0,0c1,1.8,1.6,3.7,1.9,5.7c0.4,2.3,0.6,4.7,0.6,7.1V47.7z M78.4,47.7c0,11.7-2.5,17.6-7.4,17.6
	c-4.7,0-7.1-5.5-7.7-16.7c-0.1-1.1-0.1-2.1-0.1-3.1v-4.8c0-8.8,1.3-14.4,3.8-16.4c0.6-0.5,1.4-0.8,2.2-0.9h0.2
	c0.7,0.2,1.3,0.4,2,0.5c0.6,0.1,1.3,0.3,1.9,0.5c0.8,0.4,1.6,1.6,2.5,3.2c1,1.8,1.6,3.7,1.9,5.7c0.4,2.3,0.6,4.7,0.6,7.1v7.3H78.4z
	 M95.2,64.6c-0.4,0.3-0.9,0.5-1.4,0.6h-0.2c-1.7-0.5-3.4-0.7-5.1-0.7c-1.4,0.8-2.9,0.8-3.6-0.2c-0.4-0.4-0.6-1-0.6-1.6l0.6-27.2
	c-0.1-1.2-0.2-3.1-0.2-5.6c0-4.1,0.8-6.1,2.4-6.1c0.5,0,1,0.2,1.3,0.5c0.4,0.3,0.6,0.8,0.6,1.3l-0.4,4.6l0.2,14.5v0.1
	c-0.3,1-0.4,2.1-0.3,3.1l-0.2,9.6c0,2.5,0.6,3.7,1.7,3.7l2.5-0.1c2.4,0,3.6,0.7,3.6,2.1C95.9,63.7,95.7,64.2,95.2,64.6z M155.7,84.9
	l-2.2,7.2H149l0.2,1h6.6l2.3-7.2c1.2,0,2.3-0.1,3.5-0.4l-1.1-1.3C158.9,84.6,157.3,84.8,155.7,84.9z"/>
<g>
	<path class="st0" d="M67.3,44.6l0.1,2.6c0,1.1,0.1,2.1,0.2,3.2c0.1,1.1,0.2,2.2,0.3,3.4c0.1,1.2,0.3,2.3,0.5,3.2s0.4,1.9,0.6,2.7
		c0.2,0.7,0.5,1.5,0.9,1.9c0-0.1,0-0.2-0.1-0.2c-0.2-0.8-0.4-1.7-0.6-2.7s-0.3-2.1-0.5-3.2c-0.1-1.2-0.2-2.3-0.3-3.4
		c-0.1-1.1-0.1-2.1-0.2-3.2l-0.1-2.6c0-0.7,0-1.2,0-1.7v-5.8L68,35.2c0-4.3,0.9-6.5,2.8-6.5h0.1c0.9,0,1.7,0.4,2.2,1.1
		c-0.1-0.2-0.1-0.4-0.2-0.6c-0.3-1.2-1.4-2-2.7-2.1H70c-1.8,0-2.8,2.2-2.8,6.5l0.1,3.5v5.8C67.3,43.3,67.3,43.9,67.3,44.6z"/>
	<path class="st0" d="M89,25.6l-0.4,4.6l0.2,14.5v0.1c-0.3,1-0.4,2.1-0.3,3.1l-0.2,9.6c0,2.2,0.4,3.4,1.3,3.7
		c-0.1-0.5-0.1-1.2-0.1-2l0.2-9.6c0-1.1,0.1-2.1,0.4-3.2l-0.2-14.5l0.4-5c-0.3-0.9-0.8-1.7-1.4-2.4c-0.1-0.1-0.2-0.1-0.3-0.1
		C88.8,24.7,89,25.1,89,25.6z"/>
	<path class="st0" d="M228.1,60.7c0-0.4-0.1-0.8-0.1-1.3l0.2-10.8c0-1.2,0-2.7-0.1-4.1h0.6c0.5,0.4,1.1,0.5,1.8,0.5s1.3-0.3,1.8-0.8
		c0.4-0.9,0.6-1.8,0.6-2.7c0-0.8,0-1.8-1.5-2.2c0.6,0.4,0.8,0.9,0.8,1.4c0,0.6-0.2,1.3-0.6,1.8c-0.4,0.5-1.1,0.9-1.8,0.8
		c-0.6,0-1.2-0.2-1.8-0.5h-1c0.1,1.4,0.1,2.8,0.1,4l-0.3,10.9C226.9,60,227.6,60.5,228.1,60.7z"/>
	<path class="st0" d="M46.9,44.6l0.1,2.6c0,1.1,0.1,2.1,0.2,3.2c0.1,1.1,0.2,2.2,0.3,3.4s0.3,2.3,0.5,3.2s0.4,1.9,0.6,2.7
		c0.2,0.7,0.4,1.4,0.8,1.9c0-0.1,0-0.1-0.1-0.2c-0.2-0.8-0.4-1.7-0.6-2.7c-0.2-1-0.3-2.1-0.5-3.2c-0.1-1.2-0.2-2.4-0.3-3.4
		c-0.1-1.1-0.1-2.1-0.2-3.2l-0.1-2.6c0-0.7,0-1.2,0-1.7v-5.8l-0.1-3.5c0-4.3,0.9-6.5,2.8-6.5h0.1c0.8,0,1.6,0.4,2.1,1
		c-0.1-0.2-0.1-0.4-0.2-0.5c-0.3-1.2-1.4-2-2.7-2.1h-0.1c-1.8,0-2.8,2.2-2.8,6.5l0.1,3.5V43C46.9,43.3,46.9,43.9,46.9,44.6z"/>
	<path class="st0" d="M38.8,20.3C38.7,20.2,38.7,20.2,38.8,20.3c0,0.5-0.3,1-0.7,1.4c-0.4,0.3-1,0.5-1.5,0.5L34.4,22h-0.2
		c0.3,2.3,0.4,4.7,0.4,7l-0.1,7.7c-0.1,3.1,0.3,6.1,0.9,9.1v0.1c-0.3,1.5-0.4,3-0.4,4.6l0.5,10.7c0,2.8-1.1,3.3-2.1,3.3
		c-0.6,0-1.1-0.2-1.4-0.6c0.1,0.4,0.2,0.8,0.4,1.2c0.3,0.7,1,1.2,1.8,1.1c1,0,2.5-1.4,2.5-4.1l-0.5-10.8c0-1.3,0.1-2.5,0.4-3.8
		c-0.5-3.1-0.8-6.1-0.9-9.2l0.1-7.7c-0.1-2.3-0.4-4.7-0.8-7h0.6l1.7,0.1c0.6,0,1.1-0.2,1.5-0.5s0.7-0.9,0.7-1.5
		C39.5,21.2,39.2,20.6,38.8,20.3z"/>
	<path class="st0" d="M30.4,22.5l-3,0.3c-0.6,0-1.1-0.2-1.6-0.5c0,0.1,0,0.1,0,0.2c0,0.6,0.3,1.1,0.8,1.5s1,0.5,1.6,0.5l2.5-0.2
		C30.6,23.6,30.5,23,30.4,22.5z"/>
	<path class="st0" d="M260.4,25.2l-0.4,4.6l0.2,14.5v0.1c-0.3,1-0.4,2.1-0.3,3.1l-0.2,9.6c0,1.8,0.3,3,0.9,3.5
		c-0.1-0.5-0.1-1.1-0.1-1.8l0.2-9.6c0-1,0.1-2.1,0.4-3.1V46l-0.2-14.5l0.4-4.6c-0.1-0.9-0.3-1.7-0.8-2.4c-0.1-0.2-0.3-0.3-0.5-0.4
		C260.2,24.3,260.4,24.7,260.4,25.2z"/>
	<path class="st0" d="M233.3,26.4c0,1-0.7,1.7-2,2.2h-0.1h-0.1c-1.3-0.5-2.6-0.8-4-1.1c0.1,0.7,0.1,1.4,0.1,2.2l-0.3,8.6
		c0,0,0,0.2,0.1,0.5h0.7l0.6-7.5c0-0.7,0-1.4-0.1-2.2c1.2,0.3,2.4,0.6,3.6,1.1h0.1h0.1c1.3-0.5,2-1.2,2-2.2s0-2.6-1.3-3h-0.1
		C233.1,25.4,233.3,25.9,233.3,26.4z"/>
	<path class="st0" d="M282.6,26.4c0,1-0.7,1.7-2,2.2h-0.1h-0.1c-1.3-0.5-2.6-0.8-4-1.1c0.1,0.7,0.1,1.4,0.1,2.2l-0.3,8.6
		c0,0,0,0.2,0.1,0.5h0.8l0.4-6.8c0-0.7,0-1.9-0.1-2.6c1.3,0.2,2.6,0.5,3.8,0.9h0.1h0.1c1.3-0.5,2.5-1.5,2.5-2.5c0-1.5-1-2.3-2-2.8
		C282.3,25.4,282.6,25.8,282.6,26.4z"/>
	<path class="st0" d="M292.1,39.8c0.3-0.3,0.6-0.6,0.8-0.9c0-0.9-0.1-2-0.1-3.2c-0.1-3.1-0.1-5.5-0.1-7l0.1-0.5
		c0.7,0.1,1.4,0.5,1.9,1c-0.1-0.2-0.1-0.5-0.2-0.7c-0.4-1.1-1.4-1.8-2.5-1.9l-0.1,0.5c0,1.5,0,3.9,0.1,7
		C292,36.6,292.1,38.4,292.1,39.8z"/>
	<path class="st0" d="M56.3,29.5c0.5,1.2,0.9,2.5,1.1,3.9c0.4,2.3,0.6,4.7,0.6,7.1v7.2c0,11.7-2.5,17.6-7.4,17.6
		c-2.1,0-3.8-1.2-5.1-3.6c1.3,3.5,3.2,5.3,5.8,5.3c4.9,0,7.4-5.9,7.4-17.6v-7.3c0-2.4-0.2-4.7-0.6-7.1
		C57.8,33.1,57.2,31.2,56.3,29.5z"/>
	<path class="st0" d="M249.3,25.7c0,0.4-0.2,0.9-0.4,1.3l-0.1,0.2h-2.9c0.1,1.4,0.2,3,0.2,4.8l-0.3,11.4l0.4,12.7V58
		c0,0.4-0.1,0.8-0.1,1.2h0.9v-1.4l-0.4-12.7l0.3-11.5c0-1.8-0.1-3.4-0.2-4.8l2.2-0.1l1-0.6c0.2-0.7,0.3-1.4,0.2-2.1
		c0-0.7-0.5-1.1-1.3-1.3C249.1,25,249.3,25.3,249.3,25.7z"/>
	<path class="st0" d="M277.5,60.7c0-0.3-0.1-0.7-0.1-1.2V48.8c0-1.2-0.1-2.6-0.2-4l0.7-0.1c0.5,0.3,1.2,0.4,1.8,0.3
		c0.7,0,1.3-0.3,1.8-0.8c0.4-0.5,0.6-1.1,0.6-1.8s-0.2-2.3-1.4-3c0.5,0.4,0.6,0.9,0.6,1.3c0,0.6-0.2,1.3-0.6,1.8s-1.1,0.9-1.8,0.8
		c-0.6,0-1.2-0.2-1.8-0.5h-1c0.1,1.4,0.2,2.8,0.2,4L276,57.7C276.1,60.2,277,60.6,277.5,60.7z"/>
	<path class="st0" d="M266.8,61.5c0.3,0.3,0.5,0.8,0.5,1.3s-0.3,1.1-0.7,1.4c-0.4,0.3-0.9,0.5-1.4,0.6h-0.1H265
		c-1.7-0.5-3.4-0.7-5.2-0.7c-1.4,0.8-2.9,0.7-3.6-0.2c-0.1-0.2-0.2-0.3-0.3-0.5c0.1,0.7,0.4,1.3,0.7,1.9c1.2,1.1,2.9,1.4,4.4,0.7
		c1.6-0.1,3.3,0,4.8,0.4h0.1h0.1c0.5-0.1,1-0.3,1.4-0.6c0.4-0.3,0.7-0.8,0.7-1.4C268.1,63.2,268.2,62.1,266.8,61.5z"/>
	<path class="st0" d="M251,61.1c0,0.5-0.2,1-0.5,1.4s-0.7,0.6-1.2,0.6l-4.9,0.1l-2.6,0.1c-0.9,0.1-1.8-0.3-2.4-1l0.6,1.4
		c0.5,0.9,1.5,1.4,2.6,1.3l2.6-0.1l4.9-0.1c0.5,0,0.9-0.2,1.2-0.6s0.5-0.9,0.5-1.4s-0.2-1.6-0.9-2.3C251,60.6,251,60.9,251,61.1z"/>
	<path class="st0" d="M76.8,29.5c0.5,1.2,0.9,2.5,1,3.8c0.4,2.3,0.6,4.7,0.6,7.1v7.2c0,11.7-2.5,17.6-7.4,17.6
		c-2.1,0-3.7-1.1-4.9-3.2c1.3,3.3,3.2,4.9,5.7,4.9c4.9,0,7.4-5.9,7.4-17.6V42c0-2.4-0.2-4.7-0.6-7.1C78.3,33.1,77.7,31.2,76.8,29.5z
		"/>
	<path class="st0" d="M239.2,61.8c0-0.1,0-0.2,0-0.3C239.2,61.6,239.1,61.6,239.2,61.8L239.2,61.8L239.2,61.8z"/>
	<path class="st0" d="M292.6,50.9c0-0.9,0.1-1.8,0.4-2.8c-0.2-1.1-0.4-2-0.6-2.6l-0.2,0.7c-0.3,1-0.4,2-0.4,3c0,0.9,0.1,2.9,0.4,6
		c0.2,3.1,0.4,5.1,0.4,6c0,0.8-0.1,1.6-0.5,2.3c-0.3,0.5-0.8,0.8-1.4,0.9c-0.3,0-0.7-0.1-1-0.4c0.5,1.1,1.4,2.1,1.8,2.1
		c0.7,0,1.4-0.4,1.8-0.9c0.4-0.7,0.6-1.5,0.6-2.3c0-0.9-0.6-2.8-0.8-5.9C292.7,53.8,292.6,51.8,292.6,50.9z"/>
	<path class="st0" d="M302,62.1c-2.2-3.9-3.7-8-4.5-12.4c-0.5-2.7-1.1-5.6-1.3-6.6c0.9-1.5,1.7-3.2,2.2-4.9c0.8-2,1.2-4.1,1.3-6.2
		c-0.1-2.2-1.1-4.3-2.7-5.9c0.9,1.1,1.3,2.5,1.2,3.9c0.1,2.2-0.2,4.4-0.7,6.5c-0.6,2-1.4,3.9-2.4,5.7c0.2,1,0.6,2.9,1.1,5.6
		c1.1,6.1,2.4,10.6,3.9,13.3c0.4,0.6,0.6,1.3,0.7,2c0,0.5-0.1,1-0.5,1.3c-0.3,0.4-0.8,0.6-1.3,0.6c-0.7,0-1.4-0.5-2.1-1.5
		c0.9,2.2,1.8,3.2,2.9,3.2c0.5,0,1-0.2,1.3-0.6c0.4-0.5,0.8-0.9,1.3-1.3C302.8,64.6,302.6,63.4,302,62.1z"/>
	<path class="st0" d="M283,62.4c0,0.7-0.4,1.4-1,1.6c-0.6,0.3-1.3,0.5-2,0.5h-5.7c-0.6,0-1.2-0.2-1.6-0.6c-0.2-0.2-0.3-0.4-0.4-0.6
		c0.3,0.8,0.7,1.6,1.2,2.3c0.4,0.4,1,0.6,1.6,0.6h5.7c0.7,0,1.4-0.1,2-0.5c0.7-0.3,1.1-1,1.2-1.7c-0.1-0.8-0.5-1.5-1-2.1
		C283,62.1,283,62.2,283,62.4z"/>
	<path class="st0" d="M95.9,63.3c0,0.5-0.3,0.9-0.7,1.2c-0.4,0.3-0.9,0.5-1.4,0.6h-0.1h-0.1c-1.7-0.5-3.4-0.7-5.1-0.7
		c-1.3,0.7-2.7,0.7-3.4,0c0,0.5,0.2,1.1,0.6,1.5c0.8,1,2.2,1,3.6,0.2c1.7,0,3.5,0.2,5.1,0.7h0.1h0.1c0.5-0.1,1-0.3,1.5-0.6
		c0.4-0.3,0.7-0.8,0.7-1.4C96.7,64.2,96.4,63.7,95.9,63.3z"/>
	<path class="st0" d="M209.3,27.1c-2.9-0.1-4.6-0.4-5-0.7c-0.5-0.3-0.8-0.8-0.9-1.3c-0.1,0-0.2,0-0.2,0.1c0.4,1.1,1,2.1,1.9,2.9
		c0.3,0.2,1.8,0.5,4.3,0.6C209.3,28.1,209.3,27.6,209.3,27.1z"/>
	<path class="st0" d="M233.7,62.7c-0.1,0.6-0.4,1.1-1,1.3c-0.6,0.3-1.3,0.5-2,0.5h-5.6c-0.6,0-1.2-0.2-1.6-0.6
		c-0.2-0.2-0.3-0.4-0.5-0.6c0.3,0.8,0.7,1.6,1.2,2.3c0.4,0.4,1,0.6,1.6,0.6h5.7c0.7,0,1.4-0.1,2-0.4s1-1,1-1.7
		C234.4,63.6,234.3,63.1,233.7,62.7z"/>
	<path class="st0" d="M241.9,28.7c0-0.5-0.1-1.1-0.1-1.6h-2c-0.6,0-1.2-0.1-1.7-0.3c-0.1,0.6,0.2,1.2,0.7,1.6
		c0.5,0.3,1.2,0.4,1.8,0.4h1.3V28.7z"/>
	<path class="st0" d="M218.1,23.4c0.5,0.4,0.6,0.9,0.6,1.3c0,0.6-0.3,1.3-0.8,1.7c-0.5,0.3-1,0.5-1.6,0.5l-3.3,0.5l-0.1,0.3
		c0,3.7-0.1,9.2,0.6,16.7c0.7,7.5,0.6,13.3,0.6,17.1c0,0.6-0.2,1.1-0.7,1.5c-0.4,0.4-0.9,0.6-1.5,0.5h-1.7l-0.1-2.7l-0.3,4.2
		l2.7,0.2c0.6,0,1.1-0.2,1.5-0.6s1.1-0.9,1.1-1.5c0-3.8,0.1-9.6-0.6-17.1c-0.7-7.5-0.6-13.1-0.6-16.8l0.4-0.5l2.5-0.2
		c0.6,0,1.1-0.2,1.6-0.5c0.5-0.4,0.8-1,0.8-1.7C219.4,25.7,219.3,23.9,218.1,23.4z"/>
</g>
</svg>
